<svg width="240" height="240" viewBox="0 0 240 240" fill="none" xmlns="http://www.w3.org/2000/svg">
<circle cx="120" cy="120" r="119.213" stroke="#1B1B1B" stroke-width="1.57377"/>
<circle cx="119.997" cy="120.001" r="33.4426" fill="#44FC8E"/>
<path d="M121.178 101.508C121.178 101.073 120.825 100.721 120.391 100.721C119.956 100.721 119.604 101.073 119.604 101.508L121.178 101.508ZM119.834 139.835C120.142 140.142 120.64 140.142 120.947 139.835L125.955 134.827C126.262 134.52 126.262 134.021 125.955 133.714C125.647 133.407 125.149 133.407 124.842 133.714L120.391 138.165L115.939 133.714C115.632 133.407 115.134 133.407 114.827 133.714C114.519 134.021 114.519 134.52 114.827 134.827L119.834 139.835ZM119.604 101.508L119.604 139.278L121.178 139.278L121.178 101.508L119.604 101.508Z" fill="black"/>
<path d="M210.826 122.261L214.749 122.732L214.397 125.671L212.206 127.405L210.237 127.169L210.002 129.124L212.941 129.477L215.145 127.758L216.879 129.949L219.846 130.306L220.081 128.351L218.098 128.113L216.365 125.908L216.718 122.968L220.67 123.443L220.906 121.474L211.062 120.292L210.826 122.261Z" fill="#1B1B1B"/>
<path d="M209.836 133.505L213.68 134.422L212.302 140.195L214.231 140.655L215.608 134.882L217.551 135.346L216.058 141.601L217.987 142.061L219.94 133.877L210.296 131.576L209.836 133.505Z" fill="#1B1B1B"/>
<path d="M212.515 145.346L213.444 145.694L214.622 148.239L213.577 151.024L210.779 149.974L212.515 145.346ZM207.887 143.609L210.659 144.649L208.922 149.277L206.151 148.237L205.459 150.081L214.742 153.564L216.827 148.007L215.069 144.186L208.584 141.753L207.887 143.609Z" fill="#1B1B1B"/>
<path d="M209.191 162.078L208.296 161.618L207.064 153.199L205.3 152.293L201.236 160.205L203 161.111L205.524 156.197L206.515 162.917L209.161 164.276L210.502 163.866L213.673 157.692L213.225 156.363L211.474 155.464L210.568 157.228L211.45 157.681L209.191 162.078Z" fill="#1B1B1B"/>
<path d="M200.579 167.082L198.118 170.77L202.229 173.514L204.691 169.827L200.579 167.082Z" fill="#1B1B1B"/>
<path d="M192.021 175.878L194.905 178.579L192.881 180.74L190.089 180.841L188.641 179.486L187.295 180.923L189.456 182.946L192.249 182.865L192.35 185.657L194.532 187.701L195.878 186.264L194.42 184.898L194.328 182.096L196.352 179.935L199.257 182.656L200.612 181.209L193.376 174.431L192.021 175.878Z" fill="#1B1B1B"/>
<path d="M184.577 184.313L187.139 187.321L182.621 191.169L183.907 192.679L188.425 188.831L189.72 190.351L184.824 194.521L186.11 196.03L192.515 190.575L186.087 183.027L184.577 184.313Z" fill="#1B1B1B"/>
<path d="M179.763 195.425L180.308 196.253L179.759 199.004L177.273 200.637L175.632 198.139L179.763 195.425ZM177.049 191.294L178.674 193.768L174.543 196.482L172.917 194.008L171.272 195.089L176.717 203.375L181.676 200.116L182.509 195.993L178.706 190.205L177.049 191.294Z" fill="#1B1B1B"/>
<path d="M167.252 206.949L166.799 206.051L170.758 198.519L169.865 196.748L161.923 200.754L162.816 202.524L167.748 200.037L164.595 206.053L165.934 208.709L167.26 209.166L173.457 206.041L173.876 204.703L172.99 202.945L171.219 203.838L171.666 204.723L167.252 206.949Z" fill="#1B1B1B"/>
<path d="M157.337 205.927L153.175 207.453L154.877 212.094L159.039 210.568L157.337 205.927Z" fill="#1B1B1B"/>
<path d="M145.198 207.994L145.924 211.878L143.014 212.422L140.703 210.851L140.339 208.901L138.404 209.263L138.947 212.173L141.247 213.761L139.675 216.071L140.224 219.009L142.159 218.648L141.793 216.684L143.378 214.371L146.288 213.828L147.019 217.74L148.968 217.376L147.147 207.63L145.198 207.994Z" fill="#1B1B1B"/>
<path d="M134.211 210.396L134.485 214.338L128.565 214.75L128.703 216.728L134.623 216.317L134.761 218.309L128.347 218.755L128.484 220.733L136.877 220.15L136.189 210.259L134.211 210.396Z" fill="#1B1B1B"/>
<path d="M123.412 216.483L123.358 217.473L121.285 219.361L118.315 219.2L118.476 216.216L123.412 216.483ZM123.679 211.547L123.519 214.503L118.583 214.236L118.743 211.28L116.777 211.174L116.242 221.074L122.168 221.394L125.285 218.57L125.659 211.654L123.679 211.547Z" fill="#1B1B1B"/>
<path d="M106.51 218.339L106.68 217.347L114.34 213.642L114.674 211.688L105.906 210.189L105.572 212.143L111.017 213.074L104.906 216.038L104.405 218.97L105.199 220.126L112.04 221.296L113.173 220.469L113.504 218.529L111.55 218.195L111.383 219.172L106.51 218.339Z" fill="#1B1B1B"/>
<path d="M99.1531 211.624L94.8969 210.383L93.5138 215.129L97.77 216.369L99.1531 211.624Z" fill="#1B1B1B"/>
<path d="M88.1507 206.099L86.4237 209.653L83.7611 208.359L82.8379 205.722L83.7045 203.939L81.9336 203.078L80.64 205.741L81.5442 208.385L78.9068 209.308L77.6008 211.996L79.3716 212.856L80.2444 211.06L82.8945 210.143L85.5572 211.437L83.8178 215.017L85.6014 215.883L89.9343 206.965L88.1507 206.099Z" fill="#1B1B1B"/>
<path d="M77.8934 201.505L75.772 204.839L70.7649 201.654L69.7004 203.327L74.7075 206.512L73.6354 208.197L68.2101 204.745L67.1456 206.418L74.244 210.935L79.5664 202.57L77.8934 201.505Z" fill="#1B1B1B"/>
<path d="M65.9311 200.225L65.3021 200.992L62.5132 201.287L60.214 199.4L62.11 197.089L65.9311 200.225ZM69.0671 196.404L67.1891 198.693L63.3679 195.557L65.2459 193.268L63.7241 192.019L57.4341 199.683L62.0217 203.448L66.2059 203.016L70.5999 197.662L69.0671 196.404Z" fill="#1B1B1B"/>
<path d="M51.2436 191.749L51.965 191.048L60.3366 192.572L61.759 191.191L55.5614 184.81L54.139 186.192L57.9878 190.154L51.3044 188.945L49.1708 191.018L49.1304 192.419L53.9661 197.398L55.3684 197.398L56.7806 196.026L55.399 194.604L54.6878 195.295L51.2436 191.749Z" fill="#1B1B1B"/>
<path d="M49.3071 182.007L46.5957 178.499L42.6848 181.522L45.3962 185.03L49.3071 182.007Z" fill="#1B1B1B"/>
<path d="M43.6391 171.017L40.1511 172.874L38.7597 170.261L39.5654 167.586L41.3157 166.654L40.3903 164.916L37.7774 166.307L36.9526 168.977L34.2769 168.172L31.639 169.576L32.5644 171.314L34.3272 170.375L37.0095 171.194L38.4009 173.806L34.8878 175.677L35.8199 177.427L44.5712 172.767L43.6391 171.017Z" fill="#1B1B1B"/>
<path d="M38.0337 161.244L34.3551 162.687L32.1871 157.163L30.3412 157.887L32.5092 163.412L30.6501 164.141L28.301 158.155L26.4551 158.88L29.5286 166.712L38.7581 163.09L38.0337 161.244Z" fill="#1B1B1B"/>
<path d="M29.0767 153.09L28.116 153.335L25.6946 151.92L24.9603 149.038L27.8564 148.3L29.0767 153.09ZM33.867 151.87L30.9983 152.601L29.778 147.811L32.6466 147.08L32.1606 145.172L22.5527 147.62L24.0178 153.371L27.6447 155.502L34.3565 153.792L33.867 151.87Z" fill="#1B1B1B"/>
<path d="M22.2471 137.525L23.2436 137.389L29.073 143.588L31.038 143.322L29.8422 134.507L27.8773 134.774L28.6198 140.248L23.9614 135.305L21.014 135.705L20.1488 136.809L21.0818 143.686L22.2097 144.519L24.1606 144.255L23.8941 142.29L22.9116 142.423L22.2471 137.525Z" fill="#1B1B1B"/>
<path d="M26.4549 128.635L26.3523 124.202L21.4104 124.317L21.5131 128.749L26.4549 128.635Z" fill="#1B1B1B"/>
<path d="M28.4068 116.086L24.4974 115.51L24.929 112.581L27.166 110.907L29.1277 111.196L29.4148 109.248L26.4862 108.816L24.2373 110.475L22.5627 108.238L19.6061 107.802L19.3189 109.75L21.2947 110.041L22.9673 112.292L22.5356 115.221L18.5981 114.64L18.3089 116.602L28.1177 118.048L28.4068 116.086Z" fill="#1B1B1B"/>
<path d="M29.6736 104.956L25.8555 103.937L27.386 98.2027L25.4702 97.6913L23.9396 103.425L22.0101 102.91L23.6685 96.6973L21.7526 96.1859L19.5828 104.315L29.1622 106.872L29.6736 104.956Z" fill="#1B1B1B"/>
<path d="M27.3042 93.0637L26.3854 92.6912L25.2744 90.1163L26.392 87.3598L29.1616 88.4827L27.3042 93.0637ZM31.8852 94.9211L29.1419 93.8088L30.9992 89.2278L33.7426 90.3401L34.4823 88.5156L25.2941 84.7902L23.0642 90.29L24.7215 94.1563L31.1402 96.7587L31.8852 94.9211Z" fill="#1B1B1B"/>
<path d="M31.0565 76.414L31.9389 76.8965L32.953 85.3451L34.6928 86.2965L38.9604 78.4921L37.2206 77.5408L34.5703 82.3874L33.7534 75.6448L31.1436 74.2177L29.7924 74.5927L26.4626 80.6821L26.876 82.0221L28.6034 82.9667L29.5548 81.2268L28.6849 80.7512L31.0565 76.414Z" fill="#1B1B1B"/>
<path d="M39.7764 71.6555L42.3316 68.0327L38.2921 65.1836L35.7369 68.8064L39.7764 71.6555Z" fill="#1B1B1B"/>
<path d="M48.3446 63.2856L45.5301 60.5117L47.608 58.4033L50.4022 58.373L51.8145 59.7649L53.1965 58.3627L51.0881 56.2847L48.2938 56.295L48.2635 53.5009L46.1349 51.403L44.7529 52.8052L46.1753 54.2071L46.1957 57.0114L44.1178 59.1197L41.283 56.3259L39.8911 57.7382L46.9527 64.6979L48.3446 63.2856Z" fill="#1B1B1B"/>
<path d="M55.8639 55.1085L53.3793 52.0356L57.9941 48.3041L56.7473 46.7622L52.1325 50.4936L50.8768 48.9407L55.8771 44.8975L54.6303 43.3555L48.0881 48.6455L54.322 56.3552L55.8639 55.1085Z" fill="#1B1B1B"/>
<path d="M61.123 43.9471L60.6 43.1048L61.2192 40.3696L63.7461 38.8006L65.3226 41.3396L61.123 43.9471ZM63.7305 48.1466L62.169 45.6317L66.3686 43.0242L67.9301 45.5391L69.6027 44.5006L64.3727 36.0774L59.3309 39.2079L58.3924 43.3084L62.0459 49.1926L63.7305 48.1466Z" fill="#1B1B1B"/>
<path d="M73.9227 32.7138L74.352 33.6232L70.1994 41.0504L71.0461 42.8435L79.0895 39.0458L78.2429 37.2526L73.2478 39.6111L76.5557 33.6792L75.2857 30.9895L73.9726 30.4974L67.6966 33.4606L67.2423 34.7873L68.0829 36.5676L69.876 35.721L69.4527 34.8244L73.9227 32.7138Z" fill="#1B1B1B"/>
<path d="M83.9763 33.9024L88.1774 32.4863L86.5984 27.8021L82.3973 29.2182L83.9763 33.9024Z" fill="#1B1B1B"/>
<path d="M96.046 32.1529L95.4248 28.2503L98.3482 27.7849L100.616 29.4175L100.928 31.3758L102.872 31.0663L102.407 28.1429L100.151 26.4941L101.783 24.2263L101.313 21.2749L99.3691 21.5843L99.6831 23.5566L98.0365 25.8266L95.113 26.292L94.4874 22.3614L92.5291 22.6731L94.0877 32.4646L96.046 32.1529Z" fill="#1B1B1B"/>
<path d="M106.696 30.0635L106.513 26.116L112.441 25.8413L112.349 23.8605L106.421 24.1352L106.329 22.1402L112.752 21.8426L112.66 19.8617L104.256 20.2512L104.715 30.1553L106.696 30.0635Z" fill="#1B1B1B"/>
<path d="M118.09 24.1826L118.17 23.1944L120.294 21.3631L123.258 21.6038L123.017 24.5825L118.09 24.1826ZM117.69 29.1096L117.929 26.159L122.856 26.559L122.617 29.5096L124.579 29.6688L125.381 19.7866L119.466 19.3064L116.274 22.0457L115.713 28.9492L117.69 29.1096Z" fill="#1B1B1B"/>
<path d="M134.503 22.6662L134.311 23.6533L126.567 27.1817L126.188 29.1281L134.919 30.8281L135.298 28.8817L129.876 27.826L136.054 25.0028L136.622 22.0832L135.855 20.9093L129.043 19.5829L127.891 20.3832L127.515 22.3157L129.461 22.6947L129.651 21.7215L134.503 22.6662Z" fill="#1B1B1B"/>
<path d="M142.23 29.6451L146.452 30.9977L147.96 26.2902L143.738 24.9376L142.23 29.6451Z" fill="#1B1B1B"/>
<path d="M153.15 35.4687L154.968 31.9603L157.596 33.3226L158.451 35.983L157.538 37.7435L159.286 38.6496L160.648 36.0214L159.813 33.3549L162.474 32.5004L163.849 29.8471L162.101 28.9411L161.182 30.7141L158.509 31.5621L155.881 30.1998L157.712 26.6662L155.952 25.7536L151.389 34.5561L153.15 35.4687Z" fill="#1B1B1B"/>
<path d="M163.284 40.3167L165.49 37.0382L170.414 40.3514L171.521 38.7063L166.597 35.393L167.712 33.7361L173.047 37.3262L174.154 35.681L167.174 30.9839L161.639 39.2097L163.284 40.3167Z" fill="#1B1B1B"/>
<path d="M174.991 41.6991L175.64 40.9489L178.435 40.7253L180.685 42.6702L178.731 44.9314L174.991 41.6991ZM171.759 45.4391L173.695 43.1994L177.435 46.4317L175.499 48.6714L176.989 49.9587L183.472 42.4573L178.981 38.5767L174.788 38.9022L170.259 44.1425L171.759 45.4391Z" fill="#1B1B1B"/>
<path d="M189.439 50.476L188.7 51.1581L180.37 49.4217L178.913 50.7667L184.946 57.3027L186.403 55.9576L182.656 51.8987L189.307 53.2772L191.493 51.2597L191.569 49.8595L186.861 44.7597L185.459 44.7237L184.013 46.0591L185.358 47.5162L186.086 46.8437L189.439 50.476Z" fill="#1B1B1B"/>
<path d="M191.498 60.6431L194.106 64.2282L198.103 61.3204L195.495 57.7352L191.498 60.6431Z" fill="#1B1B1B"/>
<path d="M196.742 71.5949L200.277 69.8285L201.6 72.4766L200.725 75.1304L198.951 76.0168L199.832 77.778L202.48 76.4547L203.373 73.8072L206.027 74.682L208.701 73.3461L207.821 71.585L206.034 72.4777L203.374 71.5902L202.051 68.9422L205.611 67.1631L204.725 65.3893L195.856 69.8211L196.742 71.5949Z" fill="#1B1B1B"/>
<path d="M202.145 81.6012L205.861 80.2547L207.883 85.8343L209.747 85.1586L207.725 79.579L209.603 78.8985L211.794 84.9442L213.658 84.2685L210.791 76.3586L201.47 79.7369L202.145 81.6012Z" fill="#1B1B1B"/>
<path d="M210.787 89.6443L211.753 89.4215L214.141 90.8912L214.81 93.7896L211.897 94.4611L210.787 89.6443ZM205.97 90.755L208.854 90.0899L209.965 94.9067L207.081 95.5718L207.523 97.4903L217.184 95.2625L215.851 89.4796L212.273 87.2665L205.524 88.8228L205.97 90.755Z" fill="#1B1B1B"/>
<path d="M217.274 105.447L216.275 105.559L210.59 99.2275L208.619 99.4487L209.611 108.288L211.582 108.067L210.966 102.577L215.509 107.626L218.465 107.294L219.355 106.211L218.581 99.3139L217.472 98.4549L215.516 98.6745L215.737 100.645L216.722 100.534L217.274 105.447Z" fill="#1B1B1B"/>
</svg>
