<svg width="261" height="143" viewBox="0 0 261 143" fill="none" xmlns="http://www.w3.org/2000/svg">
<path d="M8.48 64.24C7.97333 64.32 7.36 64.3067 6.64 64.2C5.92 64.12 5.14667 63.9733 4.32 63.76C3.89333 63.6267 3.58667 63.4667 3.4 63.28C3.24 63.0933 2.96 62.7467 2.56 62.24C2.29333 61.84 2.12 61.3867 2.04 60.88C1.98667 60.3733 2.05333 59.92 2.24 59.52C2.45333 59.12 2.8 58.88 3.28 58.8C3.49333 58.7467 3.74667 58.8 4.04 58.96C4.36 59.0933 4.69333 59.2667 5.04 59.48C5.6 59.8 6.2 60.12 6.84 60.44C7.48 60.7867 8.06667 60.92 8.6 60.84C8.97333 60.76 9.41333 60.7067 9.92 60.68C10.4533 60.68 10.96 60.64 11.44 60.56C11.9467 60.48 12.3467 60.3333 12.64 60.12C14.0533 59.16 15.1067 58.4 15.8 57.84C16.4933 57.2533 16.84 56.96 16.84 56.96C16.8933 56.8533 16.9867 56.7733 17.12 56.72C17.28 56.64 17.4667 56.56 17.68 56.48C17.84 56.32 18.0933 56.0667 18.44 55.72C18.7867 55.3467 19.12 54.9867 19.44 54.64C19.7867 54.2933 20 54.0933 20.08 54.04C20.1333 53.8 20.1867 53.6133 20.24 53.48C20.2933 53.32 20.32 53.16 20.32 53C20.5333 52.7867 20.8133 52.3467 21.16 51.68C21.5333 50.9867 21.9067 50.2267 22.28 49.4C22.6533 48.5467 22.92 47.7733 23.08 47.08C23.4267 45.6133 23.5467 44.28 23.44 43.08C23.3333 41.88 23.0267 40.8 22.52 39.84C22.0133 38.88 21.3333 38.04 20.48 37.32C20.1867 37.08 19.7867 36.8267 19.28 36.56C18.7733 36.2667 18.2533 36 17.72 35.76C17.1867 35.4933 16.7067 35.2933 16.28 35.16C15.88 35.0267 15.64 34.9733 15.56 35C15.4533 35.0267 15.24 35.44 14.92 36.24C14.6267 37.0133 14.2533 38.0133 13.8 39.24C13.3733 40.4667 12.9067 41.7867 12.4 43.2C11.92 44.5867 11.4533 45.9067 11 47.16C10.8667 47.6667 10.6933 48.2 10.48 48.76C10.2933 49.32 10.1333 49.8133 10 50.24C9.86667 50.64 9.8 50.9067 9.8 51.04C9.50667 51.4933 9.2 52.1867 8.88 53.12C8.56 54.0533 8.29333 55.3867 8.08 57.12C7.84 58.0267 7.66667 58.7867 7.56 59.4C7.45333 59.9867 7.34667 60.2667 7.24 60.24C7.24 60.24 7.22667 60.36 7.2 60.6C7.17333 60.8667 7.12 61.04 7.04 61.12C7.04 61.28 6.88 61.3867 6.56 61.44C6.24 61.4933 5.86667 61.4267 5.44 61.24C5.01333 61.0533 4.61333 60.6933 4.24 60.16C4.16 59.8667 4.09333 59.44 4.04 58.88C4.01333 58.2933 4.10667 57.6133 4.32 56.84C4.45333 56.3333 4.64 55.68 4.88 54.88C5.12 54.08 5.38667 53.2533 5.68 52.4C5.97333 51.5467 6.24 50.76 6.48 50.04C6.74667 49.32 6.93333 48.7867 7.04 48.44C7.22667 47.9867 7.49333 47.1333 7.84 45.88C8.05333 45.1867 8.26667 44.4933 8.48 43.8C8.72 43.1067 8.94667 42.4933 9.16 41.96C9.37333 41.4 9.52 41.04 9.6 40.88C9.73333 40.5333 9.89333 39.9733 10.08 39.2C10.2933 38.4 10.6133 37.4933 11.04 36.48L11.32 35.16L10.88 34.96C10.56 35.0667 10.3067 35.1067 10.12 35.08C9.96 35.0267 9.85333 34.9867 9.8 34.96C9.64 35.0133 9.42667 34.9733 9.16 34.84C8.92 34.68 8.69333 34.48 8.48 34.24C8.29333 34 8.17333 33.8 8.12 33.64C8.06667 33.5333 8.02667 33.4 8 33.24C8 33.0533 8 32.96 8 32.96C8.02667 32.8 8.25333 32.64 8.68 32.48C9.10667 32.2933 9.65333 32.12 10.32 31.96C11.0133 31.8 11.7467 31.68 12.52 31.6C13.2933 31.52 14.0133 31.5067 14.68 31.56C15.3733 31.6133 16.2267 31.7733 17.24 32.04C18.2533 32.3067 19.12 32.5733 19.84 32.84C20.6933 33.16 21.6133 33.7067 22.6 34.48C23.5867 35.2533 24.48 36.1733 25.28 37.24C26.1067 38.3067 26.6533 39.4267 26.92 40.6C27 40.92 27.08 41.3733 27.16 41.96C27.24 42.5467 27.28 43.12 27.28 43.68C27.3067 44.2133 27.2533 44.56 27.12 44.72C27.0667 44.8267 27.0267 44.96 27 45.12C27 45.2533 27.0533 45.3467 27.16 45.4C27.1333 45.48 27.04 45.7867 26.88 46.32C26.72 46.8267 26.5733 47.2667 26.44 47.64C26.3867 48.3333 26.2 49.1333 25.88 50.04C25.5867 50.9467 25.2533 51.8133 24.88 52.64C24.5333 53.44 24.2267 54.0667 23.96 54.52C23.8533 54.52 23.7467 54.5467 23.64 54.6C23.56 54.6267 23.5733 54.6533 23.68 54.68C23.68 54.8133 23.5333 55.0667 23.24 55.44C23.1333 55.52 22.96 55.72 22.72 56.04C22.5067 56.3333 22.3333 56.5333 22.2 56.64C22.1733 56.8267 22.0933 56.9867 21.96 57.12C21.8267 57.2267 21.7067 57.28 21.6 57.28C21.6 57.28 21.5733 57.28 21.52 57.28C21.4933 57.28 21.48 57.3333 21.48 57.44C21.2667 57.76 20.9067 58.1733 20.4 58.68C19.8933 59.1867 19.32 59.7067 18.68 60.24C18.04 60.7733 17.4 61.2667 16.76 61.72C16.12 62.1733 15.5333 62.5067 15 62.72C14.7333 62.9067 14.4533 63.0533 14.16 63.16C13.8667 63.2933 13.5867 63.4267 13.32 63.56C13.1867 63.6667 12.8 63.76 12.16 63.84C11.52 63.92 10.84 63.9867 10.12 64.04C9.42667 64.0933 8.88 64.16 8.48 64.24ZM30.9566 61.4C29.9699 60.68 29.1832 60.0133 28.5966 59.4C28.0366 58.76 27.7299 58.1467 27.6766 57.56C27.6232 57.08 27.6232 56.4267 27.6766 55.6C27.7566 54.7733 27.8499 53.96 27.9566 53.16C28.0632 52.36 28.1566 51.76 28.2366 51.36C28.3699 51.2267 28.4232 51.0533 28.3966 50.84C28.3966 50.6 28.3966 50.48 28.3966 50.48C28.3699 50.3467 28.4632 50 28.6766 49.44C28.8899 48.8533 29.0899 48.1067 29.2766 47.2C29.8099 45.6 30.3166 44.2667 30.7966 43.2C31.3032 42.1067 31.7966 41.1733 32.2766 40.4C32.7566 39.6267 33.2366 38.92 33.7166 38.28C34.8099 37.16 35.8366 36.2667 36.7966 35.6C37.7832 34.9333 38.6899 34.4133 39.5166 34.04C40.0499 33.72 40.5432 33.4667 40.9966 33.28C41.4499 33.0933 41.8232 33.0667 42.1166 33.2C43.6099 33.52 44.8766 34.1733 45.9166 35.16C46.9566 36.1467 47.6499 37.5733 47.9966 39.44C48.1832 40.6133 48.2899 41.68 48.3166 42.64C48.3699 43.5733 48.3032 44.5067 48.1166 45.44C47.9299 46.3467 47.5832 47.3467 47.0766 48.44C46.5966 49.5333 45.9166 50.8133 45.0366 52.28C43.9432 54.44 42.7432 56.2533 41.4366 57.72C40.1566 59.16 38.8632 60.2533 37.5566 61C36.2766 61.7467 35.0499 62.1467 33.8766 62.2C32.7299 62.28 31.7566 62.0133 30.9566 61.4ZM34.1566 58.76C34.7699 58.68 35.2632 58.56 35.6366 58.4C36.0366 58.24 36.4499 57.9333 36.8766 57.48C37.3032 57.0267 37.9032 56.36 38.6766 55.48C39.3699 54.68 39.9432 54 40.3966 53.44C40.8766 52.88 41.2766 52.3067 41.5966 51.72C41.9432 51.1333 42.2632 50.44 42.5566 49.64C42.8766 48.8133 43.2232 47.76 43.5966 46.48C43.8099 45.68 43.9566 45.0933 44.0366 44.72C44.1432 44.32 44.2099 43.9867 44.2366 43.72C44.2632 43.4533 44.2632 43.0933 44.2366 42.64C44.2366 42.16 44.2366 41.44 44.2366 40.48C44.2099 40.0267 44.1166 39.52 43.9566 38.96C43.7966 38.3733 43.6099 37.96 43.3966 37.72C43.1299 37.4267 42.7299 37.1733 42.1966 36.96C41.6632 36.7467 41.1032 36.7733 40.5166 37.04C40.1966 37.1733 39.7966 37.4533 39.3166 37.88C38.8366 38.28 38.3432 38.76 37.8366 39.32C37.3299 39.88 36.8499 40.44 36.3966 41C35.9432 41.56 35.5832 42.0667 35.3166 42.52C35.0499 42.9733 34.9166 43.2933 34.9166 43.48C34.9166 43.48 34.9032 43.5467 34.8766 43.68C34.8766 43.8133 34.8232 43.9467 34.7166 44.08C34.3699 44.4533 34.0099 45.0667 33.6366 45.92C33.2632 46.7733 32.9166 47.7467 32.5966 48.84C32.2766 49.9333 32.0099 51.0267 31.7966 52.12C31.5832 53.2133 31.4499 54.2 31.3966 55.08C31.3966 55.5067 31.3966 55.8667 31.3966 56.16C31.3966 56.4533 31.4232 56.72 31.4766 56.96C31.5566 57.1733 31.6766 57.4133 31.8366 57.68C31.9966 57.9467 32.3166 58.2133 32.7966 58.48C33.3032 58.7467 33.7566 58.84 34.1566 58.76ZM54.5613 61.68C54.4546 61.7867 54.3346 61.8267 54.2013 61.8C54.0679 61.8 53.8546 61.7333 53.5612 61.6C53.0546 61.4667 52.6013 61.1733 52.2013 60.72C51.8279 60.2667 51.7746 59.7467 52.0413 59.16C52.1479 58.9733 52.2813 58.5733 52.4413 57.96C52.6279 57.32 52.8279 56.5867 53.0413 55.76C53.2546 54.9333 53.4679 54.1067 53.6813 53.28C53.8946 52.4533 54.0813 51.7333 54.2413 51.12C54.4013 50.48 54.5079 50.0533 54.5613 49.84C54.5613 49.6267 54.6146 49.2 54.7213 48.56C54.8546 47.92 54.9746 47.2 55.0813 46.4C55.3746 45.84 55.5746 45.2267 55.6813 44.56C55.8146 43.8933 55.9079 43.4133 55.9613 43.12C56.0679 42.6933 56.1879 42.24 56.3213 41.76C56.4813 41.28 56.6146 40.8 56.7213 40.32C56.8279 39.8933 56.9346 39.4533 57.0413 39C57.1746 38.5467 57.2413 38.2533 57.2413 38.12V37.48H55.7613C55.3613 37.5067 54.9079 37.5067 54.4013 37.48C53.8946 37.4533 53.3346 37.44 52.7213 37.44C51.4679 37.3867 50.6279 37.2667 50.2013 37.08C49.8013 36.8667 49.5746 36.4667 49.5213 35.88C49.4679 35.56 49.5346 35.28 49.7213 35.04C49.9079 34.7733 50.3479 34.56 51.0413 34.4C51.7346 34.24 52.8013 34.1867 54.2413 34.24C55.3613 34.1867 56.2413 34.1867 56.8813 34.24C57.5213 34.2667 57.8946 34.28 58.0013 34.28C58.1079 34.1733 58.1746 34.0667 58.2013 33.96C58.2279 33.8533 58.2679 33.7467 58.3213 33.64C58.3213 33.5067 58.3346 33.36 58.3613 33.2C58.4146 33.0133 58.5479 32.88 58.7613 32.8C58.9746 32.4 59.3746 32.24 59.9613 32.32C60.5746 32.3733 61.0279 32.6133 61.3213 33.04C61.4279 33.28 61.4546 33.5333 61.4013 33.8C61.3746 34.0667 61.4546 34.3067 61.6413 34.52C61.7479 34.4133 62.0279 34.3467 62.4813 34.32C62.9346 34.2933 63.4146 34.2667 63.9213 34.24C64.5346 34.24 65.0813 34.2267 65.5613 34.2C66.0413 34.1467 66.3746 34.12 66.5613 34.12C66.8013 33.9867 67.1079 33.92 67.4813 33.92C67.8813 33.92 68.2813 33.9467 68.6813 34C69.2946 34 69.7213 34.16 69.9613 34.48C70.2279 34.7733 70.4013 34.9867 70.4813 35.12C70.4813 35.2267 70.4813 35.3333 70.4813 35.44C70.5079 35.5467 70.5746 35.6533 70.6813 35.76C70.7879 35.8667 70.8413 35.9467 70.8413 36C70.8413 36.0267 70.7879 36.1467 70.6813 36.36C70.5746 36.4667 70.3879 36.56 70.1213 36.64C69.8546 36.6933 69.5613 36.72 69.2413 36.72C69.0546 36.72 68.7346 36.7467 68.2812 36.8C67.8279 36.8267 67.4413 36.84 67.1213 36.84C66.5079 36.9467 65.9079 37.04 65.3212 37.12C64.7346 37.1733 63.9746 37.2267 63.0413 37.28C62.6413 37.28 62.2679 37.3067 61.9213 37.36C61.5746 37.3867 61.4013 37.4667 61.4013 37.6C61.2946 37.6 61.1479 37.88 60.9613 38.44C60.8013 39 60.6413 39.5867 60.4813 40.2C60.3213 40.8933 60.1479 41.4933 59.9613 42C59.8013 42.5067 59.6679 42.84 59.5613 43C59.6679 43.1067 59.7079 43.24 59.6813 43.4C59.6813 43.56 59.6013 43.84 59.4413 44.24C59.3346 44.6133 59.2279 44.9067 59.1213 45.12C59.0413 45.3333 59.0013 45.5467 59.0013 45.76C59.0013 45.76 58.9346 45.9733 58.8013 46.4C58.6946 46.8 58.5879 47.3067 58.4813 47.92C58.4279 48.5067 58.3479 49 58.2413 49.4C58.1613 49.8 58.0679 50.0533 57.9613 50.16C57.9613 50.16 57.9079 50.2533 57.8013 50.44C57.6946 50.6 57.6413 50.7867 57.6413 51C57.6413 51.24 57.5879 51.64 57.4813 52.2C57.4013 52.7333 57.3079 53.24 57.2013 53.72C57.0946 54.2 57.0013 54.4667 56.9213 54.52C57.1879 54.5733 57.1479 54.9333 56.8013 55.6C56.8013 55.8667 56.7613 56.1333 56.6813 56.4C56.6013 56.6667 56.5613 56.8533 56.5613 56.96C56.4013 57.4667 56.1746 58.08 55.8813 58.8C55.5879 59.52 55.3079 60.16 55.0412 60.72C54.8013 61.28 54.6413 61.6 54.5613 61.68ZM79.4094 63.48C79.3027 63.48 79.1027 63.4267 78.8094 63.32C78.5427 63.24 78.3427 63.12 78.2094 62.96C78.0227 62.7733 77.8894 62.5467 77.8094 62.28C77.756 62.0133 77.7294 61.76 77.7294 61.52C77.7294 61.2267 77.7294 60.8 77.7294 60.24C77.7294 59.7067 77.7027 59.1867 77.6494 58.68C77.6494 57.9067 77.636 57.1867 77.6094 56.52C77.5827 55.8533 77.6227 55.4 77.7294 55.16C77.6494 54.7867 77.636 54.3867 77.6894 53.96C77.7694 53.5067 77.8094 53.16 77.8094 52.92L77.6494 51.84H75.4894C74.9827 51.92 74.1694 51.9333 73.0494 51.88C71.9294 51.8 70.676 51.72 69.2894 51.64L68.7694 52.48C68.6894 52.5867 68.5427 52.8 68.3294 53.12C68.116 53.44 67.9027 53.88 67.6894 54.44C67.556 54.7867 67.3694 55.2267 67.1294 55.76C66.916 56.2667 66.676 56.7733 66.4094 57.28C66.1694 57.7867 65.9294 58.2133 65.6894 58.56C65.2627 59.3867 64.876 59.9467 64.5294 60.24C64.2094 60.56 63.9827 60.72 63.8494 60.72C63.6094 60.72 63.4227 60.7067 63.2894 60.68C63.156 60.6533 62.956 60.5467 62.6894 60.36C62.156 60.12 61.8094 59.7467 61.6494 59.24C61.516 58.7333 61.716 58.0933 62.2494 57.32C62.3827 57.1333 62.5027 56.9467 62.6094 56.76C62.716 56.5733 62.7694 56.48 62.7694 56.48C62.7694 56.4267 62.876 56.16 63.0894 55.68C63.3294 55.1733 63.6094 54.6133 63.9294 54C64.2494 53.36 64.556 52.8 64.8494 52.32C65.1427 51.8133 65.356 51.5333 65.4894 51.48C65.9694 50.9467 65.9294 50.44 65.3694 49.96C65.1827 49.88 65.0627 49.6533 65.0094 49.28C64.956 48.9067 65.0494 48.56 65.2894 48.24C65.5294 47.8933 65.9827 47.7467 66.6494 47.8C66.916 47.6667 67.1027 47.5733 67.2094 47.52C67.3427 47.4667 67.4094 47.3867 67.4094 47.28C67.4094 47.2267 67.4627 47.0667 67.5694 46.8C67.7027 46.5333 67.8627 46.2267 68.0494 45.88C68.236 45.5067 68.436 45.1467 68.6494 44.8C68.8627 44.4533 69.0627 44.16 69.2494 43.92C69.5427 43.1733 69.7694 42.68 69.9294 42.44C70.0894 42.1733 70.2227 41.92 70.3294 41.68C70.4627 41.5467 70.6494 41.2533 70.8894 40.8C71.1294 40.3467 71.3827 39.9067 71.6494 39.48C72.0227 39.1067 72.356 38.7067 72.6494 38.28C72.9694 37.8267 73.2494 37.4533 73.4894 37.16C73.6227 36.8667 73.8094 36.5467 74.0494 36.2C74.316 35.8533 74.5827 35.4933 74.8494 35.12C75.356 34.56 75.956 34.1067 76.6494 33.76C77.3694 33.4133 77.996 33.36 78.5294 33.6C79.1427 33.8667 79.716 34.4 80.2494 35.2C80.7827 35.9733 81.0894 36.92 81.1694 38.04C81.2494 38.6533 81.3294 39.3467 81.4094 40.12C81.516 40.8667 81.5027 41.4267 81.3694 41.8C81.3694 42.28 81.356 42.8667 81.3294 43.56C81.3294 44.2533 81.3694 44.9067 81.4494 45.52C81.3427 46.0267 81.3027 46.6 81.3294 47.24C81.356 47.8533 81.3694 48.28 81.3694 48.52C81.3694 48.76 81.356 49.1467 81.3294 49.68C81.3027 50.1867 81.2894 50.6267 81.2894 51C81.2627 52.0133 81.236 52.8533 81.2094 53.52C81.2094 54.1867 81.2094 54.8267 81.2094 55.44C81.236 56.0267 81.2494 56.72 81.2494 57.52C81.3027 59.6267 81.156 61.12 80.8094 62C80.4894 62.9067 80.0227 63.4 79.4094 63.48ZM71.3294 48.52C71.3294 48.52 71.596 48.4933 72.1294 48.44C72.6627 48.36 73.3027 48.3333 74.0494 48.36C74.9294 48.28 75.6494 48.2667 76.2094 48.32C76.7694 48.3467 77.1027 48.3333 77.2094 48.28C77.5027 48.3067 77.7027 48.1867 77.8094 47.92C77.916 47.6533 77.9694 47.3067 77.9694 46.88C77.916 46.2933 77.8627 45.56 77.8094 44.68C77.7827 43.7733 77.756 42.8667 77.7294 41.96C77.7027 41.0267 77.7027 40.2267 77.7294 39.56C77.7294 39.0533 77.6894 38.5467 77.6094 38.04C77.5294 37.5067 77.4894 37.24 77.4894 37.24C77.436 37.16 77.276 37.2933 77.0094 37.64C76.7694 37.96 76.4894 38.36 76.1694 38.84C75.8494 39.32 75.556 39.8 75.2894 40.28C75.0227 40.7333 74.8227 41.0667 74.6894 41.28C74.5827 41.4133 74.3827 41.76 74.0894 42.32C73.796 42.88 73.4627 43.48 73.0894 44.12C72.1027 45.6933 71.5027 46.7867 71.2894 47.4C71.076 48.0133 71.0894 48.3867 71.3294 48.52ZM86.5191 59.68C86.4124 59.6267 86.2257 59.48 85.9591 59.24C85.7191 59 85.4791 58.7333 85.2391 58.44C84.9991 58.12 84.8391 57.88 84.7591 57.72C84.6791 57.5867 84.6791 57.3467 84.7591 57C84.8657 56.6533 84.9724 56.48 85.0791 56.48C85.1591 56.5333 85.2657 56.44 85.3991 56.2C85.5324 55.96 85.6657 55.7067 85.7991 55.44C85.9324 55.1467 85.9991 54.9733 85.9991 54.92C86.0257 54.8133 86.0924 54.7333 86.1991 54.68C86.3324 54.6 86.4524 54.52 86.5591 54.44C86.6924 54.2267 86.8657 54.0133 87.0791 53.8C87.3191 53.56 87.5057 53.36 87.6391 53.2C87.8524 52.9333 88.2391 52.5333 88.7991 52C89.3591 51.4667 89.9057 50.92 90.4391 50.36C90.9991 49.7467 91.4924 49.2133 91.9191 48.76C92.3457 48.28 92.5724 47.9467 92.5991 47.76C92.5991 47.76 92.6391 47.72 92.7191 47.64C92.8257 47.5333 92.9457 47.44 93.0791 47.36C93.2124 47.28 93.3857 47.1467 93.5991 46.96C93.8391 46.7733 94.0391 46.6 94.1991 46.44C94.2524 46.2267 94.3724 45.9867 94.5591 45.72C94.7724 45.4267 95.0124 45.1467 95.2791 44.88C95.4924 44.56 95.6924 44.2133 95.8791 43.84C96.0657 43.44 96.1857 43.1467 96.2391 42.96C96.3191 42.6667 96.2924 42.4933 96.1591 42.44C96.0257 42.36 95.6657 42.2267 95.0791 42.04C94.4391 41.8267 93.8391 41.7867 93.2791 41.92C92.7191 42.0533 91.9724 42.4533 91.0391 43.12C90.6657 43.2 90.3191 43.3067 89.9991 43.44C89.7057 43.5733 89.4524 43.6267 89.2391 43.6C89.1324 43.5467 89.0124 43.4267 88.8791 43.24C88.7457 43.0533 88.5991 42.88 88.4391 42.72L88.0391 41L89.2791 40.32C90.3724 39.6267 91.4124 39.1067 92.3991 38.76C93.4124 38.3867 94.2924 38.32 95.0391 38.56C95.3324 38.56 95.5991 38.6 95.8391 38.68C96.0791 38.7333 96.1991 38.76 96.1991 38.76C96.4124 38.7333 96.7191 38.84 97.1191 39.08C97.5457 39.32 97.9591 39.6267 98.3591 40C98.7857 40.3733 99.0791 40.7467 99.2391 41.12C99.6657 41.76 99.8257 42.5333 99.7191 43.44C99.6124 44.3467 99.2257 45.2933 98.5591 46.28C98.4257 46.44 98.1324 46.7733 97.6791 47.28C97.2257 47.7867 96.7057 48.36 96.1191 49C95.5591 49.6133 95.0391 50.16 94.5591 50.64C94.1057 51.12 93.8124 51.4267 93.6791 51.56C93.4924 51.64 93.1724 51.8933 92.7191 52.32C92.2924 52.7467 91.8257 53.2267 91.3191 53.76C90.8391 54.2667 90.4257 54.72 90.0791 55.12C89.7591 55.4933 89.6257 55.68 89.6791 55.68C89.6524 55.7867 89.7857 55.7867 90.0791 55.68C90.3991 55.5467 90.6791 55.44 90.9191 55.36C91.3191 55.2267 91.7857 55.1067 92.3191 55C92.8791 54.8667 93.4391 54.76 93.9991 54.68C94.5591 54.6 95.0391 54.5467 95.4391 54.52C95.8657 54.4933 96.1191 54.52 96.1991 54.6C96.2524 54.7333 96.2924 54.7867 96.3191 54.76C96.3724 54.7067 96.3991 54.68 96.3991 54.68C96.4524 54.4933 96.7857 54.44 97.3991 54.52C98.0391 54.6 98.6124 54.72 99.1191 54.88C99.4124 54.96 99.6391 55.0667 99.7991 55.2C99.9857 55.3333 100.079 55.4533 100.079 55.56C100.079 55.56 100.106 55.6267 100.159 55.76C100.239 55.8667 100.359 56.0133 100.519 56.2C100.946 56.5467 100.946 56.92 100.519 57.32C100.119 57.72 99.3857 57.8267 98.3191 57.64C97.6257 57.64 97.0524 57.68 96.5991 57.76C96.4924 57.8133 96.2657 57.84 95.9191 57.84C95.5724 57.84 95.2391 57.8533 94.9191 57.88C94.4391 57.8267 93.9591 57.8533 93.4791 57.96C92.9991 58.04 92.4257 58.1867 91.7591 58.4C91.5191 58.48 91.1457 58.6 90.6391 58.76C90.1324 58.92 89.5857 59.08 88.9991 59.24C88.4124 59.4 87.8791 59.52 87.3991 59.6C86.9457 59.68 86.6524 59.7067 86.5191 59.68Z" fill="white"/>
<path d="M6.848 104.792C6.528 104.664 6.19733 104.525 5.856 104.376C5.536 104.227 5.22667 104.003 4.928 103.704C4.65067 103.427 4.40533 103.032 4.192 102.52C3.97867 101.901 3.82933 101.293 3.744 100.696C3.68 100.099 3.65867 99.4053 3.68 98.616C3.68 97.5067 3.75467 96.5467 3.904 95.736C4.07467 94.904 4.33067 94.0613 4.672 93.208C4.71467 93.144 4.78933 92.9627 4.896 92.664C5.024 92.344 5.16267 92.0027 5.312 91.64C5.48267 91.2773 5.61067 91 5.696 90.808C5.86667 90.4453 6.12267 89.9653 6.464 89.368C6.82667 88.7493 7.21067 88.152 7.616 87.576C8.23467 86.6587 8.74667 85.9333 9.152 85.4C9.55733 84.8667 9.94133 84.4187 10.304 84.056C10.6667 83.6933 11.072 83.352 11.52 83.032C11.9893 82.6907 12.5867 82.2747 13.312 81.784C13.7813 81.4427 14.2933 81.2613 14.848 81.24C15.424 81.2187 15.9573 81.3467 16.448 81.624C16.9387 81.88 17.3013 82.264 17.536 82.776C17.7707 83.224 17.888 83.768 17.888 84.408C17.888 85.0267 17.792 85.688 17.6 86.392C17.408 87.0747 17.1413 87.7253 16.8 88.344C16.4587 88.9627 16.064 89.4747 15.616 89.88C15.3387 90.136 15.0827 90.232 14.848 90.168C14.6347 90.104 14.3787 89.9333 14.08 89.656C13.888 89.2933 13.7813 89.08 13.76 89.016C13.76 88.952 13.8027 88.9093 13.888 88.888C14.016 88.7387 14.1867 88.4827 14.4 88.12C14.6133 87.7573 14.8267 87.3733 15.04 86.968C15.2533 86.5413 15.4027 86.2 15.488 85.944C15.6587 85.048 15.776 84.4187 15.84 84.056C15.904 83.672 15.84 83.384 15.648 83.192C15.5627 83.1067 15.4347 83.0747 15.264 83.096C15.1147 83.1173 14.8587 83.224 14.496 83.416C14.0053 83.6293 13.3653 84.1093 12.576 84.856C11.7867 85.5813 11.0613 86.392 10.4 87.288C9.54667 88.4187 8.832 89.4213 8.256 90.296C7.68 91.1707 7.24267 92.0667 6.944 92.984C6.90133 93.0693 6.82667 93.2293 6.72 93.464C6.63467 93.6987 6.592 93.816 6.592 93.816C6.61333 93.9013 6.58133 94.1147 6.496 94.456C6.41067 94.776 6.31467 95.0533 6.208 95.288C5.97333 96.2693 5.83467 97.2933 5.792 98.36C5.74933 99.4053 5.80267 100.333 5.952 101.144C6.12267 101.955 6.368 102.52 6.688 102.84C6.96533 103.032 7.33867 103.096 7.808 103.032C8.29867 102.968 8.85333 102.819 9.472 102.584C10.0907 102.349 10.72 102.093 11.36 101.816C11.872 101.603 12.3413 101.368 12.768 101.112C13.1947 100.856 13.5147 100.632 13.728 100.44C13.8987 100.312 14.112 100.184 14.368 100.056C14.6453 99.9067 14.88 99.832 15.072 99.832C15.3707 99.7253 15.5413 99.6827 15.584 99.704C15.6267 99.7253 15.648 99.8213 15.648 99.992C15.648 100.291 15.4773 100.621 15.136 100.984C14.816 101.347 14.4 101.677 13.888 101.976C13.7173 102.147 13.4933 102.328 13.216 102.52C12.9387 102.712 12.6507 102.861 12.352 102.968C11.904 103.309 11.3493 103.64 10.688 103.96C10.0267 104.28 9.35467 104.525 8.672 104.696C8.01067 104.867 7.40267 104.899 6.848 104.792ZM20.2375 103.8C20.1308 103.8 20.0028 103.747 19.8535 103.64C19.7042 103.555 19.5655 103.437 19.4375 103.288C19.3308 103.139 19.2775 102.979 19.2775 102.808C19.2775 102.808 19.2668 102.744 19.2455 102.616C19.2455 102.467 19.2028 102.317 19.1175 102.168C19.1175 101.997 19.1175 101.805 19.1175 101.592C19.1388 101.357 19.1922 101.123 19.2775 100.888C19.2775 100.653 19.3095 100.397 19.3735 100.12C19.4375 99.8213 19.5122 99.5973 19.5975 99.448C19.5975 99.2133 19.6508 98.9147 19.7575 98.552C19.8855 98.168 19.9922 97.816 20.0775 97.496C20.3122 96.792 20.4828 96.28 20.5895 95.96C20.7175 95.64 20.8028 95.4053 20.8455 95.256C20.8882 95.0853 20.9095 94.9147 20.9095 94.744C20.9735 94.5733 21.0695 94.264 21.1975 93.816C21.3255 93.368 21.4535 92.9093 21.5815 92.44C21.7308 91.9493 21.8268 91.5973 21.8695 91.384C21.9548 91.2987 21.9975 91.224 21.9975 91.16C22.0188 91.0747 22.0295 90.9893 22.0295 90.904C22.0295 90.904 22.1042 90.6587 22.2535 90.168C22.4028 89.6773 22.5948 89.112 22.8295 88.472C23.2135 87.3413 23.4695 86.52 23.5975 86.008C23.7468 85.496 23.8108 85.1333 23.7895 84.92C23.7895 84.7067 23.7362 84.4933 23.6295 84.28C23.4802 84.0027 23.4802 83.7893 23.6295 83.64C23.7148 83.5547 23.7895 83.4587 23.8535 83.352C23.9175 83.224 23.9495 83.16 23.9495 83.16C23.9495 83.1173 24.0882 83.0427 24.3655 82.936C24.6428 82.8293 24.9842 82.712 25.3895 82.584C25.7948 82.4347 26.2002 82.296 26.6055 82.168C27.0322 82.04 27.3842 81.9333 27.6615 81.848C27.7255 81.848 27.8215 81.848 27.9495 81.848C28.0988 81.848 28.2588 81.848 28.4295 81.848C28.6215 81.848 28.8028 81.848 28.9735 81.848C29.5282 81.9333 30.0935 82.0933 30.6695 82.328C31.2668 82.5627 31.7682 82.8933 32.1735 83.32C32.4295 83.5547 32.6535 83.832 32.8455 84.152C33.0588 84.472 33.3255 84.9947 33.6455 85.72C33.6455 85.8053 33.6668 85.9867 33.7095 86.264C33.7735 86.52 33.8055 86.776 33.8055 87.032C33.8055 87.672 33.6455 88.344 33.3255 89.048C33.0055 89.752 32.5468 90.4667 31.9495 91.192C31.3522 91.896 30.6268 92.6 29.7735 93.304C28.8775 94.0293 27.9495 94.52 26.9895 94.776C26.0295 95.032 25.1762 95.0853 24.4295 94.936C24.2802 94.872 24.1415 94.744 24.0135 94.552C23.9068 94.36 23.8322 94.168 23.7895 93.976C23.7468 93.784 23.7575 93.656 23.8215 93.592C23.9922 93.5493 24.2482 93.5387 24.5895 93.56C24.9308 93.56 25.4748 93.4213 26.2215 93.144C26.4562 93.0587 26.7015 92.9627 26.9575 92.856C27.2135 92.728 27.4162 92.6213 27.5655 92.536C27.9922 92.2587 28.4828 91.8853 29.0375 91.416C29.5922 90.9467 30.1042 90.3387 30.5735 89.592C30.7655 89.2933 30.9575 88.9413 31.1495 88.536C31.3415 88.1093 31.5015 87.6827 31.6295 87.256C31.7788 86.8293 31.8535 86.4773 31.8535 86.2C32.0242 85.6453 31.9175 85.1867 31.5335 84.824C31.1708 84.44 30.5842 84.2053 29.7735 84.12C29.5175 84.056 29.1228 84.0773 28.5895 84.184C28.0562 84.2693 27.5442 84.3867 27.0535 84.536C26.5628 84.6853 26.2322 84.8133 26.0615 84.92C25.9762 84.92 25.9228 84.984 25.9015 85.112C25.8802 85.24 25.8268 85.3893 25.7415 85.56C25.7415 85.7093 25.6775 86.0293 25.5495 86.52C25.4215 86.9893 25.2722 87.4267 25.1015 87.832C24.9522 88.3013 24.7708 88.824 24.5575 89.4C24.3442 89.9547 24.1948 90.392 24.1095 90.712C24.0242 91.0533 23.9175 91.384 23.7895 91.704C23.6828 92.024 23.6295 92.184 23.6295 92.184C23.6295 92.2693 23.5655 92.4507 23.4375 92.728C23.3308 93.0053 23.2348 93.304 23.1495 93.624C23.0642 94.0293 22.9468 94.488 22.7975 95C22.6695 95.512 22.5202 95.9707 22.3495 96.376C22.1148 97.1653 21.9122 97.9547 21.7415 98.744C21.5708 99.512 21.5602 100.013 21.7095 100.248C21.9442 100.248 22.0295 100.44 21.9655 100.824C21.9015 101.187 21.7095 101.688 21.3895 102.328C21.1762 102.861 21.0162 103.224 20.9095 103.416C20.8028 103.629 20.7068 103.747 20.6215 103.768C20.5362 103.789 20.4082 103.8 20.2375 103.8ZM37.9233 103.768C37.2619 103.725 36.6753 103.523 36.1633 103.16C35.6726 102.797 35.1499 102.424 34.5953 102.04C34.2326 101.677 33.9446 101.293 33.7313 100.888C33.5179 100.461 33.3473 99.9067 33.2193 99.224C33.1339 98.8187 33.1339 98.3067 33.2193 97.688C33.3046 97.0693 33.4433 96.4507 33.6353 95.832C33.8273 95.192 34.0086 94.68 34.1793 94.296C34.4353 93.6987 34.7553 93.0587 35.1393 92.376C35.5446 91.672 35.9393 91.0107 36.3233 90.392C36.7286 89.752 37.0486 89.24 37.2833 88.856C37.4326 88.7067 37.4966 88.632 37.4753 88.632C37.4753 88.6107 37.4753 88.6 37.4753 88.6C37.4753 88.4933 37.5819 88.2267 37.7953 87.8C38.0299 87.352 38.2326 86.9573 38.4033 86.616C38.7233 86.2747 38.9046 85.9973 38.9473 85.784C38.9899 85.5707 38.9579 85.4 38.8513 85.272C38.8086 85.1867 38.8833 85.0373 39.0753 84.824C39.2673 84.6107 39.5553 84.3653 39.9392 84.088C40.3233 83.8107 40.7606 83.5333 41.2513 83.256C41.7633 82.8507 42.2539 82.6373 42.7233 82.616C43.2139 82.5733 43.5019 82.6693 43.5873 82.904C43.5873 82.968 43.7046 82.9893 43.9393 82.968C44.1953 82.9253 44.4833 82.872 44.8033 82.808C45.1446 82.7227 45.4433 82.6587 45.6993 82.616C45.8059 82.488 46.0513 82.392 46.4353 82.328C46.8406 82.2427 47.3099 82.168 47.8433 82.104C48.1206 82.1253 48.3873 82.136 48.6433 82.136C48.9206 82.1147 49.1446 82.0933 49.3153 82.072C49.5073 82.0507 49.6033 82.04 49.6033 82.04C49.7526 81.9973 49.9233 82.0187 50.1153 82.104C50.3286 82.1893 50.5206 82.424 50.6913 82.808C50.8406 83.192 50.7873 83.48 50.5312 83.672C50.2966 83.864 49.7419 84.0133 48.8673 84.12C48.2273 84.2053 47.6726 84.28 47.2033 84.344C46.7339 84.3867 46.2433 84.4507 45.7313 84.536C45.2193 84.6 44.5899 84.7173 43.8433 84.888C43.3099 84.9947 42.8726 85.1227 42.5313 85.272C42.1899 85.4 41.8913 85.6027 41.6353 85.88C41.3793 86.136 41.0913 86.5093 40.7713 87C40.6219 87.1067 40.4299 87.384 40.1953 87.832C39.9606 88.28 39.7259 88.728 39.4913 89.176C38.8939 90.008 38.3713 90.7333 37.9233 91.352C37.4966 91.9493 37.3259 92.3013 37.4113 92.408C37.4113 92.408 37.5286 92.44 37.7633 92.504C37.9979 92.568 38.1579 92.6 38.2433 92.6C38.4566 92.4933 38.7126 92.4187 39.0113 92.376C39.3313 92.3333 39.5873 92.2907 39.7793 92.248C41.1019 91.9067 42.1366 91.64 42.8833 91.448C43.6513 91.256 44.2273 91.1173 44.6113 91.032C45.0166 90.9253 45.3259 90.8613 45.5393 90.84C45.8379 90.6053 46.1259 90.5627 46.4033 90.712C46.7019 90.8613 46.9366 91.096 47.1073 91.416C47.2139 91.6507 47.2139 91.8533 47.1073 92.024C47.0219 92.1947 46.7553 92.3653 46.3073 92.536C45.8806 92.7067 45.2406 92.9093 44.3873 93.144C43.5339 93.3787 42.4139 93.688 41.0273 94.072C39.8539 94.4133 38.8513 94.616 38.0193 94.68C37.1873 94.744 36.7926 94.5627 36.8353 94.136C36.6859 94.0507 36.5153 94.1573 36.3233 94.456C36.1526 94.7333 35.9819 95.1173 35.8113 95.608C35.6406 96.0987 35.4913 96.6213 35.3633 97.176C35.2566 97.7307 35.1819 98.2533 35.1393 98.744C35.1179 99.2133 35.1499 99.5653 35.2352 99.8C35.4059 100.291 35.6299 100.685 35.9073 100.984C36.1846 101.261 36.6859 101.507 37.4113 101.72C37.8379 101.741 38.2539 101.773 38.6593 101.816C39.0646 101.859 39.5233 101.773 40.0353 101.56C41.2939 101.347 42.2859 101.123 43.0113 100.888C43.7366 100.653 44.1526 100.493 44.2593 100.408C44.4299 100.323 44.5366 100.28 44.5793 100.28C44.6433 100.259 44.7286 100.248 44.8353 100.248C44.7713 100.355 44.7926 100.365 44.8993 100.28C45.0273 100.173 45.1979 100.013 45.4113 99.8C45.6459 99.5867 45.9553 99.384 46.3393 99.192C46.7233 99 47.0646 98.8507 47.3633 98.744C47.6833 98.6373 47.8539 98.6373 47.8753 98.744C48.0033 98.9573 47.9819 99.256 47.8113 99.64C47.6406 100.003 47.3313 100.408 46.8833 100.856C46.4353 101.283 45.8593 101.699 45.1553 102.104C44.0246 102.701 42.7979 103.117 41.4753 103.352C40.1526 103.608 38.9686 103.747 37.9233 103.768ZM51.0385 109.208C50.7398 109.379 50.5265 109.464 50.3985 109.464C50.2918 109.485 50.1212 109.379 49.8865 109.144C49.6945 108.931 49.5452 108.728 49.4385 108.536C49.3318 108.365 49.2892 108.141 49.3105 107.864C49.3532 107.395 49.4492 106.808 49.5985 106.104C49.7478 105.4 49.9078 104.685 50.0785 103.96C50.2705 103.235 50.4198 102.637 50.5265 102.168C50.5905 101.869 50.6652 101.699 50.7505 101.656C50.8572 101.592 51.0492 101.56 51.3265 101.56C51.6678 101.56 51.9985 101.56 52.3185 101.56C52.6598 101.539 52.9905 101.507 53.3105 101.464L54.0145 101.4C54.3985 100.995 54.7718 100.6 55.1345 100.216C55.5185 99.832 55.8918 99.4373 56.2545 99.032C56.4892 98.7547 56.7558 98.4027 57.0545 97.976C57.3745 97.528 57.6838 97.08 57.9825 96.632C58.2812 96.1627 58.5265 95.768 58.7185 95.448C59.2945 94.5093 59.8492 93.6027 60.3825 92.728C60.9158 91.8533 61.4598 90.84 62.0145 89.688C62.3558 89.0053 62.6438 88.2907 62.8785 87.544C63.1345 86.776 63.4332 86.0613 63.7745 85.4C64.0732 84.888 64.2865 84.344 64.4145 83.768C64.5638 83.1707 64.7452 82.6053 64.9585 82.072C64.7238 81.944 64.1585 82.0187 63.2625 82.296C62.3878 82.552 61.3212 82.9573 60.0625 83.512C59.6998 83.64 59.3905 83.6293 59.1345 83.48C58.8998 83.3093 58.7292 83.096 58.6225 82.84C58.5372 82.5627 58.5265 82.3067 58.5905 82.072C58.6545 81.8373 58.8038 81.7093 59.0385 81.688C59.2732 81.6453 59.4865 81.5707 59.6785 81.464C59.8918 81.3573 60.1052 81.272 60.3185 81.208C60.8092 81.08 61.2678 80.952 61.6945 80.824C62.1425 80.6747 62.6225 80.568 63.1345 80.504C63.3905 80.4613 63.6572 80.4187 63.9345 80.376C64.2332 80.3333 64.4998 80.2693 64.7345 80.184C65.1825 80.056 65.6732 80.0347 66.2065 80.12C66.7398 80.184 67.4225 80.248 68.2545 80.312C69.1505 80.312 70.0038 80.5253 70.8145 80.952C71.6252 81.3573 72.4358 81.7307 73.2465 82.072C73.3745 82.2213 73.5132 82.456 73.6625 82.776C73.8118 83.0747 73.8758 83.3307 73.8545 83.544C73.8545 83.7787 73.7692 84.216 73.5985 84.856C73.4278 85.496 73.2038 86.2213 72.9265 87.032C72.6705 87.8427 72.4038 88.6533 72.1265 89.464C71.8705 90.2533 71.6358 90.936 71.4225 91.512C71.2092 92.088 71.0705 92.4613 71.0065 92.632C70.9638 92.7173 70.8892 92.8987 70.7825 93.176C70.6758 93.4533 70.5798 93.7307 70.4945 94.008C70.4092 94.264 70.3558 94.424 70.3345 94.488C70.2918 94.872 70.2172 95.224 70.1105 95.544C70.0038 95.8427 69.8758 96.1733 69.7265 96.536C69.4705 97.1973 69.2145 97.8907 68.9585 98.616C68.7025 99.32 68.4785 100.035 68.2865 100.76C68.7345 100.909 69.1932 100.995 69.6625 101.016C70.1318 101.037 70.5692 101.123 70.9745 101.272C71.3798 101.421 71.7105 101.773 71.9665 102.328C72.0518 102.499 72.0305 102.787 71.9025 103.192C71.7958 103.619 71.6358 104.099 71.4225 104.632C71.2092 105.165 70.9745 105.699 70.7185 106.232C70.4838 106.787 70.2598 107.267 70.0465 107.672C69.8545 108.077 69.7158 108.365 69.6305 108.536C69.5452 108.728 69.4172 108.867 69.2465 108.952C69.0972 109.037 68.9052 109.037 68.6705 108.952L67.8065 108.184C67.6785 107.864 67.7105 107.459 67.9025 106.968C68.1158 106.499 68.3718 106.008 68.6705 105.496C68.9692 104.984 69.2358 104.483 69.4705 103.992C69.7265 103.523 69.8332 103.128 69.7905 102.808C69.4065 102.744 69.0118 102.733 68.6065 102.776C68.2225 102.797 67.8385 102.744 67.4545 102.616C67.4118 102.595 67.3585 102.584 67.2945 102.584C67.2305 102.584 67.1665 102.584 67.1025 102.584C66.0785 102.584 65.2572 102.584 64.6385 102.584C64.0412 102.584 63.5612 102.584 63.1985 102.584C62.8572 102.563 62.5478 102.563 62.2705 102.584C62.0145 102.584 61.7158 102.605 61.3745 102.648C61.0332 102.669 60.5745 102.701 59.9985 102.744C59.8065 102.765 59.6145 102.765 59.4225 102.744C59.2305 102.723 59.0492 102.733 58.8785 102.776C58.4732 102.883 58.0572 102.957 57.6305 103C57.2038 103.043 56.7452 103.064 56.2545 103.064C55.8278 103.085 55.4545 103.096 55.1345 103.096C54.8358 103.117 54.5692 103.149 54.3345 103.192C54.0145 103.256 53.6945 103.331 53.3745 103.416C53.0545 103.523 52.7238 103.597 52.3825 103.64C52.1265 104.301 51.9132 104.984 51.7425 105.688C51.5718 106.392 51.4118 107.085 51.2625 107.768C51.1985 108.003 51.1665 108.237 51.1665 108.472C51.1878 108.707 51.1452 108.952 51.0385 109.208ZM57.2785 101.048C57.3425 101.048 57.6198 101.037 58.1105 101.016C58.6012 100.995 59.1452 100.973 59.7425 100.952C60.3612 100.909 60.9052 100.877 61.3745 100.856C61.8438 100.835 62.0892 100.835 62.1105 100.856C62.1745 100.813 62.3878 100.781 62.7505 100.76C63.1132 100.739 63.5185 100.728 63.9665 100.728C64.4145 100.707 64.8412 100.696 65.2465 100.696C65.6518 100.696 65.9398 100.696 66.1105 100.696C66.2598 100.376 66.3772 100.045 66.4625 99.704C66.5692 99.3413 66.6758 98.9893 66.7825 98.648C66.9318 98.1573 67.0918 97.6773 67.2625 97.208C67.4332 96.7173 67.5932 96.2373 67.7425 95.768C68.1052 94.68 68.4892 93.656 68.8945 92.696C69.3212 91.7147 69.6945 90.584 70.0145 89.304C70.0785 89.0053 70.1745 88.7173 70.3025 88.44C70.4518 88.1413 70.5692 87.8427 70.6545 87.544L71.1345 85.912C71.2412 85.6133 71.3158 85.304 71.3585 84.984C71.4012 84.6427 71.4758 84.344 71.5825 84.088C71.6892 83.8747 71.7105 83.6613 71.6465 83.448C71.6038 83.2347 71.5505 83.0213 71.4865 82.808C71.0172 82.552 70.5052 82.328 69.9505 82.136C69.4172 81.9227 68.8732 81.816 68.3185 81.816C68.1052 81.816 67.8598 81.7733 67.5825 81.688C67.3052 81.6027 67.0918 81.656 66.9425 81.848C67.0065 82.0827 67.0385 82.2533 67.0385 82.36C67.0598 82.4667 67.0278 82.6373 66.9425 82.872C66.7932 83.384 66.5692 84.0347 66.2705 84.824C65.9718 85.592 65.6305 86.424 65.2465 87.32C64.8625 88.1947 64.4785 89.0587 64.0945 89.912C63.7105 90.744 63.3478 91.4907 63.0065 92.152C62.6865 92.792 62.4305 93.2507 62.2385 93.528C61.9825 93.8907 61.7372 94.264 61.5025 94.648C61.2892 95.032 61.0652 95.416 60.8305 95.8C60.8305 95.8213 60.7025 96.0133 60.4465 96.376C60.2118 96.7173 59.9132 97.144 59.5505 97.656C59.2092 98.168 58.8572 98.68 58.4945 99.192C58.1532 99.704 57.8652 100.141 57.6305 100.504C57.3958 100.845 57.2785 101.027 57.2785 101.048ZM76.1913 105.656C76.1913 105.656 76.1593 105.635 76.0953 105.592C76.0313 105.571 75.9459 105.549 75.8393 105.528C75.7539 105.507 75.6473 105.496 75.5193 105.496C75.1779 105.411 74.9326 105.219 74.7833 104.92C74.6339 104.643 74.6019 104.333 74.6873 103.992C74.7726 103.907 74.8366 103.725 74.8793 103.448C74.9219 103.171 74.9433 102.947 74.9433 102.776C75.0286 102.605 75.0819 102.488 75.1033 102.424C75.1246 102.339 75.1779 102.125 75.2633 101.784C75.3273 101.421 75.4339 100.92 75.5833 100.28C75.7539 99.6187 75.9353 98.9147 76.1273 98.168C76.3406 97.4213 76.5433 96.7067 76.7352 96.024C76.9273 95.3413 77.0979 94.7653 77.2473 94.296C77.4179 93.8267 77.5353 93.56 77.5993 93.496C77.5993 93.496 77.5993 93.464 77.5993 93.4C77.5993 93.3147 77.5993 93.2293 77.5993 93.144C77.5993 93.144 77.6099 93.048 77.6313 92.856C77.6739 92.6427 77.7806 92.408 77.9513 92.152C78.0366 91.9173 78.1113 91.6613 78.1753 91.384C78.2393 91.1067 78.2713 90.9253 78.2713 90.84C78.3566 90.7333 78.4739 90.4773 78.6233 90.072C78.7939 89.6453 78.9539 89.2293 79.1033 88.824C79.2313 88.4827 79.3699 88.12 79.5193 87.736C79.6899 87.352 79.8286 87.0213 79.9353 86.744C80.0633 86.4667 80.1273 86.328 80.1273 86.328C80.1273 86.2427 80.1273 86.2 80.1273 86.2C80.1273 86.1787 80.1273 86.168 80.1273 86.168C80.2126 86.0827 80.4153 85.656 80.7353 84.888C81.0766 84.0987 81.5353 83.0853 82.1113 81.848C82.1966 81.6773 82.3033 81.4853 82.4313 81.272C82.5593 81.0587 82.6233 80.9093 82.6233 80.824C82.7299 80.6533 82.8793 80.5787 83.0713 80.6C83.2633 80.6 83.4553 80.664 83.6473 80.792C83.8606 80.92 84.0206 81.1013 84.1273 81.336L84.4473 81.848L83.2953 84.152C82.9539 84.7493 82.6659 85.2933 82.4313 85.784C82.2179 86.2747 82.1113 86.5627 82.1113 86.648C82.1113 86.648 82.0473 86.8187 81.9193 87.16C81.7913 87.5013 81.6419 87.9067 81.4713 88.376C81.3006 88.8453 81.1513 89.272 81.0233 89.656C80.7886 90.3173 80.5646 90.8613 80.3513 91.288C80.1593 91.7147 80.0633 91.9707 80.0633 92.056C80.0633 92.0133 80.2979 91.9813 80.7673 91.96C81.2366 91.9387 81.8339 91.928 82.5593 91.928C83.2846 91.928 84.0206 91.928 84.7673 91.928C85.5353 91.9067 86.2073 91.896 86.7833 91.896C87.3806 91.8747 87.7859 91.8427 87.9993 91.8L89.6632 91.64L90.7513 88.344C90.9219 87.7467 91.1459 87.0213 91.4233 86.168C91.7006 85.3147 91.9459 84.5893 92.1593 83.992C92.5006 83.0107 92.7673 82.4027 92.9593 82.168C93.1513 81.9333 93.3753 81.816 93.6313 81.816C93.6953 81.816 93.7806 81.8373 93.8873 81.88C94.0153 81.9013 94.1326 81.9547 94.2393 82.04C94.3673 82.104 94.4526 82.2 94.4953 82.328C94.7513 82.5627 94.8686 82.8293 94.8473 83.128C94.8473 83.4267 94.6766 83.8213 94.3353 84.312C93.9939 84.888 93.7059 85.5173 93.4713 86.2C93.2579 86.8613 93.0659 87.4053 92.8953 87.832C92.8953 88.088 92.8633 88.3013 92.7993 88.472C92.7353 88.6213 92.6606 88.7387 92.5753 88.824C92.5326 88.8667 92.4473 89.0267 92.3193 89.304C92.1913 89.5813 92.0739 89.8587 91.9673 90.136C91.8606 90.4133 91.8073 90.584 91.8073 90.648C91.8073 90.7973 91.7753 90.9787 91.7113 91.192C91.6473 91.4053 91.5726 91.5547 91.4873 91.64C91.4446 91.768 91.3486 92.088 91.1993 92.6C91.0499 93.112 90.8793 93.72 90.6873 94.424C90.4953 95.1067 90.2926 95.7787 90.0793 96.44C89.8659 97.08 89.6739 97.6133 89.5033 98.04C89.5033 98.1893 89.4499 98.3813 89.3433 98.616C89.2366 98.8293 89.1833 99.0213 89.1833 99.192C89.0979 99.448 88.9913 99.768 88.8633 100.152C88.7353 100.536 88.6713 100.781 88.6713 100.888C88.5646 101.379 88.4473 101.88 88.3193 102.392C88.2126 102.904 88.1166 103.341 88.0312 103.704C87.9673 104.088 87.9353 104.312 87.9353 104.376C87.8499 104.461 87.7219 104.472 87.5513 104.408C87.3806 104.344 87.1779 104.269 86.9433 104.184C86.5379 103.949 86.2926 103.693 86.2073 103.416C86.1433 103.16 86.2286 102.787 86.4633 102.296C86.5699 102.125 86.6979 101.709 86.8473 101.048C87.0179 100.365 87.1886 99.6933 87.3593 99.032C87.4873 98.712 87.6259 98.2853 87.7753 97.752C87.9246 97.1973 88.0739 96.6427 88.2233 96.088C88.3726 95.512 88.5006 95.032 88.6073 94.648C88.7139 94.2427 88.7886 94.0187 88.8313 93.976C88.8313 93.8907 88.8313 93.816 88.8313 93.752C88.8313 93.688 88.8313 93.656 88.8313 93.656C88.7886 93.6133 88.5219 93.5813 88.0312 93.56C87.5406 93.5173 86.9326 93.5067 86.2073 93.528C85.4819 93.528 84.7246 93.5493 83.9353 93.592C83.1673 93.6133 82.4739 93.6667 81.8553 93.752C81.6206 93.752 81.3539 93.752 81.0553 93.752C80.7566 93.752 80.5219 93.752 80.3513 93.752C80.1166 93.752 79.9139 93.752 79.7433 93.752C79.5939 93.752 79.5193 93.752 79.5193 93.752C79.4979 93.816 79.4233 94.04 79.2953 94.424C79.1673 94.808 79.0179 95.2773 78.8473 95.832C78.6766 96.3653 78.4953 96.92 78.3033 97.496C78.1326 98.0507 77.9833 98.5627 77.8553 99.032C77.7486 99.48 77.6739 99.8 77.6313 99.992C77.5459 100.376 77.4286 100.856 77.2793 101.432C77.1513 102.008 77.0019 102.595 76.8313 103.192C76.6819 103.811 76.5433 104.344 76.4153 104.792C76.3086 105.24 76.2339 105.528 76.1913 105.656ZM108.302 104.28C108.174 104.28 108.003 104.237 107.79 104.152C107.576 104.067 107.352 103.96 107.118 103.832C106.904 103.725 106.712 103.597 106.542 103.448C106.392 103.299 106.318 103.16 106.318 103.032C106.318 102.904 106.307 102.776 106.286 102.648C106.264 102.499 106.275 102.36 106.318 102.232C106.424 101.891 106.52 101.56 106.606 101.24C106.712 100.92 106.798 100.589 106.862 100.248C107.032 99.2453 107.246 98.2533 107.502 97.272C107.779 96.2907 108.046 95.3093 108.302 94.328C108.366 94.072 108.494 93.6133 108.686 92.952C108.899 92.2693 109.134 91.5013 109.39 90.648C109.646 89.7733 109.891 88.92 110.126 88.088C110.382 87.256 110.584 86.552 110.734 85.976C110.883 85.3787 110.936 85.0267 110.894 84.92C110.808 84.856 110.744 84.8453 110.702 84.888C110.68 84.9307 110.648 84.9733 110.606 85.016C110.115 85.6773 109.614 86.3493 109.102 87.032C108.59 87.6933 108.078 88.3547 107.566 89.016C107.011 89.7413 106.435 90.456 105.838 91.16C105.24 91.864 104.643 92.5787 104.046 93.304C103.64 93.816 103.235 94.3493 102.83 94.904C102.424 95.4373 102.008 95.9493 101.582 96.44C101.283 96.7813 101.006 97.1333 100.75 97.496C100.494 97.8587 100.216 98.2107 99.9178 98.552C99.5978 98.936 99.2458 99.352 98.8618 99.8C98.4778 100.248 98.0831 100.707 97.6778 101.176C97.2938 101.624 96.8991 102.061 96.4938 102.488C96.1098 102.893 95.7258 103.256 95.3418 103.576C95.1924 103.704 94.9791 103.779 94.7018 103.8C94.4458 103.821 94.2004 103.768 93.9658 103.64C93.7311 103.533 93.6031 103.352 93.5818 103.096C93.5604 102.627 93.6031 102.072 93.7098 101.432C93.8378 100.792 93.9871 100.152 94.1578 99.512C94.3284 98.8507 94.4884 98.296 94.6378 97.848C94.7018 97.6133 94.7764 97.3893 94.8618 97.176C94.9471 96.9413 95.0218 96.7067 95.0858 96.472C95.1071 96.344 95.1284 96.216 95.1498 96.088C95.1924 95.96 95.2351 95.832 95.2778 95.704C95.4271 95.384 95.5338 95.0853 95.5978 94.808C95.6618 94.5307 95.6938 94.2213 95.6938 93.88C95.7151 93.752 95.7684 93.56 95.8538 93.304C95.9391 93.048 96.0351 92.7813 96.1418 92.504C96.2484 92.2267 96.3231 92.0133 96.3658 91.864C96.4724 91.544 96.5684 91.224 96.6538 90.904C96.7604 90.5627 96.8884 90.2427 97.0378 89.944C97.0804 89.88 97.1018 89.8373 97.1018 89.816C97.1018 89.7947 97.1124 89.752 97.1338 89.688C97.2404 89.0267 97.3898 88.5147 97.5818 88.152C97.7951 87.768 98.0084 87.3093 98.2218 86.776L98.2538 86.584C98.3391 86.3493 98.4138 86.1573 98.4778 86.008C98.5631 85.8373 98.6484 85.6453 98.7338 85.432C98.7764 85.3253 98.7551 85.2613 98.6698 85.24C98.6058 85.1973 98.6164 85.1333 98.7018 85.048C98.8724 84.8347 98.9364 84.7173 98.8938 84.696C98.8511 84.6747 98.8618 84.5787 98.9258 84.408C99.0751 84.216 99.2244 83.928 99.3738 83.544C99.5444 83.16 99.7044 82.7653 99.8538 82.36C100.003 81.9333 100.12 81.6133 100.206 81.4C100.248 81.2507 100.302 81.1547 100.366 81.112C100.43 81.048 100.536 80.984 100.686 80.92C101.027 80.7707 101.315 80.7493 101.55 80.856C101.784 80.9627 101.955 81.1333 102.062 81.368C102.168 81.6027 102.211 81.8587 102.19 82.136C102.19 82.392 102.126 82.616 101.998 82.808C101.955 82.872 101.923 82.936 101.902 83C101.902 83.0427 101.88 83.1067 101.838 83.192C101.752 83.5547 101.624 83.9067 101.454 84.248C101.283 84.568 101.123 84.9093 100.974 85.272C100.846 85.5707 100.643 86.0827 100.366 86.808C100.11 87.5333 99.8111 88.3867 99.4698 89.368C99.1284 90.328 98.7871 91.3307 98.4458 92.376C98.1044 93.4 97.7844 94.392 97.4858 95.352C97.1871 96.2907 96.9524 97.112 96.7818 97.816C96.6111 98.4987 96.5364 98.968 96.5578 99.224C96.8351 98.9253 97.1018 98.6267 97.3578 98.328C97.6138 98.008 97.8591 97.6987 98.0938 97.4C98.7124 96.6107 99.3631 95.8427 100.046 95.096C100.728 94.328 101.368 93.5493 101.966 92.76C102.307 92.2907 102.67 91.8427 103.054 91.416C103.459 90.9893 103.832 90.5413 104.174 90.072C104.408 89.7733 104.643 89.4853 104.878 89.208C105.134 88.9307 105.368 88.6427 105.582 88.344C106.243 87.4693 106.936 86.616 107.662 85.784C108.387 84.9307 109.091 84.0773 109.774 83.224C109.944 83.0107 110.211 82.7227 110.574 82.36C110.936 81.9973 111.31 81.656 111.694 81.336C112.078 80.9947 112.387 80.7707 112.622 80.664C112.899 80.536 113.166 80.568 113.422 80.76C113.678 80.9307 113.912 81.112 114.126 81.304C114.424 81.6027 114.51 81.9653 114.382 82.392C114.339 82.4987 114.286 82.616 114.222 82.744C114.158 82.8507 114.104 82.9573 114.062 83.064C113.87 83.4267 113.699 83.8 113.55 84.184C113.4 84.5467 113.262 84.92 113.134 85.304C113.006 85.688 112.888 86.0827 112.782 86.488C112.76 86.6373 112.728 86.808 112.686 87C112.643 87.192 112.59 87.3733 112.526 87.544C112.376 87.8853 112.184 88.2587 111.95 88.664C111.736 89.048 111.64 89.4533 111.662 89.88C111.662 90.136 111.608 90.3707 111.502 90.584C111.31 90.968 111.171 91.3733 111.086 91.8C111 92.2267 110.904 92.6533 110.798 93.08C110.627 93.7627 110.446 94.4453 110.254 95.128C110.083 95.8107 109.902 96.4933 109.71 97.176C109.518 97.8587 109.326 98.5413 109.134 99.224C108.92 100.035 108.76 100.877 108.654 101.752C108.547 102.605 108.43 103.448 108.302 104.28ZM125.176 105.528C124.792 105.379 124.472 105.176 124.216 104.92C123.981 104.664 123.906 104.323 123.992 103.896C123.992 103.896 124.077 103.693 124.248 103.288C124.418 102.904 124.621 102.424 124.856 101.848C125.112 101.251 125.357 100.664 125.592 100.088C125.826 99.512 126.029 99.032 126.2 98.648C126.37 98.2427 126.456 98.04 126.456 98.04C126.605 97.656 126.808 97.1333 127.064 96.472C127.341 95.8107 127.608 95.1387 127.864 94.456C128.141 93.752 128.376 93.144 128.568 92.632C128.76 92.12 128.856 91.832 128.856 91.768C129.09 91.2347 129.293 90.6907 129.464 90.136C129.634 89.5813 129.848 89.048 130.104 88.536C130.296 88.1093 130.466 87.7253 130.616 87.384C130.765 87.0213 130.84 86.7013 130.84 86.424C130.84 86.424 130.616 86.6587 130.168 87.128C129.741 87.5973 129.165 88.2267 128.44 89.016C127.714 89.784 126.914 90.6373 126.04 91.576C125.186 92.4933 124.322 93.4213 123.448 94.36C122.594 95.2987 121.805 96.1627 121.08 96.952C120.354 97.72 119.768 98.3387 119.32 98.808C118.872 99.2773 118.648 99.512 118.648 99.512C118.178 99.8747 117.741 100.269 117.336 100.696C116.952 101.101 116.525 101.485 116.056 101.848C115.864 101.997 115.629 102.189 115.352 102.424C115.074 102.637 114.808 102.829 114.552 103C114.296 103.192 114.104 103.288 113.976 103.288C113.357 103.181 112.962 103.011 112.792 102.776C112.621 102.52 112.589 102.211 112.696 101.848C112.802 101.464 112.952 101.016 113.144 100.504C113.25 100.163 113.346 99.8213 113.432 99.48C113.538 99.1173 113.613 98.7653 113.656 98.424C113.805 97.784 113.965 97.1867 114.136 96.632C114.306 96.0773 114.466 95.544 114.616 95.032C114.765 94.5413 114.914 94.0507 115.064 93.56C115.213 93.048 115.298 92.5253 115.32 91.992C115.576 91.5653 115.789 91.1493 115.96 90.744C116.13 90.3173 116.29 89.8907 116.44 89.464C116.589 89.0373 116.76 88.6107 116.952 88.184C117.186 87.672 117.378 87.1493 117.528 86.616C117.698 86.0613 117.901 85.5173 118.135 84.984C118.285 84.6853 118.488 84.2907 118.744 83.8C119 83.3093 119.234 82.808 119.448 82.296C119.682 81.784 119.8 81.3467 119.8 80.984C119.8 80.7493 119.885 80.6213 120.056 80.6C120.226 80.5787 120.418 80.6107 120.632 80.696C120.845 80.7813 121.026 80.888 121.176 81.016C121.346 81.144 121.442 81.24 121.464 81.304C121.528 81.496 121.57 81.6987 121.592 81.912C121.634 82.1253 121.602 82.3493 121.496 82.584L118.84 89.336L115.928 97.048C115.672 97.88 115.522 98.5307 115.48 99C115.458 99.4693 115.597 99.6293 115.896 99.48L122.36 93.016C122.722 92.632 123.074 92.2373 123.416 91.832C123.778 91.4053 124.12 90.9893 124.44 90.584C124.525 90.5413 124.738 90.328 125.08 89.944C125.442 89.56 125.858 89.1013 126.328 88.568C126.797 88.0347 127.245 87.5333 127.672 87.064C128.098 86.5733 128.418 86.2107 128.632 85.976L132.696 81.656L133.304 81.464C133.496 81.4427 133.688 81.5067 133.88 81.656C134.072 81.8053 134.21 81.9973 134.296 82.232C134.402 82.4667 134.402 82.712 134.296 82.968C134.296 82.968 134.189 83.2453 133.976 83.8C133.784 84.3547 133.528 85.0693 133.208 85.944C132.888 86.7973 132.546 87.704 132.184 88.664C131.842 89.624 131.512 90.5307 131.192 91.384C130.872 92.2373 130.605 92.9413 130.392 93.496C130.2 94.0293 130.093 94.296 130.072 94.296C130.093 94.232 130.018 94.4027 129.848 94.808C129.698 95.2133 129.496 95.7467 129.24 96.408C128.984 97.0693 128.717 97.752 128.44 98.456C128.162 99.1387 127.917 99.7467 127.704 100.28C127.512 100.813 127.394 101.155 127.352 101.304C127.266 101.581 127.16 101.859 127.032 102.136C126.925 102.392 126.808 102.648 126.68 102.904C126.53 103.181 126.402 103.469 126.296 103.768C126.21 104.088 126.136 104.397 126.072 104.696C126.008 104.931 125.88 105.144 125.688 105.336C125.496 105.549 125.325 105.613 125.176 105.528ZM126.936 79.832C126.146 79.9173 125.485 79.7253 124.952 79.256C124.418 78.7867 124.002 78.0933 123.704 77.176C123.661 77.0053 123.65 76.856 123.672 76.728C123.693 76.5787 123.736 76.4507 123.8 76.344C123.842 76.2587 123.938 76.1947 124.088 76.152C124.258 76.088 124.386 76.0773 124.472 76.12C124.813 76.248 125.069 76.3867 125.24 76.536C125.432 76.6853 125.549 76.8773 125.592 77.112C125.656 77.2187 125.688 77.3253 125.688 77.432C125.709 77.5387 125.72 77.5813 125.72 77.56C125.848 77.9013 126.008 78.136 126.2 78.264C126.392 78.392 126.69 78.3813 127.096 78.232C127.522 78.0827 127.938 77.912 128.344 77.72C128.77 77.528 129.154 77.2933 129.496 77.016C129.794 76.7813 130.072 76.568 130.328 76.376C130.584 76.184 130.85 75.9813 131.128 75.768L131.16 75.736C131.266 75.672 131.394 75.6507 131.544 75.672C131.693 75.6933 131.778 75.7253 131.8 75.768C131.97 75.9173 132.056 76.0667 132.056 76.216C132.077 76.3653 132.088 76.5253 132.088 76.696L132.056 76.76C132.098 76.888 131.97 77.1333 131.672 77.496C131.373 77.8373 131.021 78.1467 130.616 78.424C130.274 78.6587 129.89 78.872 129.464 79.064C129.058 79.256 128.642 79.4373 128.216 79.608C128.066 79.6933 127.885 79.7467 127.672 79.768C127.48 79.768 127.234 79.7893 126.936 79.832ZM153.977 92.888C153.913 93.0373 153.668 93.1547 153.241 93.24C152.814 93.3253 152.132 93.4213 151.193 93.528C150.916 93.5493 150.5 93.5707 149.945 93.592C149.412 93.6133 148.825 93.6347 148.185 93.656C147.566 93.6773 147.001 93.688 146.489 93.688C145.977 93.6667 145.625 93.6347 145.433 93.592C145.433 93.592 145.38 93.6453 145.273 93.752C145.188 93.8587 145.145 93.9973 145.145 94.168C144.996 94.424 144.804 94.8187 144.569 95.352C144.356 95.8853 144.11 96.472 143.833 97.112C143.577 97.752 143.332 98.392 143.097 99.032C142.884 99.672 142.702 100.227 142.553 100.696C142.404 101.165 142.329 101.485 142.329 101.656C142.137 102.168 142.02 102.605 141.977 102.968C141.934 103.331 141.86 103.544 141.753 103.608C141.732 103.693 141.593 103.715 141.337 103.672C141.081 103.629 140.868 103.512 140.697 103.32C140.441 103.128 140.292 102.957 140.249 102.808C140.228 102.637 140.292 102.317 140.441 101.848C140.505 101.571 140.612 101.165 140.761 100.632C140.932 100.077 141.113 99.4693 141.305 98.808C141.518 98.1467 141.732 97.5067 141.945 96.888C142.18 96.248 142.404 95.7253 142.617 95.32C142.852 94.9147 143.001 94.552 143.065 94.232C143.129 93.8907 143.214 93.5813 143.321 93.304C143.3 93.0693 143.3 92.9093 143.321 92.824C143.342 92.7387 143.428 92.6107 143.577 92.44C143.684 92.3547 143.812 92.2053 143.961 91.992C144.132 91.7573 144.324 91.4053 144.537 90.936C144.601 90.7227 144.697 90.4347 144.825 90.072C144.974 89.688 145.113 89.304 145.241 88.92C145.369 88.5147 145.486 88.1733 145.593 87.896C145.7 87.6187 145.753 87.4693 145.753 87.448C145.796 87.3627 145.86 87.2027 145.945 86.968C146.03 86.712 146.094 86.5093 146.137 86.36C146.222 86.0613 146.286 85.816 146.329 85.624C146.393 85.432 146.382 85.336 146.297 85.336C146.126 85.3787 145.785 85.4107 145.273 85.432C145.017 85.4747 144.825 85.5067 144.697 85.528C144.59 85.528 144.494 85.5387 144.409 85.56C144.196 85.5813 144.004 85.56 143.833 85.496C143.662 85.432 143.577 85.304 143.577 85.112C143.62 84.7707 143.737 84.4933 143.929 84.28C144.142 84.0453 144.409 83.9173 144.729 83.896C144.878 83.8533 145.038 83.8213 145.209 83.8C145.401 83.7573 145.657 83.6933 145.977 83.608C146.382 83.5227 146.692 83.4587 146.905 83.416C147.14 83.352 147.321 83.3413 147.449 83.384C147.556 83.32 147.652 83.256 147.737 83.192C147.822 83.1067 147.865 83.0213 147.865 82.936C147.865 82.8293 147.908 82.7547 147.993 82.712C148.1 82.648 148.217 82.616 148.345 82.616C148.473 82.5947 148.601 82.6053 148.729 82.648C148.878 82.6907 148.985 82.7653 149.049 82.872C149.092 82.936 149.188 82.9893 149.337 83.032C149.486 83.0747 149.753 83.0747 150.137 83.032C150.542 82.968 151.108 82.8613 151.833 82.712C152.217 82.6693 152.697 82.6267 153.273 82.584C153.87 82.5413 154.34 82.5733 154.681 82.68C155.044 82.616 155.364 82.5947 155.641 82.616C155.94 82.616 156.142 82.5733 156.249 82.488C156.697 82.5733 157.017 82.6373 157.209 82.68C157.422 82.7013 157.593 82.7653 157.721 82.872C157.806 82.9573 157.828 83.0427 157.785 83.128C157.764 83.192 157.753 83.224 157.753 83.224C157.668 83.1813 157.678 83.192 157.785 83.256C157.892 83.2987 157.966 83.3413 158.009 83.384C158.158 83.448 158.254 83.5333 158.297 83.64C158.34 83.7253 158.361 83.8107 158.361 83.896C158.361 83.9813 158.35 84.056 158.329 84.12C158.308 84.312 158.201 84.4293 158.009 84.472C157.817 84.4933 157.337 84.4933 156.569 84.472C155.652 84.344 154.745 84.3013 153.849 84.344C152.974 84.3653 151.95 84.4613 150.777 84.632C150.35 84.6533 149.966 84.7173 149.625 84.824C149.305 84.9093 149.124 84.952 149.081 84.952C148.996 84.952 148.846 85.1013 148.633 85.4C148.42 85.6773 148.217 86.0933 148.025 86.648C147.94 86.7973 147.79 87.1387 147.577 87.672C147.364 88.2053 147.129 88.7813 146.873 89.4C146.638 90.0187 146.425 90.5627 146.233 91.032C146.062 91.5013 145.956 91.7573 145.913 91.8C146.212 91.8853 146.692 91.928 147.353 91.928C148.036 91.928 148.782 91.9067 149.593 91.864C150.425 91.8 151.182 91.736 151.865 91.672C152.185 91.608 152.516 91.5547 152.857 91.512C153.22 91.448 153.454 91.4373 153.561 91.48C153.668 91.544 153.764 91.672 153.849 91.864C153.934 92.0347 153.988 92.216 154.009 92.408C154.052 92.6 154.041 92.76 153.977 92.888ZM156.956 103.8C156.85 103.8 156.722 103.747 156.572 103.64C156.423 103.555 156.284 103.437 156.156 103.288C156.05 103.139 155.996 102.979 155.996 102.808C155.996 102.808 155.986 102.744 155.964 102.616C155.964 102.467 155.922 102.317 155.836 102.168C155.836 101.997 155.836 101.805 155.836 101.592C155.858 101.357 155.911 101.123 155.996 100.888C155.996 100.653 156.028 100.397 156.092 100.12C156.156 99.8213 156.231 99.5973 156.316 99.448C156.316 99.2133 156.37 98.9147 156.476 98.552C156.604 98.168 156.711 97.816 156.796 97.496C157.031 96.792 157.202 96.28 157.308 95.96C157.436 95.64 157.522 95.4053 157.564 95.256C157.607 95.0853 157.628 94.9147 157.628 94.744C157.692 94.5733 157.788 94.264 157.916 93.816C158.044 93.368 158.172 92.9093 158.3 92.44C158.45 91.9493 158.546 91.5973 158.588 91.384C158.674 91.2987 158.716 91.224 158.716 91.16C158.738 91.0747 158.748 90.9893 158.748 90.904C158.748 90.904 158.823 90.6587 158.972 90.168C159.122 89.6773 159.314 89.112 159.548 88.472C159.932 87.3413 160.188 86.52 160.316 86.008C160.466 85.496 160.53 85.1333 160.508 84.92C160.508 84.7067 160.455 84.4933 160.348 84.28C160.199 84.0027 160.199 83.7893 160.348 83.64C160.434 83.5547 160.508 83.4587 160.572 83.352C160.636 83.224 160.668 83.16 160.668 83.16C160.668 83.1173 160.807 83.0427 161.084 82.936C161.362 82.8293 161.703 82.712 162.108 82.584C162.514 82.4347 162.919 82.296 163.324 82.168C163.751 82.04 164.103 81.9333 164.38 81.848C164.444 81.848 164.54 81.848 164.668 81.848C164.818 81.848 164.978 81.848 165.148 81.848C165.34 81.848 165.522 81.848 165.692 81.848C166.247 81.9333 166.812 82.0933 167.388 82.328C167.986 82.5627 168.487 82.8933 168.892 83.32C169.148 83.5547 169.372 83.832 169.564 84.152C169.778 84.472 170.044 84.9947 170.364 85.72C170.364 85.8053 170.386 85.9867 170.428 86.264C170.492 86.52 170.524 86.776 170.524 87.032C170.524 87.672 170.364 88.344 170.044 89.048C169.724 89.752 169.266 90.4667 168.668 91.192C168.071 91.896 167.346 92.6 166.492 93.304C165.596 94.0293 164.668 94.52 163.708 94.776C162.748 95.032 161.895 95.0853 161.148 94.936C160.999 94.872 160.86 94.744 160.732 94.552C160.626 94.36 160.551 94.168 160.508 93.976C160.466 93.784 160.476 93.656 160.54 93.592C160.711 93.5493 160.967 93.5387 161.308 93.56C161.65 93.56 162.194 93.4213 162.94 93.144C163.175 93.0587 163.42 92.9627 163.676 92.856C163.932 92.728 164.135 92.6213 164.284 92.536C164.711 92.2587 165.202 91.8853 165.756 91.416C166.311 90.9467 166.823 90.3387 167.292 89.592C167.484 89.2933 167.676 88.9413 167.868 88.536C168.06 88.1093 168.22 87.6827 168.348 87.256C168.498 86.8293 168.572 86.4773 168.572 86.2C168.743 85.6453 168.636 85.1867 168.252 84.824C167.89 84.44 167.303 84.2053 166.492 84.12C166.236 84.056 165.842 84.0773 165.308 84.184C164.775 84.2693 164.263 84.3867 163.772 84.536C163.282 84.6853 162.951 84.8133 162.78 84.92C162.695 84.92 162.642 84.984 162.62 85.112C162.599 85.24 162.546 85.3893 162.46 85.56C162.46 85.7093 162.396 86.0293 162.268 86.52C162.14 86.9893 161.991 87.4267 161.82 87.832C161.671 88.3013 161.49 88.824 161.276 89.4C161.063 89.9547 160.914 90.392 160.828 90.712C160.743 91.0533 160.636 91.384 160.508 91.704C160.402 92.024 160.348 92.184 160.348 92.184C160.348 92.2693 160.284 92.4507 160.156 92.728C160.05 93.0053 159.954 93.304 159.868 93.624C159.783 94.0293 159.666 94.488 159.516 95C159.388 95.512 159.239 95.9707 159.068 96.376C158.834 97.1653 158.631 97.9547 158.46 98.744C158.29 99.512 158.279 100.013 158.428 100.248C158.663 100.248 158.748 100.44 158.684 100.824C158.62 101.187 158.428 101.688 158.108 102.328C157.895 102.861 157.735 103.224 157.628 103.416C157.522 103.629 157.426 103.747 157.34 103.768C157.255 103.789 157.127 103.8 156.956 103.8ZM177.857 103.672C176.982 103.885 176.076 103.875 175.137 103.64C174.22 103.405 173.409 102.989 172.705 102.392C172.001 101.795 171.51 101.069 171.233 100.216C171.148 99.9813 171.073 99.768 171.009 99.576C170.966 99.384 170.988 99.288 171.073 99.288C171.286 99.288 171.297 99.1813 171.105 98.968C171.041 98.8827 171.009 98.744 171.009 98.552C171.03 98.36 171.073 98.1787 171.137 98.008C171.222 97.8373 171.318 97.752 171.425 97.752C171.574 97.752 171.734 97.8053 171.905 97.912C172.076 98.0187 172.204 98.136 172.289 98.264C172.396 98.3707 172.406 98.456 172.321 98.52C172.321 98.52 172.364 98.6373 172.449 98.872C172.534 99.0853 172.556 99.3413 172.513 99.64C172.705 99.96 172.865 100.227 172.993 100.44C173.121 100.632 173.388 100.845 173.793 101.08C174.07 101.293 174.316 101.453 174.529 101.56C174.742 101.667 175.116 101.731 175.649 101.752C175.99 101.752 176.268 101.709 176.481 101.624C176.694 101.539 176.886 101.389 177.057 101.176C177.249 100.963 177.473 100.675 177.729 100.312C177.793 99.9067 177.708 99.256 177.473 98.36C177.26 97.464 176.94 96.4187 176.513 95.224C176.086 94.008 175.574 92.7387 174.977 91.416C174.849 91.1813 174.732 90.936 174.625 90.68C174.54 90.424 174.497 90.296 174.497 90.296C174.561 89.8907 174.54 89.5173 174.433 89.176C174.305 89.0693 174.23 88.824 174.209 88.44C174.209 88.0347 174.188 87.672 174.145 87.352C174.188 86.8827 174.23 86.52 174.273 86.264C174.316 86.008 174.454 85.7093 174.689 85.368C175.308 84.472 176.065 83.7253 176.961 83.128C177.857 82.5093 178.998 82.0933 180.385 81.88C180.62 81.8373 180.918 81.816 181.281 81.816C181.644 81.7947 182.017 81.8053 182.401 81.848C182.785 81.8693 183.126 81.912 183.425 81.976C183.745 82.0187 183.98 82.0933 184.129 82.2C184.641 82.456 185.046 82.7333 185.345 83.032C185.644 83.3307 185.9 83.672 186.113 84.056C186.22 84.2907 186.284 84.472 186.305 84.6C186.348 84.7067 186.348 84.8133 186.305 84.92C186.262 85.0267 186.177 85.1867 186.049 85.4C185.942 85.528 185.761 85.6773 185.505 85.848C185.27 86.0187 184.993 86.1893 184.673 86.36C184.374 86.5307 184.054 86.6907 183.713 86.84C183.393 86.968 183.094 87.0533 182.817 87.096C182.625 87.1813 182.508 87.224 182.465 87.224C182.444 87.224 182.433 87.1813 182.433 87.096C182.497 86.968 182.508 86.872 182.465 86.808C182.444 86.744 182.433 86.712 182.433 86.712C182.156 86.712 182.092 86.5947 182.241 86.36C182.412 86.1253 182.7 85.7627 183.105 85.272C183.489 84.8453 183.734 84.5573 183.841 84.408C183.969 84.2373 183.98 84.0987 183.873 83.992C183.745 83.9067 183.489 83.8427 183.105 83.8C182.721 83.7573 182.305 83.7467 181.857 83.768C181.43 83.768 181.046 83.8 180.705 83.864C179.638 84.184 178.7 84.6427 177.889 85.24C177.1 85.8373 176.62 86.4987 176.449 87.224C176.3 87.544 176.225 87.832 176.225 88.088C176.246 88.344 176.342 88.7493 176.513 89.304C176.556 89.8373 176.598 90.2533 176.641 90.552C176.705 90.8507 176.737 91.0213 176.737 91.064C176.737 91.1493 176.758 91.2773 176.801 91.448C176.844 91.5973 176.876 91.8747 176.897 92.28C176.94 92.4293 177.046 92.632 177.217 92.888C177.388 93.1227 177.676 93.3893 178.081 93.688C178.124 94.1573 178.198 94.5627 178.305 94.904C178.433 95.224 178.508 95.5333 178.529 95.832C178.956 96.6853 179.276 97.5387 179.489 98.392C179.724 99.2453 179.862 99.9493 179.905 100.504C179.948 101.059 179.894 101.336 179.745 101.336C179.724 101.336 179.713 101.368 179.713 101.432C179.713 101.496 179.724 101.528 179.745 101.528C179.745 101.656 179.67 101.816 179.521 102.008C179.372 102.2 179.19 102.413 178.977 102.648C178.764 102.861 178.55 103.053 178.337 103.224C178.145 103.416 177.985 103.565 177.857 103.672ZM189.516 94.616C189.11 94.7653 188.769 94.84 188.492 94.84C188.236 94.8187 187.948 94.6907 187.628 94.456C187.222 94.072 187.084 93.688 187.212 93.304C187.361 92.8987 187.713 92.504 188.268 92.12C188.652 91.8853 188.929 91.7573 189.1 91.736C189.292 91.7147 189.58 91.7893 189.964 91.96C190.604 92.3653 190.881 92.8133 190.796 93.304C190.732 93.7947 190.305 94.232 189.516 94.616ZM187.276 101.336C186.87 101.485 186.529 101.56 186.252 101.56C185.996 101.539 185.708 101.411 185.388 101.176C184.982 100.792 184.844 100.408 184.972 100.024C185.121 99.6187 185.473 99.224 186.028 98.84C186.412 98.6053 186.689 98.4773 186.86 98.456C187.052 98.4347 187.34 98.5093 187.724 98.68C188.364 99.0853 188.641 99.5333 188.556 100.024C188.492 100.515 188.065 100.952 187.276 101.336ZM201.371 103.4C201.291 103.453 201.185 103.453 201.051 103.4C200.918 103.373 200.771 103.293 200.611 103.16C200.451 103.053 200.278 102.92 200.091 102.76C199.985 102.653 199.918 102.533 199.891 102.4C199.865 102.24 199.891 101.973 199.971 101.6C200.051 101.227 200.171 100.627 200.331 99.8C200.438 99.2667 200.558 98.7333 200.691 98.2C200.825 97.6667 200.945 97.2267 201.051 96.88C201.158 96.5067 201.211 96.32 201.211 96.32C201.345 96.2667 201.531 95.8667 201.771 95.12C202.038 94.3733 202.331 93.4667 202.651 92.4C202.758 92.0267 202.945 91.4 203.211 90.52C203.478 89.64 203.745 88.7867 204.011 87.96C204.251 87.1867 204.451 86.4933 204.611 85.88C204.771 85.24 204.851 84.92 204.851 84.92C204.851 84.92 204.651 85.04 204.251 85.28C203.878 85.4933 203.398 85.7867 202.811 86.16C202.225 86.5067 201.651 86.8933 201.091 87.32C200.638 87.5867 200.091 87.96 199.451 88.44C198.838 88.92 198.291 89.3067 197.811 89.6C197.091 90.16 196.651 90.48 196.491 90.56C196.331 90.6133 196.131 90.5733 195.891 90.44C195.545 90.1467 195.305 89.84 195.171 89.52C195.065 89.2 195.091 88.9067 195.251 88.64C195.305 88.6133 195.465 88.5067 195.731 88.32C196.025 88.1333 196.345 87.92 196.691 87.68C197.038 87.44 197.358 87.2133 197.651 87C197.971 86.7867 198.198 86.64 198.331 86.56C198.411 86.56 198.558 86.4667 198.771 86.28C198.985 86.0933 199.211 85.92 199.451 85.76C199.585 85.6 200.051 85.24 200.851 84.68C201.651 84.12 202.518 83.4933 203.451 82.8C204.438 82.1867 205.265 81.6933 205.931 81.32C206.625 80.9467 207.025 80.7733 207.131 80.8C207.211 80.8 207.331 80.8533 207.491 80.96C207.678 81.0667 207.851 81.2 208.011 81.36C208.171 81.52 208.265 81.68 208.291 81.84C208.451 82.0267 208.371 82.4533 208.051 83.12C207.945 83.36 207.771 83.8 207.531 84.44C207.291 85.0533 207.025 85.7733 206.731 86.6C206.465 87.4 206.198 88.2 205.931 89C205.691 89.7733 205.491 90.44 205.331 91C205.118 91.8267 204.918 92.4667 204.731 92.92C204.571 93.3733 204.411 93.8133 204.251 94.24C204.118 94.64 203.958 95.2 203.771 95.92C203.585 96.3467 203.385 96.8933 203.171 97.56C202.985 98.2 202.811 98.84 202.651 99.48C202.491 100.093 202.371 100.6 202.291 101C202.078 101.587 201.905 102.107 201.771 102.56C201.638 103.013 201.505 103.293 201.371 103.4ZM216.259 102.36C215.592 102.36 214.939 102.293 214.299 102.16C213.686 102 213.192 101.8 212.819 101.56C212.446 101.293 212.272 101 212.299 100.68C212.326 100.253 212.419 100.027 212.579 100C212.739 99.9467 213.112 99.96 213.699 100.04C214.606 100.227 215.579 100.24 216.619 100.08C217.659 99.92 218.632 99.64 219.539 99.24C220.446 98.84 221.152 98.3867 221.659 97.88C222.379 97.1867 222.699 96.4933 222.619 95.8C222.566 95.1067 222.152 94.5067 221.379 94C221.032 93.76 220.552 93.5333 219.939 93.32C219.326 93.1067 218.712 92.9467 218.099 92.84C217.512 92.7067 217.032 92.6533 216.659 92.68C216.419 92.7067 216.219 92.7067 216.059 92.68C215.926 92.6533 215.686 92.5467 215.339 92.36C215.179 92.1733 215.032 91.9733 214.899 91.76C214.766 91.52 214.672 91.3467 214.619 91.24C214.592 91.1067 214.659 90.9733 214.819 90.84C215.006 90.7067 215.392 90.48 215.979 90.16C216.566 89.8133 217.472 89.3067 218.699 88.64C219.819 88.0267 220.699 87.5333 221.339 87.16C222.006 86.76 222.526 86.44 222.899 86.2C223.299 85.9333 223.619 85.6933 223.859 85.48C224.339 84.84 224.579 84.4267 224.579 84.24C224.579 84.0533 224.232 83.8933 223.539 83.76C222.872 83.7067 222.232 83.6667 221.619 83.64C221.006 83.6133 220.699 83.6533 220.699 83.76C220.699 83.76 220.686 83.76 220.659 83.76C220.659 83.76 220.619 83.76 220.539 83.76C220.406 83.7067 220.112 83.72 219.659 83.8C219.206 83.88 218.766 83.9733 218.339 84.08C217.939 84.1867 217.726 84.28 217.699 84.36C217.672 84.4133 217.512 84.5067 217.219 84.64C216.952 84.7467 216.672 84.84 216.379 84.92C216.112 85 215.939 85.04 215.859 85.04C215.726 84.9867 215.566 84.8533 215.379 84.64C215.219 84.4 215.086 84.16 214.979 83.92C214.872 83.6533 214.846 83.4533 214.899 83.32C214.952 83.2133 215.112 83.08 215.379 82.92C215.672 82.7333 216.006 82.5467 216.379 82.36C216.752 82.1467 217.086 81.9733 217.379 81.84C217.752 81.7333 218.272 81.6533 218.939 81.6C219.632 81.5467 220.326 81.52 221.019 81.52C221.712 81.4933 222.219 81.4933 222.539 81.52C223.766 81.6533 224.712 81.9733 225.379 82.48C226.046 82.9867 226.459 83.6667 226.619 84.52C226.699 84.8933 226.726 85.2 226.699 85.44C226.672 85.68 226.552 85.9333 226.339 86.2C226.126 86.44 225.752 86.8 225.219 87.28C224.552 87.7067 224.006 88.0667 223.579 88.36C223.152 88.6533 222.512 89.0267 221.659 89.48C221.472 89.6133 221.219 89.7867 220.899 90C220.579 90.2133 220.286 90.4133 220.019 90.6C219.752 90.76 219.619 90.8667 219.619 90.92C219.619 90.92 219.672 90.96 219.779 91.04C219.886 91.0933 220.019 91.1733 220.179 91.28C220.339 91.3867 220.486 91.5067 220.619 91.64C221.392 91.9067 222.099 92.3333 222.739 92.92C223.379 93.5067 223.832 93.9867 224.099 94.36C224.472 95.1867 224.619 95.9867 224.539 96.76C224.486 97.5333 224.219 98.2667 223.739 98.96C223.259 99.6267 222.552 100.24 221.619 100.8C220.872 101.227 220.006 101.587 219.019 101.88C218.032 102.147 217.112 102.307 216.259 102.36ZM235.747 102.16C235.56 102.16 235.267 102.08 234.867 101.92C234.494 101.733 234.094 101.52 233.667 101.28C233.24 101.013 232.894 100.76 232.627 100.52C232.04 99.96 231.547 99.28 231.147 98.48C230.747 97.68 230.467 96.8267 230.307 95.92C230.147 94.9867 230.134 94.0933 230.267 93.24C230.56 91.5333 231.2 89.8533 232.187 88.2C233.174 86.52 234.307 85.1333 235.587 84.04C236.28 83.4267 236.907 82.96 237.467 82.64C238.027 82.2933 238.707 82.0267 239.507 81.84C239.8 81.76 240.12 81.72 240.467 81.72C240.814 81.6933 241.08 81.68 241.267 81.68C241.8 81.68 242.334 81.7867 242.867 82C243.4 82.2133 243.854 82.48 244.227 82.8C244.6 83.0933 244.787 83.3733 244.787 83.64C244.787 83.8267 244.774 83.9733 244.747 84.08C244.72 84.16 244.6 84.1467 244.387 84.04H243.987L244.387 85.2C244.494 85.4133 244.587 85.7067 244.667 86.08C244.747 86.4267 244.787 86.7467 244.787 87.04C244.787 87.28 244.747 87.6667 244.667 88.2C244.587 88.7067 244.48 89.2533 244.347 89.84C244.214 90.4267 244.08 90.9733 243.947 91.48C243.814 91.9867 243.694 92.36 243.587 92.6C243.507 92.76 243.454 92.92 243.427 93.08C243.427 93.2133 243.427 93.3333 243.427 93.44C243.32 93.6267 243.147 93.9867 242.907 94.52C242.694 95.0533 242.534 95.4267 242.427 95.64C242.32 95.7467 242.227 95.84 242.147 95.92C242.094 96 242.12 96.0933 242.227 96.2C242.227 96.2533 242.16 96.4267 242.027 96.72C241.894 96.9867 241.747 97.24 241.587 97.48C241.454 97.72 241.347 97.84 241.267 97.84C241.267 97.84 241.227 97.8533 241.147 97.88C241.094 97.88 241.067 97.92 241.067 98C241.067 98.1067 240.894 98.3867 240.547 98.84C240.2 99.2667 239.787 99.72 239.307 100.2C239.04 100.467 238.667 100.76 238.187 101.08C237.734 101.373 237.28 101.627 236.827 101.84C236.374 102.053 236.014 102.16 235.747 102.16ZM235.627 99.64C235.92 99.64 236.2 99.6 236.467 99.52C236.734 99.4133 236.96 99.2667 237.147 99.08C237.627 98.76 238.187 98.24 238.827 97.52C239.467 96.7733 239.934 96.0533 240.227 95.36C240.52 94.96 240.747 94.5467 240.907 94.12C241.094 93.6667 241.374 92.9067 241.747 91.84C241.96 91.5467 242.107 91.1867 242.187 90.76C242.267 90.3333 242.307 89.9733 242.307 89.68C242.307 89.3867 242.307 88.9867 242.307 88.48C242.334 87.9733 242.4 87.5467 242.507 87.2C242.507 86.5067 242.494 86.0533 242.467 85.84C242.44 85.6 242.334 85.3733 242.147 85.16C242.04 85.08 241.894 85 241.707 84.92C241.547 84.84 241.374 84.8 241.187 84.8C241 84.8 240.654 84.9067 240.147 85.12C239.64 85.3067 239.28 85.4667 239.067 85.6C238.88 85.7067 238.667 85.72 238.427 85.64C238.214 85.56 238.107 85.4533 238.107 85.32C238.107 84.9467 237.867 84.92 237.387 85.24C236.907 85.5333 236.374 86.04 235.787 86.76C235.307 87.24 234.894 87.7333 234.547 88.24C234.227 88.72 234.067 89.0133 234.067 89.12C234.067 89.2267 234.027 89.36 233.947 89.52C233.867 89.68 233.787 89.8667 233.707 90.08C233.574 90.2667 233.414 90.5733 233.227 91C233.04 91.4267 232.854 91.8533 232.667 92.28C232.507 92.68 232.4 92.9867 232.347 93.2C232.347 93.3067 232.347 93.6 232.347 94.08C232.347 94.5333 232.347 94.96 232.347 95.36C232.347 95.8133 232.36 96.2 232.387 96.52C232.44 96.84 232.507 97.12 232.587 97.36C232.667 97.5733 232.774 97.8133 232.907 98.08C233.014 98.2667 233.174 98.4933 233.387 98.76C233.627 99 233.787 99.1733 233.867 99.28C234.16 99.5467 234.4 99.7067 234.587 99.76C234.774 99.7867 235.12 99.7467 235.627 99.64Z" fill="white"/>
<path d="M45.0002 142C80.2412 133.181 172.579 116.561 260 120.631" stroke="#91FF6A" stroke-width="2" stroke-linecap="round"/>
<path d="M149.98 44.5424C196.96 44.5424 235.49 27.1358 258.98 2.5" stroke="white" stroke-width="2" stroke-linecap="round"/>
<path d="M217.012 3.29171C223.325 5.89133 240.218 9.0687 258.423 1.65908C259.127 1.37242 259.899 1.92592 259.822 2.68239C258.965 11.0897 256.702 22.2961 242.22 40.5319" stroke="white" stroke-width="2" stroke-linecap="round"/>
</svg>
