<svg width="234" height="79" viewBox="0 0 234 79" fill="none" xmlns="http://www.w3.org/2000/svg">
<path d="M79.7355 26.936C79.2395 26.904 78.7435 26.72 78.2475 26.384C77.7515 26.064 77.2955 25.76 76.8795 25.472C76.6075 25.2 76.3995 24.912 76.2555 24.608C76.1115 24.288 75.9915 23.872 75.8955 23.36C75.8315 23.056 75.8315 22.656 75.8955 22.16C75.9595 21.664 76.0635 21.168 76.2075 20.672C76.3515 20.16 76.4875 19.76 76.6155 19.472C76.8075 19.024 77.0475 18.544 77.3355 18.032C77.6395 17.504 77.9355 17.008 78.2235 16.544C78.5275 16.064 78.7675 15.68 78.9435 15.392C79.0555 15.28 79.1035 15.224 79.0875 15.224C79.0875 15.208 79.0875 15.2 79.0875 15.2C79.0875 15.12 79.1675 14.92 79.3275 14.6C79.5035 14.264 79.6555 13.968 79.7835 13.712C80.0235 13.456 80.1595 13.248 80.1915 13.088C80.2235 12.928 80.1995 12.8 80.1195 12.704C80.0875 12.64 80.1515 12.504 80.3115 12.296C80.4875 12.088 80.7275 11.856 81.0315 11.6C81.3355 11.328 81.6715 11.088 82.0395 10.88C82.4235 10.576 82.7915 10.416 83.1435 10.4C83.5115 10.368 83.7275 10.44 83.7915 10.616C83.7915 10.664 83.8795 10.68 84.0555 10.664C84.2475 10.632 84.4635 10.592 84.7035 10.544C84.9595 10.48 85.1835 10.432 85.3755 10.4C85.4555 10.304 85.6395 10.232 85.9275 10.184C86.2315 10.12 86.5835 10.064 86.9835 10.016C87.1915 10.032 87.4235 10.04 87.6795 10.04C87.9355 10.024 88.1595 10.008 88.3515 9.992C88.5595 9.976 88.6635 9.968 88.6635 9.968C88.7755 9.936 88.9355 10.008 89.1435 10.184C89.3675 10.344 89.5435 10.568 89.6715 10.856C89.7835 11.144 89.6875 11.392 89.3835 11.6C89.0795 11.808 88.5995 11.952 87.9435 12.032C87.4635 12.096 87.0875 12.152 86.8155 12.2C86.5595 12.232 86.2795 12.28 85.9755 12.344C85.6875 12.392 85.2635 12.48 84.7035 12.608C84.3035 12.688 83.9675 12.752 83.6955 12.8C83.4235 12.848 83.1835 12.944 82.9755 13.088C82.7835 13.232 82.5675 13.488 82.3275 13.856C82.2155 13.936 82.0715 14.144 81.8955 14.48C81.7195 14.816 81.5435 15.152 81.3675 15.488C80.9195 16.112 80.5835 16.576 80.3595 16.88C80.1515 17.168 80.0795 17.352 80.1435 17.432C80.1435 17.432 80.2555 17.456 80.4795 17.504C80.7035 17.552 80.8475 17.576 80.9115 17.576C81.0715 17.496 81.2635 17.44 81.4875 17.408C81.7275 17.376 81.9195 17.344 82.0635 17.312C83.0555 17.056 83.7835 16.872 84.2475 16.76C84.7275 16.632 85.0635 16.544 85.2555 16.496C85.4635 16.448 85.6475 16.416 85.8075 16.4C86.0315 16.224 86.2555 16.24 86.4795 16.448C86.7195 16.64 86.8875 16.872 86.9835 17.144C87.0955 17.464 87.0955 17.712 86.9835 17.888C86.8715 18.064 86.6235 18.208 86.2395 18.32C85.8715 18.432 85.3435 18.568 84.6555 18.728C83.9675 18.872 83.1035 19.088 82.0635 19.376C81.1835 19.632 80.4715 19.784 79.9275 19.832C79.3835 19.88 79.1275 19.744 79.1595 19.424C79.0475 19.36 78.9195 19.424 78.7755 19.616C78.6475 19.792 78.5275 20.04 78.4155 20.36C78.3035 20.68 78.1995 21.024 78.1035 21.392C78.0235 21.76 77.9755 22.104 77.9595 22.424C77.9435 22.744 77.9675 22.992 78.0315 23.168C78.1595 23.536 78.3595 23.856 78.6315 24.128C78.9195 24.384 79.3355 24.592 79.8795 24.752C80.1995 24.768 80.5115 24.792 80.8155 24.824C81.1195 24.856 81.4635 24.792 81.8475 24.632C82.7915 24.472 83.4475 24.304 83.8155 24.128C84.1835 23.952 84.4075 23.832 84.4875 23.768C84.6155 23.704 84.6955 23.64 84.7275 23.576C84.7755 23.512 84.8395 23.48 84.9195 23.48C84.8715 23.56 84.8875 23.56 84.9675 23.48C85.0475 23.4 85.1755 23.288 85.3515 23.144C85.6875 22.856 86.0235 22.68 86.3595 22.616C86.6955 22.552 86.9755 22.552 87.1995 22.616C87.4235 22.664 87.5435 22.728 87.5595 22.808C87.6555 22.968 87.6075 23.224 87.4155 23.576C87.2235 23.912 86.9275 24.272 86.5275 24.656C86.1435 25.04 85.6875 25.384 85.1595 25.688C84.3115 26.136 83.3915 26.448 82.3995 26.624C81.4075 26.816 80.5195 26.92 79.7355 26.936ZM91.4758 27.464C90.8358 27.304 90.3158 26.968 89.9158 26.456C89.5318 25.96 89.2198 25.36 88.9798 24.656C88.9638 24.448 88.9558 24.16 88.9558 23.792C88.9718 23.424 88.9958 23.08 89.0278 22.76C89.0598 22.44 89.0918 22.256 89.1238 22.208C89.1718 22.176 89.1958 22.08 89.1958 21.92C89.1798 21.856 89.1878 21.752 89.2198 21.608C89.2678 21.448 89.3158 21.288 89.3638 21.128C89.4438 20.936 89.4838 20.784 89.4838 20.672C89.4838 20.544 89.4758 20.448 89.4598 20.384C89.4598 20.384 89.4838 20.336 89.5318 20.24C89.5798 20.128 89.6358 20.04 89.6998 19.976C89.7958 19.88 89.8358 19.784 89.8198 19.688C89.8198 19.592 89.8198 19.544 89.8198 19.544C89.8038 19.48 89.8198 19.392 89.8678 19.28C89.9158 19.168 89.9638 19.08 90.0118 19.016C90.0438 18.984 90.0838 18.92 90.1318 18.824C90.1958 18.712 90.2278 18.656 90.2278 18.656C90.2278 18.608 90.2598 18.48 90.3238 18.272C90.4038 18.064 90.4918 17.84 90.5878 17.6C90.6838 17.344 90.7718 17.112 90.8518 16.904C90.9478 16.696 91.0198 16.56 91.0678 16.496V16.448C91.1318 16.288 91.2198 16.12 91.3318 15.944C91.3478 15.864 91.3878 15.736 91.4518 15.56C91.5158 15.368 91.5878 15.184 91.6678 15.008C91.8438 14.624 92.0598 14.192 92.3158 13.712C92.5878 13.216 92.8758 12.728 93.1798 12.248C93.4838 11.752 93.7718 11.312 94.0438 10.928C94.3318 10.528 94.5798 10.232 94.7878 10.04C95.0598 9.736 95.3318 9.52 95.6038 9.392C95.8918 9.248 96.1558 9.296 96.3958 9.536C96.5078 9.648 96.6038 9.816 96.6838 10.04C96.7638 10.248 96.7958 10.448 96.7798 10.64C96.7798 10.816 96.7158 10.912 96.5878 10.928C96.4758 10.992 96.3238 11.176 96.1318 11.48C95.9398 11.768 95.7238 12.112 95.4838 12.512C95.2598 12.912 95.0358 13.328 94.8118 13.76C94.5878 14.176 94.3798 14.552 94.1878 14.888C93.9798 15.352 93.7878 15.76 93.6118 16.112C93.4358 16.448 93.3478 16.616 93.3478 16.616C93.3318 16.664 93.3158 16.704 93.2998 16.736C93.2838 16.768 93.2678 16.8 93.2518 16.832C93.0118 17.328 92.8118 17.784 92.6518 18.2C92.4918 18.6 92.3318 19.024 92.1718 19.472C92.0758 19.584 92.0198 19.696 92.0038 19.808C91.9878 19.92 91.9798 19.976 91.9798 19.976C91.9478 19.96 91.9238 20 91.9078 20.096C91.8918 20.176 91.8598 20.272 91.8118 20.384C91.7318 20.448 91.6838 20.552 91.6678 20.696C91.6518 20.824 91.6438 20.952 91.6438 21.08C91.5318 21.368 91.4278 21.72 91.3318 22.136C91.2358 22.536 91.1638 22.928 91.1158 23.312C91.0838 23.68 91.0758 23.968 91.0918 24.176C91.1238 24.448 91.1958 24.68 91.3078 24.872C91.4358 25.048 91.6118 25.192 91.8358 25.304C92.0118 25.384 92.1718 25.456 92.3158 25.52C92.4598 25.568 92.5878 25.592 92.6998 25.592C92.8278 25.608 92.9878 25.608 93.1798 25.592C93.3878 25.56 93.6678 25.512 94.0198 25.448H93.9958C94.2038 25.416 94.4198 25.376 94.6438 25.328C94.8838 25.264 95.1078 25.208 95.3158 25.16C95.5078 25.128 95.6918 25.096 95.8678 25.064C96.0438 25.016 96.1798 24.976 96.2758 24.944C96.6278 24.848 96.9078 24.768 97.1158 24.704C97.3398 24.64 97.4918 24.64 97.5718 24.704C97.6518 24.768 97.7398 24.888 97.8358 25.064C97.9318 25.24 97.9558 25.4 97.9078 25.544C97.8758 25.624 97.7158 25.784 97.4278 26.024C97.1398 26.28 96.8118 26.528 96.4438 26.768C96.0758 27.024 95.7398 27.2 95.4358 27.296C95.1158 27.44 94.6838 27.536 94.1398 27.584C93.6118 27.648 93.0998 27.664 92.6038 27.632C92.1078 27.6 91.7318 27.544 91.4758 27.464ZM102.463 27.536C101.807 27.536 101.207 27.424 100.663 27.2C100.119 26.992 99.7826 26.52 99.6546 25.784C99.6706 25.384 99.6866 25.136 99.7026 25.04C99.7346 24.928 99.7986 24.872 99.8946 24.872C99.9586 24.872 100.007 24.864 100.039 24.848C100.087 24.816 100.111 24.744 100.111 24.632C100.127 24.36 100.167 24.04 100.231 23.672C100.311 23.288 100.399 22.936 100.495 22.616C100.607 22.28 100.711 22.048 100.807 21.92C100.903 21.6 101.039 21.16 101.215 20.6C101.391 20.04 101.575 19.456 101.767 18.848C101.975 18.224 102.159 17.656 102.319 17.144C102.495 16.632 102.623 16.272 102.703 16.064C102.783 15.856 102.911 15.568 103.087 15.2C103.263 14.816 103.383 14.496 103.447 14.24C103.559 13.92 103.679 13.576 103.807 13.208C103.935 12.824 104.055 12.528 104.167 12.32L104.575 11.6L103.927 11.048C103.703 10.824 103.591 10.6 103.591 10.376C103.591 10.12 103.743 9.904 104.047 9.728C104.367 9.552 104.735 9.432 105.151 9.368C105.311 9.336 105.495 9.32 105.703 9.32C105.927 9.32 106.135 9.32 106.327 9.32C106.791 9.32 107.255 9.336 107.719 9.368C108.183 9.4 108.567 9.44 108.871 9.488C109.047 9.52 109.271 9.592 109.543 9.704C109.815 9.816 110.079 9.944 110.335 10.088C110.591 10.232 110.775 10.368 110.887 10.496C110.887 10.496 110.919 10.528 110.983 10.592C111.047 10.64 111.111 10.664 111.175 10.664C111.271 10.712 111.439 10.896 111.679 11.216C111.935 11.536 112.183 11.896 112.423 12.296C112.663 12.68 112.807 13.032 112.855 13.352C112.903 13.592 112.935 13.856 112.951 14.144C112.983 14.416 112.999 14.664 112.999 14.888C112.983 15.272 112.959 15.64 112.927 15.992C112.911 16.344 112.871 16.728 112.807 17.144C112.759 17.512 112.671 17.92 112.543 18.368C112.431 18.8 112.303 19.224 112.159 19.64C112.031 20.04 111.911 20.368 111.799 20.624C111.703 20.88 111.639 21.008 111.607 21.008C111.511 21.008 111.455 21.032 111.439 21.08C111.423 21.128 111.415 21.184 111.415 21.248C111.399 21.408 111.295 21.664 111.103 22.016C110.911 22.352 110.671 22.72 110.383 23.12C110.095 23.504 109.791 23.864 109.471 24.2C109.167 24.536 108.887 24.784 108.631 24.944C108.119 25.504 107.503 25.976 106.783 26.36C106.063 26.76 105.319 27.056 104.551 27.248C103.799 27.44 103.103 27.536 102.463 27.536ZM103.063 25.112C103.223 25.112 103.479 25.104 103.831 25.088C104.199 25.056 104.495 25 104.719 24.92C105.103 24.824 105.567 24.616 106.111 24.296C106.655 23.96 107.151 23.568 107.599 23.12C108.095 22.608 108.543 22.08 108.943 21.536C109.343 20.976 109.735 20.208 110.119 19.232C110.391 18.592 110.583 17.944 110.695 17.288C110.823 16.632 110.887 16.04 110.887 15.512C110.887 14.568 110.711 13.808 110.359 13.232C110.007 12.64 109.551 12.24 108.991 12.032C108.767 11.952 108.535 11.896 108.295 11.864C108.055 11.816 107.823 11.792 107.599 11.792C107.439 11.792 107.271 11.8 107.095 11.816C106.935 11.832 106.831 11.856 106.783 11.888C106.655 11.888 106.511 12.016 106.351 12.272C106.207 12.528 106.071 12.848 105.943 13.232C105.815 13.616 105.695 13.992 105.583 14.36C105.455 14.824 105.335 15.2 105.223 15.488C105.111 15.76 104.999 16.04 104.887 16.328C104.775 16.616 104.639 17.024 104.479 17.552C104.255 17.984 104.063 18.424 103.903 18.872C103.759 19.304 103.639 19.688 103.543 20.024C103.447 20.344 103.375 20.568 103.327 20.696C103.231 20.888 103.127 21.176 103.015 21.56C102.919 21.928 102.823 22.328 102.727 22.76C102.647 23.192 102.575 23.592 102.511 23.96C102.463 24.328 102.439 24.608 102.439 24.8C102.439 24.928 102.503 25.016 102.631 25.064C102.759 25.096 102.903 25.112 103.063 25.112ZM118.432 27.2C117.792 27.2 117.216 27.16 116.704 27.08C116.208 27.016 115.752 26.824 115.336 26.504C114.84 26.136 114.488 25.608 114.28 24.92C114.088 24.216 114.144 23.296 114.448 22.16C114.528 21.76 114.616 21.408 114.712 21.104C114.824 20.8 114.92 20.648 115 20.648C115.016 20.568 115.04 20.456 115.072 20.312C115.104 20.152 115.136 19.968 115.168 19.76C115.248 19.472 115.304 19.264 115.336 19.136C115.368 18.992 115.432 18.872 115.528 18.776C115.576 18.744 115.632 18.64 115.696 18.464C115.76 18.272 115.8 18.16 115.816 18.128C115.816 18.128 115.824 18.072 115.84 17.96C115.856 17.832 115.896 17.688 115.96 17.528C116.2 17.128 116.32 16.864 116.32 16.736C116.352 16.672 116.416 16.576 116.512 16.448C116.624 16.32 116.712 16.152 116.776 15.944C117.256 15.096 117.648 14.4 117.952 13.856C118.256 13.296 118.44 12.864 118.504 12.56C118.584 12.384 118.656 12.176 118.72 11.936C118.8 11.68 118.896 11.488 119.008 11.36C118.976 11.28 119.064 11.192 119.272 11.096C119.496 11 119.784 10.896 120.136 10.784C120.488 10.672 120.864 10.576 121.264 10.496C121.664 10.416 122.032 10.368 122.368 10.352C122.464 10.288 122.672 10.24 122.992 10.208C123.328 10.176 123.712 10.16 124.144 10.16C124.576 10.16 124.976 10.176 125.344 10.208C125.696 10.208 125.976 10.256 126.184 10.352C126.392 10.448 126.6 10.544 126.808 10.64C126.888 10.72 127 10.832 127.144 10.976C127.288 11.12 127.376 11.272 127.408 11.432C127.456 11.592 127.352 11.736 127.096 11.864C127.048 11.912 126.784 11.952 126.304 11.984C125.824 12.016 125.32 12.032 124.792 12.032C124.2 12.032 123.688 12.08 123.256 12.176C122.824 12.272 122.52 12.32 122.344 12.32C122.12 12.384 121.856 12.424 121.552 12.44C121.248 12.456 121.096 12.464 121.096 12.464C121.064 12.464 120.984 12.56 120.856 12.752C120.728 12.928 120.584 13.144 120.424 13.4C120.28 13.64 120.144 13.864 120.016 14.072C119.904 14.28 119.848 14.408 119.848 14.456C119.848 14.616 119.784 14.792 119.656 14.984C119.528 15.176 119.376 15.4 119.2 15.656C119.04 15.864 118.936 16.088 118.888 16.328C118.84 16.552 118.888 16.696 119.032 16.76C119.288 16.712 119.64 16.664 120.088 16.616C120.552 16.568 121.008 16.528 121.456 16.496C121.904 16.448 122.248 16.424 122.488 16.424C122.76 16.344 122.984 16.328 123.16 16.376C123.336 16.424 123.464 16.472 123.544 16.52C123.736 16.552 123.848 16.648 123.88 16.808C123.928 16.968 123.928 17.128 123.88 17.288C123.832 17.448 123.752 17.552 123.64 17.6C123.544 17.696 123.304 17.808 122.92 17.936C122.536 18.064 122.08 18.192 121.552 18.32C121.04 18.448 120.52 18.568 119.992 18.68C119.48 18.776 119.032 18.856 118.648 18.92C118.28 18.984 118.064 19.008 118 18.992C117.904 18.768 117.792 18.776 117.664 19.016C117.552 19.24 117.416 19.704 117.256 20.408C117.08 20.808 116.944 21.112 116.848 21.32C116.768 21.512 116.704 21.728 116.656 21.968C116.608 22.192 116.536 22.552 116.44 23.048C116.328 23.48 116.336 23.872 116.464 24.224C116.608 24.56 116.936 24.848 117.448 25.088C117.768 25.152 118.136 25.176 118.552 25.16C118.968 25.144 119.52 25.048 120.208 24.872C120.496 24.696 120.784 24.536 121.072 24.392C121.36 24.232 121.56 24.12 121.672 24.056C121.752 24.056 121.872 24.024 122.032 23.96C122.208 23.88 122.328 23.84 122.392 23.84C122.52 23.664 122.68 23.576 122.872 23.576C122.904 23.576 122.992 23.648 123.136 23.792C123.296 23.936 123.448 24.12 123.592 24.344C123.736 24.568 123.808 24.8 123.808 25.04C123.808 25.2 123.536 25.408 122.992 25.664C122.464 25.92 121.8 26.208 121 26.528C120.6 26.704 120.272 26.84 120.016 26.936C119.776 27.032 119.544 27.096 119.32 27.128C119.096 27.176 118.8 27.2 118.432 27.2ZM126.919 26.072C126.791 25.944 126.687 25.752 126.607 25.496C126.543 25.24 126.511 24.968 126.511 24.68C126.527 24.376 126.583 24.128 126.679 23.936C126.759 23.792 126.823 23.608 126.871 23.384C126.919 23.144 126.951 22.92 126.967 22.712C127.095 22.2 127.247 21.672 127.423 21.128C127.615 20.568 127.815 19.968 128.023 19.328C128.311 18.448 128.559 17.68 128.767 17.024C128.975 16.368 129.183 15.744 129.391 15.152C129.599 14.544 129.839 13.904 130.111 13.232C130.159 13.152 130.207 13.056 130.255 12.944C130.319 12.816 130.367 12.688 130.399 12.56C130.447 12.416 130.463 12.296 130.447 12.2C130.495 11.944 130.559 11.736 130.639 11.576C130.735 11.4 130.815 11.28 130.879 11.216C131.055 11.008 131.247 10.84 131.455 10.712C131.663 10.568 131.831 10.528 131.959 10.592C132.183 10.656 132.423 10.768 132.679 10.928C132.951 11.072 133.175 11.376 133.351 11.84C133.447 11.984 133.535 12.136 133.615 12.296C133.695 12.44 133.751 12.608 133.783 12.8C133.815 12.992 133.807 13.232 133.759 13.52C133.807 14.224 133.895 14.944 134.023 15.68C134.167 16.416 134.223 17.088 134.191 17.696C134.191 17.968 134.191 18.328 134.191 18.776C134.191 19.224 134.191 19.688 134.191 20.168C134.207 20.632 134.231 21.04 134.263 21.392C134.311 21.728 134.383 21.928 134.479 21.992C134.511 22.008 134.527 22.048 134.527 22.112C134.527 22.16 134.535 22.184 134.551 22.184C134.567 22.184 134.591 22.12 134.623 21.992C134.671 21.848 134.743 21.6 134.839 21.248C134.935 20.928 135.087 20.608 135.295 20.288C135.519 19.952 135.687 19.496 135.799 18.92C136.007 18.392 136.175 17.928 136.303 17.528C136.447 17.128 136.583 16.72 136.711 16.304C136.839 15.888 136.991 15.424 137.167 14.912C137.199 14.768 137.255 14.592 137.335 14.384C137.431 14.16 137.535 13.928 137.647 13.688C137.759 13.432 137.879 13.2 138.007 12.992C138.167 12.672 138.343 12.344 138.535 12.008C138.727 11.672 138.823 11.472 138.823 11.408C138.823 11.408 138.823 11.368 138.823 11.288C138.823 11.192 138.855 11.112 138.919 11.048C138.999 10.984 139.103 10.912 139.231 10.832C139.359 10.752 139.447 10.608 139.495 10.4C139.575 10.336 139.727 10.248 139.951 10.136C140.175 10.024 140.359 10 140.503 10.064C140.599 10.144 140.695 10.232 140.791 10.328C140.903 10.424 140.975 10.56 141.007 10.736C141.055 10.912 141.015 11.168 140.887 11.504C140.839 11.84 140.767 12.128 140.671 12.368C140.591 12.592 140.511 12.768 140.431 12.896C140.367 13.056 140.295 13.248 140.215 13.472C140.151 13.68 140.079 13.872 139.999 14.048C139.935 14.336 139.879 14.568 139.831 14.744C139.799 14.92 139.783 15.04 139.783 15.104C139.783 15.104 139.727 15.184 139.615 15.344C139.519 15.504 139.399 15.704 139.255 15.944C139.031 16.52 138.855 17.008 138.727 17.408C138.599 17.792 138.487 18.128 138.391 18.416C138.295 18.704 138.199 19 138.103 19.304C138.007 19.592 137.879 19.928 137.719 20.312C137.703 20.536 137.663 20.744 137.599 20.936C137.535 21.112 137.463 21.264 137.383 21.392C137.303 21.52 137.239 21.624 137.191 21.704C137.143 21.768 137.119 21.8 137.119 21.8C136.719 22.472 136.375 23.104 136.087 23.696C135.799 24.272 135.607 24.64 135.511 24.8C135.431 24.928 135.351 25.032 135.271 25.112C135.191 25.176 135.111 25.224 135.031 25.256C134.967 25.272 134.895 25.288 134.815 25.304C134.751 25.32 134.671 25.328 134.575 25.328C134.287 25.36 134.023 25.272 133.783 25.064C133.543 24.84 133.311 24.488 133.087 24.008C132.799 23.416 132.543 22.664 132.319 21.752C132.111 20.824 131.991 19.848 131.959 18.824C131.959 18.696 131.959 18.552 131.959 18.392C131.959 18.232 131.951 18.072 131.935 17.912C131.935 17.752 131.927 17.616 131.911 17.504C131.911 17.376 131.911 17.056 131.911 16.544C131.911 16.032 131.895 15.408 131.863 14.672C131.655 15.104 131.471 15.624 131.311 16.232C131.151 16.84 130.983 17.448 130.807 18.056C130.631 18.648 130.399 19.176 130.111 19.64C130.079 19.96 130.031 20.248 129.967 20.504C129.903 20.76 129.839 20.984 129.775 21.176C129.727 21.352 129.671 21.48 129.607 21.56C129.495 21.88 129.399 22.256 129.319 22.688C129.255 23.12 129.191 23.44 129.127 23.648C129.127 23.808 129.079 24.04 128.983 24.344C128.903 24.632 128.815 24.928 128.719 25.232C128.623 25.52 128.551 25.744 128.503 25.904C128.423 26.096 128.279 26.248 128.071 26.36C127.863 26.472 127.647 26.512 127.423 26.48C127.199 26.448 127.031 26.312 126.919 26.072ZM147.472 27.44C147.408 27.6 147.192 27.68 146.824 27.68C146.456 27.68 146.136 27.576 145.864 27.368C145.672 27.176 145.544 27.024 145.48 26.912C145.432 26.816 145.464 26.64 145.576 26.384C145.688 26.144 145.88 25.712 146.152 25.088C146.216 24.704 146.328 24.32 146.488 23.936C146.648 23.536 146.768 23.256 146.848 23.096C146.912 22.872 147.04 22.504 147.232 21.992C147.44 21.464 147.672 20.88 147.928 20.24C148.2 19.6 148.456 19 148.696 18.44C148.936 17.864 149.112 17.432 149.224 17.144C149.496 16.504 149.776 15.832 150.064 15.128C150.352 14.424 150.744 13.536 151.24 12.464C151.304 12.304 151.28 12.136 151.168 11.96C151.056 11.784 150.864 11.696 150.592 11.696C150.432 11.52 150.344 11.336 150.328 11.144C150.312 10.936 150.392 10.792 150.568 10.712L152.776 9.968C153.528 9.792 154.296 9.744 155.08 9.824C155.88 9.888 156.632 10.104 157.336 10.472C158.104 10.92 158.664 11.416 159.016 11.96C159.368 12.504 159.56 13.056 159.592 13.616C159.64 14.16 159.576 14.656 159.4 15.104C159.272 15.44 159.024 15.808 158.656 16.208C158.304 16.608 157.888 17.008 157.408 17.408C156.944 17.808 156.456 18.176 155.944 18.512C155.448 18.832 154.984 19.08 154.552 19.256C154.152 19.448 153.704 19.648 153.208 19.856C152.712 20.048 152.232 20.216 151.768 20.36C151.512 20.424 151.208 20.456 150.856 20.456C150.504 20.456 150.24 20.424 150.064 20.36L149.656 21.128C149.496 21.704 149.216 22.56 148.816 23.696C148.432 24.832 147.984 26.08 147.472 27.44ZM157 27.896C156.872 27.944 156.656 27.96 156.352 27.944C156.064 27.928 155.736 27.8 155.368 27.56C154.664 27.144 153.96 26.64 153.256 26.048C152.552 25.456 151.76 24.656 150.88 23.648C150.544 23.248 150.288 22.848 150.112 22.448C149.952 22.048 149.744 21.544 149.488 20.936L149.152 19.64L150.064 19.04L151.12 19.904C151.376 20.464 151.672 21 152.008 21.512C152.36 22.024 152.712 22.48 153.064 22.88C153.352 23.216 153.744 23.624 154.24 24.104C154.736 24.568 155.264 25.016 155.824 25.448C156.384 25.88 156.888 26.208 157.336 26.432C157.432 26.512 157.456 26.664 157.408 26.888C157.376 27.128 157.312 27.352 157.216 27.56C157.136 27.768 157.064 27.88 157 27.896ZM150.952 18.488C151.32 18.456 151.72 18.36 152.152 18.2C152.6 18.024 153.072 17.832 153.568 17.624C154.032 17.4 154.488 17.16 154.936 16.904C155.4 16.632 155.816 16.336 156.184 16.016C156.568 15.696 156.864 15.352 157.072 14.984C157.296 14.616 157.392 14.224 157.36 13.808C157.36 13.6 157.296 13.368 157.168 13.112C157.04 12.856 156.872 12.624 156.664 12.416C156.472 12.208 156.272 12.072 156.064 12.008C155.424 11.848 154.936 11.752 154.6 11.72C154.264 11.688 154.016 11.736 153.856 11.864C153.712 11.992 153.6 12.216 153.52 12.536C153.52 12.584 153.456 12.736 153.328 12.992C153.2 13.248 153.04 13.576 152.848 13.976C152.672 14.36 152.496 14.776 152.32 15.224C151.856 16.168 151.512 16.864 151.288 17.312C151.08 17.744 150.952 18.032 150.904 18.176C150.872 18.32 150.888 18.424 150.952 18.488ZM162.207 26.696C162.175 26.712 162.103 26.72 161.991 26.72C161.895 26.736 161.711 26.736 161.439 26.72C161.183 26.704 160.775 26.688 160.215 26.672C158.919 26.528 158.247 26.448 158.199 26.432C158.199 26.432 158.175 26.424 158.127 26.408C158.095 26.392 158.015 26.328 157.887 26.216C157.727 26.168 157.591 26.064 157.479 25.904C157.367 25.728 157.287 25.544 157.239 25.352C157.191 25.16 157.183 25.008 157.215 24.896C157.231 24.848 157.335 24.8 157.527 24.752C157.719 24.688 157.911 24.672 158.103 24.704C158.391 24.64 158.655 24.6 158.895 24.584C159.151 24.568 159.391 24.536 159.615 24.488C159.775 24.408 159.943 24.36 160.119 24.344C160.295 24.328 160.447 24.296 160.575 24.248C160.703 24.264 160.799 24.168 160.863 23.96C160.943 23.736 161.055 23.44 161.199 23.072C161.247 22.928 161.343 22.664 161.487 22.28C161.631 21.88 161.783 21.456 161.943 21.008C162.119 20.544 162.263 20.144 162.375 19.808C162.503 19.456 162.567 19.264 162.567 19.232C162.551 19.072 162.567 18.912 162.615 18.752C162.679 18.576 162.711 18.44 162.711 18.344C162.759 18.28 162.823 18.104 162.903 17.816C162.999 17.512 163.135 17.152 163.311 16.736C163.407 16.512 163.519 16.232 163.647 15.896C163.791 15.544 163.911 15.216 164.007 14.912C164.119 14.608 164.175 14.424 164.175 14.36C164.319 14.056 164.455 13.768 164.583 13.496C164.727 13.224 164.799 13.056 164.799 12.992C164.799 12.992 164.655 13 164.367 13.016C164.079 13.016 163.799 13.008 163.527 12.992C163.175 13.008 162.823 12.992 162.471 12.944C162.135 12.88 161.839 12.8 161.583 12.704C161.327 12.592 161.167 12.488 161.103 12.392C160.991 12.216 160.975 12.08 161.055 11.984C161.135 11.872 161.231 11.744 161.343 11.6C161.375 11.472 161.567 11.392 161.919 11.36C162.287 11.312 162.743 11.28 163.287 11.264C164.071 11.28 164.623 11.28 164.943 11.264C165.279 11.248 165.455 11.208 165.471 11.144C165.551 11.144 165.631 11.144 165.711 11.144C165.791 11.128 165.887 11.112 165.999 11.096C166.127 11.096 166.391 11.048 166.791 10.952C167.191 10.84 167.527 10.744 167.799 10.664C168.279 10.552 168.719 10.48 169.119 10.448C169.519 10.4 169.751 10.376 169.815 10.376C170.151 10.328 170.423 10.4 170.631 10.592C170.839 10.768 170.935 11.04 170.919 11.408C170.919 11.52 170.823 11.616 170.631 11.696C170.439 11.776 170.079 11.848 169.551 11.912C169.247 11.96 168.983 12.024 168.759 12.104C168.535 12.168 168.343 12.224 168.183 12.272C167.943 12.352 167.791 12.4 167.727 12.416C167.679 12.432 167.615 12.456 167.535 12.488C167.407 12.488 167.295 12.568 167.199 12.728C167.119 12.888 167.039 13.104 166.959 13.376C166.959 13.376 166.935 13.4 166.887 13.448C166.839 13.48 166.815 13.512 166.815 13.544C166.815 13.592 166.775 13.64 166.695 13.688C166.631 13.736 166.567 13.848 166.503 14.024C166.503 14.12 166.439 14.328 166.311 14.648C166.183 14.968 166.055 15.328 165.927 15.728C165.799 16.128 165.719 16.488 165.687 16.808C165.495 17.272 165.319 17.728 165.159 18.176C164.999 18.608 164.911 18.944 164.895 19.184C164.847 19.248 164.767 19.432 164.655 19.736C164.559 20.024 164.447 20.36 164.319 20.744C164.191 21.112 164.071 21.44 163.959 21.728C163.847 22.016 163.767 22.176 163.719 22.208C163.655 22.272 163.615 22.36 163.599 22.472C163.583 22.568 163.567 22.656 163.551 22.736C163.487 22.96 163.423 23.208 163.359 23.48C163.311 23.752 163.311 23.944 163.359 24.056C163.455 24.056 163.615 24.056 163.839 24.056C164.079 24.056 164.319 24.048 164.559 24.032C164.815 24.016 165.007 23.992 165.135 23.96C165.695 23.928 166.087 23.912 166.311 23.912C166.551 23.912 166.703 23.928 166.767 23.96C166.847 23.976 166.903 23.992 166.935 24.008C166.967 24.024 167.047 24.024 167.175 24.008C167.415 23.976 167.615 24.024 167.775 24.152C167.935 24.28 168.079 24.488 168.207 24.776C168.271 24.904 168.231 25.056 168.087 25.232C167.959 25.408 167.823 25.528 167.679 25.592C167.631 25.624 167.519 25.664 167.343 25.712C167.183 25.744 167.023 25.752 166.863 25.736C166.511 25.736 166.207 25.736 165.951 25.736C165.711 25.72 165.471 25.712 165.231 25.712C164.991 25.712 164.687 25.712 164.319 25.712C164.191 25.696 164.063 25.696 163.935 25.712C163.807 25.728 163.711 25.736 163.647 25.736C163.551 25.704 163.439 25.704 163.311 25.736C163.183 25.768 163.007 25.792 162.783 25.808C162.687 25.856 162.607 25.888 162.543 25.904C162.495 25.92 162.455 25.992 162.423 26.12C162.423 26.184 162.391 26.28 162.327 26.408C162.263 26.536 162.223 26.632 162.207 26.696ZM170.083 26.768C170.003 26.896 169.923 27.008 169.843 27.104C169.779 27.2 169.707 27.256 169.627 27.272C169.579 27.192 169.451 27.08 169.243 26.936C169.035 26.792 168.835 26.64 168.643 26.48C168.451 26.32 168.339 26.176 168.307 26.048C168.307 25.872 168.371 25.536 168.499 25.04C168.627 24.544 168.795 23.984 169.003 23.36C169.211 22.72 169.419 22.096 169.627 21.488C169.851 20.864 170.043 20.344 170.203 19.928C170.315 19.64 170.411 19.392 170.491 19.184C170.571 18.96 170.635 18.784 170.683 18.656C170.747 18.48 170.859 18.224 171.019 17.888C171.179 17.552 171.347 17.208 171.523 16.856C171.715 16.504 171.875 16.2 172.003 15.944C172.131 15.688 172.195 15.56 172.195 15.56C172.211 15.432 172.299 15.192 172.459 14.84C172.619 14.488 172.819 14.08 173.059 13.616C173.299 13.152 173.547 12.696 173.803 12.248C174.059 11.784 174.291 11.376 174.499 11.024C174.691 10.736 174.835 10.576 174.931 10.544C175.043 10.496 175.139 10.504 175.219 10.568C175.571 10.536 175.875 10.544 176.131 10.592C176.403 10.624 176.611 10.688 176.755 10.784C176.915 10.864 177.003 10.96 177.019 11.072C177.051 11.12 177.051 11.328 177.019 11.696C177.003 12.048 176.971 12.36 176.923 12.632C176.827 13.416 176.779 14.144 176.779 14.816C176.779 15.472 176.819 16.2 176.899 17C176.995 17.784 177.099 18.76 177.211 19.928L177.571 22.256L178.003 21.32C178.163 20.968 178.307 20.616 178.435 20.264C178.563 19.896 178.691 19.584 178.819 19.328C178.947 18.96 179.083 18.608 179.227 18.272C179.387 17.92 179.467 17.744 179.467 17.744C179.611 17.536 179.747 17.256 179.875 16.904C180.019 16.552 180.147 16.2 180.259 15.848C180.387 15.496 180.483 15.232 180.547 15.056C180.579 14.944 180.627 14.776 180.691 14.552C180.771 14.328 180.851 14.08 180.931 13.808C181.027 13.536 181.115 13.272 181.195 13.016C181.291 12.696 181.379 12.408 181.459 12.152C181.539 11.896 181.611 11.68 181.675 11.504C181.739 11.312 181.779 11.184 181.795 11.12C181.795 11.12 181.827 11.08 181.891 11C181.955 10.92 182.027 10.792 182.107 10.616L182.971 10.424C183.339 10.728 183.547 11.016 183.595 11.288C183.659 11.544 183.611 11.88 183.451 12.296C183.435 12.456 183.395 12.632 183.331 12.824C183.267 13 183.235 13.088 183.235 13.088C183.331 13.088 183.339 13.2 183.259 13.424C183.195 13.632 183.147 13.816 183.115 13.976C183.083 14.088 183.027 14.28 182.947 14.552C182.883 14.824 182.811 15.112 182.731 15.416C182.651 15.72 182.579 15.984 182.515 16.208C182.483 16.336 182.395 16.576 182.251 16.928C182.107 17.264 181.939 17.648 181.747 18.08C181.555 18.512 181.355 18.952 181.147 19.4C180.955 19.832 180.779 20.208 180.619 20.528C180.459 20.848 180.347 21.064 180.283 21.176C180.235 21.272 180.179 21.392 180.115 21.536C180.067 21.68 180.003 21.792 179.923 21.872C179.843 22.128 179.699 22.416 179.491 22.736C179.283 23.056 179.059 23.368 178.819 23.672C178.595 23.976 178.395 24.232 178.219 24.44C178.011 24.664 177.803 24.832 177.595 24.944C177.387 25.056 177.147 25.048 176.875 24.92C176.619 24.792 176.299 24.504 175.915 24.056C175.835 23.928 175.747 23.648 175.651 23.216C175.555 22.784 175.451 22.288 175.339 21.728C175.243 21.152 175.147 20.584 175.051 20.024C174.955 19.448 174.883 18.96 174.835 18.56C174.771 18.24 174.747 17.992 174.763 17.816C174.779 17.624 174.787 17.424 174.787 17.216C174.787 16.96 174.787 16.768 174.787 16.64C174.803 16.496 174.819 16.36 174.835 16.232C174.851 16.088 174.859 15.904 174.859 15.68C174.875 15.504 174.867 15.4 174.835 15.368C174.803 15.32 174.739 15.36 174.643 15.488C174.371 15.888 174.139 16.256 173.947 16.592C173.755 16.928 173.611 17.2 173.515 17.408C173.451 17.584 173.331 17.88 173.155 18.296C172.979 18.696 172.787 19.144 172.579 19.64C172.371 20.136 172.171 20.6 171.979 21.032C171.803 21.464 171.667 21.792 171.571 22.016C171.459 22.256 171.339 22.584 171.211 23C171.099 23.4 170.987 23.824 170.875 24.272C170.763 24.704 170.667 25.088 170.587 25.424C170.523 25.76 170.475 25.976 170.443 26.072C170.427 26.088 170.371 26.184 170.275 26.36C170.195 26.536 170.131 26.672 170.083 26.768ZM190.944 27.248C190.912 27.296 190.808 27.296 190.632 27.248C190.456 27.2 190.288 27.112 190.128 26.984C189.968 26.872 189.872 26.744 189.84 26.6C189.776 26.6 189.736 26.552 189.72 26.456C189.72 26.36 189.72 26.16 189.72 25.856C189.848 25.632 189.984 25.52 190.128 25.52C190.128 25.52 190.12 25.488 190.104 25.424C190.088 25.344 190.128 25.208 190.224 25.016C190.304 24.824 190.392 24.608 190.488 24.368C190.584 24.112 190.632 23.984 190.632 23.984C190.552 23.968 190.4 24.016 190.176 24.128C189.952 24.224 189.728 24.384 189.504 24.608C189.264 24.768 189.008 24.968 188.736 25.208C188.464 25.448 188.28 25.584 188.184 25.616C188.024 25.648 187.888 25.704 187.776 25.784C187.664 25.848 187.52 25.944 187.344 26.072C186.832 26.376 186.288 26.632 185.712 26.84C185.152 27.048 184.672 27.144 184.272 27.128C184.048 27.096 183.8 26.96 183.528 26.72C183.256 26.496 183.008 26.304 182.784 26.144C182.704 26.016 182.608 25.896 182.496 25.784C182.4 25.672 182.352 25.544 182.352 25.4C182.224 25.288 182.144 25.008 182.112 24.56C182.08 24.096 182.088 23.584 182.136 23.024C182.184 22.464 182.248 21.976 182.328 21.56C182.424 21.096 182.536 20.68 182.664 20.312C182.792 19.928 182.96 19.528 183.168 19.112C183.376 18.68 183.656 18.176 184.008 17.6C184.36 17.024 184.8 16.32 185.328 15.488C185.424 15.216 185.584 14.928 185.808 14.624C186.048 14.32 186.288 14.048 186.528 13.808C186.768 13.552 186.936 13.384 187.032 13.304C187.096 13.304 187.2 13.24 187.344 13.112C187.488 12.968 187.624 12.832 187.752 12.704C187.896 12.56 187.968 12.488 187.968 12.488C188.592 11.832 189.24 11.344 189.912 11.024C190.6 10.688 191.256 10.36 191.88 10.04C192.216 9.992 192.552 9.968 192.888 9.968C193.224 9.968 193.544 9.992 193.848 10.04C194.168 10.072 194.464 10.112 194.736 10.16C195.024 10.32 195.256 10.512 195.432 10.736C195.608 10.944 195.72 11.128 195.768 11.288C195.832 11.496 195.864 11.648 195.864 11.744C195.864 11.84 195.832 11.928 195.768 12.008C195.672 12.072 195.544 12.2 195.384 12.392C195.24 12.584 195.08 12.648 194.904 12.584C194.2 12.152 193.52 11.984 192.864 12.08C192.224 12.16 191.432 12.528 190.488 13.184C190.248 13.376 189.976 13.616 189.672 13.904C189.368 14.192 189.056 14.504 188.736 14.84C188.416 15.176 188.104 15.504 187.8 15.824C187.512 16.144 187.272 16.424 187.08 16.664C186.456 17.608 185.936 18.536 185.52 19.448C185.12 20.36 184.824 21.128 184.632 21.752C184.536 21.96 184.472 22.216 184.44 22.52C184.408 22.808 184.392 23.096 184.392 23.384C184.408 23.656 184.432 23.896 184.464 24.104C184.496 24.296 184.52 24.408 184.536 24.44C184.712 24.712 184.936 24.848 185.208 24.848C185.496 24.832 185.808 24.736 186.144 24.56C186.496 24.368 186.848 24.144 187.2 23.888C187.568 23.616 187.904 23.36 188.208 23.12C188.368 22.992 188.6 22.84 188.904 22.664C189.224 22.472 189.536 22.272 189.84 22.064C190.144 21.84 190.352 21.648 190.464 21.488C190.816 21.168 191.072 20.928 191.232 20.768C191.392 20.608 191.496 20.488 191.544 20.408C191.592 20.328 191.624 20.256 191.64 20.192C191.672 20.128 191.736 20.032 191.832 19.904C191.896 19.632 191.96 19.432 192.024 19.304C192.104 19.16 192.144 19.088 192.144 19.088C192.16 18.992 192.128 18.928 192.048 18.896C191.968 18.864 191.848 18.832 191.688 18.8C191.576 18.8 191.392 18.792 191.136 18.776C190.88 18.744 190.608 18.712 190.32 18.68C190.048 18.632 189.816 18.592 189.624 18.56C189.432 18.512 189.336 18.464 189.336 18.416C189.336 18.368 189.368 18.248 189.432 18.056C189.496 17.848 189.576 17.632 189.672 17.408C189.672 17.232 189.928 17.088 190.44 16.976C190.952 16.848 191.584 16.8 192.336 16.832C192.944 16.832 193.432 16.92 193.8 17.096C194.168 17.272 194.352 17.592 194.352 18.056C194.448 18.264 194.496 18.448 194.496 18.608C194.512 18.752 194.456 18.984 194.328 19.304C194.216 19.624 194.008 20.16 193.704 20.912C193.016 22.848 192.44 24.376 191.976 25.496C191.512 26.616 191.168 27.2 190.944 27.248Z" fill="white"/>
<path d="M78.2795 54.12C78.0795 54.04 77.8728 53.9533 77.6595 53.86C77.4595 53.7667 77.2662 53.6267 77.0795 53.44C76.9062 53.2667 76.7528 53.02 76.6195 52.7C76.4862 52.3133 76.3928 51.9333 76.3395 51.56C76.2995 51.1867 76.2862 50.7533 76.2995 50.26C76.2995 49.5667 76.3462 48.9667 76.4395 48.46C76.5462 47.94 76.7062 47.4133 76.9195 46.88C76.9462 46.84 76.9928 46.7267 77.0595 46.54C77.1395 46.34 77.2262 46.1267 77.3195 45.9C77.4262 45.6733 77.5062 45.5 77.5595 45.38C77.6662 45.1533 77.8262 44.8533 78.0395 44.48C78.2662 44.0933 78.5062 43.72 78.7595 43.36C79.1462 42.7867 79.4662 42.3333 79.7195 42C79.9728 41.6667 80.2128 41.3867 80.4395 41.16C80.6662 40.9333 80.9195 40.72 81.1995 40.52C81.4928 40.3067 81.8662 40.0467 82.3195 39.74C82.6128 39.5267 82.9328 39.4133 83.2795 39.4C83.6395 39.3867 83.9728 39.4667 84.2795 39.64C84.5862 39.8 84.8128 40.04 84.9595 40.36C85.1062 40.64 85.1795 40.98 85.1795 41.38C85.1795 41.7667 85.1195 42.18 84.9995 42.62C84.8795 43.0467 84.7128 43.4533 84.4995 43.84C84.2862 44.2267 84.0395 44.5467 83.7595 44.8C83.5862 44.96 83.4262 45.02 83.2795 44.98C83.1462 44.94 82.9862 44.8333 82.7995 44.66C82.6795 44.4333 82.6128 44.3 82.5995 44.26C82.5995 44.22 82.6262 44.1933 82.6795 44.18C82.7595 44.0867 82.8662 43.9267 82.9995 43.7C83.1328 43.4733 83.2662 43.2333 83.3995 42.98C83.5328 42.7133 83.6262 42.5 83.6795 42.34C83.7862 41.78 83.8595 41.3867 83.8995 41.16C83.9395 40.92 83.8995 40.74 83.7795 40.62C83.7262 40.5667 83.6462 40.5467 83.5395 40.56C83.4462 40.5733 83.2862 40.64 83.0595 40.76C82.7528 40.8933 82.3528 41.1933 81.8595 41.66C81.3662 42.1133 80.9128 42.62 80.4995 43.18C79.9662 43.8867 79.5195 44.5133 79.1595 45.06C78.7995 45.6067 78.5262 46.1667 78.3395 46.74C78.3128 46.7933 78.2662 46.8933 78.1995 47.04C78.1462 47.1867 78.1195 47.26 78.1195 47.26C78.1328 47.3133 78.1128 47.4467 78.0595 47.66C78.0062 47.86 77.9462 48.0333 77.8795 48.18C77.7328 48.7933 77.6462 49.4333 77.6195 50.1C77.5928 50.7533 77.6262 51.3333 77.7195 51.84C77.8262 52.3467 77.9795 52.7 78.1795 52.9C78.3528 53.02 78.5862 53.06 78.8795 53.02C79.1862 52.98 79.5328 52.8867 79.9195 52.74C80.3062 52.5933 80.6995 52.4333 81.0995 52.26C81.4195 52.1267 81.7128 51.98 81.9795 51.82C82.2462 51.66 82.4462 51.52 82.5795 51.4C82.6862 51.32 82.8195 51.24 82.9795 51.16C83.1528 51.0667 83.2995 51.02 83.4195 51.02C83.6062 50.9533 83.7128 50.9267 83.7395 50.94C83.7662 50.9533 83.7795 51.0133 83.7795 51.12C83.7795 51.3067 83.6728 51.5133 83.4595 51.74C83.2595 51.9667 82.9995 52.1733 82.6795 52.36C82.5728 52.4667 82.4328 52.58 82.2595 52.7C82.0862 52.82 81.9062 52.9133 81.7195 52.98C81.4395 53.1933 81.0928 53.4 80.6795 53.6C80.2662 53.8 79.8462 53.9533 79.4195 54.06C79.0062 54.1667 78.6262 54.1867 78.2795 54.12ZM86.6479 53.5C86.5813 53.5 86.5013 53.4667 86.4079 53.4C86.3146 53.3467 86.2279 53.2733 86.1479 53.18C86.0813 53.0867 86.0479 52.9867 86.0479 52.88C86.0479 52.88 86.0413 52.84 86.0279 52.76C86.0279 52.6667 86.0013 52.5733 85.9479 52.48C85.9479 52.3733 85.9479 52.2533 85.9479 52.12C85.9613 51.9733 85.9946 51.8267 86.0479 51.68C86.0479 51.5333 86.0679 51.3733 86.1079 51.2C86.1479 51.0133 86.1946 50.8733 86.2479 50.78C86.2479 50.6333 86.2813 50.4467 86.3479 50.22C86.4279 49.98 86.4946 49.76 86.5479 49.56C86.6946 49.12 86.8013 48.8 86.8679 48.6C86.9479 48.4 87.0013 48.2533 87.0279 48.16C87.0546 48.0533 87.0679 47.9467 87.0679 47.84C87.1079 47.7333 87.1679 47.54 87.2479 47.26C87.3279 46.98 87.4079 46.6933 87.4879 46.4C87.5813 46.0933 87.6413 45.8733 87.6679 45.74C87.7213 45.6867 87.7479 45.64 87.7479 45.6C87.7613 45.5467 87.7679 45.4933 87.7679 45.44C87.7679 45.44 87.8146 45.2867 87.9079 44.98C88.0013 44.6733 88.1213 44.32 88.2679 43.92C88.5079 43.2133 88.6679 42.7 88.7479 42.38C88.8413 42.06 88.8813 41.8333 88.8679 41.7C88.8679 41.5667 88.8346 41.4333 88.7679 41.3C88.6746 41.1267 88.6746 40.9933 88.7679 40.9C88.8213 40.8467 88.8679 40.7867 88.9079 40.72C88.9479 40.64 88.9679 40.6 88.9679 40.6C88.9679 40.5733 89.0546 40.5267 89.2279 40.46C89.4013 40.3933 89.6146 40.32 89.8679 40.24C90.1213 40.1467 90.3746 40.06 90.6279 39.98C90.8946 39.9 91.1146 39.8333 91.2879 39.78C91.3279 39.78 91.3879 39.78 91.4679 39.78C91.5613 39.78 91.6613 39.78 91.7679 39.78C91.8879 39.78 92.0013 39.78 92.1079 39.78C92.4546 39.8333 92.8079 39.9333 93.1679 40.08C93.5413 40.2267 93.8546 40.4333 94.1079 40.7C94.2679 40.8467 94.4079 41.02 94.5279 41.22C94.6613 41.42 94.8279 41.7467 95.0279 42.2C95.0279 42.2533 95.0413 42.3667 95.068 42.54C95.1079 42.7 95.1279 42.86 95.1279 43.02C95.1279 43.42 95.0279 43.84 94.8279 44.28C94.6279 44.72 94.3413 45.1667 93.9679 45.62C93.5946 46.06 93.1413 46.5 92.6079 46.94C92.0479 47.3933 91.4679 47.7 90.8679 47.86C90.2679 48.02 89.7346 48.0533 89.2679 47.96C89.1746 47.92 89.0879 47.84 89.0079 47.72C88.9413 47.6 88.8946 47.48 88.8679 47.36C88.8413 47.24 88.8479 47.16 88.8879 47.12C88.9946 47.0933 89.1546 47.0867 89.3679 47.1C89.5813 47.1 89.9213 47.0133 90.3879 46.84C90.5346 46.7867 90.6879 46.7267 90.8479 46.66C91.0079 46.58 91.1346 46.5133 91.2279 46.46C91.4946 46.2867 91.8013 46.0533 92.1479 45.76C92.4946 45.4667 92.8146 45.0867 93.1079 44.62C93.2279 44.4333 93.3479 44.2133 93.4679 43.96C93.5879 43.6933 93.6879 43.4267 93.768 43.16C93.8613 42.8933 93.9079 42.6733 93.9079 42.5C94.0146 42.1533 93.9479 41.8667 93.7079 41.64C93.4813 41.4 93.1146 41.2533 92.6079 41.2C92.4479 41.16 92.2013 41.1733 91.8679 41.24C91.5346 41.2933 91.2146 41.3667 90.9079 41.46C90.6013 41.5533 90.3946 41.6333 90.2879 41.7C90.2346 41.7 90.2013 41.74 90.1879 41.82C90.1746 41.9 90.1413 41.9933 90.0879 42.1C90.0879 42.1933 90.0479 42.3933 89.9679 42.7C89.8879 42.9933 89.7946 43.2667 89.6879 43.52C89.5946 43.8133 89.4813 44.14 89.3479 44.5C89.2146 44.8467 89.1213 45.12 89.0679 45.32C89.0146 45.5333 88.9479 45.74 88.8679 45.94C88.8013 46.14 88.7679 46.24 88.7679 46.24C88.7679 46.2933 88.7279 46.4067 88.6479 46.58C88.5813 46.7533 88.5213 46.94 88.4679 47.14C88.4146 47.3933 88.3413 47.68 88.2479 48C88.1679 48.32 88.0746 48.6067 87.9679 48.86C87.8213 49.3533 87.6946 49.8467 87.5879 50.34C87.4813 50.82 87.4746 51.1333 87.5679 51.28C87.7146 51.28 87.7679 51.4 87.7279 51.64C87.6879 51.8667 87.5679 52.18 87.3679 52.58C87.2346 52.9133 87.1346 53.14 87.0679 53.26C87.0013 53.3933 86.9413 53.4667 86.8879 53.48C86.8346 53.4933 86.7546 53.5 86.6479 53.5ZM97.7015 53.48C97.2882 53.4533 96.9215 53.3267 96.6015 53.1C96.2949 52.8733 95.9682 52.64 95.6215 52.4C95.3949 52.1733 95.2149 51.9333 95.0815 51.68C94.9482 51.4133 94.8415 51.0667 94.7615 50.64C94.7082 50.3867 94.7082 50.0667 94.7615 49.68C94.8149 49.2933 94.9015 48.9067 95.0215 48.52C95.1415 48.12 95.2549 47.8 95.3615 47.56C95.5215 47.1867 95.7215 46.7867 95.9615 46.36C96.2149 45.92 96.4615 45.5067 96.7015 45.12C96.9549 44.72 97.1549 44.4 97.3015 44.16C97.3949 44.0667 97.4349 44.02 97.4215 44.02C97.4215 44.0067 97.4215 44 97.4215 44C97.4215 43.9333 97.4882 43.7667 97.6215 43.5C97.7682 43.22 97.8949 42.9733 98.0015 42.76C98.2015 42.5467 98.3149 42.3733 98.3415 42.24C98.3682 42.1067 98.3482 42 98.2815 41.92C98.2549 41.8667 98.3015 41.7733 98.4215 41.64C98.5415 41.5067 98.7215 41.3533 98.9615 41.18C99.2015 41.0067 99.4749 40.8333 99.7815 40.66C100.102 40.4067 100.408 40.2733 100.702 40.26C101.008 40.2333 101.188 40.2933 101.242 40.44C101.242 40.48 101.315 40.4933 101.462 40.48C101.622 40.4533 101.802 40.42 102.002 40.38C102.215 40.3267 102.402 40.2867 102.562 40.26C102.628 40.18 102.782 40.12 103.022 40.08C103.275 40.0267 103.568 39.98 103.902 39.94C104.075 39.9533 104.242 39.96 104.402 39.96C104.575 39.9467 104.715 39.9333 104.822 39.92C104.942 39.9067 105.002 39.9 105.002 39.9C105.095 39.8733 105.202 39.8867 105.322 39.94C105.455 39.9933 105.575 40.14 105.682 40.38C105.775 40.62 105.742 40.8 105.582 40.92C105.435 41.04 105.088 41.1333 104.542 41.2C104.142 41.2533 103.795 41.3 103.502 41.34C103.208 41.3667 102.902 41.4067 102.582 41.46C102.262 41.5 101.868 41.5733 101.402 41.68C101.068 41.7467 100.795 41.8267 100.582 41.92C100.368 42 100.182 42.1267 100.022 42.3C99.8615 42.46 99.6815 42.6933 99.4815 43C99.3882 43.0667 99.2682 43.24 99.1215 43.52C98.9749 43.8 98.8282 44.08 98.6815 44.36C98.3082 44.88 97.9815 45.3333 97.7015 45.72C97.4349 46.0933 97.3282 46.3133 97.3815 46.38C97.3815 46.38 97.4549 46.4 97.6015 46.44C97.7482 46.48 97.8482 46.5 97.9015 46.5C98.0349 46.4333 98.1949 46.3867 98.3815 46.36C98.5815 46.3333 98.7415 46.3067 98.8615 46.28C99.6882 46.0667 100.335 45.9 100.802 45.78C101.282 45.66 101.642 45.5733 101.882 45.52C102.135 45.4533 102.328 45.4133 102.462 45.4C102.648 45.2533 102.828 45.2267 103.002 45.32C103.188 45.4133 103.335 45.56 103.442 45.76C103.508 45.9067 103.508 46.0333 103.442 46.14C103.388 46.2467 103.222 46.3533 102.942 46.46C102.675 46.5667 102.275 46.6933 101.742 46.84C101.208 46.9867 100.508 47.18 99.6415 47.42C98.9082 47.6333 98.2815 47.76 97.7615 47.8C97.2415 47.84 96.9949 47.7267 97.0215 47.46C96.9282 47.4067 96.8215 47.4733 96.7015 47.66C96.5949 47.8333 96.4882 48.0733 96.3815 48.38C96.2749 48.6867 96.1815 49.0133 96.1015 49.36C96.0349 49.7067 95.9882 50.0333 95.9615 50.34C95.9482 50.6333 95.9682 50.8533 96.0215 51C96.1282 51.3067 96.2682 51.5533 96.4415 51.74C96.6149 51.9133 96.9282 52.0667 97.3815 52.2C97.6482 52.2133 97.9082 52.2333 98.1615 52.26C98.4149 52.2867 98.7015 52.2333 99.0215 52.1C99.8082 51.9667 100.428 51.8267 100.882 51.68C101.335 51.5333 101.595 51.4333 101.662 51.38C101.768 51.3267 101.835 51.3 101.862 51.3C101.902 51.2867 101.955 51.28 102.022 51.28C101.982 51.3467 101.995 51.3533 102.062 51.3C102.142 51.2333 102.248 51.1333 102.382 51C102.528 50.8667 102.722 50.74 102.962 50.62C103.202 50.5 103.415 50.4067 103.602 50.34C103.802 50.2733 103.908 50.2733 103.922 50.34C104.002 50.4733 103.988 50.66 103.882 50.9C103.775 51.1267 103.582 51.38 103.302 51.66C103.022 51.9267 102.662 52.1867 102.222 52.44C101.515 52.8133 100.748 53.0733 99.9215 53.22C99.0949 53.38 98.3549 53.4667 97.7015 53.48ZM105.899 56.88C105.712 56.9867 105.579 57.04 105.499 57.04C105.432 57.0533 105.325 56.9867 105.179 56.84C105.059 56.7067 104.965 56.58 104.899 56.46C104.832 56.3533 104.805 56.2133 104.819 56.04C104.845 55.7467 104.905 55.38 104.999 54.94C105.092 54.5 105.192 54.0533 105.299 53.6C105.419 53.1467 105.512 52.7733 105.579 52.48C105.619 52.2933 105.665 52.1867 105.719 52.16C105.785 52.12 105.905 52.1 106.079 52.1C106.292 52.1 106.499 52.1 106.699 52.1C106.912 52.0867 107.119 52.0667 107.319 52.04L107.759 52C107.999 51.7467 108.232 51.5 108.459 51.26C108.699 51.02 108.932 50.7733 109.159 50.52C109.305 50.3467 109.472 50.1267 109.659 49.86C109.859 49.58 110.052 49.3 110.239 49.02C110.425 48.7267 110.579 48.48 110.699 48.28C111.059 47.6933 111.405 47.1267 111.739 46.58C112.072 46.0333 112.412 45.4 112.759 44.68C112.972 44.2533 113.152 43.8067 113.299 43.34C113.459 42.86 113.645 42.4133 113.859 42C114.045 41.68 114.179 41.34 114.259 40.98C114.352 40.6067 114.465 40.2533 114.599 39.92C114.452 39.84 114.099 39.8867 113.539 40.06C112.992 40.22 112.325 40.4733 111.539 40.82C111.312 40.9 111.119 40.8933 110.959 40.8C110.812 40.6933 110.705 40.56 110.639 40.4C110.585 40.2267 110.579 40.0667 110.619 39.92C110.659 39.7733 110.752 39.6933 110.899 39.68C111.045 39.6533 111.179 39.6067 111.299 39.54C111.432 39.4733 111.565 39.42 111.699 39.38C112.005 39.3 112.292 39.22 112.559 39.14C112.839 39.0467 113.139 38.98 113.459 38.94C113.619 38.9133 113.785 38.8867 113.959 38.86C114.145 38.8333 114.312 38.7933 114.459 38.74C114.739 38.66 115.045 38.6467 115.379 38.7C115.712 38.74 116.139 38.78 116.659 38.82C117.219 38.82 117.752 38.9533 118.259 39.22C118.765 39.4733 119.272 39.7067 119.779 39.92C119.859 40.0133 119.945 40.16 120.039 40.36C120.132 40.5467 120.172 40.7067 120.159 40.84C120.159 40.9867 120.105 41.26 119.999 41.66C119.892 42.06 119.752 42.5133 119.579 43.02C119.419 43.5267 119.252 44.0333 119.079 44.54C118.919 45.0333 118.772 45.46 118.639 45.82C118.505 46.18 118.419 46.4133 118.379 46.52C118.352 46.5733 118.305 46.6867 118.239 46.86C118.172 47.0333 118.112 47.2067 118.059 47.38C118.005 47.54 117.972 47.64 117.959 47.68C117.932 47.92 117.885 48.14 117.819 48.34C117.752 48.5267 117.672 48.7333 117.579 48.96C117.419 49.3733 117.259 49.8067 117.099 50.26C116.939 50.7 116.799 51.1467 116.679 51.6C116.959 51.6933 117.245 51.7467 117.539 51.76C117.832 51.7733 118.105 51.8267 118.359 51.92C118.612 52.0133 118.819 52.2333 118.979 52.58C119.032 52.6867 119.019 52.8667 118.939 53.12C118.872 53.3867 118.772 53.6867 118.639 54.02C118.505 54.3533 118.359 54.6867 118.199 55.02C118.052 55.3667 117.912 55.6667 117.779 55.92C117.659 56.1733 117.572 56.3533 117.519 56.46C117.465 56.58 117.385 56.6667 117.279 56.72C117.185 56.7733 117.065 56.7733 116.919 56.72L116.379 56.24C116.299 56.04 116.319 55.7867 116.439 55.48C116.572 55.1867 116.732 54.88 116.919 54.56C117.105 54.24 117.272 53.9267 117.419 53.62C117.579 53.3267 117.645 53.08 117.619 52.88C117.379 52.84 117.132 52.8333 116.879 52.86C116.639 52.8733 116.399 52.84 116.159 52.76C116.132 52.7467 116.099 52.74 116.059 52.74C116.019 52.74 115.979 52.74 115.939 52.74C115.299 52.74 114.785 52.74 114.399 52.74C114.025 52.74 113.725 52.74 113.499 52.74C113.285 52.7267 113.092 52.7267 112.919 52.74C112.759 52.74 112.572 52.7533 112.359 52.78C112.145 52.7933 111.859 52.8133 111.499 52.84C111.379 52.8533 111.259 52.8533 111.139 52.84C111.019 52.8267 110.905 52.8333 110.799 52.86C110.545 52.9267 110.285 52.9733 110.019 53C109.752 53.0267 109.465 53.04 109.159 53.04C108.892 53.0533 108.659 53.06 108.459 53.06C108.272 53.0733 108.105 53.0933 107.959 53.12C107.759 53.16 107.559 53.2067 107.359 53.26C107.159 53.3267 106.952 53.3733 106.739 53.4C106.579 53.8133 106.445 54.24 106.339 54.68C106.232 55.12 106.132 55.5533 106.039 55.98C105.999 56.1267 105.979 56.2733 105.979 56.42C105.992 56.5667 105.965 56.72 105.899 56.88ZM109.799 51.78C109.839 51.78 110.012 51.7733 110.319 51.76C110.625 51.7467 110.965 51.7333 111.339 51.72C111.725 51.6933 112.065 51.6733 112.359 51.66C112.652 51.6467 112.805 51.6467 112.819 51.66C112.859 51.6333 112.992 51.6133 113.219 51.6C113.445 51.5867 113.699 51.58 113.979 51.58C114.259 51.5667 114.525 51.56 114.779 51.56C115.032 51.56 115.212 51.56 115.319 51.56C115.412 51.36 115.485 51.1533 115.539 50.94C115.605 50.7133 115.672 50.4933 115.739 50.28C115.832 49.9733 115.932 49.6733 116.039 49.38C116.145 49.0733 116.245 48.7733 116.339 48.48C116.565 47.8 116.805 47.16 117.059 46.56C117.325 45.9467 117.559 45.24 117.759 44.44C117.799 44.2533 117.859 44.0733 117.939 43.9C118.032 43.7133 118.105 43.5267 118.159 43.34L118.459 42.32C118.525 42.1333 118.572 41.94 118.599 41.74C118.625 41.5267 118.672 41.34 118.739 41.18C118.805 41.0467 118.819 40.9133 118.779 40.78C118.752 40.6467 118.719 40.5133 118.679 40.38C118.385 40.22 118.065 40.08 117.719 39.96C117.385 39.8267 117.045 39.76 116.699 39.76C116.565 39.76 116.412 39.7333 116.239 39.68C116.065 39.6267 115.932 39.66 115.839 39.78C115.879 39.9267 115.899 40.0333 115.899 40.1C115.912 40.1667 115.892 40.2733 115.839 40.42C115.745 40.74 115.605 41.1467 115.419 41.64C115.232 42.12 115.019 42.64 114.779 43.2C114.539 43.7467 114.299 44.2867 114.059 44.82C113.819 45.34 113.592 45.8067 113.379 46.22C113.179 46.62 113.019 46.9067 112.899 47.08C112.739 47.3067 112.585 47.54 112.439 47.78C112.305 48.02 112.165 48.26 112.019 48.5C112.019 48.5133 111.939 48.6333 111.779 48.86C111.632 49.0733 111.445 49.34 111.219 49.66C111.005 49.98 110.785 50.3 110.559 50.62C110.345 50.94 110.165 51.2133 110.019 51.44C109.872 51.6533 109.799 51.7667 109.799 51.78ZM121.619 54.66C121.619 54.66 121.599 54.6467 121.559 54.62C121.519 54.6067 121.466 54.5933 121.399 54.58C121.346 54.5667 121.279 54.56 121.199 54.56C120.986 54.5067 120.832 54.3867 120.739 54.2C120.646 54.0267 120.626 53.8333 120.679 53.62C120.732 53.5667 120.772 53.4533 120.799 53.28C120.826 53.1067 120.839 52.9667 120.839 52.86C120.892 52.7533 120.926 52.68 120.939 52.64C120.952 52.5867 120.986 52.4533 121.039 52.24C121.079 52.0133 121.146 51.7 121.239 51.3C121.346 50.8867 121.459 50.4467 121.579 49.98C121.712 49.5133 121.839 49.0667 121.959 48.64C122.079 48.2133 122.186 47.8533 122.279 47.56C122.386 47.2667 122.459 47.1 122.499 47.06C122.499 47.06 122.499 47.04 122.499 47C122.499 46.9467 122.499 46.8933 122.499 46.84C122.499 46.84 122.506 46.78 122.519 46.66C122.546 46.5267 122.612 46.38 122.719 46.22C122.772 46.0733 122.819 45.9133 122.859 45.74C122.899 45.5667 122.919 45.4533 122.919 45.4C122.972 45.3333 123.046 45.1733 123.139 44.92C123.246 44.6533 123.346 44.3933 123.439 44.14C123.519 43.9267 123.606 43.7 123.699 43.46C123.806 43.22 123.892 43.0133 123.959 42.84C124.039 42.6667 124.079 42.58 124.079 42.58C124.079 42.5267 124.079 42.5 124.079 42.5C124.079 42.4867 124.079 42.48 124.079 42.48C124.132 42.4267 124.259 42.16 124.459 41.68C124.672 41.1867 124.959 40.5533 125.319 39.78C125.372 39.6733 125.439 39.5533 125.519 39.42C125.599 39.2867 125.639 39.1933 125.639 39.14C125.706 39.0333 125.799 38.9867 125.919 39C126.039 39 126.159 39.04 126.279 39.12C126.412 39.2 126.512 39.3133 126.579 39.46L126.779 39.78L126.059 41.22C125.846 41.5933 125.666 41.9333 125.519 42.24C125.386 42.5467 125.319 42.7267 125.319 42.78C125.319 42.78 125.279 42.8867 125.199 43.1C125.119 43.3133 125.026 43.5667 124.919 43.86C124.812 44.1533 124.719 44.42 124.639 44.66C124.492 45.0733 124.352 45.4133 124.219 45.68C124.099 45.9467 124.039 46.1067 124.039 46.16C124.039 46.1333 124.186 46.1133 124.479 46.1C124.772 46.0867 125.146 46.08 125.599 46.08C126.052 46.08 126.512 46.08 126.979 46.08C127.459 46.0667 127.879 46.06 128.239 46.06C128.612 46.0467 128.866 46.0267 128.999 46L130.039 45.9L130.719 43.84C130.826 43.4667 130.966 43.0133 131.139 42.48C131.312 41.9467 131.466 41.4933 131.599 41.12C131.812 40.5067 131.979 40.1267 132.099 39.98C132.219 39.8333 132.359 39.76 132.519 39.76C132.559 39.76 132.612 39.7733 132.679 39.8C132.759 39.8133 132.832 39.8467 132.899 39.9C132.979 39.94 133.032 40 133.059 40.08C133.219 40.2267 133.292 40.3933 133.279 40.58C133.279 40.7667 133.172 41.0133 132.959 41.32C132.746 41.68 132.566 42.0733 132.419 42.5C132.286 42.9133 132.166 43.2533 132.059 43.52C132.059 43.68 132.039 43.8133 131.999 43.92C131.959 44.0133 131.912 44.0867 131.859 44.14C131.832 44.1667 131.779 44.2667 131.699 44.44C131.619 44.6133 131.546 44.7867 131.479 44.96C131.412 45.1333 131.379 45.24 131.379 45.28C131.379 45.3733 131.359 45.4867 131.319 45.62C131.279 45.7533 131.232 45.8467 131.179 45.9C131.152 45.98 131.092 46.18 130.999 46.5C130.906 46.82 130.799 47.2 130.679 47.64C130.559 48.0667 130.432 48.4867 130.299 48.9C130.166 49.3 130.046 49.6333 129.939 49.9C129.939 49.9933 129.906 50.1133 129.839 50.26C129.772 50.3933 129.739 50.5133 129.739 50.62C129.686 50.78 129.619 50.98 129.539 51.22C129.459 51.46 129.419 51.6133 129.419 51.68C129.352 51.9867 129.279 52.3 129.199 52.62C129.132 52.94 129.072 53.2133 129.019 53.44C128.979 53.68 128.959 53.82 128.959 53.86C128.906 53.9133 128.826 53.92 128.719 53.88C128.612 53.84 128.486 53.7933 128.339 53.74C128.086 53.5933 127.932 53.4333 127.879 53.26C127.839 53.1 127.892 52.8667 128.039 52.56C128.106 52.4533 128.186 52.1933 128.279 51.78C128.386 51.3533 128.492 50.9333 128.599 50.52C128.679 50.32 128.766 50.0533 128.859 49.72C128.952 49.3733 129.046 49.0267 129.139 48.68C129.232 48.32 129.312 48.02 129.379 47.78C129.446 47.5267 129.492 47.3867 129.519 47.36C129.519 47.3067 129.519 47.26 129.519 47.22C129.519 47.18 129.519 47.16 129.519 47.16C129.492 47.1333 129.326 47.1133 129.019 47.1C128.712 47.0733 128.332 47.0667 127.879 47.08C127.426 47.08 126.952 47.0933 126.459 47.12C125.979 47.1333 125.546 47.1667 125.159 47.22C125.012 47.22 124.846 47.22 124.659 47.22C124.472 47.22 124.326 47.22 124.219 47.22C124.072 47.22 123.946 47.22 123.839 47.22C123.746 47.22 123.699 47.22 123.699 47.22C123.686 47.26 123.639 47.4 123.559 47.64C123.479 47.88 123.386 48.1733 123.279 48.52C123.172 48.8533 123.059 49.2 122.939 49.56C122.832 49.9067 122.739 50.2267 122.659 50.52C122.592 50.8 122.546 51 122.519 51.12C122.466 51.36 122.392 51.66 122.299 52.02C122.219 52.38 122.126 52.7467 122.019 53.12C121.926 53.5067 121.839 53.84 121.759 54.12C121.692 54.4 121.646 54.58 121.619 54.66ZM141.688 53.8C141.608 53.8 141.501 53.7733 141.368 53.72C141.235 53.6667 141.095 53.6 140.948 53.52C140.815 53.4533 140.695 53.3733 140.588 53.28C140.495 53.1867 140.448 53.1 140.448 53.02C140.448 52.94 140.441 52.86 140.428 52.78C140.415 52.6867 140.421 52.6 140.448 52.52C140.515 52.3067 140.575 52.1 140.628 51.9C140.695 51.7 140.748 51.4933 140.788 51.28C140.895 50.6533 141.028 50.0333 141.188 49.42C141.361 48.8067 141.528 48.1933 141.688 47.58C141.728 47.42 141.808 47.1333 141.928 46.72C142.061 46.2933 142.208 45.8133 142.368 45.28C142.528 44.7333 142.681 44.2 142.828 43.68C142.988 43.16 143.115 42.72 143.208 42.36C143.301 41.9867 143.335 41.7667 143.308 41.7C143.255 41.66 143.215 41.6533 143.188 41.68C143.175 41.7067 143.155 41.7333 143.128 41.76C142.821 42.1733 142.508 42.5933 142.188 43.02C141.868 43.4333 141.548 43.8467 141.228 44.26C140.881 44.7133 140.521 45.16 140.148 45.6C139.775 46.04 139.401 46.4867 139.028 46.94C138.775 47.26 138.521 47.5933 138.268 47.94C138.015 48.2733 137.755 48.5933 137.488 48.9C137.301 49.1133 137.128 49.3333 136.968 49.56C136.808 49.7867 136.635 50.0067 136.448 50.22C136.248 50.46 136.028 50.72 135.788 51C135.548 51.28 135.301 51.5667 135.048 51.86C134.808 52.14 134.561 52.4133 134.308 52.68C134.068 52.9333 133.828 53.16 133.588 53.36C133.495 53.44 133.361 53.4867 133.188 53.5C133.028 53.5133 132.875 53.48 132.728 53.4C132.581 53.3333 132.501 53.22 132.488 53.06C132.475 52.7667 132.501 52.42 132.568 52.02C132.648 51.62 132.741 51.22 132.848 50.82C132.955 50.4067 133.055 50.06 133.148 49.78C133.188 49.6333 133.235 49.4933 133.288 49.36C133.341 49.2133 133.388 49.0667 133.428 48.92C133.441 48.84 133.455 48.76 133.468 48.68C133.495 48.6 133.521 48.52 133.548 48.44C133.641 48.24 133.708 48.0533 133.748 47.88C133.788 47.7067 133.808 47.5133 133.808 47.3C133.821 47.22 133.855 47.1 133.908 46.94C133.961 46.78 134.021 46.6133 134.088 46.44C134.155 46.2667 134.201 46.1333 134.228 46.04C134.295 45.84 134.355 45.64 134.408 45.44C134.475 45.2267 134.555 45.0267 134.648 44.84C134.675 44.8 134.688 44.7733 134.688 44.76C134.688 44.7467 134.695 44.72 134.708 44.68C134.775 44.2667 134.868 43.9467 134.988 43.72C135.121 43.48 135.255 43.1933 135.388 42.86L135.408 42.74C135.461 42.5933 135.508 42.4733 135.548 42.38C135.601 42.2733 135.655 42.1533 135.708 42.02C135.735 41.9533 135.721 41.9133 135.668 41.9C135.628 41.8733 135.635 41.8333 135.688 41.78C135.795 41.6467 135.835 41.5733 135.808 41.56C135.781 41.5467 135.788 41.4867 135.828 41.38C135.921 41.26 136.015 41.08 136.108 40.84C136.215 40.6 136.315 40.3533 136.408 40.1C136.501 39.8333 136.575 39.6333 136.628 39.5C136.655 39.4067 136.688 39.3467 136.728 39.32C136.768 39.28 136.835 39.24 136.928 39.2C137.141 39.1067 137.321 39.0933 137.468 39.16C137.615 39.2267 137.721 39.3333 137.788 39.48C137.855 39.6267 137.881 39.7867 137.868 39.96C137.868 40.12 137.828 40.26 137.748 40.38C137.721 40.42 137.701 40.46 137.688 40.5C137.688 40.5267 137.675 40.5667 137.648 40.62C137.595 40.8467 137.515 41.0667 137.408 41.28C137.301 41.48 137.201 41.6933 137.108 41.92C137.028 42.1067 136.901 42.4267 136.728 42.88C136.568 43.3333 136.381 43.8667 136.168 44.48C135.955 45.08 135.741 45.7067 135.528 46.36C135.315 47 135.115 47.62 134.928 48.22C134.741 48.8067 134.595 49.32 134.488 49.76C134.381 50.1867 134.335 50.48 134.348 50.64C134.521 50.4533 134.688 50.2667 134.848 50.08C135.008 49.88 135.161 49.6867 135.308 49.5C135.695 49.0067 136.101 48.5267 136.528 48.06C136.955 47.58 137.355 47.0933 137.728 46.6C137.941 46.3067 138.168 46.0267 138.408 45.76C138.661 45.4933 138.895 45.2133 139.108 44.92C139.255 44.7333 139.401 44.5533 139.548 44.38C139.708 44.2067 139.855 44.0267 139.988 43.84C140.401 43.2933 140.835 42.76 141.288 42.24C141.741 41.7067 142.181 41.1733 142.608 40.64C142.715 40.5067 142.881 40.3267 143.108 40.1C143.335 39.8733 143.568 39.66 143.808 39.46C144.048 39.2467 144.241 39.1067 144.388 39.04C144.561 38.96 144.728 38.98 144.888 39.1C145.048 39.2067 145.195 39.32 145.328 39.44C145.515 39.6267 145.568 39.8533 145.488 40.12C145.461 40.1867 145.428 40.26 145.388 40.34C145.348 40.4067 145.315 40.4733 145.288 40.54C145.168 40.7667 145.061 41 144.968 41.24C144.875 41.4667 144.788 41.7 144.708 41.94C144.628 42.18 144.555 42.4267 144.488 42.68C144.475 42.7733 144.455 42.88 144.428 43C144.401 43.12 144.368 43.2333 144.328 43.34C144.235 43.5533 144.115 43.7867 143.968 44.04C143.835 44.28 143.775 44.5333 143.788 44.8C143.788 44.96 143.755 45.1067 143.688 45.24C143.568 45.48 143.481 45.7333 143.428 46C143.375 46.2667 143.315 46.5333 143.248 46.8C143.141 47.2267 143.028 47.6533 142.908 48.08C142.801 48.5067 142.688 48.9333 142.568 49.36C142.448 49.7867 142.328 50.2133 142.208 50.64C142.075 51.1467 141.975 51.6733 141.908 52.22C141.841 52.7533 141.768 53.28 141.688 53.8ZM152.234 54.58C151.994 54.4867 151.794 54.36 151.634 54.2C151.488 54.04 151.441 53.8267 151.494 53.56C151.494 53.56 151.548 53.4333 151.654 53.18C151.761 52.94 151.888 52.64 152.034 52.28C152.194 51.9067 152.348 51.54 152.494 51.18C152.641 50.82 152.768 50.52 152.874 50.28C152.981 50.0267 153.034 49.9 153.034 49.9C153.128 49.66 153.254 49.3333 153.414 48.92C153.588 48.5067 153.754 48.0867 153.914 47.66C154.088 47.22 154.234 46.84 154.354 46.52C154.474 46.2 154.534 46.02 154.534 45.98C154.681 45.6467 154.808 45.3067 154.914 44.96C155.021 44.6133 155.154 44.28 155.314 43.96C155.434 43.6933 155.541 43.4533 155.634 43.24C155.728 43.0133 155.774 42.8133 155.774 42.64C155.774 42.64 155.634 42.7867 155.354 43.08C155.088 43.3733 154.728 43.7667 154.274 44.26C153.821 44.74 153.321 45.2733 152.774 45.86C152.241 46.4333 151.701 47.0133 151.154 47.6C150.621 48.1867 150.128 48.7267 149.674 49.22C149.221 49.7 148.854 50.0867 148.574 50.38C148.294 50.6733 148.154 50.82 148.154 50.82C147.861 51.0467 147.588 51.2933 147.334 51.56C147.094 51.8133 146.828 52.0533 146.534 52.28C146.414 52.3733 146.268 52.4933 146.094 52.64C145.921 52.7733 145.754 52.8933 145.594 53C145.434 53.12 145.314 53.18 145.234 53.18C144.848 53.1133 144.601 53.0067 144.494 52.86C144.388 52.7 144.368 52.5067 144.434 52.28C144.501 52.04 144.594 51.76 144.714 51.44C144.781 51.2267 144.841 51.0133 144.894 50.8C144.961 50.5733 145.008 50.3533 145.034 50.14C145.128 49.74 145.228 49.3667 145.334 49.02C145.441 48.6733 145.541 48.34 145.634 48.02C145.728 47.7133 145.821 47.4067 145.914 47.1C146.008 46.78 146.061 46.4533 146.074 46.12C146.234 45.8533 146.368 45.5933 146.474 45.34C146.581 45.0733 146.681 44.8067 146.774 44.54C146.868 44.2733 146.974 44.0067 147.094 43.74C147.241 43.42 147.361 43.0933 147.454 42.76C147.561 42.4133 147.688 42.0733 147.834 41.74C147.928 41.5533 148.054 41.3067 148.214 41C148.374 40.6933 148.521 40.38 148.654 40.06C148.801 39.74 148.874 39.4667 148.874 39.24C148.874 39.0933 148.928 39.0133 149.034 39C149.141 38.9867 149.261 39.0067 149.394 39.06C149.528 39.1133 149.641 39.18 149.734 39.26C149.841 39.34 149.901 39.4 149.914 39.44C149.954 39.56 149.981 39.6867 149.994 39.82C150.021 39.9533 150.001 40.0933 149.934 40.24L148.274 44.46L146.454 49.28C146.294 49.8 146.201 50.2067 146.174 50.5C146.161 50.7933 146.248 50.8933 146.434 50.8L150.474 46.76C150.701 46.52 150.921 46.2733 151.134 46.02C151.361 45.7533 151.574 45.4933 151.774 45.24C151.828 45.2133 151.961 45.08 152.174 44.84C152.401 44.6 152.661 44.3133 152.954 43.98C153.248 43.6467 153.528 43.3333 153.794 43.04C154.061 42.7333 154.261 42.5067 154.394 42.36L156.934 39.66L157.314 39.54C157.434 39.5267 157.554 39.5667 157.674 39.66C157.794 39.7533 157.881 39.8733 157.934 40.02C158.001 40.1667 158.001 40.32 157.934 40.48C157.934 40.48 157.868 40.6533 157.734 41C157.614 41.3467 157.454 41.7933 157.254 42.34C157.054 42.8733 156.841 43.44 156.614 44.04C156.401 44.64 156.194 45.2067 155.994 45.74C155.794 46.2733 155.628 46.7133 155.494 47.06C155.374 47.3933 155.308 47.56 155.294 47.56C155.308 47.52 155.261 47.6267 155.154 47.88C155.061 48.1333 154.934 48.4667 154.774 48.88C154.614 49.2933 154.448 49.72 154.274 50.16C154.101 50.5867 153.948 50.9667 153.814 51.3C153.694 51.6333 153.621 51.8467 153.594 51.94C153.541 52.1133 153.474 52.2867 153.394 52.46C153.328 52.62 153.254 52.78 153.174 52.94C153.081 53.1133 153.001 53.2933 152.934 53.48C152.881 53.68 152.834 53.8733 152.794 54.06C152.754 54.2067 152.674 54.34 152.554 54.46C152.434 54.5933 152.328 54.6333 152.234 54.58ZM153.334 38.52C152.841 38.5733 152.428 38.4533 152.094 38.16C151.761 37.8667 151.501 37.4333 151.314 36.86C151.288 36.7533 151.281 36.66 151.294 36.58C151.308 36.4867 151.334 36.4067 151.374 36.34C151.401 36.2867 151.461 36.2467 151.554 36.22C151.661 36.18 151.741 36.1733 151.794 36.2C152.008 36.28 152.168 36.3667 152.274 36.46C152.394 36.5533 152.468 36.6733 152.494 36.82C152.534 36.8867 152.554 36.9533 152.554 37.02C152.568 37.0867 152.574 37.1133 152.574 37.1C152.654 37.3133 152.754 37.46 152.874 37.54C152.994 37.62 153.181 37.6133 153.434 37.52C153.701 37.4267 153.961 37.32 154.214 37.2C154.481 37.08 154.721 36.9333 154.934 36.76C155.121 36.6133 155.294 36.48 155.454 36.36C155.614 36.24 155.781 36.1133 155.954 35.98L155.974 35.96C156.041 35.92 156.121 35.9067 156.214 35.92C156.308 35.9333 156.361 35.9533 156.374 35.98C156.481 36.0733 156.534 36.1667 156.534 36.26C156.548 36.3533 156.554 36.4533 156.554 36.56L156.534 36.6C156.561 36.68 156.481 36.8333 156.294 37.06C156.108 37.2733 155.888 37.4667 155.634 37.64C155.421 37.7867 155.181 37.92 154.914 38.04C154.661 38.16 154.401 38.2733 154.134 38.38C154.041 38.4333 153.928 38.4667 153.794 38.48C153.674 38.48 153.521 38.4933 153.334 38.52ZM170.235 46.68C170.195 46.7733 170.042 46.8467 169.775 46.9C169.508 46.9533 169.082 47.0133 168.495 47.08C168.322 47.0933 168.062 47.1067 167.715 47.12C167.382 47.1333 167.015 47.1467 166.615 47.16C166.228 47.1733 165.875 47.18 165.555 47.18C165.235 47.1667 165.015 47.1467 164.895 47.12C164.895 47.12 164.862 47.1533 164.795 47.22C164.742 47.2867 164.715 47.3733 164.715 47.48C164.622 47.64 164.502 47.8867 164.355 48.22C164.222 48.5533 164.068 48.92 163.895 49.32C163.735 49.72 163.582 50.12 163.435 50.52C163.302 50.92 163.188 51.2667 163.095 51.56C163.002 51.8533 162.955 52.0533 162.955 52.16C162.835 52.48 162.762 52.7533 162.735 52.98C162.708 53.2067 162.662 53.34 162.595 53.38C162.582 53.4333 162.495 53.4467 162.335 53.42C162.175 53.3933 162.042 53.32 161.935 53.2C161.775 53.08 161.682 52.9733 161.655 52.88C161.642 52.7733 161.682 52.5733 161.775 52.28C161.815 52.1067 161.882 51.8533 161.975 51.52C162.082 51.1733 162.195 50.7933 162.315 50.38C162.448 49.9667 162.582 49.5667 162.715 49.18C162.862 48.78 163.002 48.4533 163.135 48.2C163.282 47.9467 163.375 47.72 163.415 47.52C163.455 47.3067 163.508 47.1133 163.575 46.94C163.562 46.7933 163.562 46.6933 163.575 46.64C163.588 46.5867 163.642 46.5067 163.735 46.4C163.802 46.3467 163.882 46.2533 163.975 46.12C164.082 45.9733 164.202 45.7533 164.335 45.46C164.375 45.3267 164.435 45.1467 164.515 44.92C164.608 44.68 164.695 44.44 164.775 44.2C164.855 43.9467 164.928 43.7333 164.995 43.56C165.062 43.3867 165.095 43.2933 165.095 43.28C165.122 43.2267 165.162 43.1267 165.215 42.98C165.268 42.82 165.308 42.6933 165.335 42.6C165.388 42.4133 165.428 42.26 165.455 42.14C165.495 42.02 165.488 41.96 165.435 41.96C165.328 41.9867 165.115 42.0067 164.795 42.02C164.635 42.0467 164.515 42.0667 164.435 42.08C164.368 42.08 164.308 42.0867 164.255 42.1C164.122 42.1133 164.002 42.1 163.895 42.06C163.788 42.02 163.735 41.94 163.735 41.82C163.762 41.6067 163.835 41.4333 163.955 41.3C164.088 41.1533 164.255 41.0733 164.455 41.06C164.548 41.0333 164.648 41.0133 164.755 41C164.875 40.9733 165.035 40.9333 165.235 40.88C165.488 40.8267 165.682 40.7867 165.815 40.76C165.962 40.72 166.075 40.7133 166.155 40.74C166.222 40.7 166.282 40.66 166.335 40.62C166.388 40.5667 166.415 40.5133 166.415 40.46C166.415 40.3933 166.442 40.3467 166.495 40.32C166.562 40.28 166.635 40.26 166.715 40.26C166.795 40.2467 166.875 40.2533 166.955 40.28C167.048 40.3067 167.115 40.3533 167.155 40.42C167.182 40.46 167.242 40.4933 167.335 40.52C167.428 40.5467 167.595 40.5467 167.835 40.52C168.088 40.48 168.442 40.4133 168.895 40.32C169.135 40.2933 169.435 40.2667 169.795 40.24C170.168 40.2133 170.462 40.2333 170.675 40.3C170.902 40.26 171.102 40.2467 171.275 40.26C171.462 40.26 171.588 40.2333 171.655 40.18C171.935 40.2333 172.135 40.2733 172.255 40.3C172.388 40.3133 172.495 40.3533 172.575 40.42C172.628 40.4733 172.642 40.5267 172.615 40.58C172.602 40.62 172.595 40.64 172.595 40.64C172.542 40.6133 172.548 40.62 172.615 40.66C172.682 40.6867 172.728 40.7133 172.755 40.74C172.848 40.78 172.908 40.8333 172.935 40.9C172.962 40.9533 172.975 41.0067 172.975 41.06C172.975 41.1133 172.968 41.16 172.955 41.2C172.942 41.32 172.875 41.3933 172.755 41.42C172.635 41.4333 172.335 41.4333 171.855 41.42C171.282 41.34 170.715 41.3133 170.155 41.34C169.608 41.3533 168.968 41.4133 168.235 41.52C167.968 41.5333 167.728 41.5733 167.515 41.64C167.315 41.6933 167.202 41.72 167.175 41.72C167.122 41.72 167.028 41.8133 166.895 42C166.762 42.1733 166.635 42.4333 166.515 42.78C166.462 42.8733 166.368 43.0867 166.235 43.42C166.102 43.7533 165.955 44.1133 165.795 44.5C165.648 44.8867 165.515 45.2267 165.395 45.52C165.288 45.8133 165.222 45.9733 165.195 46C165.382 46.0533 165.682 46.08 166.095 46.08C166.522 46.08 166.988 46.0667 167.495 46.04C168.015 46 168.488 45.96 168.915 45.92C169.115 45.88 169.322 45.8467 169.535 45.82C169.762 45.78 169.908 45.7733 169.975 45.8C170.042 45.84 170.102 45.92 170.155 46.04C170.208 46.1467 170.242 46.26 170.255 46.38C170.282 46.5 170.275 46.6 170.235 46.68ZM172.097 53.5C172.031 53.5 171.951 53.4667 171.857 53.4C171.764 53.3467 171.677 53.2733 171.597 53.18C171.531 53.0867 171.497 52.9867 171.497 52.88C171.497 52.88 171.491 52.84 171.477 52.76C171.477 52.6667 171.451 52.5733 171.397 52.48C171.397 52.3733 171.397 52.2533 171.397 52.12C171.411 51.9733 171.444 51.8267 171.497 51.68C171.497 51.5333 171.517 51.3733 171.557 51.2C171.597 51.0133 171.644 50.8733 171.697 50.78C171.697 50.6333 171.731 50.4467 171.797 50.22C171.877 49.98 171.944 49.76 171.997 49.56C172.144 49.12 172.251 48.8 172.317 48.6C172.397 48.4 172.451 48.2533 172.477 48.16C172.504 48.0533 172.517 47.9467 172.517 47.84C172.557 47.7333 172.617 47.54 172.697 47.26C172.777 46.98 172.857 46.6933 172.937 46.4C173.031 46.0933 173.091 45.8733 173.117 45.74C173.171 45.6867 173.197 45.64 173.197 45.6C173.211 45.5467 173.217 45.4933 173.217 45.44C173.217 45.44 173.264 45.2867 173.357 44.98C173.451 44.6733 173.571 44.32 173.717 43.92C173.957 43.2133 174.117 42.7 174.197 42.38C174.291 42.06 174.331 41.8333 174.317 41.7C174.317 41.5667 174.284 41.4333 174.217 41.3C174.124 41.1267 174.124 40.9933 174.217 40.9C174.271 40.8467 174.317 40.7867 174.357 40.72C174.397 40.64 174.417 40.6 174.417 40.6C174.417 40.5733 174.504 40.5267 174.677 40.46C174.851 40.3933 175.064 40.32 175.317 40.24C175.571 40.1467 175.824 40.06 176.077 39.98C176.344 39.9 176.564 39.8333 176.737 39.78C176.777 39.78 176.837 39.78 176.917 39.78C177.011 39.78 177.111 39.78 177.217 39.78C177.337 39.78 177.451 39.78 177.557 39.78C177.904 39.8333 178.257 39.9333 178.617 40.08C178.991 40.2267 179.304 40.4333 179.557 40.7C179.717 40.8467 179.857 41.02 179.977 41.22C180.111 41.42 180.277 41.7467 180.477 42.2C180.477 42.2533 180.491 42.3667 180.517 42.54C180.557 42.7 180.577 42.86 180.577 43.02C180.577 43.42 180.477 43.84 180.277 44.28C180.077 44.72 179.791 45.1667 179.417 45.62C179.044 46.06 178.591 46.5 178.057 46.94C177.497 47.3933 176.917 47.7 176.317 47.86C175.717 48.02 175.184 48.0533 174.717 47.96C174.624 47.92 174.537 47.84 174.457 47.72C174.391 47.6 174.344 47.48 174.317 47.36C174.291 47.24 174.297 47.16 174.337 47.12C174.444 47.0933 174.604 47.0867 174.817 47.1C175.031 47.1 175.371 47.0133 175.837 46.84C175.984 46.7867 176.137 46.7267 176.297 46.66C176.457 46.58 176.584 46.5133 176.677 46.46C176.944 46.2867 177.251 46.0533 177.597 45.76C177.944 45.4667 178.264 45.0867 178.557 44.62C178.677 44.4333 178.797 44.2133 178.917 43.96C179.037 43.6933 179.137 43.4267 179.217 43.16C179.311 42.8933 179.357 42.6733 179.357 42.5C179.464 42.1533 179.397 41.8667 179.157 41.64C178.931 41.4 178.564 41.2533 178.057 41.2C177.897 41.16 177.651 41.1733 177.317 41.24C176.984 41.2933 176.664 41.3667 176.357 41.46C176.051 41.5533 175.844 41.6333 175.737 41.7C175.684 41.7 175.651 41.74 175.637 41.82C175.624 41.9 175.591 41.9933 175.537 42.1C175.537 42.1933 175.497 42.3933 175.417 42.7C175.337 42.9933 175.244 43.2667 175.137 43.52C175.044 43.8133 174.931 44.14 174.797 44.5C174.664 44.8467 174.571 45.12 174.517 45.32C174.464 45.5333 174.397 45.74 174.317 45.94C174.251 46.14 174.217 46.24 174.217 46.24C174.217 46.2933 174.177 46.4067 174.097 46.58C174.031 46.7533 173.971 46.94 173.917 47.14C173.864 47.3933 173.791 47.68 173.697 48C173.617 48.32 173.524 48.6067 173.417 48.86C173.271 49.3533 173.144 49.8467 173.037 50.34C172.931 50.82 172.924 51.1333 173.017 51.28C173.164 51.28 173.217 51.4 173.177 51.64C173.137 51.8667 173.017 52.18 172.817 52.58C172.684 52.9133 172.584 53.14 172.517 53.26C172.451 53.3933 172.391 53.4667 172.337 53.48C172.284 53.4933 172.204 53.5 172.097 53.5ZM185.16 53.42C184.613 53.5533 184.047 53.5467 183.46 53.4C182.887 53.2533 182.38 52.9933 181.94 52.62C181.5 52.2467 181.193 51.7933 181.02 51.26C180.967 51.1133 180.92 50.98 180.88 50.86C180.853 50.74 180.867 50.68 180.92 50.68C181.053 50.68 181.06 50.6133 180.94 50.48C180.9 50.4267 180.88 50.34 180.88 50.22C180.893 50.1 180.92 49.9867 180.96 49.88C181.013 49.7733 181.073 49.72 181.14 49.72C181.233 49.72 181.333 49.7533 181.44 49.82C181.547 49.8867 181.627 49.96 181.68 50.04C181.747 50.1067 181.753 50.16 181.7 50.2C181.7 50.2 181.727 50.2733 181.78 50.42C181.833 50.5533 181.847 50.7133 181.82 50.9C181.94 51.1 182.04 51.2667 182.12 51.4C182.2 51.52 182.367 51.6533 182.62 51.8C182.793 51.9333 182.947 52.0333 183.08 52.1C183.213 52.1667 183.447 52.2067 183.78 52.22C183.993 52.22 184.167 52.1933 184.3 52.14C184.433 52.0867 184.553 51.9933 184.66 51.86C184.78 51.7267 184.92 51.5467 185.08 51.32C185.12 51.0667 185.067 50.66 184.92 50.1C184.787 49.54 184.587 48.8867 184.32 48.14C184.053 47.38 183.733 46.5867 183.36 45.76C183.28 45.6133 183.207 45.46 183.14 45.3C183.087 45.14 183.06 45.06 183.06 45.06C183.1 44.8067 183.087 44.5733 183.02 44.36C182.94 44.2933 182.893 44.14 182.88 43.9C182.88 43.6467 182.867 43.42 182.84 43.22C182.867 42.9267 182.893 42.7 182.92 42.54C182.947 42.38 183.033 42.1933 183.18 41.98C183.567 41.42 184.04 40.9533 184.6 40.58C185.16 40.1933 185.873 39.9333 186.74 39.8C186.887 39.7733 187.073 39.76 187.3 39.76C187.527 39.7467 187.76 39.7533 188 39.78C188.24 39.7933 188.453 39.82 188.64 39.86C188.84 39.8867 188.987 39.9333 189.08 40C189.4 40.16 189.653 40.3333 189.84 40.52C190.027 40.7067 190.187 40.92 190.32 41.16C190.387 41.3067 190.427 41.42 190.44 41.5C190.467 41.5667 190.467 41.6333 190.44 41.7C190.413 41.7667 190.36 41.8667 190.28 42C190.213 42.08 190.1 42.1733 189.94 42.28C189.793 42.3867 189.62 42.4933 189.42 42.6C189.233 42.7067 189.033 42.8067 188.82 42.9C188.62 42.98 188.433 43.0333 188.26 43.06C188.14 43.1133 188.067 43.14 188.04 43.14C188.027 43.14 188.02 43.1133 188.02 43.06C188.06 42.98 188.067 42.92 188.04 42.88C188.027 42.84 188.02 42.82 188.02 42.82C187.847 42.82 187.807 42.7467 187.9 42.6C188.007 42.4533 188.187 42.2267 188.44 41.92C188.68 41.6533 188.833 41.4733 188.9 41.38C188.98 41.2733 188.987 41.1867 188.92 41.12C188.84 41.0667 188.68 41.0267 188.44 41C188.2 40.9733 187.94 40.9667 187.66 40.98C187.393 40.98 187.153 41 186.94 41.04C186.273 41.24 185.687 41.5267 185.18 41.9C184.687 42.2733 184.387 42.6867 184.28 43.14C184.187 43.34 184.14 43.52 184.14 43.68C184.153 43.84 184.213 44.0933 184.32 44.44C184.347 44.7733 184.373 45.0333 184.4 45.22C184.44 45.4067 184.46 45.5133 184.46 45.54C184.46 45.5933 184.473 45.6733 184.5 45.78C184.527 45.8733 184.547 46.0467 184.56 46.3C184.587 46.3933 184.653 46.52 184.76 46.68C184.867 46.8267 185.047 46.9933 185.3 47.18C185.327 47.4733 185.373 47.7267 185.44 47.94C185.52 48.14 185.567 48.3333 185.58 48.52C185.847 49.0533 186.047 49.5867 186.18 50.12C186.327 50.6533 186.413 51.0933 186.44 51.44C186.467 51.7867 186.433 51.96 186.34 51.96C186.327 51.96 186.32 51.98 186.32 52.02C186.32 52.06 186.327 52.08 186.34 52.08C186.34 52.16 186.293 52.26 186.2 52.38C186.107 52.5 185.993 52.6333 185.86 52.78C185.727 52.9133 185.593 53.0333 185.46 53.14C185.34 53.26 185.24 53.3533 185.16 53.42ZM192.447 47.76C192.193 47.8533 191.98 47.9 191.807 47.9C191.647 47.8867 191.467 47.8067 191.267 47.66C191.013 47.42 190.927 47.18 191.007 46.94C191.1 46.6867 191.32 46.44 191.667 46.2C191.907 46.0533 192.08 45.9733 192.187 45.96C192.307 45.9467 192.487 45.9933 192.727 46.1C193.127 46.3533 193.3 46.6333 193.247 46.94C193.207 47.2467 192.94 47.52 192.447 47.76ZM191.047 51.96C190.793 52.0533 190.58 52.1 190.407 52.1C190.247 52.0867 190.067 52.0067 189.867 51.86C189.613 51.62 189.527 51.38 189.607 51.14C189.7 50.8867 189.92 50.64 190.267 50.4C190.507 50.2533 190.68 50.1733 190.787 50.16C190.907 50.1467 191.087 50.1933 191.327 50.3C191.727 50.5533 191.9 50.8333 191.847 51.14C191.807 51.4467 191.54 51.72 191.047 51.96ZM195.84 52.424C195.552 52.216 195.408 52.04 195.408 51.896C195.344 51.8 195.272 51.752 195.192 51.752C195.144 51.768 195.096 51.72 195.048 51.608C195.016 51.496 194.984 51.368 194.952 51.224C194.936 51.064 194.936 50.952 194.952 50.888C195.016 50.76 195.112 50.688 195.24 50.672C195.368 50.64 195.488 50.656 195.6 50.72C195.728 50.768 195.8 50.856 195.816 50.984C195.848 51.112 195.968 51.216 196.176 51.296C196.4 51.376 196.688 51.408 197.04 51.392C197.488 51.376 197.952 51.264 198.432 51.056C198.928 50.848 199.384 50.584 199.8 50.264C200.232 49.944 200.576 49.616 200.832 49.28C200.944 49.056 201.048 48.76 201.144 48.392C201.24 48.024 201.304 47.696 201.336 47.408C201.368 47.12 201.344 46.976 201.264 46.976C201.264 46.976 201.248 46.92 201.216 46.808C201.2 46.696 201.168 46.576 201.12 46.448C201.04 46.208 200.856 45.968 200.568 45.728C200.28 45.472 200 45.288 199.728 45.176C199.616 45.144 199.408 45.12 199.104 45.104C198.816 45.072 198.552 45.072 198.312 45.104C198.056 45.12 197.824 45.12 197.616 45.104C197.424 45.088 197.328 45.08 197.328 45.08C197.248 45.064 197.128 45 196.968 44.888C196.824 44.776 196.688 44.656 196.56 44.528C196.432 44.4 196.368 44.296 196.368 44.216C196.4 44.104 196.48 43.928 196.608 43.688C196.736 43.432 196.888 43.152 197.064 42.848C197.256 42.528 197.456 42.232 197.664 41.96C197.872 41.672 198.072 41.432 198.264 41.24C198.744 40.712 199.288 40.32 199.896 40.064C200.52 39.792 201.16 39.672 201.816 39.704C202.28 39.72 202.608 39.76 202.8 39.824C203.008 39.872 203.208 40.024 203.4 40.28C203.528 40.504 203.584 40.704 203.568 40.88C203.552 41.056 203.488 41.176 203.376 41.24C203.264 41.304 203.112 41.288 202.92 41.192C202.696 41.048 202.384 40.992 201.984 41.024C201.6 41.056 201.192 41.136 200.76 41.264C200.424 41.392 200.064 41.6 199.68 41.888C199.312 42.16 199.088 42.384 199.008 42.56C198.944 42.608 198.896 42.656 198.864 42.704C198.848 42.752 198.808 42.768 198.744 42.752C198.744 42.752 198.72 42.784 198.672 42.848C198.624 42.896 198.6 42.952 198.6 43.016C198.52 43.112 198.464 43.184 198.432 43.232C198.416 43.264 198.376 43.248 198.312 43.184C198.312 43.184 198.312 43.208 198.312 43.256C198.312 43.304 198.304 43.36 198.288 43.424C198.272 43.536 198.28 43.632 198.312 43.712C198.36 43.776 198.536 43.824 198.84 43.856C199.24 43.92 199.544 43.984 199.752 44.048C199.96 44.096 200.264 44.24 200.664 44.48C201.112 44.736 201.472 45.08 201.744 45.512C202.016 45.928 202.2 46.4 202.296 46.928C202.408 47.456 202.424 47.992 202.344 48.536C202.296 48.888 202.248 49.16 202.2 49.352C202.152 49.544 202.016 49.808 201.792 50.144C201.424 50.656 200.976 51.112 200.448 51.512C199.92 51.896 199.368 52.2 198.792 52.424C198.216 52.632 197.664 52.744 197.136 52.76C196.624 52.776 196.192 52.664 195.84 52.424ZM208.468 52.616C208.068 52.616 207.676 52.576 207.292 52.496C206.924 52.4 206.628 52.28 206.404 52.136C206.18 51.976 206.076 51.8 206.092 51.608C206.108 51.352 206.164 51.216 206.26 51.2C206.356 51.168 206.58 51.176 206.932 51.224C207.476 51.336 208.06 51.344 208.684 51.248C209.308 51.152 209.892 50.984 210.436 50.744C210.98 50.504 211.404 50.232 211.708 49.928C212.14 49.512 212.332 49.096 212.284 48.68C212.252 48.264 212.004 47.904 211.54 47.6C211.332 47.456 211.044 47.32 210.676 47.192C210.308 47.064 209.94 46.968 209.572 46.904C209.22 46.824 208.932 46.792 208.708 46.808C208.564 46.824 208.444 46.824 208.348 46.808C208.268 46.792 208.124 46.728 207.916 46.616C207.82 46.504 207.732 46.384 207.652 46.256C207.572 46.112 207.516 46.008 207.484 45.944C207.468 45.864 207.508 45.784 207.604 45.704C207.716 45.624 207.948 45.488 208.3 45.296C208.652 45.088 209.196 44.784 209.932 44.384C210.604 44.016 211.132 43.72 211.516 43.496C211.916 43.256 212.228 43.064 212.452 42.92C212.692 42.76 212.884 42.616 213.028 42.488C213.316 42.104 213.46 41.856 213.46 41.744C213.46 41.632 213.252 41.536 212.836 41.456C212.436 41.424 212.052 41.4 211.684 41.384C211.316 41.368 211.132 41.392 211.132 41.456C211.132 41.456 211.124 41.456 211.108 41.456C211.108 41.456 211.084 41.456 211.036 41.456C210.956 41.424 210.78 41.432 210.508 41.48C210.236 41.528 209.972 41.584 209.716 41.648C209.476 41.712 209.348 41.768 209.332 41.816C209.316 41.848 209.22 41.904 209.044 41.984C208.884 42.048 208.716 42.104 208.54 42.152C208.38 42.2 208.276 42.224 208.228 42.224C208.148 42.192 208.052 42.112 207.94 41.984C207.844 41.84 207.764 41.696 207.7 41.552C207.636 41.392 207.62 41.272 207.652 41.192C207.684 41.128 207.78 41.048 207.94 40.952C208.116 40.84 208.316 40.728 208.54 40.616C208.764 40.488 208.964 40.384 209.14 40.304C209.364 40.24 209.676 40.192 210.076 40.16C210.492 40.128 210.908 40.112 211.324 40.112C211.74 40.096 212.044 40.096 212.236 40.112C212.972 40.192 213.54 40.384 213.94 40.688C214.34 40.992 214.588 41.4 214.684 41.912C214.732 42.136 214.748 42.32 214.732 42.464C214.716 42.608 214.644 42.76 214.516 42.92C214.388 43.064 214.164 43.28 213.844 43.568C213.444 43.824 213.116 44.04 212.86 44.216C212.604 44.392 212.22 44.616 211.708 44.888C211.596 44.968 211.444 45.072 211.252 45.2C211.06 45.328 210.884 45.448 210.724 45.56C210.564 45.656 210.484 45.72 210.484 45.752C210.484 45.752 210.516 45.776 210.58 45.824C210.644 45.856 210.724 45.904 210.82 45.968C210.916 46.032 211.004 46.104 211.084 46.184C211.548 46.344 211.972 46.6 212.356 46.952C212.74 47.304 213.012 47.592 213.172 47.816C213.396 48.312 213.484 48.792 213.436 49.256C213.404 49.72 213.244 50.16 212.956 50.576C212.668 50.976 212.244 51.344 211.684 51.68C211.236 51.936 210.716 52.152 210.124 52.328C209.532 52.488 208.98 52.584 208.468 52.616Z" fill="white"/>
<path fill-rule="evenodd" clip-rule="evenodd" d="M0.598148 0.617494C0.391422 0.814608 0.383625 1.14199 0.580738 1.34872C12.8383 14.2042 32.907 23.2534 57.33 23.2534C57.6156 23.2534 57.8472 23.0218 57.8472 22.7362C57.8472 22.4505 57.6156 22.219 57.33 22.219C33.1567 22.219 13.3699 13.2628 1.32938 0.634904C1.13226 0.428174 0.804878 0.420379 0.598148 0.617494Z" fill="white"/>
<path fill-rule="evenodd" clip-rule="evenodd" d="M1.04377 1.034C1.04423 1.03406 1.04588 1.03429 1.04898 1.03555C10.6064 4.92563 19.4854 3.2682 22.8588 1.87915C23.1229 1.77039 23.2489 1.46811 23.1401 1.20398C23.0313 0.939856 22.7291 0.813905 22.4649 0.922663C19.3078 2.22267 10.7123 3.85191 1.43893 0.0774695C0.731862 -0.210324 -0.0756784 0.339323 0.00573106 1.1382C0.458738 5.5837 1.66684 11.4733 9.21883 20.9832C9.39647 21.2069 9.7218 21.2443 9.94549 21.0666C10.1692 20.889 10.2065 20.5636 10.0289 20.34C2.60332 10.9892 1.46862 5.28752 1.03516 1.03684C1.03784 1.03506 1.04047 1.03424 1.04204 1.03402C1.0427 1.03393 1.04321 1.03393 1.04377 1.034Z" fill="white"/>
<path fill-rule="evenodd" clip-rule="evenodd" d="M233.435 68.3149C186.368 66.2827 136.638 74.5831 117.67 78.9849C117.381 79.052 117.088 78.8891 117.016 78.6213C116.943 78.3534 117.119 78.0819 117.408 78.0148C136.442 73.5977 186.282 65.2779 233.485 67.316C233.783 67.3288 234.013 67.5628 233.999 67.8387C233.985 68.1145 233.733 68.3277 233.435 68.3149Z" fill="#91FF6A"/>
</svg>
