<svg width="326" height="143" viewBox="0 0 326 143" fill="none" xmlns="http://www.w3.org/2000/svg">
<path d="M9.56 61.56C8.73333 61.5067 7.90667 61.2 7.08 60.64C6.25333 60.1067 5.49333 59.6 4.8 59.12C4.34667 58.6667 4 58.1867 3.76 57.68C3.52 57.1467 3.32 56.4533 3.16 55.6C3.05333 55.0933 3.05333 54.4267 3.16 53.6C3.26667 52.7733 3.44 51.9467 3.68 51.12C3.92 50.2667 4.14667 49.6 4.36 49.12C4.68 48.3733 5.08 47.5733 5.56 46.72C6.06667 45.84 6.56 45.0133 7.04 44.24C7.54667 43.44 7.94667 42.8 8.24 42.32C8.42667 42.1333 8.50667 42.04 8.48 42.04C8.48 42.0133 8.48 42 8.48 42C8.48 41.8667 8.61333 41.5333 8.88 41C9.17333 40.44 9.42667 39.9467 9.64 39.52C10.04 39.0933 10.2667 38.7467 10.32 38.48C10.3733 38.2133 10.3333 38 10.2 37.84C10.1467 37.7333 10.2533 37.5067 10.52 37.16C10.8133 36.8133 11.2133 36.4267 11.72 36C12.2267 35.5467 12.7867 35.1467 13.4 34.8C14.04 34.2933 14.6533 34.0267 15.24 34C15.8533 33.9467 16.2133 34.0667 16.32 34.36C16.32 34.44 16.4667 34.4667 16.76 34.44C17.08 34.3867 17.44 34.32 17.84 34.24C18.2667 34.1333 18.64 34.0533 18.96 34C19.0933 33.84 19.4 33.72 19.88 33.64C20.3867 33.5333 20.9733 33.44 21.64 33.36C21.9867 33.3867 22.3733 33.4 22.8 33.4C23.2267 33.3733 23.6 33.3467 23.92 33.32C24.2667 33.2933 24.44 33.28 24.44 33.28C24.6267 33.2267 24.8933 33.3467 25.24 33.64C25.6133 33.9067 25.9067 34.28 26.12 34.76C26.3067 35.24 26.1467 35.6533 25.64 36C25.1333 36.3467 24.3333 36.5867 23.24 36.72C22.44 36.8267 21.8133 36.92 21.36 37C20.9333 37.0533 20.4667 37.1333 19.96 37.24C19.48 37.32 18.7733 37.4667 17.84 37.68C17.1733 37.8133 16.6133 37.92 16.16 38C15.7067 38.08 15.3067 38.24 14.96 38.48C14.64 38.72 14.28 39.1467 13.88 39.76C13.6933 39.8933 13.4533 40.24 13.16 40.8C12.8667 41.36 12.5733 41.92 12.28 42.48C11.5333 43.52 10.9733 44.2933 10.6 44.8C10.2533 45.28 10.1333 45.5867 10.24 45.72C10.24 45.72 10.4267 45.76 10.8 45.84C11.1733 45.92 11.4133 45.96 11.52 45.96C11.7867 45.8267 12.1067 45.7333 12.48 45.68C12.88 45.6267 13.2 45.5733 13.44 45.52C15.0933 45.0933 16.3067 44.7867 17.08 44.6C17.88 44.3867 18.44 44.24 18.76 44.16C19.1067 44.08 19.4133 44.0267 19.68 44C20.0533 43.7067 20.4267 43.7333 20.8 44.08C21.2 44.4 21.48 44.7867 21.64 45.24C21.8267 45.7733 21.8267 46.1867 21.64 46.48C21.4533 46.7733 21.04 47.0133 20.4 47.2C19.7867 47.3867 18.9067 47.6133 17.76 47.88C16.6133 48.12 15.1733 48.48 13.44 48.96C11.9733 49.3867 10.7867 49.64 9.88 49.72C8.97333 49.8 8.54667 49.5733 8.6 49.04C8.41333 48.9333 8.2 49.04 7.96 49.36C7.74667 49.6533 7.54667 50.0667 7.36 50.6C7.17333 51.1333 7 51.7067 6.84 52.32C6.70667 52.9333 6.62667 53.5067 6.6 54.04C6.57333 54.5733 6.61333 54.9867 6.72 55.28C6.93333 55.8933 7.26667 56.4267 7.72 56.88C8.2 57.3067 8.89333 57.6533 9.8 57.92C10.3333 57.9467 10.8533 57.9867 11.36 58.04C11.8667 58.0933 12.44 57.9867 13.08 57.72C14.6533 57.4533 15.7467 57.1733 16.36 56.88C16.9733 56.5867 17.3467 56.3867 17.48 56.28C17.6933 56.1733 17.8267 56.0667 17.88 55.96C17.96 55.8533 18.0667 55.8 18.2 55.8C18.12 55.9333 18.1467 55.9333 18.28 55.8C18.4133 55.6667 18.6267 55.48 18.92 55.24C19.48 54.76 20.04 54.4667 20.6 54.36C21.16 54.2533 21.6267 54.2533 22 54.36C22.3733 54.44 22.5733 54.5467 22.6 54.68C22.76 54.9467 22.68 55.3733 22.36 55.96C22.04 56.52 21.5467 57.12 20.88 57.76C20.24 58.4 19.48 58.9733 18.6 59.48C17.1867 60.2267 15.6533 60.7467 14 61.04C12.3467 61.36 10.8667 61.5333 9.56 61.56ZM29.1272 62.44C28.0605 62.1733 27.1939 61.6133 26.5272 60.76C25.8872 59.9333 25.3672 58.9333 24.9672 57.76C24.9405 57.4133 24.9272 56.9333 24.9272 56.32C24.9539 55.7067 24.9939 55.1333 25.0472 54.6C25.1005 54.0667 25.1539 53.76 25.2072 53.68C25.2872 53.6267 25.3272 53.4667 25.3272 53.2C25.3005 53.0933 25.3139 52.92 25.3672 52.68C25.4472 52.4133 25.5272 52.1467 25.6072 51.88C25.7405 51.56 25.8072 51.3067 25.8072 51.12C25.8072 50.9067 25.7939 50.7467 25.7672 50.64C25.7672 50.64 25.8072 50.56 25.8872 50.4C25.9672 50.2133 26.0605 50.0667 26.1672 49.96C26.3272 49.8 26.3939 49.64 26.3672 49.48C26.3672 49.32 26.3672 49.24 26.3672 49.24C26.3405 49.1333 26.3672 48.9867 26.4472 48.8C26.5272 48.6133 26.6072 48.4667 26.6872 48.36C26.7405 48.3067 26.8072 48.2 26.8872 48.04C26.9939 47.8533 27.0472 47.76 27.0472 47.76C27.0472 47.68 27.1005 47.4667 27.2072 47.12C27.3405 46.7733 27.4872 46.4 27.6472 46C27.8072 45.5733 27.9539 45.1867 28.0872 44.84C28.2472 44.4933 28.3672 44.2667 28.4472 44.16V44.08C28.5539 43.8133 28.7005 43.5333 28.8872 43.24C28.9139 43.1067 28.9805 42.8933 29.0872 42.6C29.1939 42.28 29.3139 41.9733 29.4472 41.68C29.7405 41.04 30.1005 40.32 30.5272 39.52C30.9805 38.6933 31.4605 37.88 31.9672 37.08C32.4739 36.2533 32.9539 35.52 33.4072 34.88C33.8872 34.2133 34.3005 33.72 34.6472 33.4C35.1005 32.8933 35.5539 32.5333 36.0072 32.32C36.4872 32.08 36.9272 32.16 37.3272 32.56C37.5139 32.7467 37.6739 33.0267 37.8072 33.4C37.9405 33.7467 37.9939 34.08 37.9672 34.4C37.9672 34.6933 37.8605 34.8533 37.6472 34.88C37.4605 34.9867 37.2072 35.2933 36.8872 35.8C36.5672 36.28 36.2072 36.8533 35.8072 37.52C35.4339 38.1867 35.0605 38.88 34.6872 39.6C34.3139 40.2933 33.9672 40.92 33.6472 41.48C33.3005 42.2533 32.9805 42.9333 32.6872 43.52C32.3939 44.08 32.2472 44.36 32.2472 44.36C32.2205 44.44 32.1939 44.5067 32.1672 44.56C32.1405 44.6133 32.1139 44.6667 32.0872 44.72C31.6872 45.5467 31.3539 46.3067 31.0872 47C30.8205 47.6667 30.5539 48.3733 30.2872 49.12C30.1272 49.3067 30.0339 49.4933 30.0072 49.68C29.9805 49.8667 29.9672 49.96 29.9672 49.96C29.9139 49.9333 29.8739 50 29.8472 50.16C29.8205 50.2933 29.7672 50.4533 29.6872 50.64C29.5539 50.7467 29.4739 50.92 29.4472 51.16C29.4205 51.3733 29.4072 51.5867 29.4072 51.8C29.2205 52.28 29.0472 52.8667 28.8872 53.56C28.7272 54.2267 28.6072 54.88 28.5272 55.52C28.4739 56.1333 28.4605 56.6133 28.4872 56.96C28.5405 57.4133 28.6605 57.8 28.8472 58.12C29.0605 58.4133 29.3539 58.6533 29.7272 58.84C30.0205 58.9733 30.2872 59.0933 30.5272 59.2C30.7672 59.28 30.9805 59.32 31.1672 59.32C31.3805 59.3467 31.6472 59.3467 31.9672 59.32C32.3139 59.2667 32.7805 59.1867 33.3672 59.08H33.3272C33.6739 59.0267 34.0339 58.96 34.4072 58.88C34.8072 58.7733 35.1805 58.68 35.5272 58.6C35.8472 58.5467 36.1539 58.4933 36.4472 58.44C36.7405 58.36 36.9672 58.2933 37.1272 58.24C37.7139 58.08 38.1805 57.9467 38.5272 57.84C38.9005 57.7333 39.1539 57.7333 39.2872 57.84C39.4205 57.9467 39.5672 58.1467 39.7272 58.44C39.8872 58.7333 39.9272 59 39.8472 59.24C39.7939 59.3733 39.5272 59.64 39.0472 60.04C38.5672 60.4667 38.0205 60.88 37.4072 61.28C36.7939 61.7067 36.2339 62 35.7272 62.16C35.1939 62.4 34.4739 62.56 33.5672 62.64C32.6872 62.7467 31.8339 62.7733 31.0072 62.72C30.1805 62.6667 29.5539 62.5733 29.1272 62.44ZM47.4384 62.56C46.3451 62.56 45.3451 62.3733 44.4384 62C43.5318 61.6533 42.9718 60.8667 42.7584 59.64C42.7851 58.9733 42.8118 58.56 42.8384 58.4C42.8918 58.2133 42.9984 58.12 43.1584 58.12C43.2651 58.12 43.3451 58.1067 43.3984 58.08C43.4784 58.0267 43.5184 57.9067 43.5184 57.72C43.5451 57.2667 43.6118 56.7333 43.7184 56.12C43.8518 55.48 43.9984 54.8933 44.1584 54.36C44.3451 53.8 44.5184 53.4133 44.6784 53.2C44.8384 52.6667 45.0651 51.9333 45.3584 51C45.6518 50.0667 45.9584 49.0933 46.2784 48.08C46.6251 47.04 46.9318 46.0933 47.1984 45.24C47.4918 44.3867 47.7051 43.7867 47.8384 43.44C47.9718 43.0933 48.1851 42.6133 48.4784 42C48.7718 41.36 48.9718 40.8267 49.0784 40.4C49.2651 39.8667 49.4651 39.2933 49.6784 38.68C49.8918 38.04 50.0918 37.5467 50.2784 37.2L50.9584 36L49.8784 35.08C49.5051 34.7067 49.3184 34.3333 49.3184 33.96C49.3184 33.5333 49.5718 33.1733 50.0784 32.88C50.6118 32.5867 51.2251 32.3867 51.9184 32.28C52.1851 32.2267 52.4918 32.2 52.8384 32.2C53.2118 32.2 53.5584 32.2 53.8784 32.2C54.6518 32.2 55.4251 32.2267 56.1984 32.28C56.9718 32.3333 57.6118 32.4 58.1184 32.48C58.4118 32.5333 58.7851 32.6533 59.2384 32.84C59.6918 33.0267 60.1318 33.24 60.5584 33.48C60.9851 33.72 61.2918 33.9467 61.4784 34.16C61.4784 34.16 61.5318 34.2133 61.6384 34.32C61.7451 34.4 61.8518 34.44 61.9584 34.44C62.1184 34.52 62.3984 34.8267 62.7984 35.36C63.2251 35.8933 63.6384 36.4933 64.0384 37.16C64.4384 37.8 64.6784 38.3867 64.7584 38.92C64.8384 39.32 64.8918 39.76 64.9184 40.24C64.9718 40.6933 64.9984 41.1067 64.9984 41.48C64.9718 42.12 64.9318 42.7333 64.8784 43.32C64.8518 43.9067 64.7851 44.5467 64.6784 45.24C64.5984 45.8533 64.4518 46.5333 64.2384 47.28C64.0518 48 63.8384 48.7067 63.5984 49.4C63.3851 50.0667 63.1851 50.6133 62.9984 51.04C62.8384 51.4667 62.7318 51.68 62.6784 51.68C62.5184 51.68 62.4251 51.72 62.3984 51.8C62.3718 51.88 62.3584 51.9733 62.3584 52.08C62.3318 52.3467 62.1584 52.7733 61.8384 53.36C61.5184 53.92 61.1184 54.5333 60.6384 55.2C60.1584 55.84 59.6518 56.44 59.1184 57C58.6118 57.56 58.1451 57.9733 57.7184 58.24C56.8651 59.1733 55.8384 59.96 54.6384 60.6C53.4384 61.2667 52.1984 61.76 50.9184 62.08C49.6651 62.4 48.5051 62.56 47.4384 62.56ZM48.4384 58.52C48.7051 58.52 49.1318 58.5067 49.7184 58.48C50.3318 58.4267 50.8251 58.3333 51.1984 58.2C51.8384 58.04 52.6118 57.6933 53.5184 57.16C54.4251 56.6 55.2518 55.9467 55.9984 55.2C56.8251 54.3467 57.5718 53.4667 58.2384 52.56C58.9051 51.6267 59.5584 50.3467 60.1984 48.72C60.6518 47.6533 60.9718 46.5733 61.1584 45.48C61.3718 44.3867 61.4784 43.4 61.4784 42.52C61.4784 40.9467 61.1851 39.68 60.5984 38.72C60.0118 37.7333 59.2518 37.0667 58.3184 36.72C57.9451 36.5867 57.5584 36.4933 57.1584 36.44C56.7584 36.36 56.3718 36.32 55.9984 36.32C55.7318 36.32 55.4518 36.3333 55.1584 36.36C54.8918 36.3867 54.7184 36.4267 54.6384 36.48C54.4251 36.48 54.1851 36.6933 53.9184 37.12C53.6784 37.5467 53.4518 38.08 53.2384 38.72C53.0251 39.36 52.8251 39.9867 52.6384 40.6C52.4251 41.3733 52.2251 42 52.0384 42.48C51.8518 42.9333 51.6651 43.4 51.4784 43.88C51.2918 44.36 51.0651 45.04 50.7984 45.92C50.4251 46.64 50.1051 47.3733 49.8384 48.12C49.5984 48.84 49.3984 49.48 49.2384 50.04C49.0784 50.5733 48.9584 50.9467 48.8784 51.16C48.7184 51.48 48.5451 51.96 48.3584 52.6C48.1984 53.2133 48.0384 53.88 47.8784 54.6C47.7451 55.32 47.6251 55.9867 47.5184 56.6C47.4384 57.2133 47.3984 57.68 47.3984 58C47.3984 58.2133 47.5051 58.36 47.7184 58.44C47.9318 58.4933 48.1718 58.52 48.4384 58.52ZM74.0538 62C72.9871 62 72.0271 61.9333 71.1738 61.8C70.3471 61.6933 69.5871 61.3733 68.8938 60.84C68.0671 60.2267 67.4804 59.3467 67.1338 58.2C66.8138 57.0267 66.9071 55.4933 67.4138 53.6C67.5471 52.9333 67.6938 52.3467 67.8538 51.84C68.0404 51.3333 68.2004 51.08 68.3338 51.08C68.3604 50.9467 68.4004 50.76 68.4538 50.52C68.5071 50.2533 68.5604 49.9467 68.6138 49.6C68.7471 49.12 68.8404 48.7733 68.8938 48.56C68.9471 48.32 69.0538 48.12 69.2138 47.96C69.2938 47.9067 69.3871 47.7333 69.4938 47.44C69.6004 47.12 69.6671 46.9333 69.6938 46.88C69.6938 46.88 69.7071 46.7867 69.7338 46.6C69.7604 46.3867 69.8271 46.1467 69.9338 45.88C70.3338 45.2133 70.5338 44.7733 70.5338 44.56C70.5871 44.4533 70.6938 44.2933 70.8538 44.08C71.0404 43.8667 71.1871 43.5867 71.2938 43.24C72.0938 41.8267 72.7471 40.6667 73.2538 39.76C73.7604 38.8267 74.0671 38.1067 74.1738 37.6C74.3071 37.3067 74.4271 36.96 74.5338 36.56C74.6671 36.1333 74.8271 35.8133 75.0138 35.6C74.9604 35.4667 75.1071 35.32 75.4538 35.16C75.8271 35 76.3071 34.8267 76.8938 34.64C77.4804 34.4533 78.1071 34.2933 78.7738 34.16C79.4404 34.0267 80.0538 33.9467 80.6138 33.92C80.7738 33.8133 81.1204 33.7333 81.6537 33.68C82.2138 33.6267 82.8538 33.6 83.5738 33.6C84.2938 33.6 84.9604 33.6267 85.5738 33.68C86.1604 33.68 86.6271 33.76 86.9738 33.92C87.3204 34.08 87.6671 34.24 88.0138 34.4C88.1471 34.5333 88.3338 34.72 88.5738 34.96C88.8138 35.2 88.9604 35.4533 89.0138 35.72C89.0938 35.9867 88.9204 36.2267 88.4938 36.44C88.4138 36.52 87.9738 36.5867 87.1738 36.64C86.3738 36.6933 85.5338 36.72 84.6538 36.72C83.6671 36.72 82.8138 36.8 82.0938 36.96C81.3738 37.12 80.8671 37.2 80.5738 37.2C80.2004 37.3067 79.7604 37.3733 79.2538 37.4C78.7471 37.4267 78.4938 37.44 78.4938 37.44C78.4404 37.44 78.3071 37.6 78.0938 37.92C77.8804 38.2133 77.6404 38.5733 77.3738 39C77.1338 39.4 76.9071 39.7733 76.6938 40.12C76.5071 40.4667 76.4138 40.68 76.4138 40.76C76.4138 41.0267 76.3071 41.32 76.0938 41.64C75.8804 41.96 75.6271 42.3333 75.3338 42.76C75.0671 43.1067 74.8938 43.48 74.8138 43.88C74.7338 44.2533 74.8138 44.4933 75.0538 44.6C75.4804 44.52 76.0671 44.44 76.8138 44.36C77.5871 44.28 78.3471 44.2133 79.0938 44.16C79.8404 44.08 80.4138 44.04 80.8138 44.04C81.2671 43.9067 81.6404 43.88 81.9338 43.96C82.2271 44.04 82.4404 44.12 82.5738 44.2C82.8938 44.2533 83.0804 44.4133 83.1337 44.68C83.2138 44.9467 83.2138 45.2133 83.1337 45.48C83.0538 45.7467 82.9204 45.92 82.7338 46C82.5738 46.16 82.1738 46.3467 81.5338 46.56C80.8938 46.7733 80.1338 46.9867 79.2538 47.2C78.4004 47.4133 77.5338 47.6133 76.6538 47.8C75.8004 47.96 75.0538 48.0933 74.4138 48.2C73.8004 48.3067 73.4404 48.3467 73.3338 48.32C73.1738 47.9467 72.9871 47.96 72.7738 48.36C72.5871 48.7333 72.3604 49.5067 72.0938 50.68C71.8004 51.3467 71.5738 51.8533 71.4138 52.2C71.2804 52.52 71.1738 52.88 71.0938 53.28C71.0138 53.6533 70.8938 54.2533 70.7338 55.08C70.5471 55.8 70.5604 56.4533 70.7738 57.04C71.0138 57.6 71.5604 58.08 72.4138 58.48C72.9471 58.5867 73.5604 58.6267 74.2538 58.6C74.9471 58.5733 75.8671 58.4133 77.0138 58.12C77.4938 57.8267 77.9738 57.56 78.4538 57.32C78.9338 57.0533 79.2671 56.8667 79.4538 56.76C79.5871 56.76 79.7871 56.7067 80.0538 56.6C80.3471 56.4667 80.5471 56.4 80.6538 56.4C80.8671 56.1067 81.1338 55.96 81.4538 55.96C81.5071 55.96 81.6538 56.08 81.8938 56.32C82.1604 56.56 82.4138 56.8667 82.6538 57.24C82.8938 57.6133 83.0138 58 83.0138 58.4C83.0138 58.6667 82.5604 59.0133 81.6537 59.44C80.7738 59.8667 79.6671 60.3467 78.3338 60.88C77.6671 61.1733 77.1204 61.4 76.6938 61.56C76.2938 61.72 75.9071 61.8267 75.5338 61.88C75.1604 61.96 74.6671 62 74.0538 62ZM88.1994 60.12C87.986 59.9067 87.8127 59.5867 87.6794 59.16C87.5727 58.7333 87.5194 58.28 87.5194 57.8C87.546 57.2933 87.6394 56.88 87.7994 56.56C87.9327 56.32 88.0394 56.0133 88.1194 55.64C88.1994 55.24 88.2527 54.8667 88.2794 54.52C88.4927 53.6667 88.746 52.7867 89.0394 51.88C89.3594 50.9467 89.6927 49.9467 90.0394 48.88C90.5194 47.4133 90.9327 46.1333 91.2794 45.04C91.626 43.9467 91.9727 42.9067 92.3194 41.92C92.666 40.9067 93.066 39.84 93.5194 38.72C93.5994 38.5867 93.6794 38.4267 93.7594 38.24C93.866 38.0267 93.946 37.8133 93.9994 37.6C94.0794 37.36 94.106 37.16 94.0794 37C94.1594 36.5733 94.266 36.2267 94.3994 35.96C94.5594 35.6667 94.6927 35.4667 94.7994 35.36C95.0927 35.0133 95.4127 34.7333 95.7594 34.52C96.106 34.28 96.386 34.2133 96.5994 34.32C96.9727 34.4267 97.3727 34.6133 97.7994 34.88C98.2527 35.12 98.626 35.6267 98.9194 36.4C99.0794 36.64 99.226 36.8933 99.3594 37.16C99.4927 37.4 99.586 37.68 99.6394 38C99.6927 38.32 99.6794 38.72 99.5994 39.2C99.6794 40.3733 99.826 41.5733 100.039 42.8C100.279 44.0267 100.373 45.1467 100.319 46.16C100.319 46.6133 100.319 47.2133 100.319 47.96C100.319 48.7067 100.319 49.48 100.319 50.28C100.346 51.0533 100.386 51.7333 100.439 52.32C100.519 52.88 100.639 53.2133 100.799 53.32C100.853 53.3467 100.879 53.4133 100.879 53.52C100.879 53.6 100.893 53.64 100.919 53.64C100.946 53.64 100.986 53.5333 101.039 53.32C101.119 53.08 101.239 52.6667 101.399 52.08C101.559 51.5467 101.813 51.0133 102.159 50.48C102.533 49.92 102.813 49.16 102.999 48.2C103.346 47.32 103.626 46.5467 103.839 45.88C104.079 45.2133 104.306 44.5333 104.519 43.84C104.733 43.1467 104.986 42.3733 105.279 41.52C105.333 41.28 105.426 40.9867 105.559 40.64C105.719 40.2667 105.893 39.88 106.079 39.48C106.266 39.0533 106.466 38.6667 106.679 38.32C106.946 37.7867 107.239 37.24 107.559 36.68C107.879 36.12 108.039 35.7867 108.039 35.68C108.039 35.68 108.039 35.6133 108.039 35.48C108.039 35.32 108.093 35.1867 108.199 35.08C108.333 34.9733 108.506 34.8533 108.719 34.72C108.933 34.5867 109.079 34.3467 109.159 34C109.293 33.8933 109.546 33.7467 109.919 33.56C110.293 33.3733 110.599 33.3333 110.839 33.44C110.999 33.5733 111.159 33.72 111.319 33.88C111.506 34.04 111.626 34.2667 111.679 34.56C111.759 34.8533 111.693 35.28 111.479 35.84C111.399 36.4 111.279 36.88 111.119 37.28C110.986 37.6533 110.853 37.9467 110.719 38.16C110.613 38.4267 110.493 38.7467 110.359 39.12C110.253 39.4667 110.133 39.7867 109.999 40.08C109.893 40.56 109.799 40.9467 109.719 41.24C109.666 41.5333 109.639 41.7333 109.639 41.84C109.639 41.84 109.546 41.9733 109.359 42.24C109.199 42.5067 108.999 42.84 108.759 43.24C108.386 44.2 108.093 45.0133 107.879 45.68C107.666 46.32 107.479 46.88 107.319 47.36C107.159 47.84 106.999 48.3333 106.839 48.84C106.679 49.32 106.466 49.88 106.199 50.52C106.173 50.8933 106.106 51.24 105.999 51.56C105.893 51.8533 105.773 52.1067 105.639 52.32C105.506 52.5333 105.399 52.7067 105.319 52.84C105.239 52.9467 105.199 53 105.199 53C104.533 54.12 103.959 55.1733 103.479 56.16C102.999 57.12 102.679 57.7333 102.519 58C102.386 58.2133 102.253 58.3867 102.119 58.52C101.986 58.6267 101.853 58.7067 101.719 58.76C101.613 58.7867 101.493 58.8133 101.359 58.84C101.253 58.8667 101.119 58.88 100.959 58.88C100.479 58.9333 100.039 58.7867 99.6394 58.44C99.2394 58.0667 98.8527 57.48 98.4794 56.68C97.9994 55.6933 97.5727 54.44 97.1994 52.92C96.8527 51.3733 96.6527 49.7467 96.5994 48.04C96.5994 47.8267 96.5994 47.5867 96.5994 47.32C96.5994 47.0533 96.586 46.7867 96.5594 46.52C96.5594 46.2533 96.546 46.0267 96.5194 45.84C96.5194 45.6267 96.5194 45.0933 96.5194 44.24C96.5194 43.3867 96.4927 42.3467 96.4394 41.12C96.0927 41.84 95.786 42.7067 95.5194 43.72C95.2527 44.7333 94.9727 45.7467 94.6794 46.76C94.386 47.7467 93.9994 48.6267 93.5194 49.4C93.466 49.9333 93.386 50.4133 93.2794 50.84C93.1727 51.2667 93.066 51.64 92.9594 51.96C92.8794 52.2533 92.786 52.4667 92.6794 52.6C92.4927 53.1333 92.3327 53.76 92.1994 54.48C92.0927 55.2 91.986 55.7333 91.8794 56.08C91.8794 56.3467 91.7994 56.7333 91.6394 57.24C91.506 57.72 91.3594 58.2133 91.1994 58.72C91.0394 59.2 90.9194 59.5733 90.8394 59.84C90.706 60.16 90.466 60.4133 90.1194 60.6C89.7727 60.7867 89.4127 60.8533 89.0394 60.8C88.666 60.7467 88.386 60.52 88.1994 60.12ZM122.455 62.4C122.348 62.6667 121.988 62.8 121.375 62.8C120.761 62.8 120.228 62.6267 119.775 62.28C119.455 61.96 119.241 61.7067 119.135 61.52C119.055 61.36 119.108 61.0667 119.295 60.64C119.481 60.24 119.801 59.52 120.255 58.48C120.361 57.84 120.548 57.2 120.815 56.56C121.081 55.8933 121.281 55.4267 121.415 55.16C121.521 54.7867 121.735 54.1733 122.055 53.32C122.401 52.44 122.788 51.4667 123.215 50.4C123.668 49.3333 124.095 48.3333 124.495 47.4C124.895 46.44 125.188 45.72 125.375 45.24C125.828 44.1733 126.295 43.0533 126.775 41.88C127.255 40.7067 127.908 39.2267 128.735 37.44C128.841 37.1733 128.801 36.8933 128.615 36.6C128.428 36.3067 128.108 36.16 127.655 36.16C127.388 35.8667 127.241 35.56 127.215 35.24C127.188 34.8933 127.321 34.6533 127.615 34.52L131.295 33.28C132.548 32.9867 133.828 32.9067 135.135 33.04C136.468 33.1467 137.721 33.5067 138.895 34.12C140.175 34.8667 141.108 35.6933 141.695 36.6C142.281 37.5067 142.601 38.4267 142.655 39.36C142.735 40.2667 142.628 41.0933 142.335 41.84C142.121 42.4 141.708 43.0133 141.095 43.68C140.508 44.3467 139.815 45.0133 139.015 45.68C138.241 46.3467 137.428 46.96 136.575 47.52C135.748 48.0533 134.975 48.4667 134.255 48.76C133.588 49.08 132.841 49.4133 132.015 49.76C131.188 50.08 130.388 50.36 129.615 50.6C129.188 50.7067 128.681 50.76 128.095 50.76C127.508 50.76 127.068 50.7067 126.775 50.6L126.095 51.88C125.828 52.84 125.361 54.2667 124.695 56.16C124.055 58.0533 123.308 60.1333 122.455 62.4ZM138.335 63.16C138.121 63.24 137.761 63.2667 137.255 63.24C136.775 63.2133 136.228 63 135.615 62.6C134.441 61.9067 133.268 61.0667 132.095 60.08C130.921 59.0933 129.601 57.76 128.135 56.08C127.575 55.4133 127.148 54.7467 126.855 54.08C126.588 53.4133 126.241 52.5733 125.815 51.56L125.255 49.4L126.775 48.4L128.535 49.84C128.961 50.7733 129.455 51.6667 130.015 52.52C130.601 53.3733 131.188 54.1333 131.775 54.8C132.255 55.36 132.908 56.04 133.735 56.84C134.561 57.6133 135.441 58.36 136.375 59.08C137.308 59.8 138.148 60.3467 138.895 60.72C139.055 60.8533 139.095 61.1067 139.015 61.48C138.961 61.88 138.855 62.2533 138.695 62.6C138.561 62.9467 138.441 63.1333 138.335 63.16ZM128.255 47.48C128.868 47.4267 129.535 47.2667 130.255 47C131.001 46.7067 131.788 46.3867 132.615 46.04C133.388 45.6667 134.148 45.2667 134.895 44.84C135.668 44.3867 136.361 43.8933 136.975 43.36C137.615 42.8267 138.108 42.2533 138.455 41.64C138.828 41.0267 138.988 40.3733 138.935 39.68C138.935 39.3333 138.828 38.9467 138.615 38.52C138.401 38.0933 138.121 37.7067 137.775 37.36C137.455 37.0133 137.121 36.7867 136.775 36.68C135.708 36.4133 134.895 36.2533 134.335 36.2C133.775 36.1467 133.361 36.2267 133.095 36.44C132.855 36.6533 132.668 37.0267 132.535 37.56C132.535 37.64 132.428 37.8933 132.215 38.32C132.001 38.7467 131.735 39.2933 131.415 39.96C131.121 40.6 130.828 41.2933 130.535 42.04C129.761 43.6133 129.188 44.7733 128.815 45.52C128.468 46.24 128.255 46.72 128.175 46.96C128.121 47.2 128.148 47.3733 128.255 47.48ZM147.013 61.16C146.959 61.1867 146.839 61.2 146.653 61.2C146.493 61.2267 146.186 61.2267 145.733 61.2C145.306 61.1733 144.626 61.1467 143.692 61.12C141.532 60.88 140.413 60.7467 140.333 60.72C140.333 60.72 140.293 60.7067 140.213 60.68C140.159 60.6533 140.026 60.5467 139.813 60.36C139.546 60.28 139.319 60.1067 139.132 59.84C138.946 59.5467 138.813 59.24 138.733 58.92C138.653 58.6 138.639 58.3467 138.693 58.16C138.719 58.08 138.893 58 139.213 57.92C139.533 57.8133 139.853 57.7867 140.173 57.84C140.653 57.7333 141.093 57.6667 141.493 57.64C141.919 57.6133 142.319 57.56 142.693 57.48C142.959 57.3467 143.239 57.2667 143.533 57.24C143.826 57.2133 144.079 57.16 144.293 57.08C144.506 57.1067 144.666 56.9467 144.773 56.6C144.906 56.2267 145.093 55.7333 145.333 55.12C145.413 54.88 145.573 54.44 145.813 53.8C146.053 53.1333 146.306 52.4267 146.573 51.68C146.866 50.9067 147.106 50.24 147.293 49.68C147.506 49.0933 147.613 48.7733 147.613 48.72C147.586 48.4533 147.613 48.1867 147.693 47.92C147.799 47.6267 147.853 47.4 147.853 47.24C147.933 47.1333 148.039 46.84 148.173 46.36C148.333 45.8533 148.559 45.2533 148.853 44.56C149.013 44.1867 149.199 43.72 149.413 43.16C149.653 42.5733 149.853 42.0267 150.013 41.52C150.199 41.0133 150.293 40.7067 150.293 40.6C150.533 40.0933 150.759 39.6133 150.973 39.16C151.213 38.7067 151.333 38.4267 151.333 38.32C151.333 38.32 151.093 38.3333 150.613 38.36C150.133 38.36 149.666 38.3467 149.213 38.32C148.626 38.3467 148.039 38.32 147.453 38.24C146.893 38.1333 146.399 38 145.973 37.84C145.546 37.6533 145.279 37.48 145.173 37.32C144.986 37.0267 144.959 36.8 145.093 36.64C145.226 36.4533 145.386 36.24 145.573 36C145.626 35.7867 145.946 35.6533 146.533 35.6C147.146 35.52 147.906 35.4667 148.813 35.44C150.119 35.4667 151.039 35.4667 151.573 35.44C152.133 35.4133 152.426 35.3467 152.453 35.24C152.586 35.24 152.719 35.24 152.853 35.24C152.986 35.2133 153.146 35.1867 153.333 35.16C153.546 35.16 153.986 35.08 154.653 34.92C155.319 34.7333 155.879 34.5733 156.333 34.44C157.133 34.2533 157.866 34.1333 158.533 34.08C159.199 34 159.586 33.96 159.693 33.96C160.253 33.88 160.706 34 161.053 34.32C161.399 34.6133 161.559 35.0667 161.533 35.68C161.533 35.8667 161.373 36.0267 161.053 36.16C160.733 36.2933 160.133 36.4133 159.253 36.52C158.746 36.6 158.306 36.7067 157.933 36.84C157.559 36.9467 157.239 37.04 156.973 37.12C156.573 37.2533 156.319 37.3333 156.213 37.36C156.133 37.3867 156.026 37.4267 155.893 37.48C155.679 37.48 155.493 37.6133 155.333 37.88C155.199 38.1467 155.066 38.5067 154.933 38.96C154.933 38.96 154.893 39 154.813 39.08C154.733 39.1333 154.693 39.1867 154.693 39.24C154.693 39.32 154.626 39.4 154.493 39.48C154.386 39.56 154.279 39.7467 154.173 40.04C154.173 40.2 154.066 40.5467 153.853 41.08C153.639 41.6133 153.426 42.2133 153.213 42.88C152.999 43.5467 152.866 44.1467 152.813 44.68C152.493 45.4533 152.199 46.2133 151.933 46.96C151.666 47.68 151.519 48.24 151.493 48.64C151.413 48.7467 151.279 49.0533 151.093 49.56C150.933 50.04 150.746 50.6 150.533 51.24C150.319 51.8533 150.119 52.4 149.933 52.88C149.746 53.36 149.613 53.6267 149.533 53.68C149.426 53.7867 149.359 53.9333 149.333 54.12C149.306 54.28 149.279 54.4267 149.253 54.56C149.146 54.9333 149.039 55.3467 148.933 55.8C148.853 56.2533 148.853 56.5733 148.933 56.76C149.093 56.76 149.359 56.76 149.733 56.76C150.133 56.76 150.533 56.7467 150.933 56.72C151.359 56.6933 151.679 56.6533 151.893 56.6C152.826 56.5467 153.479 56.52 153.853 56.52C154.253 56.52 154.506 56.5467 154.613 56.6C154.746 56.6267 154.839 56.6533 154.893 56.68C154.946 56.7067 155.079 56.7067 155.293 56.68C155.693 56.6267 156.026 56.7067 156.293 56.92C156.559 57.1333 156.799 57.48 157.013 57.96C157.119 58.1733 157.053 58.4267 156.813 58.72C156.599 59.0133 156.373 59.2133 156.133 59.32C156.053 59.3733 155.866 59.44 155.573 59.52C155.306 59.5733 155.039 59.5867 154.773 59.56C154.186 59.56 153.679 59.56 153.253 59.56C152.853 59.5333 152.453 59.52 152.053 59.52C151.653 59.52 151.146 59.52 150.533 59.52C150.319 59.4933 150.106 59.4933 149.893 59.52C149.679 59.5467 149.519 59.56 149.413 59.56C149.253 59.5067 149.066 59.5067 148.853 59.56C148.639 59.6133 148.346 59.6533 147.973 59.68C147.813 59.76 147.679 59.8133 147.573 59.84C147.493 59.8667 147.426 59.9867 147.373 60.2C147.373 60.3067 147.319 60.4667 147.213 60.68C147.106 60.8933 147.039 61.0533 147.013 61.16ZM160.14 61.28C160.006 61.4933 159.873 61.68 159.74 61.84C159.633 62 159.513 62.0933 159.38 62.12C159.3 61.9867 159.086 61.8 158.74 61.56C158.393 61.32 158.06 61.0667 157.74 60.8C157.42 60.5333 157.233 60.2933 157.18 60.08C157.18 59.7867 157.286 59.2267 157.5 58.4C157.713 57.5733 157.993 56.64 158.34 55.6C158.686 54.5333 159.033 53.4933 159.38 52.48C159.753 51.44 160.073 50.5733 160.34 49.88C160.526 49.4 160.686 48.9867 160.82 48.64C160.953 48.2667 161.06 47.9733 161.14 47.76C161.246 47.4667 161.433 47.04 161.7 46.48C161.966 45.92 162.246 45.3467 162.54 44.76C162.86 44.1733 163.126 43.6667 163.34 43.24C163.553 42.8133 163.66 42.6 163.66 42.6C163.686 42.3867 163.833 41.9867 164.1 41.4C164.366 40.8133 164.7 40.1333 165.1 39.36C165.5 38.5867 165.913 37.8267 166.34 37.08C166.766 36.3067 167.153 35.6267 167.5 35.04C167.82 34.56 168.06 34.2933 168.22 34.24C168.406 34.16 168.566 34.1733 168.7 34.28C169.286 34.2267 169.793 34.24 170.22 34.32C170.673 34.3733 171.02 34.48 171.26 34.64C171.526 34.7733 171.673 34.9333 171.7 35.12C171.753 35.2 171.753 35.5467 171.7 36.16C171.673 36.7467 171.62 37.2667 171.54 37.72C171.38 39.0267 171.3 40.24 171.3 41.36C171.3 42.4533 171.366 43.6667 171.5 45C171.66 46.3067 171.833 47.9333 172.02 49.88L172.62 53.76L173.34 52.2C173.606 51.6133 173.846 51.0267 174.06 50.44C174.273 49.8267 174.486 49.3067 174.7 48.88C174.913 48.2667 175.14 47.68 175.38 47.12C175.646 46.5333 175.78 46.24 175.78 46.24C176.02 45.8933 176.246 45.4267 176.46 44.84C176.7 44.2533 176.913 43.6667 177.1 43.08C177.313 42.4933 177.473 42.0533 177.58 41.76C177.633 41.5733 177.713 41.2933 177.82 40.92C177.953 40.5467 178.086 40.1333 178.22 39.68C178.38 39.2267 178.526 38.7867 178.66 38.36C178.82 37.8267 178.966 37.3467 179.1 36.92C179.233 36.4933 179.353 36.1333 179.46 35.84C179.566 35.52 179.633 35.3067 179.66 35.2C179.66 35.2 179.713 35.1333 179.82 35C179.926 34.8667 180.046 34.6533 180.18 34.36L181.62 34.04C182.233 34.5467 182.58 35.0267 182.66 35.48C182.766 35.9067 182.686 36.4667 182.42 37.16C182.393 37.4267 182.326 37.72 182.22 38.04C182.113 38.3333 182.06 38.48 182.06 38.48C182.22 38.48 182.233 38.6667 182.1 39.04C181.993 39.3867 181.913 39.6933 181.86 39.96C181.806 40.1467 181.713 40.4667 181.58 40.92C181.473 41.3733 181.353 41.8533 181.22 42.36C181.086 42.8667 180.966 43.3067 180.86 43.68C180.806 43.8933 180.66 44.2933 180.42 44.88C180.18 45.44 179.9 46.08 179.58 46.8C179.26 47.52 178.926 48.2533 178.58 49C178.26 49.72 177.966 50.3467 177.7 50.88C177.433 51.4133 177.246 51.7733 177.14 51.96C177.06 52.12 176.966 52.32 176.86 52.56C176.78 52.8 176.673 52.9867 176.54 53.12C176.406 53.5467 176.166 54.0267 175.82 54.56C175.473 55.0933 175.1 55.6133 174.7 56.12C174.326 56.6267 173.993 57.0533 173.7 57.4C173.353 57.7733 173.006 58.0533 172.66 58.24C172.313 58.4267 171.913 58.4133 171.46 58.2C171.033 57.9867 170.5 57.5067 169.86 56.76C169.726 56.5467 169.58 56.08 169.42 55.36C169.26 54.64 169.086 53.8133 168.9 52.88C168.74 51.92 168.58 50.9733 168.42 50.04C168.26 49.08 168.14 48.2667 168.06 47.6C167.953 47.0667 167.913 46.6533 167.94 46.36C167.966 46.04 167.98 45.7067 167.98 45.36C167.98 44.9333 167.98 44.6133 167.98 44.4C168.006 44.16 168.033 43.9333 168.06 43.72C168.086 43.48 168.1 43.1733 168.1 42.8C168.126 42.5067 168.113 42.3333 168.06 42.28C168.006 42.2 167.9 42.2667 167.74 42.48C167.286 43.1467 166.9 43.76 166.58 44.32C166.26 44.88 166.02 45.3333 165.86 45.68C165.753 45.9733 165.553 46.4667 165.26 47.16C164.966 47.8267 164.646 48.5733 164.3 49.4C163.953 50.2267 163.62 51 163.3 51.72C163.006 52.44 162.78 52.9867 162.62 53.36C162.433 53.76 162.233 54.3067 162.02 55C161.833 55.6667 161.646 56.3733 161.46 57.12C161.273 57.84 161.113 58.48 160.98 59.04C160.873 59.6 160.793 59.96 160.74 60.12C160.713 60.1467 160.62 60.3067 160.46 60.6C160.326 60.8933 160.22 61.12 160.14 61.28ZM194.908 62.08C194.854 62.16 194.681 62.16 194.388 62.08C194.094 62 193.814 61.8533 193.548 61.64C193.281 61.4533 193.121 61.24 193.068 61C192.961 61 192.894 60.92 192.868 60.76C192.868 60.6 192.868 60.2667 192.868 59.76C193.081 59.3867 193.308 59.2 193.548 59.2C193.548 59.2 193.534 59.1467 193.508 59.04C193.481 58.9067 193.548 58.68 193.708 58.36C193.841 58.04 193.988 57.68 194.148 57.28C194.308 56.8533 194.388 56.64 194.388 56.64C194.254 56.6133 194.001 56.6933 193.628 56.88C193.254 57.04 192.881 57.3067 192.508 57.68C192.108 57.9467 191.681 58.28 191.228 58.68C190.774 59.08 190.468 59.3067 190.308 59.36C190.041 59.4133 189.814 59.5067 189.628 59.64C189.441 59.7467 189.201 59.9067 188.908 60.12C188.054 60.6267 187.148 61.0533 186.188 61.4C185.254 61.7467 184.454 61.9067 183.788 61.88C183.414 61.8267 183.001 61.6 182.548 61.2C182.094 60.8267 181.681 60.5067 181.308 60.24C181.174 60.0267 181.014 59.8267 180.828 59.64C180.668 59.4533 180.588 59.24 180.588 59C180.374 58.8133 180.241 58.3467 180.188 57.6C180.134 56.8267 180.148 55.9733 180.228 55.04C180.308 54.1067 180.414 53.2933 180.548 52.6C180.708 51.8267 180.894 51.1333 181.108 50.52C181.321 49.88 181.601 49.2133 181.948 48.52C182.294 47.8 182.761 46.96 183.348 46C183.934 45.04 184.668 43.8667 185.548 42.48C185.708 42.0267 185.974 41.5467 186.348 41.04C186.748 40.5333 187.148 40.08 187.548 39.68C187.948 39.2533 188.228 38.9733 188.388 38.84C188.494 38.84 188.668 38.7333 188.908 38.52C189.148 38.28 189.374 38.0533 189.588 37.84C189.828 37.6 189.948 37.48 189.948 37.48C190.988 36.3867 192.068 35.5733 193.188 35.04C194.334 34.48 195.428 33.9333 196.468 33.4C197.028 33.32 197.588 33.28 198.148 33.28C198.708 33.28 199.241 33.32 199.748 33.4C200.281 33.4533 200.774 33.52 201.228 33.6C201.708 33.8667 202.094 34.1867 202.388 34.56C202.681 34.9067 202.868 35.2133 202.948 35.48C203.054 35.8267 203.108 36.08 203.108 36.24C203.108 36.4 203.054 36.5467 202.948 36.68C202.788 36.7867 202.574 37 202.308 37.32C202.068 37.64 201.801 37.7467 201.508 37.64C200.334 36.92 199.201 36.64 198.108 36.8C197.041 36.9333 195.721 37.5467 194.148 38.64C193.748 38.96 193.294 39.36 192.788 39.84C192.281 40.32 191.761 40.84 191.228 41.4C190.694 41.96 190.174 42.5067 189.668 43.04C189.188 43.5733 188.788 44.04 188.468 44.44C187.428 46.0133 186.561 47.56 185.868 49.08C185.201 50.6 184.708 51.88 184.388 52.92C184.228 53.2667 184.121 53.6933 184.068 54.2C184.014 54.68 183.988 55.16 183.988 55.64C184.014 56.0933 184.054 56.4933 184.108 56.84C184.161 57.16 184.201 57.3467 184.228 57.4C184.521 57.8533 184.894 58.08 185.348 58.08C185.828 58.0533 186.348 57.8933 186.908 57.6C187.494 57.28 188.081 56.9067 188.668 56.48C189.281 56.0267 189.841 55.6 190.348 55.2C190.614 54.9867 191.001 54.7333 191.508 54.44C192.041 54.12 192.561 53.7867 193.068 53.44C193.574 53.0667 193.921 52.7467 194.108 52.48C194.694 51.9467 195.121 51.5467 195.388 51.28C195.654 51.0133 195.828 50.8133 195.908 50.68C195.988 50.5467 196.041 50.4267 196.068 50.32C196.121 50.2133 196.228 50.0533 196.388 49.84C196.494 49.3867 196.601 49.0533 196.708 48.84C196.841 48.6 196.908 48.48 196.908 48.48C196.934 48.32 196.881 48.2133 196.748 48.16C196.614 48.1067 196.414 48.0533 196.148 48C195.961 48 195.654 47.9867 195.228 47.96C194.801 47.9067 194.348 47.8533 193.868 47.8C193.414 47.72 193.028 47.6533 192.708 47.6C192.388 47.52 192.228 47.44 192.228 47.36C192.228 47.28 192.281 47.08 192.388 46.76C192.494 46.4133 192.628 46.0533 192.788 45.68C192.788 45.3867 193.214 45.1467 194.068 44.96C194.921 44.7467 195.974 44.6667 197.228 44.72C198.241 44.72 199.054 44.8667 199.668 45.16C200.281 45.4533 200.588 45.9867 200.588 46.76C200.748 47.1067 200.828 47.4133 200.828 47.68C200.854 47.92 200.761 48.3067 200.548 48.84C200.361 49.3733 200.014 50.2667 199.508 51.52C198.361 54.7467 197.401 57.2933 196.628 59.16C195.854 61.0267 195.281 62 194.908 62.08Z" fill="white"/>
<path d="M6.848 104.792C6.528 104.664 6.19733 104.525 5.856 104.376C5.536 104.227 5.22667 104.003 4.928 103.704C4.65067 103.427 4.40533 103.032 4.192 102.52C3.97867 101.901 3.82933 101.293 3.744 100.696C3.68 100.099 3.65867 99.4053 3.68 98.616C3.68 97.5067 3.75467 96.5467 3.904 95.736C4.07467 94.904 4.33067 94.0613 4.672 93.208C4.71467 93.144 4.78933 92.9627 4.896 92.664C5.024 92.344 5.16267 92.0027 5.312 91.64C5.48267 91.2773 5.61067 91 5.696 90.808C5.86667 90.4453 6.12267 89.9653 6.464 89.368C6.82667 88.7493 7.21067 88.152 7.616 87.576C8.23467 86.6587 8.74667 85.9333 9.152 85.4C9.55733 84.8667 9.94133 84.4187 10.304 84.056C10.6667 83.6933 11.072 83.352 11.52 83.032C11.9893 82.6907 12.5867 82.2747 13.312 81.784C13.7813 81.4427 14.2933 81.2613 14.848 81.24C15.424 81.2187 15.9573 81.3467 16.448 81.624C16.9387 81.88 17.3013 82.264 17.536 82.776C17.7707 83.224 17.888 83.768 17.888 84.408C17.888 85.0267 17.792 85.688 17.6 86.392C17.408 87.0747 17.1413 87.7253 16.8 88.344C16.4587 88.9627 16.064 89.4747 15.616 89.88C15.3387 90.136 15.0827 90.232 14.848 90.168C14.6347 90.104 14.3787 89.9333 14.08 89.656C13.888 89.2933 13.7813 89.08 13.76 89.016C13.76 88.952 13.8027 88.9093 13.888 88.888C14.016 88.7387 14.1867 88.4827 14.4 88.12C14.6133 87.7573 14.8267 87.3733 15.04 86.968C15.2533 86.5413 15.4027 86.2 15.488 85.944C15.6587 85.048 15.776 84.4187 15.84 84.056C15.904 83.672 15.84 83.384 15.648 83.192C15.5627 83.1067 15.4347 83.0747 15.264 83.096C15.1147 83.1173 14.8587 83.224 14.496 83.416C14.0053 83.6293 13.3653 84.1093 12.576 84.856C11.7867 85.5813 11.0613 86.392 10.4 87.288C9.54667 88.4187 8.832 89.4213 8.256 90.296C7.68 91.1707 7.24267 92.0667 6.944 92.984C6.90133 93.0693 6.82667 93.2293 6.72 93.464C6.63467 93.6987 6.592 93.816 6.592 93.816C6.61333 93.9013 6.58133 94.1147 6.496 94.456C6.41067 94.776 6.31467 95.0533 6.208 95.288C5.97333 96.2693 5.83467 97.2933 5.792 98.36C5.74933 99.4053 5.80267 100.333 5.952 101.144C6.12267 101.955 6.368 102.52 6.688 102.84C6.96533 103.032 7.33867 103.096 7.808 103.032C8.29867 102.968 8.85333 102.819 9.472 102.584C10.0907 102.349 10.72 102.093 11.36 101.816C11.872 101.603 12.3413 101.368 12.768 101.112C13.1947 100.856 13.5147 100.632 13.728 100.44C13.8987 100.312 14.112 100.184 14.368 100.056C14.6453 99.9067 14.88 99.832 15.072 99.832C15.3707 99.7253 15.5413 99.6827 15.584 99.704C15.6267 99.7253 15.648 99.8213 15.648 99.992C15.648 100.291 15.4773 100.621 15.136 100.984C14.816 101.347 14.4 101.677 13.888 101.976C13.7173 102.147 13.4933 102.328 13.216 102.52C12.9387 102.712 12.6507 102.861 12.352 102.968C11.904 103.309 11.3493 103.64 10.688 103.96C10.0267 104.28 9.35467 104.525 8.672 104.696C8.01067 104.867 7.40267 104.899 6.848 104.792ZM20.2375 103.8C20.1308 103.8 20.0028 103.747 19.8535 103.64C19.7042 103.555 19.5655 103.437 19.4375 103.288C19.3308 103.139 19.2775 102.979 19.2775 102.808C19.2775 102.808 19.2668 102.744 19.2455 102.616C19.2455 102.467 19.2028 102.317 19.1175 102.168C19.1175 101.997 19.1175 101.805 19.1175 101.592C19.1388 101.357 19.1922 101.123 19.2775 100.888C19.2775 100.653 19.3095 100.397 19.3735 100.12C19.4375 99.8213 19.5122 99.5973 19.5975 99.448C19.5975 99.2133 19.6508 98.9147 19.7575 98.552C19.8855 98.168 19.9922 97.816 20.0775 97.496C20.3122 96.792 20.4828 96.28 20.5895 95.96C20.7175 95.64 20.8028 95.4053 20.8455 95.256C20.8882 95.0853 20.9095 94.9147 20.9095 94.744C20.9735 94.5733 21.0695 94.264 21.1975 93.816C21.3255 93.368 21.4535 92.9093 21.5815 92.44C21.7308 91.9493 21.8268 91.5973 21.8695 91.384C21.9548 91.2987 21.9975 91.224 21.9975 91.16C22.0188 91.0747 22.0295 90.9893 22.0295 90.904C22.0295 90.904 22.1042 90.6587 22.2535 90.168C22.4028 89.6773 22.5948 89.112 22.8295 88.472C23.2135 87.3413 23.4695 86.52 23.5975 86.008C23.7468 85.496 23.8108 85.1333 23.7895 84.92C23.7895 84.7067 23.7362 84.4933 23.6295 84.28C23.4802 84.0027 23.4802 83.7893 23.6295 83.64C23.7148 83.5547 23.7895 83.4587 23.8535 83.352C23.9175 83.224 23.9495 83.16 23.9495 83.16C23.9495 83.1173 24.0882 83.0427 24.3655 82.936C24.6428 82.8293 24.9842 82.712 25.3895 82.584C25.7948 82.4347 26.2002 82.296 26.6055 82.168C27.0322 82.04 27.3842 81.9333 27.6615 81.848C27.7255 81.848 27.8215 81.848 27.9495 81.848C28.0988 81.848 28.2588 81.848 28.4295 81.848C28.6215 81.848 28.8028 81.848 28.9735 81.848C29.5282 81.9333 30.0935 82.0933 30.6695 82.328C31.2668 82.5627 31.7682 82.8933 32.1735 83.32C32.4295 83.5547 32.6535 83.832 32.8455 84.152C33.0588 84.472 33.3255 84.9947 33.6455 85.72C33.6455 85.8053 33.6668 85.9867 33.7095 86.264C33.7735 86.52 33.8055 86.776 33.8055 87.032C33.8055 87.672 33.6455 88.344 33.3255 89.048C33.0055 89.752 32.5468 90.4667 31.9495 91.192C31.3522 91.896 30.6268 92.6 29.7735 93.304C28.8775 94.0293 27.9495 94.52 26.9895 94.776C26.0295 95.032 25.1762 95.0853 24.4295 94.936C24.2802 94.872 24.1415 94.744 24.0135 94.552C23.9068 94.36 23.8322 94.168 23.7895 93.976C23.7468 93.784 23.7575 93.656 23.8215 93.592C23.9922 93.5493 24.2482 93.5387 24.5895 93.56C24.9308 93.56 25.4748 93.4213 26.2215 93.144C26.4562 93.0587 26.7015 92.9627 26.9575 92.856C27.2135 92.728 27.4162 92.6213 27.5655 92.536C27.9922 92.2587 28.4828 91.8853 29.0375 91.416C29.5922 90.9467 30.1042 90.3387 30.5735 89.592C30.7655 89.2933 30.9575 88.9413 31.1495 88.536C31.3415 88.1093 31.5015 87.6827 31.6295 87.256C31.7788 86.8293 31.8535 86.4773 31.8535 86.2C32.0242 85.6453 31.9175 85.1867 31.5335 84.824C31.1708 84.44 30.5842 84.2053 29.7735 84.12C29.5175 84.056 29.1228 84.0773 28.5895 84.184C28.0562 84.2693 27.5442 84.3867 27.0535 84.536C26.5628 84.6853 26.2322 84.8133 26.0615 84.92C25.9762 84.92 25.9228 84.984 25.9015 85.112C25.8802 85.24 25.8268 85.3893 25.7415 85.56C25.7415 85.7093 25.6775 86.0293 25.5495 86.52C25.4215 86.9893 25.2722 87.4267 25.1015 87.832C24.9522 88.3013 24.7708 88.824 24.5575 89.4C24.3442 89.9547 24.1948 90.392 24.1095 90.712C24.0242 91.0533 23.9175 91.384 23.7895 91.704C23.6828 92.024 23.6295 92.184 23.6295 92.184C23.6295 92.2693 23.5655 92.4507 23.4375 92.728C23.3308 93.0053 23.2348 93.304 23.1495 93.624C23.0642 94.0293 22.9468 94.488 22.7975 95C22.6695 95.512 22.5202 95.9707 22.3495 96.376C22.1148 97.1653 21.9122 97.9547 21.7415 98.744C21.5708 99.512 21.5602 100.013 21.7095 100.248C21.9442 100.248 22.0295 100.44 21.9655 100.824C21.9015 101.187 21.7095 101.688 21.3895 102.328C21.1762 102.861 21.0162 103.224 20.9095 103.416C20.8028 103.629 20.7068 103.747 20.6215 103.768C20.5362 103.789 20.4082 103.8 20.2375 103.8ZM37.9233 103.768C37.2619 103.725 36.6753 103.523 36.1633 103.16C35.6726 102.797 35.1499 102.424 34.5953 102.04C34.2326 101.677 33.9446 101.293 33.7313 100.888C33.5179 100.461 33.3473 99.9067 33.2193 99.224C33.1339 98.8187 33.1339 98.3067 33.2193 97.688C33.3046 97.0693 33.4433 96.4507 33.6353 95.832C33.8273 95.192 34.0086 94.68 34.1793 94.296C34.4353 93.6987 34.7553 93.0587 35.1393 92.376C35.5446 91.672 35.9393 91.0107 36.3233 90.392C36.7286 89.752 37.0486 89.24 37.2833 88.856C37.4326 88.7067 37.4966 88.632 37.4753 88.632C37.4753 88.6107 37.4753 88.6 37.4753 88.6C37.4753 88.4933 37.5819 88.2267 37.7953 87.8C38.0299 87.352 38.2326 86.9573 38.4033 86.616C38.7233 86.2747 38.9046 85.9973 38.9473 85.784C38.9899 85.5707 38.9579 85.4 38.8513 85.272C38.8086 85.1867 38.8833 85.0373 39.0753 84.824C39.2673 84.6107 39.5553 84.3653 39.9392 84.088C40.3233 83.8107 40.7606 83.5333 41.2513 83.256C41.7633 82.8507 42.2539 82.6373 42.7233 82.616C43.2139 82.5733 43.5019 82.6693 43.5873 82.904C43.5873 82.968 43.7046 82.9893 43.9393 82.968C44.1953 82.9253 44.4833 82.872 44.8033 82.808C45.1446 82.7227 45.4433 82.6587 45.6993 82.616C45.8059 82.488 46.0513 82.392 46.4353 82.328C46.8406 82.2427 47.3099 82.168 47.8433 82.104C48.1206 82.1253 48.3873 82.136 48.6433 82.136C48.9206 82.1147 49.1446 82.0933 49.3153 82.072C49.5073 82.0507 49.6033 82.04 49.6033 82.04C49.7526 81.9973 49.9233 82.0187 50.1153 82.104C50.3286 82.1893 50.5206 82.424 50.6913 82.808C50.8406 83.192 50.7873 83.48 50.5312 83.672C50.2966 83.864 49.7419 84.0133 48.8673 84.12C48.2273 84.2053 47.6726 84.28 47.2033 84.344C46.7339 84.3867 46.2433 84.4507 45.7313 84.536C45.2193 84.6 44.5899 84.7173 43.8433 84.888C43.3099 84.9947 42.8726 85.1227 42.5313 85.272C42.1899 85.4 41.8913 85.6027 41.6353 85.88C41.3793 86.136 41.0913 86.5093 40.7713 87C40.6219 87.1067 40.4299 87.384 40.1953 87.832C39.9606 88.28 39.7259 88.728 39.4913 89.176C38.8939 90.008 38.3713 90.7333 37.9233 91.352C37.4966 91.9493 37.3259 92.3013 37.4113 92.408C37.4113 92.408 37.5286 92.44 37.7633 92.504C37.9979 92.568 38.1579 92.6 38.2433 92.6C38.4566 92.4933 38.7126 92.4187 39.0113 92.376C39.3313 92.3333 39.5873 92.2907 39.7793 92.248C41.1019 91.9067 42.1366 91.64 42.8833 91.448C43.6513 91.256 44.2273 91.1173 44.6113 91.032C45.0166 90.9253 45.3259 90.8613 45.5393 90.84C45.8379 90.6053 46.1259 90.5627 46.4033 90.712C46.7019 90.8613 46.9366 91.096 47.1073 91.416C47.2139 91.6507 47.2139 91.8533 47.1073 92.024C47.0219 92.1947 46.7553 92.3653 46.3073 92.536C45.8806 92.7067 45.2406 92.9093 44.3873 93.144C43.5339 93.3787 42.4139 93.688 41.0273 94.072C39.8539 94.4133 38.8513 94.616 38.0193 94.68C37.1873 94.744 36.7926 94.5627 36.8353 94.136C36.6859 94.0507 36.5153 94.1573 36.3233 94.456C36.1526 94.7333 35.9819 95.1173 35.8113 95.608C35.6406 96.0987 35.4913 96.6213 35.3633 97.176C35.2566 97.7307 35.1819 98.2533 35.1393 98.744C35.1179 99.2133 35.1499 99.5653 35.2352 99.8C35.4059 100.291 35.6299 100.685 35.9073 100.984C36.1846 101.261 36.6859 101.507 37.4113 101.72C37.8379 101.741 38.2539 101.773 38.6593 101.816C39.0646 101.859 39.5233 101.773 40.0353 101.56C41.2939 101.347 42.2859 101.123 43.0113 100.888C43.7366 100.653 44.1526 100.493 44.2593 100.408C44.4299 100.323 44.5366 100.28 44.5793 100.28C44.6433 100.259 44.7286 100.248 44.8353 100.248C44.7713 100.355 44.7926 100.365 44.8993 100.28C45.0273 100.173 45.1979 100.013 45.4113 99.8C45.6459 99.5867 45.9553 99.384 46.3393 99.192C46.7233 99 47.0646 98.8507 47.3633 98.744C47.6833 98.6373 47.8539 98.6373 47.8753 98.744C48.0033 98.9573 47.9819 99.256 47.8113 99.64C47.6406 100.003 47.3313 100.408 46.8833 100.856C46.4353 101.283 45.8593 101.699 45.1553 102.104C44.0246 102.701 42.7979 103.117 41.4753 103.352C40.1526 103.608 38.9686 103.747 37.9233 103.768ZM51.0385 109.208C50.7398 109.379 50.5265 109.464 50.3985 109.464C50.2918 109.485 50.1212 109.379 49.8865 109.144C49.6945 108.931 49.5452 108.728 49.4385 108.536C49.3318 108.365 49.2892 108.141 49.3105 107.864C49.3532 107.395 49.4492 106.808 49.5985 106.104C49.7478 105.4 49.9078 104.685 50.0785 103.96C50.2705 103.235 50.4198 102.637 50.5265 102.168C50.5905 101.869 50.6652 101.699 50.7505 101.656C50.8572 101.592 51.0492 101.56 51.3265 101.56C51.6678 101.56 51.9985 101.56 52.3185 101.56C52.6598 101.539 52.9905 101.507 53.3105 101.464L54.0145 101.4C54.3985 100.995 54.7718 100.6 55.1345 100.216C55.5185 99.832 55.8918 99.4373 56.2545 99.032C56.4892 98.7547 56.7558 98.4027 57.0545 97.976C57.3745 97.528 57.6838 97.08 57.9825 96.632C58.2812 96.1627 58.5265 95.768 58.7185 95.448C59.2945 94.5093 59.8492 93.6027 60.3825 92.728C60.9158 91.8533 61.4598 90.84 62.0145 89.688C62.3558 89.0053 62.6438 88.2907 62.8785 87.544C63.1345 86.776 63.4332 86.0613 63.7745 85.4C64.0732 84.888 64.2865 84.344 64.4145 83.768C64.5638 83.1707 64.7452 82.6053 64.9585 82.072C64.7238 81.944 64.1585 82.0187 63.2625 82.296C62.3878 82.552 61.3212 82.9573 60.0625 83.512C59.6998 83.64 59.3905 83.6293 59.1345 83.48C58.8998 83.3093 58.7292 83.096 58.6225 82.84C58.5372 82.5627 58.5265 82.3067 58.5905 82.072C58.6545 81.8373 58.8038 81.7093 59.0385 81.688C59.2732 81.6453 59.4865 81.5707 59.6785 81.464C59.8918 81.3573 60.1052 81.272 60.3185 81.208C60.8092 81.08 61.2678 80.952 61.6945 80.824C62.1425 80.6747 62.6225 80.568 63.1345 80.504C63.3905 80.4613 63.6572 80.4187 63.9345 80.376C64.2332 80.3333 64.4998 80.2693 64.7345 80.184C65.1825 80.056 65.6732 80.0347 66.2065 80.12C66.7398 80.184 67.4225 80.248 68.2545 80.312C69.1505 80.312 70.0038 80.5253 70.8145 80.952C71.6252 81.3573 72.4358 81.7307 73.2465 82.072C73.3745 82.2213 73.5132 82.456 73.6625 82.776C73.8118 83.0747 73.8758 83.3307 73.8545 83.544C73.8545 83.7787 73.7692 84.216 73.5985 84.856C73.4278 85.496 73.2038 86.2213 72.9265 87.032C72.6705 87.8427 72.4038 88.6533 72.1265 89.464C71.8705 90.2533 71.6358 90.936 71.4225 91.512C71.2092 92.088 71.0705 92.4613 71.0065 92.632C70.9638 92.7173 70.8892 92.8987 70.7825 93.176C70.6758 93.4533 70.5798 93.7307 70.4945 94.008C70.4092 94.264 70.3558 94.424 70.3345 94.488C70.2918 94.872 70.2172 95.224 70.1105 95.544C70.0038 95.8427 69.8758 96.1733 69.7265 96.536C69.4705 97.1973 69.2145 97.8907 68.9585 98.616C68.7025 99.32 68.4785 100.035 68.2865 100.76C68.7345 100.909 69.1932 100.995 69.6625 101.016C70.1318 101.037 70.5692 101.123 70.9745 101.272C71.3798 101.421 71.7105 101.773 71.9665 102.328C72.0518 102.499 72.0305 102.787 71.9025 103.192C71.7958 103.619 71.6358 104.099 71.4225 104.632C71.2092 105.165 70.9745 105.699 70.7185 106.232C70.4838 106.787 70.2598 107.267 70.0465 107.672C69.8545 108.077 69.7158 108.365 69.6305 108.536C69.5452 108.728 69.4172 108.867 69.2465 108.952C69.0972 109.037 68.9052 109.037 68.6705 108.952L67.8065 108.184C67.6785 107.864 67.7105 107.459 67.9025 106.968C68.1158 106.499 68.3718 106.008 68.6705 105.496C68.9692 104.984 69.2358 104.483 69.4705 103.992C69.7265 103.523 69.8332 103.128 69.7905 102.808C69.4065 102.744 69.0118 102.733 68.6065 102.776C68.2225 102.797 67.8385 102.744 67.4545 102.616C67.4118 102.595 67.3585 102.584 67.2945 102.584C67.2305 102.584 67.1665 102.584 67.1025 102.584C66.0785 102.584 65.2572 102.584 64.6385 102.584C64.0412 102.584 63.5612 102.584 63.1985 102.584C62.8572 102.563 62.5478 102.563 62.2705 102.584C62.0145 102.584 61.7158 102.605 61.3745 102.648C61.0332 102.669 60.5745 102.701 59.9985 102.744C59.8065 102.765 59.6145 102.765 59.4225 102.744C59.2305 102.723 59.0492 102.733 58.8785 102.776C58.4732 102.883 58.0572 102.957 57.6305 103C57.2038 103.043 56.7452 103.064 56.2545 103.064C55.8278 103.085 55.4545 103.096 55.1345 103.096C54.8358 103.117 54.5692 103.149 54.3345 103.192C54.0145 103.256 53.6945 103.331 53.3745 103.416C53.0545 103.523 52.7238 103.597 52.3825 103.64C52.1265 104.301 51.9132 104.984 51.7425 105.688C51.5718 106.392 51.4118 107.085 51.2625 107.768C51.1985 108.003 51.1665 108.237 51.1665 108.472C51.1878 108.707 51.1452 108.952 51.0385 109.208ZM57.2785 101.048C57.3425 101.048 57.6198 101.037 58.1105 101.016C58.6012 100.995 59.1452 100.973 59.7425 100.952C60.3612 100.909 60.9052 100.877 61.3745 100.856C61.8438 100.835 62.0892 100.835 62.1105 100.856C62.1745 100.813 62.3878 100.781 62.7505 100.76C63.1132 100.739 63.5185 100.728 63.9665 100.728C64.4145 100.707 64.8412 100.696 65.2465 100.696C65.6518 100.696 65.9398 100.696 66.1105 100.696C66.2598 100.376 66.3772 100.045 66.4625 99.704C66.5692 99.3413 66.6758 98.9893 66.7825 98.648C66.9318 98.1573 67.0918 97.6773 67.2625 97.208C67.4332 96.7173 67.5932 96.2373 67.7425 95.768C68.1052 94.68 68.4892 93.656 68.8945 92.696C69.3212 91.7147 69.6945 90.584 70.0145 89.304C70.0785 89.0053 70.1745 88.7173 70.3025 88.44C70.4518 88.1413 70.5692 87.8427 70.6545 87.544L71.1345 85.912C71.2412 85.6133 71.3158 85.304 71.3585 84.984C71.4012 84.6427 71.4758 84.344 71.5825 84.088C71.6892 83.8747 71.7105 83.6613 71.6465 83.448C71.6038 83.2347 71.5505 83.0213 71.4865 82.808C71.0172 82.552 70.5052 82.328 69.9505 82.136C69.4172 81.9227 68.8732 81.816 68.3185 81.816C68.1052 81.816 67.8598 81.7733 67.5825 81.688C67.3052 81.6027 67.0918 81.656 66.9425 81.848C67.0065 82.0827 67.0385 82.2533 67.0385 82.36C67.0598 82.4667 67.0278 82.6373 66.9425 82.872C66.7932 83.384 66.5692 84.0347 66.2705 84.824C65.9718 85.592 65.6305 86.424 65.2465 87.32C64.8625 88.1947 64.4785 89.0587 64.0945 89.912C63.7105 90.744 63.3478 91.4907 63.0065 92.152C62.6865 92.792 62.4305 93.2507 62.2385 93.528C61.9825 93.8907 61.7372 94.264 61.5025 94.648C61.2892 95.032 61.0652 95.416 60.8305 95.8C60.8305 95.8213 60.7025 96.0133 60.4465 96.376C60.2118 96.7173 59.9132 97.144 59.5505 97.656C59.2092 98.168 58.8572 98.68 58.4945 99.192C58.1532 99.704 57.8652 100.141 57.6305 100.504C57.3958 100.845 57.2785 101.027 57.2785 101.048ZM76.1913 105.656C76.1913 105.656 76.1593 105.635 76.0953 105.592C76.0313 105.571 75.9459 105.549 75.8393 105.528C75.7539 105.507 75.6473 105.496 75.5193 105.496C75.1779 105.411 74.9326 105.219 74.7833 104.92C74.6339 104.643 74.6019 104.333 74.6873 103.992C74.7726 103.907 74.8366 103.725 74.8793 103.448C74.9219 103.171 74.9433 102.947 74.9433 102.776C75.0286 102.605 75.0819 102.488 75.1033 102.424C75.1246 102.339 75.1779 102.125 75.2633 101.784C75.3273 101.421 75.4339 100.92 75.5833 100.28C75.7539 99.6187 75.9353 98.9147 76.1273 98.168C76.3406 97.4213 76.5433 96.7067 76.7352 96.024C76.9273 95.3413 77.0979 94.7653 77.2473 94.296C77.4179 93.8267 77.5353 93.56 77.5993 93.496C77.5993 93.496 77.5993 93.464 77.5993 93.4C77.5993 93.3147 77.5993 93.2293 77.5993 93.144C77.5993 93.144 77.6099 93.048 77.6313 92.856C77.6739 92.6427 77.7806 92.408 77.9513 92.152C78.0366 91.9173 78.1113 91.6613 78.1753 91.384C78.2393 91.1067 78.2713 90.9253 78.2713 90.84C78.3566 90.7333 78.4739 90.4773 78.6233 90.072C78.7939 89.6453 78.9539 89.2293 79.1033 88.824C79.2313 88.4827 79.3699 88.12 79.5193 87.736C79.6899 87.352 79.8286 87.0213 79.9353 86.744C80.0633 86.4667 80.1273 86.328 80.1273 86.328C80.1273 86.2427 80.1273 86.2 80.1273 86.2C80.1273 86.1787 80.1273 86.168 80.1273 86.168C80.2126 86.0827 80.4153 85.656 80.7353 84.888C81.0766 84.0987 81.5353 83.0853 82.1113 81.848C82.1966 81.6773 82.3033 81.4853 82.4313 81.272C82.5593 81.0587 82.6233 80.9093 82.6233 80.824C82.7299 80.6533 82.8793 80.5787 83.0713 80.6C83.2633 80.6 83.4553 80.664 83.6473 80.792C83.8606 80.92 84.0206 81.1013 84.1273 81.336L84.4473 81.848L83.2953 84.152C82.9539 84.7493 82.6659 85.2933 82.4313 85.784C82.2179 86.2747 82.1113 86.5627 82.1113 86.648C82.1113 86.648 82.0473 86.8187 81.9193 87.16C81.7913 87.5013 81.6419 87.9067 81.4713 88.376C81.3006 88.8453 81.1513 89.272 81.0233 89.656C80.7886 90.3173 80.5646 90.8613 80.3513 91.288C80.1593 91.7147 80.0633 91.9707 80.0633 92.056C80.0633 92.0133 80.2979 91.9813 80.7673 91.96C81.2366 91.9387 81.8339 91.928 82.5593 91.928C83.2846 91.928 84.0206 91.928 84.7673 91.928C85.5353 91.9067 86.2073 91.896 86.7833 91.896C87.3806 91.8747 87.7859 91.8427 87.9993 91.8L89.6632 91.64L90.7513 88.344C90.9219 87.7467 91.1459 87.0213 91.4233 86.168C91.7006 85.3147 91.9459 84.5893 92.1593 83.992C92.5006 83.0107 92.7673 82.4027 92.9593 82.168C93.1513 81.9333 93.3753 81.816 93.6313 81.816C93.6953 81.816 93.7806 81.8373 93.8873 81.88C94.0153 81.9013 94.1326 81.9547 94.2393 82.04C94.3673 82.104 94.4526 82.2 94.4953 82.328C94.7513 82.5627 94.8686 82.8293 94.8473 83.128C94.8473 83.4267 94.6766 83.8213 94.3353 84.312C93.9939 84.888 93.7059 85.5173 93.4713 86.2C93.2579 86.8613 93.0659 87.4053 92.8953 87.832C92.8953 88.088 92.8633 88.3013 92.7993 88.472C92.7353 88.6213 92.6606 88.7387 92.5753 88.824C92.5326 88.8667 92.4473 89.0267 92.3193 89.304C92.1913 89.5813 92.0739 89.8587 91.9673 90.136C91.8606 90.4133 91.8073 90.584 91.8073 90.648C91.8073 90.7973 91.7753 90.9787 91.7113 91.192C91.6473 91.4053 91.5726 91.5547 91.4873 91.64C91.4446 91.768 91.3486 92.088 91.1993 92.6C91.0499 93.112 90.8793 93.72 90.6873 94.424C90.4953 95.1067 90.2926 95.7787 90.0793 96.44C89.8659 97.08 89.6739 97.6133 89.5033 98.04C89.5033 98.1893 89.4499 98.3813 89.3433 98.616C89.2366 98.8293 89.1833 99.0213 89.1833 99.192C89.0979 99.448 88.9913 99.768 88.8633 100.152C88.7353 100.536 88.6713 100.781 88.6713 100.888C88.5646 101.379 88.4473 101.88 88.3193 102.392C88.2126 102.904 88.1166 103.341 88.0312 103.704C87.9673 104.088 87.9353 104.312 87.9353 104.376C87.8499 104.461 87.7219 104.472 87.5513 104.408C87.3806 104.344 87.1779 104.269 86.9433 104.184C86.5379 103.949 86.2926 103.693 86.2073 103.416C86.1433 103.16 86.2286 102.787 86.4633 102.296C86.5699 102.125 86.6979 101.709 86.8473 101.048C87.0179 100.365 87.1886 99.6933 87.3593 99.032C87.4873 98.712 87.6259 98.2853 87.7753 97.752C87.9246 97.1973 88.0739 96.6427 88.2233 96.088C88.3726 95.512 88.5006 95.032 88.6073 94.648C88.7139 94.2427 88.7886 94.0187 88.8313 93.976C88.8313 93.8907 88.8313 93.816 88.8313 93.752C88.8313 93.688 88.8313 93.656 88.8313 93.656C88.7886 93.6133 88.5219 93.5813 88.0312 93.56C87.5406 93.5173 86.9326 93.5067 86.2073 93.528C85.4819 93.528 84.7246 93.5493 83.9353 93.592C83.1673 93.6133 82.4739 93.6667 81.8553 93.752C81.6206 93.752 81.3539 93.752 81.0553 93.752C80.7566 93.752 80.5219 93.752 80.3513 93.752C80.1166 93.752 79.9139 93.752 79.7433 93.752C79.5939 93.752 79.5193 93.752 79.5193 93.752C79.4979 93.816 79.4233 94.04 79.2953 94.424C79.1673 94.808 79.0179 95.2773 78.8473 95.832C78.6766 96.3653 78.4953 96.92 78.3033 97.496C78.1326 98.0507 77.9833 98.5627 77.8553 99.032C77.7486 99.48 77.6739 99.8 77.6313 99.992C77.5459 100.376 77.4286 100.856 77.2793 101.432C77.1513 102.008 77.0019 102.595 76.8313 103.192C76.6819 103.811 76.5433 104.344 76.4153 104.792C76.3086 105.24 76.2339 105.528 76.1913 105.656ZM108.302 104.28C108.174 104.28 108.003 104.237 107.79 104.152C107.576 104.067 107.352 103.96 107.118 103.832C106.904 103.725 106.712 103.597 106.542 103.448C106.392 103.299 106.318 103.16 106.318 103.032C106.318 102.904 106.307 102.776 106.286 102.648C106.264 102.499 106.275 102.36 106.318 102.232C106.424 101.891 106.52 101.56 106.606 101.24C106.712 100.92 106.798 100.589 106.862 100.248C107.032 99.2453 107.246 98.2533 107.502 97.272C107.779 96.2907 108.046 95.3093 108.302 94.328C108.366 94.072 108.494 93.6133 108.686 92.952C108.899 92.2693 109.134 91.5013 109.39 90.648C109.646 89.7733 109.891 88.92 110.126 88.088C110.382 87.256 110.584 86.552 110.734 85.976C110.883 85.3787 110.936 85.0267 110.894 84.92C110.808 84.856 110.744 84.8453 110.702 84.888C110.68 84.9307 110.648 84.9733 110.606 85.016C110.115 85.6773 109.614 86.3493 109.102 87.032C108.59 87.6933 108.078 88.3547 107.566 89.016C107.011 89.7413 106.435 90.456 105.838 91.16C105.24 91.864 104.643 92.5787 104.046 93.304C103.64 93.816 103.235 94.3493 102.83 94.904C102.424 95.4373 102.008 95.9493 101.582 96.44C101.283 96.7813 101.006 97.1333 100.75 97.496C100.494 97.8587 100.216 98.2107 99.9178 98.552C99.5978 98.936 99.2458 99.352 98.8618 99.8C98.4778 100.248 98.0831 100.707 97.6778 101.176C97.2938 101.624 96.8991 102.061 96.4938 102.488C96.1098 102.893 95.7258 103.256 95.3418 103.576C95.1924 103.704 94.9791 103.779 94.7018 103.8C94.4458 103.821 94.2004 103.768 93.9658 103.64C93.7311 103.533 93.6031 103.352 93.5818 103.096C93.5604 102.627 93.6031 102.072 93.7098 101.432C93.8378 100.792 93.9871 100.152 94.1578 99.512C94.3284 98.8507 94.4884 98.296 94.6378 97.848C94.7018 97.6133 94.7764 97.3893 94.8618 97.176C94.9471 96.9413 95.0218 96.7067 95.0858 96.472C95.1071 96.344 95.1284 96.216 95.1498 96.088C95.1924 95.96 95.2351 95.832 95.2778 95.704C95.4271 95.384 95.5338 95.0853 95.5978 94.808C95.6618 94.5307 95.6938 94.2213 95.6938 93.88C95.7151 93.752 95.7684 93.56 95.8538 93.304C95.9391 93.048 96.0351 92.7813 96.1418 92.504C96.2484 92.2267 96.3231 92.0133 96.3658 91.864C96.4724 91.544 96.5684 91.224 96.6538 90.904C96.7604 90.5627 96.8884 90.2427 97.0378 89.944C97.0804 89.88 97.1018 89.8373 97.1018 89.816C97.1018 89.7947 97.1124 89.752 97.1338 89.688C97.2404 89.0267 97.3898 88.5147 97.5818 88.152C97.7951 87.768 98.0084 87.3093 98.2218 86.776L98.2538 86.584C98.3391 86.3493 98.4138 86.1573 98.4778 86.008C98.5631 85.8373 98.6484 85.6453 98.7338 85.432C98.7764 85.3253 98.7551 85.2613 98.6698 85.24C98.6058 85.1973 98.6164 85.1333 98.7018 85.048C98.8724 84.8347 98.9364 84.7173 98.8938 84.696C98.8511 84.6747 98.8618 84.5787 98.9258 84.408C99.0751 84.216 99.2244 83.928 99.3738 83.544C99.5444 83.16 99.7044 82.7653 99.8538 82.36C100.003 81.9333 100.12 81.6133 100.206 81.4C100.248 81.2507 100.302 81.1547 100.366 81.112C100.43 81.048 100.536 80.984 100.686 80.92C101.027 80.7707 101.315 80.7493 101.55 80.856C101.784 80.9627 101.955 81.1333 102.062 81.368C102.168 81.6027 102.211 81.8587 102.19 82.136C102.19 82.392 102.126 82.616 101.998 82.808C101.955 82.872 101.923 82.936 101.902 83C101.902 83.0427 101.88 83.1067 101.838 83.192C101.752 83.5547 101.624 83.9067 101.454 84.248C101.283 84.568 101.123 84.9093 100.974 85.272C100.846 85.5707 100.643 86.0827 100.366 86.808C100.11 87.5333 99.8111 88.3867 99.4698 89.368C99.1284 90.328 98.7871 91.3307 98.4458 92.376C98.1044 93.4 97.7844 94.392 97.4858 95.352C97.1871 96.2907 96.9524 97.112 96.7818 97.816C96.6111 98.4987 96.5364 98.968 96.5578 99.224C96.8351 98.9253 97.1018 98.6267 97.3578 98.328C97.6138 98.008 97.8591 97.6987 98.0938 97.4C98.7124 96.6107 99.3631 95.8427 100.046 95.096C100.728 94.328 101.368 93.5493 101.966 92.76C102.307 92.2907 102.67 91.8427 103.054 91.416C103.459 90.9893 103.832 90.5413 104.174 90.072C104.408 89.7733 104.643 89.4853 104.878 89.208C105.134 88.9307 105.368 88.6427 105.582 88.344C106.243 87.4693 106.936 86.616 107.662 85.784C108.387 84.9307 109.091 84.0773 109.774 83.224C109.944 83.0107 110.211 82.7227 110.574 82.36C110.936 81.9973 111.31 81.656 111.694 81.336C112.078 80.9947 112.387 80.7707 112.622 80.664C112.899 80.536 113.166 80.568 113.422 80.76C113.678 80.9307 113.912 81.112 114.126 81.304C114.424 81.6027 114.51 81.9653 114.382 82.392C114.339 82.4987 114.286 82.616 114.222 82.744C114.158 82.8507 114.104 82.9573 114.062 83.064C113.87 83.4267 113.699 83.8 113.55 84.184C113.4 84.5467 113.262 84.92 113.134 85.304C113.006 85.688 112.888 86.0827 112.782 86.488C112.76 86.6373 112.728 86.808 112.686 87C112.643 87.192 112.59 87.3733 112.526 87.544C112.376 87.8853 112.184 88.2587 111.95 88.664C111.736 89.048 111.64 89.4533 111.662 89.88C111.662 90.136 111.608 90.3707 111.502 90.584C111.31 90.968 111.171 91.3733 111.086 91.8C111 92.2267 110.904 92.6533 110.798 93.08C110.627 93.7627 110.446 94.4453 110.254 95.128C110.083 95.8107 109.902 96.4933 109.71 97.176C109.518 97.8587 109.326 98.5413 109.134 99.224C108.92 100.035 108.76 100.877 108.654 101.752C108.547 102.605 108.43 103.448 108.302 104.28ZM125.176 105.528C124.792 105.379 124.472 105.176 124.216 104.92C123.981 104.664 123.906 104.323 123.992 103.896C123.992 103.896 124.077 103.693 124.248 103.288C124.418 102.904 124.621 102.424 124.856 101.848C125.112 101.251 125.357 100.664 125.592 100.088C125.826 99.512 126.029 99.032 126.2 98.648C126.37 98.2427 126.456 98.04 126.456 98.04C126.605 97.656 126.808 97.1333 127.064 96.472C127.341 95.8107 127.608 95.1387 127.864 94.456C128.141 93.752 128.376 93.144 128.568 92.632C128.76 92.12 128.856 91.832 128.856 91.768C129.09 91.2347 129.293 90.6907 129.464 90.136C129.634 89.5813 129.848 89.048 130.104 88.536C130.296 88.1093 130.466 87.7253 130.616 87.384C130.765 87.0213 130.84 86.7013 130.84 86.424C130.84 86.424 130.616 86.6587 130.168 87.128C129.741 87.5973 129.165 88.2267 128.44 89.016C127.714 89.784 126.914 90.6373 126.04 91.576C125.186 92.4933 124.322 93.4213 123.448 94.36C122.594 95.2987 121.805 96.1627 121.08 96.952C120.354 97.72 119.768 98.3387 119.32 98.808C118.872 99.2773 118.648 99.512 118.648 99.512C118.178 99.8747 117.741 100.269 117.336 100.696C116.952 101.101 116.525 101.485 116.056 101.848C115.864 101.997 115.629 102.189 115.352 102.424C115.074 102.637 114.808 102.829 114.552 103C114.296 103.192 114.104 103.288 113.976 103.288C113.357 103.181 112.962 103.011 112.792 102.776C112.621 102.52 112.589 102.211 112.696 101.848C112.802 101.464 112.952 101.016 113.144 100.504C113.25 100.163 113.346 99.8213 113.432 99.48C113.538 99.1173 113.613 98.7653 113.656 98.424C113.805 97.784 113.965 97.1867 114.136 96.632C114.306 96.0773 114.466 95.544 114.616 95.032C114.765 94.5413 114.914 94.0507 115.064 93.56C115.213 93.048 115.298 92.5253 115.32 91.992C115.576 91.5653 115.789 91.1493 115.96 90.744C116.13 90.3173 116.29 89.8907 116.44 89.464C116.589 89.0373 116.76 88.6107 116.952 88.184C117.186 87.672 117.378 87.1493 117.528 86.616C117.698 86.0613 117.901 85.5173 118.135 84.984C118.285 84.6853 118.488 84.2907 118.744 83.8C119 83.3093 119.234 82.808 119.448 82.296C119.682 81.784 119.8 81.3467 119.8 80.984C119.8 80.7493 119.885 80.6213 120.056 80.6C120.226 80.5787 120.418 80.6107 120.632 80.696C120.845 80.7813 121.026 80.888 121.176 81.016C121.346 81.144 121.442 81.24 121.464 81.304C121.528 81.496 121.57 81.6987 121.592 81.912C121.634 82.1253 121.602 82.3493 121.496 82.584L118.84 89.336L115.928 97.048C115.672 97.88 115.522 98.5307 115.48 99C115.458 99.4693 115.597 99.6293 115.896 99.48L122.36 93.016C122.722 92.632 123.074 92.2373 123.416 91.832C123.778 91.4053 124.12 90.9893 124.44 90.584C124.525 90.5413 124.738 90.328 125.08 89.944C125.442 89.56 125.858 89.1013 126.328 88.568C126.797 88.0347 127.245 87.5333 127.672 87.064C128.098 86.5733 128.418 86.2107 128.632 85.976L132.696 81.656L133.304 81.464C133.496 81.4427 133.688 81.5067 133.88 81.656C134.072 81.8053 134.21 81.9973 134.296 82.232C134.402 82.4667 134.402 82.712 134.296 82.968C134.296 82.968 134.189 83.2453 133.976 83.8C133.784 84.3547 133.528 85.0693 133.208 85.944C132.888 86.7973 132.546 87.704 132.184 88.664C131.842 89.624 131.512 90.5307 131.192 91.384C130.872 92.2373 130.605 92.9413 130.392 93.496C130.2 94.0293 130.093 94.296 130.072 94.296C130.093 94.232 130.018 94.4027 129.848 94.808C129.698 95.2133 129.496 95.7467 129.24 96.408C128.984 97.0693 128.717 97.752 128.44 98.456C128.162 99.1387 127.917 99.7467 127.704 100.28C127.512 100.813 127.394 101.155 127.352 101.304C127.266 101.581 127.16 101.859 127.032 102.136C126.925 102.392 126.808 102.648 126.68 102.904C126.53 103.181 126.402 103.469 126.296 103.768C126.21 104.088 126.136 104.397 126.072 104.696C126.008 104.931 125.88 105.144 125.688 105.336C125.496 105.549 125.325 105.613 125.176 105.528ZM126.936 79.832C126.146 79.9173 125.485 79.7253 124.952 79.256C124.418 78.7867 124.002 78.0933 123.704 77.176C123.661 77.0053 123.65 76.856 123.672 76.728C123.693 76.5787 123.736 76.4507 123.8 76.344C123.842 76.2587 123.938 76.1947 124.088 76.152C124.258 76.088 124.386 76.0773 124.472 76.12C124.813 76.248 125.069 76.3867 125.24 76.536C125.432 76.6853 125.549 76.8773 125.592 77.112C125.656 77.2187 125.688 77.3253 125.688 77.432C125.709 77.5387 125.72 77.5813 125.72 77.56C125.848 77.9013 126.008 78.136 126.2 78.264C126.392 78.392 126.69 78.3813 127.096 78.232C127.522 78.0827 127.938 77.912 128.344 77.72C128.77 77.528 129.154 77.2933 129.496 77.016C129.794 76.7813 130.072 76.568 130.328 76.376C130.584 76.184 130.85 75.9813 131.128 75.768L131.16 75.736C131.266 75.672 131.394 75.6507 131.544 75.672C131.693 75.6933 131.778 75.7253 131.8 75.768C131.97 75.9173 132.056 76.0667 132.056 76.216C132.077 76.3653 132.088 76.5253 132.088 76.696L132.056 76.76C132.098 76.888 131.97 77.1333 131.672 77.496C131.373 77.8373 131.021 78.1467 130.616 78.424C130.274 78.6587 129.89 78.872 129.464 79.064C129.058 79.256 128.642 79.4373 128.216 79.608C128.066 79.6933 127.885 79.7467 127.672 79.768C127.48 79.768 127.234 79.7893 126.936 79.832ZM153.977 92.888C153.913 93.0373 153.668 93.1547 153.241 93.24C152.814 93.3253 152.132 93.4213 151.193 93.528C150.916 93.5493 150.5 93.5707 149.945 93.592C149.412 93.6133 148.825 93.6347 148.185 93.656C147.566 93.6773 147.001 93.688 146.489 93.688C145.977 93.6667 145.625 93.6347 145.433 93.592C145.433 93.592 145.38 93.6453 145.273 93.752C145.188 93.8587 145.145 93.9973 145.145 94.168C144.996 94.424 144.804 94.8187 144.569 95.352C144.356 95.8853 144.11 96.472 143.833 97.112C143.577 97.752 143.332 98.392 143.097 99.032C142.884 99.672 142.702 100.227 142.553 100.696C142.404 101.165 142.329 101.485 142.329 101.656C142.137 102.168 142.02 102.605 141.977 102.968C141.934 103.331 141.86 103.544 141.753 103.608C141.732 103.693 141.593 103.715 141.337 103.672C141.081 103.629 140.868 103.512 140.697 103.32C140.441 103.128 140.292 102.957 140.249 102.808C140.228 102.637 140.292 102.317 140.441 101.848C140.505 101.571 140.612 101.165 140.761 100.632C140.932 100.077 141.113 99.4693 141.305 98.808C141.518 98.1467 141.732 97.5067 141.945 96.888C142.18 96.248 142.404 95.7253 142.617 95.32C142.852 94.9147 143.001 94.552 143.065 94.232C143.129 93.8907 143.214 93.5813 143.321 93.304C143.3 93.0693 143.3 92.9093 143.321 92.824C143.342 92.7387 143.428 92.6107 143.577 92.44C143.684 92.3547 143.812 92.2053 143.961 91.992C144.132 91.7573 144.324 91.4053 144.537 90.936C144.601 90.7227 144.697 90.4347 144.825 90.072C144.974 89.688 145.113 89.304 145.241 88.92C145.369 88.5147 145.486 88.1733 145.593 87.896C145.7 87.6187 145.753 87.4693 145.753 87.448C145.796 87.3627 145.86 87.2027 145.945 86.968C146.03 86.712 146.094 86.5093 146.137 86.36C146.222 86.0613 146.286 85.816 146.329 85.624C146.393 85.432 146.382 85.336 146.297 85.336C146.126 85.3787 145.785 85.4107 145.273 85.432C145.017 85.4747 144.825 85.5067 144.697 85.528C144.59 85.528 144.494 85.5387 144.409 85.56C144.196 85.5813 144.004 85.56 143.833 85.496C143.662 85.432 143.577 85.304 143.577 85.112C143.62 84.7707 143.737 84.4933 143.929 84.28C144.142 84.0453 144.409 83.9173 144.729 83.896C144.878 83.8533 145.038 83.8213 145.209 83.8C145.401 83.7573 145.657 83.6933 145.977 83.608C146.382 83.5227 146.692 83.4587 146.905 83.416C147.14 83.352 147.321 83.3413 147.449 83.384C147.556 83.32 147.652 83.256 147.737 83.192C147.822 83.1067 147.865 83.0213 147.865 82.936C147.865 82.8293 147.908 82.7547 147.993 82.712C148.1 82.648 148.217 82.616 148.345 82.616C148.473 82.5947 148.601 82.6053 148.729 82.648C148.878 82.6907 148.985 82.7653 149.049 82.872C149.092 82.936 149.188 82.9893 149.337 83.032C149.486 83.0747 149.753 83.0747 150.137 83.032C150.542 82.968 151.108 82.8613 151.833 82.712C152.217 82.6693 152.697 82.6267 153.273 82.584C153.87 82.5413 154.34 82.5733 154.681 82.68C155.044 82.616 155.364 82.5947 155.641 82.616C155.94 82.616 156.142 82.5733 156.249 82.488C156.697 82.5733 157.017 82.6373 157.209 82.68C157.422 82.7013 157.593 82.7653 157.721 82.872C157.806 82.9573 157.828 83.0427 157.785 83.128C157.764 83.192 157.753 83.224 157.753 83.224C157.668 83.1813 157.678 83.192 157.785 83.256C157.892 83.2987 157.966 83.3413 158.009 83.384C158.158 83.448 158.254 83.5333 158.297 83.64C158.34 83.7253 158.361 83.8107 158.361 83.896C158.361 83.9813 158.35 84.056 158.329 84.12C158.308 84.312 158.201 84.4293 158.009 84.472C157.817 84.4933 157.337 84.4933 156.569 84.472C155.652 84.344 154.745 84.3013 153.849 84.344C152.974 84.3653 151.95 84.4613 150.777 84.632C150.35 84.6533 149.966 84.7173 149.625 84.824C149.305 84.9093 149.124 84.952 149.081 84.952C148.996 84.952 148.846 85.1013 148.633 85.4C148.42 85.6773 148.217 86.0933 148.025 86.648C147.94 86.7973 147.79 87.1387 147.577 87.672C147.364 88.2053 147.129 88.7813 146.873 89.4C146.638 90.0187 146.425 90.5627 146.233 91.032C146.062 91.5013 145.956 91.7573 145.913 91.8C146.212 91.8853 146.692 91.928 147.353 91.928C148.036 91.928 148.782 91.9067 149.593 91.864C150.425 91.8 151.182 91.736 151.865 91.672C152.185 91.608 152.516 91.5547 152.857 91.512C153.22 91.448 153.454 91.4373 153.561 91.48C153.668 91.544 153.764 91.672 153.849 91.864C153.934 92.0347 153.988 92.216 154.009 92.408C154.052 92.6 154.041 92.76 153.977 92.888ZM156.956 103.8C156.85 103.8 156.722 103.747 156.572 103.64C156.423 103.555 156.284 103.437 156.156 103.288C156.05 103.139 155.996 102.979 155.996 102.808C155.996 102.808 155.986 102.744 155.964 102.616C155.964 102.467 155.922 102.317 155.836 102.168C155.836 101.997 155.836 101.805 155.836 101.592C155.858 101.357 155.911 101.123 155.996 100.888C155.996 100.653 156.028 100.397 156.092 100.12C156.156 99.8213 156.231 99.5973 156.316 99.448C156.316 99.2133 156.37 98.9147 156.476 98.552C156.604 98.168 156.711 97.816 156.796 97.496C157.031 96.792 157.202 96.28 157.308 95.96C157.436 95.64 157.522 95.4053 157.564 95.256C157.607 95.0853 157.628 94.9147 157.628 94.744C157.692 94.5733 157.788 94.264 157.916 93.816C158.044 93.368 158.172 92.9093 158.3 92.44C158.45 91.9493 158.546 91.5973 158.588 91.384C158.674 91.2987 158.716 91.224 158.716 91.16C158.738 91.0747 158.748 90.9893 158.748 90.904C158.748 90.904 158.823 90.6587 158.972 90.168C159.122 89.6773 159.314 89.112 159.548 88.472C159.932 87.3413 160.188 86.52 160.316 86.008C160.466 85.496 160.53 85.1333 160.508 84.92C160.508 84.7067 160.455 84.4933 160.348 84.28C160.199 84.0027 160.199 83.7893 160.348 83.64C160.434 83.5547 160.508 83.4587 160.572 83.352C160.636 83.224 160.668 83.16 160.668 83.16C160.668 83.1173 160.807 83.0427 161.084 82.936C161.362 82.8293 161.703 82.712 162.108 82.584C162.514 82.4347 162.919 82.296 163.324 82.168C163.751 82.04 164.103 81.9333 164.38 81.848C164.444 81.848 164.54 81.848 164.668 81.848C164.818 81.848 164.978 81.848 165.148 81.848C165.34 81.848 165.522 81.848 165.692 81.848C166.247 81.9333 166.812 82.0933 167.388 82.328C167.986 82.5627 168.487 82.8933 168.892 83.32C169.148 83.5547 169.372 83.832 169.564 84.152C169.778 84.472 170.044 84.9947 170.364 85.72C170.364 85.8053 170.386 85.9867 170.428 86.264C170.492 86.52 170.524 86.776 170.524 87.032C170.524 87.672 170.364 88.344 170.044 89.048C169.724 89.752 169.266 90.4667 168.668 91.192C168.071 91.896 167.346 92.6 166.492 93.304C165.596 94.0293 164.668 94.52 163.708 94.776C162.748 95.032 161.895 95.0853 161.148 94.936C160.999 94.872 160.86 94.744 160.732 94.552C160.626 94.36 160.551 94.168 160.508 93.976C160.466 93.784 160.476 93.656 160.54 93.592C160.711 93.5493 160.967 93.5387 161.308 93.56C161.65 93.56 162.194 93.4213 162.94 93.144C163.175 93.0587 163.42 92.9627 163.676 92.856C163.932 92.728 164.135 92.6213 164.284 92.536C164.711 92.2587 165.202 91.8853 165.756 91.416C166.311 90.9467 166.823 90.3387 167.292 89.592C167.484 89.2933 167.676 88.9413 167.868 88.536C168.06 88.1093 168.22 87.6827 168.348 87.256C168.498 86.8293 168.572 86.4773 168.572 86.2C168.743 85.6453 168.636 85.1867 168.252 84.824C167.89 84.44 167.303 84.2053 166.492 84.12C166.236 84.056 165.842 84.0773 165.308 84.184C164.775 84.2693 164.263 84.3867 163.772 84.536C163.282 84.6853 162.951 84.8133 162.78 84.92C162.695 84.92 162.642 84.984 162.62 85.112C162.599 85.24 162.546 85.3893 162.46 85.56C162.46 85.7093 162.396 86.0293 162.268 86.52C162.14 86.9893 161.991 87.4267 161.82 87.832C161.671 88.3013 161.49 88.824 161.276 89.4C161.063 89.9547 160.914 90.392 160.828 90.712C160.743 91.0533 160.636 91.384 160.508 91.704C160.402 92.024 160.348 92.184 160.348 92.184C160.348 92.2693 160.284 92.4507 160.156 92.728C160.05 93.0053 159.954 93.304 159.868 93.624C159.783 94.0293 159.666 94.488 159.516 95C159.388 95.512 159.239 95.9707 159.068 96.376C158.834 97.1653 158.631 97.9547 158.46 98.744C158.29 99.512 158.279 100.013 158.428 100.248C158.663 100.248 158.748 100.44 158.684 100.824C158.62 101.187 158.428 101.688 158.108 102.328C157.895 102.861 157.735 103.224 157.628 103.416C157.522 103.629 157.426 103.747 157.34 103.768C157.255 103.789 157.127 103.8 156.956 103.8ZM177.857 103.672C176.982 103.885 176.076 103.875 175.137 103.64C174.22 103.405 173.409 102.989 172.705 102.392C172.001 101.795 171.51 101.069 171.233 100.216C171.148 99.9813 171.073 99.768 171.009 99.576C170.966 99.384 170.988 99.288 171.073 99.288C171.286 99.288 171.297 99.1813 171.105 98.968C171.041 98.8827 171.009 98.744 171.009 98.552C171.03 98.36 171.073 98.1787 171.137 98.008C171.222 97.8373 171.318 97.752 171.425 97.752C171.574 97.752 171.734 97.8053 171.905 97.912C172.076 98.0187 172.204 98.136 172.289 98.264C172.396 98.3707 172.406 98.456 172.321 98.52C172.321 98.52 172.364 98.6373 172.449 98.872C172.534 99.0853 172.556 99.3413 172.513 99.64C172.705 99.96 172.865 100.227 172.993 100.44C173.121 100.632 173.388 100.845 173.793 101.08C174.07 101.293 174.316 101.453 174.529 101.56C174.742 101.667 175.116 101.731 175.649 101.752C175.99 101.752 176.268 101.709 176.481 101.624C176.694 101.539 176.886 101.389 177.057 101.176C177.249 100.963 177.473 100.675 177.729 100.312C177.793 99.9067 177.708 99.256 177.473 98.36C177.26 97.464 176.94 96.4187 176.513 95.224C176.086 94.008 175.574 92.7387 174.977 91.416C174.849 91.1813 174.732 90.936 174.625 90.68C174.54 90.424 174.497 90.296 174.497 90.296C174.561 89.8907 174.54 89.5173 174.433 89.176C174.305 89.0693 174.23 88.824 174.209 88.44C174.209 88.0347 174.188 87.672 174.145 87.352C174.188 86.8827 174.23 86.52 174.273 86.264C174.316 86.008 174.454 85.7093 174.689 85.368C175.308 84.472 176.065 83.7253 176.961 83.128C177.857 82.5093 178.998 82.0933 180.385 81.88C180.62 81.8373 180.918 81.816 181.281 81.816C181.644 81.7947 182.017 81.8053 182.401 81.848C182.785 81.8693 183.126 81.912 183.425 81.976C183.745 82.0187 183.98 82.0933 184.129 82.2C184.641 82.456 185.046 82.7333 185.345 83.032C185.644 83.3307 185.9 83.672 186.113 84.056C186.22 84.2907 186.284 84.472 186.305 84.6C186.348 84.7067 186.348 84.8133 186.305 84.92C186.262 85.0267 186.177 85.1867 186.049 85.4C185.942 85.528 185.761 85.6773 185.505 85.848C185.27 86.0187 184.993 86.1893 184.673 86.36C184.374 86.5307 184.054 86.6907 183.713 86.84C183.393 86.968 183.094 87.0533 182.817 87.096C182.625 87.1813 182.508 87.224 182.465 87.224C182.444 87.224 182.433 87.1813 182.433 87.096C182.497 86.968 182.508 86.872 182.465 86.808C182.444 86.744 182.433 86.712 182.433 86.712C182.156 86.712 182.092 86.5947 182.241 86.36C182.412 86.1253 182.7 85.7627 183.105 85.272C183.489 84.8453 183.734 84.5573 183.841 84.408C183.969 84.2373 183.98 84.0987 183.873 83.992C183.745 83.9067 183.489 83.8427 183.105 83.8C182.721 83.7573 182.305 83.7467 181.857 83.768C181.43 83.768 181.046 83.8 180.705 83.864C179.638 84.184 178.7 84.6427 177.889 85.24C177.1 85.8373 176.62 86.4987 176.449 87.224C176.3 87.544 176.225 87.832 176.225 88.088C176.246 88.344 176.342 88.7493 176.513 89.304C176.556 89.8373 176.598 90.2533 176.641 90.552C176.705 90.8507 176.737 91.0213 176.737 91.064C176.737 91.1493 176.758 91.2773 176.801 91.448C176.844 91.5973 176.876 91.8747 176.897 92.28C176.94 92.4293 177.046 92.632 177.217 92.888C177.388 93.1227 177.676 93.3893 178.081 93.688C178.124 94.1573 178.198 94.5627 178.305 94.904C178.433 95.224 178.508 95.5333 178.529 95.832C178.956 96.6853 179.276 97.5387 179.489 98.392C179.724 99.2453 179.862 99.9493 179.905 100.504C179.948 101.059 179.894 101.336 179.745 101.336C179.724 101.336 179.713 101.368 179.713 101.432C179.713 101.496 179.724 101.528 179.745 101.528C179.745 101.656 179.67 101.816 179.521 102.008C179.372 102.2 179.19 102.413 178.977 102.648C178.764 102.861 178.55 103.053 178.337 103.224C178.145 103.416 177.985 103.565 177.857 103.672ZM189.516 94.616C189.11 94.7653 188.769 94.84 188.492 94.84C188.236 94.8187 187.948 94.6907 187.628 94.456C187.222 94.072 187.084 93.688 187.212 93.304C187.361 92.8987 187.713 92.504 188.268 92.12C188.652 91.8853 188.929 91.7573 189.1 91.736C189.292 91.7147 189.58 91.7893 189.964 91.96C190.604 92.3653 190.881 92.8133 190.796 93.304C190.732 93.7947 190.305 94.232 189.516 94.616ZM187.276 101.336C186.87 101.485 186.529 101.56 186.252 101.56C185.996 101.539 185.708 101.411 185.388 101.176C184.982 100.792 184.844 100.408 184.972 100.024C185.121 99.6187 185.473 99.224 186.028 98.84C186.412 98.6053 186.689 98.4773 186.86 98.456C187.052 98.4347 187.34 98.5093 187.724 98.68C188.364 99.0853 188.641 99.5333 188.556 100.024C188.492 100.515 188.065 100.952 187.276 101.336ZM195.211 102.04C194.731 101.693 194.491 101.4 194.491 101.16C194.385 101 194.265 100.92 194.131 100.92C194.051 100.947 193.971 100.867 193.891 100.68C193.838 100.493 193.785 100.28 193.731 100.04C193.705 99.7733 193.705 99.5867 193.731 99.48C193.838 99.2667 193.998 99.1467 194.211 99.12C194.425 99.0667 194.625 99.0933 194.811 99.2C195.025 99.28 195.145 99.4267 195.171 99.64C195.225 99.8533 195.425 100.027 195.771 100.16C196.145 100.293 196.625 100.347 197.211 100.32C197.958 100.293 198.731 100.107 199.531 99.76C200.358 99.4133 201.118 98.9733 201.811 98.44C202.531 97.9067 203.105 97.36 203.531 96.8C203.718 96.4267 203.891 95.9333 204.051 95.32C204.211 94.7067 204.318 94.16 204.371 93.68C204.425 93.2 204.385 92.96 204.251 92.96C204.251 92.96 204.225 92.8667 204.171 92.68C204.145 92.4933 204.091 92.2933 204.011 92.08C203.878 91.68 203.571 91.28 203.091 90.88C202.611 90.4533 202.145 90.1467 201.691 89.96C201.505 89.9067 201.158 89.8667 200.651 89.84C200.171 89.7867 199.731 89.7867 199.331 89.84C198.905 89.8667 198.518 89.8667 198.171 89.84C197.851 89.8133 197.691 89.8 197.691 89.8C197.558 89.7733 197.358 89.6667 197.091 89.48C196.851 89.2933 196.625 89.0933 196.411 88.88C196.198 88.6667 196.091 88.4933 196.091 88.36C196.145 88.1733 196.278 87.88 196.491 87.48C196.705 87.0533 196.958 86.5867 197.251 86.08C197.571 85.5467 197.905 85.0533 198.251 84.6C198.598 84.12 198.931 83.72 199.251 83.4C200.051 82.52 200.958 81.8667 201.971 81.44C203.011 80.9867 204.078 80.7867 205.171 80.84C205.945 80.8667 206.491 80.9333 206.811 81.04C207.158 81.12 207.491 81.3733 207.811 81.8C208.025 82.1733 208.118 82.5067 208.091 82.8C208.065 83.0933 207.958 83.2933 207.771 83.4C207.585 83.5067 207.331 83.48 207.011 83.32C206.638 83.08 206.118 82.9867 205.451 83.04C204.811 83.0933 204.131 83.2267 203.411 83.44C202.851 83.6533 202.251 84 201.611 84.48C200.998 84.9333 200.625 85.3067 200.491 85.6C200.385 85.68 200.305 85.76 200.251 85.84C200.225 85.92 200.158 85.9467 200.051 85.92C200.051 85.92 200.011 85.9733 199.931 86.08C199.851 86.16 199.811 86.2533 199.811 86.36C199.678 86.52 199.585 86.64 199.531 86.72C199.505 86.7733 199.438 86.7467 199.331 86.64C199.331 86.64 199.331 86.68 199.331 86.76C199.331 86.84 199.318 86.9333 199.291 87.04C199.265 87.2267 199.278 87.3867 199.331 87.52C199.411 87.6267 199.705 87.7067 200.211 87.76C200.878 87.8667 201.385 87.9733 201.731 88.08C202.078 88.16 202.585 88.4 203.251 88.8C203.998 89.2267 204.598 89.8 205.051 90.52C205.505 91.2133 205.811 92 205.971 92.88C206.158 93.76 206.185 94.6533 206.051 95.56C205.971 96.1467 205.891 96.6 205.811 96.92C205.731 97.24 205.505 97.68 205.131 98.24C204.518 99.0933 203.771 99.8533 202.891 100.52C202.011 101.16 201.091 101.667 200.131 102.04C199.171 102.387 198.251 102.573 197.371 102.6C196.518 102.627 195.798 102.44 195.211 102.04ZM216.259 102.36C215.592 102.36 214.939 102.293 214.299 102.16C213.686 102 213.192 101.8 212.819 101.56C212.446 101.293 212.272 101 212.299 100.68C212.326 100.253 212.419 100.027 212.579 100C212.739 99.9467 213.112 99.96 213.699 100.04C214.606 100.227 215.579 100.24 216.619 100.08C217.659 99.92 218.632 99.64 219.539 99.24C220.446 98.84 221.152 98.3867 221.659 97.88C222.379 97.1867 222.699 96.4933 222.619 95.8C222.566 95.1067 222.152 94.5067 221.379 94C221.032 93.76 220.552 93.5333 219.939 93.32C219.326 93.1067 218.712 92.9467 218.099 92.84C217.512 92.7067 217.032 92.6533 216.659 92.68C216.419 92.7067 216.219 92.7067 216.059 92.68C215.926 92.6533 215.686 92.5467 215.339 92.36C215.179 92.1733 215.032 91.9733 214.899 91.76C214.766 91.52 214.672 91.3467 214.619 91.24C214.592 91.1067 214.659 90.9733 214.819 90.84C215.006 90.7067 215.392 90.48 215.979 90.16C216.566 89.8133 217.472 89.3067 218.699 88.64C219.819 88.0267 220.699 87.5333 221.339 87.16C222.006 86.76 222.526 86.44 222.899 86.2C223.299 85.9333 223.619 85.6933 223.859 85.48C224.339 84.84 224.579 84.4267 224.579 84.24C224.579 84.0533 224.232 83.8933 223.539 83.76C222.872 83.7067 222.232 83.6667 221.619 83.64C221.006 83.6133 220.699 83.6533 220.699 83.76C220.699 83.76 220.686 83.76 220.659 83.76C220.659 83.76 220.619 83.76 220.539 83.76C220.406 83.7067 220.112 83.72 219.659 83.8C219.206 83.88 218.766 83.9733 218.339 84.08C217.939 84.1867 217.726 84.28 217.699 84.36C217.672 84.4133 217.512 84.5067 217.219 84.64C216.952 84.7467 216.672 84.84 216.379 84.92C216.112 85 215.939 85.04 215.859 85.04C215.726 84.9867 215.566 84.8533 215.379 84.64C215.219 84.4 215.086 84.16 214.979 83.92C214.872 83.6533 214.846 83.4533 214.899 83.32C214.952 83.2133 215.112 83.08 215.379 82.92C215.672 82.7333 216.006 82.5467 216.379 82.36C216.752 82.1467 217.086 81.9733 217.379 81.84C217.752 81.7333 218.272 81.6533 218.939 81.6C219.632 81.5467 220.326 81.52 221.019 81.52C221.712 81.4933 222.219 81.4933 222.539 81.52C223.766 81.6533 224.712 81.9733 225.379 82.48C226.046 82.9867 226.459 83.6667 226.619 84.52C226.699 84.8933 226.726 85.2 226.699 85.44C226.672 85.68 226.552 85.9333 226.339 86.2C226.126 86.44 225.752 86.8 225.219 87.28C224.552 87.7067 224.006 88.0667 223.579 88.36C223.152 88.6533 222.512 89.0267 221.659 89.48C221.472 89.6133 221.219 89.7867 220.899 90C220.579 90.2133 220.286 90.4133 220.019 90.6C219.752 90.76 219.619 90.8667 219.619 90.92C219.619 90.92 219.672 90.96 219.779 91.04C219.886 91.0933 220.019 91.1733 220.179 91.28C220.339 91.3867 220.486 91.5067 220.619 91.64C221.392 91.9067 222.099 92.3333 222.739 92.92C223.379 93.5067 223.832 93.9867 224.099 94.36C224.472 95.1867 224.619 95.9867 224.539 96.76C224.486 97.5333 224.219 98.2667 223.739 98.96C223.259 99.6267 222.552 100.24 221.619 100.8C220.872 101.227 220.006 101.587 219.019 101.88C218.032 102.147 217.112 102.307 216.259 102.36Z" fill="white"/>
<path d="M45 142C80.241 133.181 172.579 116.561 260 120.631" stroke="#91FF6A" stroke-width="2" stroke-linecap="round"/>
<path d="M215 44.5424C261.98 44.5424 300.51 27.1358 324 2.5" stroke="white" stroke-width="2" stroke-linecap="round"/>
<path d="M282.031 3.29171C288.345 5.89133 305.238 9.0687 323.442 1.65908C324.147 1.37242 324.919 1.92592 324.842 2.68239C323.985 11.0897 321.721 22.2961 307.24 40.5319" stroke="white" stroke-width="2" stroke-linecap="round"/>
</svg>
