<svg width="261" height="142" viewBox="0 0 261 142" fill="none" xmlns="http://www.w3.org/2000/svg">
<path d="M6.36 60.84C5.64 60.3067 5.08 59.5467 4.68 58.56C4.30667 57.5467 4.13333 56.6133 4.16 55.76C4.13333 54.1067 4.26667 52.4 4.56 50.64C4.88 48.88 5.29333 47.24 5.8 45.72C6.14667 44.76 6.52 43.7867 6.92 42.8C7.32 41.8133 7.73333 40.88 8.16 40C8.58667 39.0933 9 38.3333 9.4 37.72C10.2267 36.3067 11.0667 35.1733 11.92 34.32C12.8 33.4667 13.4667 32.9067 13.92 32.64C14.6667 32.2667 15.56 31.9867 16.6 31.8C17.64 31.5867 18.6533 31.5867 19.64 31.8C20.3333 31.9867 21.0133 32.2533 21.68 32.6C22.3733 32.9467 22.9733 33.3733 23.48 33.88C23.7733 34.1467 24 34.4267 24.16 34.72C24.32 35.0133 24.4 35.32 24.4 35.64C24.4 36.04 24.2133 36.4267 23.84 36.8C23.4667 37.1733 23.0533 37.4267 22.6 37.56C22.1467 37.6933 21.8 37.6133 21.56 37.32C21.2133 36.7867 20.88 36.3867 20.56 36.12C20.24 35.8267 19.9067 35.6133 19.56 35.48C19.2667 35.2933 18.8667 35.2 18.36 35.2C17.88 35.2 17.36 35.2933 16.8 35.48C16.24 35.64 15.7067 35.9333 15.2 36.36C15.0133 36.52 14.76 36.7467 14.44 37.04C14.1467 37.3333 13.8267 37.6933 13.48 38.12C13.16 38.52 12.8667 38.96 12.6 39.44C11.8533 40.6667 11.2133 41.92 10.68 43.2C10.1733 44.4533 9.72 45.8267 9.32 47.32C9.13333 47.9333 8.93333 48.6933 8.72 49.6C8.50667 50.48 8.30667 51.36 8.12 52.24C7.96 53.12 7.85333 53.8933 7.8 54.56C7.72 55.4933 7.74667 56.2267 7.88 56.76C8.01333 57.2933 8.29333 57.6533 8.72 57.84C9.14667 58 9.74667 57.9867 10.52 57.8C11.2133 57.64 11.9067 57.3733 12.6 57C13.32 56.6 14.0133 56.1067 14.68 55.52C15.3467 54.9067 15.9467 54.1867 16.48 53.36C16.96 52.4533 17.3467 51.6267 17.64 50.88C17.96 50.1333 18.12 49.5467 18.12 49.12C18.1467 48.6667 17.92 48.4533 17.44 48.48C16.3467 48.5067 15.4667 48.4667 14.8 48.36C14.16 48.2533 13.72 47.9867 13.48 47.56C13.1333 47.48 12.9467 47.1867 12.92 46.68C12.92 46.1733 13.1733 45.76 13.68 45.44C14.1333 45.2 14.76 45.0533 15.56 45C16.36 44.9467 17.1733 44.9733 18 45.08C18.8533 45.16 19.5333 45.3467 20.04 45.64C20.6267 45.9333 21.0267 46.3733 21.24 46.96C21.48 47.52 21.6 48.12 21.6 48.76C21.6267 49.4 21.5867 50 21.48 50.56C21.24 51.4933 20.9067 52.4 20.48 53.28C20.08 54.16 19.5333 55.0533 18.84 55.96C18.44 56.52 17.8933 57.1067 17.2 57.72C16.5067 58.3333 15.7733 58.88 15 59.36C14.2533 59.8667 13.5467 60.2667 12.88 60.56C11.8133 61.04 10.6933 61.3867 9.52 61.6C8.37333 61.8133 7.32 61.56 6.36 60.84ZM31.0456 60.68C30.939 60.7867 30.819 60.8267 30.6856 60.8C30.5523 60.8 30.339 60.7333 30.0456 60.6C29.539 60.4667 29.0856 60.1733 28.6856 59.72C28.3123 59.2667 28.259 58.7467 28.5256 58.16C28.6323 57.9733 28.7656 57.5733 28.9256 56.96C29.1123 56.32 29.3123 55.5867 29.5256 54.76C29.739 53.9333 29.9523 53.1067 30.1656 52.28C30.379 51.4533 30.5656 50.7333 30.7256 50.12C30.8856 49.48 30.9923 49.0533 31.0456 48.84C31.0456 48.6267 31.099 48.2 31.2056 47.56C31.339 46.92 31.459 46.2 31.5656 45.4C31.859 44.84 32.059 44.2267 32.1656 43.56C32.299 42.8933 32.3923 42.4133 32.4456 42.12C32.5523 41.6933 32.6723 41.24 32.8056 40.76C32.9656 40.28 33.099 39.8 33.2056 39.32C33.3123 38.8933 33.419 38.4533 33.5256 38C33.659 37.5467 33.7256 37.2533 33.7256 37.12V36.48H32.2456C31.8456 36.5067 31.3923 36.5067 30.8856 36.48C30.379 36.4533 29.819 36.44 29.2056 36.44C27.9523 36.3867 27.1123 36.2667 26.6856 36.08C26.2856 35.8667 26.059 35.4667 26.0056 34.88C25.9523 34.56 26.019 34.28 26.2056 34.04C26.3923 33.7733 26.8323 33.56 27.5256 33.4C28.219 33.24 29.2856 33.1867 30.7256 33.24C31.8456 33.1867 32.7256 33.1867 33.3656 33.24C34.0056 33.2667 34.379 33.28 34.4856 33.28C34.5923 33.1733 34.659 33.0667 34.6856 32.96C34.7123 32.8533 34.7523 32.7467 34.8056 32.64C34.8056 32.5067 34.819 32.36 34.8456 32.2C34.899 32.0133 35.0323 31.88 35.2456 31.8C35.459 31.4 35.859 31.24 36.4456 31.32C37.059 31.3733 37.5123 31.6133 37.8056 32.04C37.9123 32.28 37.939 32.5333 37.8856 32.8C37.859 33.0667 37.939 33.3067 38.1256 33.52C38.2323 33.4133 38.5123 33.3467 38.9656 33.32C39.419 33.2933 39.899 33.2667 40.4056 33.24C41.019 33.24 41.5656 33.2267 42.0456 33.2C42.5256 33.1467 42.859 33.12 43.0456 33.12C43.2856 32.9867 43.5923 32.92 43.9656 32.92C44.3656 32.92 44.7656 32.9467 45.1656 33C45.779 33 46.2056 33.16 46.4456 33.48C46.7123 33.7733 46.8856 33.9867 46.9656 34.12C46.9656 34.2267 46.9656 34.3333 46.9656 34.44C46.9923 34.5467 47.059 34.6533 47.1656 34.76C47.2723 34.8667 47.3256 34.9467 47.3256 35C47.3256 35.0267 47.2723 35.1467 47.1656 35.36C47.059 35.4667 46.8723 35.56 46.6056 35.64C46.339 35.6933 46.0456 35.72 45.7256 35.72C45.539 35.72 45.219 35.7467 44.7656 35.8C44.3123 35.8267 43.9256 35.84 43.6056 35.84C42.9923 35.9467 42.3923 36.04 41.8056 36.12C41.219 36.1733 40.459 36.2267 39.5256 36.28C39.1256 36.28 38.7523 36.3067 38.4056 36.36C38.059 36.3867 37.8856 36.4667 37.8856 36.6C37.779 36.6 37.6323 36.88 37.4456 37.44C37.2856 38 37.1256 38.5867 36.9656 39.2C36.8056 39.8933 36.6323 40.4933 36.4456 41C36.2856 41.5067 36.1523 41.84 36.0456 42C36.1523 42.1067 36.1923 42.24 36.1656 42.4C36.1656 42.56 36.0856 42.84 35.9256 43.24C35.819 43.6133 35.7123 43.9067 35.6056 44.12C35.5256 44.3333 35.4856 44.5467 35.4856 44.76C35.4856 44.76 35.419 44.9733 35.2856 45.4C35.179 45.8 35.0723 46.3067 34.9656 46.92C34.9123 47.5067 34.8323 48 34.7256 48.4C34.6456 48.8 34.5523 49.0533 34.4456 49.16C34.4456 49.16 34.3923 49.2533 34.2856 49.44C34.179 49.6 34.1256 49.7867 34.1256 50C34.1256 50.24 34.0723 50.64 33.9656 51.2C33.8856 51.7333 33.7923 52.24 33.6856 52.72C33.579 53.2 33.4856 53.4667 33.4056 53.52C33.6723 53.5733 33.6323 53.9333 33.2856 54.6C33.2856 54.8667 33.2456 55.1333 33.1656 55.4C33.0856 55.6667 33.0456 55.8533 33.0456 55.96C32.8856 56.4667 32.659 57.08 32.3656 57.8C32.0723 58.52 31.7923 59.16 31.5256 59.72C31.2856 60.28 31.1256 60.6 31.0456 60.68ZM38.5338 60.32C38.0538 60.0533 37.7871 59.76 37.7338 59.44C37.7071 59.12 37.8938 58.56 38.2938 57.76C38.6938 56.96 39.3204 55.72 40.1738 54.04C40.8138 52.84 41.2404 51.9067 41.4538 51.24C41.6938 50.5467 41.8271 50.0533 41.8538 49.76C41.8804 49.4667 41.8938 49.28 41.8938 49.2C41.8404 48.96 41.8671 48.7733 41.9737 48.64C42.0804 48.48 42.2538 48.3467 42.4938 48.24C42.6271 48.1067 42.9338 47.8667 43.4138 47.52C43.8938 47.1733 44.2671 46.76 44.5338 46.28C44.7738 45.72 45.0404 45.1467 45.3338 44.56C45.6538 43.9733 46.0671 43.24 46.5738 42.36C47.0804 41.4533 47.7604 40.28 48.6138 38.84C49.1471 37.9067 49.7738 36.8533 50.4938 35.68C51.2404 34.5067 51.9738 33.44 52.6938 32.48C52.9871 32.1067 53.2938 31.8133 53.6138 31.6C53.9338 31.3867 54.2138 31.28 54.4538 31.28C55.0404 31.28 55.6271 31.44 56.2138 31.76C56.8004 32.0533 57.3204 32.4267 57.7738 32.88C58.2271 33.3333 58.5338 33.76 58.6937 34.16C58.8271 34.3733 58.8804 34.8267 58.8538 35.52C58.8271 36.2133 58.7738 37.0533 58.6937 38.04C58.6138 39.0267 58.5204 40.08 58.4138 41.2C58.3338 42.2933 58.2138 43.5867 58.0538 45.08C57.8938 46.5733 57.7338 48.1333 57.5738 49.76C57.4404 51.3867 57.3338 52.96 57.2538 54.48C57.1738 55.9733 57.1738 57.28 57.2538 58.4C57.2804 58.64 57.2804 58.8667 57.2538 59.08C57.2271 59.2933 57.2137 59.4667 57.2137 59.6C57.0538 59.76 56.7071 59.8267 56.1738 59.8C55.6404 59.8 55.1204 59.72 54.6138 59.56C54.1071 59.4 53.8271 59.2 53.7738 58.96C53.6938 58.88 53.6404 58.8133 53.6138 58.76C53.5871 58.7067 53.5871 58.4533 53.6138 58C53.6404 57.52 53.6804 56.6533 53.7338 55.4L53.9338 49.28L53.4138 49.32C53.1738 49.32 52.7338 49.3467 52.0938 49.4C51.4804 49.4533 50.8004 49.5333 50.0538 49.64C49.3338 49.72 48.6671 49.8133 48.0538 49.92C47.4404 50 47.0138 50.08 46.7738 50.16C46.5338 50.16 46.2404 50.32 45.8938 50.64C45.5738 50.96 45.2671 51.3733 44.9738 51.88C44.8671 52.2533 44.6671 52.6533 44.3738 53.08C44.1071 53.48 43.9738 53.7467 43.9738 53.88C43.7871 54.0133 43.6271 54.1733 43.4938 54.36C43.3871 54.5467 43.3338 54.64 43.3338 54.64C43.3338 54.8 43.2138 55.2 42.9738 55.84C42.7338 56.4533 42.4404 57.1467 42.0938 57.92C41.7471 58.6667 41.3871 59.32 41.0138 59.88L39.9338 61.4L38.5338 60.32ZM48.0938 46.56C48.0938 46.56 48.2404 46.5333 48.5338 46.48C48.8271 46.4267 49.1738 46.3733 49.5738 46.32C50.0004 46.24 50.3738 46.2 50.6938 46.2C51.3071 46.04 51.8138 45.92 52.2138 45.84C52.6404 45.76 52.9871 45.72 53.2538 45.72C53.5204 45.6933 53.7338 45.72 53.8938 45.8C54.0004 45.9333 54.0938 46.0133 54.1738 46.04C54.2804 46.0667 54.3338 46.08 54.3338 46.08C54.3604 46.0267 54.4138 45.7467 54.4938 45.24C54.5738 44.7333 54.6671 44.1067 54.7738 43.36C54.8804 42.6133 54.9871 41.84 55.0938 41.04C55.2004 40.2133 55.2938 39.4533 55.3738 38.76C55.4538 38.04 55.5071 37.48 55.5338 37.08C55.5604 36.5733 55.5471 36.12 55.4938 35.72C55.4404 35.2933 55.4138 35.08 55.4138 35.08C55.2538 35.08 54.9471 35.3733 54.4938 35.96C54.0671 36.52 53.5604 37.28 52.9738 38.24C52.4138 39.1733 51.8538 40.1867 51.2938 41.28C51.0271 41.7867 50.7738 42.1867 50.5338 42.48C50.3204 42.7733 50.1471 42.92 50.0138 42.92C49.9604 42.9733 49.8138 43.1867 49.5738 43.56C49.3604 43.9067 49.1204 44.3067 48.8538 44.76C48.6138 45.1867 48.4004 45.5867 48.2138 45.96C48.0538 46.3067 48.0138 46.5067 48.0938 46.56ZM73.0509 58.36C72.5709 58.0133 72.3309 57.72 72.3309 57.48C72.2243 57.32 72.1043 57.24 71.9709 57.24C71.8909 57.2667 71.8109 57.1333 71.7309 56.84C71.6776 56.5467 71.6243 56.2267 71.5709 55.88C71.5443 55.5333 71.5443 55.3067 71.5709 55.2C71.6776 54.9867 71.8776 54.8267 72.1709 54.72C72.4909 54.6133 72.7976 54.5733 73.0909 54.6C73.4109 54.6 73.5843 54.7067 73.6109 54.92C73.6643 55.1333 73.8643 55.3067 74.2109 55.44C74.5843 55.5733 75.0643 55.6267 75.6509 55.6C76.3976 55.5733 77.0776 55.4533 77.6909 55.24C78.3309 55.0267 78.9043 54.72 79.4109 54.32C79.9443 53.92 80.4243 53.44 80.8509 52.88C81.0376 52.5067 81.2109 52.0133 81.3709 51.4C81.5309 50.7867 81.6376 50.24 81.6909 49.76C81.7443 49.28 81.7043 49.04 81.5709 49.04C81.5709 49.04 81.5443 48.9467 81.4909 48.76C81.4643 48.5733 81.4109 48.3733 81.3309 48.16C81.1976 47.76 80.8909 47.36 80.4109 46.96C79.9309 46.5333 79.4643 46.2267 79.0109 46.04C78.8243 45.9867 78.4376 45.9867 77.8509 46.04C77.2643 46.0933 76.7709 46.1467 76.3709 46.2C75.9443 46.2267 75.6909 46.2267 75.6109 46.2C75.5576 46.1467 75.5309 46.12 75.5309 46.12C75.3976 46.0933 75.1709 45.96 74.8509 45.72C74.5576 45.48 74.2776 45.2267 74.0109 44.96C73.7709 44.6933 73.6509 44.4933 73.6509 44.36C73.7043 44.1733 73.8509 43.8533 74.0909 43.4C74.3309 42.9467 74.6243 42.4533 74.9709 41.92C75.3443 41.3867 75.7176 40.8667 76.0909 40.36C76.4643 39.8533 76.8109 39.44 77.1309 39.12C77.9309 38.24 78.8909 37.5867 80.0109 37.16C81.1309 36.7067 82.2376 36.5067 83.3309 36.56C84.1043 36.5867 84.6776 36.6933 85.0509 36.88C85.4509 37.04 85.8109 37.3333 86.1309 37.76C86.3443 38.1333 86.4243 38.52 86.3709 38.92C86.3176 39.32 86.1843 39.6267 85.9709 39.84C85.7576 40.0533 85.4909 40.08 85.1709 39.92C84.7976 39.68 84.2909 39.5867 83.6509 39.64C83.0109 39.6933 82.3309 39.8267 81.6109 40.04C81.0509 40.2533 80.5976 40.44 80.2509 40.6C79.9043 40.7333 79.6643 40.9467 79.5309 41.24C79.4243 41.32 79.3443 41.4 79.2909 41.48C79.2643 41.56 79.1976 41.5867 79.0909 41.56C79.0909 41.56 79.0509 41.6133 78.9709 41.72C78.8909 41.8 78.8509 41.8933 78.8509 42C78.7176 42.16 78.6243 42.28 78.5709 42.36C78.5443 42.4133 78.4776 42.3867 78.3709 42.28C78.3709 42.28 78.3709 42.32 78.3709 42.4C78.3709 42.48 78.3576 42.5733 78.3309 42.68C78.3043 42.8667 78.3576 43 78.4909 43.08C78.6509 43.1333 78.9843 43.1867 79.4909 43.24C80.1576 43.3467 80.6509 43.4533 80.9709 43.56C81.3176 43.64 81.8243 43.88 82.4909 44.28C83.2376 44.7067 83.7843 45.3467 84.1309 46.2C84.5043 47.0267 84.7176 47.9467 84.7709 48.96C84.8509 49.9467 84.8243 50.8933 84.6909 51.8C84.6109 52.3867 84.5309 52.84 84.4509 53.16C84.3709 53.48 84.1443 53.92 83.7709 54.48C83.1576 55.3333 82.3709 56.0933 81.4109 56.76C80.4509 57.4 79.4376 57.9067 78.3709 58.28C77.3043 58.6533 76.2909 58.8667 75.3309 58.92C74.3976 58.9467 73.6376 58.76 73.0509 58.36Z" fill="white"/>
<path d="M6.848 103.792C6.528 103.664 6.19733 103.525 5.856 103.376C5.536 103.227 5.22667 103.003 4.928 102.704C4.65067 102.427 4.40533 102.032 4.192 101.52C3.97867 100.901 3.82933 100.293 3.744 99.696C3.68 99.0987 3.65867 98.4053 3.68 97.616C3.68 96.5067 3.75467 95.5467 3.904 94.736C4.07467 93.904 4.33067 93.0613 4.672 92.208C4.71467 92.144 4.78933 91.9627 4.896 91.664C5.024 91.344 5.16267 91.0027 5.312 90.64C5.48267 90.2773 5.61067 90 5.696 89.808C5.86667 89.4453 6.12267 88.9653 6.464 88.368C6.82667 87.7493 7.21067 87.152 7.616 86.576C8.23467 85.6587 8.74667 84.9333 9.152 84.4C9.55733 83.8667 9.94133 83.4187 10.304 83.056C10.6667 82.6933 11.072 82.352 11.52 82.032C11.9893 81.6907 12.5867 81.2747 13.312 80.784C13.7813 80.4427 14.2933 80.2613 14.848 80.24C15.424 80.2187 15.9573 80.3467 16.448 80.624C16.9387 80.88 17.3013 81.264 17.536 81.776C17.7707 82.224 17.888 82.768 17.888 83.408C17.888 84.0267 17.792 84.688 17.6 85.392C17.408 86.0747 17.1413 86.7253 16.8 87.344C16.4587 87.9627 16.064 88.4747 15.616 88.88C15.3387 89.136 15.0827 89.232 14.848 89.168C14.6347 89.104 14.3787 88.9333 14.08 88.656C13.888 88.2933 13.7813 88.08 13.76 88.016C13.76 87.952 13.8027 87.9093 13.888 87.888C14.016 87.7387 14.1867 87.4827 14.4 87.12C14.6133 86.7573 14.8267 86.3733 15.04 85.968C15.2533 85.5413 15.4027 85.2 15.488 84.944C15.6587 84.048 15.776 83.4187 15.84 83.056C15.904 82.672 15.84 82.384 15.648 82.192C15.5627 82.1067 15.4347 82.0747 15.264 82.096C15.1147 82.1173 14.8587 82.224 14.496 82.416C14.0053 82.6293 13.3653 83.1093 12.576 83.856C11.7867 84.5813 11.0613 85.392 10.4 86.288C9.54667 87.4187 8.832 88.4213 8.256 89.296C7.68 90.1707 7.24267 91.0667 6.944 91.984C6.90133 92.0693 6.82667 92.2293 6.72 92.464C6.63467 92.6987 6.592 92.816 6.592 92.816C6.61333 92.9013 6.58133 93.1147 6.496 93.456C6.41067 93.776 6.31467 94.0533 6.208 94.288C5.97333 95.2693 5.83467 96.2933 5.792 97.36C5.74933 98.4053 5.80267 99.3333 5.952 100.144C6.12267 100.955 6.368 101.52 6.688 101.84C6.96533 102.032 7.33867 102.096 7.808 102.032C8.29867 101.968 8.85333 101.819 9.472 101.584C10.0907 101.349 10.72 101.093 11.36 100.816C11.872 100.603 12.3413 100.368 12.768 100.112C13.1947 99.856 13.5147 99.632 13.728 99.44C13.8987 99.312 14.112 99.184 14.368 99.056C14.6453 98.9067 14.88 98.832 15.072 98.832C15.3707 98.7253 15.5413 98.6827 15.584 98.704C15.6267 98.7253 15.648 98.8213 15.648 98.992C15.648 99.2907 15.4773 99.6213 15.136 99.984C14.816 100.347 14.4 100.677 13.888 100.976C13.7173 101.147 13.4933 101.328 13.216 101.52C12.9387 101.712 12.6507 101.861 12.352 101.968C11.904 102.309 11.3493 102.64 10.688 102.96C10.0267 103.28 9.35467 103.525 8.672 103.696C8.01067 103.867 7.40267 103.899 6.848 103.792ZM20.2375 102.8C20.1308 102.8 20.0028 102.747 19.8535 102.64C19.7042 102.555 19.5655 102.437 19.4375 102.288C19.3308 102.139 19.2775 101.979 19.2775 101.808C19.2775 101.808 19.2668 101.744 19.2455 101.616C19.2455 101.467 19.2028 101.317 19.1175 101.168C19.1175 100.997 19.1175 100.805 19.1175 100.592C19.1388 100.357 19.1922 100.123 19.2775 99.888C19.2775 99.6533 19.3095 99.3973 19.3735 99.12C19.4375 98.8213 19.5122 98.5973 19.5975 98.448C19.5975 98.2133 19.6508 97.9147 19.7575 97.552C19.8855 97.168 19.9922 96.816 20.0775 96.496C20.3122 95.792 20.4828 95.28 20.5895 94.96C20.7175 94.64 20.8028 94.4053 20.8455 94.256C20.8882 94.0853 20.9095 93.9147 20.9095 93.744C20.9735 93.5733 21.0695 93.264 21.1975 92.816C21.3255 92.368 21.4535 91.9093 21.5815 91.44C21.7308 90.9493 21.8268 90.5973 21.8695 90.384C21.9548 90.2987 21.9975 90.224 21.9975 90.16C22.0188 90.0747 22.0295 89.9893 22.0295 89.904C22.0295 89.904 22.1042 89.6587 22.2535 89.168C22.4028 88.6773 22.5948 88.112 22.8295 87.472C23.2135 86.3413 23.4695 85.52 23.5975 85.008C23.7468 84.496 23.8108 84.1333 23.7895 83.92C23.7895 83.7067 23.7362 83.4933 23.6295 83.28C23.4802 83.0027 23.4802 82.7893 23.6295 82.64C23.7148 82.5547 23.7895 82.4587 23.8535 82.352C23.9175 82.224 23.9495 82.16 23.9495 82.16C23.9495 82.1173 24.0882 82.0427 24.3655 81.936C24.6428 81.8293 24.9842 81.712 25.3895 81.584C25.7948 81.4347 26.2002 81.296 26.6055 81.168C27.0322 81.04 27.3842 80.9333 27.6615 80.848C27.7255 80.848 27.8215 80.848 27.9495 80.848C28.0988 80.848 28.2588 80.848 28.4295 80.848C28.6215 80.848 28.8028 80.848 28.9735 80.848C29.5282 80.9333 30.0935 81.0933 30.6695 81.328C31.2668 81.5627 31.7682 81.8933 32.1735 82.32C32.4295 82.5547 32.6535 82.832 32.8455 83.152C33.0588 83.472 33.3255 83.9947 33.6455 84.72C33.6455 84.8053 33.6668 84.9867 33.7095 85.264C33.7735 85.52 33.8055 85.776 33.8055 86.032C33.8055 86.672 33.6455 87.344 33.3255 88.048C33.0055 88.752 32.5468 89.4667 31.9495 90.192C31.3522 90.896 30.6268 91.6 29.7735 92.304C28.8775 93.0293 27.9495 93.52 26.9895 93.776C26.0295 94.032 25.1762 94.0853 24.4295 93.936C24.2802 93.872 24.1415 93.744 24.0135 93.552C23.9068 93.36 23.8322 93.168 23.7895 92.976C23.7468 92.784 23.7575 92.656 23.8215 92.592C23.9922 92.5493 24.2482 92.5387 24.5895 92.56C24.9308 92.56 25.4748 92.4213 26.2215 92.144C26.4562 92.0587 26.7015 91.9627 26.9575 91.856C27.2135 91.728 27.4162 91.6213 27.5655 91.536C27.9922 91.2587 28.4828 90.8853 29.0375 90.416C29.5922 89.9467 30.1042 89.3387 30.5735 88.592C30.7655 88.2933 30.9575 87.9413 31.1495 87.536C31.3415 87.1093 31.5015 86.6827 31.6295 86.256C31.7788 85.8293 31.8535 85.4773 31.8535 85.2C32.0242 84.6453 31.9175 84.1867 31.5335 83.824C31.1708 83.44 30.5842 83.2053 29.7735 83.12C29.5175 83.056 29.1228 83.0773 28.5895 83.184C28.0562 83.2693 27.5442 83.3867 27.0535 83.536C26.5628 83.6853 26.2322 83.8133 26.0615 83.92C25.9762 83.92 25.9228 83.984 25.9015 84.112C25.8802 84.24 25.8268 84.3893 25.7415 84.56C25.7415 84.7093 25.6775 85.0293 25.5495 85.52C25.4215 85.9893 25.2722 86.4267 25.1015 86.832C24.9522 87.3013 24.7708 87.824 24.5575 88.4C24.3442 88.9547 24.1948 89.392 24.1095 89.712C24.0242 90.0533 23.9175 90.384 23.7895 90.704C23.6828 91.024 23.6295 91.184 23.6295 91.184C23.6295 91.2693 23.5655 91.4507 23.4375 91.728C23.3308 92.0053 23.2348 92.304 23.1495 92.624C23.0642 93.0293 22.9468 93.488 22.7975 94C22.6695 94.512 22.5202 94.9707 22.3495 95.376C22.1148 96.1653 21.9122 96.9547 21.7415 97.744C21.5708 98.512 21.5602 99.0133 21.7095 99.248C21.9442 99.248 22.0295 99.44 21.9655 99.824C21.9015 100.187 21.7095 100.688 21.3895 101.328C21.1762 101.861 21.0162 102.224 20.9095 102.416C20.8028 102.629 20.7068 102.747 20.6215 102.768C20.5362 102.789 20.4082 102.8 20.2375 102.8ZM37.9233 102.768C37.2619 102.725 36.6753 102.523 36.1633 102.16C35.6726 101.797 35.1499 101.424 34.5953 101.04C34.2326 100.677 33.9446 100.293 33.7313 99.888C33.5179 99.4613 33.3473 98.9067 33.2193 98.224C33.1339 97.8187 33.1339 97.3067 33.2193 96.688C33.3046 96.0693 33.4433 95.4507 33.6353 94.832C33.8273 94.192 34.0086 93.68 34.1793 93.296C34.4353 92.6987 34.7553 92.0587 35.1393 91.376C35.5446 90.672 35.9393 90.0107 36.3233 89.392C36.7286 88.752 37.0486 88.24 37.2833 87.856C37.4326 87.7067 37.4966 87.632 37.4753 87.632C37.4753 87.6107 37.4753 87.6 37.4753 87.6C37.4753 87.4933 37.5819 87.2267 37.7953 86.8C38.0299 86.352 38.2326 85.9573 38.4033 85.616C38.7233 85.2747 38.9046 84.9973 38.9473 84.784C38.9899 84.5707 38.9579 84.4 38.8513 84.272C38.8086 84.1867 38.8833 84.0373 39.0753 83.824C39.2673 83.6107 39.5553 83.3653 39.9392 83.088C40.3233 82.8107 40.7606 82.5333 41.2513 82.256C41.7633 81.8507 42.2539 81.6373 42.7233 81.616C43.2139 81.5733 43.5019 81.6693 43.5873 81.904C43.5873 81.968 43.7046 81.9893 43.9393 81.968C44.1953 81.9253 44.4833 81.872 44.8033 81.808C45.1446 81.7227 45.4433 81.6587 45.6993 81.616C45.8059 81.488 46.0513 81.392 46.4353 81.328C46.8406 81.2427 47.3099 81.168 47.8433 81.104C48.1206 81.1253 48.3873 81.136 48.6433 81.136C48.9206 81.1147 49.1446 81.0933 49.3153 81.072C49.5073 81.0507 49.6033 81.04 49.6033 81.04C49.7526 80.9973 49.9233 81.0187 50.1153 81.104C50.3286 81.1893 50.5206 81.424 50.6913 81.808C50.8406 82.192 50.7873 82.48 50.5312 82.672C50.2966 82.864 49.7419 83.0133 48.8673 83.12C48.2273 83.2053 47.6726 83.28 47.2033 83.344C46.7339 83.3867 46.2433 83.4507 45.7313 83.536C45.2193 83.6 44.5899 83.7173 43.8433 83.888C43.3099 83.9947 42.8726 84.1227 42.5313 84.272C42.1899 84.4 41.8913 84.6027 41.6353 84.88C41.3793 85.136 41.0913 85.5093 40.7713 86C40.6219 86.1067 40.4299 86.384 40.1953 86.832C39.9606 87.28 39.7259 87.728 39.4913 88.176C38.8939 89.008 38.3713 89.7333 37.9233 90.352C37.4966 90.9493 37.3259 91.3013 37.4113 91.408C37.4113 91.408 37.5286 91.44 37.7633 91.504C37.9979 91.568 38.1579 91.6 38.2433 91.6C38.4566 91.4933 38.7126 91.4187 39.0113 91.376C39.3313 91.3333 39.5873 91.2907 39.7793 91.248C41.1019 90.9067 42.1366 90.64 42.8833 90.448C43.6513 90.256 44.2273 90.1173 44.6113 90.032C45.0166 89.9253 45.3259 89.8613 45.5393 89.84C45.8379 89.6053 46.1259 89.5627 46.4033 89.712C46.7019 89.8613 46.9366 90.096 47.1073 90.416C47.2139 90.6507 47.2139 90.8533 47.1073 91.024C47.0219 91.1947 46.7553 91.3653 46.3073 91.536C45.8806 91.7067 45.2406 91.9093 44.3873 92.144C43.5339 92.3787 42.4139 92.688 41.0273 93.072C39.8539 93.4133 38.8513 93.616 38.0193 93.68C37.1873 93.744 36.7926 93.5627 36.8353 93.136C36.6859 93.0507 36.5153 93.1573 36.3233 93.456C36.1526 93.7333 35.9819 94.1173 35.8113 94.608C35.6406 95.0987 35.4913 95.6213 35.3633 96.176C35.2566 96.7307 35.1819 97.2533 35.1393 97.744C35.1179 98.2133 35.1499 98.5653 35.2352 98.8C35.4059 99.2907 35.6299 99.6853 35.9073 99.984C36.1846 100.261 36.6859 100.507 37.4113 100.72C37.8379 100.741 38.2539 100.773 38.6593 100.816C39.0646 100.859 39.5233 100.773 40.0353 100.56C41.2939 100.347 42.2859 100.123 43.0113 99.888C43.7366 99.6533 44.1526 99.4933 44.2593 99.408C44.4299 99.3227 44.5366 99.28 44.5793 99.28C44.6433 99.2587 44.7286 99.248 44.8353 99.248C44.7713 99.3547 44.7926 99.3653 44.8993 99.28C45.0273 99.1733 45.1979 99.0133 45.4113 98.8C45.6459 98.5867 45.9553 98.384 46.3393 98.192C46.7233 98 47.0646 97.8507 47.3633 97.744C47.6833 97.6373 47.8539 97.6373 47.8753 97.744C48.0033 97.9573 47.9819 98.256 47.8113 98.64C47.6406 99.0027 47.3313 99.408 46.8833 99.856C46.4353 100.283 45.8593 100.699 45.1553 101.104C44.0246 101.701 42.7979 102.117 41.4753 102.352C40.1526 102.608 38.9686 102.747 37.9233 102.768ZM51.0385 108.208C50.7398 108.379 50.5265 108.464 50.3985 108.464C50.2918 108.485 50.1212 108.379 49.8865 108.144C49.6945 107.931 49.5452 107.728 49.4385 107.536C49.3318 107.365 49.2892 107.141 49.3105 106.864C49.3532 106.395 49.4492 105.808 49.5985 105.104C49.7478 104.4 49.9078 103.685 50.0785 102.96C50.2705 102.235 50.4198 101.637 50.5265 101.168C50.5905 100.869 50.6652 100.699 50.7505 100.656C50.8572 100.592 51.0492 100.56 51.3265 100.56C51.6678 100.56 51.9985 100.56 52.3185 100.56C52.6598 100.539 52.9905 100.507 53.3105 100.464L54.0145 100.4C54.3985 99.9947 54.7718 99.6 55.1345 99.216C55.5185 98.832 55.8918 98.4373 56.2545 98.032C56.4892 97.7547 56.7558 97.4027 57.0545 96.976C57.3745 96.528 57.6838 96.08 57.9825 95.632C58.2812 95.1627 58.5265 94.768 58.7185 94.448C59.2945 93.5093 59.8492 92.6027 60.3825 91.728C60.9158 90.8533 61.4598 89.84 62.0145 88.688C62.3558 88.0053 62.6438 87.2907 62.8785 86.544C63.1345 85.776 63.4332 85.0613 63.7745 84.4C64.0732 83.888 64.2865 83.344 64.4145 82.768C64.5638 82.1707 64.7452 81.6053 64.9585 81.072C64.7238 80.944 64.1585 81.0187 63.2625 81.296C62.3878 81.552 61.3212 81.9573 60.0625 82.512C59.6998 82.64 59.3905 82.6293 59.1345 82.48C58.8998 82.3093 58.7292 82.096 58.6225 81.84C58.5372 81.5627 58.5265 81.3067 58.5905 81.072C58.6545 80.8373 58.8038 80.7093 59.0385 80.688C59.2732 80.6453 59.4865 80.5707 59.6785 80.464C59.8918 80.3573 60.1052 80.272 60.3185 80.208C60.8092 80.08 61.2678 79.952 61.6945 79.824C62.1425 79.6747 62.6225 79.568 63.1345 79.504C63.3905 79.4613 63.6572 79.4187 63.9345 79.376C64.2332 79.3333 64.4998 79.2693 64.7345 79.184C65.1825 79.056 65.6732 79.0347 66.2065 79.12C66.7398 79.184 67.4225 79.248 68.2545 79.312C69.1505 79.312 70.0038 79.5253 70.8145 79.952C71.6252 80.3573 72.4358 80.7307 73.2465 81.072C73.3745 81.2213 73.5132 81.456 73.6625 81.776C73.8118 82.0747 73.8758 82.3307 73.8545 82.544C73.8545 82.7787 73.7692 83.216 73.5985 83.856C73.4278 84.496 73.2038 85.2213 72.9265 86.032C72.6705 86.8427 72.4038 87.6533 72.1265 88.464C71.8705 89.2533 71.6358 89.936 71.4225 90.512C71.2092 91.088 71.0705 91.4613 71.0065 91.632C70.9638 91.7173 70.8892 91.8987 70.7825 92.176C70.6758 92.4533 70.5798 92.7307 70.4945 93.008C70.4092 93.264 70.3558 93.424 70.3345 93.488C70.2918 93.872 70.2172 94.224 70.1105 94.544C70.0038 94.8427 69.8758 95.1733 69.7265 95.536C69.4705 96.1973 69.2145 96.8907 68.9585 97.616C68.7025 98.32 68.4785 99.0347 68.2865 99.76C68.7345 99.9093 69.1932 99.9947 69.6625 100.016C70.1318 100.037 70.5692 100.123 70.9745 100.272C71.3798 100.421 71.7105 100.773 71.9665 101.328C72.0518 101.499 72.0305 101.787 71.9025 102.192C71.7958 102.619 71.6358 103.099 71.4225 103.632C71.2092 104.165 70.9745 104.699 70.7185 105.232C70.4838 105.787 70.2598 106.267 70.0465 106.672C69.8545 107.077 69.7158 107.365 69.6305 107.536C69.5452 107.728 69.4172 107.867 69.2465 107.952C69.0972 108.037 68.9052 108.037 68.6705 107.952L67.8065 107.184C67.6785 106.864 67.7105 106.459 67.9025 105.968C68.1158 105.499 68.3718 105.008 68.6705 104.496C68.9692 103.984 69.2358 103.483 69.4705 102.992C69.7265 102.523 69.8332 102.128 69.7905 101.808C69.4065 101.744 69.0118 101.733 68.6065 101.776C68.2225 101.797 67.8385 101.744 67.4545 101.616C67.4118 101.595 67.3585 101.584 67.2945 101.584C67.2305 101.584 67.1665 101.584 67.1025 101.584C66.0785 101.584 65.2572 101.584 64.6385 101.584C64.0412 101.584 63.5612 101.584 63.1985 101.584C62.8572 101.563 62.5478 101.563 62.2705 101.584C62.0145 101.584 61.7158 101.605 61.3745 101.648C61.0332 101.669 60.5745 101.701 59.9985 101.744C59.8065 101.765 59.6145 101.765 59.4225 101.744C59.2305 101.723 59.0492 101.733 58.8785 101.776C58.4732 101.883 58.0572 101.957 57.6305 102C57.2038 102.043 56.7452 102.064 56.2545 102.064C55.8278 102.085 55.4545 102.096 55.1345 102.096C54.8358 102.117 54.5692 102.149 54.3345 102.192C54.0145 102.256 53.6945 102.331 53.3745 102.416C53.0545 102.523 52.7238 102.597 52.3825 102.64C52.1265 103.301 51.9132 103.984 51.7425 104.688C51.5718 105.392 51.4118 106.085 51.2625 106.768C51.1985 107.003 51.1665 107.237 51.1665 107.472C51.1878 107.707 51.1452 107.952 51.0385 108.208ZM57.2785 100.048C57.3425 100.048 57.6198 100.037 58.1105 100.016C58.6012 99.9947 59.1452 99.9733 59.7425 99.952C60.3612 99.9093 60.9052 99.8773 61.3745 99.856C61.8438 99.8347 62.0892 99.8347 62.1105 99.856C62.1745 99.8133 62.3878 99.7813 62.7505 99.76C63.1132 99.7387 63.5185 99.728 63.9665 99.728C64.4145 99.7067 64.8412 99.696 65.2465 99.696C65.6518 99.696 65.9398 99.696 66.1105 99.696C66.2598 99.376 66.3772 99.0453 66.4625 98.704C66.5692 98.3413 66.6758 97.9893 66.7825 97.648C66.9318 97.1573 67.0918 96.6773 67.2625 96.208C67.4332 95.7173 67.5932 95.2373 67.7425 94.768C68.1052 93.68 68.4892 92.656 68.8945 91.696C69.3212 90.7147 69.6945 89.584 70.0145 88.304C70.0785 88.0053 70.1745 87.7173 70.3025 87.44C70.4518 87.1413 70.5692 86.8427 70.6545 86.544L71.1345 84.912C71.2412 84.6133 71.3158 84.304 71.3585 83.984C71.4012 83.6427 71.4758 83.344 71.5825 83.088C71.6892 82.8747 71.7105 82.6613 71.6465 82.448C71.6038 82.2347 71.5505 82.0213 71.4865 81.808C71.0172 81.552 70.5052 81.328 69.9505 81.136C69.4172 80.9227 68.8732 80.816 68.3185 80.816C68.1052 80.816 67.8598 80.7733 67.5825 80.688C67.3052 80.6027 67.0918 80.656 66.9425 80.848C67.0065 81.0827 67.0385 81.2533 67.0385 81.36C67.0598 81.4667 67.0278 81.6373 66.9425 81.872C66.7932 82.384 66.5692 83.0347 66.2705 83.824C65.9718 84.592 65.6305 85.424 65.2465 86.32C64.8625 87.1947 64.4785 88.0587 64.0945 88.912C63.7105 89.744 63.3478 90.4907 63.0065 91.152C62.6865 91.792 62.4305 92.2507 62.2385 92.528C61.9825 92.8907 61.7372 93.264 61.5025 93.648C61.2892 94.032 61.0652 94.416 60.8305 94.8C60.8305 94.8213 60.7025 95.0133 60.4465 95.376C60.2118 95.7173 59.9132 96.144 59.5505 96.656C59.2092 97.168 58.8572 97.68 58.4945 98.192C58.1532 98.704 57.8652 99.1413 57.6305 99.504C57.3958 99.8453 57.2785 100.027 57.2785 100.048ZM76.1913 104.656C76.1913 104.656 76.1593 104.635 76.0953 104.592C76.0313 104.571 75.9459 104.549 75.8393 104.528C75.7539 104.507 75.6473 104.496 75.5193 104.496C75.1779 104.411 74.9326 104.219 74.7833 103.92C74.6339 103.643 74.6019 103.333 74.6873 102.992C74.7726 102.907 74.8366 102.725 74.8793 102.448C74.9219 102.171 74.9433 101.947 74.9433 101.776C75.0286 101.605 75.0819 101.488 75.1033 101.424C75.1246 101.339 75.1779 101.125 75.2633 100.784C75.3273 100.421 75.4339 99.92 75.5833 99.28C75.7539 98.6187 75.9353 97.9147 76.1273 97.168C76.3406 96.4213 76.5433 95.7067 76.7352 95.024C76.9273 94.3413 77.0979 93.7653 77.2473 93.296C77.4179 92.8267 77.5353 92.56 77.5993 92.496C77.5993 92.496 77.5993 92.464 77.5993 92.4C77.5993 92.3147 77.5993 92.2293 77.5993 92.144C77.5993 92.144 77.6099 92.048 77.6313 91.856C77.6739 91.6427 77.7806 91.408 77.9513 91.152C78.0366 90.9173 78.1113 90.6613 78.1753 90.384C78.2393 90.1067 78.2713 89.9253 78.2713 89.84C78.3566 89.7333 78.4739 89.4773 78.6233 89.072C78.7939 88.6453 78.9539 88.2293 79.1033 87.824C79.2313 87.4827 79.3699 87.12 79.5193 86.736C79.6899 86.352 79.8286 86.0213 79.9353 85.744C80.0633 85.4667 80.1273 85.328 80.1273 85.328C80.1273 85.2427 80.1273 85.2 80.1273 85.2C80.1273 85.1787 80.1273 85.168 80.1273 85.168C80.2126 85.0827 80.4153 84.656 80.7353 83.888C81.0766 83.0987 81.5353 82.0853 82.1113 80.848C82.1966 80.6773 82.3033 80.4853 82.4313 80.272C82.5593 80.0587 82.6233 79.9093 82.6233 79.824C82.7299 79.6533 82.8793 79.5787 83.0713 79.6C83.2633 79.6 83.4553 79.664 83.6473 79.792C83.8606 79.92 84.0206 80.1013 84.1273 80.336L84.4473 80.848L83.2953 83.152C82.9539 83.7493 82.6659 84.2933 82.4313 84.784C82.2179 85.2747 82.1113 85.5627 82.1113 85.648C82.1113 85.648 82.0473 85.8187 81.9193 86.16C81.7913 86.5013 81.6419 86.9067 81.4713 87.376C81.3006 87.8453 81.1513 88.272 81.0233 88.656C80.7886 89.3173 80.5646 89.8613 80.3513 90.288C80.1593 90.7147 80.0633 90.9707 80.0633 91.056C80.0633 91.0133 80.2979 90.9813 80.7673 90.96C81.2366 90.9387 81.8339 90.928 82.5593 90.928C83.2846 90.928 84.0206 90.928 84.7673 90.928C85.5353 90.9067 86.2073 90.896 86.7833 90.896C87.3806 90.8747 87.7859 90.8427 87.9993 90.8L89.6632 90.64L90.7513 87.344C90.9219 86.7467 91.1459 86.0213 91.4233 85.168C91.7006 84.3147 91.9459 83.5893 92.1593 82.992C92.5006 82.0107 92.7673 81.4027 92.9593 81.168C93.1513 80.9333 93.3753 80.816 93.6313 80.816C93.6953 80.816 93.7806 80.8373 93.8873 80.88C94.0153 80.9013 94.1326 80.9547 94.2393 81.04C94.3673 81.104 94.4526 81.2 94.4953 81.328C94.7513 81.5627 94.8686 81.8293 94.8473 82.128C94.8473 82.4267 94.6766 82.8213 94.3353 83.312C93.9939 83.888 93.7059 84.5173 93.4713 85.2C93.2579 85.8613 93.0659 86.4053 92.8953 86.832C92.8953 87.088 92.8633 87.3013 92.7993 87.472C92.7353 87.6213 92.6606 87.7387 92.5753 87.824C92.5326 87.8667 92.4473 88.0267 92.3193 88.304C92.1913 88.5813 92.0739 88.8587 91.9673 89.136C91.8606 89.4133 91.8073 89.584 91.8073 89.648C91.8073 89.7973 91.7753 89.9787 91.7113 90.192C91.6473 90.4053 91.5726 90.5547 91.4873 90.64C91.4446 90.768 91.3486 91.088 91.1993 91.6C91.0499 92.112 90.8793 92.72 90.6873 93.424C90.4953 94.1067 90.2926 94.7787 90.0793 95.44C89.8659 96.08 89.6739 96.6133 89.5033 97.04C89.5033 97.1893 89.4499 97.3813 89.3433 97.616C89.2366 97.8293 89.1833 98.0213 89.1833 98.192C89.0979 98.448 88.9913 98.768 88.8633 99.152C88.7353 99.536 88.6713 99.7813 88.6713 99.888C88.5646 100.379 88.4473 100.88 88.3193 101.392C88.2126 101.904 88.1166 102.341 88.0312 102.704C87.9673 103.088 87.9353 103.312 87.9353 103.376C87.8499 103.461 87.7219 103.472 87.5513 103.408C87.3806 103.344 87.1779 103.269 86.9433 103.184C86.5379 102.949 86.2926 102.693 86.2073 102.416C86.1433 102.16 86.2286 101.787 86.4633 101.296C86.5699 101.125 86.6979 100.709 86.8473 100.048C87.0179 99.3653 87.1886 98.6933 87.3593 98.032C87.4873 97.712 87.6259 97.2853 87.7753 96.752C87.9246 96.1973 88.0739 95.6427 88.2233 95.088C88.3726 94.512 88.5006 94.032 88.6073 93.648C88.7139 93.2427 88.7886 93.0187 88.8313 92.976C88.8313 92.8907 88.8313 92.816 88.8313 92.752C88.8313 92.688 88.8313 92.656 88.8313 92.656C88.7886 92.6133 88.5219 92.5813 88.0312 92.56C87.5406 92.5173 86.9326 92.5067 86.2073 92.528C85.4819 92.528 84.7246 92.5493 83.9353 92.592C83.1673 92.6133 82.4739 92.6667 81.8553 92.752C81.6206 92.752 81.3539 92.752 81.0553 92.752C80.7566 92.752 80.5219 92.752 80.3513 92.752C80.1166 92.752 79.9139 92.752 79.7433 92.752C79.5939 92.752 79.5193 92.752 79.5193 92.752C79.4979 92.816 79.4233 93.04 79.2953 93.424C79.1673 93.808 79.0179 94.2773 78.8473 94.832C78.6766 95.3653 78.4953 95.92 78.3033 96.496C78.1326 97.0507 77.9833 97.5627 77.8553 98.032C77.7486 98.48 77.6739 98.8 77.6313 98.992C77.5459 99.376 77.4286 99.856 77.2793 100.432C77.1513 101.008 77.0019 101.595 76.8313 102.192C76.6819 102.811 76.5433 103.344 76.4153 103.792C76.3086 104.24 76.2339 104.528 76.1913 104.656ZM108.302 103.28C108.174 103.28 108.003 103.237 107.79 103.152C107.576 103.067 107.352 102.96 107.118 102.832C106.904 102.725 106.712 102.597 106.542 102.448C106.392 102.299 106.318 102.16 106.318 102.032C106.318 101.904 106.307 101.776 106.286 101.648C106.264 101.499 106.275 101.36 106.318 101.232C106.424 100.891 106.52 100.56 106.606 100.24C106.712 99.92 106.798 99.5893 106.862 99.248C107.032 98.2453 107.246 97.2533 107.502 96.272C107.779 95.2907 108.046 94.3093 108.302 93.328C108.366 93.072 108.494 92.6133 108.686 91.952C108.899 91.2693 109.134 90.5013 109.39 89.648C109.646 88.7733 109.891 87.92 110.126 87.088C110.382 86.256 110.584 85.552 110.734 84.976C110.883 84.3787 110.936 84.0267 110.894 83.92C110.808 83.856 110.744 83.8453 110.702 83.888C110.68 83.9307 110.648 83.9733 110.606 84.016C110.115 84.6773 109.614 85.3493 109.102 86.032C108.59 86.6933 108.078 87.3547 107.566 88.016C107.011 88.7413 106.435 89.456 105.838 90.16C105.24 90.864 104.643 91.5787 104.046 92.304C103.64 92.816 103.235 93.3493 102.83 93.904C102.424 94.4373 102.008 94.9493 101.582 95.44C101.283 95.7813 101.006 96.1333 100.75 96.496C100.494 96.8587 100.216 97.2107 99.9178 97.552C99.5978 97.936 99.2458 98.352 98.8618 98.8C98.4778 99.248 98.0831 99.7067 97.6778 100.176C97.2938 100.624 96.8991 101.061 96.4938 101.488C96.1098 101.893 95.7258 102.256 95.3418 102.576C95.1924 102.704 94.9791 102.779 94.7018 102.8C94.4458 102.821 94.2004 102.768 93.9658 102.64C93.7311 102.533 93.6031 102.352 93.5818 102.096C93.5604 101.627 93.6031 101.072 93.7098 100.432C93.8378 99.792 93.9871 99.152 94.1578 98.512C94.3284 97.8507 94.4884 97.296 94.6378 96.848C94.7018 96.6133 94.7764 96.3893 94.8618 96.176C94.9471 95.9413 95.0218 95.7067 95.0858 95.472C95.1071 95.344 95.1284 95.216 95.1498 95.088C95.1924 94.96 95.2351 94.832 95.2778 94.704C95.4271 94.384 95.5338 94.0853 95.5978 93.808C95.6618 93.5307 95.6938 93.2213 95.6938 92.88C95.7151 92.752 95.7684 92.56 95.8538 92.304C95.9391 92.048 96.0351 91.7813 96.1418 91.504C96.2484 91.2267 96.3231 91.0133 96.3658 90.864C96.4724 90.544 96.5684 90.224 96.6538 89.904C96.7604 89.5627 96.8884 89.2427 97.0378 88.944C97.0804 88.88 97.1018 88.8373 97.1018 88.816C97.1018 88.7947 97.1124 88.752 97.1338 88.688C97.2404 88.0267 97.3898 87.5147 97.5818 87.152C97.7951 86.768 98.0084 86.3093 98.2218 85.776L98.2538 85.584C98.3391 85.3493 98.4138 85.1573 98.4778 85.008C98.5631 84.8373 98.6484 84.6453 98.7338 84.432C98.7764 84.3253 98.7551 84.2613 98.6698 84.24C98.6058 84.1973 98.6164 84.1333 98.7018 84.048C98.8724 83.8347 98.9364 83.7173 98.8938 83.696C98.8511 83.6747 98.8618 83.5787 98.9258 83.408C99.0751 83.216 99.2244 82.928 99.3738 82.544C99.5444 82.16 99.7044 81.7653 99.8538 81.36C100.003 80.9333 100.12 80.6133 100.206 80.4C100.248 80.2507 100.302 80.1547 100.366 80.112C100.43 80.048 100.536 79.984 100.686 79.92C101.027 79.7707 101.315 79.7493 101.55 79.856C101.784 79.9627 101.955 80.1333 102.062 80.368C102.168 80.6027 102.211 80.8587 102.19 81.136C102.19 81.392 102.126 81.616 101.998 81.808C101.955 81.872 101.923 81.936 101.902 82C101.902 82.0427 101.88 82.1067 101.838 82.192C101.752 82.5547 101.624 82.9067 101.454 83.248C101.283 83.568 101.123 83.9093 100.974 84.272C100.846 84.5707 100.643 85.0827 100.366 85.808C100.11 86.5333 99.8111 87.3867 99.4698 88.368C99.1284 89.328 98.7871 90.3307 98.4458 91.376C98.1044 92.4 97.7844 93.392 97.4858 94.352C97.1871 95.2907 96.9524 96.112 96.7818 96.816C96.6111 97.4987 96.5364 97.968 96.5578 98.224C96.8351 97.9253 97.1018 97.6267 97.3578 97.328C97.6138 97.008 97.8591 96.6987 98.0938 96.4C98.7124 95.6107 99.3631 94.8427 100.046 94.096C100.728 93.328 101.368 92.5493 101.966 91.76C102.307 91.2907 102.67 90.8427 103.054 90.416C103.459 89.9893 103.832 89.5413 104.174 89.072C104.408 88.7733 104.643 88.4853 104.878 88.208C105.134 87.9307 105.368 87.6427 105.582 87.344C106.243 86.4693 106.936 85.616 107.662 84.784C108.387 83.9307 109.091 83.0773 109.774 82.224C109.944 82.0107 110.211 81.7227 110.574 81.36C110.936 80.9973 111.31 80.656 111.694 80.336C112.078 79.9947 112.387 79.7707 112.622 79.664C112.899 79.536 113.166 79.568 113.422 79.76C113.678 79.9307 113.912 80.112 114.126 80.304C114.424 80.6027 114.51 80.9653 114.382 81.392C114.339 81.4987 114.286 81.616 114.222 81.744C114.158 81.8507 114.104 81.9573 114.062 82.064C113.87 82.4267 113.699 82.8 113.55 83.184C113.4 83.5467 113.262 83.92 113.134 84.304C113.006 84.688 112.888 85.0827 112.782 85.488C112.76 85.6373 112.728 85.808 112.686 86C112.643 86.192 112.59 86.3733 112.526 86.544C112.376 86.8853 112.184 87.2587 111.95 87.664C111.736 88.048 111.64 88.4533 111.662 88.88C111.662 89.136 111.608 89.3707 111.502 89.584C111.31 89.968 111.171 90.3733 111.086 90.8C111 91.2267 110.904 91.6533 110.798 92.08C110.627 92.7627 110.446 93.4453 110.254 94.128C110.083 94.8107 109.902 95.4933 109.71 96.176C109.518 96.8587 109.326 97.5413 109.134 98.224C108.92 99.0347 108.76 99.8773 108.654 100.752C108.547 101.605 108.43 102.448 108.302 103.28ZM125.176 104.528C124.792 104.379 124.472 104.176 124.216 103.92C123.981 103.664 123.906 103.323 123.992 102.896C123.992 102.896 124.077 102.693 124.248 102.288C124.418 101.904 124.621 101.424 124.856 100.848C125.112 100.251 125.357 99.664 125.592 99.088C125.826 98.512 126.029 98.032 126.2 97.648C126.37 97.2427 126.456 97.04 126.456 97.04C126.605 96.656 126.808 96.1333 127.064 95.472C127.341 94.8107 127.608 94.1387 127.864 93.456C128.141 92.752 128.376 92.144 128.568 91.632C128.76 91.12 128.856 90.832 128.856 90.768C129.09 90.2347 129.293 89.6907 129.464 89.136C129.634 88.5813 129.848 88.048 130.104 87.536C130.296 87.1093 130.466 86.7253 130.616 86.384C130.765 86.0213 130.84 85.7013 130.84 85.424C130.84 85.424 130.616 85.6587 130.168 86.128C129.741 86.5973 129.165 87.2267 128.44 88.016C127.714 88.784 126.914 89.6373 126.04 90.576C125.186 91.4933 124.322 92.4213 123.448 93.36C122.594 94.2987 121.805 95.1627 121.08 95.952C120.354 96.72 119.768 97.3387 119.32 97.808C118.872 98.2773 118.648 98.512 118.648 98.512C118.178 98.8747 117.741 99.2693 117.336 99.696C116.952 100.101 116.525 100.485 116.056 100.848C115.864 100.997 115.629 101.189 115.352 101.424C115.074 101.637 114.808 101.829 114.552 102C114.296 102.192 114.104 102.288 113.976 102.288C113.357 102.181 112.962 102.011 112.792 101.776C112.621 101.52 112.589 101.211 112.696 100.848C112.802 100.464 112.952 100.016 113.144 99.504C113.25 99.1627 113.346 98.8213 113.432 98.48C113.538 98.1173 113.613 97.7653 113.656 97.424C113.805 96.784 113.965 96.1867 114.136 95.632C114.306 95.0773 114.466 94.544 114.616 94.032C114.765 93.5413 114.914 93.0507 115.064 92.56C115.213 92.048 115.298 91.5253 115.32 90.992C115.576 90.5653 115.789 90.1493 115.96 89.744C116.13 89.3173 116.29 88.8907 116.44 88.464C116.589 88.0373 116.76 87.6107 116.952 87.184C117.186 86.672 117.378 86.1493 117.528 85.616C117.698 85.0613 117.901 84.5173 118.135 83.984C118.285 83.6853 118.488 83.2907 118.744 82.8C119 82.3093 119.234 81.808 119.448 81.296C119.682 80.784 119.8 80.3467 119.8 79.984C119.8 79.7493 119.885 79.6213 120.056 79.6C120.226 79.5787 120.418 79.6107 120.632 79.696C120.845 79.7813 121.026 79.888 121.176 80.016C121.346 80.144 121.442 80.24 121.464 80.304C121.528 80.496 121.57 80.6987 121.592 80.912C121.634 81.1253 121.602 81.3493 121.496 81.584L118.84 88.336L115.928 96.048C115.672 96.88 115.522 97.5307 115.48 98C115.458 98.4693 115.597 98.6293 115.896 98.48L122.36 92.016C122.722 91.632 123.074 91.2373 123.416 90.832C123.778 90.4053 124.12 89.9893 124.44 89.584C124.525 89.5413 124.738 89.328 125.08 88.944C125.442 88.56 125.858 88.1013 126.328 87.568C126.797 87.0347 127.245 86.5333 127.672 86.064C128.098 85.5733 128.418 85.2107 128.632 84.976L132.696 80.656L133.304 80.464C133.496 80.4427 133.688 80.5067 133.88 80.656C134.072 80.8053 134.21 80.9973 134.296 81.232C134.402 81.4667 134.402 81.712 134.296 81.968C134.296 81.968 134.189 82.2453 133.976 82.8C133.784 83.3547 133.528 84.0693 133.208 84.944C132.888 85.7973 132.546 86.704 132.184 87.664C131.842 88.624 131.512 89.5307 131.192 90.384C130.872 91.2373 130.605 91.9413 130.392 92.496C130.2 93.0293 130.093 93.296 130.072 93.296C130.093 93.232 130.018 93.4027 129.848 93.808C129.698 94.2133 129.496 94.7467 129.24 95.408C128.984 96.0693 128.717 96.752 128.44 97.456C128.162 98.1387 127.917 98.7467 127.704 99.28C127.512 99.8133 127.394 100.155 127.352 100.304C127.266 100.581 127.16 100.859 127.032 101.136C126.925 101.392 126.808 101.648 126.68 101.904C126.53 102.181 126.402 102.469 126.296 102.768C126.21 103.088 126.136 103.397 126.072 103.696C126.008 103.931 125.88 104.144 125.688 104.336C125.496 104.549 125.325 104.613 125.176 104.528ZM126.936 78.832C126.146 78.9173 125.485 78.7253 124.952 78.256C124.418 77.7867 124.002 77.0933 123.704 76.176C123.661 76.0053 123.65 75.856 123.672 75.728C123.693 75.5787 123.736 75.4507 123.8 75.344C123.842 75.2587 123.938 75.1947 124.088 75.152C124.258 75.088 124.386 75.0773 124.472 75.12C124.813 75.248 125.069 75.3867 125.24 75.536C125.432 75.6853 125.549 75.8773 125.592 76.112C125.656 76.2187 125.688 76.3253 125.688 76.432C125.709 76.5387 125.72 76.5813 125.72 76.56C125.848 76.9013 126.008 77.136 126.2 77.264C126.392 77.392 126.69 77.3813 127.096 77.232C127.522 77.0827 127.938 76.912 128.344 76.72C128.77 76.528 129.154 76.2933 129.496 76.016C129.794 75.7813 130.072 75.568 130.328 75.376C130.584 75.184 130.85 74.9813 131.128 74.768L131.16 74.736C131.266 74.672 131.394 74.6507 131.544 74.672C131.693 74.6933 131.778 74.7253 131.8 74.768C131.97 74.9173 132.056 75.0667 132.056 75.216C132.077 75.3653 132.088 75.5253 132.088 75.696L132.056 75.76C132.098 75.888 131.97 76.1333 131.672 76.496C131.373 76.8373 131.021 77.1467 130.616 77.424C130.274 77.6587 129.89 77.872 129.464 78.064C129.058 78.256 128.642 78.4373 128.216 78.608C128.066 78.6933 127.885 78.7467 127.672 78.768C127.48 78.768 127.234 78.7893 126.936 78.832ZM153.977 91.888C153.913 92.0373 153.668 92.1547 153.241 92.24C152.814 92.3253 152.132 92.4213 151.193 92.528C150.916 92.5493 150.5 92.5707 149.945 92.592C149.412 92.6133 148.825 92.6347 148.185 92.656C147.566 92.6773 147.001 92.688 146.489 92.688C145.977 92.6667 145.625 92.6347 145.433 92.592C145.433 92.592 145.38 92.6453 145.273 92.752C145.188 92.8587 145.145 92.9973 145.145 93.168C144.996 93.424 144.804 93.8187 144.569 94.352C144.356 94.8853 144.11 95.472 143.833 96.112C143.577 96.752 143.332 97.392 143.097 98.032C142.884 98.672 142.702 99.2267 142.553 99.696C142.404 100.165 142.329 100.485 142.329 100.656C142.137 101.168 142.02 101.605 141.977 101.968C141.934 102.331 141.86 102.544 141.753 102.608C141.732 102.693 141.593 102.715 141.337 102.672C141.081 102.629 140.868 102.512 140.697 102.32C140.441 102.128 140.292 101.957 140.249 101.808C140.228 101.637 140.292 101.317 140.441 100.848C140.505 100.571 140.612 100.165 140.761 99.632C140.932 99.0773 141.113 98.4693 141.305 97.808C141.518 97.1467 141.732 96.5067 141.945 95.888C142.18 95.248 142.404 94.7253 142.617 94.32C142.852 93.9147 143.001 93.552 143.065 93.232C143.129 92.8907 143.214 92.5813 143.321 92.304C143.3 92.0693 143.3 91.9093 143.321 91.824C143.342 91.7387 143.428 91.6107 143.577 91.44C143.684 91.3547 143.812 91.2053 143.961 90.992C144.132 90.7573 144.324 90.4053 144.537 89.936C144.601 89.7227 144.697 89.4347 144.825 89.072C144.974 88.688 145.113 88.304 145.241 87.92C145.369 87.5147 145.486 87.1733 145.593 86.896C145.7 86.6187 145.753 86.4693 145.753 86.448C145.796 86.3627 145.86 86.2027 145.945 85.968C146.03 85.712 146.094 85.5093 146.137 85.36C146.222 85.0613 146.286 84.816 146.329 84.624C146.393 84.432 146.382 84.336 146.297 84.336C146.126 84.3787 145.785 84.4107 145.273 84.432C145.017 84.4747 144.825 84.5067 144.697 84.528C144.59 84.528 144.494 84.5387 144.409 84.56C144.196 84.5813 144.004 84.56 143.833 84.496C143.662 84.432 143.577 84.304 143.577 84.112C143.62 83.7707 143.737 83.4933 143.929 83.28C144.142 83.0453 144.409 82.9173 144.729 82.896C144.878 82.8533 145.038 82.8213 145.209 82.8C145.401 82.7573 145.657 82.6933 145.977 82.608C146.382 82.5227 146.692 82.4587 146.905 82.416C147.14 82.352 147.321 82.3413 147.449 82.384C147.556 82.32 147.652 82.256 147.737 82.192C147.822 82.1067 147.865 82.0213 147.865 81.936C147.865 81.8293 147.908 81.7547 147.993 81.712C148.1 81.648 148.217 81.616 148.345 81.616C148.473 81.5947 148.601 81.6053 148.729 81.648C148.878 81.6907 148.985 81.7653 149.049 81.872C149.092 81.936 149.188 81.9893 149.337 82.032C149.486 82.0747 149.753 82.0747 150.137 82.032C150.542 81.968 151.108 81.8613 151.833 81.712C152.217 81.6693 152.697 81.6267 153.273 81.584C153.87 81.5413 154.34 81.5733 154.681 81.68C155.044 81.616 155.364 81.5947 155.641 81.616C155.94 81.616 156.142 81.5733 156.249 81.488C156.697 81.5733 157.017 81.6373 157.209 81.68C157.422 81.7013 157.593 81.7653 157.721 81.872C157.806 81.9573 157.828 82.0427 157.785 82.128C157.764 82.192 157.753 82.224 157.753 82.224C157.668 82.1813 157.678 82.192 157.785 82.256C157.892 82.2987 157.966 82.3413 158.009 82.384C158.158 82.448 158.254 82.5333 158.297 82.64C158.34 82.7253 158.361 82.8107 158.361 82.896C158.361 82.9813 158.35 83.056 158.329 83.12C158.308 83.312 158.201 83.4293 158.009 83.472C157.817 83.4933 157.337 83.4933 156.569 83.472C155.652 83.344 154.745 83.3013 153.849 83.344C152.974 83.3653 151.95 83.4613 150.777 83.632C150.35 83.6533 149.966 83.7173 149.625 83.824C149.305 83.9093 149.124 83.952 149.081 83.952C148.996 83.952 148.846 84.1013 148.633 84.4C148.42 84.6773 148.217 85.0933 148.025 85.648C147.94 85.7973 147.79 86.1387 147.577 86.672C147.364 87.2053 147.129 87.7813 146.873 88.4C146.638 89.0187 146.425 89.5627 146.233 90.032C146.062 90.5013 145.956 90.7573 145.913 90.8C146.212 90.8853 146.692 90.928 147.353 90.928C148.036 90.928 148.782 90.9067 149.593 90.864C150.425 90.8 151.182 90.736 151.865 90.672C152.185 90.608 152.516 90.5547 152.857 90.512C153.22 90.448 153.454 90.4373 153.561 90.48C153.668 90.544 153.764 90.672 153.849 90.864C153.934 91.0347 153.988 91.216 154.009 91.408C154.052 91.6 154.041 91.76 153.977 91.888ZM156.956 102.8C156.85 102.8 156.722 102.747 156.572 102.64C156.423 102.555 156.284 102.437 156.156 102.288C156.05 102.139 155.996 101.979 155.996 101.808C155.996 101.808 155.986 101.744 155.964 101.616C155.964 101.467 155.922 101.317 155.836 101.168C155.836 100.997 155.836 100.805 155.836 100.592C155.858 100.357 155.911 100.123 155.996 99.888C155.996 99.6533 156.028 99.3973 156.092 99.12C156.156 98.8213 156.231 98.5973 156.316 98.448C156.316 98.2133 156.37 97.9147 156.476 97.552C156.604 97.168 156.711 96.816 156.796 96.496C157.031 95.792 157.202 95.28 157.308 94.96C157.436 94.64 157.522 94.4053 157.564 94.256C157.607 94.0853 157.628 93.9147 157.628 93.744C157.692 93.5733 157.788 93.264 157.916 92.816C158.044 92.368 158.172 91.9093 158.3 91.44C158.45 90.9493 158.546 90.5973 158.588 90.384C158.674 90.2987 158.716 90.224 158.716 90.16C158.738 90.0747 158.748 89.9893 158.748 89.904C158.748 89.904 158.823 89.6587 158.972 89.168C159.122 88.6773 159.314 88.112 159.548 87.472C159.932 86.3413 160.188 85.52 160.316 85.008C160.466 84.496 160.53 84.1333 160.508 83.92C160.508 83.7067 160.455 83.4933 160.348 83.28C160.199 83.0027 160.199 82.7893 160.348 82.64C160.434 82.5547 160.508 82.4587 160.572 82.352C160.636 82.224 160.668 82.16 160.668 82.16C160.668 82.1173 160.807 82.0427 161.084 81.936C161.362 81.8293 161.703 81.712 162.108 81.584C162.514 81.4347 162.919 81.296 163.324 81.168C163.751 81.04 164.103 80.9333 164.38 80.848C164.444 80.848 164.54 80.848 164.668 80.848C164.818 80.848 164.978 80.848 165.148 80.848C165.34 80.848 165.522 80.848 165.692 80.848C166.247 80.9333 166.812 81.0933 167.388 81.328C167.986 81.5627 168.487 81.8933 168.892 82.32C169.148 82.5547 169.372 82.832 169.564 83.152C169.778 83.472 170.044 83.9947 170.364 84.72C170.364 84.8053 170.386 84.9867 170.428 85.264C170.492 85.52 170.524 85.776 170.524 86.032C170.524 86.672 170.364 87.344 170.044 88.048C169.724 88.752 169.266 89.4667 168.668 90.192C168.071 90.896 167.346 91.6 166.492 92.304C165.596 93.0293 164.668 93.52 163.708 93.776C162.748 94.032 161.895 94.0853 161.148 93.936C160.999 93.872 160.86 93.744 160.732 93.552C160.626 93.36 160.551 93.168 160.508 92.976C160.466 92.784 160.476 92.656 160.54 92.592C160.711 92.5493 160.967 92.5387 161.308 92.56C161.65 92.56 162.194 92.4213 162.94 92.144C163.175 92.0587 163.42 91.9627 163.676 91.856C163.932 91.728 164.135 91.6213 164.284 91.536C164.711 91.2587 165.202 90.8853 165.756 90.416C166.311 89.9467 166.823 89.3387 167.292 88.592C167.484 88.2933 167.676 87.9413 167.868 87.536C168.06 87.1093 168.22 86.6827 168.348 86.256C168.498 85.8293 168.572 85.4773 168.572 85.2C168.743 84.6453 168.636 84.1867 168.252 83.824C167.89 83.44 167.303 83.2053 166.492 83.12C166.236 83.056 165.842 83.0773 165.308 83.184C164.775 83.2693 164.263 83.3867 163.772 83.536C163.282 83.6853 162.951 83.8133 162.78 83.92C162.695 83.92 162.642 83.984 162.62 84.112C162.599 84.24 162.546 84.3893 162.46 84.56C162.46 84.7093 162.396 85.0293 162.268 85.52C162.14 85.9893 161.991 86.4267 161.82 86.832C161.671 87.3013 161.49 87.824 161.276 88.4C161.063 88.9547 160.914 89.392 160.828 89.712C160.743 90.0533 160.636 90.384 160.508 90.704C160.402 91.024 160.348 91.184 160.348 91.184C160.348 91.2693 160.284 91.4507 160.156 91.728C160.05 92.0053 159.954 92.304 159.868 92.624C159.783 93.0293 159.666 93.488 159.516 94C159.388 94.512 159.239 94.9707 159.068 95.376C158.834 96.1653 158.631 96.9547 158.46 97.744C158.29 98.512 158.279 99.0133 158.428 99.248C158.663 99.248 158.748 99.44 158.684 99.824C158.62 100.187 158.428 100.688 158.108 101.328C157.895 101.861 157.735 102.224 157.628 102.416C157.522 102.629 157.426 102.747 157.34 102.768C157.255 102.789 157.127 102.8 156.956 102.8ZM177.857 102.672C176.982 102.885 176.076 102.875 175.137 102.64C174.22 102.405 173.409 101.989 172.705 101.392C172.001 100.795 171.51 100.069 171.233 99.216C171.148 98.9813 171.073 98.768 171.009 98.576C170.966 98.384 170.988 98.288 171.073 98.288C171.286 98.288 171.297 98.1813 171.105 97.968C171.041 97.8827 171.009 97.744 171.009 97.552C171.03 97.36 171.073 97.1787 171.137 97.008C171.222 96.8373 171.318 96.752 171.425 96.752C171.574 96.752 171.734 96.8053 171.905 96.912C172.076 97.0187 172.204 97.136 172.289 97.264C172.396 97.3707 172.406 97.456 172.321 97.52C172.321 97.52 172.364 97.6373 172.449 97.872C172.534 98.0853 172.556 98.3413 172.513 98.64C172.705 98.96 172.865 99.2267 172.993 99.44C173.121 99.632 173.388 99.8453 173.793 100.08C174.07 100.293 174.316 100.453 174.529 100.56C174.742 100.667 175.116 100.731 175.649 100.752C175.99 100.752 176.268 100.709 176.481 100.624C176.694 100.539 176.886 100.389 177.057 100.176C177.249 99.9627 177.473 99.6747 177.729 99.312C177.793 98.9067 177.708 98.256 177.473 97.36C177.26 96.464 176.94 95.4187 176.513 94.224C176.086 93.008 175.574 91.7387 174.977 90.416C174.849 90.1813 174.732 89.936 174.625 89.68C174.54 89.424 174.497 89.296 174.497 89.296C174.561 88.8907 174.54 88.5173 174.433 88.176C174.305 88.0693 174.23 87.824 174.209 87.44C174.209 87.0347 174.188 86.672 174.145 86.352C174.188 85.8827 174.23 85.52 174.273 85.264C174.316 85.008 174.454 84.7093 174.689 84.368C175.308 83.472 176.065 82.7253 176.961 82.128C177.857 81.5093 178.998 81.0933 180.385 80.88C180.62 80.8373 180.918 80.816 181.281 80.816C181.644 80.7947 182.017 80.8053 182.401 80.848C182.785 80.8693 183.126 80.912 183.425 80.976C183.745 81.0187 183.98 81.0933 184.129 81.2C184.641 81.456 185.046 81.7333 185.345 82.032C185.644 82.3307 185.9 82.672 186.113 83.056C186.22 83.2907 186.284 83.472 186.305 83.6C186.348 83.7067 186.348 83.8133 186.305 83.92C186.262 84.0267 186.177 84.1867 186.049 84.4C185.942 84.528 185.761 84.6773 185.505 84.848C185.27 85.0187 184.993 85.1893 184.673 85.36C184.374 85.5307 184.054 85.6907 183.713 85.84C183.393 85.968 183.094 86.0533 182.817 86.096C182.625 86.1813 182.508 86.224 182.465 86.224C182.444 86.224 182.433 86.1813 182.433 86.096C182.497 85.968 182.508 85.872 182.465 85.808C182.444 85.744 182.433 85.712 182.433 85.712C182.156 85.712 182.092 85.5947 182.241 85.36C182.412 85.1253 182.7 84.7627 183.105 84.272C183.489 83.8453 183.734 83.5573 183.841 83.408C183.969 83.2373 183.98 83.0987 183.873 82.992C183.745 82.9067 183.489 82.8427 183.105 82.8C182.721 82.7573 182.305 82.7467 181.857 82.768C181.43 82.768 181.046 82.8 180.705 82.864C179.638 83.184 178.7 83.6427 177.889 84.24C177.1 84.8373 176.62 85.4987 176.449 86.224C176.3 86.544 176.225 86.832 176.225 87.088C176.246 87.344 176.342 87.7493 176.513 88.304C176.556 88.8373 176.598 89.2533 176.641 89.552C176.705 89.8507 176.737 90.0213 176.737 90.064C176.737 90.1493 176.758 90.2773 176.801 90.448C176.844 90.5973 176.876 90.8747 176.897 91.28C176.94 91.4293 177.046 91.632 177.217 91.888C177.388 92.1227 177.676 92.3893 178.081 92.688C178.124 93.1573 178.198 93.5627 178.305 93.904C178.433 94.224 178.508 94.5333 178.529 94.832C178.956 95.6853 179.276 96.5387 179.489 97.392C179.724 98.2453 179.862 98.9493 179.905 99.504C179.948 100.059 179.894 100.336 179.745 100.336C179.724 100.336 179.713 100.368 179.713 100.432C179.713 100.496 179.724 100.528 179.745 100.528C179.745 100.656 179.67 100.816 179.521 101.008C179.372 101.2 179.19 101.413 178.977 101.648C178.764 101.861 178.55 102.053 178.337 102.224C178.145 102.416 177.985 102.565 177.857 102.672ZM189.516 93.616C189.11 93.7653 188.769 93.84 188.492 93.84C188.236 93.8187 187.948 93.6907 187.628 93.456C187.222 93.072 187.084 92.688 187.212 92.304C187.361 91.8987 187.713 91.504 188.268 91.12C188.652 90.8853 188.929 90.7573 189.1 90.736C189.292 90.7147 189.58 90.7893 189.964 90.96C190.604 91.3653 190.881 91.8133 190.796 92.304C190.732 92.7947 190.305 93.232 189.516 93.616ZM187.276 100.336C186.87 100.485 186.529 100.56 186.252 100.56C185.996 100.539 185.708 100.411 185.388 100.176C184.982 99.792 184.844 99.408 184.972 99.024C185.121 98.6187 185.473 98.224 186.028 97.84C186.412 97.6053 186.689 97.4773 186.86 97.456C187.052 97.4347 187.34 97.5093 187.724 97.68C188.364 98.0853 188.641 98.5333 188.556 99.024C188.492 99.5147 188.065 99.952 187.276 100.336ZM195.211 101.04C194.731 100.693 194.491 100.4 194.491 100.16C194.385 100 194.265 99.92 194.131 99.92C194.051 99.9467 193.971 99.8667 193.891 99.68C193.838 99.4933 193.785 99.28 193.731 99.04C193.705 98.7733 193.705 98.5867 193.731 98.48C193.838 98.2667 193.998 98.1467 194.211 98.12C194.425 98.0667 194.625 98.0933 194.811 98.2C195.025 98.28 195.145 98.4267 195.171 98.64C195.225 98.8533 195.425 99.0267 195.771 99.16C196.145 99.2933 196.625 99.3467 197.211 99.32C197.958 99.2933 198.731 99.1067 199.531 98.76C200.358 98.4133 201.118 97.9733 201.811 97.44C202.531 96.9067 203.105 96.36 203.531 95.8C203.718 95.4267 203.891 94.9333 204.051 94.32C204.211 93.7067 204.318 93.16 204.371 92.68C204.425 92.2 204.385 91.96 204.251 91.96C204.251 91.96 204.225 91.8667 204.171 91.68C204.145 91.4933 204.091 91.2933 204.011 91.08C203.878 90.68 203.571 90.28 203.091 89.88C202.611 89.4533 202.145 89.1467 201.691 88.96C201.505 88.9067 201.158 88.8667 200.651 88.84C200.171 88.7867 199.731 88.7867 199.331 88.84C198.905 88.8667 198.518 88.8667 198.171 88.84C197.851 88.8133 197.691 88.8 197.691 88.8C197.558 88.7733 197.358 88.6667 197.091 88.48C196.851 88.2933 196.625 88.0933 196.411 87.88C196.198 87.6667 196.091 87.4933 196.091 87.36C196.145 87.1733 196.278 86.88 196.491 86.48C196.705 86.0533 196.958 85.5867 197.251 85.08C197.571 84.5467 197.905 84.0533 198.251 83.6C198.598 83.12 198.931 82.72 199.251 82.4C200.051 81.52 200.958 80.8667 201.971 80.44C203.011 79.9867 204.078 79.7867 205.171 79.84C205.945 79.8667 206.491 79.9333 206.811 80.04C207.158 80.12 207.491 80.3733 207.811 80.8C208.025 81.1733 208.118 81.5067 208.091 81.8C208.065 82.0933 207.958 82.2933 207.771 82.4C207.585 82.5067 207.331 82.48 207.011 82.32C206.638 82.08 206.118 81.9867 205.451 82.04C204.811 82.0933 204.131 82.2267 203.411 82.44C202.851 82.6533 202.251 83 201.611 83.48C200.998 83.9333 200.625 84.3067 200.491 84.6C200.385 84.68 200.305 84.76 200.251 84.84C200.225 84.92 200.158 84.9467 200.051 84.92C200.051 84.92 200.011 84.9733 199.931 85.08C199.851 85.16 199.811 85.2533 199.811 85.36C199.678 85.52 199.585 85.64 199.531 85.72C199.505 85.7733 199.438 85.7467 199.331 85.64C199.331 85.64 199.331 85.68 199.331 85.76C199.331 85.84 199.318 85.9333 199.291 86.04C199.265 86.2267 199.278 86.3867 199.331 86.52C199.411 86.6267 199.705 86.7067 200.211 86.76C200.878 86.8667 201.385 86.9733 201.731 87.08C202.078 87.16 202.585 87.4 203.251 87.8C203.998 88.2267 204.598 88.8 205.051 89.52C205.505 90.2133 205.811 91 205.971 91.88C206.158 92.76 206.185 93.6533 206.051 94.56C205.971 95.1467 205.891 95.6 205.811 95.92C205.731 96.24 205.505 96.68 205.131 97.24C204.518 98.0933 203.771 98.8533 202.891 99.52C202.011 100.16 201.091 100.667 200.131 101.04C199.171 101.387 198.251 101.573 197.371 101.6C196.518 101.627 195.798 101.44 195.211 101.04ZM216.259 101.36C215.592 101.36 214.939 101.293 214.299 101.16C213.686 101 213.192 100.8 212.819 100.56C212.446 100.293 212.272 100 212.299 99.68C212.326 99.2533 212.419 99.0267 212.579 99C212.739 98.9467 213.112 98.96 213.699 99.04C214.606 99.2267 215.579 99.24 216.619 99.08C217.659 98.92 218.632 98.64 219.539 98.24C220.446 97.84 221.152 97.3867 221.659 96.88C222.379 96.1867 222.699 95.4933 222.619 94.8C222.566 94.1067 222.152 93.5067 221.379 93C221.032 92.76 220.552 92.5333 219.939 92.32C219.326 92.1067 218.712 91.9467 218.099 91.84C217.512 91.7067 217.032 91.6533 216.659 91.68C216.419 91.7067 216.219 91.7067 216.059 91.68C215.926 91.6533 215.686 91.5467 215.339 91.36C215.179 91.1733 215.032 90.9733 214.899 90.76C214.766 90.52 214.672 90.3467 214.619 90.24C214.592 90.1067 214.659 89.9733 214.819 89.84C215.006 89.7067 215.392 89.48 215.979 89.16C216.566 88.8133 217.472 88.3067 218.699 87.64C219.819 87.0267 220.699 86.5333 221.339 86.16C222.006 85.76 222.526 85.44 222.899 85.2C223.299 84.9333 223.619 84.6933 223.859 84.48C224.339 83.84 224.579 83.4267 224.579 83.24C224.579 83.0533 224.232 82.8933 223.539 82.76C222.872 82.7067 222.232 82.6667 221.619 82.64C221.006 82.6133 220.699 82.6533 220.699 82.76C220.699 82.76 220.686 82.76 220.659 82.76C220.659 82.76 220.619 82.76 220.539 82.76C220.406 82.7067 220.112 82.72 219.659 82.8C219.206 82.88 218.766 82.9733 218.339 83.08C217.939 83.1867 217.726 83.28 217.699 83.36C217.672 83.4133 217.512 83.5067 217.219 83.64C216.952 83.7467 216.672 83.84 216.379 83.92C216.112 84 215.939 84.04 215.859 84.04C215.726 83.9867 215.566 83.8533 215.379 83.64C215.219 83.4 215.086 83.16 214.979 82.92C214.872 82.6533 214.846 82.4533 214.899 82.32C214.952 82.2133 215.112 82.08 215.379 81.92C215.672 81.7333 216.006 81.5467 216.379 81.36C216.752 81.1467 217.086 80.9733 217.379 80.84C217.752 80.7333 218.272 80.6533 218.939 80.6C219.632 80.5467 220.326 80.52 221.019 80.52C221.712 80.4933 222.219 80.4933 222.539 80.52C223.766 80.6533 224.712 80.9733 225.379 81.48C226.046 81.9867 226.459 82.6667 226.619 83.52C226.699 83.8933 226.726 84.2 226.699 84.44C226.672 84.68 226.552 84.9333 226.339 85.2C226.126 85.44 225.752 85.8 225.219 86.28C224.552 86.7067 224.006 87.0667 223.579 87.36C223.152 87.6533 222.512 88.0267 221.659 88.48C221.472 88.6133 221.219 88.7867 220.899 89C220.579 89.2133 220.286 89.4133 220.019 89.6C219.752 89.76 219.619 89.8667 219.619 89.92C219.619 89.92 219.672 89.96 219.779 90.04C219.886 90.0933 220.019 90.1733 220.179 90.28C220.339 90.3867 220.486 90.5067 220.619 90.64C221.392 90.9067 222.099 91.3333 222.739 91.92C223.379 92.5067 223.832 92.9867 224.099 93.36C224.472 94.1867 224.619 94.9867 224.539 95.76C224.486 96.5333 224.219 97.2667 223.739 97.96C223.259 98.6267 222.552 99.24 221.619 99.8C220.872 100.227 220.006 100.587 219.019 100.88C218.032 101.147 217.112 101.307 216.259 101.36Z" fill="white"/>
<path d="M45 141C80.241 132.181 172.579 115.561 260 119.631" stroke="#91FF6A" stroke-width="2" stroke-linecap="round"/>
<path d="M149.98 44.5424C196.96 44.5424 235.49 27.1358 258.98 2.5" stroke="white" stroke-width="2" stroke-linecap="round"/>
<path d="M217.012 3.29171C223.325 5.89133 240.218 9.0687 258.423 1.65908C259.127 1.37242 259.899 1.92592 259.822 2.68239C258.965 11.0897 256.702 22.2961 242.22 40.5319" stroke="white" stroke-width="2" stroke-linecap="round"/>
</svg>
