<svg width="634" height="642" viewBox="0 0 634 642" fill="none" xmlns="http://www.w3.org/2000/svg">
<path d="M77.0162 308.704C177.922 215.892 379.254 37.1336 377.332 64.5958C374.93 98.9235 0.936232 413.976 2.53792 422.367C4.1396 430.758 401.357 78.3271 437.395 58.4933C473.433 38.6595 22.5594 454.406 2.53792 490.259C-17.4836 526.113 527.89 7.38348 555.119 2.04362C582.347 -3.29624 69.0081 483.394 73.0122 491.023C77.0162 498.651 530.292 68.4095 555.119 58.4933C579.945 48.5771 112.253 540.607 128.27 536.793C144.287 532.979 524.687 123.335 547.111 110.367C569.534 97.3987 81.0206 652.745 133.876 639.776C186.732 626.808 513.475 165.291 530.293 156.137C547.111 146.983 201.147 590.955 236.384 590.192C271.621 589.429 596.763 114.181 604.771 110.367C612.78 106.553 356.51 506.28 354.108 521.536C351.705 536.793 614.381 131.726 623.191 127.912C632 124.098 414.972 503.228 426.184 512.382C435.153 519.706 567.132 277.937 632 156.137" stroke="#91FF6A" stroke-width="4" stroke-linecap="round" stroke-linejoin="round"/>
</svg>
