<svg width="234" height="79" viewBox="0 0 234 79" fill="none" xmlns="http://www.w3.org/2000/svg">
<path d="M77.8395 27.44C77.7755 27.6 77.5595 27.68 77.1915 27.68C76.8235 27.68 76.5035 27.576 76.2315 27.368C76.0395 27.176 75.9115 27.024 75.8475 26.912C75.7995 26.816 75.8315 26.64 75.9435 26.384C76.0555 26.144 76.2475 25.712 76.5195 25.088C76.5835 24.704 76.6955 24.32 76.8555 23.936C77.0155 23.536 77.1355 23.256 77.2155 23.096C77.2795 22.872 77.4075 22.504 77.5995 21.992C77.8075 21.464 78.0395 20.88 78.2955 20.24C78.5675 19.6 78.8235 19 79.0635 18.44C79.3035 17.864 79.4795 17.432 79.5915 17.144C79.8635 16.504 80.1435 15.832 80.4315 15.128C80.7195 14.424 81.1115 13.536 81.6075 12.464C81.6715 12.304 81.6475 12.136 81.5355 11.96C81.4235 11.784 81.2315 11.696 80.9595 11.696C80.7995 11.52 80.7115 11.336 80.6955 11.144C80.6795 10.936 80.7595 10.792 80.9355 10.712L83.1435 9.968C83.8955 9.792 84.6635 9.744 85.4475 9.824C86.2475 9.888 86.9995 10.104 87.7035 10.472C88.4715 10.92 89.0315 11.416 89.3835 11.96C89.7355 12.504 89.9275 13.056 89.9595 13.616C90.0075 14.16 89.9435 14.656 89.7675 15.104C89.6395 15.44 89.3915 15.808 89.0235 16.208C88.6715 16.608 88.2555 17.008 87.7755 17.408C87.3115 17.808 86.8235 18.176 86.3115 18.512C85.8155 18.832 85.3515 19.08 84.9195 19.256C84.5195 19.448 84.0715 19.648 83.5755 19.856C83.0795 20.048 82.5995 20.216 82.1355 20.36C81.8795 20.424 81.5755 20.456 81.2235 20.456C80.8715 20.456 80.6075 20.424 80.4315 20.36L80.0235 21.128C79.8635 21.704 79.5835 22.56 79.1835 23.696C78.7995 24.832 78.3515 26.08 77.8395 27.44ZM87.3675 27.896C87.2395 27.944 87.0235 27.96 86.7195 27.944C86.4315 27.928 86.1035 27.8 85.7355 27.56C85.0315 27.144 84.3275 26.64 83.6235 26.048C82.9195 25.456 82.1275 24.656 81.2475 23.648C80.9115 23.248 80.6555 22.848 80.4795 22.448C80.3195 22.048 80.1115 21.544 79.8555 20.936L79.5195 19.64L80.4315 19.04L81.4875 19.904C81.7435 20.464 82.0395 21 82.3755 21.512C82.7275 22.024 83.0795 22.48 83.4315 22.88C83.7195 23.216 84.1115 23.624 84.6075 24.104C85.1035 24.568 85.6315 25.016 86.1915 25.448C86.7515 25.88 87.2555 26.208 87.7035 26.432C87.7995 26.512 87.8235 26.664 87.7755 26.888C87.7435 27.128 87.6795 27.352 87.5835 27.56C87.5035 27.768 87.4315 27.88 87.3675 27.896ZM81.3195 18.488C81.6875 18.456 82.0875 18.36 82.5195 18.2C82.9675 18.024 83.4395 17.832 83.9355 17.624C84.3995 17.4 84.8555 17.16 85.3035 16.904C85.7675 16.632 86.1835 16.336 86.5515 16.016C86.9355 15.696 87.2315 15.352 87.4395 14.984C87.6635 14.616 87.7595 14.224 87.7275 13.808C87.7275 13.6 87.6635 13.368 87.5355 13.112C87.4075 12.856 87.2395 12.624 87.0315 12.416C86.8395 12.208 86.6395 12.072 86.4315 12.008C85.7915 11.848 85.3035 11.752 84.9675 11.72C84.6315 11.688 84.3835 11.736 84.2235 11.864C84.0795 11.992 83.9675 12.216 83.8875 12.536C83.8875 12.584 83.8235 12.736 83.6955 12.992C83.5675 13.248 83.4075 13.576 83.2155 13.976C83.0395 14.36 82.8635 14.776 82.6875 15.224C82.2235 16.168 81.8795 16.864 81.6555 17.312C81.4475 17.744 81.3195 18.032 81.2715 18.176C81.2395 18.32 81.2555 18.424 81.3195 18.488ZM92.4782 27.536C91.8222 27.536 91.2222 27.424 90.6782 27.2C90.1342 26.992 89.7982 26.52 89.6702 25.784C89.6862 25.384 89.7022 25.136 89.7182 25.04C89.7502 24.928 89.8142 24.872 89.9102 24.872C89.9742 24.872 90.0222 24.864 90.0542 24.848C90.1022 24.816 90.1262 24.744 90.1262 24.632C90.1422 24.36 90.1822 24.04 90.2462 23.672C90.3262 23.288 90.4142 22.936 90.5102 22.616C90.6222 22.28 90.7262 22.048 90.8222 21.92C90.9182 21.6 91.0542 21.16 91.2302 20.6C91.4062 20.04 91.5902 19.456 91.7822 18.848C91.9902 18.224 92.1742 17.656 92.3342 17.144C92.5102 16.632 92.6382 16.272 92.7182 16.064C92.7982 15.856 92.9262 15.568 93.1022 15.2C93.2782 14.816 93.3982 14.496 93.4622 14.24C93.5742 13.92 93.6942 13.576 93.8222 13.208C93.9502 12.824 94.0702 12.528 94.1822 12.32L94.5902 11.6L93.9422 11.048C93.7182 10.824 93.6062 10.6 93.6062 10.376C93.6062 10.12 93.7582 9.904 94.0622 9.728C94.3822 9.552 94.7502 9.432 95.1662 9.368C95.3262 9.336 95.5102 9.32 95.7182 9.32C95.9422 9.32 96.1502 9.32 96.3422 9.32C96.8062 9.32 97.2702 9.336 97.7342 9.368C98.1982 9.4 98.5822 9.44 98.8862 9.488C99.0622 9.52 99.2862 9.592 99.5582 9.704C99.8302 9.816 100.094 9.944 100.35 10.088C100.606 10.232 100.79 10.368 100.902 10.496C100.902 10.496 100.934 10.528 100.998 10.592C101.062 10.64 101.126 10.664 101.19 10.664C101.286 10.712 101.454 10.896 101.694 11.216C101.95 11.536 102.198 11.896 102.438 12.296C102.678 12.68 102.822 13.032 102.87 13.352C102.918 13.592 102.95 13.856 102.966 14.144C102.998 14.416 103.014 14.664 103.014 14.888C102.998 15.272 102.974 15.64 102.942 15.992C102.926 16.344 102.886 16.728 102.822 17.144C102.774 17.512 102.686 17.92 102.558 18.368C102.446 18.8 102.318 19.224 102.174 19.64C102.046 20.04 101.926 20.368 101.814 20.624C101.718 20.88 101.654 21.008 101.622 21.008C101.526 21.008 101.47 21.032 101.454 21.08C101.438 21.128 101.43 21.184 101.43 21.248C101.414 21.408 101.31 21.664 101.118 22.016C100.926 22.352 100.686 22.72 100.398 23.12C100.11 23.504 99.8062 23.864 99.4862 24.2C99.1822 24.536 98.9022 24.784 98.6462 24.944C98.1342 25.504 97.5182 25.976 96.7982 26.36C96.0782 26.76 95.3342 27.056 94.5662 27.248C93.8142 27.44 93.1182 27.536 92.4782 27.536ZM93.0782 25.112C93.2382 25.112 93.4942 25.104 93.8462 25.088C94.2142 25.056 94.5102 25 94.7342 24.92C95.1182 24.824 95.5822 24.616 96.1262 24.296C96.6702 23.96 97.1662 23.568 97.6142 23.12C98.1102 22.608 98.5582 22.08 98.9582 21.536C99.3582 20.976 99.7502 20.208 100.134 19.232C100.406 18.592 100.598 17.944 100.71 17.288C100.838 16.632 100.902 16.04 100.902 15.512C100.902 14.568 100.726 13.808 100.374 13.232C100.022 12.64 99.5662 12.24 99.0062 12.032C98.7822 11.952 98.5502 11.896 98.3102 11.864C98.0702 11.816 97.8382 11.792 97.6142 11.792C97.4542 11.792 97.2862 11.8 97.1102 11.816C96.9502 11.832 96.8462 11.856 96.7982 11.888C96.6702 11.888 96.5262 12.016 96.3662 12.272C96.2222 12.528 96.0862 12.848 95.9582 13.232C95.8302 13.616 95.7102 13.992 95.5982 14.36C95.4702 14.824 95.3502 15.2 95.2382 15.488C95.1262 15.76 95.0142 16.04 94.9022 16.328C94.7902 16.616 94.6542 17.024 94.4942 17.552C94.2702 17.984 94.0782 18.424 93.9182 18.872C93.7742 19.304 93.6542 19.688 93.5582 20.024C93.4622 20.344 93.3902 20.568 93.3422 20.696C93.2462 20.888 93.1422 21.176 93.0302 21.56C92.9342 21.928 92.8382 22.328 92.7422 22.76C92.6622 23.192 92.5902 23.592 92.5262 23.96C92.4782 24.328 92.4542 24.608 92.4542 24.8C92.4542 24.928 92.5182 25.016 92.6462 25.064C92.7742 25.096 92.9182 25.112 93.0782 25.112ZM103.162 26.984C103.098 26.984 103.01 26.896 102.898 26.72C102.802 26.544 102.754 26.424 102.754 26.36C102.754 26.28 102.738 26.24 102.706 26.24C102.578 26.24 102.506 26.12 102.49 25.88C102.474 25.64 102.53 25.464 102.658 25.352C102.69 25.352 102.706 25.248 102.706 25.04C102.706 24.944 102.714 24.864 102.73 24.8C102.762 24.736 102.77 24.672 102.754 24.608C102.754 24.56 102.77 24.488 102.802 24.392C102.85 24.296 102.874 24.216 102.874 24.152C102.874 24.088 102.906 23.992 102.97 23.864C103.05 23.736 103.114 23.616 103.162 23.504C103.21 23.424 103.266 23.288 103.33 23.096C103.394 22.904 103.458 22.728 103.522 22.568C103.522 22.536 103.586 22.4 103.714 22.16C103.858 21.92 103.97 21.656 104.05 21.368C104.114 21.128 104.17 20.88 104.218 20.624C104.266 20.352 104.29 20.2 104.29 20.168C104.29 20.072 104.29 19.992 104.29 19.928C104.29 19.864 104.29 19.832 104.29 19.832C104.418 19.832 104.482 19.808 104.482 19.76C104.546 19.696 104.578 19.664 104.578 19.664C104.594 19.648 104.602 19.64 104.602 19.64C104.602 19.64 104.61 19.6 104.626 19.52C104.642 19.424 104.706 19.344 104.818 19.28C104.962 19.104 105.042 18.984 105.058 18.92C105.09 18.856 105.106 18.8 105.106 18.752C105.106 18.752 105.21 18.472 105.418 17.912C105.626 17.336 105.962 16.512 106.426 15.44C106.698 15.008 106.898 14.616 107.026 14.264C107.154 13.912 107.258 13.68 107.338 13.568C107.466 13.264 107.53 13.016 107.53 12.824C107.53 12.824 107.522 12.824 107.506 12.824C107.506 12.824 107.49 12.824 107.458 12.824C107.314 12.904 107.17 12.848 107.026 12.656C106.882 12.464 106.714 12.288 106.522 12.128C106.41 12 106.386 11.864 106.45 11.72C106.514 11.56 106.546 11.472 106.546 11.456C106.546 11.408 106.674 11.32 106.93 11.192C107.186 11.048 107.474 10.912 107.794 10.784C108.114 10.64 108.37 10.544 108.562 10.496C108.754 10.4 109.01 10.352 109.33 10.352C109.666 10.352 110.002 10.376 110.338 10.424C110.674 10.472 110.946 10.52 111.154 10.568C111.682 10.68 112.226 10.92 112.786 11.288C113.346 11.656 113.754 12.112 114.01 12.656C114.138 12.88 114.234 13.184 114.298 13.568C114.378 13.952 114.418 14.36 114.418 14.792C114.434 15.208 114.394 15.576 114.298 15.896C114.186 16.2 113.994 16.56 113.722 16.976C113.45 17.376 113.154 17.776 112.834 18.176C112.514 18.56 112.218 18.88 111.946 19.136C111.674 19.392 111.482 19.52 111.37 19.52C111.258 19.52 111.194 19.52 111.178 19.52C111.162 19.52 111.154 19.52 111.154 19.52C111.154 19.536 111.082 19.592 110.938 19.688C110.81 19.768 110.65 19.864 110.458 19.976C110.266 20.072 110.074 20.16 109.882 20.24C109.69 20.32 109.546 20.368 109.45 20.384C109.338 20.384 109.25 20.392 109.186 20.408C109.122 20.424 109.066 20.48 109.018 20.576C108.922 20.736 108.866 20.872 108.85 20.984C108.85 21.08 108.866 21.264 108.898 21.536C108.978 21.728 109.09 21.968 109.234 22.256C109.378 22.528 109.514 22.776 109.642 23C109.786 23.208 109.874 23.312 109.906 23.312C109.97 23.312 110.058 23.344 110.17 23.408C110.282 23.472 110.394 23.576 110.506 23.72C110.826 23.928 111.09 24.128 111.298 24.32C111.506 24.496 111.602 24.528 111.586 24.416C111.586 24.368 111.658 24.312 111.802 24.248C111.946 24.184 112.106 24.144 112.282 24.128C112.554 24.128 112.746 24.184 112.858 24.296C112.986 24.392 113.058 24.44 113.074 24.44C113.074 24.44 113.074 24.488 113.074 24.584C113.09 24.68 113.106 24.792 113.122 24.92C113.122 25.112 113.042 25.336 112.882 25.592C112.722 25.848 112.53 26.072 112.306 26.264C112.098 26.472 111.89 26.584 111.682 26.6C111.138 26.664 110.57 26.52 109.978 26.168C109.386 25.816 108.826 25.312 108.298 24.656C107.77 23.984 107.33 23.224 106.978 22.376C106.866 22.008 106.81 21.736 106.81 21.56C106.826 21.368 106.714 21.288 106.474 21.32C106.282 21.32 106.178 21.352 106.162 21.416C106.146 21.464 106.074 21.648 105.946 21.968C105.93 22.096 105.914 22.216 105.898 22.328C105.898 22.424 105.858 22.472 105.778 22.472C105.778 22.472 105.738 22.568 105.658 22.76C105.578 22.936 105.482 23.136 105.37 23.36C105.338 23.568 105.282 23.76 105.202 23.936C105.138 24.096 105.106 24.208 105.106 24.272C105.106 24.448 105.098 24.568 105.082 24.632C105.066 24.696 105.018 24.728 104.938 24.728C104.954 24.792 104.946 24.856 104.914 24.92C104.882 24.984 104.866 25.064 104.866 25.16C104.866 25.176 104.858 25.248 104.842 25.376C104.842 25.488 104.826 25.624 104.794 25.784C104.73 25.944 104.658 26.056 104.578 26.12C104.514 26.2 104.49 26.28 104.506 26.36C104.506 26.44 104.418 26.536 104.242 26.648C104.082 26.76 103.89 26.848 103.666 26.912C103.458 26.992 103.29 27.016 103.162 26.984ZM107.458 18.704C107.57 19.072 107.89 19.056 108.418 18.656C108.962 18.464 109.338 18.304 109.546 18.176C109.77 18.032 109.962 17.904 110.122 17.792C110.266 17.712 110.386 17.624 110.482 17.528C110.578 17.416 110.626 17.36 110.626 17.36C110.738 17.344 110.882 17.256 111.058 17.096C111.25 16.936 111.442 16.728 111.634 16.472C111.826 16.216 111.986 15.944 112.114 15.656C112.258 15.4 112.338 15.216 112.354 15.104C112.386 14.992 112.394 14.88 112.378 14.768C112.362 14.656 112.354 14.488 112.354 14.264C112.274 13.976 112.194 13.744 112.114 13.568C112.05 13.376 111.938 13.216 111.778 13.088C111.634 12.944 111.386 12.808 111.034 12.68C110.794 12.552 110.506 12.48 110.17 12.464C109.834 12.448 109.554 12.472 109.33 12.536C109.122 12.584 109.058 12.672 109.138 12.8C109.202 13.072 109.282 13.336 109.378 13.592C109.474 13.832 109.45 14.064 109.306 14.288C109.306 14.432 109.194 14.752 108.97 15.248C108.746 15.744 108.53 16.272 108.322 16.832C108.05 17.456 107.834 17.912 107.674 18.2C107.53 18.488 107.458 18.656 107.458 18.704ZM116.747 25.808C116.683 25.776 116.571 25.688 116.411 25.544C116.267 25.4 116.123 25.24 115.979 25.064C115.835 24.872 115.739 24.728 115.691 24.632C115.643 24.552 115.643 24.408 115.691 24.2C115.755 23.992 115.819 23.888 115.883 23.888C115.931 23.92 115.995 23.864 116.075 23.72C116.155 23.576 116.235 23.424 116.315 23.264C116.395 23.088 116.435 22.984 116.435 22.952C116.451 22.888 116.491 22.84 116.555 22.808C116.635 22.76 116.707 22.712 116.771 22.664C116.851 22.536 116.955 22.408 117.083 22.28C117.227 22.136 117.339 22.016 117.419 21.92C117.547 21.76 117.779 21.52 118.115 21.2C118.451 20.88 118.779 20.552 119.099 20.216C119.435 19.848 119.731 19.528 119.987 19.256C120.243 18.968 120.379 18.768 120.395 18.656C120.395 18.656 120.419 18.632 120.467 18.584C120.531 18.52 120.603 18.464 120.683 18.416C120.763 18.368 120.867 18.288 120.995 18.176C121.139 18.064 121.259 17.96 121.355 17.864C121.387 17.736 121.459 17.592 121.571 17.432C121.699 17.256 121.843 17.088 122.003 16.928C122.131 16.736 122.251 16.528 122.363 16.304C122.475 16.064 122.547 15.888 122.579 15.776C122.627 15.6 122.611 15.496 122.531 15.464C122.451 15.416 122.235 15.336 121.883 15.224C121.499 15.096 121.139 15.072 120.803 15.152C120.467 15.232 120.019 15.472 119.459 15.872C119.235 15.92 119.027 15.984 118.835 16.064C118.659 16.144 118.507 16.176 118.379 16.16C118.315 16.128 118.243 16.056 118.163 15.944C118.083 15.832 117.995 15.728 117.899 15.632L117.659 14.6L118.403 14.192C119.059 13.776 119.683 13.464 120.275 13.256C120.883 13.032 121.411 12.992 121.859 13.136C122.035 13.136 122.195 13.16 122.339 13.208C122.483 13.24 122.555 13.256 122.555 13.256C122.683 13.24 122.867 13.304 123.107 13.448C123.363 13.592 123.611 13.776 123.851 14C124.107 14.224 124.283 14.448 124.379 14.672C124.635 15.056 124.731 15.52 124.667 16.064C124.603 16.608 124.371 17.176 123.971 17.768C123.891 17.864 123.715 18.064 123.443 18.368C123.171 18.672 122.859 19.016 122.507 19.4C122.171 19.768 121.859 20.096 121.571 20.384C121.299 20.672 121.123 20.856 121.043 20.936C120.931 20.984 120.739 21.136 120.467 21.392C120.211 21.648 119.931 21.936 119.627 22.256C119.339 22.56 119.091 22.832 118.883 23.072C118.691 23.296 118.611 23.408 118.643 23.408C118.627 23.472 118.707 23.472 118.883 23.408C119.075 23.328 119.243 23.264 119.387 23.216C119.627 23.136 119.907 23.064 120.227 23C120.563 22.92 120.899 22.856 121.235 22.808C121.571 22.76 121.859 22.728 122.099 22.712C122.355 22.696 122.507 22.712 122.555 22.76C122.587 22.84 122.611 22.872 122.627 22.856C122.659 22.824 122.675 22.808 122.675 22.808C122.707 22.696 122.907 22.664 123.275 22.712C123.659 22.76 124.003 22.832 124.307 22.928C124.483 22.976 124.619 23.04 124.715 23.12C124.827 23.2 124.883 23.272 124.883 23.336C124.883 23.336 124.899 23.376 124.931 23.456C124.979 23.52 125.051 23.608 125.147 23.72C125.403 23.928 125.403 24.152 125.147 24.392C124.907 24.632 124.467 24.696 123.827 24.584C123.411 24.584 123.067 24.608 122.795 24.656C122.731 24.688 122.595 24.704 122.387 24.704C122.179 24.704 121.979 24.712 121.787 24.728C121.499 24.696 121.211 24.712 120.923 24.776C120.635 24.824 120.291 24.912 119.891 25.04C119.747 25.088 119.523 25.16 119.219 25.256C118.915 25.352 118.587 25.448 118.235 25.544C117.883 25.64 117.563 25.712 117.275 25.76C117.003 25.808 116.827 25.824 116.747 25.808Z" fill="white"/>
<path d="M78.2795 54.12C78.0795 54.04 77.8728 53.9533 77.6595 53.86C77.4595 53.7667 77.2662 53.6267 77.0795 53.44C76.9062 53.2667 76.7528 53.02 76.6195 52.7C76.4862 52.3133 76.3928 51.9333 76.3395 51.56C76.2995 51.1867 76.2862 50.7533 76.2995 50.26C76.2995 49.5667 76.3462 48.9667 76.4395 48.46C76.5462 47.94 76.7062 47.4133 76.9195 46.88C76.9462 46.84 76.9928 46.7267 77.0595 46.54C77.1395 46.34 77.2262 46.1267 77.3195 45.9C77.4262 45.6733 77.5062 45.5 77.5595 45.38C77.6662 45.1533 77.8262 44.8533 78.0395 44.48C78.2662 44.0933 78.5062 43.72 78.7595 43.36C79.1462 42.7867 79.4662 42.3333 79.7195 42C79.9728 41.6667 80.2128 41.3867 80.4395 41.16C80.6662 40.9333 80.9195 40.72 81.1995 40.52C81.4928 40.3067 81.8662 40.0467 82.3195 39.74C82.6128 39.5267 82.9328 39.4133 83.2795 39.4C83.6395 39.3867 83.9728 39.4667 84.2795 39.64C84.5862 39.8 84.8128 40.04 84.9595 40.36C85.1062 40.64 85.1795 40.98 85.1795 41.38C85.1795 41.7667 85.1195 42.18 84.9995 42.62C84.8795 43.0467 84.7128 43.4533 84.4995 43.84C84.2862 44.2267 84.0395 44.5467 83.7595 44.8C83.5862 44.96 83.4262 45.02 83.2795 44.98C83.1462 44.94 82.9862 44.8333 82.7995 44.66C82.6795 44.4333 82.6128 44.3 82.5995 44.26C82.5995 44.22 82.6262 44.1933 82.6795 44.18C82.7595 44.0867 82.8662 43.9267 82.9995 43.7C83.1328 43.4733 83.2662 43.2333 83.3995 42.98C83.5328 42.7133 83.6262 42.5 83.6795 42.34C83.7862 41.78 83.8595 41.3867 83.8995 41.16C83.9395 40.92 83.8995 40.74 83.7795 40.62C83.7262 40.5667 83.6462 40.5467 83.5395 40.56C83.4462 40.5733 83.2862 40.64 83.0595 40.76C82.7528 40.8933 82.3528 41.1933 81.8595 41.66C81.3662 42.1133 80.9128 42.62 80.4995 43.18C79.9662 43.8867 79.5195 44.5133 79.1595 45.06C78.7995 45.6067 78.5262 46.1667 78.3395 46.74C78.3128 46.7933 78.2662 46.8933 78.1995 47.04C78.1462 47.1867 78.1195 47.26 78.1195 47.26C78.1328 47.3133 78.1128 47.4467 78.0595 47.66C78.0062 47.86 77.9462 48.0333 77.8795 48.18C77.7328 48.7933 77.6462 49.4333 77.6195 50.1C77.5928 50.7533 77.6262 51.3333 77.7195 51.84C77.8262 52.3467 77.9795 52.7 78.1795 52.9C78.3528 53.02 78.5862 53.06 78.8795 53.02C79.1862 52.98 79.5328 52.8867 79.9195 52.74C80.3062 52.5933 80.6995 52.4333 81.0995 52.26C81.4195 52.1267 81.7128 51.98 81.9795 51.82C82.2462 51.66 82.4462 51.52 82.5795 51.4C82.6862 51.32 82.8195 51.24 82.9795 51.16C83.1528 51.0667 83.2995 51.02 83.4195 51.02C83.6062 50.9533 83.7128 50.9267 83.7395 50.94C83.7662 50.9533 83.7795 51.0133 83.7795 51.12C83.7795 51.3067 83.6728 51.5133 83.4595 51.74C83.2595 51.9667 82.9995 52.1733 82.6795 52.36C82.5728 52.4667 82.4328 52.58 82.2595 52.7C82.0862 52.82 81.9062 52.9133 81.7195 52.98C81.4395 53.1933 81.0928 53.4 80.6795 53.6C80.2662 53.8 79.8462 53.9533 79.4195 54.06C79.0062 54.1667 78.6262 54.1867 78.2795 54.12ZM86.6479 53.5C86.5813 53.5 86.5013 53.4667 86.4079 53.4C86.3146 53.3467 86.2279 53.2733 86.1479 53.18C86.0813 53.0867 86.0479 52.9867 86.0479 52.88C86.0479 52.88 86.0413 52.84 86.0279 52.76C86.0279 52.6667 86.0013 52.5733 85.9479 52.48C85.9479 52.3733 85.9479 52.2533 85.9479 52.12C85.9613 51.9733 85.9946 51.8267 86.0479 51.68C86.0479 51.5333 86.0679 51.3733 86.1079 51.2C86.1479 51.0133 86.1946 50.8733 86.2479 50.78C86.2479 50.6333 86.2813 50.4467 86.3479 50.22C86.4279 49.98 86.4946 49.76 86.5479 49.56C86.6946 49.12 86.8013 48.8 86.8679 48.6C86.9479 48.4 87.0013 48.2533 87.0279 48.16C87.0546 48.0533 87.0679 47.9467 87.0679 47.84C87.1079 47.7333 87.1679 47.54 87.2479 47.26C87.3279 46.98 87.4079 46.6933 87.4879 46.4C87.5813 46.0933 87.6413 45.8733 87.6679 45.74C87.7213 45.6867 87.7479 45.64 87.7479 45.6C87.7613 45.5467 87.7679 45.4933 87.7679 45.44C87.7679 45.44 87.8146 45.2867 87.9079 44.98C88.0013 44.6733 88.1213 44.32 88.2679 43.92C88.5079 43.2133 88.6679 42.7 88.7479 42.38C88.8413 42.06 88.8813 41.8333 88.8679 41.7C88.8679 41.5667 88.8346 41.4333 88.7679 41.3C88.6746 41.1267 88.6746 40.9933 88.7679 40.9C88.8213 40.8467 88.8679 40.7867 88.9079 40.72C88.9479 40.64 88.9679 40.6 88.9679 40.6C88.9679 40.5733 89.0546 40.5267 89.2279 40.46C89.4013 40.3933 89.6146 40.32 89.8679 40.24C90.1213 40.1467 90.3746 40.06 90.6279 39.98C90.8946 39.9 91.1146 39.8333 91.2879 39.78C91.3279 39.78 91.3879 39.78 91.4679 39.78C91.5613 39.78 91.6613 39.78 91.7679 39.78C91.8879 39.78 92.0013 39.78 92.1079 39.78C92.4546 39.8333 92.8079 39.9333 93.1679 40.08C93.5413 40.2267 93.8546 40.4333 94.1079 40.7C94.2679 40.8467 94.4079 41.02 94.5279 41.22C94.6613 41.42 94.8279 41.7467 95.0279 42.2C95.0279 42.2533 95.0413 42.3667 95.068 42.54C95.1079 42.7 95.1279 42.86 95.1279 43.02C95.1279 43.42 95.0279 43.84 94.8279 44.28C94.6279 44.72 94.3413 45.1667 93.9679 45.62C93.5946 46.06 93.1413 46.5 92.6079 46.94C92.0479 47.3933 91.4679 47.7 90.8679 47.86C90.2679 48.02 89.7346 48.0533 89.2679 47.96C89.1746 47.92 89.0879 47.84 89.0079 47.72C88.9413 47.6 88.8946 47.48 88.8679 47.36C88.8413 47.24 88.8479 47.16 88.8879 47.12C88.9946 47.0933 89.1546 47.0867 89.3679 47.1C89.5813 47.1 89.9213 47.0133 90.3879 46.84C90.5346 46.7867 90.6879 46.7267 90.8479 46.66C91.0079 46.58 91.1346 46.5133 91.2279 46.46C91.4946 46.2867 91.8013 46.0533 92.1479 45.76C92.4946 45.4667 92.8146 45.0867 93.1079 44.62C93.2279 44.4333 93.3479 44.2133 93.4679 43.96C93.5879 43.6933 93.6879 43.4267 93.768 43.16C93.8613 42.8933 93.9079 42.6733 93.9079 42.5C94.0146 42.1533 93.9479 41.8667 93.7079 41.64C93.4813 41.4 93.1146 41.2533 92.6079 41.2C92.4479 41.16 92.2013 41.1733 91.8679 41.24C91.5346 41.2933 91.2146 41.3667 90.9079 41.46C90.6013 41.5533 90.3946 41.6333 90.2879 41.7C90.2346 41.7 90.2013 41.74 90.1879 41.82C90.1746 41.9 90.1413 41.9933 90.0879 42.1C90.0879 42.1933 90.0479 42.3933 89.9679 42.7C89.8879 42.9933 89.7946 43.2667 89.6879 43.52C89.5946 43.8133 89.4813 44.14 89.3479 44.5C89.2146 44.8467 89.1213 45.12 89.0679 45.32C89.0146 45.5333 88.9479 45.74 88.8679 45.94C88.8013 46.14 88.7679 46.24 88.7679 46.24C88.7679 46.2933 88.7279 46.4067 88.6479 46.58C88.5813 46.7533 88.5213 46.94 88.4679 47.14C88.4146 47.3933 88.3413 47.68 88.2479 48C88.1679 48.32 88.0746 48.6067 87.9679 48.86C87.8213 49.3533 87.6946 49.8467 87.5879 50.34C87.4813 50.82 87.4746 51.1333 87.5679 51.28C87.7146 51.28 87.7679 51.4 87.7279 51.64C87.6879 51.8667 87.5679 52.18 87.3679 52.58C87.2346 52.9133 87.1346 53.14 87.0679 53.26C87.0013 53.3933 86.9413 53.4667 86.8879 53.48C86.8346 53.4933 86.7546 53.5 86.6479 53.5ZM97.7015 53.48C97.2882 53.4533 96.9215 53.3267 96.6015 53.1C96.2949 52.8733 95.9682 52.64 95.6215 52.4C95.3949 52.1733 95.2149 51.9333 95.0815 51.68C94.9482 51.4133 94.8415 51.0667 94.7615 50.64C94.7082 50.3867 94.7082 50.0667 94.7615 49.68C94.8149 49.2933 94.9015 48.9067 95.0215 48.52C95.1415 48.12 95.2549 47.8 95.3615 47.56C95.5215 47.1867 95.7215 46.7867 95.9615 46.36C96.2149 45.92 96.4615 45.5067 96.7015 45.12C96.9549 44.72 97.1549 44.4 97.3015 44.16C97.3949 44.0667 97.4349 44.02 97.4215 44.02C97.4215 44.0067 97.4215 44 97.4215 44C97.4215 43.9333 97.4882 43.7667 97.6215 43.5C97.7682 43.22 97.8949 42.9733 98.0015 42.76C98.2015 42.5467 98.3149 42.3733 98.3415 42.24C98.3682 42.1067 98.3482 42 98.2815 41.92C98.2549 41.8667 98.3015 41.7733 98.4215 41.64C98.5415 41.5067 98.7215 41.3533 98.9615 41.18C99.2015 41.0067 99.4749 40.8333 99.7815 40.66C100.102 40.4067 100.408 40.2733 100.702 40.26C101.008 40.2333 101.188 40.2933 101.242 40.44C101.242 40.48 101.315 40.4933 101.462 40.48C101.622 40.4533 101.802 40.42 102.002 40.38C102.215 40.3267 102.402 40.2867 102.562 40.26C102.628 40.18 102.782 40.12 103.022 40.08C103.275 40.0267 103.568 39.98 103.902 39.94C104.075 39.9533 104.242 39.96 104.402 39.96C104.575 39.9467 104.715 39.9333 104.822 39.92C104.942 39.9067 105.002 39.9 105.002 39.9C105.095 39.8733 105.202 39.8867 105.322 39.94C105.455 39.9933 105.575 40.14 105.682 40.38C105.775 40.62 105.742 40.8 105.582 40.92C105.435 41.04 105.088 41.1333 104.542 41.2C104.142 41.2533 103.795 41.3 103.502 41.34C103.208 41.3667 102.902 41.4067 102.582 41.46C102.262 41.5 101.868 41.5733 101.402 41.68C101.068 41.7467 100.795 41.8267 100.582 41.92C100.368 42 100.182 42.1267 100.022 42.3C99.8615 42.46 99.6815 42.6933 99.4815 43C99.3882 43.0667 99.2682 43.24 99.1215 43.52C98.9749 43.8 98.8282 44.08 98.6815 44.36C98.3082 44.88 97.9815 45.3333 97.7015 45.72C97.4349 46.0933 97.3282 46.3133 97.3815 46.38C97.3815 46.38 97.4549 46.4 97.6015 46.44C97.7482 46.48 97.8482 46.5 97.9015 46.5C98.0349 46.4333 98.1949 46.3867 98.3815 46.36C98.5815 46.3333 98.7415 46.3067 98.8615 46.28C99.6882 46.0667 100.335 45.9 100.802 45.78C101.282 45.66 101.642 45.5733 101.882 45.52C102.135 45.4533 102.328 45.4133 102.462 45.4C102.648 45.2533 102.828 45.2267 103.002 45.32C103.188 45.4133 103.335 45.56 103.442 45.76C103.508 45.9067 103.508 46.0333 103.442 46.14C103.388 46.2467 103.222 46.3533 102.942 46.46C102.675 46.5667 102.275 46.6933 101.742 46.84C101.208 46.9867 100.508 47.18 99.6415 47.42C98.9082 47.6333 98.2815 47.76 97.7615 47.8C97.2415 47.84 96.9949 47.7267 97.0215 47.46C96.9282 47.4067 96.8215 47.4733 96.7015 47.66C96.5949 47.8333 96.4882 48.0733 96.3815 48.38C96.2749 48.6867 96.1815 49.0133 96.1015 49.36C96.0349 49.7067 95.9882 50.0333 95.9615 50.34C95.9482 50.6333 95.9682 50.8533 96.0215 51C96.1282 51.3067 96.2682 51.5533 96.4415 51.74C96.6149 51.9133 96.9282 52.0667 97.3815 52.2C97.6482 52.2133 97.9082 52.2333 98.1615 52.26C98.4149 52.2867 98.7015 52.2333 99.0215 52.1C99.8082 51.9667 100.428 51.8267 100.882 51.68C101.335 51.5333 101.595 51.4333 101.662 51.38C101.768 51.3267 101.835 51.3 101.862 51.3C101.902 51.2867 101.955 51.28 102.022 51.28C101.982 51.3467 101.995 51.3533 102.062 51.3C102.142 51.2333 102.248 51.1333 102.382 51C102.528 50.8667 102.722 50.74 102.962 50.62C103.202 50.5 103.415 50.4067 103.602 50.34C103.802 50.2733 103.908 50.2733 103.922 50.34C104.002 50.4733 103.988 50.66 103.882 50.9C103.775 51.1267 103.582 51.38 103.302 51.66C103.022 51.9267 102.662 52.1867 102.222 52.44C101.515 52.8133 100.748 53.0733 99.9215 53.22C99.0949 53.38 98.3549 53.4667 97.7015 53.48ZM105.899 56.88C105.712 56.9867 105.579 57.04 105.499 57.04C105.432 57.0533 105.325 56.9867 105.179 56.84C105.059 56.7067 104.965 56.58 104.899 56.46C104.832 56.3533 104.805 56.2133 104.819 56.04C104.845 55.7467 104.905 55.38 104.999 54.94C105.092 54.5 105.192 54.0533 105.299 53.6C105.419 53.1467 105.512 52.7733 105.579 52.48C105.619 52.2933 105.665 52.1867 105.719 52.16C105.785 52.12 105.905 52.1 106.079 52.1C106.292 52.1 106.499 52.1 106.699 52.1C106.912 52.0867 107.119 52.0667 107.319 52.04L107.759 52C107.999 51.7467 108.232 51.5 108.459 51.26C108.699 51.02 108.932 50.7733 109.159 50.52C109.305 50.3467 109.472 50.1267 109.659 49.86C109.859 49.58 110.052 49.3 110.239 49.02C110.425 48.7267 110.579 48.48 110.699 48.28C111.059 47.6933 111.405 47.1267 111.739 46.58C112.072 46.0333 112.412 45.4 112.759 44.68C112.972 44.2533 113.152 43.8067 113.299 43.34C113.459 42.86 113.645 42.4133 113.859 42C114.045 41.68 114.179 41.34 114.259 40.98C114.352 40.6067 114.465 40.2533 114.599 39.92C114.452 39.84 114.099 39.8867 113.539 40.06C112.992 40.22 112.325 40.4733 111.539 40.82C111.312 40.9 111.119 40.8933 110.959 40.8C110.812 40.6933 110.705 40.56 110.639 40.4C110.585 40.2267 110.579 40.0667 110.619 39.92C110.659 39.7733 110.752 39.6933 110.899 39.68C111.045 39.6533 111.179 39.6067 111.299 39.54C111.432 39.4733 111.565 39.42 111.699 39.38C112.005 39.3 112.292 39.22 112.559 39.14C112.839 39.0467 113.139 38.98 113.459 38.94C113.619 38.9133 113.785 38.8867 113.959 38.86C114.145 38.8333 114.312 38.7933 114.459 38.74C114.739 38.66 115.045 38.6467 115.379 38.7C115.712 38.74 116.139 38.78 116.659 38.82C117.219 38.82 117.752 38.9533 118.259 39.22C118.765 39.4733 119.272 39.7067 119.779 39.92C119.859 40.0133 119.945 40.16 120.039 40.36C120.132 40.5467 120.172 40.7067 120.159 40.84C120.159 40.9867 120.105 41.26 119.999 41.66C119.892 42.06 119.752 42.5133 119.579 43.02C119.419 43.5267 119.252 44.0333 119.079 44.54C118.919 45.0333 118.772 45.46 118.639 45.82C118.505 46.18 118.419 46.4133 118.379 46.52C118.352 46.5733 118.305 46.6867 118.239 46.86C118.172 47.0333 118.112 47.2067 118.059 47.38C118.005 47.54 117.972 47.64 117.959 47.68C117.932 47.92 117.885 48.14 117.819 48.34C117.752 48.5267 117.672 48.7333 117.579 48.96C117.419 49.3733 117.259 49.8067 117.099 50.26C116.939 50.7 116.799 51.1467 116.679 51.6C116.959 51.6933 117.245 51.7467 117.539 51.76C117.832 51.7733 118.105 51.8267 118.359 51.92C118.612 52.0133 118.819 52.2333 118.979 52.58C119.032 52.6867 119.019 52.8667 118.939 53.12C118.872 53.3867 118.772 53.6867 118.639 54.02C118.505 54.3533 118.359 54.6867 118.199 55.02C118.052 55.3667 117.912 55.6667 117.779 55.92C117.659 56.1733 117.572 56.3533 117.519 56.46C117.465 56.58 117.385 56.6667 117.279 56.72C117.185 56.7733 117.065 56.7733 116.919 56.72L116.379 56.24C116.299 56.04 116.319 55.7867 116.439 55.48C116.572 55.1867 116.732 54.88 116.919 54.56C117.105 54.24 117.272 53.9267 117.419 53.62C117.579 53.3267 117.645 53.08 117.619 52.88C117.379 52.84 117.132 52.8333 116.879 52.86C116.639 52.8733 116.399 52.84 116.159 52.76C116.132 52.7467 116.099 52.74 116.059 52.74C116.019 52.74 115.979 52.74 115.939 52.74C115.299 52.74 114.785 52.74 114.399 52.74C114.025 52.74 113.725 52.74 113.499 52.74C113.285 52.7267 113.092 52.7267 112.919 52.74C112.759 52.74 112.572 52.7533 112.359 52.78C112.145 52.7933 111.859 52.8133 111.499 52.84C111.379 52.8533 111.259 52.8533 111.139 52.84C111.019 52.8267 110.905 52.8333 110.799 52.86C110.545 52.9267 110.285 52.9733 110.019 53C109.752 53.0267 109.465 53.04 109.159 53.04C108.892 53.0533 108.659 53.06 108.459 53.06C108.272 53.0733 108.105 53.0933 107.959 53.12C107.759 53.16 107.559 53.2067 107.359 53.26C107.159 53.3267 106.952 53.3733 106.739 53.4C106.579 53.8133 106.445 54.24 106.339 54.68C106.232 55.12 106.132 55.5533 106.039 55.98C105.999 56.1267 105.979 56.2733 105.979 56.42C105.992 56.5667 105.965 56.72 105.899 56.88ZM109.799 51.78C109.839 51.78 110.012 51.7733 110.319 51.76C110.625 51.7467 110.965 51.7333 111.339 51.72C111.725 51.6933 112.065 51.6733 112.359 51.66C112.652 51.6467 112.805 51.6467 112.819 51.66C112.859 51.6333 112.992 51.6133 113.219 51.6C113.445 51.5867 113.699 51.58 113.979 51.58C114.259 51.5667 114.525 51.56 114.779 51.56C115.032 51.56 115.212 51.56 115.319 51.56C115.412 51.36 115.485 51.1533 115.539 50.94C115.605 50.7133 115.672 50.4933 115.739 50.28C115.832 49.9733 115.932 49.6733 116.039 49.38C116.145 49.0733 116.245 48.7733 116.339 48.48C116.565 47.8 116.805 47.16 117.059 46.56C117.325 45.9467 117.559 45.24 117.759 44.44C117.799 44.2533 117.859 44.0733 117.939 43.9C118.032 43.7133 118.105 43.5267 118.159 43.34L118.459 42.32C118.525 42.1333 118.572 41.94 118.599 41.74C118.625 41.5267 118.672 41.34 118.739 41.18C118.805 41.0467 118.819 40.9133 118.779 40.78C118.752 40.6467 118.719 40.5133 118.679 40.38C118.385 40.22 118.065 40.08 117.719 39.96C117.385 39.8267 117.045 39.76 116.699 39.76C116.565 39.76 116.412 39.7333 116.239 39.68C116.065 39.6267 115.932 39.66 115.839 39.78C115.879 39.9267 115.899 40.0333 115.899 40.1C115.912 40.1667 115.892 40.2733 115.839 40.42C115.745 40.74 115.605 41.1467 115.419 41.64C115.232 42.12 115.019 42.64 114.779 43.2C114.539 43.7467 114.299 44.2867 114.059 44.82C113.819 45.34 113.592 45.8067 113.379 46.22C113.179 46.62 113.019 46.9067 112.899 47.08C112.739 47.3067 112.585 47.54 112.439 47.78C112.305 48.02 112.165 48.26 112.019 48.5C112.019 48.5133 111.939 48.6333 111.779 48.86C111.632 49.0733 111.445 49.34 111.219 49.66C111.005 49.98 110.785 50.3 110.559 50.62C110.345 50.94 110.165 51.2133 110.019 51.44C109.872 51.6533 109.799 51.7667 109.799 51.78ZM121.619 54.66C121.619 54.66 121.599 54.6467 121.559 54.62C121.519 54.6067 121.466 54.5933 121.399 54.58C121.346 54.5667 121.279 54.56 121.199 54.56C120.986 54.5067 120.832 54.3867 120.739 54.2C120.646 54.0267 120.626 53.8333 120.679 53.62C120.732 53.5667 120.772 53.4533 120.799 53.28C120.826 53.1067 120.839 52.9667 120.839 52.86C120.892 52.7533 120.926 52.68 120.939 52.64C120.952 52.5867 120.986 52.4533 121.039 52.24C121.079 52.0133 121.146 51.7 121.239 51.3C121.346 50.8867 121.459 50.4467 121.579 49.98C121.712 49.5133 121.839 49.0667 121.959 48.64C122.079 48.2133 122.186 47.8533 122.279 47.56C122.386 47.2667 122.459 47.1 122.499 47.06C122.499 47.06 122.499 47.04 122.499 47C122.499 46.9467 122.499 46.8933 122.499 46.84C122.499 46.84 122.506 46.78 122.519 46.66C122.546 46.5267 122.612 46.38 122.719 46.22C122.772 46.0733 122.819 45.9133 122.859 45.74C122.899 45.5667 122.919 45.4533 122.919 45.4C122.972 45.3333 123.046 45.1733 123.139 44.92C123.246 44.6533 123.346 44.3933 123.439 44.14C123.519 43.9267 123.606 43.7 123.699 43.46C123.806 43.22 123.892 43.0133 123.959 42.84C124.039 42.6667 124.079 42.58 124.079 42.58C124.079 42.5267 124.079 42.5 124.079 42.5C124.079 42.4867 124.079 42.48 124.079 42.48C124.132 42.4267 124.259 42.16 124.459 41.68C124.672 41.1867 124.959 40.5533 125.319 39.78C125.372 39.6733 125.439 39.5533 125.519 39.42C125.599 39.2867 125.639 39.1933 125.639 39.14C125.706 39.0333 125.799 38.9867 125.919 39C126.039 39 126.159 39.04 126.279 39.12C126.412 39.2 126.512 39.3133 126.579 39.46L126.779 39.78L126.059 41.22C125.846 41.5933 125.666 41.9333 125.519 42.24C125.386 42.5467 125.319 42.7267 125.319 42.78C125.319 42.78 125.279 42.8867 125.199 43.1C125.119 43.3133 125.026 43.5667 124.919 43.86C124.812 44.1533 124.719 44.42 124.639 44.66C124.492 45.0733 124.352 45.4133 124.219 45.68C124.099 45.9467 124.039 46.1067 124.039 46.16C124.039 46.1333 124.186 46.1133 124.479 46.1C124.772 46.0867 125.146 46.08 125.599 46.08C126.052 46.08 126.512 46.08 126.979 46.08C127.459 46.0667 127.879 46.06 128.239 46.06C128.612 46.0467 128.866 46.0267 128.999 46L130.039 45.9L130.719 43.84C130.826 43.4667 130.966 43.0133 131.139 42.48C131.312 41.9467 131.466 41.4933 131.599 41.12C131.812 40.5067 131.979 40.1267 132.099 39.98C132.219 39.8333 132.359 39.76 132.519 39.76C132.559 39.76 132.612 39.7733 132.679 39.8C132.759 39.8133 132.832 39.8467 132.899 39.9C132.979 39.94 133.032 40 133.059 40.08C133.219 40.2267 133.292 40.3933 133.279 40.58C133.279 40.7667 133.172 41.0133 132.959 41.32C132.746 41.68 132.566 42.0733 132.419 42.5C132.286 42.9133 132.166 43.2533 132.059 43.52C132.059 43.68 132.039 43.8133 131.999 43.92C131.959 44.0133 131.912 44.0867 131.859 44.14C131.832 44.1667 131.779 44.2667 131.699 44.44C131.619 44.6133 131.546 44.7867 131.479 44.96C131.412 45.1333 131.379 45.24 131.379 45.28C131.379 45.3733 131.359 45.4867 131.319 45.62C131.279 45.7533 131.232 45.8467 131.179 45.9C131.152 45.98 131.092 46.18 130.999 46.5C130.906 46.82 130.799 47.2 130.679 47.64C130.559 48.0667 130.432 48.4867 130.299 48.9C130.166 49.3 130.046 49.6333 129.939 49.9C129.939 49.9933 129.906 50.1133 129.839 50.26C129.772 50.3933 129.739 50.5133 129.739 50.62C129.686 50.78 129.619 50.98 129.539 51.22C129.459 51.46 129.419 51.6133 129.419 51.68C129.352 51.9867 129.279 52.3 129.199 52.62C129.132 52.94 129.072 53.2133 129.019 53.44C128.979 53.68 128.959 53.82 128.959 53.86C128.906 53.9133 128.826 53.92 128.719 53.88C128.612 53.84 128.486 53.7933 128.339 53.74C128.086 53.5933 127.932 53.4333 127.879 53.26C127.839 53.1 127.892 52.8667 128.039 52.56C128.106 52.4533 128.186 52.1933 128.279 51.78C128.386 51.3533 128.492 50.9333 128.599 50.52C128.679 50.32 128.766 50.0533 128.859 49.72C128.952 49.3733 129.046 49.0267 129.139 48.68C129.232 48.32 129.312 48.02 129.379 47.78C129.446 47.5267 129.492 47.3867 129.519 47.36C129.519 47.3067 129.519 47.26 129.519 47.22C129.519 47.18 129.519 47.16 129.519 47.16C129.492 47.1333 129.326 47.1133 129.019 47.1C128.712 47.0733 128.332 47.0667 127.879 47.08C127.426 47.08 126.952 47.0933 126.459 47.12C125.979 47.1333 125.546 47.1667 125.159 47.22C125.012 47.22 124.846 47.22 124.659 47.22C124.472 47.22 124.326 47.22 124.219 47.22C124.072 47.22 123.946 47.22 123.839 47.22C123.746 47.22 123.699 47.22 123.699 47.22C123.686 47.26 123.639 47.4 123.559 47.64C123.479 47.88 123.386 48.1733 123.279 48.52C123.172 48.8533 123.059 49.2 122.939 49.56C122.832 49.9067 122.739 50.2267 122.659 50.52C122.592 50.8 122.546 51 122.519 51.12C122.466 51.36 122.392 51.66 122.299 52.02C122.219 52.38 122.126 52.7467 122.019 53.12C121.926 53.5067 121.839 53.84 121.759 54.12C121.692 54.4 121.646 54.58 121.619 54.66ZM141.688 53.8C141.608 53.8 141.501 53.7733 141.368 53.72C141.235 53.6667 141.095 53.6 140.948 53.52C140.815 53.4533 140.695 53.3733 140.588 53.28C140.495 53.1867 140.448 53.1 140.448 53.02C140.448 52.94 140.441 52.86 140.428 52.78C140.415 52.6867 140.421 52.6 140.448 52.52C140.515 52.3067 140.575 52.1 140.628 51.9C140.695 51.7 140.748 51.4933 140.788 51.28C140.895 50.6533 141.028 50.0333 141.188 49.42C141.361 48.8067 141.528 48.1933 141.688 47.58C141.728 47.42 141.808 47.1333 141.928 46.72C142.061 46.2933 142.208 45.8133 142.368 45.28C142.528 44.7333 142.681 44.2 142.828 43.68C142.988 43.16 143.115 42.72 143.208 42.36C143.301 41.9867 143.335 41.7667 143.308 41.7C143.255 41.66 143.215 41.6533 143.188 41.68C143.175 41.7067 143.155 41.7333 143.128 41.76C142.821 42.1733 142.508 42.5933 142.188 43.02C141.868 43.4333 141.548 43.8467 141.228 44.26C140.881 44.7133 140.521 45.16 140.148 45.6C139.775 46.04 139.401 46.4867 139.028 46.94C138.775 47.26 138.521 47.5933 138.268 47.94C138.015 48.2733 137.755 48.5933 137.488 48.9C137.301 49.1133 137.128 49.3333 136.968 49.56C136.808 49.7867 136.635 50.0067 136.448 50.22C136.248 50.46 136.028 50.72 135.788 51C135.548 51.28 135.301 51.5667 135.048 51.86C134.808 52.14 134.561 52.4133 134.308 52.68C134.068 52.9333 133.828 53.16 133.588 53.36C133.495 53.44 133.361 53.4867 133.188 53.5C133.028 53.5133 132.875 53.48 132.728 53.4C132.581 53.3333 132.501 53.22 132.488 53.06C132.475 52.7667 132.501 52.42 132.568 52.02C132.648 51.62 132.741 51.22 132.848 50.82C132.955 50.4067 133.055 50.06 133.148 49.78C133.188 49.6333 133.235 49.4933 133.288 49.36C133.341 49.2133 133.388 49.0667 133.428 48.92C133.441 48.84 133.455 48.76 133.468 48.68C133.495 48.6 133.521 48.52 133.548 48.44C133.641 48.24 133.708 48.0533 133.748 47.88C133.788 47.7067 133.808 47.5133 133.808 47.3C133.821 47.22 133.855 47.1 133.908 46.94C133.961 46.78 134.021 46.6133 134.088 46.44C134.155 46.2667 134.201 46.1333 134.228 46.04C134.295 45.84 134.355 45.64 134.408 45.44C134.475 45.2267 134.555 45.0267 134.648 44.84C134.675 44.8 134.688 44.7733 134.688 44.76C134.688 44.7467 134.695 44.72 134.708 44.68C134.775 44.2667 134.868 43.9467 134.988 43.72C135.121 43.48 135.255 43.1933 135.388 42.86L135.408 42.74C135.461 42.5933 135.508 42.4733 135.548 42.38C135.601 42.2733 135.655 42.1533 135.708 42.02C135.735 41.9533 135.721 41.9133 135.668 41.9C135.628 41.8733 135.635 41.8333 135.688 41.78C135.795 41.6467 135.835 41.5733 135.808 41.56C135.781 41.5467 135.788 41.4867 135.828 41.38C135.921 41.26 136.015 41.08 136.108 40.84C136.215 40.6 136.315 40.3533 136.408 40.1C136.501 39.8333 136.575 39.6333 136.628 39.5C136.655 39.4067 136.688 39.3467 136.728 39.32C136.768 39.28 136.835 39.24 136.928 39.2C137.141 39.1067 137.321 39.0933 137.468 39.16C137.615 39.2267 137.721 39.3333 137.788 39.48C137.855 39.6267 137.881 39.7867 137.868 39.96C137.868 40.12 137.828 40.26 137.748 40.38C137.721 40.42 137.701 40.46 137.688 40.5C137.688 40.5267 137.675 40.5667 137.648 40.62C137.595 40.8467 137.515 41.0667 137.408 41.28C137.301 41.48 137.201 41.6933 137.108 41.92C137.028 42.1067 136.901 42.4267 136.728 42.88C136.568 43.3333 136.381 43.8667 136.168 44.48C135.955 45.08 135.741 45.7067 135.528 46.36C135.315 47 135.115 47.62 134.928 48.22C134.741 48.8067 134.595 49.32 134.488 49.76C134.381 50.1867 134.335 50.48 134.348 50.64C134.521 50.4533 134.688 50.2667 134.848 50.08C135.008 49.88 135.161 49.6867 135.308 49.5C135.695 49.0067 136.101 48.5267 136.528 48.06C136.955 47.58 137.355 47.0933 137.728 46.6C137.941 46.3067 138.168 46.0267 138.408 45.76C138.661 45.4933 138.895 45.2133 139.108 44.92C139.255 44.7333 139.401 44.5533 139.548 44.38C139.708 44.2067 139.855 44.0267 139.988 43.84C140.401 43.2933 140.835 42.76 141.288 42.24C141.741 41.7067 142.181 41.1733 142.608 40.64C142.715 40.5067 142.881 40.3267 143.108 40.1C143.335 39.8733 143.568 39.66 143.808 39.46C144.048 39.2467 144.241 39.1067 144.388 39.04C144.561 38.96 144.728 38.98 144.888 39.1C145.048 39.2067 145.195 39.32 145.328 39.44C145.515 39.6267 145.568 39.8533 145.488 40.12C145.461 40.1867 145.428 40.26 145.388 40.34C145.348 40.4067 145.315 40.4733 145.288 40.54C145.168 40.7667 145.061 41 144.968 41.24C144.875 41.4667 144.788 41.7 144.708 41.94C144.628 42.18 144.555 42.4267 144.488 42.68C144.475 42.7733 144.455 42.88 144.428 43C144.401 43.12 144.368 43.2333 144.328 43.34C144.235 43.5533 144.115 43.7867 143.968 44.04C143.835 44.28 143.775 44.5333 143.788 44.8C143.788 44.96 143.755 45.1067 143.688 45.24C143.568 45.48 143.481 45.7333 143.428 46C143.375 46.2667 143.315 46.5333 143.248 46.8C143.141 47.2267 143.028 47.6533 142.908 48.08C142.801 48.5067 142.688 48.9333 142.568 49.36C142.448 49.7867 142.328 50.2133 142.208 50.64C142.075 51.1467 141.975 51.6733 141.908 52.22C141.841 52.7533 141.768 53.28 141.688 53.8ZM152.234 54.58C151.994 54.4867 151.794 54.36 151.634 54.2C151.488 54.04 151.441 53.8267 151.494 53.56C151.494 53.56 151.548 53.4333 151.654 53.18C151.761 52.94 151.888 52.64 152.034 52.28C152.194 51.9067 152.348 51.54 152.494 51.18C152.641 50.82 152.768 50.52 152.874 50.28C152.981 50.0267 153.034 49.9 153.034 49.9C153.128 49.66 153.254 49.3333 153.414 48.92C153.588 48.5067 153.754 48.0867 153.914 47.66C154.088 47.22 154.234 46.84 154.354 46.52C154.474 46.2 154.534 46.02 154.534 45.98C154.681 45.6467 154.808 45.3067 154.914 44.96C155.021 44.6133 155.154 44.28 155.314 43.96C155.434 43.6933 155.541 43.4533 155.634 43.24C155.728 43.0133 155.774 42.8133 155.774 42.64C155.774 42.64 155.634 42.7867 155.354 43.08C155.088 43.3733 154.728 43.7667 154.274 44.26C153.821 44.74 153.321 45.2733 152.774 45.86C152.241 46.4333 151.701 47.0133 151.154 47.6C150.621 48.1867 150.128 48.7267 149.674 49.22C149.221 49.7 148.854 50.0867 148.574 50.38C148.294 50.6733 148.154 50.82 148.154 50.82C147.861 51.0467 147.588 51.2933 147.334 51.56C147.094 51.8133 146.828 52.0533 146.534 52.28C146.414 52.3733 146.268 52.4933 146.094 52.64C145.921 52.7733 145.754 52.8933 145.594 53C145.434 53.12 145.314 53.18 145.234 53.18C144.848 53.1133 144.601 53.0067 144.494 52.86C144.388 52.7 144.368 52.5067 144.434 52.28C144.501 52.04 144.594 51.76 144.714 51.44C144.781 51.2267 144.841 51.0133 144.894 50.8C144.961 50.5733 145.008 50.3533 145.034 50.14C145.128 49.74 145.228 49.3667 145.334 49.02C145.441 48.6733 145.541 48.34 145.634 48.02C145.728 47.7133 145.821 47.4067 145.914 47.1C146.008 46.78 146.061 46.4533 146.074 46.12C146.234 45.8533 146.368 45.5933 146.474 45.34C146.581 45.0733 146.681 44.8067 146.774 44.54C146.868 44.2733 146.974 44.0067 147.094 43.74C147.241 43.42 147.361 43.0933 147.454 42.76C147.561 42.4133 147.688 42.0733 147.834 41.74C147.928 41.5533 148.054 41.3067 148.214 41C148.374 40.6933 148.521 40.38 148.654 40.06C148.801 39.74 148.874 39.4667 148.874 39.24C148.874 39.0933 148.928 39.0133 149.034 39C149.141 38.9867 149.261 39.0067 149.394 39.06C149.528 39.1133 149.641 39.18 149.734 39.26C149.841 39.34 149.901 39.4 149.914 39.44C149.954 39.56 149.981 39.6867 149.994 39.82C150.021 39.9533 150.001 40.0933 149.934 40.24L148.274 44.46L146.454 49.28C146.294 49.8 146.201 50.2067 146.174 50.5C146.161 50.7933 146.248 50.8933 146.434 50.8L150.474 46.76C150.701 46.52 150.921 46.2733 151.134 46.02C151.361 45.7533 151.574 45.4933 151.774 45.24C151.828 45.2133 151.961 45.08 152.174 44.84C152.401 44.6 152.661 44.3133 152.954 43.98C153.248 43.6467 153.528 43.3333 153.794 43.04C154.061 42.7333 154.261 42.5067 154.394 42.36L156.934 39.66L157.314 39.54C157.434 39.5267 157.554 39.5667 157.674 39.66C157.794 39.7533 157.881 39.8733 157.934 40.02C158.001 40.1667 158.001 40.32 157.934 40.48C157.934 40.48 157.868 40.6533 157.734 41C157.614 41.3467 157.454 41.7933 157.254 42.34C157.054 42.8733 156.841 43.44 156.614 44.04C156.401 44.64 156.194 45.2067 155.994 45.74C155.794 46.2733 155.628 46.7133 155.494 47.06C155.374 47.3933 155.308 47.56 155.294 47.56C155.308 47.52 155.261 47.6267 155.154 47.88C155.061 48.1333 154.934 48.4667 154.774 48.88C154.614 49.2933 154.448 49.72 154.274 50.16C154.101 50.5867 153.948 50.9667 153.814 51.3C153.694 51.6333 153.621 51.8467 153.594 51.94C153.541 52.1133 153.474 52.2867 153.394 52.46C153.328 52.62 153.254 52.78 153.174 52.94C153.081 53.1133 153.001 53.2933 152.934 53.48C152.881 53.68 152.834 53.8733 152.794 54.06C152.754 54.2067 152.674 54.34 152.554 54.46C152.434 54.5933 152.328 54.6333 152.234 54.58ZM153.334 38.52C152.841 38.5733 152.428 38.4533 152.094 38.16C151.761 37.8667 151.501 37.4333 151.314 36.86C151.288 36.7533 151.281 36.66 151.294 36.58C151.308 36.4867 151.334 36.4067 151.374 36.34C151.401 36.2867 151.461 36.2467 151.554 36.22C151.661 36.18 151.741 36.1733 151.794 36.2C152.008 36.28 152.168 36.3667 152.274 36.46C152.394 36.5533 152.468 36.6733 152.494 36.82C152.534 36.8867 152.554 36.9533 152.554 37.02C152.568 37.0867 152.574 37.1133 152.574 37.1C152.654 37.3133 152.754 37.46 152.874 37.54C152.994 37.62 153.181 37.6133 153.434 37.52C153.701 37.4267 153.961 37.32 154.214 37.2C154.481 37.08 154.721 36.9333 154.934 36.76C155.121 36.6133 155.294 36.48 155.454 36.36C155.614 36.24 155.781 36.1133 155.954 35.98L155.974 35.96C156.041 35.92 156.121 35.9067 156.214 35.92C156.308 35.9333 156.361 35.9533 156.374 35.98C156.481 36.0733 156.534 36.1667 156.534 36.26C156.548 36.3533 156.554 36.4533 156.554 36.56L156.534 36.6C156.561 36.68 156.481 36.8333 156.294 37.06C156.108 37.2733 155.888 37.4667 155.634 37.64C155.421 37.7867 155.181 37.92 154.914 38.04C154.661 38.16 154.401 38.2733 154.134 38.38C154.041 38.4333 153.928 38.4667 153.794 38.48C153.674 38.48 153.521 38.4933 153.334 38.52ZM170.235 46.68C170.195 46.7733 170.042 46.8467 169.775 46.9C169.508 46.9533 169.082 47.0133 168.495 47.08C168.322 47.0933 168.062 47.1067 167.715 47.12C167.382 47.1333 167.015 47.1467 166.615 47.16C166.228 47.1733 165.875 47.18 165.555 47.18C165.235 47.1667 165.015 47.1467 164.895 47.12C164.895 47.12 164.862 47.1533 164.795 47.22C164.742 47.2867 164.715 47.3733 164.715 47.48C164.622 47.64 164.502 47.8867 164.355 48.22C164.222 48.5533 164.068 48.92 163.895 49.32C163.735 49.72 163.582 50.12 163.435 50.52C163.302 50.92 163.188 51.2667 163.095 51.56C163.002 51.8533 162.955 52.0533 162.955 52.16C162.835 52.48 162.762 52.7533 162.735 52.98C162.708 53.2067 162.662 53.34 162.595 53.38C162.582 53.4333 162.495 53.4467 162.335 53.42C162.175 53.3933 162.042 53.32 161.935 53.2C161.775 53.08 161.682 52.9733 161.655 52.88C161.642 52.7733 161.682 52.5733 161.775 52.28C161.815 52.1067 161.882 51.8533 161.975 51.52C162.082 51.1733 162.195 50.7933 162.315 50.38C162.448 49.9667 162.582 49.5667 162.715 49.18C162.862 48.78 163.002 48.4533 163.135 48.2C163.282 47.9467 163.375 47.72 163.415 47.52C163.455 47.3067 163.508 47.1133 163.575 46.94C163.562 46.7933 163.562 46.6933 163.575 46.64C163.588 46.5867 163.642 46.5067 163.735 46.4C163.802 46.3467 163.882 46.2533 163.975 46.12C164.082 45.9733 164.202 45.7533 164.335 45.46C164.375 45.3267 164.435 45.1467 164.515 44.92C164.608 44.68 164.695 44.44 164.775 44.2C164.855 43.9467 164.928 43.7333 164.995 43.56C165.062 43.3867 165.095 43.2933 165.095 43.28C165.122 43.2267 165.162 43.1267 165.215 42.98C165.268 42.82 165.308 42.6933 165.335 42.6C165.388 42.4133 165.428 42.26 165.455 42.14C165.495 42.02 165.488 41.96 165.435 41.96C165.328 41.9867 165.115 42.0067 164.795 42.02C164.635 42.0467 164.515 42.0667 164.435 42.08C164.368 42.08 164.308 42.0867 164.255 42.1C164.122 42.1133 164.002 42.1 163.895 42.06C163.788 42.02 163.735 41.94 163.735 41.82C163.762 41.6067 163.835 41.4333 163.955 41.3C164.088 41.1533 164.255 41.0733 164.455 41.06C164.548 41.0333 164.648 41.0133 164.755 41C164.875 40.9733 165.035 40.9333 165.235 40.88C165.488 40.8267 165.682 40.7867 165.815 40.76C165.962 40.72 166.075 40.7133 166.155 40.74C166.222 40.7 166.282 40.66 166.335 40.62C166.388 40.5667 166.415 40.5133 166.415 40.46C166.415 40.3933 166.442 40.3467 166.495 40.32C166.562 40.28 166.635 40.26 166.715 40.26C166.795 40.2467 166.875 40.2533 166.955 40.28C167.048 40.3067 167.115 40.3533 167.155 40.42C167.182 40.46 167.242 40.4933 167.335 40.52C167.428 40.5467 167.595 40.5467 167.835 40.52C168.088 40.48 168.442 40.4133 168.895 40.32C169.135 40.2933 169.435 40.2667 169.795 40.24C170.168 40.2133 170.462 40.2333 170.675 40.3C170.902 40.26 171.102 40.2467 171.275 40.26C171.462 40.26 171.588 40.2333 171.655 40.18C171.935 40.2333 172.135 40.2733 172.255 40.3C172.388 40.3133 172.495 40.3533 172.575 40.42C172.628 40.4733 172.642 40.5267 172.615 40.58C172.602 40.62 172.595 40.64 172.595 40.64C172.542 40.6133 172.548 40.62 172.615 40.66C172.682 40.6867 172.728 40.7133 172.755 40.74C172.848 40.78 172.908 40.8333 172.935 40.9C172.962 40.9533 172.975 41.0067 172.975 41.06C172.975 41.1133 172.968 41.16 172.955 41.2C172.942 41.32 172.875 41.3933 172.755 41.42C172.635 41.4333 172.335 41.4333 171.855 41.42C171.282 41.34 170.715 41.3133 170.155 41.34C169.608 41.3533 168.968 41.4133 168.235 41.52C167.968 41.5333 167.728 41.5733 167.515 41.64C167.315 41.6933 167.202 41.72 167.175 41.72C167.122 41.72 167.028 41.8133 166.895 42C166.762 42.1733 166.635 42.4333 166.515 42.78C166.462 42.8733 166.368 43.0867 166.235 43.42C166.102 43.7533 165.955 44.1133 165.795 44.5C165.648 44.8867 165.515 45.2267 165.395 45.52C165.288 45.8133 165.222 45.9733 165.195 46C165.382 46.0533 165.682 46.08 166.095 46.08C166.522 46.08 166.988 46.0667 167.495 46.04C168.015 46 168.488 45.96 168.915 45.92C169.115 45.88 169.322 45.8467 169.535 45.82C169.762 45.78 169.908 45.7733 169.975 45.8C170.042 45.84 170.102 45.92 170.155 46.04C170.208 46.1467 170.242 46.26 170.255 46.38C170.282 46.5 170.275 46.6 170.235 46.68ZM172.097 53.5C172.031 53.5 171.951 53.4667 171.857 53.4C171.764 53.3467 171.677 53.2733 171.597 53.18C171.531 53.0867 171.497 52.9867 171.497 52.88C171.497 52.88 171.491 52.84 171.477 52.76C171.477 52.6667 171.451 52.5733 171.397 52.48C171.397 52.3733 171.397 52.2533 171.397 52.12C171.411 51.9733 171.444 51.8267 171.497 51.68C171.497 51.5333 171.517 51.3733 171.557 51.2C171.597 51.0133 171.644 50.8733 171.697 50.78C171.697 50.6333 171.731 50.4467 171.797 50.22C171.877 49.98 171.944 49.76 171.997 49.56C172.144 49.12 172.251 48.8 172.317 48.6C172.397 48.4 172.451 48.2533 172.477 48.16C172.504 48.0533 172.517 47.9467 172.517 47.84C172.557 47.7333 172.617 47.54 172.697 47.26C172.777 46.98 172.857 46.6933 172.937 46.4C173.031 46.0933 173.091 45.8733 173.117 45.74C173.171 45.6867 173.197 45.64 173.197 45.6C173.211 45.5467 173.217 45.4933 173.217 45.44C173.217 45.44 173.264 45.2867 173.357 44.98C173.451 44.6733 173.571 44.32 173.717 43.92C173.957 43.2133 174.117 42.7 174.197 42.38C174.291 42.06 174.331 41.8333 174.317 41.7C174.317 41.5667 174.284 41.4333 174.217 41.3C174.124 41.1267 174.124 40.9933 174.217 40.9C174.271 40.8467 174.317 40.7867 174.357 40.72C174.397 40.64 174.417 40.6 174.417 40.6C174.417 40.5733 174.504 40.5267 174.677 40.46C174.851 40.3933 175.064 40.32 175.317 40.24C175.571 40.1467 175.824 40.06 176.077 39.98C176.344 39.9 176.564 39.8333 176.737 39.78C176.777 39.78 176.837 39.78 176.917 39.78C177.011 39.78 177.111 39.78 177.217 39.78C177.337 39.78 177.451 39.78 177.557 39.78C177.904 39.8333 178.257 39.9333 178.617 40.08C178.991 40.2267 179.304 40.4333 179.557 40.7C179.717 40.8467 179.857 41.02 179.977 41.22C180.111 41.42 180.277 41.7467 180.477 42.2C180.477 42.2533 180.491 42.3667 180.517 42.54C180.557 42.7 180.577 42.86 180.577 43.02C180.577 43.42 180.477 43.84 180.277 44.28C180.077 44.72 179.791 45.1667 179.417 45.62C179.044 46.06 178.591 46.5 178.057 46.94C177.497 47.3933 176.917 47.7 176.317 47.86C175.717 48.02 175.184 48.0533 174.717 47.96C174.624 47.92 174.537 47.84 174.457 47.72C174.391 47.6 174.344 47.48 174.317 47.36C174.291 47.24 174.297 47.16 174.337 47.12C174.444 47.0933 174.604 47.0867 174.817 47.1C175.031 47.1 175.371 47.0133 175.837 46.84C175.984 46.7867 176.137 46.7267 176.297 46.66C176.457 46.58 176.584 46.5133 176.677 46.46C176.944 46.2867 177.251 46.0533 177.597 45.76C177.944 45.4667 178.264 45.0867 178.557 44.62C178.677 44.4333 178.797 44.2133 178.917 43.96C179.037 43.6933 179.137 43.4267 179.217 43.16C179.311 42.8933 179.357 42.6733 179.357 42.5C179.464 42.1533 179.397 41.8667 179.157 41.64C178.931 41.4 178.564 41.2533 178.057 41.2C177.897 41.16 177.651 41.1733 177.317 41.24C176.984 41.2933 176.664 41.3667 176.357 41.46C176.051 41.5533 175.844 41.6333 175.737 41.7C175.684 41.7 175.651 41.74 175.637 41.82C175.624 41.9 175.591 41.9933 175.537 42.1C175.537 42.1933 175.497 42.3933 175.417 42.7C175.337 42.9933 175.244 43.2667 175.137 43.52C175.044 43.8133 174.931 44.14 174.797 44.5C174.664 44.8467 174.571 45.12 174.517 45.32C174.464 45.5333 174.397 45.74 174.317 45.94C174.251 46.14 174.217 46.24 174.217 46.24C174.217 46.2933 174.177 46.4067 174.097 46.58C174.031 46.7533 173.971 46.94 173.917 47.14C173.864 47.3933 173.791 47.68 173.697 48C173.617 48.32 173.524 48.6067 173.417 48.86C173.271 49.3533 173.144 49.8467 173.037 50.34C172.931 50.82 172.924 51.1333 173.017 51.28C173.164 51.28 173.217 51.4 173.177 51.64C173.137 51.8667 173.017 52.18 172.817 52.58C172.684 52.9133 172.584 53.14 172.517 53.26C172.451 53.3933 172.391 53.4667 172.337 53.48C172.284 53.4933 172.204 53.5 172.097 53.5ZM185.16 53.42C184.613 53.5533 184.047 53.5467 183.46 53.4C182.887 53.2533 182.38 52.9933 181.94 52.62C181.5 52.2467 181.193 51.7933 181.02 51.26C180.967 51.1133 180.92 50.98 180.88 50.86C180.853 50.74 180.867 50.68 180.92 50.68C181.053 50.68 181.06 50.6133 180.94 50.48C180.9 50.4267 180.88 50.34 180.88 50.22C180.893 50.1 180.92 49.9867 180.96 49.88C181.013 49.7733 181.073 49.72 181.14 49.72C181.233 49.72 181.333 49.7533 181.44 49.82C181.547 49.8867 181.627 49.96 181.68 50.04C181.747 50.1067 181.753 50.16 181.7 50.2C181.7 50.2 181.727 50.2733 181.78 50.42C181.833 50.5533 181.847 50.7133 181.82 50.9C181.94 51.1 182.04 51.2667 182.12 51.4C182.2 51.52 182.367 51.6533 182.62 51.8C182.793 51.9333 182.947 52.0333 183.08 52.1C183.213 52.1667 183.447 52.2067 183.78 52.22C183.993 52.22 184.167 52.1933 184.3 52.14C184.433 52.0867 184.553 51.9933 184.66 51.86C184.78 51.7267 184.92 51.5467 185.08 51.32C185.12 51.0667 185.067 50.66 184.92 50.1C184.787 49.54 184.587 48.8867 184.32 48.14C184.053 47.38 183.733 46.5867 183.36 45.76C183.28 45.6133 183.207 45.46 183.14 45.3C183.087 45.14 183.06 45.06 183.06 45.06C183.1 44.8067 183.087 44.5733 183.02 44.36C182.94 44.2933 182.893 44.14 182.88 43.9C182.88 43.6467 182.867 43.42 182.84 43.22C182.867 42.9267 182.893 42.7 182.92 42.54C182.947 42.38 183.033 42.1933 183.18 41.98C183.567 41.42 184.04 40.9533 184.6 40.58C185.16 40.1933 185.873 39.9333 186.74 39.8C186.887 39.7733 187.073 39.76 187.3 39.76C187.527 39.7467 187.76 39.7533 188 39.78C188.24 39.7933 188.453 39.82 188.64 39.86C188.84 39.8867 188.987 39.9333 189.08 40C189.4 40.16 189.653 40.3333 189.84 40.52C190.027 40.7067 190.187 40.92 190.32 41.16C190.387 41.3067 190.427 41.42 190.44 41.5C190.467 41.5667 190.467 41.6333 190.44 41.7C190.413 41.7667 190.36 41.8667 190.28 42C190.213 42.08 190.1 42.1733 189.94 42.28C189.793 42.3867 189.62 42.4933 189.42 42.6C189.233 42.7067 189.033 42.8067 188.82 42.9C188.62 42.98 188.433 43.0333 188.26 43.06C188.14 43.1133 188.067 43.14 188.04 43.14C188.027 43.14 188.02 43.1133 188.02 43.06C188.06 42.98 188.067 42.92 188.04 42.88C188.027 42.84 188.02 42.82 188.02 42.82C187.847 42.82 187.807 42.7467 187.9 42.6C188.007 42.4533 188.187 42.2267 188.44 41.92C188.68 41.6533 188.833 41.4733 188.9 41.38C188.98 41.2733 188.987 41.1867 188.92 41.12C188.84 41.0667 188.68 41.0267 188.44 41C188.2 40.9733 187.94 40.9667 187.66 40.98C187.393 40.98 187.153 41 186.94 41.04C186.273 41.24 185.687 41.5267 185.18 41.9C184.687 42.2733 184.387 42.6867 184.28 43.14C184.187 43.34 184.14 43.52 184.14 43.68C184.153 43.84 184.213 44.0933 184.32 44.44C184.347 44.7733 184.373 45.0333 184.4 45.22C184.44 45.4067 184.46 45.5133 184.46 45.54C184.46 45.5933 184.473 45.6733 184.5 45.78C184.527 45.8733 184.547 46.0467 184.56 46.3C184.587 46.3933 184.653 46.52 184.76 46.68C184.867 46.8267 185.047 46.9933 185.3 47.18C185.327 47.4733 185.373 47.7267 185.44 47.94C185.52 48.14 185.567 48.3333 185.58 48.52C185.847 49.0533 186.047 49.5867 186.18 50.12C186.327 50.6533 186.413 51.0933 186.44 51.44C186.467 51.7867 186.433 51.96 186.34 51.96C186.327 51.96 186.32 51.98 186.32 52.02C186.32 52.06 186.327 52.08 186.34 52.08C186.34 52.16 186.293 52.26 186.2 52.38C186.107 52.5 185.993 52.6333 185.86 52.78C185.727 52.9133 185.593 53.0333 185.46 53.14C185.34 53.26 185.24 53.3533 185.16 53.42ZM192.447 47.76C192.193 47.8533 191.98 47.9 191.807 47.9C191.647 47.8867 191.467 47.8067 191.267 47.66C191.013 47.42 190.927 47.18 191.007 46.94C191.1 46.6867 191.32 46.44 191.667 46.2C191.907 46.0533 192.08 45.9733 192.187 45.96C192.307 45.9467 192.487 45.9933 192.727 46.1C193.127 46.3533 193.3 46.6333 193.247 46.94C193.207 47.2467 192.94 47.52 192.447 47.76ZM191.047 51.96C190.793 52.0533 190.58 52.1 190.407 52.1C190.247 52.0867 190.067 52.0067 189.867 51.86C189.613 51.62 189.527 51.38 189.607 51.14C189.7 50.8867 189.92 50.64 190.267 50.4C190.507 50.2533 190.68 50.1733 190.787 50.16C190.907 50.1467 191.087 50.1933 191.327 50.3C191.727 50.5533 191.9 50.8333 191.847 51.14C191.807 51.4467 191.54 51.72 191.047 51.96ZM195.84 52.424C195.552 52.216 195.408 52.04 195.408 51.896C195.344 51.8 195.272 51.752 195.192 51.752C195.144 51.768 195.096 51.72 195.048 51.608C195.016 51.496 194.984 51.368 194.952 51.224C194.936 51.064 194.936 50.952 194.952 50.888C195.016 50.76 195.112 50.688 195.24 50.672C195.368 50.64 195.488 50.656 195.6 50.72C195.728 50.768 195.8 50.856 195.816 50.984C195.848 51.112 195.968 51.216 196.176 51.296C196.4 51.376 196.688 51.408 197.04 51.392C197.488 51.376 197.952 51.264 198.432 51.056C198.928 50.848 199.384 50.584 199.8 50.264C200.232 49.944 200.576 49.616 200.832 49.28C200.944 49.056 201.048 48.76 201.144 48.392C201.24 48.024 201.304 47.696 201.336 47.408C201.368 47.12 201.344 46.976 201.264 46.976C201.264 46.976 201.248 46.92 201.216 46.808C201.2 46.696 201.168 46.576 201.12 46.448C201.04 46.208 200.856 45.968 200.568 45.728C200.28 45.472 200 45.288 199.728 45.176C199.616 45.144 199.408 45.12 199.104 45.104C198.816 45.072 198.552 45.072 198.312 45.104C198.056 45.12 197.824 45.12 197.616 45.104C197.424 45.088 197.328 45.08 197.328 45.08C197.248 45.064 197.128 45 196.968 44.888C196.824 44.776 196.688 44.656 196.56 44.528C196.432 44.4 196.368 44.296 196.368 44.216C196.4 44.104 196.48 43.928 196.608 43.688C196.736 43.432 196.888 43.152 197.064 42.848C197.256 42.528 197.456 42.232 197.664 41.96C197.872 41.672 198.072 41.432 198.264 41.24C198.744 40.712 199.288 40.32 199.896 40.064C200.52 39.792 201.16 39.672 201.816 39.704C202.28 39.72 202.608 39.76 202.8 39.824C203.008 39.872 203.208 40.024 203.4 40.28C203.528 40.504 203.584 40.704 203.568 40.88C203.552 41.056 203.488 41.176 203.376 41.24C203.264 41.304 203.112 41.288 202.92 41.192C202.696 41.048 202.384 40.992 201.984 41.024C201.6 41.056 201.192 41.136 200.76 41.264C200.424 41.392 200.064 41.6 199.68 41.888C199.312 42.16 199.088 42.384 199.008 42.56C198.944 42.608 198.896 42.656 198.864 42.704C198.848 42.752 198.808 42.768 198.744 42.752C198.744 42.752 198.72 42.784 198.672 42.848C198.624 42.896 198.6 42.952 198.6 43.016C198.52 43.112 198.464 43.184 198.432 43.232C198.416 43.264 198.376 43.248 198.312 43.184C198.312 43.184 198.312 43.208 198.312 43.256C198.312 43.304 198.304 43.36 198.288 43.424C198.272 43.536 198.28 43.632 198.312 43.712C198.36 43.776 198.536 43.824 198.84 43.856C199.24 43.92 199.544 43.984 199.752 44.048C199.96 44.096 200.264 44.24 200.664 44.48C201.112 44.736 201.472 45.08 201.744 45.512C202.016 45.928 202.2 46.4 202.296 46.928C202.408 47.456 202.424 47.992 202.344 48.536C202.296 48.888 202.248 49.16 202.2 49.352C202.152 49.544 202.016 49.808 201.792 50.144C201.424 50.656 200.976 51.112 200.448 51.512C199.92 51.896 199.368 52.2 198.792 52.424C198.216 52.632 197.664 52.744 197.136 52.76C196.624 52.776 196.192 52.664 195.84 52.424ZM207.94 53.432C207.748 53.4 207.58 53.296 207.436 53.12C207.292 52.944 207.172 52.744 207.076 52.52C207.012 52.216 207.14 51.688 207.46 50.936C207.78 50.168 208.212 49.272 208.756 48.248C209.108 47.672 209.276 47.336 209.26 47.24C209.244 47.144 209.092 47.096 208.804 47.096C208.66 47.064 208.492 47.032 208.3 47C208.108 46.952 207.988 46.896 207.94 46.832C207.684 46.704 207.532 46.568 207.484 46.424C207.452 46.264 207.508 46.176 207.652 46.16C207.716 46.128 207.74 46.088 207.724 46.04C207.708 45.976 207.708 45.92 207.724 45.872C207.772 45.856 207.828 45.856 207.892 45.872C207.972 45.888 208.052 45.904 208.132 45.92C208.356 45.92 208.524 45.92 208.636 45.92C208.748 45.92 208.892 45.92 209.068 45.92C209.148 45.92 209.244 45.92 209.356 45.92C209.484 45.92 209.596 45.928 209.692 45.944C209.916 45.976 210.068 45.96 210.148 45.896C210.228 45.816 210.38 45.632 210.604 45.344C210.732 45.12 210.932 44.824 211.204 44.456C211.476 44.072 211.716 43.68 211.924 43.28C212.692 42.192 213.116 41.464 213.196 41.096C213.292 40.728 213.108 40.56 212.644 40.592C212.388 40.608 212.1 40.664 211.78 40.76C211.476 40.856 211.02 41.016 210.412 41.24C209.82 41.496 209.404 41.656 209.164 41.72C208.94 41.768 208.74 41.744 208.564 41.648C208.468 41.632 208.388 41.584 208.324 41.504C208.276 41.408 208.244 41.304 208.228 41.192C208.228 41.064 208.236 40.944 208.252 40.832C208.284 40.656 208.612 40.464 209.236 40.256C209.86 40.048 210.58 39.84 211.396 39.632C211.764 39.568 212.116 39.528 212.452 39.512C212.788 39.496 213.076 39.512 213.316 39.56C213.572 39.608 213.732 39.696 213.796 39.824C213.796 39.824 213.812 39.848 213.844 39.896C213.892 39.928 213.924 39.912 213.94 39.848C214.004 39.864 214.052 39.928 214.084 40.04C214.116 40.136 214.18 40.264 214.276 40.424C214.436 40.696 214.532 40.896 214.564 41.024C214.612 41.152 214.612 41.336 214.564 41.576C214.516 41.752 214.436 41.928 214.324 42.104C214.212 42.28 214.124 42.392 214.06 42.44C213.98 42.504 213.916 42.576 213.868 42.656C213.836 42.736 213.82 42.776 213.82 42.776C213.804 42.84 213.756 42.904 213.676 42.968C213.596 43.016 213.516 43.088 213.436 43.184C213.42 43.248 213.38 43.32 213.316 43.4C213.268 43.48 213.236 43.544 213.22 43.592C213.204 43.608 213.14 43.704 213.028 43.88C212.916 44.056 212.78 44.264 212.62 44.504C212.46 44.744 212.308 44.968 212.164 45.176C212.036 45.368 211.948 45.504 211.9 45.584C211.676 45.792 211.564 45.944 211.564 46.04C211.564 46.136 211.668 46.232 211.876 46.328C212.148 46.44 212.372 46.576 212.548 46.736C212.724 46.88 212.844 47.064 212.908 47.288C212.924 47.608 212.884 47.792 212.788 47.84C212.708 47.952 212.58 48 212.404 47.984C212.244 47.968 212.14 47.928 212.092 47.864C212.044 47.768 211.932 47.68 211.756 47.6C211.596 47.504 211.436 47.432 211.276 47.384C211.116 47.336 211.012 47.312 210.964 47.312C210.9 47.344 210.836 47.408 210.772 47.504C210.708 47.584 210.636 47.672 210.556 47.768C210.444 47.928 210.292 48.192 210.1 48.56C209.924 48.912 209.74 49.264 209.548 49.616C209.372 49.952 209.236 50.2 209.14 50.36C209.124 50.44 209.076 50.52 208.996 50.6C208.932 50.68 208.884 50.776 208.852 50.888C208.788 51 208.732 51.168 208.684 51.392C208.636 51.6 208.612 51.792 208.612 51.968C208.612 52.128 208.636 52.216 208.684 52.232C208.812 52.2 208.9 52.216 208.948 52.28C209.012 52.328 209.06 52.416 209.092 52.544C209.172 52.656 209.148 52.792 209.02 52.952C208.892 53.096 208.724 53.216 208.516 53.312C208.308 53.424 208.116 53.464 207.94 53.432Z" fill="white"/>
<path fill-rule="evenodd" clip-rule="evenodd" d="M0.598148 0.617494C0.391422 0.814608 0.383625 1.14199 0.580738 1.34872C12.8383 14.2042 32.907 23.2534 57.33 23.2534C57.6156 23.2534 57.8472 23.0218 57.8472 22.7362C57.8472 22.4505 57.6156 22.219 57.33 22.219C33.1567 22.219 13.3699 13.2628 1.32938 0.634904C1.13226 0.428174 0.804878 0.420379 0.598148 0.617494Z" fill="white"/>
<path fill-rule="evenodd" clip-rule="evenodd" d="M1.04377 1.034C1.04423 1.03406 1.04588 1.03429 1.04898 1.03555C10.6064 4.92563 19.4854 3.2682 22.8588 1.87915C23.1229 1.77039 23.2489 1.46811 23.1401 1.20398C23.0313 0.939856 22.7291 0.813905 22.4649 0.922663C19.3078 2.22267 10.7123 3.85191 1.43893 0.0774695C0.731862 -0.210324 -0.0756784 0.339323 0.00573106 1.1382C0.458738 5.5837 1.66684 11.4733 9.21883 20.9832C9.39647 21.2069 9.7218 21.2443 9.94549 21.0666C10.1692 20.889 10.2065 20.5636 10.0289 20.34C2.60332 10.9892 1.46862 5.28752 1.03516 1.03684C1.03784 1.03506 1.04047 1.03424 1.04204 1.03402C1.0427 1.03393 1.04321 1.03393 1.04377 1.034Z" fill="white"/>
<path fill-rule="evenodd" clip-rule="evenodd" d="M233.435 68.3149C186.368 66.2827 136.638 74.5831 117.67 78.9849C117.381 79.052 117.088 78.8891 117.016 78.6213C116.943 78.3534 117.119 78.0819 117.408 78.0148C136.442 73.5977 186.282 65.2779 233.485 67.316C233.783 67.3288 234.013 67.5628 233.999 67.8387C233.985 68.1145 233.733 68.3277 233.435 68.3149Z" fill="#91FF6A"/>
</svg>
