<svg width="234" height="79" viewBox="0 0 234 79" fill="none" xmlns="http://www.w3.org/2000/svg">
<path d="M80.3835 27.56C80.0955 27.48 79.8635 27.408 79.6875 27.344C79.5115 27.296 79.4235 27.272 79.4235 27.272C79.4555 27.192 79.4395 27.12 79.3755 27.056C79.3275 26.992 79.2155 26.952 79.0395 26.936C78.7995 26.776 78.5515 26.552 78.2955 26.264C78.0395 25.976 77.8155 25.68 77.6235 25.376C77.4315 25.072 77.3035 24.848 77.2395 24.704C77.1275 24.464 77.1355 24.32 77.2635 24.272C77.3915 24.208 77.5435 24.136 77.7195 24.056C77.8955 23.928 78.0795 23.832 78.2715 23.768C78.4795 23.704 78.6475 23.808 78.7755 24.08C78.9835 24.448 79.3035 24.76 79.7355 25.016C80.1835 25.272 80.6875 25.424 81.2475 25.472C81.8235 25.52 82.3995 25.424 82.9755 25.184C83.3595 25.008 83.5675 24.768 83.5995 24.464C83.6315 24.144 83.5115 23.776 83.2395 23.36C83.1915 23.232 83.1195 23.128 83.0235 23.048C82.9435 22.968 82.8155 22.864 82.6395 22.736C82.4795 22.608 82.2475 22.4 81.9435 22.112C81.7035 22 81.4795 21.896 81.2715 21.8C81.0795 21.704 80.8715 21.6 80.6475 21.488C80.3915 21.36 80.1035 21.184 79.7835 20.96C79.4635 20.72 79.1675 20.464 78.8955 20.192C78.6235 19.904 78.4155 19.632 78.2715 19.376C78.0155 19.136 77.8555 18.808 77.7915 18.392C77.7275 17.96 77.7355 17.504 77.8155 17.024C77.9115 16.544 78.0635 16.112 78.2715 15.728C78.3675 15.504 78.5435 15.216 78.7995 14.864C79.0555 14.496 79.3435 14.12 79.6635 13.736C79.9835 13.352 80.2875 13.008 80.5755 12.704C80.8795 12.384 81.1195 12.168 81.2955 12.056C81.4235 11.928 81.5595 11.8 81.7035 11.672C81.8475 11.528 81.9195 11.456 81.9195 11.456C81.9355 11.376 81.9595 11.336 81.9915 11.336C82.0395 11.336 82.0635 11.336 82.0635 11.336C82.1435 11.288 82.3195 11.208 82.5915 11.096C82.8635 10.984 83.1595 10.776 83.4795 10.472C84.5515 9.96 85.4635 9.616 86.2155 9.44C86.9675 9.248 87.5595 9.152 87.9915 9.152C88.3915 9.168 88.7835 9.28 89.1675 9.488C89.5515 9.68 89.8795 9.928 90.1515 10.232C90.4395 10.536 90.6075 10.88 90.6555 11.264C90.7675 11.648 90.7115 12.112 90.4875 12.656C90.2795 13.184 89.9835 13.688 89.5995 14.168C89.2315 14.632 88.8475 14.976 88.4475 15.2C87.9995 15.392 87.6155 15.416 87.2955 15.272C86.9915 15.128 86.8475 14.904 86.8635 14.6C86.8635 14.472 86.9035 14.32 86.9835 14.144C87.0795 13.968 87.3275 13.656 87.7275 13.208C88.2395 12.456 88.5115 11.92 88.5435 11.6C88.5755 11.28 88.4315 11.096 88.1115 11.048C88.0155 11.016 87.8315 11.024 87.5595 11.072C87.2875 11.12 86.9915 11.184 86.6715 11.264C86.3675 11.328 86.0955 11.4 85.8555 11.48C85.6315 11.56 85.5195 11.616 85.5195 11.648C85.5195 11.648 85.5195 11.672 85.5195 11.72C85.5195 11.768 85.4875 11.784 85.4235 11.768C85.3915 11.768 85.2795 11.824 85.0875 11.936C84.9115 12.032 84.6955 12.16 84.4395 12.32C84.1835 12.48 83.9275 12.648 83.6715 12.824C83.4315 12.984 83.2235 13.128 83.0475 13.256C82.8715 13.384 82.7755 13.464 82.7595 13.496C82.7275 13.672 82.5435 13.832 82.2075 13.976C81.8875 14.168 81.6075 14.44 81.3675 14.792C81.1275 15.144 80.8475 15.592 80.5275 16.136C80.2555 16.504 80.0635 16.904 79.9515 17.336C79.8395 17.752 79.8395 18.088 79.9515 18.344C80.0315 18.6 80.2475 18.856 80.5995 19.112C80.9675 19.352 81.4635 19.656 82.0875 20.024C82.6315 20.328 83.1435 20.648 83.6235 20.984C84.1035 21.32 84.5115 21.648 84.8475 21.968C85.1835 22.272 85.3995 22.528 85.4955 22.736C85.6875 23.008 85.7995 23.32 85.8315 23.672C85.8795 24.024 85.8795 24.368 85.8315 24.704C85.7995 25.024 85.7515 25.288 85.6875 25.496C85.5755 25.752 85.3995 26.024 85.1595 26.312C84.9355 26.6 84.7275 26.736 84.5355 26.72C84.3595 26.768 84.2235 26.824 84.1275 26.888C84.0475 26.952 83.9515 27.008 83.8395 27.056C83.7275 27.12 83.4635 27.192 83.0475 27.272C82.6315 27.368 82.1755 27.44 81.6795 27.488C81.1835 27.552 80.7515 27.576 80.3835 27.56ZM92.8847 27.008C92.8207 27.072 92.7487 27.096 92.6687 27.08C92.5887 27.08 92.4607 27.04 92.2847 26.96C91.9807 26.88 91.7087 26.704 91.4687 26.432C91.2447 26.16 91.2127 25.848 91.3727 25.496C91.4367 25.384 91.5167 25.144 91.6127 24.776C91.7247 24.392 91.8447 23.952 91.9727 23.456C92.1007 22.96 92.2287 22.464 92.3567 21.968C92.4847 21.472 92.5967 21.04 92.6927 20.672C92.7887 20.288 92.8527 20.032 92.8847 19.904C92.8847 19.776 92.9167 19.52 92.9807 19.136C93.0607 18.752 93.1327 18.32 93.1967 17.84C93.3727 17.504 93.4927 17.136 93.5567 16.736C93.6367 16.336 93.6927 16.048 93.7247 15.872C93.7887 15.616 93.8607 15.344 93.9407 15.056C94.0367 14.768 94.1167 14.48 94.1807 14.192C94.2447 13.936 94.3087 13.672 94.3727 13.4C94.4527 13.128 94.4927 12.952 94.4927 12.872V12.488H93.6047C93.3647 12.504 93.0927 12.504 92.7887 12.488C92.4847 12.472 92.1487 12.464 91.7807 12.464C91.0287 12.432 90.5247 12.36 90.2687 12.248C90.0287 12.12 89.8927 11.88 89.8607 11.528C89.8287 11.336 89.8687 11.168 89.9807 11.024C90.0927 10.864 90.3567 10.736 90.7727 10.64C91.1887 10.544 91.8287 10.512 92.6927 10.544C93.3647 10.512 93.8927 10.512 94.2767 10.544C94.6607 10.56 94.8847 10.568 94.9487 10.568C95.0127 10.504 95.0527 10.44 95.0687 10.376C95.0847 10.312 95.1087 10.248 95.1407 10.184C95.1407 10.104 95.1487 10.016 95.1647 9.92C95.1967 9.808 95.2767 9.728 95.4047 9.68C95.5327 9.44 95.7727 9.344 96.1247 9.392C96.4927 9.424 96.7647 9.568 96.9407 9.824C97.0047 9.968 97.0207 10.12 96.9887 10.28C96.9727 10.44 97.0207 10.584 97.1327 10.712C97.1967 10.648 97.3647 10.608 97.6367 10.592C97.9087 10.576 98.1967 10.56 98.5007 10.544C98.8687 10.544 99.1967 10.536 99.4847 10.52C99.7727 10.488 99.9727 10.472 100.085 10.472C100.229 10.392 100.413 10.352 100.637 10.352C100.877 10.352 101.117 10.368 101.357 10.4C101.725 10.4 101.981 10.496 102.125 10.688C102.285 10.864 102.389 10.992 102.437 11.072C102.437 11.136 102.437 11.2 102.437 11.264C102.453 11.328 102.493 11.392 102.557 11.456C102.621 11.52 102.653 11.568 102.653 11.6C102.653 11.616 102.621 11.688 102.557 11.816C102.493 11.88 102.381 11.936 102.221 11.984C102.061 12.016 101.885 12.032 101.693 12.032C101.581 12.032 101.389 12.048 101.117 12.08C100.845 12.096 100.613 12.104 100.421 12.104C100.053 12.168 99.6927 12.224 99.3407 12.272C98.9887 12.304 98.5327 12.336 97.9727 12.368C97.7327 12.368 97.5087 12.384 97.3007 12.416C97.0927 12.432 96.9887 12.48 96.9887 12.56C96.9247 12.56 96.8367 12.728 96.7247 13.064C96.6287 13.4 96.5327 13.752 96.4367 14.12C96.3407 14.536 96.2367 14.896 96.1247 15.2C96.0287 15.504 95.9487 15.704 95.8847 15.8C95.9487 15.864 95.9727 15.944 95.9567 16.04C95.9567 16.136 95.9087 16.304 95.8127 16.544C95.7487 16.768 95.6847 16.944 95.6207 17.072C95.5727 17.2 95.5487 17.328 95.5487 17.456C95.5487 17.456 95.5087 17.584 95.4287 17.84C95.3647 18.08 95.3007 18.384 95.2367 18.752C95.2047 19.104 95.1567 19.4 95.0927 19.64C95.0447 19.88 94.9887 20.032 94.9247 20.096C94.9247 20.096 94.8927 20.152 94.8287 20.264C94.7647 20.36 94.7327 20.472 94.7327 20.6C94.7327 20.744 94.7007 20.984 94.6367 21.32C94.5887 21.64 94.5327 21.944 94.4687 22.232C94.4047 22.52 94.3487 22.68 94.3007 22.712C94.4607 22.744 94.4367 22.96 94.2287 23.36C94.2287 23.52 94.2047 23.68 94.1567 23.84C94.1087 24 94.0847 24.112 94.0847 24.176C93.9887 24.48 93.8527 24.848 93.6767 25.28C93.5007 25.712 93.3327 26.096 93.1727 26.432C93.0287 26.768 92.9327 26.96 92.8847 27.008ZM99.3649 26.984C99.3009 26.984 99.2129 26.896 99.1009 26.72C99.0049 26.544 98.9569 26.424 98.9569 26.36C98.9569 26.28 98.9409 26.24 98.9089 26.24C98.7809 26.24 98.7089 26.12 98.6929 25.88C98.6769 25.64 98.7329 25.464 98.8609 25.352C98.8929 25.352 98.9089 25.248 98.9089 25.04C98.9089 24.944 98.9169 24.864 98.9329 24.8C98.9649 24.736 98.9729 24.672 98.9569 24.608C98.9569 24.56 98.9729 24.488 99.0049 24.392C99.0529 24.296 99.0769 24.216 99.0769 24.152C99.0769 24.088 99.1089 23.992 99.1729 23.864C99.2529 23.736 99.3169 23.616 99.3649 23.504C99.4129 23.424 99.4689 23.288 99.5329 23.096C99.5969 22.904 99.6609 22.728 99.7249 22.568C99.7249 22.536 99.7889 22.4 99.9169 22.16C100.061 21.92 100.173 21.656 100.253 21.368C100.317 21.128 100.373 20.88 100.421 20.624C100.469 20.352 100.493 20.2 100.493 20.168C100.493 20.072 100.493 19.992 100.493 19.928C100.493 19.864 100.493 19.832 100.493 19.832C100.621 19.832 100.685 19.808 100.685 19.76C100.749 19.696 100.781 19.664 100.781 19.664C100.797 19.648 100.805 19.64 100.805 19.64C100.805 19.64 100.813 19.6 100.829 19.52C100.845 19.424 100.909 19.344 101.021 19.28C101.165 19.104 101.245 18.984 101.261 18.92C101.293 18.856 101.309 18.8 101.309 18.752C101.309 18.752 101.413 18.472 101.621 17.912C101.829 17.336 102.165 16.512 102.629 15.44C102.901 15.008 103.101 14.616 103.229 14.264C103.357 13.912 103.461 13.68 103.541 13.568C103.669 13.264 103.733 13.016 103.733 12.824C103.733 12.824 103.725 12.824 103.709 12.824C103.709 12.824 103.693 12.824 103.661 12.824C103.517 12.904 103.373 12.848 103.229 12.656C103.085 12.464 102.917 12.288 102.725 12.128C102.613 12 102.589 11.864 102.653 11.72C102.717 11.56 102.749 11.472 102.749 11.456C102.749 11.408 102.877 11.32 103.133 11.192C103.389 11.048 103.677 10.912 103.997 10.784C104.317 10.64 104.573 10.544 104.765 10.496C104.957 10.4 105.213 10.352 105.533 10.352C105.869 10.352 106.205 10.376 106.541 10.424C106.877 10.472 107.149 10.52 107.357 10.568C107.885 10.68 108.429 10.92 108.989 11.288C109.549 11.656 109.957 12.112 110.213 12.656C110.341 12.88 110.437 13.184 110.501 13.568C110.581 13.952 110.621 14.36 110.621 14.792C110.637 15.208 110.597 15.576 110.501 15.896C110.389 16.2 110.197 16.56 109.925 16.976C109.653 17.376 109.357 17.776 109.037 18.176C108.717 18.56 108.421 18.88 108.149 19.136C107.877 19.392 107.685 19.52 107.573 19.52C107.461 19.52 107.397 19.52 107.381 19.52C107.365 19.52 107.357 19.52 107.357 19.52C107.357 19.536 107.285 19.592 107.141 19.688C107.013 19.768 106.853 19.864 106.661 19.976C106.469 20.072 106.277 20.16 106.085 20.24C105.893 20.32 105.749 20.368 105.653 20.384C105.541 20.384 105.453 20.392 105.389 20.408C105.325 20.424 105.269 20.48 105.221 20.576C105.125 20.736 105.069 20.872 105.053 20.984C105.053 21.08 105.069 21.264 105.101 21.536C105.181 21.728 105.293 21.968 105.437 22.256C105.581 22.528 105.717 22.776 105.845 23C105.989 23.208 106.077 23.312 106.109 23.312C106.173 23.312 106.261 23.344 106.373 23.408C106.485 23.472 106.597 23.576 106.709 23.72C107.029 23.928 107.293 24.128 107.501 24.32C107.709 24.496 107.805 24.528 107.789 24.416C107.789 24.368 107.861 24.312 108.005 24.248C108.149 24.184 108.309 24.144 108.485 24.128C108.757 24.128 108.949 24.184 109.061 24.296C109.189 24.392 109.261 24.44 109.277 24.44C109.277 24.44 109.277 24.488 109.277 24.584C109.293 24.68 109.309 24.792 109.325 24.92C109.325 25.112 109.245 25.336 109.085 25.592C108.925 25.848 108.733 26.072 108.509 26.264C108.301 26.472 108.093 26.584 107.885 26.6C107.341 26.664 106.773 26.52 106.181 26.168C105.589 25.816 105.029 25.312 104.501 24.656C103.973 23.984 103.533 23.224 103.181 22.376C103.069 22.008 103.013 21.736 103.013 21.56C103.029 21.368 102.917 21.288 102.677 21.32C102.485 21.32 102.381 21.352 102.365 21.416C102.349 21.464 102.277 21.648 102.149 21.968C102.133 22.096 102.117 22.216 102.101 22.328C102.101 22.424 102.061 22.472 101.981 22.472C101.981 22.472 101.941 22.568 101.861 22.76C101.781 22.936 101.685 23.136 101.573 23.36C101.541 23.568 101.485 23.76 101.405 23.936C101.341 24.096 101.309 24.208 101.309 24.272C101.309 24.448 101.301 24.568 101.285 24.632C101.269 24.696 101.221 24.728 101.141 24.728C101.157 24.792 101.149 24.856 101.117 24.92C101.085 24.984 101.069 25.064 101.069 25.16C101.069 25.176 101.061 25.248 101.045 25.376C101.045 25.488 101.029 25.624 100.997 25.784C100.933 25.944 100.861 26.056 100.781 26.12C100.717 26.2 100.693 26.28 100.709 26.36C100.709 26.44 100.621 26.536 100.445 26.648C100.285 26.76 100.093 26.848 99.8689 26.912C99.6609 26.992 99.4929 27.016 99.3649 26.984ZM103.661 18.704C103.773 19.072 104.093 19.056 104.621 18.656C105.165 18.464 105.541 18.304 105.749 18.176C105.973 18.032 106.165 17.904 106.325 17.792C106.469 17.712 106.589 17.624 106.685 17.528C106.781 17.416 106.829 17.36 106.829 17.36C106.941 17.344 107.085 17.256 107.261 17.096C107.453 16.936 107.645 16.728 107.837 16.472C108.029 16.216 108.189 15.944 108.317 15.656C108.461 15.4 108.541 15.216 108.557 15.104C108.589 14.992 108.597 14.88 108.581 14.768C108.565 14.656 108.557 14.488 108.557 14.264C108.477 13.976 108.397 13.744 108.317 13.568C108.253 13.376 108.141 13.216 107.981 13.088C107.837 12.944 107.589 12.808 107.237 12.68C106.997 12.552 106.709 12.48 106.373 12.464C106.037 12.448 105.757 12.472 105.533 12.536C105.325 12.584 105.261 12.672 105.341 12.8C105.405 13.072 105.485 13.336 105.581 13.592C105.677 13.832 105.653 14.064 105.509 14.288C105.509 14.432 105.397 14.752 105.173 15.248C104.949 15.744 104.733 16.272 104.525 16.832C104.253 17.456 104.037 17.912 103.877 18.2C103.733 18.488 103.661 18.656 103.661 18.704ZM110.526 26.792C110.238 26.632 110.078 26.456 110.046 26.264C110.03 26.072 110.142 25.736 110.382 25.256C110.622 24.776 110.998 24.032 111.51 23.024C111.894 22.304 112.15 21.744 112.278 21.344C112.422 20.928 112.502 20.632 112.518 20.456C112.534 20.28 112.542 20.168 112.542 20.12C112.51 19.976 112.526 19.864 112.59 19.784C112.654 19.688 112.758 19.608 112.902 19.544C112.982 19.464 113.166 19.32 113.454 19.112C113.742 18.904 113.966 18.656 114.126 18.368C114.27 18.032 114.43 17.688 114.606 17.336C114.798 16.984 115.046 16.544 115.35 16.016C115.654 15.472 116.062 14.768 116.574 13.904C116.894 13.344 117.27 12.712 117.702 12.008C118.15 11.304 118.59 10.664 119.022 10.088C119.198 9.864 119.382 9.688 119.574 9.56C119.766 9.432 119.934 9.368 120.078 9.368C120.43 9.368 120.782 9.464 121.134 9.656C121.486 9.832 121.798 10.056 122.07 10.328C122.342 10.6 122.526 10.856 122.622 11.096C122.702 11.224 122.734 11.496 122.718 11.912C122.702 12.328 122.67 12.832 122.622 13.424C122.574 14.016 122.518 14.648 122.454 15.32C122.406 15.976 122.334 16.752 122.238 17.648C122.142 18.544 122.046 19.48 121.95 20.456C121.87 21.432 121.806 22.376 121.758 23.288C121.71 24.184 121.71 24.968 121.758 25.64C121.774 25.784 121.774 25.92 121.758 26.048C121.742 26.176 121.734 26.28 121.734 26.36C121.638 26.456 121.43 26.496 121.11 26.48C120.79 26.48 120.478 26.432 120.174 26.336C119.87 26.24 119.702 26.12 119.67 25.976C119.622 25.928 119.59 25.888 119.574 25.856C119.558 25.824 119.558 25.672 119.574 25.4C119.59 25.112 119.614 24.592 119.646 23.84L119.766 20.168L119.454 20.192C119.31 20.192 119.046 20.208 118.662 20.24C118.294 20.272 117.886 20.32 117.438 20.384C117.006 20.432 116.606 20.488 116.238 20.552C115.87 20.6 115.614 20.648 115.47 20.696C115.326 20.696 115.15 20.792 114.942 20.984C114.75 21.176 114.566 21.424 114.39 21.728C114.326 21.952 114.206 22.192 114.03 22.448C113.87 22.688 113.79 22.848 113.79 22.928C113.678 23.008 113.582 23.104 113.502 23.216C113.438 23.328 113.406 23.384 113.406 23.384C113.406 23.48 113.334 23.72 113.19 24.104C113.046 24.472 112.87 24.888 112.662 25.352C112.454 25.8 112.238 26.192 112.014 26.528L111.366 27.44L110.526 26.792ZM116.262 18.536C116.262 18.536 116.35 18.52 116.526 18.488C116.702 18.456 116.91 18.424 117.15 18.392C117.406 18.344 117.63 18.32 117.822 18.32C118.19 18.224 118.494 18.152 118.734 18.104C118.99 18.056 119.198 18.032 119.358 18.032C119.518 18.016 119.646 18.032 119.742 18.08C119.806 18.16 119.862 18.208 119.91 18.224C119.974 18.24 120.006 18.248 120.006 18.248C120.022 18.216 120.054 18.048 120.102 17.744C120.15 17.44 120.206 17.064 120.27 16.616C120.334 16.168 120.398 15.704 120.462 15.224C120.526 14.728 120.582 14.272 120.63 13.856C120.678 13.424 120.71 13.088 120.726 12.848C120.742 12.544 120.734 12.272 120.702 12.032C120.67 11.776 120.654 11.648 120.654 11.648C120.558 11.648 120.374 11.824 120.102 12.176C119.846 12.512 119.542 12.968 119.19 13.544C118.854 14.104 118.518 14.712 118.182 15.368C118.022 15.672 117.87 15.912 117.726 16.088C117.598 16.264 117.494 16.352 117.414 16.352C117.382 16.384 117.294 16.512 117.15 16.736C117.022 16.944 116.878 17.184 116.718 17.456C116.574 17.712 116.446 17.952 116.334 18.176C116.238 18.384 116.214 18.504 116.262 18.536ZM127.286 19.784L126.446 18.728C126.126 18.248 125.87 17.8 125.678 17.384C125.486 16.968 125.35 16.456 125.27 15.848C125.158 15.464 125.086 15.104 125.054 14.768C125.022 14.432 125.006 14.048 125.006 13.616C125.022 13.168 125.038 12.616 125.054 11.96C125.07 11.352 125.166 10.856 125.342 10.472C125.518 10.072 125.638 9.808 125.702 9.68C126.038 9.392 126.31 9.336 126.518 9.512C126.742 9.688 126.902 9.984 126.998 10.4C127.11 10.816 127.158 11.256 127.142 11.72C127.19 13.432 127.294 14.728 127.454 15.608C127.63 16.488 127.846 17.032 128.102 17.24C128.294 17.288 128.462 17.272 128.606 17.192C128.75 17.096 128.934 16.92 129.158 16.664C129.398 16.392 129.726 16.04 130.142 15.608C130.59 15.144 131.038 14.656 131.486 14.144C131.934 13.616 132.358 13.112 132.758 12.632C133.174 12.152 133.542 11.736 133.862 11.384C134.198 11.032 134.462 10.8 134.654 10.688C134.718 10.592 134.83 10.512 134.99 10.448C135.15 10.368 135.302 10.312 135.446 10.28C135.606 10.232 135.686 10.208 135.686 10.208C135.814 10.24 135.886 10.344 135.902 10.52C135.918 10.68 135.982 10.84 136.094 11C136.126 11.064 136.198 11.16 136.31 11.288C136.422 11.416 136.47 11.52 136.454 11.6C136.454 11.648 136.382 11.76 136.238 11.936C136.094 12.096 135.942 12.256 135.782 12.416C135.622 12.576 135.502 12.696 135.422 12.776C135.214 12.952 134.886 13.264 134.438 13.712C134.006 14.144 133.558 14.616 133.094 15.128C132.63 15.624 132.238 16.072 131.918 16.472C131.214 17.288 130.582 17.992 130.022 18.584C129.478 19.176 129.142 19.528 129.014 19.64C128.998 19.672 128.894 19.696 128.702 19.712C128.51 19.712 128.374 19.776 128.294 19.904L127.286 19.784ZM125.942 27.824C125.878 27.808 125.742 27.736 125.534 27.608C125.342 27.48 125.166 27.36 125.006 27.248C124.894 27.12 124.822 26.984 124.79 26.84C124.774 26.696 124.798 26.504 124.862 26.264C124.926 26.024 125.014 25.688 125.126 25.256C125.142 24.888 125.214 24.44 125.342 23.912C125.486 23.384 125.654 22.944 125.846 22.592C125.846 22.416 125.886 22.176 125.966 21.872C126.046 21.568 126.142 21.256 126.254 20.936C126.382 20.6 126.494 20.312 126.59 20.072L127.022 18.824L127.982 18.008L129.23 18.872C129.166 18.968 129.11 19.08 129.062 19.208C129.014 19.336 128.95 19.552 128.87 19.856C128.79 20.16 128.67 20.632 128.51 21.272C128.382 21.704 128.238 22.168 128.078 22.664C127.934 23.16 127.798 23.624 127.67 24.056C127.542 24.488 127.43 24.84 127.334 25.112C127.142 25.832 126.966 26.4 126.806 26.816C126.662 27.232 126.518 27.512 126.374 27.656C126.246 27.816 126.102 27.872 125.942 27.824Z" fill="white"/>
<path d="M78.2795 54.12C78.0795 54.04 77.8728 53.9533 77.6595 53.86C77.4595 53.7667 77.2662 53.6267 77.0795 53.44C76.9062 53.2667 76.7528 53.02 76.6195 52.7C76.4862 52.3133 76.3928 51.9333 76.3395 51.56C76.2995 51.1867 76.2862 50.7533 76.2995 50.26C76.2995 49.5667 76.3462 48.9667 76.4395 48.46C76.5462 47.94 76.7062 47.4133 76.9195 46.88C76.9462 46.84 76.9928 46.7267 77.0595 46.54C77.1395 46.34 77.2262 46.1267 77.3195 45.9C77.4262 45.6733 77.5062 45.5 77.5595 45.38C77.6662 45.1533 77.8262 44.8533 78.0395 44.48C78.2662 44.0933 78.5062 43.72 78.7595 43.36C79.1462 42.7867 79.4662 42.3333 79.7195 42C79.9728 41.6667 80.2128 41.3867 80.4395 41.16C80.6662 40.9333 80.9195 40.72 81.1995 40.52C81.4928 40.3067 81.8662 40.0467 82.3195 39.74C82.6128 39.5267 82.9328 39.4133 83.2795 39.4C83.6395 39.3867 83.9728 39.4667 84.2795 39.64C84.5862 39.8 84.8128 40.04 84.9595 40.36C85.1062 40.64 85.1795 40.98 85.1795 41.38C85.1795 41.7667 85.1195 42.18 84.9995 42.62C84.8795 43.0467 84.7128 43.4533 84.4995 43.84C84.2862 44.2267 84.0395 44.5467 83.7595 44.8C83.5862 44.96 83.4262 45.02 83.2795 44.98C83.1462 44.94 82.9862 44.8333 82.7995 44.66C82.6795 44.4333 82.6128 44.3 82.5995 44.26C82.5995 44.22 82.6262 44.1933 82.6795 44.18C82.7595 44.0867 82.8662 43.9267 82.9995 43.7C83.1328 43.4733 83.2662 43.2333 83.3995 42.98C83.5328 42.7133 83.6262 42.5 83.6795 42.34C83.7862 41.78 83.8595 41.3867 83.8995 41.16C83.9395 40.92 83.8995 40.74 83.7795 40.62C83.7262 40.5667 83.6462 40.5467 83.5395 40.56C83.4462 40.5733 83.2862 40.64 83.0595 40.76C82.7528 40.8933 82.3528 41.1933 81.8595 41.66C81.3662 42.1133 80.9128 42.62 80.4995 43.18C79.9662 43.8867 79.5195 44.5133 79.1595 45.06C78.7995 45.6067 78.5262 46.1667 78.3395 46.74C78.3128 46.7933 78.2662 46.8933 78.1995 47.04C78.1462 47.1867 78.1195 47.26 78.1195 47.26C78.1328 47.3133 78.1128 47.4467 78.0595 47.66C78.0062 47.86 77.9462 48.0333 77.8795 48.18C77.7328 48.7933 77.6462 49.4333 77.6195 50.1C77.5928 50.7533 77.6262 51.3333 77.7195 51.84C77.8262 52.3467 77.9795 52.7 78.1795 52.9C78.3528 53.02 78.5862 53.06 78.8795 53.02C79.1862 52.98 79.5328 52.8867 79.9195 52.74C80.3062 52.5933 80.6995 52.4333 81.0995 52.26C81.4195 52.1267 81.7128 51.98 81.9795 51.82C82.2462 51.66 82.4462 51.52 82.5795 51.4C82.6862 51.32 82.8195 51.24 82.9795 51.16C83.1528 51.0667 83.2995 51.02 83.4195 51.02C83.6062 50.9533 83.7128 50.9267 83.7395 50.94C83.7662 50.9533 83.7795 51.0133 83.7795 51.12C83.7795 51.3067 83.6728 51.5133 83.4595 51.74C83.2595 51.9667 82.9995 52.1733 82.6795 52.36C82.5728 52.4667 82.4328 52.58 82.2595 52.7C82.0862 52.82 81.9062 52.9133 81.7195 52.98C81.4395 53.1933 81.0928 53.4 80.6795 53.6C80.2662 53.8 79.8462 53.9533 79.4195 54.06C79.0062 54.1667 78.6262 54.1867 78.2795 54.12ZM86.6479 53.5C86.5813 53.5 86.5013 53.4667 86.4079 53.4C86.3146 53.3467 86.2279 53.2733 86.1479 53.18C86.0813 53.0867 86.0479 52.9867 86.0479 52.88C86.0479 52.88 86.0413 52.84 86.0279 52.76C86.0279 52.6667 86.0013 52.5733 85.9479 52.48C85.9479 52.3733 85.9479 52.2533 85.9479 52.12C85.9613 51.9733 85.9946 51.8267 86.0479 51.68C86.0479 51.5333 86.0679 51.3733 86.1079 51.2C86.1479 51.0133 86.1946 50.8733 86.2479 50.78C86.2479 50.6333 86.2813 50.4467 86.3479 50.22C86.4279 49.98 86.4946 49.76 86.5479 49.56C86.6946 49.12 86.8013 48.8 86.8679 48.6C86.9479 48.4 87.0013 48.2533 87.0279 48.16C87.0546 48.0533 87.0679 47.9467 87.0679 47.84C87.1079 47.7333 87.1679 47.54 87.2479 47.26C87.3279 46.98 87.4079 46.6933 87.4879 46.4C87.5813 46.0933 87.6413 45.8733 87.6679 45.74C87.7213 45.6867 87.7479 45.64 87.7479 45.6C87.7613 45.5467 87.7679 45.4933 87.7679 45.44C87.7679 45.44 87.8146 45.2867 87.9079 44.98C88.0013 44.6733 88.1213 44.32 88.2679 43.92C88.5079 43.2133 88.6679 42.7 88.7479 42.38C88.8413 42.06 88.8813 41.8333 88.8679 41.7C88.8679 41.5667 88.8346 41.4333 88.7679 41.3C88.6746 41.1267 88.6746 40.9933 88.7679 40.9C88.8213 40.8467 88.8679 40.7867 88.9079 40.72C88.9479 40.64 88.9679 40.6 88.9679 40.6C88.9679 40.5733 89.0546 40.5267 89.2279 40.46C89.4013 40.3933 89.6146 40.32 89.8679 40.24C90.1213 40.1467 90.3746 40.06 90.6279 39.98C90.8946 39.9 91.1146 39.8333 91.2879 39.78C91.3279 39.78 91.3879 39.78 91.4679 39.78C91.5613 39.78 91.6613 39.78 91.7679 39.78C91.8879 39.78 92.0013 39.78 92.1079 39.78C92.4546 39.8333 92.8079 39.9333 93.1679 40.08C93.5413 40.2267 93.8546 40.4333 94.1079 40.7C94.2679 40.8467 94.4079 41.02 94.5279 41.22C94.6613 41.42 94.8279 41.7467 95.0279 42.2C95.0279 42.2533 95.0413 42.3667 95.068 42.54C95.1079 42.7 95.1279 42.86 95.1279 43.02C95.1279 43.42 95.0279 43.84 94.8279 44.28C94.6279 44.72 94.3413 45.1667 93.9679 45.62C93.5946 46.06 93.1413 46.5 92.6079 46.94C92.0479 47.3933 91.4679 47.7 90.8679 47.86C90.2679 48.02 89.7346 48.0533 89.2679 47.96C89.1746 47.92 89.0879 47.84 89.0079 47.72C88.9413 47.6 88.8946 47.48 88.8679 47.36C88.8413 47.24 88.8479 47.16 88.8879 47.12C88.9946 47.0933 89.1546 47.0867 89.3679 47.1C89.5813 47.1 89.9213 47.0133 90.3879 46.84C90.5346 46.7867 90.6879 46.7267 90.8479 46.66C91.0079 46.58 91.1346 46.5133 91.2279 46.46C91.4946 46.2867 91.8013 46.0533 92.1479 45.76C92.4946 45.4667 92.8146 45.0867 93.1079 44.62C93.2279 44.4333 93.3479 44.2133 93.4679 43.96C93.5879 43.6933 93.6879 43.4267 93.768 43.16C93.8613 42.8933 93.9079 42.6733 93.9079 42.5C94.0146 42.1533 93.9479 41.8667 93.7079 41.64C93.4813 41.4 93.1146 41.2533 92.6079 41.2C92.4479 41.16 92.2013 41.1733 91.8679 41.24C91.5346 41.2933 91.2146 41.3667 90.9079 41.46C90.6013 41.5533 90.3946 41.6333 90.2879 41.7C90.2346 41.7 90.2013 41.74 90.1879 41.82C90.1746 41.9 90.1413 41.9933 90.0879 42.1C90.0879 42.1933 90.0479 42.3933 89.9679 42.7C89.8879 42.9933 89.7946 43.2667 89.6879 43.52C89.5946 43.8133 89.4813 44.14 89.3479 44.5C89.2146 44.8467 89.1213 45.12 89.0679 45.32C89.0146 45.5333 88.9479 45.74 88.8679 45.94C88.8013 46.14 88.7679 46.24 88.7679 46.24C88.7679 46.2933 88.7279 46.4067 88.6479 46.58C88.5813 46.7533 88.5213 46.94 88.4679 47.14C88.4146 47.3933 88.3413 47.68 88.2479 48C88.1679 48.32 88.0746 48.6067 87.9679 48.86C87.8213 49.3533 87.6946 49.8467 87.5879 50.34C87.4813 50.82 87.4746 51.1333 87.5679 51.28C87.7146 51.28 87.7679 51.4 87.7279 51.64C87.6879 51.8667 87.5679 52.18 87.3679 52.58C87.2346 52.9133 87.1346 53.14 87.0679 53.26C87.0013 53.3933 86.9413 53.4667 86.8879 53.48C86.8346 53.4933 86.7546 53.5 86.6479 53.5ZM97.7015 53.48C97.2882 53.4533 96.9215 53.3267 96.6015 53.1C96.2949 52.8733 95.9682 52.64 95.6215 52.4C95.3949 52.1733 95.2149 51.9333 95.0815 51.68C94.9482 51.4133 94.8415 51.0667 94.7615 50.64C94.7082 50.3867 94.7082 50.0667 94.7615 49.68C94.8149 49.2933 94.9015 48.9067 95.0215 48.52C95.1415 48.12 95.2549 47.8 95.3615 47.56C95.5215 47.1867 95.7215 46.7867 95.9615 46.36C96.2149 45.92 96.4615 45.5067 96.7015 45.12C96.9549 44.72 97.1549 44.4 97.3015 44.16C97.3949 44.0667 97.4349 44.02 97.4215 44.02C97.4215 44.0067 97.4215 44 97.4215 44C97.4215 43.9333 97.4882 43.7667 97.6215 43.5C97.7682 43.22 97.8949 42.9733 98.0015 42.76C98.2015 42.5467 98.3149 42.3733 98.3415 42.24C98.3682 42.1067 98.3482 42 98.2815 41.92C98.2549 41.8667 98.3015 41.7733 98.4215 41.64C98.5415 41.5067 98.7215 41.3533 98.9615 41.18C99.2015 41.0067 99.4749 40.8333 99.7815 40.66C100.102 40.4067 100.408 40.2733 100.702 40.26C101.008 40.2333 101.188 40.2933 101.242 40.44C101.242 40.48 101.315 40.4933 101.462 40.48C101.622 40.4533 101.802 40.42 102.002 40.38C102.215 40.3267 102.402 40.2867 102.562 40.26C102.628 40.18 102.782 40.12 103.022 40.08C103.275 40.0267 103.568 39.98 103.902 39.94C104.075 39.9533 104.242 39.96 104.402 39.96C104.575 39.9467 104.715 39.9333 104.822 39.92C104.942 39.9067 105.002 39.9 105.002 39.9C105.095 39.8733 105.202 39.8867 105.322 39.94C105.455 39.9933 105.575 40.14 105.682 40.38C105.775 40.62 105.742 40.8 105.582 40.92C105.435 41.04 105.088 41.1333 104.542 41.2C104.142 41.2533 103.795 41.3 103.502 41.34C103.208 41.3667 102.902 41.4067 102.582 41.46C102.262 41.5 101.868 41.5733 101.402 41.68C101.068 41.7467 100.795 41.8267 100.582 41.92C100.368 42 100.182 42.1267 100.022 42.3C99.8615 42.46 99.6815 42.6933 99.4815 43C99.3882 43.0667 99.2682 43.24 99.1215 43.52C98.9749 43.8 98.8282 44.08 98.6815 44.36C98.3082 44.88 97.9815 45.3333 97.7015 45.72C97.4349 46.0933 97.3282 46.3133 97.3815 46.38C97.3815 46.38 97.4549 46.4 97.6015 46.44C97.7482 46.48 97.8482 46.5 97.9015 46.5C98.0349 46.4333 98.1949 46.3867 98.3815 46.36C98.5815 46.3333 98.7415 46.3067 98.8615 46.28C99.6882 46.0667 100.335 45.9 100.802 45.78C101.282 45.66 101.642 45.5733 101.882 45.52C102.135 45.4533 102.328 45.4133 102.462 45.4C102.648 45.2533 102.828 45.2267 103.002 45.32C103.188 45.4133 103.335 45.56 103.442 45.76C103.508 45.9067 103.508 46.0333 103.442 46.14C103.388 46.2467 103.222 46.3533 102.942 46.46C102.675 46.5667 102.275 46.6933 101.742 46.84C101.208 46.9867 100.508 47.18 99.6415 47.42C98.9082 47.6333 98.2815 47.76 97.7615 47.8C97.2415 47.84 96.9949 47.7267 97.0215 47.46C96.9282 47.4067 96.8215 47.4733 96.7015 47.66C96.5949 47.8333 96.4882 48.0733 96.3815 48.38C96.2749 48.6867 96.1815 49.0133 96.1015 49.36C96.0349 49.7067 95.9882 50.0333 95.9615 50.34C95.9482 50.6333 95.9682 50.8533 96.0215 51C96.1282 51.3067 96.2682 51.5533 96.4415 51.74C96.6149 51.9133 96.9282 52.0667 97.3815 52.2C97.6482 52.2133 97.9082 52.2333 98.1615 52.26C98.4149 52.2867 98.7015 52.2333 99.0215 52.1C99.8082 51.9667 100.428 51.8267 100.882 51.68C101.335 51.5333 101.595 51.4333 101.662 51.38C101.768 51.3267 101.835 51.3 101.862 51.3C101.902 51.2867 101.955 51.28 102.022 51.28C101.982 51.3467 101.995 51.3533 102.062 51.3C102.142 51.2333 102.248 51.1333 102.382 51C102.528 50.8667 102.722 50.74 102.962 50.62C103.202 50.5 103.415 50.4067 103.602 50.34C103.802 50.2733 103.908 50.2733 103.922 50.34C104.002 50.4733 103.988 50.66 103.882 50.9C103.775 51.1267 103.582 51.38 103.302 51.66C103.022 51.9267 102.662 52.1867 102.222 52.44C101.515 52.8133 100.748 53.0733 99.9215 53.22C99.0949 53.38 98.3549 53.4667 97.7015 53.48ZM105.899 56.88C105.712 56.9867 105.579 57.04 105.499 57.04C105.432 57.0533 105.325 56.9867 105.179 56.84C105.059 56.7067 104.965 56.58 104.899 56.46C104.832 56.3533 104.805 56.2133 104.819 56.04C104.845 55.7467 104.905 55.38 104.999 54.94C105.092 54.5 105.192 54.0533 105.299 53.6C105.419 53.1467 105.512 52.7733 105.579 52.48C105.619 52.2933 105.665 52.1867 105.719 52.16C105.785 52.12 105.905 52.1 106.079 52.1C106.292 52.1 106.499 52.1 106.699 52.1C106.912 52.0867 107.119 52.0667 107.319 52.04L107.759 52C107.999 51.7467 108.232 51.5 108.459 51.26C108.699 51.02 108.932 50.7733 109.159 50.52C109.305 50.3467 109.472 50.1267 109.659 49.86C109.859 49.58 110.052 49.3 110.239 49.02C110.425 48.7267 110.579 48.48 110.699 48.28C111.059 47.6933 111.405 47.1267 111.739 46.58C112.072 46.0333 112.412 45.4 112.759 44.68C112.972 44.2533 113.152 43.8067 113.299 43.34C113.459 42.86 113.645 42.4133 113.859 42C114.045 41.68 114.179 41.34 114.259 40.98C114.352 40.6067 114.465 40.2533 114.599 39.92C114.452 39.84 114.099 39.8867 113.539 40.06C112.992 40.22 112.325 40.4733 111.539 40.82C111.312 40.9 111.119 40.8933 110.959 40.8C110.812 40.6933 110.705 40.56 110.639 40.4C110.585 40.2267 110.579 40.0667 110.619 39.92C110.659 39.7733 110.752 39.6933 110.899 39.68C111.045 39.6533 111.179 39.6067 111.299 39.54C111.432 39.4733 111.565 39.42 111.699 39.38C112.005 39.3 112.292 39.22 112.559 39.14C112.839 39.0467 113.139 38.98 113.459 38.94C113.619 38.9133 113.785 38.8867 113.959 38.86C114.145 38.8333 114.312 38.7933 114.459 38.74C114.739 38.66 115.045 38.6467 115.379 38.7C115.712 38.74 116.139 38.78 116.659 38.82C117.219 38.82 117.752 38.9533 118.259 39.22C118.765 39.4733 119.272 39.7067 119.779 39.92C119.859 40.0133 119.945 40.16 120.039 40.36C120.132 40.5467 120.172 40.7067 120.159 40.84C120.159 40.9867 120.105 41.26 119.999 41.66C119.892 42.06 119.752 42.5133 119.579 43.02C119.419 43.5267 119.252 44.0333 119.079 44.54C118.919 45.0333 118.772 45.46 118.639 45.82C118.505 46.18 118.419 46.4133 118.379 46.52C118.352 46.5733 118.305 46.6867 118.239 46.86C118.172 47.0333 118.112 47.2067 118.059 47.38C118.005 47.54 117.972 47.64 117.959 47.68C117.932 47.92 117.885 48.14 117.819 48.34C117.752 48.5267 117.672 48.7333 117.579 48.96C117.419 49.3733 117.259 49.8067 117.099 50.26C116.939 50.7 116.799 51.1467 116.679 51.6C116.959 51.6933 117.245 51.7467 117.539 51.76C117.832 51.7733 118.105 51.8267 118.359 51.92C118.612 52.0133 118.819 52.2333 118.979 52.58C119.032 52.6867 119.019 52.8667 118.939 53.12C118.872 53.3867 118.772 53.6867 118.639 54.02C118.505 54.3533 118.359 54.6867 118.199 55.02C118.052 55.3667 117.912 55.6667 117.779 55.92C117.659 56.1733 117.572 56.3533 117.519 56.46C117.465 56.58 117.385 56.6667 117.279 56.72C117.185 56.7733 117.065 56.7733 116.919 56.72L116.379 56.24C116.299 56.04 116.319 55.7867 116.439 55.48C116.572 55.1867 116.732 54.88 116.919 54.56C117.105 54.24 117.272 53.9267 117.419 53.62C117.579 53.3267 117.645 53.08 117.619 52.88C117.379 52.84 117.132 52.8333 116.879 52.86C116.639 52.8733 116.399 52.84 116.159 52.76C116.132 52.7467 116.099 52.74 116.059 52.74C116.019 52.74 115.979 52.74 115.939 52.74C115.299 52.74 114.785 52.74 114.399 52.74C114.025 52.74 113.725 52.74 113.499 52.74C113.285 52.7267 113.092 52.7267 112.919 52.74C112.759 52.74 112.572 52.7533 112.359 52.78C112.145 52.7933 111.859 52.8133 111.499 52.84C111.379 52.8533 111.259 52.8533 111.139 52.84C111.019 52.8267 110.905 52.8333 110.799 52.86C110.545 52.9267 110.285 52.9733 110.019 53C109.752 53.0267 109.465 53.04 109.159 53.04C108.892 53.0533 108.659 53.06 108.459 53.06C108.272 53.0733 108.105 53.0933 107.959 53.12C107.759 53.16 107.559 53.2067 107.359 53.26C107.159 53.3267 106.952 53.3733 106.739 53.4C106.579 53.8133 106.445 54.24 106.339 54.68C106.232 55.12 106.132 55.5533 106.039 55.98C105.999 56.1267 105.979 56.2733 105.979 56.42C105.992 56.5667 105.965 56.72 105.899 56.88ZM109.799 51.78C109.839 51.78 110.012 51.7733 110.319 51.76C110.625 51.7467 110.965 51.7333 111.339 51.72C111.725 51.6933 112.065 51.6733 112.359 51.66C112.652 51.6467 112.805 51.6467 112.819 51.66C112.859 51.6333 112.992 51.6133 113.219 51.6C113.445 51.5867 113.699 51.58 113.979 51.58C114.259 51.5667 114.525 51.56 114.779 51.56C115.032 51.56 115.212 51.56 115.319 51.56C115.412 51.36 115.485 51.1533 115.539 50.94C115.605 50.7133 115.672 50.4933 115.739 50.28C115.832 49.9733 115.932 49.6733 116.039 49.38C116.145 49.0733 116.245 48.7733 116.339 48.48C116.565 47.8 116.805 47.16 117.059 46.56C117.325 45.9467 117.559 45.24 117.759 44.44C117.799 44.2533 117.859 44.0733 117.939 43.9C118.032 43.7133 118.105 43.5267 118.159 43.34L118.459 42.32C118.525 42.1333 118.572 41.94 118.599 41.74C118.625 41.5267 118.672 41.34 118.739 41.18C118.805 41.0467 118.819 40.9133 118.779 40.78C118.752 40.6467 118.719 40.5133 118.679 40.38C118.385 40.22 118.065 40.08 117.719 39.96C117.385 39.8267 117.045 39.76 116.699 39.76C116.565 39.76 116.412 39.7333 116.239 39.68C116.065 39.6267 115.932 39.66 115.839 39.78C115.879 39.9267 115.899 40.0333 115.899 40.1C115.912 40.1667 115.892 40.2733 115.839 40.42C115.745 40.74 115.605 41.1467 115.419 41.64C115.232 42.12 115.019 42.64 114.779 43.2C114.539 43.7467 114.299 44.2867 114.059 44.82C113.819 45.34 113.592 45.8067 113.379 46.22C113.179 46.62 113.019 46.9067 112.899 47.08C112.739 47.3067 112.585 47.54 112.439 47.78C112.305 48.02 112.165 48.26 112.019 48.5C112.019 48.5133 111.939 48.6333 111.779 48.86C111.632 49.0733 111.445 49.34 111.219 49.66C111.005 49.98 110.785 50.3 110.559 50.62C110.345 50.94 110.165 51.2133 110.019 51.44C109.872 51.6533 109.799 51.7667 109.799 51.78ZM121.619 54.66C121.619 54.66 121.599 54.6467 121.559 54.62C121.519 54.6067 121.466 54.5933 121.399 54.58C121.346 54.5667 121.279 54.56 121.199 54.56C120.986 54.5067 120.832 54.3867 120.739 54.2C120.646 54.0267 120.626 53.8333 120.679 53.62C120.732 53.5667 120.772 53.4533 120.799 53.28C120.826 53.1067 120.839 52.9667 120.839 52.86C120.892 52.7533 120.926 52.68 120.939 52.64C120.952 52.5867 120.986 52.4533 121.039 52.24C121.079 52.0133 121.146 51.7 121.239 51.3C121.346 50.8867 121.459 50.4467 121.579 49.98C121.712 49.5133 121.839 49.0667 121.959 48.64C122.079 48.2133 122.186 47.8533 122.279 47.56C122.386 47.2667 122.459 47.1 122.499 47.06C122.499 47.06 122.499 47.04 122.499 47C122.499 46.9467 122.499 46.8933 122.499 46.84C122.499 46.84 122.506 46.78 122.519 46.66C122.546 46.5267 122.612 46.38 122.719 46.22C122.772 46.0733 122.819 45.9133 122.859 45.74C122.899 45.5667 122.919 45.4533 122.919 45.4C122.972 45.3333 123.046 45.1733 123.139 44.92C123.246 44.6533 123.346 44.3933 123.439 44.14C123.519 43.9267 123.606 43.7 123.699 43.46C123.806 43.22 123.892 43.0133 123.959 42.84C124.039 42.6667 124.079 42.58 124.079 42.58C124.079 42.5267 124.079 42.5 124.079 42.5C124.079 42.4867 124.079 42.48 124.079 42.48C124.132 42.4267 124.259 42.16 124.459 41.68C124.672 41.1867 124.959 40.5533 125.319 39.78C125.372 39.6733 125.439 39.5533 125.519 39.42C125.599 39.2867 125.639 39.1933 125.639 39.14C125.706 39.0333 125.799 38.9867 125.919 39C126.039 39 126.159 39.04 126.279 39.12C126.412 39.2 126.512 39.3133 126.579 39.46L126.779 39.78L126.059 41.22C125.846 41.5933 125.666 41.9333 125.519 42.24C125.386 42.5467 125.319 42.7267 125.319 42.78C125.319 42.78 125.279 42.8867 125.199 43.1C125.119 43.3133 125.026 43.5667 124.919 43.86C124.812 44.1533 124.719 44.42 124.639 44.66C124.492 45.0733 124.352 45.4133 124.219 45.68C124.099 45.9467 124.039 46.1067 124.039 46.16C124.039 46.1333 124.186 46.1133 124.479 46.1C124.772 46.0867 125.146 46.08 125.599 46.08C126.052 46.08 126.512 46.08 126.979 46.08C127.459 46.0667 127.879 46.06 128.239 46.06C128.612 46.0467 128.866 46.0267 128.999 46L130.039 45.9L130.719 43.84C130.826 43.4667 130.966 43.0133 131.139 42.48C131.312 41.9467 131.466 41.4933 131.599 41.12C131.812 40.5067 131.979 40.1267 132.099 39.98C132.219 39.8333 132.359 39.76 132.519 39.76C132.559 39.76 132.612 39.7733 132.679 39.8C132.759 39.8133 132.832 39.8467 132.899 39.9C132.979 39.94 133.032 40 133.059 40.08C133.219 40.2267 133.292 40.3933 133.279 40.58C133.279 40.7667 133.172 41.0133 132.959 41.32C132.746 41.68 132.566 42.0733 132.419 42.5C132.286 42.9133 132.166 43.2533 132.059 43.52C132.059 43.68 132.039 43.8133 131.999 43.92C131.959 44.0133 131.912 44.0867 131.859 44.14C131.832 44.1667 131.779 44.2667 131.699 44.44C131.619 44.6133 131.546 44.7867 131.479 44.96C131.412 45.1333 131.379 45.24 131.379 45.28C131.379 45.3733 131.359 45.4867 131.319 45.62C131.279 45.7533 131.232 45.8467 131.179 45.9C131.152 45.98 131.092 46.18 130.999 46.5C130.906 46.82 130.799 47.2 130.679 47.64C130.559 48.0667 130.432 48.4867 130.299 48.9C130.166 49.3 130.046 49.6333 129.939 49.9C129.939 49.9933 129.906 50.1133 129.839 50.26C129.772 50.3933 129.739 50.5133 129.739 50.62C129.686 50.78 129.619 50.98 129.539 51.22C129.459 51.46 129.419 51.6133 129.419 51.68C129.352 51.9867 129.279 52.3 129.199 52.62C129.132 52.94 129.072 53.2133 129.019 53.44C128.979 53.68 128.959 53.82 128.959 53.86C128.906 53.9133 128.826 53.92 128.719 53.88C128.612 53.84 128.486 53.7933 128.339 53.74C128.086 53.5933 127.932 53.4333 127.879 53.26C127.839 53.1 127.892 52.8667 128.039 52.56C128.106 52.4533 128.186 52.1933 128.279 51.78C128.386 51.3533 128.492 50.9333 128.599 50.52C128.679 50.32 128.766 50.0533 128.859 49.72C128.952 49.3733 129.046 49.0267 129.139 48.68C129.232 48.32 129.312 48.02 129.379 47.78C129.446 47.5267 129.492 47.3867 129.519 47.36C129.519 47.3067 129.519 47.26 129.519 47.22C129.519 47.18 129.519 47.16 129.519 47.16C129.492 47.1333 129.326 47.1133 129.019 47.1C128.712 47.0733 128.332 47.0667 127.879 47.08C127.426 47.08 126.952 47.0933 126.459 47.12C125.979 47.1333 125.546 47.1667 125.159 47.22C125.012 47.22 124.846 47.22 124.659 47.22C124.472 47.22 124.326 47.22 124.219 47.22C124.072 47.22 123.946 47.22 123.839 47.22C123.746 47.22 123.699 47.22 123.699 47.22C123.686 47.26 123.639 47.4 123.559 47.64C123.479 47.88 123.386 48.1733 123.279 48.52C123.172 48.8533 123.059 49.2 122.939 49.56C122.832 49.9067 122.739 50.2267 122.659 50.52C122.592 50.8 122.546 51 122.519 51.12C122.466 51.36 122.392 51.66 122.299 52.02C122.219 52.38 122.126 52.7467 122.019 53.12C121.926 53.5067 121.839 53.84 121.759 54.12C121.692 54.4 121.646 54.58 121.619 54.66ZM141.688 53.8C141.608 53.8 141.501 53.7733 141.368 53.72C141.235 53.6667 141.095 53.6 140.948 53.52C140.815 53.4533 140.695 53.3733 140.588 53.28C140.495 53.1867 140.448 53.1 140.448 53.02C140.448 52.94 140.441 52.86 140.428 52.78C140.415 52.6867 140.421 52.6 140.448 52.52C140.515 52.3067 140.575 52.1 140.628 51.9C140.695 51.7 140.748 51.4933 140.788 51.28C140.895 50.6533 141.028 50.0333 141.188 49.42C141.361 48.8067 141.528 48.1933 141.688 47.58C141.728 47.42 141.808 47.1333 141.928 46.72C142.061 46.2933 142.208 45.8133 142.368 45.28C142.528 44.7333 142.681 44.2 142.828 43.68C142.988 43.16 143.115 42.72 143.208 42.36C143.301 41.9867 143.335 41.7667 143.308 41.7C143.255 41.66 143.215 41.6533 143.188 41.68C143.175 41.7067 143.155 41.7333 143.128 41.76C142.821 42.1733 142.508 42.5933 142.188 43.02C141.868 43.4333 141.548 43.8467 141.228 44.26C140.881 44.7133 140.521 45.16 140.148 45.6C139.775 46.04 139.401 46.4867 139.028 46.94C138.775 47.26 138.521 47.5933 138.268 47.94C138.015 48.2733 137.755 48.5933 137.488 48.9C137.301 49.1133 137.128 49.3333 136.968 49.56C136.808 49.7867 136.635 50.0067 136.448 50.22C136.248 50.46 136.028 50.72 135.788 51C135.548 51.28 135.301 51.5667 135.048 51.86C134.808 52.14 134.561 52.4133 134.308 52.68C134.068 52.9333 133.828 53.16 133.588 53.36C133.495 53.44 133.361 53.4867 133.188 53.5C133.028 53.5133 132.875 53.48 132.728 53.4C132.581 53.3333 132.501 53.22 132.488 53.06C132.475 52.7667 132.501 52.42 132.568 52.02C132.648 51.62 132.741 51.22 132.848 50.82C132.955 50.4067 133.055 50.06 133.148 49.78C133.188 49.6333 133.235 49.4933 133.288 49.36C133.341 49.2133 133.388 49.0667 133.428 48.92C133.441 48.84 133.455 48.76 133.468 48.68C133.495 48.6 133.521 48.52 133.548 48.44C133.641 48.24 133.708 48.0533 133.748 47.88C133.788 47.7067 133.808 47.5133 133.808 47.3C133.821 47.22 133.855 47.1 133.908 46.94C133.961 46.78 134.021 46.6133 134.088 46.44C134.155 46.2667 134.201 46.1333 134.228 46.04C134.295 45.84 134.355 45.64 134.408 45.44C134.475 45.2267 134.555 45.0267 134.648 44.84C134.675 44.8 134.688 44.7733 134.688 44.76C134.688 44.7467 134.695 44.72 134.708 44.68C134.775 44.2667 134.868 43.9467 134.988 43.72C135.121 43.48 135.255 43.1933 135.388 42.86L135.408 42.74C135.461 42.5933 135.508 42.4733 135.548 42.38C135.601 42.2733 135.655 42.1533 135.708 42.02C135.735 41.9533 135.721 41.9133 135.668 41.9C135.628 41.8733 135.635 41.8333 135.688 41.78C135.795 41.6467 135.835 41.5733 135.808 41.56C135.781 41.5467 135.788 41.4867 135.828 41.38C135.921 41.26 136.015 41.08 136.108 40.84C136.215 40.6 136.315 40.3533 136.408 40.1C136.501 39.8333 136.575 39.6333 136.628 39.5C136.655 39.4067 136.688 39.3467 136.728 39.32C136.768 39.28 136.835 39.24 136.928 39.2C137.141 39.1067 137.321 39.0933 137.468 39.16C137.615 39.2267 137.721 39.3333 137.788 39.48C137.855 39.6267 137.881 39.7867 137.868 39.96C137.868 40.12 137.828 40.26 137.748 40.38C137.721 40.42 137.701 40.46 137.688 40.5C137.688 40.5267 137.675 40.5667 137.648 40.62C137.595 40.8467 137.515 41.0667 137.408 41.28C137.301 41.48 137.201 41.6933 137.108 41.92C137.028 42.1067 136.901 42.4267 136.728 42.88C136.568 43.3333 136.381 43.8667 136.168 44.48C135.955 45.08 135.741 45.7067 135.528 46.36C135.315 47 135.115 47.62 134.928 48.22C134.741 48.8067 134.595 49.32 134.488 49.76C134.381 50.1867 134.335 50.48 134.348 50.64C134.521 50.4533 134.688 50.2667 134.848 50.08C135.008 49.88 135.161 49.6867 135.308 49.5C135.695 49.0067 136.101 48.5267 136.528 48.06C136.955 47.58 137.355 47.0933 137.728 46.6C137.941 46.3067 138.168 46.0267 138.408 45.76C138.661 45.4933 138.895 45.2133 139.108 44.92C139.255 44.7333 139.401 44.5533 139.548 44.38C139.708 44.2067 139.855 44.0267 139.988 43.84C140.401 43.2933 140.835 42.76 141.288 42.24C141.741 41.7067 142.181 41.1733 142.608 40.64C142.715 40.5067 142.881 40.3267 143.108 40.1C143.335 39.8733 143.568 39.66 143.808 39.46C144.048 39.2467 144.241 39.1067 144.388 39.04C144.561 38.96 144.728 38.98 144.888 39.1C145.048 39.2067 145.195 39.32 145.328 39.44C145.515 39.6267 145.568 39.8533 145.488 40.12C145.461 40.1867 145.428 40.26 145.388 40.34C145.348 40.4067 145.315 40.4733 145.288 40.54C145.168 40.7667 145.061 41 144.968 41.24C144.875 41.4667 144.788 41.7 144.708 41.94C144.628 42.18 144.555 42.4267 144.488 42.68C144.475 42.7733 144.455 42.88 144.428 43C144.401 43.12 144.368 43.2333 144.328 43.34C144.235 43.5533 144.115 43.7867 143.968 44.04C143.835 44.28 143.775 44.5333 143.788 44.8C143.788 44.96 143.755 45.1067 143.688 45.24C143.568 45.48 143.481 45.7333 143.428 46C143.375 46.2667 143.315 46.5333 143.248 46.8C143.141 47.2267 143.028 47.6533 142.908 48.08C142.801 48.5067 142.688 48.9333 142.568 49.36C142.448 49.7867 142.328 50.2133 142.208 50.64C142.075 51.1467 141.975 51.6733 141.908 52.22C141.841 52.7533 141.768 53.28 141.688 53.8ZM152.234 54.58C151.994 54.4867 151.794 54.36 151.634 54.2C151.488 54.04 151.441 53.8267 151.494 53.56C151.494 53.56 151.548 53.4333 151.654 53.18C151.761 52.94 151.888 52.64 152.034 52.28C152.194 51.9067 152.348 51.54 152.494 51.18C152.641 50.82 152.768 50.52 152.874 50.28C152.981 50.0267 153.034 49.9 153.034 49.9C153.128 49.66 153.254 49.3333 153.414 48.92C153.588 48.5067 153.754 48.0867 153.914 47.66C154.088 47.22 154.234 46.84 154.354 46.52C154.474 46.2 154.534 46.02 154.534 45.98C154.681 45.6467 154.808 45.3067 154.914 44.96C155.021 44.6133 155.154 44.28 155.314 43.96C155.434 43.6933 155.541 43.4533 155.634 43.24C155.728 43.0133 155.774 42.8133 155.774 42.64C155.774 42.64 155.634 42.7867 155.354 43.08C155.088 43.3733 154.728 43.7667 154.274 44.26C153.821 44.74 153.321 45.2733 152.774 45.86C152.241 46.4333 151.701 47.0133 151.154 47.6C150.621 48.1867 150.128 48.7267 149.674 49.22C149.221 49.7 148.854 50.0867 148.574 50.38C148.294 50.6733 148.154 50.82 148.154 50.82C147.861 51.0467 147.588 51.2933 147.334 51.56C147.094 51.8133 146.828 52.0533 146.534 52.28C146.414 52.3733 146.268 52.4933 146.094 52.64C145.921 52.7733 145.754 52.8933 145.594 53C145.434 53.12 145.314 53.18 145.234 53.18C144.848 53.1133 144.601 53.0067 144.494 52.86C144.388 52.7 144.368 52.5067 144.434 52.28C144.501 52.04 144.594 51.76 144.714 51.44C144.781 51.2267 144.841 51.0133 144.894 50.8C144.961 50.5733 145.008 50.3533 145.034 50.14C145.128 49.74 145.228 49.3667 145.334 49.02C145.441 48.6733 145.541 48.34 145.634 48.02C145.728 47.7133 145.821 47.4067 145.914 47.1C146.008 46.78 146.061 46.4533 146.074 46.12C146.234 45.8533 146.368 45.5933 146.474 45.34C146.581 45.0733 146.681 44.8067 146.774 44.54C146.868 44.2733 146.974 44.0067 147.094 43.74C147.241 43.42 147.361 43.0933 147.454 42.76C147.561 42.4133 147.688 42.0733 147.834 41.74C147.928 41.5533 148.054 41.3067 148.214 41C148.374 40.6933 148.521 40.38 148.654 40.06C148.801 39.74 148.874 39.4667 148.874 39.24C148.874 39.0933 148.928 39.0133 149.034 39C149.141 38.9867 149.261 39.0067 149.394 39.06C149.528 39.1133 149.641 39.18 149.734 39.26C149.841 39.34 149.901 39.4 149.914 39.44C149.954 39.56 149.981 39.6867 149.994 39.82C150.021 39.9533 150.001 40.0933 149.934 40.24L148.274 44.46L146.454 49.28C146.294 49.8 146.201 50.2067 146.174 50.5C146.161 50.7933 146.248 50.8933 146.434 50.8L150.474 46.76C150.701 46.52 150.921 46.2733 151.134 46.02C151.361 45.7533 151.574 45.4933 151.774 45.24C151.828 45.2133 151.961 45.08 152.174 44.84C152.401 44.6 152.661 44.3133 152.954 43.98C153.248 43.6467 153.528 43.3333 153.794 43.04C154.061 42.7333 154.261 42.5067 154.394 42.36L156.934 39.66L157.314 39.54C157.434 39.5267 157.554 39.5667 157.674 39.66C157.794 39.7533 157.881 39.8733 157.934 40.02C158.001 40.1667 158.001 40.32 157.934 40.48C157.934 40.48 157.868 40.6533 157.734 41C157.614 41.3467 157.454 41.7933 157.254 42.34C157.054 42.8733 156.841 43.44 156.614 44.04C156.401 44.64 156.194 45.2067 155.994 45.74C155.794 46.2733 155.628 46.7133 155.494 47.06C155.374 47.3933 155.308 47.56 155.294 47.56C155.308 47.52 155.261 47.6267 155.154 47.88C155.061 48.1333 154.934 48.4667 154.774 48.88C154.614 49.2933 154.448 49.72 154.274 50.16C154.101 50.5867 153.948 50.9667 153.814 51.3C153.694 51.6333 153.621 51.8467 153.594 51.94C153.541 52.1133 153.474 52.2867 153.394 52.46C153.328 52.62 153.254 52.78 153.174 52.94C153.081 53.1133 153.001 53.2933 152.934 53.48C152.881 53.68 152.834 53.8733 152.794 54.06C152.754 54.2067 152.674 54.34 152.554 54.46C152.434 54.5933 152.328 54.6333 152.234 54.58ZM153.334 38.52C152.841 38.5733 152.428 38.4533 152.094 38.16C151.761 37.8667 151.501 37.4333 151.314 36.86C151.288 36.7533 151.281 36.66 151.294 36.58C151.308 36.4867 151.334 36.4067 151.374 36.34C151.401 36.2867 151.461 36.2467 151.554 36.22C151.661 36.18 151.741 36.1733 151.794 36.2C152.008 36.28 152.168 36.3667 152.274 36.46C152.394 36.5533 152.468 36.6733 152.494 36.82C152.534 36.8867 152.554 36.9533 152.554 37.02C152.568 37.0867 152.574 37.1133 152.574 37.1C152.654 37.3133 152.754 37.46 152.874 37.54C152.994 37.62 153.181 37.6133 153.434 37.52C153.701 37.4267 153.961 37.32 154.214 37.2C154.481 37.08 154.721 36.9333 154.934 36.76C155.121 36.6133 155.294 36.48 155.454 36.36C155.614 36.24 155.781 36.1133 155.954 35.98L155.974 35.96C156.041 35.92 156.121 35.9067 156.214 35.92C156.308 35.9333 156.361 35.9533 156.374 35.98C156.481 36.0733 156.534 36.1667 156.534 36.26C156.548 36.3533 156.554 36.4533 156.554 36.56L156.534 36.6C156.561 36.68 156.481 36.8333 156.294 37.06C156.108 37.2733 155.888 37.4667 155.634 37.64C155.421 37.7867 155.181 37.92 154.914 38.04C154.661 38.16 154.401 38.2733 154.134 38.38C154.041 38.4333 153.928 38.4667 153.794 38.48C153.674 38.48 153.521 38.4933 153.334 38.52ZM170.235 46.68C170.195 46.7733 170.042 46.8467 169.775 46.9C169.508 46.9533 169.082 47.0133 168.495 47.08C168.322 47.0933 168.062 47.1067 167.715 47.12C167.382 47.1333 167.015 47.1467 166.615 47.16C166.228 47.1733 165.875 47.18 165.555 47.18C165.235 47.1667 165.015 47.1467 164.895 47.12C164.895 47.12 164.862 47.1533 164.795 47.22C164.742 47.2867 164.715 47.3733 164.715 47.48C164.622 47.64 164.502 47.8867 164.355 48.22C164.222 48.5533 164.068 48.92 163.895 49.32C163.735 49.72 163.582 50.12 163.435 50.52C163.302 50.92 163.188 51.2667 163.095 51.56C163.002 51.8533 162.955 52.0533 162.955 52.16C162.835 52.48 162.762 52.7533 162.735 52.98C162.708 53.2067 162.662 53.34 162.595 53.38C162.582 53.4333 162.495 53.4467 162.335 53.42C162.175 53.3933 162.042 53.32 161.935 53.2C161.775 53.08 161.682 52.9733 161.655 52.88C161.642 52.7733 161.682 52.5733 161.775 52.28C161.815 52.1067 161.882 51.8533 161.975 51.52C162.082 51.1733 162.195 50.7933 162.315 50.38C162.448 49.9667 162.582 49.5667 162.715 49.18C162.862 48.78 163.002 48.4533 163.135 48.2C163.282 47.9467 163.375 47.72 163.415 47.52C163.455 47.3067 163.508 47.1133 163.575 46.94C163.562 46.7933 163.562 46.6933 163.575 46.64C163.588 46.5867 163.642 46.5067 163.735 46.4C163.802 46.3467 163.882 46.2533 163.975 46.12C164.082 45.9733 164.202 45.7533 164.335 45.46C164.375 45.3267 164.435 45.1467 164.515 44.92C164.608 44.68 164.695 44.44 164.775 44.2C164.855 43.9467 164.928 43.7333 164.995 43.56C165.062 43.3867 165.095 43.2933 165.095 43.28C165.122 43.2267 165.162 43.1267 165.215 42.98C165.268 42.82 165.308 42.6933 165.335 42.6C165.388 42.4133 165.428 42.26 165.455 42.14C165.495 42.02 165.488 41.96 165.435 41.96C165.328 41.9867 165.115 42.0067 164.795 42.02C164.635 42.0467 164.515 42.0667 164.435 42.08C164.368 42.08 164.308 42.0867 164.255 42.1C164.122 42.1133 164.002 42.1 163.895 42.06C163.788 42.02 163.735 41.94 163.735 41.82C163.762 41.6067 163.835 41.4333 163.955 41.3C164.088 41.1533 164.255 41.0733 164.455 41.06C164.548 41.0333 164.648 41.0133 164.755 41C164.875 40.9733 165.035 40.9333 165.235 40.88C165.488 40.8267 165.682 40.7867 165.815 40.76C165.962 40.72 166.075 40.7133 166.155 40.74C166.222 40.7 166.282 40.66 166.335 40.62C166.388 40.5667 166.415 40.5133 166.415 40.46C166.415 40.3933 166.442 40.3467 166.495 40.32C166.562 40.28 166.635 40.26 166.715 40.26C166.795 40.2467 166.875 40.2533 166.955 40.28C167.048 40.3067 167.115 40.3533 167.155 40.42C167.182 40.46 167.242 40.4933 167.335 40.52C167.428 40.5467 167.595 40.5467 167.835 40.52C168.088 40.48 168.442 40.4133 168.895 40.32C169.135 40.2933 169.435 40.2667 169.795 40.24C170.168 40.2133 170.462 40.2333 170.675 40.3C170.902 40.26 171.102 40.2467 171.275 40.26C171.462 40.26 171.588 40.2333 171.655 40.18C171.935 40.2333 172.135 40.2733 172.255 40.3C172.388 40.3133 172.495 40.3533 172.575 40.42C172.628 40.4733 172.642 40.5267 172.615 40.58C172.602 40.62 172.595 40.64 172.595 40.64C172.542 40.6133 172.548 40.62 172.615 40.66C172.682 40.6867 172.728 40.7133 172.755 40.74C172.848 40.78 172.908 40.8333 172.935 40.9C172.962 40.9533 172.975 41.0067 172.975 41.06C172.975 41.1133 172.968 41.16 172.955 41.2C172.942 41.32 172.875 41.3933 172.755 41.42C172.635 41.4333 172.335 41.4333 171.855 41.42C171.282 41.34 170.715 41.3133 170.155 41.34C169.608 41.3533 168.968 41.4133 168.235 41.52C167.968 41.5333 167.728 41.5733 167.515 41.64C167.315 41.6933 167.202 41.72 167.175 41.72C167.122 41.72 167.028 41.8133 166.895 42C166.762 42.1733 166.635 42.4333 166.515 42.78C166.462 42.8733 166.368 43.0867 166.235 43.42C166.102 43.7533 165.955 44.1133 165.795 44.5C165.648 44.8867 165.515 45.2267 165.395 45.52C165.288 45.8133 165.222 45.9733 165.195 46C165.382 46.0533 165.682 46.08 166.095 46.08C166.522 46.08 166.988 46.0667 167.495 46.04C168.015 46 168.488 45.96 168.915 45.92C169.115 45.88 169.322 45.8467 169.535 45.82C169.762 45.78 169.908 45.7733 169.975 45.8C170.042 45.84 170.102 45.92 170.155 46.04C170.208 46.1467 170.242 46.26 170.255 46.38C170.282 46.5 170.275 46.6 170.235 46.68ZM172.097 53.5C172.031 53.5 171.951 53.4667 171.857 53.4C171.764 53.3467 171.677 53.2733 171.597 53.18C171.531 53.0867 171.497 52.9867 171.497 52.88C171.497 52.88 171.491 52.84 171.477 52.76C171.477 52.6667 171.451 52.5733 171.397 52.48C171.397 52.3733 171.397 52.2533 171.397 52.12C171.411 51.9733 171.444 51.8267 171.497 51.68C171.497 51.5333 171.517 51.3733 171.557 51.2C171.597 51.0133 171.644 50.8733 171.697 50.78C171.697 50.6333 171.731 50.4467 171.797 50.22C171.877 49.98 171.944 49.76 171.997 49.56C172.144 49.12 172.251 48.8 172.317 48.6C172.397 48.4 172.451 48.2533 172.477 48.16C172.504 48.0533 172.517 47.9467 172.517 47.84C172.557 47.7333 172.617 47.54 172.697 47.26C172.777 46.98 172.857 46.6933 172.937 46.4C173.031 46.0933 173.091 45.8733 173.117 45.74C173.171 45.6867 173.197 45.64 173.197 45.6C173.211 45.5467 173.217 45.4933 173.217 45.44C173.217 45.44 173.264 45.2867 173.357 44.98C173.451 44.6733 173.571 44.32 173.717 43.92C173.957 43.2133 174.117 42.7 174.197 42.38C174.291 42.06 174.331 41.8333 174.317 41.7C174.317 41.5667 174.284 41.4333 174.217 41.3C174.124 41.1267 174.124 40.9933 174.217 40.9C174.271 40.8467 174.317 40.7867 174.357 40.72C174.397 40.64 174.417 40.6 174.417 40.6C174.417 40.5733 174.504 40.5267 174.677 40.46C174.851 40.3933 175.064 40.32 175.317 40.24C175.571 40.1467 175.824 40.06 176.077 39.98C176.344 39.9 176.564 39.8333 176.737 39.78C176.777 39.78 176.837 39.78 176.917 39.78C177.011 39.78 177.111 39.78 177.217 39.78C177.337 39.78 177.451 39.78 177.557 39.78C177.904 39.8333 178.257 39.9333 178.617 40.08C178.991 40.2267 179.304 40.4333 179.557 40.7C179.717 40.8467 179.857 41.02 179.977 41.22C180.111 41.42 180.277 41.7467 180.477 42.2C180.477 42.2533 180.491 42.3667 180.517 42.54C180.557 42.7 180.577 42.86 180.577 43.02C180.577 43.42 180.477 43.84 180.277 44.28C180.077 44.72 179.791 45.1667 179.417 45.62C179.044 46.06 178.591 46.5 178.057 46.94C177.497 47.3933 176.917 47.7 176.317 47.86C175.717 48.02 175.184 48.0533 174.717 47.96C174.624 47.92 174.537 47.84 174.457 47.72C174.391 47.6 174.344 47.48 174.317 47.36C174.291 47.24 174.297 47.16 174.337 47.12C174.444 47.0933 174.604 47.0867 174.817 47.1C175.031 47.1 175.371 47.0133 175.837 46.84C175.984 46.7867 176.137 46.7267 176.297 46.66C176.457 46.58 176.584 46.5133 176.677 46.46C176.944 46.2867 177.251 46.0533 177.597 45.76C177.944 45.4667 178.264 45.0867 178.557 44.62C178.677 44.4333 178.797 44.2133 178.917 43.96C179.037 43.6933 179.137 43.4267 179.217 43.16C179.311 42.8933 179.357 42.6733 179.357 42.5C179.464 42.1533 179.397 41.8667 179.157 41.64C178.931 41.4 178.564 41.2533 178.057 41.2C177.897 41.16 177.651 41.1733 177.317 41.24C176.984 41.2933 176.664 41.3667 176.357 41.46C176.051 41.5533 175.844 41.6333 175.737 41.7C175.684 41.7 175.651 41.74 175.637 41.82C175.624 41.9 175.591 41.9933 175.537 42.1C175.537 42.1933 175.497 42.3933 175.417 42.7C175.337 42.9933 175.244 43.2667 175.137 43.52C175.044 43.8133 174.931 44.14 174.797 44.5C174.664 44.8467 174.571 45.12 174.517 45.32C174.464 45.5333 174.397 45.74 174.317 45.94C174.251 46.14 174.217 46.24 174.217 46.24C174.217 46.2933 174.177 46.4067 174.097 46.58C174.031 46.7533 173.971 46.94 173.917 47.14C173.864 47.3933 173.791 47.68 173.697 48C173.617 48.32 173.524 48.6067 173.417 48.86C173.271 49.3533 173.144 49.8467 173.037 50.34C172.931 50.82 172.924 51.1333 173.017 51.28C173.164 51.28 173.217 51.4 173.177 51.64C173.137 51.8667 173.017 52.18 172.817 52.58C172.684 52.9133 172.584 53.14 172.517 53.26C172.451 53.3933 172.391 53.4667 172.337 53.48C172.284 53.4933 172.204 53.5 172.097 53.5ZM185.16 53.42C184.613 53.5533 184.047 53.5467 183.46 53.4C182.887 53.2533 182.38 52.9933 181.94 52.62C181.5 52.2467 181.193 51.7933 181.02 51.26C180.967 51.1133 180.92 50.98 180.88 50.86C180.853 50.74 180.867 50.68 180.92 50.68C181.053 50.68 181.06 50.6133 180.94 50.48C180.9 50.4267 180.88 50.34 180.88 50.22C180.893 50.1 180.92 49.9867 180.96 49.88C181.013 49.7733 181.073 49.72 181.14 49.72C181.233 49.72 181.333 49.7533 181.44 49.82C181.547 49.8867 181.627 49.96 181.68 50.04C181.747 50.1067 181.753 50.16 181.7 50.2C181.7 50.2 181.727 50.2733 181.78 50.42C181.833 50.5533 181.847 50.7133 181.82 50.9C181.94 51.1 182.04 51.2667 182.12 51.4C182.2 51.52 182.367 51.6533 182.62 51.8C182.793 51.9333 182.947 52.0333 183.08 52.1C183.213 52.1667 183.447 52.2067 183.78 52.22C183.993 52.22 184.167 52.1933 184.3 52.14C184.433 52.0867 184.553 51.9933 184.66 51.86C184.78 51.7267 184.92 51.5467 185.08 51.32C185.12 51.0667 185.067 50.66 184.92 50.1C184.787 49.54 184.587 48.8867 184.32 48.14C184.053 47.38 183.733 46.5867 183.36 45.76C183.28 45.6133 183.207 45.46 183.14 45.3C183.087 45.14 183.06 45.06 183.06 45.06C183.1 44.8067 183.087 44.5733 183.02 44.36C182.94 44.2933 182.893 44.14 182.88 43.9C182.88 43.6467 182.867 43.42 182.84 43.22C182.867 42.9267 182.893 42.7 182.92 42.54C182.947 42.38 183.033 42.1933 183.18 41.98C183.567 41.42 184.04 40.9533 184.6 40.58C185.16 40.1933 185.873 39.9333 186.74 39.8C186.887 39.7733 187.073 39.76 187.3 39.76C187.527 39.7467 187.76 39.7533 188 39.78C188.24 39.7933 188.453 39.82 188.64 39.86C188.84 39.8867 188.987 39.9333 189.08 40C189.4 40.16 189.653 40.3333 189.84 40.52C190.027 40.7067 190.187 40.92 190.32 41.16C190.387 41.3067 190.427 41.42 190.44 41.5C190.467 41.5667 190.467 41.6333 190.44 41.7C190.413 41.7667 190.36 41.8667 190.28 42C190.213 42.08 190.1 42.1733 189.94 42.28C189.793 42.3867 189.62 42.4933 189.42 42.6C189.233 42.7067 189.033 42.8067 188.82 42.9C188.62 42.98 188.433 43.0333 188.26 43.06C188.14 43.1133 188.067 43.14 188.04 43.14C188.027 43.14 188.02 43.1133 188.02 43.06C188.06 42.98 188.067 42.92 188.04 42.88C188.027 42.84 188.02 42.82 188.02 42.82C187.847 42.82 187.807 42.7467 187.9 42.6C188.007 42.4533 188.187 42.2267 188.44 41.92C188.68 41.6533 188.833 41.4733 188.9 41.38C188.98 41.2733 188.987 41.1867 188.92 41.12C188.84 41.0667 188.68 41.0267 188.44 41C188.2 40.9733 187.94 40.9667 187.66 40.98C187.393 40.98 187.153 41 186.94 41.04C186.273 41.24 185.687 41.5267 185.18 41.9C184.687 42.2733 184.387 42.6867 184.28 43.14C184.187 43.34 184.14 43.52 184.14 43.68C184.153 43.84 184.213 44.0933 184.32 44.44C184.347 44.7733 184.373 45.0333 184.4 45.22C184.44 45.4067 184.46 45.5133 184.46 45.54C184.46 45.5933 184.473 45.6733 184.5 45.78C184.527 45.8733 184.547 46.0467 184.56 46.3C184.587 46.3933 184.653 46.52 184.76 46.68C184.867 46.8267 185.047 46.9933 185.3 47.18C185.327 47.4733 185.373 47.7267 185.44 47.94C185.52 48.14 185.567 48.3333 185.58 48.52C185.847 49.0533 186.047 49.5867 186.18 50.12C186.327 50.6533 186.413 51.0933 186.44 51.44C186.467 51.7867 186.433 51.96 186.34 51.96C186.327 51.96 186.32 51.98 186.32 52.02C186.32 52.06 186.327 52.08 186.34 52.08C186.34 52.16 186.293 52.26 186.2 52.38C186.107 52.5 185.993 52.6333 185.86 52.78C185.727 52.9133 185.593 53.0333 185.46 53.14C185.34 53.26 185.24 53.3533 185.16 53.42ZM192.447 47.76C192.193 47.8533 191.98 47.9 191.807 47.9C191.647 47.8867 191.467 47.8067 191.267 47.66C191.013 47.42 190.927 47.18 191.007 46.94C191.1 46.6867 191.32 46.44 191.667 46.2C191.907 46.0533 192.08 45.9733 192.187 45.96C192.307 45.9467 192.487 45.9933 192.727 46.1C193.127 46.3533 193.3 46.6333 193.247 46.94C193.207 47.2467 192.94 47.52 192.447 47.76ZM191.047 51.96C190.793 52.0533 190.58 52.1 190.407 52.1C190.247 52.0867 190.067 52.0067 189.867 51.86C189.613 51.62 189.527 51.38 189.607 51.14C189.7 50.8867 189.92 50.64 190.267 50.4C190.507 50.2533 190.68 50.1733 190.787 50.16C190.907 50.1467 191.087 50.1933 191.327 50.3C191.727 50.5533 191.9 50.8333 191.847 51.14C191.807 51.4467 191.54 51.72 191.047 51.96ZM197.904 52.256C197.376 52.4 196.936 52.456 196.584 52.424C196.232 52.376 195.888 52.192 195.552 51.872C195.328 51.696 195.16 51.528 195.048 51.368C194.936 51.208 194.856 50.968 194.808 50.648C194.728 50.408 194.68 50.216 194.664 50.072C194.648 49.928 194.656 49.752 194.688 49.544C194.736 49.336 194.8 49.016 194.88 48.584C195.008 48.008 195.12 47.56 195.216 47.24C195.312 46.904 195.504 46.536 195.792 46.136C195.92 45.8 196.064 45.464 196.224 45.128C196.4 44.776 196.528 44.552 196.608 44.456C196.688 44.344 196.808 44.176 196.968 43.952C197.128 43.728 197.296 43.52 197.472 43.328C197.632 43.12 197.776 42.928 197.904 42.752C198.048 42.56 198.12 42.464 198.12 42.464C198.2 42.416 198.272 42.368 198.336 42.32C198.416 42.272 198.496 42.192 198.576 42.08C198.704 41.936 198.88 41.768 199.104 41.576C199.344 41.384 199.608 41.2 199.896 41.024C200.2 40.848 200.496 40.696 200.784 40.568C201.088 40.44 201.368 40.36 201.624 40.328C202.136 40.152 202.376 40.16 202.344 40.352C202.344 40.352 202.368 40.376 202.416 40.424C202.464 40.472 202.552 40.512 202.68 40.544C202.744 40.56 202.792 40.616 202.824 40.712C202.872 40.792 202.92 40.872 202.968 40.952C203 41.08 202.992 41.192 202.944 41.288C202.912 41.384 202.784 41.536 202.56 41.744C202.336 41.904 202.176 41.992 202.08 42.008C202 42.024 201.928 42 201.864 41.936C201.88 41.872 201.848 41.832 201.768 41.816C201.688 41.784 201.648 41.768 201.648 41.768C201.552 41.736 201.344 41.808 201.024 41.984C200.704 42.16 200.36 42.384 199.992 42.656C199.64 42.928 199.344 43.192 199.104 43.448C198.96 43.576 198.832 43.704 198.72 43.832C198.608 43.96 198.536 44.056 198.504 44.12C198.296 44.328 198.112 44.536 197.952 44.744C197.792 44.936 197.712 45.032 197.712 45.032C197.76 45.128 197.872 45.152 198.048 45.104C198.24 45.056 198.344 45 198.36 44.936C198.36 44.872 198.536 44.792 198.888 44.696C199.256 44.584 199.624 44.512 199.992 44.48C200.136 44.416 200.328 44.408 200.568 44.456C200.824 44.504 201.032 44.544 201.192 44.576C201.544 44.64 201.784 44.704 201.912 44.768C202.04 44.832 202.2 44.984 202.392 45.224C202.712 45.528 202.928 45.832 203.04 46.136C203.168 46.424 203.224 46.776 203.208 47.192C203.208 47.448 203.184 47.672 203.136 47.864C203.088 48.056 202.976 48.256 202.8 48.464C202.672 48.672 202.504 48.92 202.296 49.208C202.088 49.48 201.88 49.728 201.672 49.952C201.48 50.176 201.312 50.336 201.168 50.432C201.104 50.464 201.04 50.504 200.976 50.552C200.928 50.584 200.904 50.6 200.904 50.6C200.888 50.696 200.768 50.824 200.544 50.984C200.336 51.128 200.072 51.288 199.752 51.464C199.432 51.64 199.104 51.8 198.768 51.944C198.448 52.088 198.16 52.192 197.904 52.256ZM196.296 51.08C196.584 51.144 196.808 51.176 196.968 51.176C197.128 51.16 197.408 51.072 197.808 50.912C197.936 50.88 198.056 50.848 198.168 50.816C198.28 50.784 198.368 50.776 198.432 50.792C198.432 50.792 198.544 50.72 198.768 50.576C198.992 50.416 199.256 50.248 199.56 50.072C200.408 49.528 201.064 48.928 201.528 48.272C201.992 47.6 202.184 47.048 202.104 46.616C202.12 46.488 202.096 46.368 202.032 46.256C201.984 46.128 201.968 46.032 201.984 45.968C201.936 45.968 201.856 45.952 201.744 45.92C201.632 45.888 201.488 45.856 201.312 45.824C201.12 45.776 200.928 45.76 200.736 45.776C200.56 45.792 200.288 45.84 199.92 45.92C199.568 45.984 199.024 46.104 198.288 46.28C198.176 46.312 198.048 46.368 197.904 46.448C197.76 46.512 197.616 46.56 197.472 46.592C197.408 46.64 197.312 46.704 197.184 46.784C197.056 46.848 196.936 46.896 196.824 46.928C196.632 46.944 196.472 47.096 196.344 47.384C196.216 47.672 196.064 48.216 195.888 49.016C195.776 49.56 195.712 49.928 195.696 50.12C195.68 50.312 195.712 50.472 195.792 50.6C195.824 50.792 195.888 50.912 195.984 50.96C196.08 51.008 196.184 51.048 196.296 51.08ZM209.356 52.496C209.244 52.496 209.068 52.448 208.828 52.352C208.604 52.24 208.364 52.112 208.108 51.968C207.852 51.808 207.644 51.656 207.484 51.512C207.132 51.176 206.836 50.768 206.596 50.288C206.356 49.808 206.188 49.296 206.092 48.752C205.996 48.192 205.988 47.656 206.068 47.144C206.244 46.12 206.628 45.112 207.22 44.12C207.812 43.112 208.492 42.28 209.26 41.624C209.676 41.256 210.052 40.976 210.388 40.784C210.724 40.576 211.132 40.416 211.612 40.304C211.788 40.256 211.98 40.232 212.188 40.232C212.396 40.216 212.556 40.208 212.668 40.208C212.988 40.208 213.308 40.272 213.628 40.4C213.948 40.528 214.22 40.688 214.444 40.88C214.668 41.056 214.78 41.224 214.78 41.384C214.78 41.496 214.772 41.584 214.756 41.648C214.74 41.696 214.668 41.688 214.54 41.624H214.3L214.54 42.32C214.604 42.448 214.66 42.624 214.708 42.848C214.756 43.056 214.78 43.248 214.78 43.424C214.78 43.568 214.756 43.8 214.708 44.12C214.66 44.424 214.596 44.752 214.516 45.104C214.436 45.456 214.356 45.784 214.276 46.088C214.196 46.392 214.124 46.616 214.06 46.76C214.012 46.856 213.98 46.952 213.964 47.048C213.964 47.128 213.964 47.2 213.964 47.264C213.9 47.376 213.796 47.592 213.652 47.912C213.524 48.232 213.428 48.456 213.364 48.584C213.3 48.648 213.244 48.704 213.196 48.752C213.164 48.8 213.18 48.856 213.244 48.92C213.244 48.952 213.204 49.056 213.124 49.232C213.044 49.392 212.956 49.544 212.86 49.688C212.78 49.832 212.716 49.904 212.668 49.904C212.668 49.904 212.644 49.912 212.596 49.928C212.564 49.928 212.548 49.952 212.548 50C212.548 50.064 212.444 50.232 212.236 50.504C212.028 50.76 211.78 51.032 211.492 51.32C211.332 51.48 211.108 51.656 210.82 51.848C210.548 52.024 210.276 52.176 210.004 52.304C209.732 52.432 209.516 52.496 209.356 52.496ZM209.284 50.984C209.46 50.984 209.628 50.96 209.788 50.912C209.948 50.848 210.084 50.76 210.196 50.648C210.484 50.456 210.82 50.144 211.204 49.712C211.588 49.264 211.868 48.832 212.044 48.416C212.22 48.176 212.356 47.928 212.452 47.672C212.564 47.4 212.732 46.944 212.956 46.304C213.084 46.128 213.172 45.912 213.22 45.656C213.268 45.4 213.292 45.184 213.292 45.008C213.292 44.832 213.292 44.592 213.292 44.288C213.308 43.984 213.348 43.728 213.412 43.52C213.412 43.104 213.404 42.832 213.388 42.704C213.372 42.56 213.308 42.424 213.196 42.296C213.132 42.248 213.044 42.2 212.932 42.152C212.836 42.104 212.732 42.08 212.62 42.08C212.508 42.08 212.3 42.144 211.996 42.272C211.692 42.384 211.476 42.48 211.348 42.56C211.236 42.624 211.108 42.632 210.964 42.584C210.836 42.536 210.772 42.472 210.772 42.392C210.772 42.168 210.628 42.152 210.34 42.344C210.052 42.52 209.732 42.824 209.38 43.256C209.092 43.544 208.844 43.84 208.636 44.144C208.444 44.432 208.348 44.608 208.348 44.672C208.348 44.736 208.324 44.816 208.276 44.912C208.228 45.008 208.18 45.12 208.132 45.248C208.052 45.36 207.956 45.544 207.844 45.8C207.732 46.056 207.62 46.312 207.508 46.568C207.412 46.808 207.348 46.992 207.316 47.12C207.316 47.184 207.316 47.36 207.316 47.648C207.316 47.92 207.316 48.176 207.316 48.416C207.316 48.688 207.324 48.92 207.34 49.112C207.372 49.304 207.412 49.472 207.46 49.616C207.508 49.744 207.572 49.888 207.652 50.048C207.716 50.16 207.812 50.296 207.94 50.456C208.084 50.6 208.18 50.704 208.228 50.768C208.404 50.928 208.548 51.024 208.66 51.056C208.772 51.072 208.98 51.048 209.284 50.984Z" fill="white"/>
<path fill-rule="evenodd" clip-rule="evenodd" d="M0.598147 0.617493C0.39142 0.814608 0.383623 1.14199 0.580738 1.34872C12.8383 14.2042 32.907 23.2534 57.33 23.2534C57.6156 23.2534 57.8472 23.0218 57.8472 22.7362C57.8472 22.4505 57.6156 22.219 57.33 22.219C33.1567 22.219 13.3699 13.2628 1.32938 0.634904C1.13226 0.428174 0.804879 0.420379 0.598147 0.617493Z" fill="white"/>
<path fill-rule="evenodd" clip-rule="evenodd" d="M1.04377 1.034C1.04423 1.03406 1.04588 1.03429 1.04898 1.03555C10.6064 4.92563 19.4854 3.2682 22.8588 1.87915C23.1229 1.77039 23.2489 1.46811 23.1401 1.20398C23.0313 0.939856 22.7291 0.813905 22.4649 0.922663C19.3078 2.22267 10.7123 3.85191 1.43893 0.0774695C0.731863 -0.210324 -0.075678 0.339323 0.00573046 1.1382C0.458737 5.5837 1.66684 11.4733 9.21883 20.9832C9.39647 21.2069 9.7218 21.2443 9.94549 21.0666C10.1692 20.889 10.2065 20.5636 10.0289 20.34C2.60332 10.9892 1.46862 5.28752 1.03516 1.03684C1.03784 1.03506 1.04047 1.03424 1.04204 1.03402C1.0427 1.03393 1.04321 1.03393 1.04377 1.034Z" fill="white"/>
<path fill-rule="evenodd" clip-rule="evenodd" d="M233.435 68.3149C186.368 66.2827 136.638 74.5831 117.67 78.9849C117.381 79.052 117.088 78.8891 117.016 78.6213C116.943 78.3534 117.119 78.0819 117.408 78.0148C136.442 73.5977 186.282 65.2779 233.485 67.316C233.783 67.3288 234.013 67.5628 233.999 67.8387C233.985 68.1145 233.733 68.3277 233.435 68.3149Z" fill="#91FF6A"/>
</svg>
