<svg width="261" height="142" viewBox="0 0 261 142" fill="none" xmlns="http://www.w3.org/2000/svg">
<path d="M10.64 61.6C10.16 61.4667 9.77333 61.3467 9.48 61.24C9.18667 61.16 9.04 61.12 9.04 61.12C9.09333 60.9867 9.06667 60.8667 8.96 60.76C8.88 60.6533 8.69333 60.5867 8.4 60.56C8 60.2933 7.58667 59.92 7.16 59.44C6.73333 58.96 6.36 58.4667 6.04 57.96C5.72 57.4533 5.50667 57.08 5.4 56.84C5.21333 56.44 5.22667 56.2 5.44 56.12C5.65333 56.0133 5.90667 55.8933 6.2 55.76C6.49333 55.5467 6.8 55.3867 7.12 55.28C7.46667 55.1733 7.74667 55.3467 7.96 55.8C8.30667 56.4133 8.84 56.9333 9.56 57.36C10.3067 57.7867 11.1467 58.04 12.08 58.12C13.04 58.2 14 58.04 14.96 57.64C15.6 57.3467 15.9467 56.9467 16 56.44C16.0533 55.9067 15.8533 55.2933 15.4 54.6C15.32 54.3867 15.2 54.2133 15.04 54.08C14.9067 53.9467 14.6933 53.7733 14.4 53.56C14.1333 53.3467 13.7467 53 13.24 52.52C12.84 52.3333 12.4667 52.16 12.12 52C11.8 51.84 11.4533 51.6667 11.08 51.48C10.6533 51.2667 10.1733 50.9733 9.64 50.6C9.10667 50.2 8.61333 49.7733 8.16 49.32C7.70667 48.84 7.36 48.3867 7.12 47.96C6.69333 47.56 6.42667 47.0133 6.32 46.32C6.21333 45.6 6.22667 44.84 6.36 44.04C6.52 43.24 6.77333 42.52 7.12 41.88C7.28 41.5067 7.57333 41.0267 8 40.44C8.42667 39.8267 8.90667 39.2 9.44 38.56C9.97333 37.92 10.48 37.3467 10.96 36.84C11.4667 36.3067 11.8667 35.9467 12.16 35.76C12.3733 35.5467 12.6 35.3333 12.84 35.12C13.08 34.88 13.2 34.76 13.2 34.76C13.2267 34.6267 13.2667 34.56 13.32 34.56C13.4 34.56 13.44 34.56 13.44 34.56C13.5733 34.48 13.8667 34.3467 14.32 34.16C14.7733 33.9733 15.2667 33.6267 15.8 33.12C17.5867 32.2667 19.1067 31.6933 20.36 31.4C21.6133 31.08 22.6 30.92 23.32 30.92C23.9867 30.9467 24.64 31.1333 25.28 31.48C25.92 31.8 26.4667 32.2133 26.92 32.72C27.4 33.2267 27.68 33.8 27.76 34.44C27.9467 35.08 27.8533 35.8533 27.48 36.76C27.1333 37.64 26.64 38.48 26 39.28C25.3867 40.0533 24.7467 40.6267 24.08 41C23.3333 41.32 22.6933 41.36 22.16 41.12C21.6533 40.88 21.4133 40.5067 21.44 40C21.44 39.7867 21.5067 39.5333 21.64 39.24C21.8 38.9467 22.2133 38.4267 22.88 37.68C23.7333 36.4267 24.1867 35.5333 24.24 35C24.2933 34.4667 24.0533 34.16 23.52 34.08C23.36 34.0267 23.0533 34.04 22.6 34.12C22.1467 34.2 21.6533 34.3067 21.12 34.44C20.6133 34.5467 20.16 34.6667 19.76 34.8C19.3867 34.9333 19.2 35.0267 19.2 35.08C19.2 35.08 19.2 35.12 19.2 35.2C19.2 35.28 19.1467 35.3067 19.04 35.28C18.9867 35.28 18.8 35.3733 18.48 35.56C18.1867 35.72 17.8267 35.9333 17.4 36.2C16.9733 36.4667 16.5467 36.7467 16.12 37.04C15.72 37.3067 15.3733 37.5467 15.08 37.76C14.7867 37.9733 14.6267 38.1067 14.6 38.16C14.5467 38.4533 14.24 38.72 13.68 38.96C13.1467 39.28 12.68 39.7333 12.28 40.32C11.88 40.9067 11.4133 41.6533 10.88 42.56C10.4267 43.1733 10.1067 43.84 9.92 44.56C9.73333 45.2533 9.73333 45.8133 9.92 46.24C10.0533 46.6667 10.4133 47.0933 11 47.52C11.6133 47.92 12.44 48.4267 13.48 49.04C14.3867 49.5467 15.24 50.08 16.04 50.64C16.84 51.2 17.52 51.7467 18.08 52.28C18.64 52.7867 19 53.2133 19.16 53.56C19.48 54.0133 19.6667 54.5333 19.72 55.12C19.8 55.7067 19.8 56.28 19.72 56.84C19.6667 57.3733 19.5867 57.8133 19.48 58.16C19.2933 58.5867 19 59.04 18.6 59.52C18.2267 60 17.88 60.2267 17.56 60.2C17.2667 60.28 17.04 60.3733 16.88 60.48C16.7467 60.5867 16.5867 60.68 16.4 60.76C16.2133 60.8667 15.7733 60.9867 15.08 61.12C14.3867 61.28 13.6267 61.4 12.8 61.48C11.9733 61.5867 11.2533 61.6267 10.64 61.6ZM31.4753 60.68C31.3686 60.7867 31.2486 60.8267 31.1153 60.8C30.982 60.8 30.7686 60.7333 30.4753 60.6C29.9686 60.4667 29.5153 60.1733 29.1153 59.72C28.742 59.2667 28.6886 58.7467 28.9553 58.16C29.062 57.9733 29.1953 57.5733 29.3553 56.96C29.542 56.32 29.742 55.5867 29.9553 54.76C30.1686 53.9333 30.382 53.1067 30.5953 52.28C30.8086 51.4533 30.9953 50.7333 31.1553 50.12C31.3153 49.48 31.422 49.0533 31.4753 48.84C31.4753 48.6267 31.5286 48.2 31.6353 47.56C31.7686 46.92 31.8886 46.2 31.9953 45.4C32.2886 44.84 32.4886 44.2267 32.5953 43.56C32.7286 42.8933 32.822 42.4133 32.8753 42.12C32.982 41.6933 33.102 41.24 33.2353 40.76C33.3953 40.28 33.5286 39.8 33.6353 39.32C33.742 38.8933 33.8486 38.4533 33.9553 38C34.0886 37.5467 34.1553 37.2533 34.1553 37.12V36.48H32.6753C32.2753 36.5067 31.822 36.5067 31.3153 36.48C30.8086 36.4533 30.2486 36.44 29.6353 36.44C28.382 36.3867 27.542 36.2667 27.1153 36.08C26.7153 35.8667 26.4886 35.4667 26.4353 34.88C26.382 34.56 26.4486 34.28 26.6353 34.04C26.822 33.7733 27.262 33.56 27.9553 33.4C28.6486 33.24 29.7153 33.1867 31.1553 33.24C32.2753 33.1867 33.1553 33.1867 33.7953 33.24C34.4353 33.2667 34.8086 33.28 34.9153 33.28C35.022 33.1733 35.0886 33.0667 35.1153 32.96C35.142 32.8533 35.182 32.7467 35.2353 32.64C35.2353 32.5067 35.2486 32.36 35.2753 32.2C35.3286 32.0133 35.462 31.88 35.6753 31.8C35.8886 31.4 36.2886 31.24 36.8753 31.32C37.4886 31.3733 37.942 31.6133 38.2353 32.04C38.342 32.28 38.3686 32.5333 38.3153 32.8C38.2886 33.0667 38.3686 33.3067 38.5553 33.52C38.662 33.4133 38.942 33.3467 39.3953 33.32C39.8486 33.2933 40.3286 33.2667 40.8353 33.24C41.4486 33.24 41.9953 33.2267 42.4753 33.2C42.9553 33.1467 43.2886 33.12 43.4753 33.12C43.7153 32.9867 44.022 32.92 44.3953 32.92C44.7953 32.92 45.1953 32.9467 45.5953 33C46.2086 33 46.6353 33.16 46.8753 33.48C47.142 33.7733 47.3153 33.9867 47.3953 34.12C47.3953 34.2267 47.3953 34.3333 47.3953 34.44C47.422 34.5467 47.4886 34.6533 47.5953 34.76C47.702 34.8667 47.7553 34.9467 47.7553 35C47.7553 35.0267 47.702 35.1467 47.5953 35.36C47.4886 35.4667 47.302 35.56 47.0353 35.64C46.7686 35.6933 46.4753 35.72 46.1553 35.72C45.9686 35.72 45.6486 35.7467 45.1953 35.8C44.742 35.8267 44.3553 35.84 44.0353 35.84C43.422 35.9467 42.822 36.04 42.2353 36.12C41.6486 36.1733 40.8886 36.2267 39.9553 36.28C39.5553 36.28 39.182 36.3067 38.8353 36.36C38.4886 36.3867 38.3153 36.4667 38.3153 36.6C38.2086 36.6 38.062 36.88 37.8753 37.44C37.7153 38 37.5553 38.5867 37.3953 39.2C37.2353 39.8933 37.062 40.4933 36.8753 41C36.7153 41.5067 36.582 41.84 36.4753 42C36.582 42.1067 36.622 42.24 36.5953 42.4C36.5953 42.56 36.5153 42.84 36.3553 43.24C36.2486 43.6133 36.142 43.9067 36.0353 44.12C35.9553 44.3333 35.9153 44.5467 35.9153 44.76C35.9153 44.76 35.8486 44.9733 35.7153 45.4C35.6086 45.8 35.502 46.3067 35.3953 46.92C35.342 47.5067 35.262 48 35.1553 48.4C35.0753 48.8 34.982 49.0533 34.8753 49.16C34.8753 49.16 34.822 49.2533 34.7153 49.44C34.6086 49.6 34.5553 49.7867 34.5553 50C34.5553 50.24 34.502 50.64 34.3953 51.2C34.3153 51.7333 34.222 52.24 34.1153 52.72C34.0086 53.2 33.9153 53.4667 33.8353 53.52C34.102 53.5733 34.062 53.9333 33.7153 54.6C33.7153 54.8667 33.6753 55.1333 33.5953 55.4C33.5153 55.6667 33.4753 55.8533 33.4753 55.96C33.3153 56.4667 33.0886 57.08 32.7953 57.8C32.502 58.52 32.222 59.16 31.9553 59.72C31.7153 60.28 31.5553 60.6 31.4753 60.68ZM42.2756 60.64C42.169 60.64 42.0223 60.4933 41.8356 60.2C41.6756 59.9067 41.5956 59.7067 41.5956 59.6C41.5956 59.4667 41.569 59.4 41.5156 59.4C41.3023 59.4 41.1823 59.2 41.1556 58.8C41.129 58.4 41.2223 58.1067 41.4356 57.92C41.489 57.92 41.5156 57.7467 41.5156 57.4C41.5156 57.24 41.529 57.1067 41.5556 57C41.609 56.8933 41.6223 56.7867 41.5956 56.68C41.5956 56.6 41.6223 56.48 41.6756 56.32C41.7556 56.16 41.7956 56.0267 41.7956 55.92C41.7956 55.8133 41.849 55.6533 41.9556 55.44C42.089 55.2267 42.1956 55.0267 42.2756 54.84C42.3556 54.7067 42.449 54.48 42.5556 54.16C42.6623 53.84 42.769 53.5467 42.8756 53.28C42.8756 53.2267 42.9823 53 43.1956 52.6C43.4356 52.2 43.6223 51.76 43.7556 51.28C43.8623 50.88 43.9556 50.4667 44.0356 50.04C44.1156 49.5867 44.1556 49.3333 44.1556 49.28C44.1556 49.12 44.1556 48.9867 44.1556 48.88C44.1556 48.7733 44.1556 48.72 44.1556 48.72C44.369 48.72 44.4756 48.68 44.4756 48.6C44.5823 48.4933 44.6356 48.44 44.6356 48.44C44.6623 48.4133 44.6756 48.4 44.6756 48.4C44.6756 48.4 44.689 48.3333 44.7156 48.2C44.7423 48.04 44.849 47.9067 45.0356 47.8C45.2756 47.5067 45.409 47.3067 45.4356 47.2C45.489 47.0933 45.5156 47 45.5156 46.92C45.5156 46.92 45.689 46.4533 46.0356 45.52C46.3823 44.56 46.9423 43.1867 47.7156 41.4C48.169 40.68 48.5023 40.0267 48.7156 39.44C48.929 38.8533 49.1023 38.4667 49.2356 38.28C49.449 37.7733 49.5556 37.36 49.5556 37.04C49.5556 37.04 49.5423 37.04 49.5156 37.04C49.5156 37.04 49.489 37.04 49.4356 37.04C49.1956 37.1733 48.9556 37.08 48.7156 36.76C48.4756 36.44 48.1956 36.1467 47.8756 35.88C47.689 35.6667 47.649 35.44 47.7556 35.2C47.8623 34.9333 47.9156 34.7867 47.9156 34.76C47.9156 34.68 48.129 34.5333 48.5556 34.32C48.9823 34.08 49.4623 33.8533 49.9956 33.64C50.529 33.4 50.9556 33.24 51.2756 33.16C51.5956 33 52.0223 32.92 52.5556 32.92C53.1156 32.92 53.6756 32.96 54.2356 33.04C54.7956 33.12 55.249 33.2 55.5956 33.28C56.4756 33.4667 57.3823 33.8667 58.3156 34.48C59.249 35.0933 59.929 35.8533 60.3556 36.76C60.569 37.1333 60.729 37.64 60.8356 38.28C60.969 38.92 61.0356 39.6 61.0356 40.32C61.0623 41.0133 60.9956 41.6267 60.8356 42.16C60.649 42.6667 60.329 43.2667 59.8756 43.96C59.4223 44.6267 58.929 45.2933 58.3956 45.96C57.8623 46.6 57.369 47.1333 56.9156 47.56C56.4623 47.9867 56.1423 48.2 55.9556 48.2C55.769 48.2 55.6623 48.2 55.6356 48.2C55.609 48.2 55.5956 48.2 55.5956 48.2C55.5956 48.2267 55.4756 48.32 55.2356 48.48C55.0223 48.6133 54.7556 48.7733 54.4356 48.96C54.1156 49.12 53.7956 49.2667 53.4756 49.4C53.1556 49.5333 52.9156 49.6133 52.7556 49.64C52.569 49.64 52.4223 49.6533 52.3156 49.68C52.209 49.7067 52.1156 49.8 52.0356 49.96C51.8756 50.2267 51.7823 50.4533 51.7556 50.64C51.7556 50.8 51.7823 51.1067 51.8356 51.56C51.969 51.88 52.1556 52.28 52.3956 52.76C52.6356 53.2133 52.8623 53.6267 53.0756 54C53.3156 54.3467 53.4623 54.52 53.5156 54.52C53.6223 54.52 53.769 54.5733 53.9556 54.68C54.1423 54.7867 54.329 54.96 54.5156 55.2C55.049 55.5467 55.489 55.88 55.8356 56.2C56.1823 56.4933 56.3423 56.5467 56.3156 56.36C56.3156 56.28 56.4356 56.1867 56.6756 56.08C56.9156 55.9733 57.1823 55.9067 57.4756 55.88C57.929 55.88 58.249 55.9733 58.4356 56.16C58.649 56.32 58.769 56.4 58.7956 56.4C58.7956 56.4 58.7956 56.48 58.7956 56.64C58.8223 56.8 58.849 56.9867 58.8756 57.2C58.8756 57.52 58.7423 57.8933 58.4756 58.32C58.209 58.7467 57.889 59.12 57.5156 59.44C57.169 59.7867 56.8223 59.9733 56.4756 60C55.569 60.1067 54.6223 59.8667 53.6356 59.28C52.649 58.6933 51.7156 57.8533 50.8356 56.76C49.9556 55.64 49.2223 54.3733 48.6356 52.96C48.449 52.3467 48.3556 51.8933 48.3556 51.6C48.3823 51.28 48.1956 51.1467 47.7956 51.2C47.4756 51.2 47.3023 51.2533 47.2756 51.36C47.249 51.44 47.129 51.7467 46.9156 52.28C46.889 52.4933 46.8623 52.6933 46.8356 52.88C46.8356 53.04 46.769 53.12 46.6356 53.12C46.6356 53.12 46.569 53.28 46.4356 53.6C46.3023 53.8933 46.1423 54.2267 45.9556 54.6C45.9023 54.9467 45.809 55.2667 45.6756 55.56C45.569 55.8267 45.5156 56.0133 45.5156 56.12C45.5156 56.4133 45.5023 56.6133 45.4756 56.72C45.449 56.8267 45.369 56.88 45.2356 56.88C45.2623 56.9867 45.249 57.0933 45.1956 57.2C45.1423 57.3067 45.1156 57.44 45.1156 57.6C45.1156 57.6267 45.1023 57.7467 45.0756 57.96C45.0756 58.1467 45.049 58.3733 44.9956 58.64C44.889 58.9067 44.769 59.0933 44.6356 59.2C44.529 59.3333 44.489 59.4667 44.5156 59.6C44.5156 59.7333 44.369 59.8933 44.0756 60.08C43.809 60.2667 43.489 60.4133 43.1156 60.52C42.769 60.6533 42.489 60.6933 42.2756 60.64ZM49.4356 46.84C49.6223 47.4533 50.1556 47.4267 51.0356 46.76C51.9423 46.44 52.569 46.1733 52.9156 45.96C53.289 45.72 53.609 45.5067 53.8756 45.32C54.1156 45.1867 54.3156 45.04 54.4756 44.88C54.6356 44.6933 54.7156 44.6 54.7156 44.6C54.9023 44.5733 55.1423 44.4267 55.4356 44.16C55.7556 43.8933 56.0756 43.5467 56.3956 43.12C56.7156 42.6933 56.9823 42.24 57.1956 41.76C57.4356 41.3333 57.569 41.0267 57.5956 40.84C57.649 40.6533 57.6623 40.4667 57.6356 40.28C57.609 40.0933 57.5956 39.8133 57.5956 39.44C57.4623 38.96 57.329 38.5733 57.1956 38.28C57.089 37.96 56.9023 37.6933 56.6356 37.48C56.3956 37.24 55.9823 37.0133 55.3956 36.8C54.9956 36.5867 54.5156 36.4667 53.9556 36.44C53.3956 36.4133 52.929 36.4533 52.5556 36.56C52.209 36.64 52.1023 36.7867 52.2356 37C52.3423 37.4533 52.4756 37.8933 52.6356 38.32C52.7956 38.72 52.7556 39.1067 52.5156 39.48C52.5156 39.72 52.329 40.2533 51.9556 41.08C51.5823 41.9067 51.2223 42.7867 50.8756 43.72C50.4223 44.76 50.0623 45.52 49.7956 46C49.5556 46.48 49.4356 46.76 49.4356 46.84ZM60.8775 60.32C60.3975 60.0533 60.1308 59.76 60.0775 59.44C60.0508 59.12 60.2375 58.56 60.6375 57.76C61.0375 56.96 61.6642 55.72 62.5175 54.04C63.1575 52.84 63.5842 51.9067 63.7975 51.24C64.0375 50.5467 64.1708 50.0533 64.1975 49.76C64.2242 49.4667 64.2375 49.28 64.2375 49.2C64.1842 48.96 64.2108 48.7733 64.3175 48.64C64.4242 48.48 64.5975 48.3467 64.8375 48.24C64.9708 48.1067 65.2775 47.8667 65.7575 47.52C66.2375 47.1733 66.6108 46.76 66.8775 46.28C67.1175 45.72 67.3842 45.1467 67.6775 44.56C67.9975 43.9733 68.4108 43.24 68.9175 42.36C69.4242 41.4533 70.1042 40.28 70.9575 38.84C71.4908 37.9067 72.1175 36.8533 72.8375 35.68C73.5842 34.5067 74.3175 33.44 75.0375 32.48C75.3308 32.1067 75.6375 31.8133 75.9575 31.6C76.2775 31.3867 76.5575 31.28 76.7975 31.28C77.3842 31.28 77.9708 31.44 78.5575 31.76C79.1442 32.0533 79.6642 32.4267 80.1175 32.88C80.5708 33.3333 80.8775 33.76 81.0375 34.16C81.1708 34.3733 81.2242 34.8267 81.1975 35.52C81.1708 36.2133 81.1175 37.0533 81.0375 38.04C80.9575 39.0267 80.8642 40.08 80.7575 41.2C80.6775 42.2933 80.5575 43.5867 80.3975 45.08C80.2375 46.5733 80.0775 48.1333 79.9175 49.76C79.7842 51.3867 79.6775 52.96 79.5975 54.48C79.5175 55.9733 79.5175 57.28 79.5975 58.4C79.6242 58.64 79.6242 58.8667 79.5975 59.08C79.5708 59.2933 79.5575 59.4667 79.5575 59.6C79.3975 59.76 79.0508 59.8267 78.5175 59.8C77.9842 59.8 77.4642 59.72 76.9575 59.56C76.4508 59.4 76.1708 59.2 76.1175 58.96C76.0375 58.88 75.9842 58.8133 75.9575 58.76C75.9308 58.7067 75.9308 58.4533 75.9575 58C75.9842 57.52 76.0242 56.6533 76.0775 55.4L76.2775 49.28L75.7575 49.32C75.5175 49.32 75.0775 49.3467 74.4375 49.4C73.8242 49.4533 73.1442 49.5333 72.3975 49.64C71.6775 49.72 71.0108 49.8133 70.3975 49.92C69.7842 50 69.3575 50.08 69.1175 50.16C68.8775 50.16 68.5842 50.32 68.2375 50.64C67.9175 50.96 67.6108 51.3733 67.3175 51.88C67.2108 52.2533 67.0108 52.6533 66.7175 53.08C66.4508 53.48 66.3175 53.7467 66.3175 53.88C66.1308 54.0133 65.9708 54.1733 65.8375 54.36C65.7308 54.5467 65.6775 54.64 65.6775 54.64C65.6775 54.8 65.5575 55.2 65.3175 55.84C65.0775 56.4533 64.7842 57.1467 64.4375 57.92C64.0908 58.6667 63.7308 59.32 63.3575 59.88L62.2775 61.4L60.8775 60.32ZM70.4375 46.56C70.4375 46.56 70.5842 46.5333 70.8775 46.48C71.1708 46.4267 71.5175 46.3733 71.9175 46.32C72.3442 46.24 72.7175 46.2 73.0375 46.2C73.6508 46.04 74.1575 45.92 74.5575 45.84C74.9842 45.76 75.3308 45.72 75.5975 45.72C75.8642 45.6933 76.0775 45.72 76.2375 45.8C76.3442 45.9333 76.4375 46.0133 76.5175 46.04C76.6242 46.0667 76.6775 46.08 76.6775 46.08C76.7042 46.0267 76.7575 45.7467 76.8375 45.24C76.9175 44.7333 77.0108 44.1067 77.1175 43.36C77.2242 42.6133 77.3308 41.84 77.4375 41.04C77.5442 40.2133 77.6375 39.4533 77.7175 38.76C77.7975 38.04 77.8508 37.48 77.8775 37.08C77.9042 36.5733 77.8908 36.12 77.8375 35.72C77.7842 35.2933 77.7575 35.08 77.7575 35.08C77.5975 35.08 77.2908 35.3733 76.8375 35.96C76.4108 36.52 75.9042 37.28 75.3175 38.24C74.7575 39.1733 74.1975 40.1867 73.6375 41.28C73.3708 41.7867 73.1175 42.1867 72.8775 42.48C72.6642 42.7733 72.4908 42.92 72.3575 42.92C72.3042 42.9733 72.1575 43.1867 71.9175 43.56C71.7042 43.9067 71.4642 44.3067 71.1975 44.76C70.9575 45.1867 70.7442 45.5867 70.5575 45.96C70.3975 46.3067 70.3575 46.5067 70.4375 46.56ZM88.81 48.64L87.41 46.88C86.8767 46.08 86.45 45.3333 86.13 44.64C85.81 43.9467 85.5833 43.0933 85.45 42.08C85.2633 41.44 85.1433 40.84 85.09 40.28C85.0367 39.72 85.01 39.08 85.01 38.36C85.0367 37.6133 85.0633 36.6933 85.09 35.6C85.1167 34.5867 85.2767 33.76 85.57 33.12C85.8633 32.4533 86.0633 32.0133 86.17 31.8C86.73 31.32 87.1833 31.2267 87.53 31.52C87.9033 31.8133 88.17 32.3067 88.33 33C88.5167 33.6933 88.5967 34.4267 88.57 35.2C88.65 38.0533 88.8233 40.2133 89.09 41.68C89.3833 43.1467 89.7433 44.0533 90.17 44.4C90.49 44.48 90.77 44.4533 91.01 44.32C91.25 44.16 91.5567 43.8667 91.93 43.44C92.33 42.9867 92.8767 42.4 93.57 41.68C94.3167 40.9067 95.0633 40.0933 95.81 39.24C96.5567 38.36 97.2633 37.52 97.93 36.72C98.6233 35.92 99.2367 35.2267 99.77 34.64C100.33 34.0533 100.77 33.6667 101.09 33.48C101.197 33.32 101.383 33.1867 101.65 33.08C101.917 32.9467 102.17 32.8533 102.41 32.8C102.677 32.72 102.81 32.68 102.81 32.68C103.023 32.7333 103.143 32.9067 103.17 33.2C103.197 33.4667 103.303 33.7333 103.49 34C103.543 34.1067 103.663 34.2667 103.85 34.48C104.037 34.6933 104.117 34.8667 104.09 35C104.09 35.08 103.97 35.2667 103.73 35.56C103.49 35.8267 103.237 36.0933 102.97 36.36C102.703 36.6267 102.503 36.8267 102.37 36.96C102.023 37.2533 101.477 37.7733 100.73 38.52C100.01 39.24 99.2633 40.0267 98.49 40.88C97.7167 41.7067 97.0633 42.4533 96.53 43.12C95.3567 44.48 94.3033 45.6533 93.37 46.64C92.4633 47.6267 91.9033 48.2133 91.69 48.4C91.6633 48.4533 91.49 48.4933 91.17 48.52C90.85 48.52 90.6233 48.6267 90.49 48.84L88.81 48.64ZM86.57 62.04C86.4633 62.0133 86.2367 61.8933 85.89 61.68C85.57 61.4667 85.2767 61.2667 85.01 61.08C84.8233 60.8667 84.7033 60.64 84.65 60.4C84.6233 60.16 84.6633 59.84 84.77 59.44C84.8767 59.04 85.0233 58.48 85.21 57.76C85.2367 57.1467 85.3567 56.4 85.57 55.52C85.81 54.64 86.09 53.9067 86.41 53.32C86.41 53.0267 86.4767 52.6267 86.61 52.12C86.7433 51.6133 86.9033 51.0933 87.09 50.56C87.3033 50 87.49 49.52 87.65 49.12L88.37 47.04L89.97 45.68L92.05 47.12C91.9433 47.28 91.85 47.4667 91.77 47.68C91.69 47.8933 91.5833 48.2533 91.45 48.76C91.3167 49.2667 91.1167 50.0533 90.85 51.12C90.6367 51.84 90.3967 52.6133 90.13 53.44C89.89 54.2667 89.6633 55.04 89.45 55.76C89.2367 56.48 89.05 57.0667 88.89 57.52C88.57 58.72 88.2767 59.6667 88.01 60.36C87.77 61.0533 87.53 61.52 87.29 61.76C87.0767 62.0267 86.8367 62.12 86.57 62.04Z" fill="white"/>
<path d="M6.848 103.792C6.528 103.664 6.19733 103.525 5.856 103.376C5.536 103.227 5.22667 103.003 4.928 102.704C4.65067 102.427 4.40533 102.032 4.192 101.52C3.97867 100.901 3.82933 100.293 3.744 99.696C3.68 99.0987 3.65867 98.4053 3.68 97.616C3.68 96.5067 3.75467 95.5467 3.904 94.736C4.07467 93.904 4.33067 93.0613 4.672 92.208C4.71467 92.144 4.78933 91.9627 4.896 91.664C5.024 91.344 5.16267 91.0027 5.312 90.64C5.48267 90.2773 5.61067 90 5.696 89.808C5.86667 89.4453 6.12267 88.9653 6.464 88.368C6.82667 87.7493 7.21067 87.152 7.616 86.576C8.23467 85.6587 8.74667 84.9333 9.152 84.4C9.55733 83.8667 9.94133 83.4187 10.304 83.056C10.6667 82.6933 11.072 82.352 11.52 82.032C11.9893 81.6907 12.5867 81.2747 13.312 80.784C13.7813 80.4427 14.2933 80.2613 14.848 80.24C15.424 80.2187 15.9573 80.3467 16.448 80.624C16.9387 80.88 17.3013 81.264 17.536 81.776C17.7707 82.224 17.888 82.768 17.888 83.408C17.888 84.0267 17.792 84.688 17.6 85.392C17.408 86.0747 17.1413 86.7253 16.8 87.344C16.4587 87.9627 16.064 88.4747 15.616 88.88C15.3387 89.136 15.0827 89.232 14.848 89.168C14.6347 89.104 14.3787 88.9333 14.08 88.656C13.888 88.2933 13.7813 88.08 13.76 88.016C13.76 87.952 13.8027 87.9093 13.888 87.888C14.016 87.7387 14.1867 87.4827 14.4 87.12C14.6133 86.7573 14.8267 86.3733 15.04 85.968C15.2533 85.5413 15.4027 85.2 15.488 84.944C15.6587 84.048 15.776 83.4187 15.84 83.056C15.904 82.672 15.84 82.384 15.648 82.192C15.5627 82.1067 15.4347 82.0747 15.264 82.096C15.1147 82.1173 14.8587 82.224 14.496 82.416C14.0053 82.6293 13.3653 83.1093 12.576 83.856C11.7867 84.5813 11.0613 85.392 10.4 86.288C9.54667 87.4187 8.832 88.4213 8.256 89.296C7.68 90.1707 7.24267 91.0667 6.944 91.984C6.90133 92.0693 6.82667 92.2293 6.72 92.464C6.63467 92.6987 6.592 92.816 6.592 92.816C6.61333 92.9013 6.58133 93.1147 6.496 93.456C6.41067 93.776 6.31467 94.0533 6.208 94.288C5.97333 95.2693 5.83467 96.2933 5.792 97.36C5.74933 98.4053 5.80267 99.3333 5.952 100.144C6.12267 100.955 6.368 101.52 6.688 101.84C6.96533 102.032 7.33867 102.096 7.808 102.032C8.29867 101.968 8.85333 101.819 9.472 101.584C10.0907 101.349 10.72 101.093 11.36 100.816C11.872 100.603 12.3413 100.368 12.768 100.112C13.1947 99.856 13.5147 99.632 13.728 99.44C13.8987 99.312 14.112 99.184 14.368 99.056C14.6453 98.9067 14.88 98.832 15.072 98.832C15.3707 98.7253 15.5413 98.6827 15.584 98.704C15.6267 98.7253 15.648 98.8213 15.648 98.992C15.648 99.2907 15.4773 99.6213 15.136 99.984C14.816 100.347 14.4 100.677 13.888 100.976C13.7173 101.147 13.4933 101.328 13.216 101.52C12.9387 101.712 12.6507 101.861 12.352 101.968C11.904 102.309 11.3493 102.64 10.688 102.96C10.0267 103.28 9.35467 103.525 8.672 103.696C8.01067 103.867 7.40267 103.899 6.848 103.792ZM20.2375 102.8C20.1308 102.8 20.0028 102.747 19.8535 102.64C19.7042 102.555 19.5655 102.437 19.4375 102.288C19.3308 102.139 19.2775 101.979 19.2775 101.808C19.2775 101.808 19.2668 101.744 19.2455 101.616C19.2455 101.467 19.2028 101.317 19.1175 101.168C19.1175 100.997 19.1175 100.805 19.1175 100.592C19.1388 100.357 19.1922 100.123 19.2775 99.888C19.2775 99.6533 19.3095 99.3973 19.3735 99.12C19.4375 98.8213 19.5122 98.5973 19.5975 98.448C19.5975 98.2133 19.6508 97.9147 19.7575 97.552C19.8855 97.168 19.9922 96.816 20.0775 96.496C20.3122 95.792 20.4828 95.28 20.5895 94.96C20.7175 94.64 20.8028 94.4053 20.8455 94.256C20.8882 94.0853 20.9095 93.9147 20.9095 93.744C20.9735 93.5733 21.0695 93.264 21.1975 92.816C21.3255 92.368 21.4535 91.9093 21.5815 91.44C21.7308 90.9493 21.8268 90.5973 21.8695 90.384C21.9548 90.2987 21.9975 90.224 21.9975 90.16C22.0188 90.0747 22.0295 89.9893 22.0295 89.904C22.0295 89.904 22.1042 89.6587 22.2535 89.168C22.4028 88.6773 22.5948 88.112 22.8295 87.472C23.2135 86.3413 23.4695 85.52 23.5975 85.008C23.7468 84.496 23.8108 84.1333 23.7895 83.92C23.7895 83.7067 23.7362 83.4933 23.6295 83.28C23.4802 83.0027 23.4802 82.7893 23.6295 82.64C23.7148 82.5547 23.7895 82.4587 23.8535 82.352C23.9175 82.224 23.9495 82.16 23.9495 82.16C23.9495 82.1173 24.0882 82.0427 24.3655 81.936C24.6428 81.8293 24.9842 81.712 25.3895 81.584C25.7948 81.4347 26.2002 81.296 26.6055 81.168C27.0322 81.04 27.3842 80.9333 27.6615 80.848C27.7255 80.848 27.8215 80.848 27.9495 80.848C28.0988 80.848 28.2588 80.848 28.4295 80.848C28.6215 80.848 28.8028 80.848 28.9735 80.848C29.5282 80.9333 30.0935 81.0933 30.6695 81.328C31.2668 81.5627 31.7682 81.8933 32.1735 82.32C32.4295 82.5547 32.6535 82.832 32.8455 83.152C33.0588 83.472 33.3255 83.9947 33.6455 84.72C33.6455 84.8053 33.6668 84.9867 33.7095 85.264C33.7735 85.52 33.8055 85.776 33.8055 86.032C33.8055 86.672 33.6455 87.344 33.3255 88.048C33.0055 88.752 32.5468 89.4667 31.9495 90.192C31.3522 90.896 30.6268 91.6 29.7735 92.304C28.8775 93.0293 27.9495 93.52 26.9895 93.776C26.0295 94.032 25.1762 94.0853 24.4295 93.936C24.2802 93.872 24.1415 93.744 24.0135 93.552C23.9068 93.36 23.8322 93.168 23.7895 92.976C23.7468 92.784 23.7575 92.656 23.8215 92.592C23.9922 92.5493 24.2482 92.5387 24.5895 92.56C24.9308 92.56 25.4748 92.4213 26.2215 92.144C26.4562 92.0587 26.7015 91.9627 26.9575 91.856C27.2135 91.728 27.4162 91.6213 27.5655 91.536C27.9922 91.2587 28.4828 90.8853 29.0375 90.416C29.5922 89.9467 30.1042 89.3387 30.5735 88.592C30.7655 88.2933 30.9575 87.9413 31.1495 87.536C31.3415 87.1093 31.5015 86.6827 31.6295 86.256C31.7788 85.8293 31.8535 85.4773 31.8535 85.2C32.0242 84.6453 31.9175 84.1867 31.5335 83.824C31.1708 83.44 30.5842 83.2053 29.7735 83.12C29.5175 83.056 29.1228 83.0773 28.5895 83.184C28.0562 83.2693 27.5442 83.3867 27.0535 83.536C26.5628 83.6853 26.2322 83.8133 26.0615 83.92C25.9762 83.92 25.9228 83.984 25.9015 84.112C25.8802 84.24 25.8268 84.3893 25.7415 84.56C25.7415 84.7093 25.6775 85.0293 25.5495 85.52C25.4215 85.9893 25.2722 86.4267 25.1015 86.832C24.9522 87.3013 24.7708 87.824 24.5575 88.4C24.3442 88.9547 24.1948 89.392 24.1095 89.712C24.0242 90.0533 23.9175 90.384 23.7895 90.704C23.6828 91.024 23.6295 91.184 23.6295 91.184C23.6295 91.2693 23.5655 91.4507 23.4375 91.728C23.3308 92.0053 23.2348 92.304 23.1495 92.624C23.0642 93.0293 22.9468 93.488 22.7975 94C22.6695 94.512 22.5202 94.9707 22.3495 95.376C22.1148 96.1653 21.9122 96.9547 21.7415 97.744C21.5708 98.512 21.5602 99.0133 21.7095 99.248C21.9442 99.248 22.0295 99.44 21.9655 99.824C21.9015 100.187 21.7095 100.688 21.3895 101.328C21.1762 101.861 21.0162 102.224 20.9095 102.416C20.8028 102.629 20.7068 102.747 20.6215 102.768C20.5362 102.789 20.4082 102.8 20.2375 102.8ZM37.9233 102.768C37.2619 102.725 36.6753 102.523 36.1633 102.16C35.6726 101.797 35.1499 101.424 34.5953 101.04C34.2326 100.677 33.9446 100.293 33.7313 99.888C33.5179 99.4613 33.3473 98.9067 33.2193 98.224C33.1339 97.8187 33.1339 97.3067 33.2193 96.688C33.3046 96.0693 33.4433 95.4507 33.6353 94.832C33.8273 94.192 34.0086 93.68 34.1793 93.296C34.4353 92.6987 34.7553 92.0587 35.1393 91.376C35.5446 90.672 35.9393 90.0107 36.3233 89.392C36.7286 88.752 37.0486 88.24 37.2833 87.856C37.4326 87.7067 37.4966 87.632 37.4753 87.632C37.4753 87.6107 37.4753 87.6 37.4753 87.6C37.4753 87.4933 37.5819 87.2267 37.7953 86.8C38.0299 86.352 38.2326 85.9573 38.4033 85.616C38.7233 85.2747 38.9046 84.9973 38.9473 84.784C38.9899 84.5707 38.9579 84.4 38.8513 84.272C38.8086 84.1867 38.8833 84.0373 39.0753 83.824C39.2673 83.6107 39.5553 83.3653 39.9392 83.088C40.3233 82.8107 40.7606 82.5333 41.2513 82.256C41.7633 81.8507 42.2539 81.6373 42.7233 81.616C43.2139 81.5733 43.5019 81.6693 43.5873 81.904C43.5873 81.968 43.7046 81.9893 43.9393 81.968C44.1953 81.9253 44.4833 81.872 44.8033 81.808C45.1446 81.7227 45.4433 81.6587 45.6993 81.616C45.8059 81.488 46.0513 81.392 46.4353 81.328C46.8406 81.2427 47.3099 81.168 47.8433 81.104C48.1206 81.1253 48.3873 81.136 48.6433 81.136C48.9206 81.1147 49.1446 81.0933 49.3153 81.072C49.5073 81.0507 49.6033 81.04 49.6033 81.04C49.7526 80.9973 49.9233 81.0187 50.1153 81.104C50.3286 81.1893 50.5206 81.424 50.6913 81.808C50.8406 82.192 50.7873 82.48 50.5312 82.672C50.2966 82.864 49.7419 83.0133 48.8673 83.12C48.2273 83.2053 47.6726 83.28 47.2033 83.344C46.7339 83.3867 46.2433 83.4507 45.7313 83.536C45.2193 83.6 44.5899 83.7173 43.8433 83.888C43.3099 83.9947 42.8726 84.1227 42.5313 84.272C42.1899 84.4 41.8913 84.6027 41.6353 84.88C41.3793 85.136 41.0913 85.5093 40.7713 86C40.6219 86.1067 40.4299 86.384 40.1953 86.832C39.9606 87.28 39.7259 87.728 39.4913 88.176C38.8939 89.008 38.3713 89.7333 37.9233 90.352C37.4966 90.9493 37.3259 91.3013 37.4113 91.408C37.4113 91.408 37.5286 91.44 37.7633 91.504C37.9979 91.568 38.1579 91.6 38.2433 91.6C38.4566 91.4933 38.7126 91.4187 39.0113 91.376C39.3313 91.3333 39.5873 91.2907 39.7793 91.248C41.1019 90.9067 42.1366 90.64 42.8833 90.448C43.6513 90.256 44.2273 90.1173 44.6113 90.032C45.0166 89.9253 45.3259 89.8613 45.5393 89.84C45.8379 89.6053 46.1259 89.5627 46.4033 89.712C46.7019 89.8613 46.9366 90.096 47.1073 90.416C47.2139 90.6507 47.2139 90.8533 47.1073 91.024C47.0219 91.1947 46.7553 91.3653 46.3073 91.536C45.8806 91.7067 45.2406 91.9093 44.3873 92.144C43.5339 92.3787 42.4139 92.688 41.0273 93.072C39.8539 93.4133 38.8513 93.616 38.0193 93.68C37.1873 93.744 36.7926 93.5627 36.8353 93.136C36.6859 93.0507 36.5153 93.1573 36.3233 93.456C36.1526 93.7333 35.9819 94.1173 35.8113 94.608C35.6406 95.0987 35.4913 95.6213 35.3633 96.176C35.2566 96.7307 35.1819 97.2533 35.1393 97.744C35.1179 98.2133 35.1499 98.5653 35.2352 98.8C35.4059 99.2907 35.6299 99.6853 35.9073 99.984C36.1846 100.261 36.6859 100.507 37.4113 100.72C37.8379 100.741 38.2539 100.773 38.6593 100.816C39.0646 100.859 39.5233 100.773 40.0353 100.56C41.2939 100.347 42.2859 100.123 43.0113 99.888C43.7366 99.6533 44.1526 99.4933 44.2593 99.408C44.4299 99.3227 44.5366 99.28 44.5793 99.28C44.6433 99.2587 44.7286 99.248 44.8353 99.248C44.7713 99.3547 44.7926 99.3653 44.8993 99.28C45.0273 99.1733 45.1979 99.0133 45.4113 98.8C45.6459 98.5867 45.9553 98.384 46.3393 98.192C46.7233 98 47.0646 97.8507 47.3633 97.744C47.6833 97.6373 47.8539 97.6373 47.8753 97.744C48.0033 97.9573 47.9819 98.256 47.8113 98.64C47.6406 99.0027 47.3313 99.408 46.8833 99.856C46.4353 100.283 45.8593 100.699 45.1553 101.104C44.0246 101.701 42.7979 102.117 41.4753 102.352C40.1526 102.608 38.9686 102.747 37.9233 102.768ZM51.0385 108.208C50.7398 108.379 50.5265 108.464 50.3985 108.464C50.2918 108.485 50.1212 108.379 49.8865 108.144C49.6945 107.931 49.5452 107.728 49.4385 107.536C49.3318 107.365 49.2892 107.141 49.3105 106.864C49.3532 106.395 49.4492 105.808 49.5985 105.104C49.7478 104.4 49.9078 103.685 50.0785 102.96C50.2705 102.235 50.4198 101.637 50.5265 101.168C50.5905 100.869 50.6652 100.699 50.7505 100.656C50.8572 100.592 51.0492 100.56 51.3265 100.56C51.6678 100.56 51.9985 100.56 52.3185 100.56C52.6598 100.539 52.9905 100.507 53.3105 100.464L54.0145 100.4C54.3985 99.9947 54.7718 99.6 55.1345 99.216C55.5185 98.832 55.8918 98.4373 56.2545 98.032C56.4892 97.7547 56.7558 97.4027 57.0545 96.976C57.3745 96.528 57.6838 96.08 57.9825 95.632C58.2812 95.1627 58.5265 94.768 58.7185 94.448C59.2945 93.5093 59.8492 92.6027 60.3825 91.728C60.9158 90.8533 61.4598 89.84 62.0145 88.688C62.3558 88.0053 62.6438 87.2907 62.8785 86.544C63.1345 85.776 63.4332 85.0613 63.7745 84.4C64.0732 83.888 64.2865 83.344 64.4145 82.768C64.5638 82.1707 64.7452 81.6053 64.9585 81.072C64.7238 80.944 64.1585 81.0187 63.2625 81.296C62.3878 81.552 61.3212 81.9573 60.0625 82.512C59.6998 82.64 59.3905 82.6293 59.1345 82.48C58.8998 82.3093 58.7292 82.096 58.6225 81.84C58.5372 81.5627 58.5265 81.3067 58.5905 81.072C58.6545 80.8373 58.8038 80.7093 59.0385 80.688C59.2732 80.6453 59.4865 80.5707 59.6785 80.464C59.8918 80.3573 60.1052 80.272 60.3185 80.208C60.8092 80.08 61.2678 79.952 61.6945 79.824C62.1425 79.6747 62.6225 79.568 63.1345 79.504C63.3905 79.4613 63.6572 79.4187 63.9345 79.376C64.2332 79.3333 64.4998 79.2693 64.7345 79.184C65.1825 79.056 65.6732 79.0347 66.2065 79.12C66.7398 79.184 67.4225 79.248 68.2545 79.312C69.1505 79.312 70.0038 79.5253 70.8145 79.952C71.6252 80.3573 72.4358 80.7307 73.2465 81.072C73.3745 81.2213 73.5132 81.456 73.6625 81.776C73.8118 82.0747 73.8758 82.3307 73.8545 82.544C73.8545 82.7787 73.7692 83.216 73.5985 83.856C73.4278 84.496 73.2038 85.2213 72.9265 86.032C72.6705 86.8427 72.4038 87.6533 72.1265 88.464C71.8705 89.2533 71.6358 89.936 71.4225 90.512C71.2092 91.088 71.0705 91.4613 71.0065 91.632C70.9638 91.7173 70.8892 91.8987 70.7825 92.176C70.6758 92.4533 70.5798 92.7307 70.4945 93.008C70.4092 93.264 70.3558 93.424 70.3345 93.488C70.2918 93.872 70.2172 94.224 70.1105 94.544C70.0038 94.8427 69.8758 95.1733 69.7265 95.536C69.4705 96.1973 69.2145 96.8907 68.9585 97.616C68.7025 98.32 68.4785 99.0347 68.2865 99.76C68.7345 99.9093 69.1932 99.9947 69.6625 100.016C70.1318 100.037 70.5692 100.123 70.9745 100.272C71.3798 100.421 71.7105 100.773 71.9665 101.328C72.0518 101.499 72.0305 101.787 71.9025 102.192C71.7958 102.619 71.6358 103.099 71.4225 103.632C71.2092 104.165 70.9745 104.699 70.7185 105.232C70.4838 105.787 70.2598 106.267 70.0465 106.672C69.8545 107.077 69.7158 107.365 69.6305 107.536C69.5452 107.728 69.4172 107.867 69.2465 107.952C69.0972 108.037 68.9052 108.037 68.6705 107.952L67.8065 107.184C67.6785 106.864 67.7105 106.459 67.9025 105.968C68.1158 105.499 68.3718 105.008 68.6705 104.496C68.9692 103.984 69.2358 103.483 69.4705 102.992C69.7265 102.523 69.8332 102.128 69.7905 101.808C69.4065 101.744 69.0118 101.733 68.6065 101.776C68.2225 101.797 67.8385 101.744 67.4545 101.616C67.4118 101.595 67.3585 101.584 67.2945 101.584C67.2305 101.584 67.1665 101.584 67.1025 101.584C66.0785 101.584 65.2572 101.584 64.6385 101.584C64.0412 101.584 63.5612 101.584 63.1985 101.584C62.8572 101.563 62.5478 101.563 62.2705 101.584C62.0145 101.584 61.7158 101.605 61.3745 101.648C61.0332 101.669 60.5745 101.701 59.9985 101.744C59.8065 101.765 59.6145 101.765 59.4225 101.744C59.2305 101.723 59.0492 101.733 58.8785 101.776C58.4732 101.883 58.0572 101.957 57.6305 102C57.2038 102.043 56.7452 102.064 56.2545 102.064C55.8278 102.085 55.4545 102.096 55.1345 102.096C54.8358 102.117 54.5692 102.149 54.3345 102.192C54.0145 102.256 53.6945 102.331 53.3745 102.416C53.0545 102.523 52.7238 102.597 52.3825 102.64C52.1265 103.301 51.9132 103.984 51.7425 104.688C51.5718 105.392 51.4118 106.085 51.2625 106.768C51.1985 107.003 51.1665 107.237 51.1665 107.472C51.1878 107.707 51.1452 107.952 51.0385 108.208ZM57.2785 100.048C57.3425 100.048 57.6198 100.037 58.1105 100.016C58.6012 99.9947 59.1452 99.9733 59.7425 99.952C60.3612 99.9093 60.9052 99.8773 61.3745 99.856C61.8438 99.8347 62.0892 99.8347 62.1105 99.856C62.1745 99.8133 62.3878 99.7813 62.7505 99.76C63.1132 99.7387 63.5185 99.728 63.9665 99.728C64.4145 99.7067 64.8412 99.696 65.2465 99.696C65.6518 99.696 65.9398 99.696 66.1105 99.696C66.2598 99.376 66.3772 99.0453 66.4625 98.704C66.5692 98.3413 66.6758 97.9893 66.7825 97.648C66.9318 97.1573 67.0918 96.6773 67.2625 96.208C67.4332 95.7173 67.5932 95.2373 67.7425 94.768C68.1052 93.68 68.4892 92.656 68.8945 91.696C69.3212 90.7147 69.6945 89.584 70.0145 88.304C70.0785 88.0053 70.1745 87.7173 70.3025 87.44C70.4518 87.1413 70.5692 86.8427 70.6545 86.544L71.1345 84.912C71.2412 84.6133 71.3158 84.304 71.3585 83.984C71.4012 83.6427 71.4758 83.344 71.5825 83.088C71.6892 82.8747 71.7105 82.6613 71.6465 82.448C71.6038 82.2347 71.5505 82.0213 71.4865 81.808C71.0172 81.552 70.5052 81.328 69.9505 81.136C69.4172 80.9227 68.8732 80.816 68.3185 80.816C68.1052 80.816 67.8598 80.7733 67.5825 80.688C67.3052 80.6027 67.0918 80.656 66.9425 80.848C67.0065 81.0827 67.0385 81.2533 67.0385 81.36C67.0598 81.4667 67.0278 81.6373 66.9425 81.872C66.7932 82.384 66.5692 83.0347 66.2705 83.824C65.9718 84.592 65.6305 85.424 65.2465 86.32C64.8625 87.1947 64.4785 88.0587 64.0945 88.912C63.7105 89.744 63.3478 90.4907 63.0065 91.152C62.6865 91.792 62.4305 92.2507 62.2385 92.528C61.9825 92.8907 61.7372 93.264 61.5025 93.648C61.2892 94.032 61.0652 94.416 60.8305 94.8C60.8305 94.8213 60.7025 95.0133 60.4465 95.376C60.2118 95.7173 59.9132 96.144 59.5505 96.656C59.2092 97.168 58.8572 97.68 58.4945 98.192C58.1532 98.704 57.8652 99.1413 57.6305 99.504C57.3958 99.8453 57.2785 100.027 57.2785 100.048ZM76.1913 104.656C76.1913 104.656 76.1593 104.635 76.0953 104.592C76.0313 104.571 75.9459 104.549 75.8393 104.528C75.7539 104.507 75.6473 104.496 75.5193 104.496C75.1779 104.411 74.9326 104.219 74.7833 103.92C74.6339 103.643 74.6019 103.333 74.6873 102.992C74.7726 102.907 74.8366 102.725 74.8793 102.448C74.9219 102.171 74.9433 101.947 74.9433 101.776C75.0286 101.605 75.0819 101.488 75.1033 101.424C75.1246 101.339 75.1779 101.125 75.2633 100.784C75.3273 100.421 75.4339 99.92 75.5833 99.28C75.7539 98.6187 75.9353 97.9147 76.1273 97.168C76.3406 96.4213 76.5433 95.7067 76.7352 95.024C76.9273 94.3413 77.0979 93.7653 77.2473 93.296C77.4179 92.8267 77.5353 92.56 77.5993 92.496C77.5993 92.496 77.5993 92.464 77.5993 92.4C77.5993 92.3147 77.5993 92.2293 77.5993 92.144C77.5993 92.144 77.6099 92.048 77.6313 91.856C77.6739 91.6427 77.7806 91.408 77.9513 91.152C78.0366 90.9173 78.1113 90.6613 78.1753 90.384C78.2393 90.1067 78.2713 89.9253 78.2713 89.84C78.3566 89.7333 78.4739 89.4773 78.6233 89.072C78.7939 88.6453 78.9539 88.2293 79.1033 87.824C79.2313 87.4827 79.3699 87.12 79.5193 86.736C79.6899 86.352 79.8286 86.0213 79.9353 85.744C80.0633 85.4667 80.1273 85.328 80.1273 85.328C80.1273 85.2427 80.1273 85.2 80.1273 85.2C80.1273 85.1787 80.1273 85.168 80.1273 85.168C80.2126 85.0827 80.4153 84.656 80.7353 83.888C81.0766 83.0987 81.5353 82.0853 82.1113 80.848C82.1966 80.6773 82.3033 80.4853 82.4313 80.272C82.5593 80.0587 82.6233 79.9093 82.6233 79.824C82.7299 79.6533 82.8793 79.5787 83.0713 79.6C83.2633 79.6 83.4553 79.664 83.6473 79.792C83.8606 79.92 84.0206 80.1013 84.1273 80.336L84.4473 80.848L83.2953 83.152C82.9539 83.7493 82.6659 84.2933 82.4313 84.784C82.2179 85.2747 82.1113 85.5627 82.1113 85.648C82.1113 85.648 82.0473 85.8187 81.9193 86.16C81.7913 86.5013 81.6419 86.9067 81.4713 87.376C81.3006 87.8453 81.1513 88.272 81.0233 88.656C80.7886 89.3173 80.5646 89.8613 80.3513 90.288C80.1593 90.7147 80.0633 90.9707 80.0633 91.056C80.0633 91.0133 80.2979 90.9813 80.7673 90.96C81.2366 90.9387 81.8339 90.928 82.5593 90.928C83.2846 90.928 84.0206 90.928 84.7673 90.928C85.5353 90.9067 86.2073 90.896 86.7833 90.896C87.3806 90.8747 87.7859 90.8427 87.9993 90.8L89.6632 90.64L90.7513 87.344C90.9219 86.7467 91.1459 86.0213 91.4233 85.168C91.7006 84.3147 91.9459 83.5893 92.1593 82.992C92.5006 82.0107 92.7673 81.4027 92.9593 81.168C93.1513 80.9333 93.3753 80.816 93.6313 80.816C93.6953 80.816 93.7806 80.8373 93.8873 80.88C94.0153 80.9013 94.1326 80.9547 94.2393 81.04C94.3673 81.104 94.4526 81.2 94.4953 81.328C94.7513 81.5627 94.8686 81.8293 94.8473 82.128C94.8473 82.4267 94.6766 82.8213 94.3353 83.312C93.9939 83.888 93.7059 84.5173 93.4713 85.2C93.2579 85.8613 93.0659 86.4053 92.8953 86.832C92.8953 87.088 92.8633 87.3013 92.7993 87.472C92.7353 87.6213 92.6606 87.7387 92.5753 87.824C92.5326 87.8667 92.4473 88.0267 92.3193 88.304C92.1913 88.5813 92.0739 88.8587 91.9673 89.136C91.8606 89.4133 91.8073 89.584 91.8073 89.648C91.8073 89.7973 91.7753 89.9787 91.7113 90.192C91.6473 90.4053 91.5726 90.5547 91.4873 90.64C91.4446 90.768 91.3486 91.088 91.1993 91.6C91.0499 92.112 90.8793 92.72 90.6873 93.424C90.4953 94.1067 90.2926 94.7787 90.0793 95.44C89.8659 96.08 89.6739 96.6133 89.5033 97.04C89.5033 97.1893 89.4499 97.3813 89.3433 97.616C89.2366 97.8293 89.1833 98.0213 89.1833 98.192C89.0979 98.448 88.9913 98.768 88.8633 99.152C88.7353 99.536 88.6713 99.7813 88.6713 99.888C88.5646 100.379 88.4473 100.88 88.3193 101.392C88.2126 101.904 88.1166 102.341 88.0312 102.704C87.9673 103.088 87.9353 103.312 87.9353 103.376C87.8499 103.461 87.7219 103.472 87.5513 103.408C87.3806 103.344 87.1779 103.269 86.9433 103.184C86.5379 102.949 86.2926 102.693 86.2073 102.416C86.1433 102.16 86.2286 101.787 86.4633 101.296C86.5699 101.125 86.6979 100.709 86.8473 100.048C87.0179 99.3653 87.1886 98.6933 87.3593 98.032C87.4873 97.712 87.6259 97.2853 87.7753 96.752C87.9246 96.1973 88.0739 95.6427 88.2233 95.088C88.3726 94.512 88.5006 94.032 88.6073 93.648C88.7139 93.2427 88.7886 93.0187 88.8313 92.976C88.8313 92.8907 88.8313 92.816 88.8313 92.752C88.8313 92.688 88.8313 92.656 88.8313 92.656C88.7886 92.6133 88.5219 92.5813 88.0312 92.56C87.5406 92.5173 86.9326 92.5067 86.2073 92.528C85.4819 92.528 84.7246 92.5493 83.9353 92.592C83.1673 92.6133 82.4739 92.6667 81.8553 92.752C81.6206 92.752 81.3539 92.752 81.0553 92.752C80.7566 92.752 80.5219 92.752 80.3513 92.752C80.1166 92.752 79.9139 92.752 79.7433 92.752C79.5939 92.752 79.5193 92.752 79.5193 92.752C79.4979 92.816 79.4233 93.04 79.2953 93.424C79.1673 93.808 79.0179 94.2773 78.8473 94.832C78.6766 95.3653 78.4953 95.92 78.3033 96.496C78.1326 97.0507 77.9833 97.5627 77.8553 98.032C77.7486 98.48 77.6739 98.8 77.6313 98.992C77.5459 99.376 77.4286 99.856 77.2793 100.432C77.1513 101.008 77.0019 101.595 76.8313 102.192C76.6819 102.811 76.5433 103.344 76.4153 103.792C76.3086 104.24 76.2339 104.528 76.1913 104.656ZM108.302 103.28C108.174 103.28 108.003 103.237 107.79 103.152C107.576 103.067 107.352 102.96 107.118 102.832C106.904 102.725 106.712 102.597 106.542 102.448C106.392 102.299 106.318 102.16 106.318 102.032C106.318 101.904 106.307 101.776 106.286 101.648C106.264 101.499 106.275 101.36 106.318 101.232C106.424 100.891 106.52 100.56 106.606 100.24C106.712 99.92 106.798 99.5893 106.862 99.248C107.032 98.2453 107.246 97.2533 107.502 96.272C107.779 95.2907 108.046 94.3093 108.302 93.328C108.366 93.072 108.494 92.6133 108.686 91.952C108.899 91.2693 109.134 90.5013 109.39 89.648C109.646 88.7733 109.891 87.92 110.126 87.088C110.382 86.256 110.584 85.552 110.734 84.976C110.883 84.3787 110.936 84.0267 110.894 83.92C110.808 83.856 110.744 83.8453 110.702 83.888C110.68 83.9307 110.648 83.9733 110.606 84.016C110.115 84.6773 109.614 85.3493 109.102 86.032C108.59 86.6933 108.078 87.3547 107.566 88.016C107.011 88.7413 106.435 89.456 105.838 90.16C105.24 90.864 104.643 91.5787 104.046 92.304C103.64 92.816 103.235 93.3493 102.83 93.904C102.424 94.4373 102.008 94.9493 101.582 95.44C101.283 95.7813 101.006 96.1333 100.75 96.496C100.494 96.8587 100.216 97.2107 99.9178 97.552C99.5978 97.936 99.2458 98.352 98.8618 98.8C98.4778 99.248 98.0831 99.7067 97.6778 100.176C97.2938 100.624 96.8991 101.061 96.4938 101.488C96.1098 101.893 95.7258 102.256 95.3418 102.576C95.1924 102.704 94.9791 102.779 94.7018 102.8C94.4458 102.821 94.2004 102.768 93.9658 102.64C93.7311 102.533 93.6031 102.352 93.5818 102.096C93.5604 101.627 93.6031 101.072 93.7098 100.432C93.8378 99.792 93.9871 99.152 94.1578 98.512C94.3284 97.8507 94.4884 97.296 94.6378 96.848C94.7018 96.6133 94.7764 96.3893 94.8618 96.176C94.9471 95.9413 95.0218 95.7067 95.0858 95.472C95.1071 95.344 95.1284 95.216 95.1498 95.088C95.1924 94.96 95.2351 94.832 95.2778 94.704C95.4271 94.384 95.5338 94.0853 95.5978 93.808C95.6618 93.5307 95.6938 93.2213 95.6938 92.88C95.7151 92.752 95.7684 92.56 95.8538 92.304C95.9391 92.048 96.0351 91.7813 96.1418 91.504C96.2484 91.2267 96.3231 91.0133 96.3658 90.864C96.4724 90.544 96.5684 90.224 96.6538 89.904C96.7604 89.5627 96.8884 89.2427 97.0378 88.944C97.0804 88.88 97.1018 88.8373 97.1018 88.816C97.1018 88.7947 97.1124 88.752 97.1338 88.688C97.2404 88.0267 97.3898 87.5147 97.5818 87.152C97.7951 86.768 98.0084 86.3093 98.2218 85.776L98.2538 85.584C98.3391 85.3493 98.4138 85.1573 98.4778 85.008C98.5631 84.8373 98.6484 84.6453 98.7338 84.432C98.7764 84.3253 98.7551 84.2613 98.6698 84.24C98.6058 84.1973 98.6164 84.1333 98.7018 84.048C98.8724 83.8347 98.9364 83.7173 98.8938 83.696C98.8511 83.6747 98.8618 83.5787 98.9258 83.408C99.0751 83.216 99.2244 82.928 99.3738 82.544C99.5444 82.16 99.7044 81.7653 99.8538 81.36C100.003 80.9333 100.12 80.6133 100.206 80.4C100.248 80.2507 100.302 80.1547 100.366 80.112C100.43 80.048 100.536 79.984 100.686 79.92C101.027 79.7707 101.315 79.7493 101.55 79.856C101.784 79.9627 101.955 80.1333 102.062 80.368C102.168 80.6027 102.211 80.8587 102.19 81.136C102.19 81.392 102.126 81.616 101.998 81.808C101.955 81.872 101.923 81.936 101.902 82C101.902 82.0427 101.88 82.1067 101.838 82.192C101.752 82.5547 101.624 82.9067 101.454 83.248C101.283 83.568 101.123 83.9093 100.974 84.272C100.846 84.5707 100.643 85.0827 100.366 85.808C100.11 86.5333 99.8111 87.3867 99.4698 88.368C99.1284 89.328 98.7871 90.3307 98.4458 91.376C98.1044 92.4 97.7844 93.392 97.4858 94.352C97.1871 95.2907 96.9524 96.112 96.7818 96.816C96.6111 97.4987 96.5364 97.968 96.5578 98.224C96.8351 97.9253 97.1018 97.6267 97.3578 97.328C97.6138 97.008 97.8591 96.6987 98.0938 96.4C98.7124 95.6107 99.3631 94.8427 100.046 94.096C100.728 93.328 101.368 92.5493 101.966 91.76C102.307 91.2907 102.67 90.8427 103.054 90.416C103.459 89.9893 103.832 89.5413 104.174 89.072C104.408 88.7733 104.643 88.4853 104.878 88.208C105.134 87.9307 105.368 87.6427 105.582 87.344C106.243 86.4693 106.936 85.616 107.662 84.784C108.387 83.9307 109.091 83.0773 109.774 82.224C109.944 82.0107 110.211 81.7227 110.574 81.36C110.936 80.9973 111.31 80.656 111.694 80.336C112.078 79.9947 112.387 79.7707 112.622 79.664C112.899 79.536 113.166 79.568 113.422 79.76C113.678 79.9307 113.912 80.112 114.126 80.304C114.424 80.6027 114.51 80.9653 114.382 81.392C114.339 81.4987 114.286 81.616 114.222 81.744C114.158 81.8507 114.104 81.9573 114.062 82.064C113.87 82.4267 113.699 82.8 113.55 83.184C113.4 83.5467 113.262 83.92 113.134 84.304C113.006 84.688 112.888 85.0827 112.782 85.488C112.76 85.6373 112.728 85.808 112.686 86C112.643 86.192 112.59 86.3733 112.526 86.544C112.376 86.8853 112.184 87.2587 111.95 87.664C111.736 88.048 111.64 88.4533 111.662 88.88C111.662 89.136 111.608 89.3707 111.502 89.584C111.31 89.968 111.171 90.3733 111.086 90.8C111 91.2267 110.904 91.6533 110.798 92.08C110.627 92.7627 110.446 93.4453 110.254 94.128C110.083 94.8107 109.902 95.4933 109.71 96.176C109.518 96.8587 109.326 97.5413 109.134 98.224C108.92 99.0347 108.76 99.8773 108.654 100.752C108.547 101.605 108.43 102.448 108.302 103.28ZM125.176 104.528C124.792 104.379 124.472 104.176 124.216 103.92C123.981 103.664 123.906 103.323 123.992 102.896C123.992 102.896 124.077 102.693 124.248 102.288C124.418 101.904 124.621 101.424 124.856 100.848C125.112 100.251 125.357 99.664 125.592 99.088C125.826 98.512 126.029 98.032 126.2 97.648C126.37 97.2427 126.456 97.04 126.456 97.04C126.605 96.656 126.808 96.1333 127.064 95.472C127.341 94.8107 127.608 94.1387 127.864 93.456C128.141 92.752 128.376 92.144 128.568 91.632C128.76 91.12 128.856 90.832 128.856 90.768C129.09 90.2347 129.293 89.6907 129.464 89.136C129.634 88.5813 129.848 88.048 130.104 87.536C130.296 87.1093 130.466 86.7253 130.616 86.384C130.765 86.0213 130.84 85.7013 130.84 85.424C130.84 85.424 130.616 85.6587 130.168 86.128C129.741 86.5973 129.165 87.2267 128.44 88.016C127.714 88.784 126.914 89.6373 126.04 90.576C125.186 91.4933 124.322 92.4213 123.448 93.36C122.594 94.2987 121.805 95.1627 121.08 95.952C120.354 96.72 119.768 97.3387 119.32 97.808C118.872 98.2773 118.648 98.512 118.648 98.512C118.178 98.8747 117.741 99.2693 117.336 99.696C116.952 100.101 116.525 100.485 116.056 100.848C115.864 100.997 115.629 101.189 115.352 101.424C115.074 101.637 114.808 101.829 114.552 102C114.296 102.192 114.104 102.288 113.976 102.288C113.357 102.181 112.962 102.011 112.792 101.776C112.621 101.52 112.589 101.211 112.696 100.848C112.802 100.464 112.952 100.016 113.144 99.504C113.25 99.1627 113.346 98.8213 113.432 98.48C113.538 98.1173 113.613 97.7653 113.656 97.424C113.805 96.784 113.965 96.1867 114.136 95.632C114.306 95.0773 114.466 94.544 114.616 94.032C114.765 93.5413 114.914 93.0507 115.064 92.56C115.213 92.048 115.298 91.5253 115.32 90.992C115.576 90.5653 115.789 90.1493 115.96 89.744C116.13 89.3173 116.29 88.8907 116.44 88.464C116.589 88.0373 116.76 87.6107 116.952 87.184C117.186 86.672 117.378 86.1493 117.528 85.616C117.698 85.0613 117.901 84.5173 118.135 83.984C118.285 83.6853 118.488 83.2907 118.744 82.8C119 82.3093 119.234 81.808 119.448 81.296C119.682 80.784 119.8 80.3467 119.8 79.984C119.8 79.7493 119.885 79.6213 120.056 79.6C120.226 79.5787 120.418 79.6107 120.632 79.696C120.845 79.7813 121.026 79.888 121.176 80.016C121.346 80.144 121.442 80.24 121.464 80.304C121.528 80.496 121.57 80.6987 121.592 80.912C121.634 81.1253 121.602 81.3493 121.496 81.584L118.84 88.336L115.928 96.048C115.672 96.88 115.522 97.5307 115.48 98C115.458 98.4693 115.597 98.6293 115.896 98.48L122.36 92.016C122.722 91.632 123.074 91.2373 123.416 90.832C123.778 90.4053 124.12 89.9893 124.44 89.584C124.525 89.5413 124.738 89.328 125.08 88.944C125.442 88.56 125.858 88.1013 126.328 87.568C126.797 87.0347 127.245 86.5333 127.672 86.064C128.098 85.5733 128.418 85.2107 128.632 84.976L132.696 80.656L133.304 80.464C133.496 80.4427 133.688 80.5067 133.88 80.656C134.072 80.8053 134.21 80.9973 134.296 81.232C134.402 81.4667 134.402 81.712 134.296 81.968C134.296 81.968 134.189 82.2453 133.976 82.8C133.784 83.3547 133.528 84.0693 133.208 84.944C132.888 85.7973 132.546 86.704 132.184 87.664C131.842 88.624 131.512 89.5307 131.192 90.384C130.872 91.2373 130.605 91.9413 130.392 92.496C130.2 93.0293 130.093 93.296 130.072 93.296C130.093 93.232 130.018 93.4027 129.848 93.808C129.698 94.2133 129.496 94.7467 129.24 95.408C128.984 96.0693 128.717 96.752 128.44 97.456C128.162 98.1387 127.917 98.7467 127.704 99.28C127.512 99.8133 127.394 100.155 127.352 100.304C127.266 100.581 127.16 100.859 127.032 101.136C126.925 101.392 126.808 101.648 126.68 101.904C126.53 102.181 126.402 102.469 126.296 102.768C126.21 103.088 126.136 103.397 126.072 103.696C126.008 103.931 125.88 104.144 125.688 104.336C125.496 104.549 125.325 104.613 125.176 104.528ZM126.936 78.832C126.146 78.9173 125.485 78.7253 124.952 78.256C124.418 77.7867 124.002 77.0933 123.704 76.176C123.661 76.0053 123.65 75.856 123.672 75.728C123.693 75.5787 123.736 75.4507 123.8 75.344C123.842 75.2587 123.938 75.1947 124.088 75.152C124.258 75.088 124.386 75.0773 124.472 75.12C124.813 75.248 125.069 75.3867 125.24 75.536C125.432 75.6853 125.549 75.8773 125.592 76.112C125.656 76.2187 125.688 76.3253 125.688 76.432C125.709 76.5387 125.72 76.5813 125.72 76.56C125.848 76.9013 126.008 77.136 126.2 77.264C126.392 77.392 126.69 77.3813 127.096 77.232C127.522 77.0827 127.938 76.912 128.344 76.72C128.77 76.528 129.154 76.2933 129.496 76.016C129.794 75.7813 130.072 75.568 130.328 75.376C130.584 75.184 130.85 74.9813 131.128 74.768L131.16 74.736C131.266 74.672 131.394 74.6507 131.544 74.672C131.693 74.6933 131.778 74.7253 131.8 74.768C131.97 74.9173 132.056 75.0667 132.056 75.216C132.077 75.3653 132.088 75.5253 132.088 75.696L132.056 75.76C132.098 75.888 131.97 76.1333 131.672 76.496C131.373 76.8373 131.021 77.1467 130.616 77.424C130.274 77.6587 129.89 77.872 129.464 78.064C129.058 78.256 128.642 78.4373 128.216 78.608C128.066 78.6933 127.885 78.7467 127.672 78.768C127.48 78.768 127.234 78.7893 126.936 78.832ZM153.977 91.888C153.913 92.0373 153.668 92.1547 153.241 92.24C152.814 92.3253 152.132 92.4213 151.193 92.528C150.916 92.5493 150.5 92.5707 149.945 92.592C149.412 92.6133 148.825 92.6347 148.185 92.656C147.566 92.6773 147.001 92.688 146.489 92.688C145.977 92.6667 145.625 92.6347 145.433 92.592C145.433 92.592 145.38 92.6453 145.273 92.752C145.188 92.8587 145.145 92.9973 145.145 93.168C144.996 93.424 144.804 93.8187 144.569 94.352C144.356 94.8853 144.11 95.472 143.833 96.112C143.577 96.752 143.332 97.392 143.097 98.032C142.884 98.672 142.702 99.2267 142.553 99.696C142.404 100.165 142.329 100.485 142.329 100.656C142.137 101.168 142.02 101.605 141.977 101.968C141.934 102.331 141.86 102.544 141.753 102.608C141.732 102.693 141.593 102.715 141.337 102.672C141.081 102.629 140.868 102.512 140.697 102.32C140.441 102.128 140.292 101.957 140.249 101.808C140.228 101.637 140.292 101.317 140.441 100.848C140.505 100.571 140.612 100.165 140.761 99.632C140.932 99.0773 141.113 98.4693 141.305 97.808C141.518 97.1467 141.732 96.5067 141.945 95.888C142.18 95.248 142.404 94.7253 142.617 94.32C142.852 93.9147 143.001 93.552 143.065 93.232C143.129 92.8907 143.214 92.5813 143.321 92.304C143.3 92.0693 143.3 91.9093 143.321 91.824C143.342 91.7387 143.428 91.6107 143.577 91.44C143.684 91.3547 143.812 91.2053 143.961 90.992C144.132 90.7573 144.324 90.4053 144.537 89.936C144.601 89.7227 144.697 89.4347 144.825 89.072C144.974 88.688 145.113 88.304 145.241 87.92C145.369 87.5147 145.486 87.1733 145.593 86.896C145.7 86.6187 145.753 86.4693 145.753 86.448C145.796 86.3627 145.86 86.2027 145.945 85.968C146.03 85.712 146.094 85.5093 146.137 85.36C146.222 85.0613 146.286 84.816 146.329 84.624C146.393 84.432 146.382 84.336 146.297 84.336C146.126 84.3787 145.785 84.4107 145.273 84.432C145.017 84.4747 144.825 84.5067 144.697 84.528C144.59 84.528 144.494 84.5387 144.409 84.56C144.196 84.5813 144.004 84.56 143.833 84.496C143.662 84.432 143.577 84.304 143.577 84.112C143.62 83.7707 143.737 83.4933 143.929 83.28C144.142 83.0453 144.409 82.9173 144.729 82.896C144.878 82.8533 145.038 82.8213 145.209 82.8C145.401 82.7573 145.657 82.6933 145.977 82.608C146.382 82.5227 146.692 82.4587 146.905 82.416C147.14 82.352 147.321 82.3413 147.449 82.384C147.556 82.32 147.652 82.256 147.737 82.192C147.822 82.1067 147.865 82.0213 147.865 81.936C147.865 81.8293 147.908 81.7547 147.993 81.712C148.1 81.648 148.217 81.616 148.345 81.616C148.473 81.5947 148.601 81.6053 148.729 81.648C148.878 81.6907 148.985 81.7653 149.049 81.872C149.092 81.936 149.188 81.9893 149.337 82.032C149.486 82.0747 149.753 82.0747 150.137 82.032C150.542 81.968 151.108 81.8613 151.833 81.712C152.217 81.6693 152.697 81.6267 153.273 81.584C153.87 81.5413 154.34 81.5733 154.681 81.68C155.044 81.616 155.364 81.5947 155.641 81.616C155.94 81.616 156.142 81.5733 156.249 81.488C156.697 81.5733 157.017 81.6373 157.209 81.68C157.422 81.7013 157.593 81.7653 157.721 81.872C157.806 81.9573 157.828 82.0427 157.785 82.128C157.764 82.192 157.753 82.224 157.753 82.224C157.668 82.1813 157.678 82.192 157.785 82.256C157.892 82.2987 157.966 82.3413 158.009 82.384C158.158 82.448 158.254 82.5333 158.297 82.64C158.34 82.7253 158.361 82.8107 158.361 82.896C158.361 82.9813 158.35 83.056 158.329 83.12C158.308 83.312 158.201 83.4293 158.009 83.472C157.817 83.4933 157.337 83.4933 156.569 83.472C155.652 83.344 154.745 83.3013 153.849 83.344C152.974 83.3653 151.95 83.4613 150.777 83.632C150.35 83.6533 149.966 83.7173 149.625 83.824C149.305 83.9093 149.124 83.952 149.081 83.952C148.996 83.952 148.846 84.1013 148.633 84.4C148.42 84.6773 148.217 85.0933 148.025 85.648C147.94 85.7973 147.79 86.1387 147.577 86.672C147.364 87.2053 147.129 87.7813 146.873 88.4C146.638 89.0187 146.425 89.5627 146.233 90.032C146.062 90.5013 145.956 90.7573 145.913 90.8C146.212 90.8853 146.692 90.928 147.353 90.928C148.036 90.928 148.782 90.9067 149.593 90.864C150.425 90.8 151.182 90.736 151.865 90.672C152.185 90.608 152.516 90.5547 152.857 90.512C153.22 90.448 153.454 90.4373 153.561 90.48C153.668 90.544 153.764 90.672 153.849 90.864C153.934 91.0347 153.988 91.216 154.009 91.408C154.052 91.6 154.041 91.76 153.977 91.888ZM156.956 102.8C156.85 102.8 156.722 102.747 156.572 102.64C156.423 102.555 156.284 102.437 156.156 102.288C156.05 102.139 155.996 101.979 155.996 101.808C155.996 101.808 155.986 101.744 155.964 101.616C155.964 101.467 155.922 101.317 155.836 101.168C155.836 100.997 155.836 100.805 155.836 100.592C155.858 100.357 155.911 100.123 155.996 99.888C155.996 99.6533 156.028 99.3973 156.092 99.12C156.156 98.8213 156.231 98.5973 156.316 98.448C156.316 98.2133 156.37 97.9147 156.476 97.552C156.604 97.168 156.711 96.816 156.796 96.496C157.031 95.792 157.202 95.28 157.308 94.96C157.436 94.64 157.522 94.4053 157.564 94.256C157.607 94.0853 157.628 93.9147 157.628 93.744C157.692 93.5733 157.788 93.264 157.916 92.816C158.044 92.368 158.172 91.9093 158.3 91.44C158.45 90.9493 158.546 90.5973 158.588 90.384C158.674 90.2987 158.716 90.224 158.716 90.16C158.738 90.0747 158.748 89.9893 158.748 89.904C158.748 89.904 158.823 89.6587 158.972 89.168C159.122 88.6773 159.314 88.112 159.548 87.472C159.932 86.3413 160.188 85.52 160.316 85.008C160.466 84.496 160.53 84.1333 160.508 83.92C160.508 83.7067 160.455 83.4933 160.348 83.28C160.199 83.0027 160.199 82.7893 160.348 82.64C160.434 82.5547 160.508 82.4587 160.572 82.352C160.636 82.224 160.668 82.16 160.668 82.16C160.668 82.1173 160.807 82.0427 161.084 81.936C161.362 81.8293 161.703 81.712 162.108 81.584C162.514 81.4347 162.919 81.296 163.324 81.168C163.751 81.04 164.103 80.9333 164.38 80.848C164.444 80.848 164.54 80.848 164.668 80.848C164.818 80.848 164.978 80.848 165.148 80.848C165.34 80.848 165.522 80.848 165.692 80.848C166.247 80.9333 166.812 81.0933 167.388 81.328C167.986 81.5627 168.487 81.8933 168.892 82.32C169.148 82.5547 169.372 82.832 169.564 83.152C169.778 83.472 170.044 83.9947 170.364 84.72C170.364 84.8053 170.386 84.9867 170.428 85.264C170.492 85.52 170.524 85.776 170.524 86.032C170.524 86.672 170.364 87.344 170.044 88.048C169.724 88.752 169.266 89.4667 168.668 90.192C168.071 90.896 167.346 91.6 166.492 92.304C165.596 93.0293 164.668 93.52 163.708 93.776C162.748 94.032 161.895 94.0853 161.148 93.936C160.999 93.872 160.86 93.744 160.732 93.552C160.626 93.36 160.551 93.168 160.508 92.976C160.466 92.784 160.476 92.656 160.54 92.592C160.711 92.5493 160.967 92.5387 161.308 92.56C161.65 92.56 162.194 92.4213 162.94 92.144C163.175 92.0587 163.42 91.9627 163.676 91.856C163.932 91.728 164.135 91.6213 164.284 91.536C164.711 91.2587 165.202 90.8853 165.756 90.416C166.311 89.9467 166.823 89.3387 167.292 88.592C167.484 88.2933 167.676 87.9413 167.868 87.536C168.06 87.1093 168.22 86.6827 168.348 86.256C168.498 85.8293 168.572 85.4773 168.572 85.2C168.743 84.6453 168.636 84.1867 168.252 83.824C167.89 83.44 167.303 83.2053 166.492 83.12C166.236 83.056 165.842 83.0773 165.308 83.184C164.775 83.2693 164.263 83.3867 163.772 83.536C163.282 83.6853 162.951 83.8133 162.78 83.92C162.695 83.92 162.642 83.984 162.62 84.112C162.599 84.24 162.546 84.3893 162.46 84.56C162.46 84.7093 162.396 85.0293 162.268 85.52C162.14 85.9893 161.991 86.4267 161.82 86.832C161.671 87.3013 161.49 87.824 161.276 88.4C161.063 88.9547 160.914 89.392 160.828 89.712C160.743 90.0533 160.636 90.384 160.508 90.704C160.402 91.024 160.348 91.184 160.348 91.184C160.348 91.2693 160.284 91.4507 160.156 91.728C160.05 92.0053 159.954 92.304 159.868 92.624C159.783 93.0293 159.666 93.488 159.516 94C159.388 94.512 159.239 94.9707 159.068 95.376C158.834 96.1653 158.631 96.9547 158.46 97.744C158.29 98.512 158.279 99.0133 158.428 99.248C158.663 99.248 158.748 99.44 158.684 99.824C158.62 100.187 158.428 100.688 158.108 101.328C157.895 101.861 157.735 102.224 157.628 102.416C157.522 102.629 157.426 102.747 157.34 102.768C157.255 102.789 157.127 102.8 156.956 102.8ZM177.857 102.672C176.982 102.885 176.076 102.875 175.137 102.64C174.22 102.405 173.409 101.989 172.705 101.392C172.001 100.795 171.51 100.069 171.233 99.216C171.148 98.9813 171.073 98.768 171.009 98.576C170.966 98.384 170.988 98.288 171.073 98.288C171.286 98.288 171.297 98.1813 171.105 97.968C171.041 97.8827 171.009 97.744 171.009 97.552C171.03 97.36 171.073 97.1787 171.137 97.008C171.222 96.8373 171.318 96.752 171.425 96.752C171.574 96.752 171.734 96.8053 171.905 96.912C172.076 97.0187 172.204 97.136 172.289 97.264C172.396 97.3707 172.406 97.456 172.321 97.52C172.321 97.52 172.364 97.6373 172.449 97.872C172.534 98.0853 172.556 98.3413 172.513 98.64C172.705 98.96 172.865 99.2267 172.993 99.44C173.121 99.632 173.388 99.8453 173.793 100.08C174.07 100.293 174.316 100.453 174.529 100.56C174.742 100.667 175.116 100.731 175.649 100.752C175.99 100.752 176.268 100.709 176.481 100.624C176.694 100.539 176.886 100.389 177.057 100.176C177.249 99.9627 177.473 99.6747 177.729 99.312C177.793 98.9067 177.708 98.256 177.473 97.36C177.26 96.464 176.94 95.4187 176.513 94.224C176.086 93.008 175.574 91.7387 174.977 90.416C174.849 90.1813 174.732 89.936 174.625 89.68C174.54 89.424 174.497 89.296 174.497 89.296C174.561 88.8907 174.54 88.5173 174.433 88.176C174.305 88.0693 174.23 87.824 174.209 87.44C174.209 87.0347 174.188 86.672 174.145 86.352C174.188 85.8827 174.23 85.52 174.273 85.264C174.316 85.008 174.454 84.7093 174.689 84.368C175.308 83.472 176.065 82.7253 176.961 82.128C177.857 81.5093 178.998 81.0933 180.385 80.88C180.62 80.8373 180.918 80.816 181.281 80.816C181.644 80.7947 182.017 80.8053 182.401 80.848C182.785 80.8693 183.126 80.912 183.425 80.976C183.745 81.0187 183.98 81.0933 184.129 81.2C184.641 81.456 185.046 81.7333 185.345 82.032C185.644 82.3307 185.9 82.672 186.113 83.056C186.22 83.2907 186.284 83.472 186.305 83.6C186.348 83.7067 186.348 83.8133 186.305 83.92C186.262 84.0267 186.177 84.1867 186.049 84.4C185.942 84.528 185.761 84.6773 185.505 84.848C185.27 85.0187 184.993 85.1893 184.673 85.36C184.374 85.5307 184.054 85.6907 183.713 85.84C183.393 85.968 183.094 86.0533 182.817 86.096C182.625 86.1813 182.508 86.224 182.465 86.224C182.444 86.224 182.433 86.1813 182.433 86.096C182.497 85.968 182.508 85.872 182.465 85.808C182.444 85.744 182.433 85.712 182.433 85.712C182.156 85.712 182.092 85.5947 182.241 85.36C182.412 85.1253 182.7 84.7627 183.105 84.272C183.489 83.8453 183.734 83.5573 183.841 83.408C183.969 83.2373 183.98 83.0987 183.873 82.992C183.745 82.9067 183.489 82.8427 183.105 82.8C182.721 82.7573 182.305 82.7467 181.857 82.768C181.43 82.768 181.046 82.8 180.705 82.864C179.638 83.184 178.7 83.6427 177.889 84.24C177.1 84.8373 176.62 85.4987 176.449 86.224C176.3 86.544 176.225 86.832 176.225 87.088C176.246 87.344 176.342 87.7493 176.513 88.304C176.556 88.8373 176.598 89.2533 176.641 89.552C176.705 89.8507 176.737 90.0213 176.737 90.064C176.737 90.1493 176.758 90.2773 176.801 90.448C176.844 90.5973 176.876 90.8747 176.897 91.28C176.94 91.4293 177.046 91.632 177.217 91.888C177.388 92.1227 177.676 92.3893 178.081 92.688C178.124 93.1573 178.198 93.5627 178.305 93.904C178.433 94.224 178.508 94.5333 178.529 94.832C178.956 95.6853 179.276 96.5387 179.489 97.392C179.724 98.2453 179.862 98.9493 179.905 99.504C179.948 100.059 179.894 100.336 179.745 100.336C179.724 100.336 179.713 100.368 179.713 100.432C179.713 100.496 179.724 100.528 179.745 100.528C179.745 100.656 179.67 100.816 179.521 101.008C179.372 101.2 179.19 101.413 178.977 101.648C178.764 101.861 178.55 102.053 178.337 102.224C178.145 102.416 177.985 102.565 177.857 102.672ZM189.516 93.616C189.11 93.7653 188.769 93.84 188.492 93.84C188.236 93.8187 187.948 93.6907 187.628 93.456C187.222 93.072 187.084 92.688 187.212 92.304C187.361 91.8987 187.713 91.504 188.268 91.12C188.652 90.8853 188.929 90.7573 189.1 90.736C189.292 90.7147 189.58 90.7893 189.964 90.96C190.604 91.3653 190.881 91.8133 190.796 92.304C190.732 92.7947 190.305 93.232 189.516 93.616ZM187.276 100.336C186.87 100.485 186.529 100.56 186.252 100.56C185.996 100.539 185.708 100.411 185.388 100.176C184.982 99.792 184.844 99.408 184.972 99.024C185.121 98.6187 185.473 98.224 186.028 97.84C186.412 97.6053 186.689 97.4773 186.86 97.456C187.052 97.4347 187.34 97.5093 187.724 97.68C188.364 98.0853 188.641 98.5333 188.556 99.024C188.492 99.5147 188.065 99.952 187.276 100.336ZM198.651 100.76C197.771 101 197.038 101.093 196.451 101.04C195.865 100.96 195.291 100.653 194.731 100.12C194.358 99.8267 194.078 99.5467 193.891 99.28C193.705 99.0133 193.571 98.6133 193.491 98.08C193.358 97.68 193.278 97.36 193.251 97.12C193.225 96.88 193.238 96.5867 193.291 96.24C193.371 95.8933 193.478 95.36 193.611 94.64C193.825 93.68 194.011 92.9333 194.171 92.4C194.331 91.84 194.651 91.2267 195.131 90.56C195.345 90 195.585 89.44 195.851 88.88C196.145 88.2933 196.358 87.92 196.491 87.76C196.625 87.5733 196.825 87.2933 197.091 86.92C197.358 86.5467 197.638 86.2 197.931 85.88C198.198 85.5333 198.438 85.2133 198.651 84.92C198.891 84.6 199.011 84.44 199.011 84.44C199.145 84.36 199.265 84.28 199.371 84.2C199.505 84.12 199.638 83.9867 199.771 83.8C199.985 83.56 200.278 83.28 200.651 82.96C201.051 82.64 201.491 82.3333 201.971 82.04C202.478 81.7467 202.971 81.4933 203.451 81.28C203.958 81.0667 204.425 80.9333 204.851 80.88C205.705 80.5867 206.105 80.6 206.051 80.92C206.051 80.92 206.091 80.96 206.171 81.04C206.251 81.12 206.398 81.1867 206.611 81.24C206.718 81.2667 206.798 81.36 206.851 81.52C206.931 81.6533 207.011 81.7867 207.091 81.92C207.145 82.1333 207.131 82.32 207.051 82.48C206.998 82.64 206.785 82.8933 206.411 83.24C206.038 83.5067 205.771 83.6533 205.611 83.68C205.478 83.7067 205.358 83.6667 205.251 83.56C205.278 83.4533 205.225 83.3867 205.091 83.36C204.958 83.3067 204.891 83.28 204.891 83.28C204.731 83.2267 204.385 83.3467 203.851 83.64C203.318 83.9333 202.745 84.3067 202.131 84.76C201.545 85.2133 201.051 85.6533 200.651 86.08C200.411 86.2933 200.198 86.5067 200.011 86.72C199.825 86.9333 199.705 87.0933 199.651 87.2C199.305 87.5467 198.998 87.8933 198.731 88.24C198.465 88.56 198.331 88.72 198.331 88.72C198.411 88.88 198.598 88.92 198.891 88.84C199.211 88.76 199.385 88.6667 199.411 88.56C199.411 88.4533 199.705 88.32 200.291 88.16C200.905 87.9733 201.518 87.8533 202.131 87.8C202.371 87.6933 202.691 87.68 203.091 87.76C203.518 87.84 203.865 87.9067 204.131 87.96C204.718 88.0667 205.118 88.1733 205.331 88.28C205.545 88.3867 205.811 88.64 206.131 89.04C206.665 89.5467 207.025 90.0533 207.211 90.56C207.425 91.04 207.518 91.6267 207.491 92.32C207.491 92.7467 207.451 93.12 207.371 93.44C207.291 93.76 207.105 94.0933 206.811 94.44C206.598 94.7867 206.318 95.2 205.971 95.68C205.625 96.1333 205.278 96.5467 204.931 96.92C204.611 97.2933 204.331 97.56 204.091 97.72C203.985 97.7733 203.878 97.84 203.771 97.92C203.691 97.9733 203.651 98 203.651 98C203.625 98.16 203.425 98.3733 203.051 98.64C202.705 98.88 202.265 99.1467 201.731 99.44C201.198 99.7333 200.651 100 200.091 100.24C199.558 100.48 199.078 100.653 198.651 100.76ZM195.971 98.8C196.451 98.9067 196.825 98.96 197.091 98.96C197.358 98.9333 197.825 98.7867 198.491 98.52C198.705 98.4667 198.905 98.4133 199.091 98.36C199.278 98.3067 199.425 98.2933 199.531 98.32C199.531 98.32 199.718 98.2 200.091 97.96C200.465 97.6933 200.905 97.4133 201.411 97.12C202.825 96.2133 203.918 95.2133 204.691 94.12C205.465 93 205.785 92.08 205.651 91.36C205.678 91.1467 205.638 90.9467 205.531 90.76C205.451 90.5467 205.425 90.3867 205.451 90.28C205.371 90.28 205.238 90.2533 205.051 90.2C204.865 90.1467 204.625 90.0933 204.331 90.04C204.011 89.96 203.691 89.9333 203.371 89.96C203.078 89.9867 202.625 90.0667 202.011 90.2C201.425 90.3067 200.518 90.5067 199.291 90.8C199.105 90.8533 198.891 90.9467 198.651 91.08C198.411 91.1867 198.171 91.2667 197.931 91.32C197.825 91.4 197.665 91.5067 197.451 91.64C197.238 91.7467 197.038 91.8267 196.851 91.88C196.531 91.9067 196.265 92.16 196.051 92.64C195.838 93.12 195.585 94.0267 195.291 95.36C195.105 96.2667 194.998 96.88 194.971 97.2C194.945 97.52 194.998 97.7867 195.131 98C195.185 98.32 195.291 98.52 195.451 98.6C195.611 98.68 195.785 98.7467 195.971 98.8ZM217.739 101.16C217.552 101.16 217.259 101.08 216.859 100.92C216.486 100.733 216.086 100.52 215.659 100.28C215.232 100.013 214.886 99.76 214.619 99.52C214.032 98.96 213.539 98.28 213.139 97.48C212.739 96.68 212.459 95.8267 212.299 94.92C212.139 93.9867 212.126 93.0933 212.259 92.24C212.552 90.5333 213.192 88.8533 214.179 87.2C215.166 85.52 216.299 84.1333 217.579 83.04C218.272 82.4267 218.899 81.96 219.459 81.64C220.019 81.2933 220.699 81.0267 221.499 80.84C221.792 80.76 222.112 80.72 222.459 80.72C222.806 80.6933 223.072 80.68 223.259 80.68C223.792 80.68 224.326 80.7867 224.859 81C225.392 81.2133 225.846 81.48 226.219 81.8C226.592 82.0933 226.779 82.3733 226.779 82.64C226.779 82.8267 226.766 82.9733 226.739 83.08C226.712 83.16 226.592 83.1467 226.379 83.04H225.979L226.379 84.2C226.486 84.4133 226.579 84.7067 226.659 85.08C226.739 85.4267 226.779 85.7467 226.779 86.04C226.779 86.28 226.739 86.6667 226.659 87.2C226.579 87.7067 226.472 88.2533 226.339 88.84C226.206 89.4267 226.072 89.9733 225.939 90.48C225.806 90.9867 225.686 91.36 225.579 91.6C225.499 91.76 225.446 91.92 225.419 92.08C225.419 92.2133 225.419 92.3333 225.419 92.44C225.312 92.6267 225.139 92.9867 224.899 93.52C224.686 94.0533 224.526 94.4267 224.419 94.64C224.312 94.7467 224.219 94.84 224.139 94.92C224.086 95 224.112 95.0933 224.219 95.2C224.219 95.2533 224.152 95.4267 224.019 95.72C223.886 95.9867 223.739 96.24 223.579 96.48C223.446 96.72 223.339 96.84 223.259 96.84C223.259 96.84 223.219 96.8533 223.139 96.88C223.086 96.88 223.059 96.92 223.059 97C223.059 97.1067 222.886 97.3867 222.539 97.84C222.192 98.2667 221.779 98.72 221.299 99.2C221.032 99.4667 220.659 99.76 220.179 100.08C219.726 100.373 219.272 100.627 218.819 100.84C218.366 101.053 218.006 101.16 217.739 101.16ZM217.619 98.64C217.912 98.64 218.192 98.6 218.459 98.52C218.726 98.4133 218.952 98.2667 219.139 98.08C219.619 97.76 220.179 97.24 220.819 96.52C221.459 95.7733 221.926 95.0533 222.219 94.36C222.512 93.96 222.739 93.5467 222.899 93.12C223.086 92.6667 223.366 91.9067 223.739 90.84C223.952 90.5467 224.099 90.1867 224.179 89.76C224.259 89.3333 224.299 88.9733 224.299 88.68C224.299 88.3867 224.299 87.9867 224.299 87.48C224.326 86.9733 224.392 86.5467 224.499 86.2C224.499 85.5067 224.486 85.0533 224.459 84.84C224.432 84.6 224.326 84.3733 224.139 84.16C224.032 84.08 223.886 84 223.699 83.92C223.539 83.84 223.366 83.8 223.179 83.8C222.992 83.8 222.646 83.9067 222.139 84.12C221.632 84.3067 221.272 84.4667 221.059 84.6C220.872 84.7067 220.659 84.72 220.419 84.64C220.206 84.56 220.099 84.4533 220.099 84.32C220.099 83.9467 219.859 83.92 219.379 84.24C218.899 84.5333 218.366 85.04 217.779 85.76C217.299 86.24 216.886 86.7333 216.539 87.24C216.219 87.72 216.059 88.0133 216.059 88.12C216.059 88.2267 216.019 88.36 215.939 88.52C215.859 88.68 215.779 88.8667 215.699 89.08C215.566 89.2667 215.406 89.5733 215.219 90C215.032 90.4267 214.846 90.8533 214.659 91.28C214.499 91.68 214.392 91.9867 214.339 92.2C214.339 92.3067 214.339 92.6 214.339 93.08C214.339 93.5333 214.339 93.96 214.339 94.36C214.339 94.8133 214.352 95.2 214.379 95.52C214.432 95.84 214.499 96.12 214.579 96.36C214.659 96.5733 214.766 96.8133 214.899 97.08C215.006 97.2667 215.166 97.4933 215.379 97.76C215.619 98 215.779 98.1733 215.859 98.28C216.152 98.5467 216.392 98.7067 216.579 98.76C216.766 98.7867 217.112 98.7467 217.619 98.64Z" fill="white"/>
<path d="M45 141C80.241 132.181 172.579 115.561 260 119.631" stroke="#91FF6A" stroke-width="2" stroke-linecap="round"/>
<path d="M149.98 44.5424C196.96 44.5424 235.49 27.1358 258.98 2.5" stroke="white" stroke-width="2" stroke-linecap="round"/>
<path d="M217.012 3.29171C223.325 5.89133 240.218 9.0687 258.423 1.65908C259.127 1.37242 259.899 1.92592 259.822 2.68239C258.965 11.0897 256.702 22.2961 242.22 40.5319" stroke="white" stroke-width="2" stroke-linecap="round"/>
</svg>
