<svg width="1060" height="413" viewBox="0 0 1060 413" fill="none" xmlns="http://www.w3.org/2000/svg">
<path d="M157.403 411.04C156.998 411.104 156.624 411.136 156.283 411.136C155.942 411.157 155.44 411.083 154.779 410.912C154.438 410.805 154.192 410.677 154.043 410.528C153.915 410.379 153.691 410.101 153.371 409.696C153.136 409.355 152.966 409.035 152.859 408.736C152.774 408.459 152.763 408.235 152.827 408.064C152.891 407.915 153.03 407.872 153.243 407.936C153.307 407.957 153.403 408.021 153.531 408.128C153.68 408.256 153.819 408.405 153.947 408.576C154.246 408.896 154.608 409.109 155.035 409.216C155.462 409.323 156.027 409.333 156.731 409.248C157.03 409.184 157.392 409.088 157.819 408.96C158.246 408.853 158.662 408.715 159.067 408.544C159.472 408.373 159.792 408.203 160.027 408.032C161.158 407.264 162.064 406.656 162.747 406.208C163.43 405.76 163.771 405.536 163.771 405.536C163.814 405.451 163.888 405.387 163.995 405.344C164.123 405.28 164.272 405.216 164.443 405.152C164.571 405.024 164.774 404.821 165.051 404.544C165.35 404.267 165.627 403.989 165.883 403.712C166.16 403.435 166.331 403.275 166.395 403.232C166.438 403.04 166.48 402.891 166.523 402.784C166.566 402.656 166.587 402.528 166.587 402.4C166.758 402.229 166.982 401.877 167.259 401.344C167.558 400.789 167.856 400.181 168.155 399.52C168.454 398.837 168.667 398.219 168.795 397.664C169.094 396.171 169.168 394.912 169.019 393.888C168.87 392.864 168.56 391.989 168.091 391.264C167.643 390.517 167.078 389.856 166.395 389.28C166.16 389.088 165.83 388.885 165.403 388.672C164.998 388.437 164.571 388.235 164.123 388.064C163.675 387.893 163.28 387.755 162.939 387.648C162.619 387.541 162.427 387.499 162.363 387.52C162.278 387.541 162.096 387.883 161.819 388.544C161.563 389.184 161.254 390.005 160.891 391.008C160.528 392.011 160.134 393.077 159.707 394.208C159.302 395.339 158.918 396.405 158.555 397.408C158.427 397.813 158.288 398.24 158.139 398.688C157.99 399.136 157.862 399.531 157.755 399.872C157.648 400.192 157.595 400.405 157.595 400.512C157.36 400.875 157.168 401.355 157.019 401.952C156.891 402.549 156.742 403.541 156.571 404.928C156.379 405.653 156.24 406.208 156.155 406.592C156.07 406.955 155.984 407.125 155.899 407.104C155.899 407.104 155.888 407.115 155.867 407.136C155.867 407.136 155.835 407.168 155.771 407.232C155.771 407.36 155.686 407.424 155.515 407.424C155.344 407.424 155.142 407.381 154.907 407.296C154.694 407.189 154.523 407.072 154.395 406.944C154.331 406.709 154.288 406.485 154.267 406.272C154.267 406.059 154.352 405.643 154.523 405.024C154.63 404.619 154.758 404.128 154.907 403.552C155.078 402.955 155.259 402.347 155.451 401.728C155.643 401.088 155.824 400.501 155.995 399.968C156.166 399.435 156.294 399.029 156.379 398.752C156.528 398.389 156.742 397.707 157.019 396.704C157.19 396.149 157.36 395.595 157.531 395.04C157.723 394.485 157.904 393.995 158.075 393.568C158.246 393.12 158.363 392.832 158.427 392.704C158.534 392.427 158.694 391.957 158.907 391.296C159.12 390.635 159.398 389.899 159.739 389.088L159.963 388.032L159.611 387.872C159.355 387.957 159.152 387.989 159.003 387.968C158.875 387.925 158.79 387.893 158.747 387.872C158.619 387.915 158.438 387.883 158.203 387.776C157.968 387.669 157.755 387.531 157.563 387.36C157.392 387.189 157.286 387.04 157.243 386.912C157.2 386.827 157.168 386.72 157.147 386.592C157.147 386.443 157.147 386.368 157.147 386.368C157.168 386.24 157.328 386.123 157.627 386.016C157.926 385.888 158.31 385.781 158.779 385.696C159.27 385.611 159.792 385.557 160.347 385.536C160.923 385.493 161.478 385.493 162.011 385.536C162.566 385.579 163.088 385.696 163.579 385.888C164.07 386.08 164.603 386.283 165.179 386.496C165.862 386.752 166.576 387.2 167.323 387.84C168.091 388.459 168.784 389.195 169.403 390.048C170.043 390.901 170.47 391.797 170.683 392.736C170.747 392.992 170.811 393.355 170.875 393.824C170.939 394.293 170.971 394.752 170.971 395.2C170.992 395.627 170.95 395.904 170.843 396.032C170.8 396.117 170.768 396.224 170.747 396.352C170.747 396.459 170.79 396.533 170.875 396.576C170.854 396.64 170.779 396.885 170.651 397.312C170.523 397.717 170.406 398.069 170.299 398.368C170.256 398.923 170.128 399.499 169.915 400.096C169.702 400.693 169.467 401.259 169.211 401.792C168.955 402.304 168.72 402.741 168.507 403.104C168.422 403.104 168.336 403.125 168.251 403.168C168.187 403.189 168.198 403.211 168.283 403.232C168.283 403.339 168.166 403.541 167.931 403.84C167.846 403.904 167.707 404.064 167.515 404.32C167.344 404.555 167.206 404.715 167.099 404.8C167.078 404.949 167.014 405.077 166.907 405.184C166.8 405.269 166.704 405.312 166.619 405.312C166.619 405.312 166.598 405.312 166.555 405.312C166.534 405.312 166.523 405.355 166.523 405.44C166.352 405.696 166.086 406.005 165.723 406.368C165.36 406.709 164.944 407.072 164.475 407.456C164.027 407.819 163.558 408.16 163.067 408.48C162.598 408.8 162.15 409.045 161.723 409.216C161.51 409.365 161.286 409.483 161.051 409.568C160.816 409.675 160.592 409.781 160.379 409.888C160.272 409.973 160.038 410.091 159.675 410.24C159.312 410.411 158.918 410.571 158.491 410.72C158.086 410.869 157.723 410.976 157.403 411.04ZM173.503 408.8C173.396 408.8 173.268 408.747 173.119 408.64C172.97 408.555 172.831 408.437 172.703 408.288C172.596 408.139 172.543 407.979 172.543 407.808C172.543 407.808 172.532 407.744 172.511 407.616C172.511 407.467 172.468 407.317 172.383 407.168C172.383 406.997 172.383 406.805 172.383 406.592C172.404 406.357 172.458 406.123 172.543 405.888C172.543 405.653 172.575 405.397 172.639 405.12C172.703 404.821 172.778 404.597 172.863 404.448C172.863 404.213 172.916 403.915 173.023 403.552C173.151 403.168 173.258 402.816 173.343 402.496C173.578 401.792 173.748 401.28 173.855 400.96C173.983 400.64 174.068 400.405 174.111 400.256C174.154 400.085 174.175 399.915 174.175 399.744C174.239 399.573 174.335 399.264 174.463 398.816C174.591 398.368 174.719 397.909 174.847 397.44C174.996 396.949 175.092 396.597 175.135 396.384C175.22 396.299 175.263 396.224 175.263 396.16C175.284 396.075 175.295 395.989 175.295 395.904C175.295 395.904 175.37 395.659 175.519 395.168C175.668 394.677 175.86 394.112 176.095 393.472C176.479 392.341 176.735 391.52 176.863 391.008C177.012 390.496 177.076 390.133 177.055 389.92C177.055 389.707 177.002 389.493 176.895 389.28C176.746 389.003 176.746 388.789 176.895 388.64C176.98 388.555 177.055 388.459 177.119 388.352C177.183 388.224 177.215 388.16 177.215 388.16C177.215 388.117 177.354 388.043 177.631 387.936C177.908 387.829 178.25 387.712 178.655 387.584C179.06 387.435 179.466 387.296 179.871 387.168C180.298 387.04 180.65 386.933 180.927 386.848C180.991 386.848 181.087 386.848 181.215 386.848C181.364 386.848 181.524 386.848 181.695 386.848C181.887 386.848 182.068 386.848 182.239 386.848C182.794 386.933 183.359 387.093 183.935 387.328C184.532 387.563 185.034 387.893 185.439 388.32C185.695 388.555 185.919 388.832 186.111 389.152C186.324 389.472 186.591 389.995 186.911 390.72C186.911 390.805 186.932 390.987 186.975 391.264C187.039 391.52 187.071 391.776 187.071 392.032C187.071 392.672 186.911 393.344 186.591 394.048C186.271 394.752 185.812 395.467 185.215 396.192C184.618 396.896 183.892 397.6 183.039 398.304C182.143 399.029 181.215 399.52 180.255 399.776C179.295 400.032 178.442 400.085 177.695 399.936C177.546 399.872 177.407 399.744 177.279 399.552C177.172 399.36 177.098 399.168 177.055 398.976C177.012 398.784 177.023 398.656 177.087 398.592C177.258 398.549 177.514 398.539 177.855 398.56C178.196 398.56 178.74 398.421 179.487 398.144C179.722 398.059 179.967 397.963 180.223 397.856C180.479 397.728 180.682 397.621 180.831 397.536C181.258 397.259 181.748 396.885 182.303 396.416C182.858 395.947 183.37 395.339 183.839 394.592C184.031 394.293 184.223 393.941 184.415 393.536C184.607 393.109 184.767 392.683 184.895 392.256C185.044 391.829 185.119 391.477 185.119 391.2C185.29 390.645 185.183 390.187 184.799 389.824C184.436 389.44 183.85 389.205 183.039 389.12C182.783 389.056 182.388 389.077 181.855 389.184C181.322 389.269 180.81 389.387 180.319 389.536C179.828 389.685 179.498 389.813 179.327 389.92C179.242 389.92 179.188 389.984 179.167 390.112C179.146 390.24 179.092 390.389 179.007 390.56C179.007 390.709 178.943 391.029 178.815 391.52C178.687 391.989 178.538 392.427 178.367 392.832C178.218 393.301 178.036 393.824 177.823 394.4C177.61 394.955 177.46 395.392 177.375 395.712C177.29 396.053 177.183 396.384 177.055 396.704C176.948 397.024 176.895 397.184 176.895 397.184C176.895 397.269 176.831 397.451 176.703 397.728C176.596 398.005 176.5 398.304 176.415 398.624C176.33 399.029 176.212 399.488 176.063 400C175.935 400.512 175.786 400.971 175.615 401.376C175.38 402.165 175.178 402.955 175.007 403.744C174.836 404.512 174.826 405.013 174.975 405.248C175.21 405.248 175.295 405.44 175.231 405.824C175.167 406.187 174.975 406.688 174.655 407.328C174.442 407.861 174.282 408.224 174.175 408.416C174.068 408.629 173.972 408.747 173.887 408.768C173.802 408.789 173.674 408.8 173.503 408.8Z" fill="#0A0A0A"/>
<path d="M332.473 410.656C332.473 410.656 332.441 410.635 332.377 410.592C332.313 410.571 332.227 410.549 332.121 410.528C332.035 410.507 331.929 410.496 331.801 410.496C331.459 410.411 331.214 410.219 331.065 409.92C330.915 409.643 330.883 409.333 330.969 408.992C331.054 408.907 331.118 408.725 331.161 408.448C331.203 408.171 331.225 407.947 331.225 407.776C331.31 407.605 331.363 407.488 331.385 407.424C331.406 407.339 331.459 407.125 331.545 406.784C331.609 406.421 331.715 405.92 331.865 405.28C332.035 404.619 332.217 403.915 332.409 403.168C332.622 402.421 332.825 401.707 333.016 401.024C333.209 400.341 333.379 399.765 333.529 399.296C333.699 398.827 333.817 398.56 333.881 398.496C333.881 398.496 333.881 398.464 333.881 398.4C333.881 398.315 333.881 398.229 333.881 398.144C333.881 398.144 333.891 398.048 333.913 397.856C333.955 397.643 334.062 397.408 334.233 397.152C334.318 396.917 334.393 396.661 334.457 396.384C334.521 396.107 334.553 395.925 334.553 395.84C334.638 395.733 334.755 395.477 334.905 395.072C335.075 394.645 335.235 394.229 335.385 393.824C335.513 393.483 335.651 393.12 335.801 392.736C335.971 392.352 336.11 392.021 336.217 391.744C336.345 391.467 336.409 391.328 336.409 391.328C336.409 391.243 336.409 391.2 336.409 391.2C336.409 391.179 336.409 391.168 336.409 391.168C336.494 391.083 336.697 390.656 337.017 389.888C337.358 389.099 337.817 388.085 338.393 386.848C338.478 386.677 338.585 386.485 338.713 386.272C338.841 386.059 338.905 385.909 338.905 385.824C339.011 385.653 339.161 385.579 339.353 385.6C339.545 385.6 339.737 385.664 339.929 385.792C340.142 385.92 340.302 386.101 340.409 386.336L340.729 386.848L339.577 389.152C339.235 389.749 338.947 390.293 338.713 390.784C338.499 391.275 338.393 391.563 338.393 391.648C338.393 391.648 338.329 391.819 338.201 392.16C338.073 392.501 337.923 392.907 337.753 393.376C337.582 393.845 337.433 394.272 337.305 394.656C337.07 395.317 336.846 395.861 336.633 396.288C336.441 396.715 336.345 396.971 336.345 397.056C336.345 397.013 336.579 396.981 337.049 396.96C337.518 396.939 338.115 396.928 338.841 396.928C339.566 396.928 340.302 396.928 341.049 396.928C341.817 396.907 342.489 396.896 343.065 396.896C343.662 396.875 344.067 396.843 344.281 396.8L345.944 396.64L347.033 393.344C347.203 392.747 347.427 392.021 347.705 391.168C347.982 390.315 348.227 389.589 348.441 388.992C348.782 388.011 349.049 387.403 349.241 387.168C349.433 386.933 349.657 386.816 349.913 386.816C349.977 386.816 350.062 386.837 350.169 386.88C350.297 386.901 350.414 386.955 350.521 387.04C350.649 387.104 350.734 387.2 350.777 387.328C351.033 387.563 351.15 387.829 351.129 388.128C351.129 388.427 350.958 388.821 350.617 389.312C350.275 389.888 349.987 390.517 349.753 391.2C349.539 391.861 349.347 392.405 349.177 392.832C349.177 393.088 349.145 393.301 349.081 393.472C349.017 393.621 348.942 393.739 348.857 393.824C348.814 393.867 348.729 394.027 348.601 394.304C348.473 394.581 348.355 394.859 348.249 395.136C348.142 395.413 348.089 395.584 348.089 395.648C348.089 395.797 348.057 395.979 347.993 396.192C347.929 396.405 347.854 396.555 347.769 396.64C347.726 396.768 347.63 397.088 347.481 397.6C347.331 398.112 347.161 398.72 346.969 399.424C346.777 400.107 346.574 400.779 346.361 401.44C346.147 402.08 345.955 402.613 345.785 403.04C345.785 403.189 345.731 403.381 345.625 403.616C345.518 403.829 345.465 404.021 345.465 404.192C345.379 404.448 345.273 404.768 345.145 405.152C345.017 405.536 344.953 405.781 344.953 405.888C344.846 406.379 344.729 406.88 344.601 407.392C344.494 407.904 344.398 408.341 344.312 408.704C344.249 409.088 344.217 409.312 344.217 409.376C344.131 409.461 344.003 409.472 343.833 409.408C343.662 409.344 343.459 409.269 343.225 409.184C342.819 408.949 342.574 408.693 342.489 408.416C342.425 408.16 342.51 407.787 342.745 407.296C342.851 407.125 342.979 406.709 343.129 406.048C343.299 405.365 343.47 404.693 343.641 404.032C343.769 403.712 343.907 403.285 344.057 402.752C344.206 402.197 344.355 401.643 344.505 401.088C344.654 400.512 344.782 400.032 344.889 399.648C344.995 399.243 345.07 399.019 345.113 398.976C345.113 398.891 345.113 398.816 345.113 398.752C345.113 398.688 345.113 398.656 345.113 398.656C345.07 398.613 344.803 398.581 344.312 398.56C343.822 398.517 343.214 398.507 342.489 398.528C341.763 398.528 341.006 398.549 340.217 398.592C339.449 398.613 338.755 398.667 338.137 398.752C337.902 398.752 337.635 398.752 337.337 398.752C337.038 398.752 336.803 398.752 336.633 398.752C336.398 398.752 336.195 398.752 336.025 398.752C335.875 398.752 335.801 398.752 335.801 398.752C335.779 398.816 335.705 399.04 335.577 399.424C335.449 399.808 335.299 400.277 335.129 400.832C334.958 401.365 334.777 401.92 334.585 402.496C334.414 403.051 334.265 403.563 334.137 404.032C334.03 404.48 333.955 404.8 333.913 404.992C333.827 405.376 333.71 405.856 333.561 406.432C333.433 407.008 333.283 407.595 333.113 408.192C332.963 408.811 332.825 409.344 332.697 409.792C332.59 410.24 332.515 410.528 332.473 410.656ZM353.8 409.152C352.989 409.152 352.242 409.013 351.56 408.736C350.898 408.459 350.482 407.861 350.312 406.944C350.333 406.475 350.354 406.176 350.376 406.048C350.418 405.92 350.504 405.856 350.632 405.856C350.717 405.856 350.781 405.845 350.824 405.824C350.888 405.781 350.92 405.685 350.92 405.536C350.941 405.216 350.994 404.832 351.08 404.384C351.165 403.915 351.272 403.477 351.4 403.072C351.528 402.645 351.645 402.347 351.752 402.176C351.858 401.771 352.018 401.227 352.232 400.544C352.466 399.861 352.701 399.147 352.936 398.4C353.192 397.632 353.426 396.939 353.64 396.32C353.853 395.701 354.013 395.264 354.12 395.008C354.226 394.731 354.376 394.368 354.568 393.92C354.76 393.451 354.898 393.045 354.984 392.704C355.133 392.341 355.293 391.925 355.464 391.456C355.634 390.987 355.794 390.635 355.944 390.4L356.36 389.472L355.624 388.832C355.325 388.533 355.176 388.245 355.176 387.968C355.176 387.669 355.378 387.413 355.784 387.2C356.189 386.965 356.637 386.805 357.128 386.72C357.341 386.677 357.565 386.656 357.8 386.656C358.056 386.656 358.312 386.656 358.568 386.656C359.122 386.656 359.688 386.677 360.264 386.72C360.84 386.763 361.32 386.816 361.704 386.88C361.938 386.923 362.216 387.019 362.536 387.168C362.877 387.296 363.197 387.445 363.496 387.616C363.816 387.787 364.04 387.947 364.168 388.096C364.168 388.096 364.2 388.139 364.264 388.224C364.349 388.288 364.434 388.32 364.52 388.32C364.648 388.384 364.861 388.619 365.16 389.024C365.48 389.408 365.789 389.845 366.088 390.336C366.386 390.827 366.568 391.264 366.632 391.648C366.696 391.968 366.738 392.299 366.76 392.64C366.802 392.96 366.824 393.269 366.824 393.568C366.802 394.016 366.77 394.464 366.728 394.912C366.706 395.36 366.653 395.829 366.568 396.32C366.504 396.768 366.376 397.269 366.184 397.824C365.992 398.379 365.789 398.901 365.576 399.392C365.384 399.883 365.202 400.288 365.032 400.608C364.882 400.928 364.786 401.088 364.744 401.088C364.616 401.088 364.541 401.12 364.52 401.184C364.498 401.248 364.488 401.323 364.488 401.408C364.466 401.6 364.349 401.909 364.136 402.336C363.944 402.741 363.688 403.189 363.368 403.68C363.048 404.149 362.717 404.597 362.376 405.024C362.034 405.429 361.704 405.739 361.384 405.952C360.744 406.635 359.986 407.221 359.112 407.712C358.237 408.181 357.33 408.533 356.392 408.768C355.474 409.024 354.61 409.152 353.8 409.152ZM353.768 407.232C353.981 407.232 354.333 407.221 354.824 407.2C355.336 407.157 355.741 407.072 356.04 406.944C356.594 406.795 357.245 406.507 357.992 406.08C358.76 405.632 359.453 405.088 360.072 404.448C360.754 403.744 361.373 403.008 361.928 402.24C362.482 401.451 363.026 400.395 363.56 399.072C363.922 398.197 364.189 397.301 364.36 396.384C364.552 395.445 364.648 394.613 364.648 393.888C364.648 392.587 364.402 391.531 363.912 390.72C363.421 389.888 362.781 389.333 361.992 389.056C361.693 388.928 361.373 388.843 361.032 388.8C360.69 388.736 360.37 388.704 360.072 388.704C359.858 388.704 359.624 388.715 359.368 388.736C359.133 388.757 358.984 388.789 358.92 388.832C358.749 388.832 358.557 389.013 358.344 389.376C358.13 389.739 357.928 390.187 357.736 390.72C357.565 391.253 357.405 391.776 357.256 392.288C357.085 392.949 356.925 393.472 356.776 393.856C356.626 394.24 356.466 394.635 356.296 395.04C356.146 395.424 355.954 395.979 355.72 396.704C355.421 397.301 355.165 397.909 354.952 398.528C354.738 399.147 354.557 399.691 354.408 400.16C354.28 400.608 354.184 400.917 354.12 401.088C353.992 401.365 353.853 401.771 353.704 402.304C353.554 402.816 353.416 403.371 353.288 403.968C353.16 404.565 353.053 405.12 352.968 405.632C352.904 406.144 352.872 406.528 352.872 406.784C352.872 406.976 352.968 407.104 353.16 407.168C353.352 407.211 353.554 407.232 353.768 407.232ZM385.612 409.664C385.398 409.621 385.228 409.536 385.1 409.408C384.993 409.301 384.918 409.067 384.876 408.704C384.79 408.363 384.748 407.787 384.748 406.976C384.748 406.165 384.78 405.28 384.844 404.32C384.929 403.36 385.004 402.475 385.068 401.664C385.174 401.387 385.217 401.099 385.196 400.8C385.174 400.501 385.142 400.309 385.1 400.224C385.1 400.117 385.1 399.989 385.1 399.84C385.121 399.669 385.174 399.541 385.26 399.456C385.26 399.264 385.26 399.051 385.26 398.816C385.26 398.581 385.281 398.368 385.324 398.176C385.43 397.984 385.505 397.749 385.548 397.472C385.612 397.195 385.633 396.96 385.612 396.768C385.697 396.469 385.772 396.213 385.836 396C385.9 395.765 385.932 395.605 385.932 395.52C385.91 395.413 385.9 395.264 385.9 395.072C385.9 394.88 385.878 394.72 385.836 394.592C385.942 394.293 386.038 393.899 386.124 393.408C386.209 392.896 386.273 392.437 386.316 392.032C386.38 391.605 386.412 391.392 386.412 391.392C386.412 391.392 386.294 391.531 386.06 391.808C385.846 392.064 385.558 392.427 385.196 392.896C384.833 393.365 384.438 393.909 384.012 394.528C383.414 395.488 382.881 396.299 382.412 396.96C381.942 397.621 381.516 398.251 381.132 398.848C380.748 399.424 380.396 400.064 380.076 400.768C380.054 400.96 379.926 401.227 379.692 401.568C379.457 401.888 379.212 402.24 378.956 402.624C378.742 403.093 378.529 403.413 378.316 403.584C378.124 403.733 377.889 403.84 377.612 403.904C376.972 403.989 376.492 403.723 376.172 403.104C375.852 402.485 375.628 401.376 375.5 399.776C375.372 399.264 375.276 398.731 375.212 398.176C375.169 397.621 375.126 397.259 375.084 397.088C375.126 396.789 375.148 396.459 375.148 396.096C375.169 395.712 375.169 395.381 375.148 395.104C375.148 394.805 375.148 394.656 375.148 394.656C375.148 394.656 375.062 394.752 374.892 394.944C374.742 395.115 374.582 395.317 374.412 395.552C374.39 395.808 374.337 396.064 374.252 396.32C374.166 396.576 374.092 396.747 374.028 396.832C373.921 397.024 373.761 397.419 373.548 398.016C373.356 398.592 373.121 399.2 372.844 399.84C372.588 400.693 372.374 401.344 372.204 401.792C372.054 402.24 371.926 402.603 371.82 402.88C371.713 403.136 371.596 403.403 371.468 403.68C371.34 403.957 371.18 404.341 370.988 404.832C370.796 405.259 370.614 405.717 370.444 406.208C370.294 406.699 370.166 407.008 370.06 407.136C370.017 407.221 369.91 407.435 369.74 407.776C369.569 408.096 369.43 408.405 369.324 408.704C369.025 409.301 368.769 409.653 368.556 409.76C368.342 409.867 368.022 409.749 367.596 409.408C367.19 409.216 366.998 408.949 367.02 408.608C367.041 408.288 367.233 407.84 367.596 407.264C367.766 406.816 368.033 406.283 368.396 405.664C368.758 405.045 369.046 404.523 369.26 404.096C369.238 404.011 369.356 403.637 369.612 402.976C369.868 402.315 370.156 401.547 370.476 400.672C370.817 399.84 371.126 399.051 371.404 398.304C371.702 397.536 371.948 396.896 372.14 396.384C372.332 395.851 372.438 395.552 372.46 395.488C372.46 395.403 372.481 395.317 372.524 395.232C372.566 395.147 372.63 395.008 372.716 394.816C372.758 394.667 372.833 394.475 372.94 394.24C373.046 393.984 373.121 393.803 373.164 393.696C373.27 393.547 373.356 393.397 373.42 393.248C373.505 393.077 373.526 392.949 373.484 392.864C373.462 392.8 373.484 392.757 373.548 392.736C373.633 392.715 373.676 392.704 373.676 392.704C373.761 392.704 373.804 392.661 373.804 392.576C373.804 392.491 373.836 392.405 373.9 392.32C373.942 392.043 374.017 391.755 374.124 391.456C374.23 391.136 374.326 390.965 374.412 390.944C374.497 390.923 374.54 390.88 374.54 390.816C374.54 390.731 374.582 390.613 374.668 390.464C374.646 390.315 374.646 390.176 374.668 390.048C374.71 389.92 374.732 389.835 374.732 389.792C374.838 389.643 374.934 389.525 375.02 389.44C375.105 389.355 375.18 389.269 375.244 389.184C375.244 389.184 375.286 389.056 375.372 388.8C375.457 388.544 375.564 388.32 375.692 388.128C375.734 388 375.788 387.861 375.852 387.712C375.937 387.563 376.022 387.413 376.108 387.264C376.193 387.115 376.257 386.997 376.3 386.912C376.449 386.635 376.673 386.507 376.972 386.528C377.27 386.549 377.622 386.763 378.028 387.168C378.22 387.317 378.348 387.477 378.412 387.648C378.497 387.797 378.497 387.925 378.412 388.032C378.412 388.032 378.38 388.043 378.316 388.064C378.273 388.064 378.252 388.117 378.252 388.224C378.252 388.224 378.262 388.341 378.284 388.576C378.305 388.789 378.273 389.035 378.188 389.312C378.038 389.845 377.9 390.379 377.772 390.912C377.665 391.445 377.569 391.904 377.484 392.288C377.42 392.651 377.388 392.875 377.388 392.96C377.388 393.045 377.377 393.131 377.356 393.216C377.334 393.301 377.27 393.344 377.164 393.344C377.164 393.344 377.142 393.387 377.1 393.472C377.057 393.536 377.036 393.6 377.036 393.664C377.142 393.835 377.174 394.101 377.132 394.464C377.089 394.805 377.036 395.157 376.972 395.52C376.929 396.181 376.918 396.907 376.94 397.696C376.961 398.485 377.004 399.168 377.068 399.744C377.153 400.32 377.249 400.64 377.356 400.704C377.441 400.704 377.601 400.576 377.836 400.32C378.07 400.043 378.337 399.616 378.636 399.04C379.02 398.443 379.308 397.973 379.5 397.632C379.713 397.291 379.905 397.003 380.076 396.768C380.246 396.512 380.438 396.235 380.652 395.936C380.886 395.616 381.206 395.189 381.612 394.656C381.953 394.08 382.294 393.579 382.636 393.152C382.998 392.725 383.233 392.469 383.34 392.384C383.51 392.341 383.628 392.245 383.692 392.096C383.777 391.925 383.82 391.84 383.82 391.84C383.756 391.712 383.809 391.499 383.98 391.2C384.15 390.901 384.396 390.528 384.716 390.08C385.057 389.611 385.42 389.088 385.804 388.512C386.166 388.043 386.476 387.712 386.732 387.52C387.009 387.328 387.276 387.264 387.532 387.328C387.788 387.371 388.065 387.52 388.364 387.776C388.598 387.947 388.78 388.149 388.908 388.384C389.036 388.597 389.1 388.789 389.1 388.96C389.121 389.131 389.068 389.237 388.94 389.28C388.854 389.301 388.812 389.323 388.812 389.344C388.833 389.344 388.886 389.387 388.972 389.472C388.972 389.472 388.95 389.557 388.908 389.728C388.886 389.899 388.854 390.144 388.812 390.464C388.726 390.635 388.652 390.976 388.588 391.488C388.524 391.979 388.438 392.437 388.332 392.864C388.246 393.205 388.172 393.579 388.108 393.984C388.044 394.368 387.99 394.656 387.948 394.848C387.905 394.976 387.852 395.211 387.788 395.552C387.724 395.872 387.67 396.181 387.628 396.48C387.564 396.928 387.489 397.483 387.404 398.144C387.34 398.805 387.265 399.477 387.18 400.16C387.094 400.843 387.02 401.451 386.956 401.984C386.892 402.496 386.838 402.827 386.796 402.976C386.774 403.211 386.742 403.563 386.7 404.032C386.678 404.501 386.657 405.003 386.636 405.536C386.636 406.069 386.646 406.581 386.668 407.072C386.71 407.563 386.764 407.947 386.828 408.224C386.849 408.672 386.87 408.96 386.892 409.088C386.913 409.216 386.902 409.333 386.86 409.44C386.668 409.653 386.486 409.781 386.316 409.824C386.166 409.867 385.932 409.813 385.612 409.664ZM394.019 408.992C393.87 408.757 393.528 408.608 392.995 408.544C392.483 408.48 391.854 408.469 391.107 408.512C390.808 408.555 390.52 408.533 390.243 408.448C389.966 408.384 389.742 408.267 389.571 408.096C389.422 407.947 389.368 407.787 389.411 407.616C389.432 407.36 389.646 407.157 390.051 407.008C390.478 406.859 391.15 406.773 392.067 406.752L393.763 406.72L394.083 406.08C394.168 405.845 394.275 405.515 394.403 405.088C394.531 404.661 394.67 404.203 394.819 403.712C394.904 403.413 395.032 403.008 395.203 402.496C395.374 401.984 395.555 401.44 395.747 400.864C395.939 400.288 396.11 399.776 396.259 399.328C396.408 398.859 396.504 398.528 396.547 398.336C396.632 398.144 396.75 397.824 396.899 397.376C397.048 396.907 397.187 396.437 397.315 395.968C397.464 395.477 397.56 395.125 397.603 394.912C398.158 393.227 398.52 392.032 398.691 391.328C398.862 390.603 398.904 390.229 398.819 390.208C398.734 390.208 398.52 390.219 398.179 390.24C397.859 390.261 397.496 390.293 397.091 390.336C396.707 390.357 396.355 390.389 396.035 390.432C395.736 390.475 395.555 390.517 395.491 390.56C395.384 390.709 395.203 390.741 394.947 390.656C394.691 390.571 394.531 390.421 394.467 390.208C394.446 390.016 394.435 389.867 394.435 389.76C394.456 389.653 394.52 389.568 394.627 389.504C394.776 389.376 395.064 389.237 395.491 389.088C395.918 388.917 396.398 388.768 396.931 388.64C397.486 388.512 398.008 388.416 398.499 388.352C398.862 388.309 399.224 388.235 399.587 388.128C399.95 388 400.238 387.851 400.451 387.68C400.643 387.616 400.824 387.563 400.995 387.52C401.187 387.477 401.379 387.467 401.571 387.488C401.742 387.595 402.03 387.648 402.435 387.648C402.862 387.648 403.31 387.637 403.779 387.616C404.974 387.509 405.774 387.477 406.179 387.52C406.606 387.563 406.894 387.733 407.043 388.032C407.15 388.437 407.171 388.757 407.107 388.992C407.043 389.205 406.83 389.301 406.467 389.28C406.275 389.323 405.923 389.365 405.411 389.408C404.92 389.429 404.398 389.451 403.843 389.472C402.328 389.6 401.518 389.749 401.411 389.92C401.326 390.005 401.251 390.091 401.187 390.176C401.144 390.261 401.08 390.357 400.995 390.464C401.016 390.549 400.963 390.827 400.835 391.296C400.728 391.744 400.59 392.203 400.419 392.672C400.334 392.949 400.206 393.344 400.035 393.856C399.864 394.368 399.683 394.901 399.491 395.456C399.32 395.989 399.16 396.48 399.011 396.928C398.862 397.355 398.755 397.643 398.691 397.792C398.606 397.984 398.531 398.197 398.467 398.432C398.424 398.645 398.392 398.805 398.371 398.912C398.072 399.957 397.806 400.843 397.571 401.568C397.358 402.293 397.155 402.933 396.963 403.488C396.792 404.021 396.632 404.544 396.483 405.056C396.334 405.547 396.174 406.091 396.003 406.688C396.003 406.688 396.163 406.677 396.483 406.656C396.824 406.613 397.272 406.571 397.827 406.528C398.83 406.421 399.544 406.357 399.971 406.336C400.419 406.315 400.718 406.347 400.867 406.432C401.016 406.496 401.123 406.624 401.187 406.816C401.614 407.392 401.667 407.787 401.347 408C401.027 408.213 400.27 408.309 399.075 408.288C397.966 408.331 397.112 408.363 396.515 408.384C395.939 408.427 395.534 408.48 395.299 408.544C395.086 408.608 394.958 408.715 394.915 408.864C394.915 409.035 394.83 409.12 394.659 409.12C394.488 409.12 394.275 409.077 394.019 408.992Z" fill="#0A0A0A"/>
<path d="M628.231 411.04C627.826 411.104 627.453 411.136 627.111 411.136C626.77 411.157 626.269 411.083 625.607 410.912C625.266 410.805 625.021 410.677 624.871 410.528C624.743 410.379 624.519 410.101 624.199 409.696C623.965 409.355 623.794 409.035 623.687 408.736C623.602 408.459 623.591 408.235 623.655 408.064C623.719 407.915 623.858 407.872 624.071 407.936C624.135 407.957 624.231 408.021 624.359 408.128C624.509 408.256 624.647 408.405 624.775 408.576C625.074 408.896 625.437 409.109 625.863 409.216C626.29 409.323 626.855 409.333 627.559 409.248C627.858 409.184 628.221 409.088 628.647 408.96C629.074 408.853 629.49 408.715 629.895 408.544C630.301 408.373 630.621 408.203 630.855 408.032C631.986 407.264 632.893 406.656 633.575 406.208C634.258 405.76 634.599 405.536 634.599 405.536C634.642 405.451 634.717 405.387 634.823 405.344C634.951 405.28 635.101 405.216 635.271 405.152C635.399 405.024 635.602 404.821 635.879 404.544C636.178 404.267 636.455 403.989 636.711 403.712C636.989 403.435 637.159 403.275 637.223 403.232C637.266 403.04 637.309 402.891 637.351 402.784C637.394 402.656 637.415 402.528 637.415 402.4C637.586 402.229 637.81 401.877 638.087 401.344C638.386 400.789 638.685 400.181 638.983 399.52C639.282 398.837 639.495 398.219 639.623 397.664C639.922 396.171 639.997 394.912 639.847 393.888C639.698 392.864 639.389 391.989 638.919 391.264C638.471 390.517 637.906 389.856 637.223 389.28C636.989 389.088 636.658 388.885 636.231 388.672C635.826 388.437 635.399 388.235 634.951 388.064C634.503 387.893 634.109 387.755 633.767 387.648C633.447 387.541 633.255 387.499 633.191 387.52C633.106 387.541 632.925 387.883 632.647 388.544C632.391 389.184 632.082 390.005 631.719 391.008C631.357 392.011 630.962 393.077 630.535 394.208C630.13 395.339 629.746 396.405 629.383 397.408C629.255 397.813 629.117 398.24 628.967 398.688C628.818 399.136 628.69 399.531 628.583 399.872C628.477 400.192 628.423 400.405 628.423 400.512C628.189 400.875 627.997 401.355 627.847 401.952C627.719 402.549 627.57 403.541 627.399 404.928C627.207 405.653 627.069 406.208 626.983 406.592C626.898 406.955 626.813 407.125 626.727 407.104C626.727 407.104 626.717 407.115 626.695 407.136C626.695 407.136 626.663 407.168 626.599 407.232C626.599 407.36 626.514 407.424 626.343 407.424C626.173 407.424 625.97 407.381 625.735 407.296C625.522 407.189 625.351 407.072 625.223 406.944C625.159 406.709 625.117 406.485 625.095 406.272C625.095 406.059 625.181 405.643 625.351 405.024C625.458 404.619 625.586 404.128 625.735 403.552C625.906 402.955 626.087 402.347 626.279 401.728C626.471 401.088 626.653 400.501 626.823 399.968C626.994 399.435 627.122 399.029 627.207 398.752C627.357 398.389 627.57 397.707 627.847 396.704C628.018 396.149 628.189 395.595 628.359 395.04C628.551 394.485 628.733 393.995 628.903 393.568C629.074 393.12 629.191 392.832 629.255 392.704C629.362 392.427 629.522 391.957 629.735 391.296C629.949 390.635 630.226 389.899 630.567 389.088L630.791 388.032L630.439 387.872C630.183 387.957 629.981 387.989 629.831 387.968C629.703 387.925 629.618 387.893 629.575 387.872C629.447 387.915 629.266 387.883 629.031 387.776C628.797 387.669 628.583 387.531 628.391 387.36C628.221 387.189 628.114 387.04 628.071 386.912C628.029 386.827 627.997 386.72 627.975 386.592C627.975 386.443 627.975 386.368 627.975 386.368C627.997 386.24 628.157 386.123 628.455 386.016C628.754 385.888 629.138 385.781 629.607 385.696C630.098 385.611 630.621 385.557 631.175 385.536C631.751 385.493 632.306 385.493 632.839 385.536C633.394 385.579 633.917 385.696 634.407 385.888C634.898 386.08 635.431 386.283 636.007 386.496C636.69 386.752 637.405 387.2 638.151 387.84C638.919 388.459 639.613 389.195 640.231 390.048C640.871 390.901 641.298 391.797 641.511 392.736C641.575 392.992 641.639 393.355 641.703 393.824C641.767 394.293 641.799 394.752 641.799 395.2C641.821 395.627 641.778 395.904 641.671 396.032C641.629 396.117 641.597 396.224 641.575 396.352C641.575 396.459 641.618 396.533 641.703 396.576C641.682 396.64 641.607 396.885 641.479 397.312C641.351 397.717 641.234 398.069 641.127 398.368C641.085 398.923 640.957 399.499 640.743 400.096C640.53 400.693 640.295 401.259 640.039 401.792C639.783 402.304 639.549 402.741 639.335 403.104C639.25 403.104 639.165 403.125 639.079 403.168C639.015 403.189 639.026 403.211 639.111 403.232C639.111 403.339 638.994 403.541 638.759 403.84C638.674 403.904 638.535 404.064 638.343 404.32C638.173 404.555 638.034 404.715 637.927 404.8C637.906 404.949 637.842 405.077 637.735 405.184C637.629 405.269 637.533 405.312 637.447 405.312C637.447 405.312 637.426 405.312 637.383 405.312C637.362 405.312 637.351 405.355 637.351 405.44C637.181 405.696 636.914 406.005 636.551 406.368C636.189 406.709 635.773 407.072 635.303 407.456C634.855 407.819 634.386 408.16 633.895 408.48C633.426 408.8 632.978 409.045 632.551 409.216C632.338 409.365 632.114 409.483 631.879 409.568C631.645 409.675 631.421 409.781 631.207 409.888C631.101 409.973 630.866 410.091 630.503 410.24C630.141 410.411 629.746 410.571 629.319 410.72C628.914 410.869 628.551 410.976 628.231 411.04ZM647.339 408.576C647.339 408.576 647.286 408.565 647.179 408.544C647.094 408.523 646.998 408.437 646.891 408.288C646.486 408.395 646.209 408.256 646.059 407.872C645.931 407.467 645.91 406.816 645.995 405.92C646.123 404.939 646.198 404.011 646.219 403.136C646.241 402.24 646.241 401.216 646.219 400.064C646.198 399.893 646.198 399.712 646.219 399.52C646.262 399.307 646.283 399.157 646.283 399.072C646.305 398.752 646.315 398.315 646.315 397.76C646.315 397.184 646.315 396.619 646.315 396.064C646.315 395.509 646.337 395.104 646.379 394.848C646.358 394.635 646.347 394.432 646.347 394.24C646.347 394.027 646.347 393.813 646.347 393.6C646.369 393.365 646.379 393.131 646.379 392.896C646.358 392.811 646.326 392.587 646.283 392.224C646.262 391.84 646.23 391.413 646.187 390.944C646.209 390.496 646.198 390.176 646.155 389.984C646.134 389.771 646.102 389.611 646.059 389.504C646.017 389.376 645.953 389.237 645.867 389.088C645.654 388.917 645.515 388.779 645.451 388.672C645.409 388.565 645.419 388.469 645.483 388.384C645.547 388.299 645.643 388.224 645.771 388.16C645.899 388.075 646.049 388.032 646.219 388.032C646.39 388.032 646.571 388.064 646.763 388.128C646.977 388.192 647.201 388.299 647.435 388.448C647.521 388.448 647.585 388.533 647.627 388.704C647.691 388.875 647.83 389.109 648.043 389.408C648.15 389.536 648.214 389.835 648.235 390.304C648.257 390.752 648.267 391.296 648.267 391.936C648.267 392.555 648.246 393.184 648.203 393.824C648.182 394.464 648.15 395.04 648.107 395.552C648.129 395.723 648.139 395.915 648.139 396.128C648.139 396.341 648.139 396.565 648.139 396.8C648.139 397.035 648.139 397.259 648.139 397.472C648.161 397.664 648.182 397.845 648.203 398.016C648.225 398.251 648.235 398.571 648.235 398.976C648.257 399.36 648.246 399.637 648.203 399.808C648.161 399.957 648.139 400.149 648.139 400.384C648.139 400.597 648.139 400.928 648.139 401.376C648.161 401.803 648.182 402.432 648.203 403.264C648.182 403.691 648.161 404.085 648.139 404.448C648.139 404.811 648.15 405.088 648.171 405.28C648.214 405.472 648.289 405.536 648.395 405.472C648.609 404.917 648.801 404.437 648.971 404.032C649.142 403.605 649.355 403.136 649.611 402.624C649.654 402.56 649.739 402.389 649.867 402.112C650.017 401.835 650.145 401.557 650.251 401.28C650.379 400.981 650.433 400.811 650.411 400.768C650.411 400.768 650.433 400.725 650.475 400.64C650.518 400.533 650.582 400.416 650.667 400.288C650.753 400.16 650.859 400.043 650.987 399.936C651.158 399.701 651.254 399.52 651.275 399.392C651.318 399.264 651.478 399.029 651.755 398.688C651.947 398.368 652.203 397.899 652.523 397.28C652.865 396.661 653.217 396 653.579 395.296C653.963 394.592 654.326 393.941 654.667 393.344C655.03 392.747 655.318 392.309 655.531 392.032C655.574 391.925 655.617 391.819 655.659 391.712C655.723 391.605 655.777 391.509 655.819 391.424C655.883 391.317 655.947 391.232 656.011 391.168C656.075 391.104 656.15 391.051 656.235 391.008C656.278 390.837 656.385 390.603 656.555 390.304C656.747 390.005 656.897 389.707 657.003 389.408C657.537 388.747 657.921 388.224 658.155 387.84C658.411 387.435 658.614 387.136 658.763 386.944C658.955 386.752 659.126 386.603 659.275 386.496C659.446 386.368 659.574 386.304 659.659 386.304C659.83 386.347 660.033 386.475 660.267 386.688C660.502 386.88 660.705 387.093 660.875 387.328C661.046 387.541 661.11 387.701 661.067 387.808C661.003 387.872 660.897 388.021 660.747 388.256C660.598 388.469 660.395 388.736 660.139 389.056C659.905 389.355 659.627 389.664 659.307 389.984C659.115 390.197 658.923 390.507 658.731 390.912C658.539 391.296 658.326 391.637 658.091 391.936C657.942 392.235 657.729 392.587 657.451 392.992C657.174 393.376 656.95 393.696 656.779 393.952C656.673 394.208 656.545 394.432 656.395 394.624C656.246 394.795 656.086 394.987 655.915 395.2C655.958 395.349 655.937 395.456 655.851 395.52C655.766 395.584 655.702 395.659 655.659 395.744C655.403 396.32 655.211 396.725 655.083 396.96C654.955 397.195 654.774 397.461 654.539 397.76C654.454 397.909 654.337 398.091 654.187 398.304C654.038 398.496 653.921 398.72 653.835 398.976C653.686 399.125 653.579 399.253 653.515 399.36C653.451 399.445 653.43 399.541 653.451 399.648C653.451 399.648 653.387 399.765 653.259 400C653.131 400.235 653.014 400.533 652.907 400.896C652.758 401.131 652.598 401.376 652.427 401.632C652.257 401.888 652.129 402.133 652.043 402.368C651.979 402.475 651.894 402.581 651.787 402.688C651.681 402.773 651.627 402.859 651.627 402.944C651.542 403.029 651.435 403.2 651.307 403.456C651.179 403.691 651.041 403.979 650.891 404.32C650.699 404.576 650.486 404.96 650.251 405.472C650.017 405.963 649.814 406.336 649.643 406.592C649.537 406.869 649.387 407.179 649.195 407.52C649.003 407.861 648.854 408.117 648.747 408.288C648.598 408.651 648.395 408.875 648.139 408.96C647.905 409.045 647.638 408.917 647.339 408.576ZM661.363 408.992C661.213 408.757 660.872 408.608 660.339 408.544C659.827 408.48 659.197 408.469 658.451 408.512C658.152 408.555 657.864 408.533 657.587 408.448C657.309 408.384 657.085 408.267 656.915 408.096C656.765 407.947 656.712 407.787 656.755 407.616C656.776 407.36 656.989 407.157 657.395 407.008C657.821 406.859 658.493 406.773 659.411 406.752L661.107 406.72L661.427 406.08C661.512 405.845 661.619 405.515 661.747 405.088C661.875 404.661 662.013 404.203 662.163 403.712C662.248 403.413 662.376 403.008 662.547 402.496C662.717 401.984 662.899 401.44 663.091 400.864C663.283 400.288 663.453 399.776 663.603 399.328C663.752 398.859 663.848 398.528 663.891 398.336C663.976 398.144 664.093 397.824 664.243 397.376C664.392 396.907 664.531 396.437 664.659 395.968C664.808 395.477 664.904 395.125 664.947 394.912C665.501 393.227 665.864 392.032 666.035 391.328C666.205 390.603 666.248 390.229 666.163 390.208C666.077 390.208 665.864 390.219 665.523 390.24C665.203 390.261 664.84 390.293 664.435 390.336C664.051 390.357 663.699 390.389 663.379 390.432C663.08 390.475 662.899 390.517 662.835 390.56C662.728 390.709 662.547 390.741 662.291 390.656C662.035 390.571 661.875 390.421 661.811 390.208C661.789 390.016 661.779 389.867 661.779 389.76C661.8 389.653 661.864 389.568 661.971 389.504C662.12 389.376 662.408 389.237 662.835 389.088C663.261 388.917 663.741 388.768 664.275 388.64C664.829 388.512 665.352 388.416 665.843 388.352C666.205 388.309 666.568 388.235 666.931 388.128C667.293 388 667.581 387.851 667.795 387.68C667.987 387.616 668.168 387.563 668.339 387.52C668.531 387.477 668.723 387.467 668.915 387.488C669.085 387.595 669.373 387.648 669.779 387.648C670.205 387.648 670.653 387.637 671.123 387.616C672.317 387.509 673.117 387.477 673.523 387.52C673.949 387.563 674.237 387.733 674.387 388.032C674.493 388.437 674.515 388.757 674.451 388.992C674.387 389.205 674.173 389.301 673.811 389.28C673.619 389.323 673.267 389.365 672.755 389.408C672.264 389.429 671.741 389.451 671.187 389.472C669.672 389.6 668.861 389.749 668.755 389.92C668.669 390.005 668.595 390.091 668.531 390.176C668.488 390.261 668.424 390.357 668.339 390.464C668.36 390.549 668.307 390.827 668.179 391.296C668.072 391.744 667.933 392.203 667.763 392.672C667.677 392.949 667.549 393.344 667.379 393.856C667.208 394.368 667.027 394.901 666.835 395.456C666.664 395.989 666.504 396.48 666.355 396.928C666.205 397.355 666.099 397.643 666.035 397.792C665.949 397.984 665.875 398.197 665.811 398.432C665.768 398.645 665.736 398.805 665.715 398.912C665.416 399.957 665.149 400.843 664.915 401.568C664.701 402.293 664.499 402.933 664.307 403.488C664.136 404.021 663.976 404.544 663.827 405.056C663.677 405.547 663.517 406.091 663.347 406.688C663.347 406.688 663.507 406.677 663.827 406.656C664.168 406.613 664.616 406.571 665.171 406.528C666.173 406.421 666.888 406.357 667.315 406.336C667.763 406.315 668.061 406.347 668.211 406.432C668.36 406.496 668.467 406.624 668.531 406.816C668.957 407.392 669.011 407.787 668.691 408C668.371 408.213 667.613 408.309 666.419 408.288C665.309 408.331 664.456 408.363 663.859 408.384C663.283 408.427 662.877 408.48 662.643 408.544C662.429 408.608 662.301 408.715 662.259 408.864C662.259 409.035 662.173 409.12 662.003 409.12C661.832 409.12 661.619 409.077 661.363 408.992ZM673.727 402.304C673.599 402.304 673.439 402.304 673.247 402.304C673.055 402.283 672.842 402.229 672.607 402.144C672.287 402.144 672.074 402.112 671.967 402.048C671.861 401.963 671.765 401.845 671.679 401.696C671.445 401.376 671.423 401.163 671.615 401.056C671.807 400.928 672.298 400.821 673.087 400.736C673.813 400.565 674.485 400.448 675.103 400.384C675.722 400.32 676.458 400.288 677.311 400.288C677.866 400.288 678.239 400.309 678.431 400.352C678.623 400.395 678.837 400.533 679.071 400.768C679.391 401.088 679.509 401.397 679.423 401.696C679.338 401.973 679.05 402.069 678.559 401.984C678.41 402.005 678.133 402.027 677.727 402.048C677.322 402.069 676.927 402.101 676.543 402.144C676.309 402.165 675.935 402.197 675.423 402.24C674.911 402.283 674.346 402.304 673.727 402.304ZM685.669 411.04C685.263 411.104 684.89 411.136 684.549 411.136C684.207 411.157 683.706 411.083 683.045 410.912C682.703 410.805 682.458 410.677 682.309 410.528C682.181 410.379 681.957 410.101 681.637 409.696C681.402 409.355 681.231 409.035 681.125 408.736C681.039 408.459 681.029 408.235 681.093 408.064C681.157 407.915 681.295 407.872 681.509 407.936C681.573 407.957 681.669 408.021 681.797 408.128C681.946 408.256 682.085 408.405 682.213 408.576C682.511 408.896 682.874 409.109 683.301 409.216C683.727 409.323 684.293 409.333 684.997 409.248C685.295 409.184 685.658 409.088 686.085 408.96C686.511 408.853 686.927 408.715 687.333 408.544C687.738 408.373 688.058 408.203 688.293 408.032C689.423 407.264 690.33 406.656 691.013 406.208C691.695 405.76 692.037 405.536 692.037 405.536C692.079 405.451 692.154 405.387 692.261 405.344C692.389 405.28 692.538 405.216 692.709 405.152C692.837 405.024 693.039 404.821 693.317 404.544C693.615 404.267 693.893 403.989 694.149 403.712C694.426 403.435 694.597 403.275 694.661 403.232C694.703 403.04 694.746 402.891 694.789 402.784C694.831 402.656 694.853 402.528 694.853 402.4C695.023 402.229 695.247 401.877 695.525 401.344C695.823 400.789 696.122 400.181 696.421 399.52C696.719 398.837 696.933 398.219 697.061 397.664C697.359 396.171 697.434 394.912 697.285 393.888C697.135 392.864 696.826 391.989 696.357 391.264C695.909 390.517 695.343 389.856 694.661 389.28C694.426 389.088 694.095 388.885 693.669 388.672C693.263 388.437 692.837 388.235 692.389 388.064C691.941 387.893 691.546 387.755 691.205 387.648C690.885 387.541 690.693 387.499 690.629 387.52C690.543 387.541 690.362 387.883 690.085 388.544C689.829 389.184 689.519 390.005 689.157 391.008C688.794 392.011 688.399 393.077 687.973 394.208C687.567 395.339 687.183 396.405 686.821 397.408C686.693 397.813 686.554 398.24 686.405 398.688C686.255 399.136 686.127 399.531 686.021 399.872C685.914 400.192 685.861 400.405 685.861 400.512C685.626 400.875 685.434 401.355 685.285 401.952C685.157 402.549 685.007 403.541 684.837 404.928C684.645 405.653 684.506 406.208 684.421 406.592C684.335 406.955 684.25 407.125 684.165 407.104C684.165 407.104 684.154 407.115 684.133 407.136C684.133 407.136 684.101 407.168 684.037 407.232C684.037 407.36 683.951 407.424 683.781 407.424C683.61 407.424 683.407 407.381 683.173 407.296C682.959 407.189 682.789 407.072 682.661 406.944C682.597 406.709 682.554 406.485 682.533 406.272C682.533 406.059 682.618 405.643 682.789 405.024C682.895 404.619 683.023 404.128 683.173 403.552C683.343 402.955 683.525 402.347 683.717 401.728C683.909 401.088 684.09 400.501 684.261 399.968C684.431 399.435 684.559 399.029 684.645 398.752C684.794 398.389 685.007 397.707 685.285 396.704C685.455 396.149 685.626 395.595 685.797 395.04C685.989 394.485 686.17 393.995 686.341 393.568C686.511 393.12 686.629 392.832 686.693 392.704C686.799 392.427 686.959 391.957 687.173 391.296C687.386 390.635 687.663 389.899 688.005 389.088L688.229 388.032L687.877 387.872C687.621 387.957 687.418 387.989 687.269 387.968C687.141 387.925 687.055 387.893 687.013 387.872C686.885 387.915 686.703 387.883 686.469 387.776C686.234 387.669 686.021 387.531 685.829 387.36C685.658 387.189 685.551 387.04 685.509 386.912C685.466 386.827 685.434 386.72 685.413 386.592C685.413 386.443 685.413 386.368 685.413 386.368C685.434 386.24 685.594 386.123 685.893 386.016C686.191 385.888 686.575 385.781 687.045 385.696C687.535 385.611 688.058 385.557 688.613 385.536C689.189 385.493 689.743 385.493 690.277 385.536C690.831 385.579 691.354 385.696 691.845 385.888C692.335 386.08 692.869 386.283 693.445 386.496C694.127 386.752 694.842 387.2 695.589 387.84C696.357 388.459 697.05 389.195 697.669 390.048C698.309 390.901 698.735 391.797 698.949 392.736C699.013 392.992 699.077 393.355 699.141 393.824C699.205 394.293 699.237 394.752 699.237 395.2C699.258 395.627 699.215 395.904 699.109 396.032C699.066 396.117 699.034 396.224 699.013 396.352C699.013 396.459 699.055 396.533 699.141 396.576C699.119 396.64 699.045 396.885 698.917 397.312C698.789 397.717 698.671 398.069 698.565 398.368C698.522 398.923 698.394 399.499 698.181 400.096C697.967 400.693 697.733 401.259 697.477 401.792C697.221 402.304 696.986 402.741 696.773 403.104C696.687 403.104 696.602 403.125 696.517 403.168C696.453 403.189 696.463 403.211 696.549 403.232C696.549 403.339 696.431 403.541 696.197 403.84C696.111 403.904 695.973 404.064 695.781 404.32C695.61 404.555 695.471 404.715 695.365 404.8C695.343 404.949 695.279 405.077 695.173 405.184C695.066 405.269 694.97 405.312 694.885 405.312C694.885 405.312 694.863 405.312 694.821 405.312C694.799 405.312 694.789 405.355 694.789 405.44C694.618 405.696 694.351 406.005 693.989 406.368C693.626 406.709 693.21 407.072 692.741 407.456C692.293 407.819 691.823 408.16 691.333 408.48C690.863 408.8 690.415 409.045 689.989 409.216C689.775 409.365 689.551 409.483 689.317 409.568C689.082 409.675 688.858 409.781 688.645 409.888C688.538 409.973 688.303 410.091 687.941 410.24C687.578 410.411 687.183 410.571 686.757 410.72C686.351 410.869 685.989 410.976 685.669 411.04Z" fill="#0A0A0A"/>
<path fill-rule="evenodd" clip-rule="evenodd" d="M70.2994 3.85753C70.5848 1.81337 72.2499 0 74.4922 0H877.751C879.473 0 881.002 1.10243 881.546 2.73655L886.334 17.1177C886.606 17.9347 887.37 18.4859 888.231 18.4859H978.773C979.867 18.4859 980.913 18.9338 981.668 19.7253L1001.15 40.1581C1001.53 40.5538 1002.05 40.7778 1002.6 40.7778H1055.94C1058.15 40.7778 1059.94 42.5686 1059.94 44.7778V123.596C1059.94 125.805 1058.15 127.596 1055.94 127.596H1002.43C1001.95 127.596 1001.49 127.768 1001.13 128.082L962.729 161.252C962.289 161.632 962.036 162.184 962.036 162.765V175.285C962.036 175.85 962.275 176.389 962.695 176.768L1001.13 211.528C1001.5 211.86 1001.98 212.044 1002.47 212.044H1055.94C1058.15 212.044 1059.94 213.835 1059.94 216.044V294.319C1059.94 296.528 1058.15 298.319 1055.94 298.319H1002.51C1002 298.319 1001.51 298.513 1001.14 298.862L967.064 330.941C966.322 331.639 965.341 332.028 964.322 332.028H33.1121C32.4282 332.028 31.7557 331.853 31.1589 331.519L17.8442 324.069C16.5111 323.323 14.8676 324.286 14.8676 325.814V365C14.8676 367.209 13.0768 369 10.8676 369H4C1.79086 369 0 367.209 0 365V22.4859C0 20.2768 1.79086 18.4859 4 18.4859H55.1998C59.9776 17.8215 68.8888 13.957 70.2994 3.85753ZM74.4922 2C73.4207 2 72.453 2.89648 72.2801 4.13417C70.684 15.5626 60.5833 19.7823 55.4006 20.4771L55.3345 20.4859H4C2.89543 20.4859 2 21.3814 2 22.4859V365C2 366.105 2.89543 367 4 367H10.8676C11.9722 367 12.8676 366.105 12.8676 365V325.814C12.8676 322.759 16.1545 320.831 18.8208 322.323L32.1355 329.773C32.4339 329.94 32.7701 330.028 33.1121 330.028H964.322C964.831 330.028 965.322 329.834 965.693 329.484L999.765 297.406C1000.51 296.708 1001.49 296.319 1002.51 296.319H1055.94C1057.05 296.319 1057.94 295.423 1057.94 294.319V216.044C1057.94 214.94 1057.05 214.044 1055.94 214.044H1002.47C1001.48 214.044 1000.53 213.676 999.79 213.011L961.353 178.251C960.515 177.493 960.036 176.415 960.036 175.285V162.765C960.036 161.603 960.542 160.498 961.421 159.738L999.819 126.569C1000.55 125.941 1001.47 125.596 1002.43 125.596H1055.94C1057.05 125.596 1057.94 124.7 1057.94 123.596V44.7778C1057.94 43.6732 1057.05 42.7778 1055.94 42.7778H1002.6C1001.51 42.7778 1000.46 42.3299 999.707 41.5384L980.221 21.1056C979.843 20.7099 979.32 20.4859 978.773 20.4859H888.231C886.509 20.4859 884.98 19.3835 884.436 17.7494L879.649 3.36827C879.377 2.55122 878.612 2 877.751 2H74.4922Z" fill="#0A0A0A"/>
<path fill-rule="evenodd" clip-rule="evenodd" d="M104.774 37.2539H55.5547C52.7933 37.2539 50.5547 39.4925 50.5547 42.2539V130.47C50.5547 133.232 52.7933 135.47 55.5547 135.47H104.774C107.535 135.47 109.774 133.232 109.774 130.47V42.2539C109.774 39.4925 107.535 37.2539 104.774 37.2539ZM55.5547 35.2539C51.6887 35.2539 48.5547 38.3879 48.5547 42.2539V130.47C48.5547 134.336 51.6887 137.47 55.5547 137.47H104.774C108.64 137.47 111.774 134.336 111.774 130.47V42.2539C111.774 38.3879 108.64 35.2539 104.774 35.2539H55.5547Z" fill="#0A0A0A"/>
<path fill-rule="evenodd" clip-rule="evenodd" d="M181.42 37.2539H132.201C129.44 37.2539 127.201 39.4925 127.201 42.2539V130.47C127.201 133.232 129.44 135.47 132.201 135.47H181.42C184.182 135.47 186.42 133.232 186.42 130.47V42.2539C186.42 39.4925 184.182 37.2539 181.42 37.2539ZM132.201 35.2539C128.335 35.2539 125.201 38.3879 125.201 42.2539V130.47C125.201 134.336 128.335 137.47 132.201 137.47H181.42C185.286 137.47 188.42 134.336 188.42 130.47V42.2539C188.42 38.3879 185.286 35.2539 181.42 35.2539H132.201Z" fill="#0A0A0A"/>
<path fill-rule="evenodd" clip-rule="evenodd" d="M258.065 37.2539H208.846C206.084 37.2539 203.846 39.4925 203.846 42.2539V130.47C203.846 133.232 206.084 135.47 208.846 135.47H258.065C260.826 135.47 263.065 133.232 263.065 130.47V42.2539C263.065 39.4925 260.826 37.2539 258.065 37.2539ZM208.846 35.2539C204.98 35.2539 201.846 38.3879 201.846 42.2539V130.47C201.846 134.336 204.98 137.47 208.846 137.47H258.065C261.931 137.47 265.065 134.336 265.065 130.47V42.2539C265.065 38.3879 261.931 35.2539 258.065 35.2539H208.846Z" fill="#0A0A0A"/>
<path fill-rule="evenodd" clip-rule="evenodd" d="M334.711 37.2539H285.492C282.731 37.2539 280.492 39.4925 280.492 42.2539V130.47C280.492 133.232 282.731 135.47 285.492 135.47H334.711C337.473 135.47 339.711 133.232 339.711 130.47V42.2539C339.711 39.4925 337.473 37.2539 334.711 37.2539ZM285.492 35.2539C281.626 35.2539 278.492 38.3879 278.492 42.2539V130.47C278.492 134.336 281.626 137.47 285.492 137.47H334.711C338.577 137.47 341.711 134.336 341.711 130.47V42.2539C341.711 38.3879 338.577 35.2539 334.711 35.2539H285.492Z" fill="#0A0A0A"/>
<path fill-rule="evenodd" clip-rule="evenodd" d="M411.36 37.2539H362.141C359.379 37.2539 357.141 39.4925 357.141 42.2539V130.47C357.141 133.232 359.379 135.47 362.141 135.47H411.36C414.121 135.47 416.36 133.232 416.36 130.47V42.2539C416.36 39.4925 414.121 37.2539 411.36 37.2539ZM362.141 35.2539C358.275 35.2539 355.141 38.3879 355.141 42.2539V130.47C355.141 134.336 358.275 137.47 362.141 137.47H411.36C415.226 137.47 418.36 134.336 418.36 130.47V42.2539C418.36 38.3879 415.226 35.2539 411.36 35.2539H362.141Z" fill="#0A0A0A"/>
<path fill-rule="evenodd" clip-rule="evenodd" d="M488.006 37.2539H438.787C436.026 37.2539 433.787 39.4925 433.787 42.2539V130.47C433.787 133.232 436.026 135.47 438.787 135.47H488.006C490.768 135.47 493.006 133.232 493.006 130.47V42.2539C493.006 39.4925 490.768 37.2539 488.006 37.2539ZM438.787 35.2539C434.921 35.2539 431.787 38.3879 431.787 42.2539V130.47C431.787 134.336 434.921 137.47 438.787 137.47H488.006C491.872 137.47 495.006 134.336 495.006 130.47V42.2539C495.006 38.3879 491.872 35.2539 488.006 35.2539H438.787Z" fill="#0A0A0A"/>
<path fill-rule="evenodd" clip-rule="evenodd" d="M564.651 37.2539H515.432C512.67 37.2539 510.432 39.4925 510.432 42.2539V130.47C510.432 133.232 512.67 135.47 515.432 135.47H564.651C567.412 135.47 569.651 133.232 569.651 130.47V42.2539C569.651 39.4925 567.412 37.2539 564.651 37.2539ZM515.432 35.2539C511.566 35.2539 508.432 38.3879 508.432 42.2539V130.47C508.432 134.336 511.566 137.47 515.432 137.47H564.651C568.517 137.47 571.651 134.336 571.651 130.47V42.2539C571.651 38.3879 568.517 35.2539 564.651 35.2539H515.432Z" fill="#0A0A0A"/>
<path fill-rule="evenodd" clip-rule="evenodd" d="M641.297 37.2539H592.078C589.317 37.2539 587.078 39.4925 587.078 42.2539V130.47C587.078 133.232 589.317 135.47 592.078 135.47H641.297C644.059 135.47 646.297 133.232 646.297 130.47V42.2539C646.297 39.4925 644.059 37.2539 641.297 37.2539ZM592.078 35.2539C588.212 35.2539 585.078 38.3879 585.078 42.2539V130.47C585.078 134.336 588.212 137.47 592.078 137.47H641.297C645.163 137.47 648.297 134.336 648.297 130.47V42.2539C648.297 38.3879 645.163 35.2539 641.297 35.2539H592.078Z" fill="#0A0A0A"/>
<path fill-rule="evenodd" clip-rule="evenodd" d="M717.944 37.2539H668.725C665.963 37.2539 663.725 39.4925 663.725 42.2539V130.47C663.725 133.232 665.963 135.47 668.725 135.47H717.944C720.705 135.47 722.944 133.232 722.944 130.47V42.2539C722.944 39.4925 720.705 37.2539 717.944 37.2539ZM668.725 35.2539C664.859 35.2539 661.725 38.3879 661.725 42.2539V130.47C661.725 134.336 664.859 137.47 668.725 137.47H717.944C721.81 137.47 724.944 134.336 724.944 130.47V42.2539C724.944 38.3879 721.81 35.2539 717.944 35.2539H668.725Z" fill="#0A0A0A"/>
<path fill-rule="evenodd" clip-rule="evenodd" d="M794.592 37.2539H745.373C742.612 37.2539 740.373 39.4925 740.373 42.2539V130.47C740.373 133.232 742.612 135.47 745.373 135.47H794.592C797.354 135.47 799.592 133.232 799.592 130.47V42.2539C799.592 39.4925 797.354 37.2539 794.592 37.2539ZM745.373 35.2539C741.507 35.2539 738.373 38.3879 738.373 42.2539V130.47C738.373 134.336 741.507 137.47 745.373 137.47H794.592C798.458 137.47 801.592 134.336 801.592 130.47V42.2539C801.592 38.3879 798.458 35.2539 794.592 35.2539H745.373Z" fill="#0A0A0A"/>
<path fill-rule="evenodd" clip-rule="evenodd" d="M871.235 37.2539H822.016C819.254 37.2539 817.016 39.4925 817.016 42.2539V130.47C817.016 133.232 819.254 135.47 822.016 135.47H871.235C873.996 135.47 876.235 133.232 876.235 130.47V42.2539C876.235 39.4925 873.996 37.2539 871.235 37.2539ZM822.016 35.2539C818.15 35.2539 815.016 38.3879 815.016 42.2539V130.47C815.016 134.336 818.15 137.47 822.016 137.47H871.235C875.101 137.47 878.235 134.336 878.235 130.47V42.2539C878.235 38.3879 875.101 35.2539 871.235 35.2539H822.016Z" fill="#0A0A0A"/>
<path fill-rule="evenodd" clip-rule="evenodd" d="M87.9609 254.298C87.9609 249.88 91.5427 246.298 95.9609 246.298H238.051C242.469 246.298 246.051 249.88 246.051 254.298V295.756C246.051 300.174 242.469 303.756 238.051 303.756H113.62C111.926 303.756 110.276 303.218 108.908 302.221L91.2488 289.35C89.1828 287.844 87.9609 285.441 87.9609 282.885V254.298ZM95.9609 248.298C92.6472 248.298 89.9609 250.984 89.9609 254.298V282.885C89.9609 284.802 90.8773 286.604 92.4268 287.733L110.086 300.604C111.112 301.353 112.35 301.756 113.62 301.756H238.051C241.364 301.756 244.051 299.069 244.051 295.756V254.298C244.051 250.984 241.364 248.298 238.051 248.298H95.9609Z" fill="#0A0A0A"/>
<path fill-rule="evenodd" clip-rule="evenodd" d="M131 275C131 274.448 131.448 274 132 274H207C207.552 274 208 274.448 208 275V282C208 282.552 207.552 283 207 283C206.448 283 206 282.552 206 282V276H133V282C133 282.552 132.552 283 132 283C131.448 283 131 282.552 131 282V275Z" fill="#0A0A0A"/>
<path fill-rule="evenodd" clip-rule="evenodd" d="M293.961 254.298C293.961 249.88 297.543 246.298 301.961 246.298H427.267C431.685 246.298 435.267 249.88 435.267 254.298V284.083C435.267 286.077 434.523 287.999 433.18 289.472L422.542 301.144C421.026 302.808 418.88 303.756 416.629 303.756H312.598C310.348 303.756 308.201 302.808 306.685 301.144L296.048 289.472C294.705 287.999 293.961 286.077 293.961 284.083V254.298ZM301.961 248.298C298.647 248.298 295.961 250.984 295.961 254.298V284.083C295.961 285.579 296.519 287.02 297.526 288.125L308.164 299.797C309.301 301.045 310.91 301.756 312.598 301.756H416.629C418.317 301.756 419.927 301.045 421.064 299.797L431.702 288.125C432.709 287.02 433.267 285.579 433.267 284.083V254.298C433.267 250.984 430.581 248.298 427.267 248.298H301.961Z" fill="#0A0A0A"/>
<path fill-rule="evenodd" clip-rule="evenodd" d="M326 275C326 274.448 326.448 274 327 274H402C402.552 274 403 274.448 403 275C403 275.552 402.552 276 402 276H327C326.448 276 326 275.552 326 275Z" fill="#0A0A0A"/>
<path fill-rule="evenodd" clip-rule="evenodd" d="M571 254.076C571 249.616 574.578 246 578.992 246H769.008C773.422 246 777 249.616 777 254.075V284.836C777 286.361 776.573 287.855 775.767 289.145L768.843 300.234C767.379 302.578 764.828 304 762.084 304H585.916C583.172 304 580.621 302.578 579.157 300.234L572.233 289.145C571.427 287.855 571 286.361 571 284.836V254.076ZM578.992 248.019C575.682 248.019 572.998 250.731 572.998 254.076V284.836C572.998 285.98 573.319 287.101 573.923 288.068L580.846 299.156C581.944 300.915 583.858 301.981 585.916 301.981H762.084C764.142 301.981 766.056 300.915 767.154 299.156L774.077 288.068C774.681 287.101 775.002 285.98 775.002 284.836V254.075C775.002 250.731 772.318 248.019 769.008 248.019H578.992Z" fill="#0A0A0A"/>
<path fill-rule="evenodd" clip-rule="evenodd" d="M596.942 255.977H588.058C587.49 255.977 587.029 256.415 587.029 256.954V265.046C587.029 265.585 587.49 266.023 588.058 266.023H596.942C597.51 266.023 597.971 265.585 597.971 265.046V256.954C597.971 256.415 597.51 255.977 596.942 255.977ZM588.058 255C586.921 255 586 255.875 586 256.954V265.046C586 266.125 586.921 267 588.058 267H596.942C598.079 267 599 266.125 599 265.046V256.954C599 255.875 598.079 255 596.942 255H588.058Z" fill="#0A0A0A"/>
<path fill-rule="evenodd" clip-rule="evenodd" d="M611.101 255.977H602.899C602.375 255.977 601.95 256.415 601.95 256.954V265.046C601.95 265.585 602.375 266.023 602.899 266.023H611.101C611.625 266.023 612.05 265.585 612.05 265.046V256.954C612.05 256.415 611.625 255.977 611.101 255.977ZM602.899 255C601.85 255 601 255.875 601 256.954V265.046C601 266.125 601.85 267 602.899 267H611.101C612.15 267 613 266.125 613 265.046V256.954C613 255.875 612.15 255 611.101 255H602.899Z" fill="#0A0A0A"/>
<path fill-rule="evenodd" clip-rule="evenodd" d="M625.942 255.977H617.058C616.49 255.977 616.029 256.415 616.029 256.954V265.046C616.029 265.585 616.49 266.023 617.058 266.023H625.942C626.51 266.023 626.971 265.585 626.971 265.046V256.954C626.971 256.415 626.51 255.977 625.942 255.977ZM617.058 255C615.921 255 615 255.875 615 256.954V265.046C615 266.125 615.921 267 617.058 267H625.942C627.079 267 628 266.125 628 265.046V256.954C628 255.875 627.079 255 625.942 255H617.058Z" fill="#0A0A0A"/>
<path fill-rule="evenodd" clip-rule="evenodd" d="M640.942 255.977H632.058C631.49 255.977 631.029 256.415 631.029 256.954V265.046C631.029 265.585 631.49 266.023 632.058 266.023H640.942C641.51 266.023 641.971 265.585 641.971 265.046V256.954C641.971 256.415 641.51 255.977 640.942 255.977ZM632.058 255C630.921 255 630 255.875 630 256.954V265.046C630 266.125 630.921 267 632.058 267H640.942C642.079 267 643 266.125 643 265.046V256.954C643 255.875 642.079 255 640.942 255H632.058Z" fill="#0A0A0A"/>
<path fill-rule="evenodd" clip-rule="evenodd" d="M654.942 255.977H646.058C645.49 255.977 645.029 256.415 645.029 256.954V265.046C645.029 265.585 645.49 266.023 646.058 266.023H654.942C655.51 266.023 655.971 265.585 655.971 265.046V256.954C655.971 256.415 655.51 255.977 654.942 255.977ZM646.058 255C644.921 255 644 255.875 644 256.954V265.046C644 266.125 644.921 267 646.058 267H654.942C656.079 267 657 266.125 657 265.046V256.954C657 255.875 656.079 255 654.942 255H646.058Z" fill="#0A0A0A"/>
<path fill-rule="evenodd" clip-rule="evenodd" d="M669.942 255.977H661.058C660.49 255.977 660.029 256.415 660.029 256.954V265.046C660.029 265.585 660.49 266.023 661.058 266.023H669.942C670.51 266.023 670.971 265.585 670.971 265.046V256.954C670.971 256.415 670.51 255.977 669.942 255.977ZM661.058 255C659.921 255 659 255.875 659 256.954V265.046C659 266.125 659.921 267 661.058 267H669.942C671.079 267 672 266.125 672 265.046V256.954C672 255.875 671.079 255 669.942 255H661.058Z" fill="#0A0A0A"/>
<path fill-rule="evenodd" clip-rule="evenodd" d="M684.101 255.977H675.899C675.375 255.977 674.95 256.415 674.95 256.954V265.046C674.95 265.585 675.375 266.023 675.899 266.023H684.101C684.625 266.023 685.05 265.585 685.05 265.046V256.954C685.05 256.415 684.625 255.977 684.101 255.977ZM675.899 255C674.85 255 674 255.875 674 256.954V265.046C674 266.125 674.85 267 675.899 267H684.101C685.15 267 686 266.125 686 265.046V256.954C686 255.875 685.15 255 684.101 255H675.899Z" fill="#0A0A0A"/>
<path fill-rule="evenodd" clip-rule="evenodd" d="M698.942 255.977H690.058C689.49 255.977 689.029 256.415 689.029 256.954V265.046C689.029 265.585 689.49 266.023 690.058 266.023H698.942C699.51 266.023 699.971 265.585 699.971 265.046V256.954C699.971 256.415 699.51 255.977 698.942 255.977ZM690.058 255C688.921 255 688 255.875 688 256.954V265.046C688 266.125 688.921 267 690.058 267H698.942C700.079 267 701 266.125 701 265.046V256.954C701 255.875 700.079 255 698.942 255H690.058Z" fill="#0A0A0A"/>
<path fill-rule="evenodd" clip-rule="evenodd" d="M596.942 269.977H588.058C587.49 269.977 587.029 270.415 587.029 270.954V279.046C587.029 279.585 587.49 280.023 588.058 280.023H596.942C597.51 280.023 597.971 279.585 597.971 279.046V270.954C597.971 270.415 597.51 269.977 596.942 269.977ZM588.058 269C586.921 269 586 269.875 586 270.954V279.046C586 280.125 586.921 281 588.058 281H596.942C598.079 281 599 280.125 599 279.046V270.954C599 269.875 598.079 269 596.942 269H588.058Z" fill="#0A0A0A"/>
<path fill-rule="evenodd" clip-rule="evenodd" d="M611.101 269.977H602.899C602.375 269.977 601.95 270.415 601.95 270.954V279.046C601.95 279.585 602.375 280.023 602.899 280.023H611.101C611.625 280.023 612.05 279.585 612.05 279.046V270.954C612.05 270.415 611.625 269.977 611.101 269.977ZM602.899 269C601.85 269 601 269.875 601 270.954V279.046C601 280.125 601.85 281 602.899 281H611.101C612.15 281 613 280.125 613 279.046V270.954C613 269.875 612.15 269 611.101 269H602.899Z" fill="#0A0A0A"/>
<path fill-rule="evenodd" clip-rule="evenodd" d="M625.942 269.977H617.058C616.49 269.977 616.029 270.415 616.029 270.954V279.046C616.029 279.585 616.49 280.023 617.058 280.023H625.942C626.51 280.023 626.971 279.585 626.971 279.046V270.954C626.971 270.415 626.51 269.977 625.942 269.977ZM617.058 269C615.921 269 615 269.875 615 270.954V279.046C615 280.125 615.921 281 617.058 281H625.942C627.079 281 628 280.125 628 279.046V270.954C628 269.875 627.079 269 625.942 269H617.058Z" fill="#0A0A0A"/>
<path fill-rule="evenodd" clip-rule="evenodd" d="M640.942 269.977H632.058C631.49 269.977 631.029 270.415 631.029 270.954V279.046C631.029 279.585 631.49 280.023 632.058 280.023H640.942C641.51 280.023 641.971 279.585 641.971 279.046V270.954C641.971 270.415 641.51 269.977 640.942 269.977ZM632.058 269C630.921 269 630 269.875 630 270.954V279.046C630 280.125 630.921 281 632.058 281H640.942C642.079 281 643 280.125 643 279.046V270.954C643 269.875 642.079 269 640.942 269H632.058Z" fill="#0A0A0A"/>
<path fill-rule="evenodd" clip-rule="evenodd" d="M654.942 269.977H646.058C645.49 269.977 645.029 270.415 645.029 270.954V279.046C645.029 279.585 645.49 280.023 646.058 280.023H654.942C655.51 280.023 655.971 279.585 655.971 279.046V270.954C655.971 270.415 655.51 269.977 654.942 269.977ZM646.058 269C644.921 269 644 269.875 644 270.954V279.046C644 280.125 644.921 281 646.058 281H654.942C656.079 281 657 280.125 657 279.046V270.954C657 269.875 656.079 269 654.942 269H646.058Z" fill="#0A0A0A"/>
<path fill-rule="evenodd" clip-rule="evenodd" d="M669.942 269.977H661.058C660.49 269.977 660.029 270.415 660.029 270.954V279.046C660.029 279.585 660.49 280.023 661.058 280.023H669.942C670.51 280.023 670.971 279.585 670.971 279.046V270.954C670.971 270.415 670.51 269.977 669.942 269.977ZM661.058 269C659.921 269 659 269.875 659 270.954V279.046C659 280.125 659.921 281 661.058 281H669.942C671.079 281 672 280.125 672 279.046V270.954C672 269.875 671.079 269 669.942 269H661.058Z" fill="#0A0A0A"/>
<path fill-rule="evenodd" clip-rule="evenodd" d="M684.101 269.977H675.899C675.375 269.977 674.95 270.415 674.95 270.954V279.046C674.95 279.585 675.375 280.023 675.899 280.023H684.101C684.625 280.023 685.05 279.585 685.05 279.046V270.954C685.05 270.415 684.625 269.977 684.101 269.977ZM675.899 269C674.85 269 674 269.875 674 270.954V279.046C674 280.125 674.85 281 675.899 281H684.101C685.15 281 686 280.125 686 279.046V270.954C686 269.875 685.15 269 684.101 269H675.899Z" fill="#0A0A0A"/>
<path fill-rule="evenodd" clip-rule="evenodd" d="M698.942 269.977H690.058C689.49 269.977 689.029 270.415 689.029 270.954V279.046C689.029 279.585 689.49 280.023 690.058 280.023H698.942C699.51 280.023 699.971 279.585 699.971 279.046V270.954C699.971 270.415 699.51 269.977 698.942 269.977ZM690.058 269C688.921 269 688 269.875 688 270.954V279.046C688 280.125 688.921 281 690.058 281H698.942C700.079 281 701 280.125 701 279.046V270.954C701 269.875 700.079 269 698.942 269H690.058Z" fill="#0A0A0A"/>
<path fill-rule="evenodd" clip-rule="evenodd" d="M596.942 284.059H588.058C587.49 284.059 587.029 284.533 587.029 285.117V293.883C587.029 294.467 587.49 294.941 588.058 294.941H596.942C597.51 294.941 597.971 294.467 597.971 293.883V285.117C597.971 284.533 597.51 284.059 596.942 284.059ZM588.058 283C586.921 283 586 283.948 586 285.117V293.883C586 295.052 586.921 296 588.058 296H596.942C598.079 296 599 295.052 599 293.883V285.117C599 283.948 598.079 283 596.942 283H588.058Z" fill="#0A0A0A"/>
<path fill-rule="evenodd" clip-rule="evenodd" d="M611.101 284.059H602.899C602.375 284.059 601.95 284.533 601.95 285.117V293.883C601.95 294.467 602.375 294.941 602.899 294.941H611.101C611.625 294.941 612.05 294.467 612.05 293.883V285.117C612.05 284.533 611.625 284.059 611.101 284.059ZM602.899 283C601.85 283 601 283.948 601 285.117V293.883C601 295.052 601.85 296 602.899 296H611.101C612.15 296 613 295.052 613 293.883V285.117C613 283.948 612.15 283 611.101 283H602.899Z" fill="#0A0A0A"/>
<path fill-rule="evenodd" clip-rule="evenodd" d="M625.942 284.059H617.058C616.49 284.059 616.029 284.533 616.029 285.117V293.883C616.029 294.467 616.49 294.941 617.058 294.941H625.942C626.51 294.941 626.971 294.467 626.971 293.883V285.117C626.971 284.533 626.51 284.059 625.942 284.059ZM617.058 283C615.921 283 615 283.948 615 285.117V293.883C615 295.052 615.921 296 617.058 296H625.942C627.079 296 628 295.052 628 293.883V285.117C628 283.948 627.079 283 625.942 283H617.058Z" fill="#0A0A0A"/>
<path fill-rule="evenodd" clip-rule="evenodd" d="M640.942 284.059H632.058C631.49 284.059 631.029 284.533 631.029 285.117V293.883C631.029 294.467 631.49 294.941 632.058 294.941H640.942C641.51 294.941 641.971 294.467 641.971 293.883V285.117C641.971 284.533 641.51 284.059 640.942 284.059ZM632.058 283C630.921 283 630 283.948 630 285.117V293.883C630 295.052 630.921 296 632.058 296H640.942C642.079 296 643 295.052 643 293.883V285.117C643 283.948 642.079 283 640.942 283H632.058Z" fill="#0A0A0A"/>
<path fill-rule="evenodd" clip-rule="evenodd" d="M654.942 284.059H646.058C645.49 284.059 645.029 284.533 645.029 285.117V293.883C645.029 294.467 645.49 294.941 646.058 294.941H654.942C655.51 294.941 655.971 294.467 655.971 293.883V285.117C655.971 284.533 655.51 284.059 654.942 284.059ZM646.058 283C644.921 283 644 283.948 644 285.117V293.883C644 295.052 644.921 296 646.058 296H654.942C656.079 296 657 295.052 657 293.883V285.117C657 283.948 656.079 283 654.942 283H646.058Z" fill="#0A0A0A"/>
<path fill-rule="evenodd" clip-rule="evenodd" d="M669.942 284.059H661.058C660.49 284.059 660.029 284.533 660.029 285.117V293.883C660.029 294.467 660.49 294.941 661.058 294.941H669.942C670.51 294.941 670.971 294.467 670.971 293.883V285.117C670.971 284.533 670.51 284.059 669.942 284.059ZM661.058 283C659.921 283 659 283.948 659 285.117V293.883C659 295.052 659.921 296 661.058 296H669.942C671.079 296 672 295.052 672 293.883V285.117C672 283.948 671.079 283 669.942 283H661.058Z" fill="#0A0A0A"/>
<path fill-rule="evenodd" clip-rule="evenodd" d="M684.101 284.059H675.899C675.375 284.059 674.95 284.533 674.95 285.117V293.883C674.95 294.467 675.375 294.941 675.899 294.941H684.101C684.625 294.941 685.05 294.467 685.05 293.883V285.117C685.05 284.533 684.625 284.059 684.101 284.059ZM675.899 283C674.85 283 674 283.948 674 285.117V293.883C674 295.052 674.85 296 675.899 296H684.101C685.15 296 686 295.052 686 293.883V285.117C686 283.948 685.15 283 684.101 283H675.899Z" fill="#0A0A0A"/>
<path fill-rule="evenodd" clip-rule="evenodd" d="M698.942 284.059H690.058C689.49 284.059 689.029 284.533 689.029 285.117V293.883C689.029 294.467 689.49 294.941 690.058 294.941H698.942C699.51 294.941 699.971 294.467 699.971 293.883V285.117C699.971 284.533 699.51 284.059 698.942 284.059ZM690.058 283C688.921 283 688 283.948 688 285.117V293.883C688 295.052 688.921 296 690.058 296H698.942C700.079 296 701 295.052 701 293.883V285.117C701 283.948 700.079 283 698.942 283H690.058Z" fill="#0A0A0A"/>
<path fill-rule="evenodd" clip-rule="evenodd" d="M716 275C716 274.448 716.448 274 717 274L759 274C759.552 274 760 274.448 760 275C760 275.552 759.552 276 759 276L717 276C716.448 276 716 275.552 716 275Z" fill="#0A0A0A"/>
</svg>
