<svg width="387" height="57" viewBox="0 0 387 57" fill="none" xmlns="http://www.w3.org/2000/svg">
<path d="M1.18226 55.681L21.2317 1.68304H43.4717C46.6984 1.68304 49.2797 2.30802 51.2156 3.55797C53.1515 4.80792 54.3916 6.49536 54.9359 8.62028C55.4896 10.7202 55.293 13.0451 54.3462 15.595C53.2695 18.4949 51.4821 21.0823 48.9841 23.3572C46.4954 25.6071 43.7019 27.1696 40.6037 28.0445L41.2059 26.2071C44.568 27.2071 46.8516 28.957 48.0567 31.4569C49.2618 33.9568 49.2053 36.9817 47.8873 40.5316C46.727 43.6565 45.0178 46.3563 42.7598 48.6313C40.5111 50.8812 37.8793 52.6186 34.8645 53.8436C31.8497 55.0685 28.6489 55.681 25.2623 55.681H1.18226ZM9.06543 50.3937H25.7854C28.1321 50.3937 30.3826 50.0062 32.5371 49.2312C34.7008 48.4313 36.5851 47.3063 38.1901 45.8564C39.8218 44.4064 41.0183 42.6565 41.7794 40.6066C42.522 38.6066 42.697 36.8067 42.3044 35.2068C41.9117 33.6068 41.0385 32.3319 39.6845 31.3819C38.3665 30.407 36.6275 29.9195 34.4675 29.9195H16.6675L9.06543 50.3937ZM18.6029 24.7072H34.8829C36.7229 24.7072 38.5467 24.3197 40.3545 23.5447C42.1715 22.7447 43.7753 21.6573 45.1658 20.2823C46.583 18.9074 47.6257 17.3199 48.2941 15.52C49.2408 12.9701 49.0646 10.8952 47.7653 9.29525C46.4927 7.69531 44.4031 6.89534 41.4964 6.89534H25.2164L18.6029 24.7072ZM50.2048 55.681L70.2542 1.68304H76.1342L68.5182 22.1948H84.8782C85.4382 22.1948 86.0556 22.2198 86.7304 22.2698C87.4411 22.2948 88.1466 22.3698 88.8468 22.4948C91.6757 22.9197 93.8424 23.9072 95.3469 25.4571C96.8874 26.9821 97.7593 28.907 97.9627 31.2319C98.1928 33.5568 97.7881 36.1192 96.7485 38.9191C95.6996 41.744 94.1968 44.3189 92.2403 46.6438C90.3104 48.9688 88.0043 50.9062 85.3222 52.4561C82.6759 53.9811 79.7806 54.956 76.6361 55.381C75.8523 55.481 75.0912 55.556 74.3526 55.606C73.6407 55.656 73.0048 55.681 72.4448 55.681H50.2048ZM58.0479 50.3937H74.2479C74.7546 50.3937 75.3372 50.3687 75.9958 50.3187C76.6543 50.2687 77.3089 50.1937 77.9593 50.0937C80.0545 49.6937 81.9509 48.9313 83.6486 47.8063C85.3463 46.6813 86.7896 45.3439 87.9784 43.7939C89.1765 42.219 90.0865 40.5941 90.7085 38.9191C91.3304 37.2442 91.6224 35.6318 91.5846 34.0818C91.5467 32.5319 91.0966 31.1944 90.2343 30.0695C89.372 28.9445 88.0418 28.182 86.2437 27.7821C85.6767 27.6571 85.0826 27.5696 84.4611 27.5196C83.8397 27.4696 83.2756 27.4446 82.769 27.4446H66.569L58.0479 50.3937ZM96.2048 55.681L116.254 1.68304H122.134L102.085 55.681H96.2048ZM136.116 56.806C130.382 56.806 125.983 55.6185 122.919 53.2436C119.863 50.8437 118.106 47.5313 117.648 43.3065C117.19 39.0816 117.987 34.2068 120.038 28.682C122.09 23.1572 124.913 18.2824 128.508 14.0576C132.104 9.83274 136.316 6.53286 141.144 4.15795C145.982 1.75804 151.267 0.558087 157.001 0.558087C163.694 0.558087 168.562 2.17053 171.605 5.3954C174.656 8.59528 175.967 12.8951 175.535 18.2949L168.992 19.7574C169.353 15.4825 168.41 12.0951 166.165 9.59524C163.92 7.09534 160.211 5.84538 155.038 5.84538C150.531 5.84538 146.427 6.80785 142.725 8.73277C139.024 10.6577 135.773 13.3451 132.972 16.795C130.207 20.2198 127.962 24.1822 126.238 28.682C124.541 33.1818 123.803 37.1442 124.025 40.5691C124.273 43.9939 125.542 46.6813 127.831 48.6313C130.156 50.5562 133.572 51.5187 138.079 51.5187C143.252 51.5187 147.89 50.2687 151.991 47.7688C156.102 45.2439 159.56 41.8565 162.365 37.6067L167.822 39.0691C164.243 44.4689 159.735 48.7813 154.298 52.0061C148.87 55.206 142.809 56.806 136.116 56.806ZM193.381 56.806C187.648 56.806 183.249 55.6185 180.184 53.2436C177.129 50.8437 175.372 47.5313 174.914 43.3065C174.456 39.0816 175.253 34.2068 177.304 28.682C179.355 23.1572 182.179 18.2824 185.774 14.0576C189.369 9.83274 193.581 6.53286 198.41 4.15795C203.247 1.75804 208.533 0.558087 214.266 0.558087C220.026 0.558087 224.421 1.75804 227.45 4.15795C230.515 6.53286 232.276 9.83274 232.734 14.0576C233.219 18.2824 232.435 23.1572 230.384 28.682C228.333 34.2068 225.496 39.0816 221.874 43.3065C218.278 47.5313 214.062 50.8437 209.224 53.2436C204.422 55.6185 199.141 56.806 193.381 56.806ZM195.345 51.5187C199.851 51.5187 203.969 50.5562 207.697 48.6313C211.425 46.7063 214.671 44.0314 217.436 40.6066C220.237 37.1567 222.473 33.1818 224.144 28.682C225.815 24.1822 226.526 20.2198 226.278 16.795C226.056 13.3701 224.796 10.6952 222.497 8.77027C220.199 6.84535 216.801 5.87038 212.303 5.84538C207.796 5.84538 203.692 6.80785 199.991 8.73277C196.29 10.6577 193.038 13.3451 190.238 16.795C187.473 20.2198 185.241 24.1822 183.544 28.682C181.846 33.1818 181.109 37.1442 181.33 40.5691C181.588 43.9689 182.861 46.6438 185.151 48.5938C187.449 50.5187 190.847 51.4937 195.345 51.5187ZM228.37 55.681L248.419 1.68304H254.299L244.831 27.1821L280.579 1.68304H288.099L251.583 27.7446L270.25 55.681H262.57L244.274 28.682L234.25 55.681H228.37ZM271.87 55.681L311.759 1.68304H319.559L319.35 55.681H313.23L313.298 4.75793H315.618L277.99 55.681H271.87ZM285.569 42.594L287.49 37.4192H317.25L315.329 42.594H285.569ZM365.813 55.681H359.973L367.589 35.1693H348.429L346.556 34.7193C342.577 33.9443 339.998 32.0569 338.818 29.057C337.639 26.0571 337.806 22.5198 339.319 18.4449C340.368 15.62 341.87 13.0451 343.827 10.7202C345.783 8.39529 348.085 6.47036 350.731 4.94542C353.413 3.39548 356.327 2.40802 359.471 1.98303C360.264 1.85804 361.012 1.78304 361.715 1.75804C362.426 1.70804 363.062 1.68304 363.622 1.68304H385.862L365.813 55.681ZM330.933 55.681H324.173L345.564 31.6819L350.452 33.7068L330.933 55.681ZM369.538 29.9195L378.059 6.97034H361.819C361.366 6.97034 360.797 6.99534 360.111 7.04534C359.462 7.07034 358.808 7.14534 358.148 7.27033C356.026 7.67032 354.116 8.43279 352.418 9.55775C350.747 10.6827 349.313 12.0327 348.115 13.6076C346.926 15.1575 346.021 16.77 345.399 18.4449C344.777 20.1198 344.485 21.7323 344.523 23.2822C344.56 24.8322 344.997 26.1696 345.833 27.2946C346.695 28.4195 348.039 29.182 349.863 29.582C350.43 29.707 351.025 29.7945 351.646 29.8445C352.294 29.8945 352.845 29.9195 353.298 29.9195H369.538Z" fill="white"/>
</svg>
