<svg width="261" height="150" viewBox="0 0 261 150" fill="none" xmlns="http://www.w3.org/2000/svg">
<rect width="261" height="150" fill="url(#paint0_linear_4817_453)"/>
<path d="M84.3318 72.5457H68.6176C68.4248 72.5457 68.4119 72.475 68.5854 72.385L92.4043 60.1607C92.5778 60.0707 92.565 60 92.3721 60H82.5515C82.3459 60 82.0502 60.0707 81.8767 60.1607L63.3152 69.7242C63.1352 69.8142 62.9939 70.0327 62.9939 70.2384V60.3535C62.9939 60.1607 62.846 60 62.6404 60H58.3535C58.1607 60 58 60.1607 58 60.3535V89.6611C58 89.8539 58.1607 90.0146 58.3535 90.0146H62.6404C62.846 90.0146 62.9939 89.8539 62.9939 89.6611V77.2311C62.9939 77.4239 63.1545 77.5846 63.3602 77.5846L84.6982 77.5524C86.9027 77.5524 88.0017 78.7864 88.0017 81.2544V89.6611C88.0017 89.8539 88.1495 90.0146 88.3552 90.0146H92.6871C92.8799 90.0146 93.0406 89.8539 93.0406 89.6611V79.9626C93.0341 75.033 90.1291 72.5457 84.3318 72.5457Z" fill="white"/>
<path d="M102.313 77.5588C102.121 77.5588 101.96 77.7195 101.96 77.9123V89.6675C101.96 89.8603 101.799 90.021 101.606 90.021H97.3195C97.1138 90.021 96.9531 89.8603 96.9531 89.6675V72.9056C96.9531 72.7128 97.1138 72.5521 97.3195 72.5521H131.634C131.839 72.5521 131.987 72.7128 131.987 72.9056V77.2118C131.987 77.4046 131.839 77.5653 131.634 77.5653H102.313V77.5588ZM97.3259 65.0131C97.1202 65.0131 96.9595 64.8525 96.9595 64.6596V60.3535C96.9595 60.1607 97.1202 60 97.3259 60H131.64C131.846 60 131.994 60.1607 131.994 60.3535V64.6596C131.994 64.8525 131.846 65.0131 131.64 65.0131H97.3259Z" fill="white"/>
<path d="M131.334 90.1064C131.129 90.1064 131.039 89.9586 131.129 89.7851L143.507 65.06C144.343 63.3825 145.05 62.2257 145.609 61.5765C146.354 60.7089 147.325 60.1947 148.514 60.0469C149.703 60.1947 150.673 60.696 151.419 61.5315C151.682 61.8272 151.978 62.2642 152.332 62.8684C152.672 63.4532 153.347 64.7322 153.347 64.7322C153.437 64.9058 153.585 65.1886 153.668 65.3621L165.854 89.7787C165.944 89.9522 165.841 90.1 165.649 90.1H161.362C161.169 90.1 160.937 89.9522 160.847 89.7787L149.761 67.5473C149.292 66.5897 148.88 66.1205 148.559 66.1205C148.205 66.1205 147.505 67.2388 147.505 67.2388C147.402 67.4123 147.241 67.6951 147.151 67.8558L136.09 89.7787C136 89.9522 135.769 90.1 135.576 90.1H131.334V90.1064Z" fill="white"/>
<path d="M178.239 77.5588H178.31C178.413 77.5588 178.664 77.5588 178.856 77.5588L196.197 77.5267C196.216 77.5267 196.235 77.5267 196.255 77.5203V77.5267C202.052 77.5267 204.976 74.988 204.976 70.0456V67.5068C204.976 62.5001 202.071 60 196.267 60H170.244C170.051 60 169.891 60.1607 169.891 60.3535V64.6018C169.891 64.8075 170.051 64.9681 170.244 64.9681H196.621C198.825 64.9681 199.924 67.4683 199.924 68.7151C199.924 69.962 198.896 72.4172 196.692 72.4621C196.627 72.4621 196.531 72.4686 196.441 72.4814C196.409 72.4686 196.37 72.4621 196.338 72.4621C196.338 72.4621 178.599 72.5521 178.554 72.5521C172.783 72.565 169.891 75.0651 169.891 79.969V89.6675C169.891 89.8603 170.051 90.021 170.244 90.021H204.623C204.815 90.021 204.976 89.8603 204.976 89.6675V85.4063C204.976 85.2135 204.815 85.0528 204.623 85.0528H175.283C175.09 85.0528 174.929 84.8922 174.929 84.6994V81.2609C174.936 78.7928 176.035 77.5588 178.239 77.5588Z" fill="white"/>
<defs>
<linearGradient id="paint0_linear_4817_453" x1="0" y1="150" x2="276.275" y2="37.5186" gradientUnits="userSpaceOnUse">
<stop stop-color="#3C53A1"/>
<stop offset="1" stop-color="#020202"/>
</linearGradient>
</defs>
</svg>
