<svg width="260" height="150" viewBox="0 0 260 150" fill="none" xmlns="http://www.w3.org/2000/svg">
<rect width="260" height="150" fill="#5E5E5E"/>
<path d="M83.3318 72.5457H67.6176C67.4248 72.5457 67.4119 72.475 67.5854 72.385L91.4043 60.1607C91.5778 60.0707 91.565 60 91.3721 60H81.5515C81.3459 60 81.0502 60.0707 80.8767 60.1607L62.3152 69.7242C62.1352 69.8142 61.9939 70.0327 61.9939 70.2384V60.3535C61.9939 60.1607 61.846 60 61.6404 60H57.3535C57.1607 60 57 60.1607 57 60.3535V89.6611C57 89.8539 57.1607 90.0146 57.3535 90.0146H61.6404C61.846 90.0146 61.9939 89.8539 61.9939 89.6611V77.2311C61.9939 77.4239 62.1545 77.5846 62.3602 77.5846L83.6982 77.5524C85.9027 77.5524 87.0017 78.7864 87.0017 81.2544V89.6611C87.0017 89.8539 87.1495 90.0146 87.3552 90.0146H91.6871C91.8799 90.0146 92.0406 89.8539 92.0406 89.6611V79.9626C92.0341 75.033 89.1291 72.5457 83.3318 72.5457Z" fill="white"/>
<path d="M101.313 77.5588C101.121 77.5588 100.96 77.7195 100.96 77.9123V89.6675C100.96 89.8603 100.799 90.021 100.606 90.021H96.3195C96.1138 90.021 95.9531 89.8603 95.9531 89.6675V72.9056C95.9531 72.7128 96.1138 72.5521 96.3195 72.5521H130.634C130.839 72.5521 130.987 72.7128 130.987 72.9056V77.2118C130.987 77.4046 130.839 77.5653 130.634 77.5653H101.313V77.5588ZM96.3259 65.0131C96.1202 65.0131 95.9595 64.8525 95.9595 64.6596V60.3535C95.9595 60.1607 96.1202 60 96.3259 60H130.64C130.846 60 130.994 60.1607 130.994 60.3535V64.6596C130.994 64.8525 130.846 65.0131 130.64 65.0131H96.3259Z" fill="white"/>
<path d="M130.334 90.1064C130.129 90.1064 130.039 89.9586 130.129 89.7851L142.507 65.06C143.343 63.3825 144.05 62.2257 144.609 61.5765C145.354 60.7089 146.325 60.1947 147.514 60.0469C148.703 60.1947 149.673 60.696 150.419 61.5315C150.682 61.8272 150.978 62.2642 151.332 62.8684C151.672 63.4532 152.347 64.7322 152.347 64.7322C152.437 64.9058 152.585 65.1886 152.668 65.3621L164.854 89.7787C164.944 89.9522 164.841 90.1 164.649 90.1H160.362C160.169 90.1 159.937 89.9522 159.847 89.7787L148.761 67.5473C148.292 66.5897 147.88 66.1205 147.559 66.1205C147.205 66.1205 146.505 67.2388 146.505 67.2388C146.402 67.4123 146.241 67.6951 146.151 67.8558L135.09 89.7787C135 89.9522 134.769 90.1 134.576 90.1H130.334V90.1064Z" fill="white"/>
<path d="M177.239 77.5588H177.31C177.413 77.5588 177.664 77.5588 177.856 77.5588L195.197 77.5267C195.216 77.5267 195.235 77.5267 195.255 77.5203V77.5267C201.052 77.5267 203.976 74.988 203.976 70.0456V67.5068C203.976 62.5001 201.071 60 195.267 60H169.244C169.051 60 168.891 60.1607 168.891 60.3535V64.6018C168.891 64.8075 169.051 64.9681 169.244 64.9681H195.621C197.825 64.9681 198.924 67.4683 198.924 68.7151C198.924 69.962 197.896 72.4172 195.692 72.4621C195.627 72.4621 195.531 72.4686 195.441 72.4814C195.409 72.4686 195.37 72.4621 195.338 72.4621C195.338 72.4621 177.599 72.5521 177.554 72.5521C171.783 72.565 168.891 75.0651 168.891 79.969V89.6675C168.891 89.8603 169.051 90.021 169.244 90.021H203.623C203.815 90.021 203.976 89.8603 203.976 89.6675V85.4063C203.976 85.2135 203.815 85.0528 203.623 85.0528H174.283C174.09 85.0528 173.929 84.8922 173.929 84.6994V81.2609C173.936 78.7928 175.035 77.5588 177.239 77.5588Z" fill="white"/>
</svg>
