<svg width="280" height="97" viewBox="0 0 280 97" fill="none" xmlns="http://www.w3.org/2000/svg">
<rect width="107.692" height="97" fill="black"/>
<path d="M163.203 40.841V28.2383H164.737V34.1546L170.164 28.2383H172.094L166.46 34.3558L172.534 40.841H170.552L164.737 34.6797V40.841H163.203Z" fill="#171117"/>
<path d="M155.852 41.1044C154.617 41.1044 153.569 40.8272 152.707 40.273C151.846 39.7187 151.188 38.9485 150.734 37.9625C150.286 36.9764 150.062 35.8358 150.062 34.5405C150.062 33.2452 150.286 32.1045 150.734 31.1185C151.188 30.1324 151.846 29.3623 152.707 28.808C153.569 28.2537 154.617 27.9766 155.852 27.9766C157.288 27.9766 158.468 28.3471 159.393 29.0881C160.323 29.829 160.964 30.8268 161.314 32.0812L159.755 32.5013C159.502 31.5619 159.051 30.8209 158.402 30.2783C157.753 29.7357 156.903 29.4644 155.852 29.4644C154.927 29.4644 154.158 29.6773 153.543 30.1033C152.929 30.5292 152.466 31.1243 152.156 31.8887C151.846 32.6471 151.688 33.5311 151.682 34.5405C151.676 35.544 151.829 36.428 152.139 37.1923C152.449 37.9508 152.914 38.5459 153.534 38.9777C154.155 39.4036 154.927 39.6166 155.852 39.6166C156.903 39.6166 157.753 39.3453 158.402 38.8026C159.051 38.2542 159.502 37.5132 159.755 36.5797L161.314 36.9998C160.964 38.2484 160.323 39.2461 159.393 39.9929C158.468 40.7339 157.288 41.1044 155.852 41.1044Z" fill="#171117"/>
<path d="M139.109 40.841L143.262 28.2383H145.399L149.551 40.841H147.957L144.072 29.1485H144.554L140.703 40.841H139.109ZM141.108 37.8916V36.43H147.552V37.8916H141.108Z" fill="#171117"/>
<path d="M131.219 40.841V28.2383H132.752V39.3619H138.507V40.841H131.219Z" fill="#171117"/>
<path d="M120.383 40.841V28.2383H125.216C125.957 28.2383 126.589 28.3929 127.111 28.7021C127.64 29.0114 128.042 29.4198 128.318 29.9274C128.599 30.4292 128.74 30.9718 128.74 31.5552C128.74 32.2379 128.567 32.8359 128.223 33.3494C127.878 33.8628 127.413 34.2158 126.827 34.4084L126.81 33.9795C127.608 34.1954 128.229 34.5921 128.671 35.1698C129.113 35.7474 129.334 36.4359 129.334 37.2352C129.334 37.9704 129.185 38.6063 128.886 39.1431C128.593 39.6799 128.168 40.0971 127.611 40.3946C127.06 40.6922 126.405 40.841 125.647 40.841H120.383ZM121.934 39.3532H125.354C125.813 39.3532 126.224 39.2686 126.586 39.0994C126.948 38.9243 127.232 38.6793 127.439 38.3642C127.651 38.0491 127.758 37.6699 127.758 37.2265C127.758 36.8005 127.663 36.4184 127.473 36.08C127.289 35.7416 127.028 35.4732 126.689 35.2748C126.356 35.0706 125.968 34.9685 125.526 34.9685H121.934V39.3532ZM121.934 33.4982H125.199C125.566 33.4982 125.897 33.4194 126.19 33.2619C126.488 33.0985 126.724 32.8709 126.896 32.5792C127.074 32.2875 127.163 31.9462 127.163 31.5552C127.163 31.0126 126.982 30.5692 126.62 30.225C126.259 29.8807 125.785 29.7086 125.199 29.7086H121.934V33.4982Z" fill="#171117"/>
<path d="M219.92 68.0019C219.434 68.0019 218.993 67.8832 218.599 67.646C218.209 67.4087 217.896 67.0917 217.663 66.6949C217.429 66.2943 217.312 65.847 217.312 65.353V61.8989C217.312 61.4049 217.429 60.9595 217.663 60.5628C217.896 60.1621 218.209 59.8432 218.599 59.6059C218.993 59.3686 219.434 59.25 219.92 59.25C220.406 59.25 220.847 59.3686 221.241 59.6059C221.636 59.8432 221.948 60.1621 222.177 60.5628C222.411 60.9595 222.528 61.4049 222.528 61.8989V65.353C222.528 65.847 222.411 66.2943 222.177 66.6949C221.948 67.0917 221.636 67.4087 221.241 67.646C220.847 67.8832 220.406 68.0019 219.92 68.0019ZM219.92 67.3426C220.276 67.3426 220.6 67.2551 220.891 67.08C221.186 66.9011 221.421 66.6619 221.597 66.3624C221.773 66.0629 221.861 65.7322 221.861 65.3705V61.8756C221.861 61.5177 221.773 61.189 221.597 60.8895C221.421 60.59 221.186 60.3527 220.891 60.1777C220.6 59.9988 220.276 59.9093 219.92 59.9093C219.564 59.9093 219.239 59.9988 218.944 60.1777C218.653 60.3527 218.419 60.59 218.243 60.8895C218.067 61.189 217.979 61.5177 217.979 61.8756V65.3705C217.979 65.7322 218.067 66.0629 218.243 66.3624C218.419 66.6619 218.653 66.9011 218.944 67.08C219.239 67.2551 219.564 67.3426 219.92 67.3426Z" fill="#171117"/>
<path d="M213.092 68.0019C212.606 68.0019 212.165 67.8832 211.771 67.646C211.38 67.4087 211.068 67.0917 210.835 66.6949C210.601 66.2943 210.484 65.847 210.484 65.353V61.8989C210.484 61.4049 210.601 60.9595 210.835 60.5628C211.068 60.1621 211.38 59.8432 211.771 59.6059C212.165 59.3686 212.606 59.25 213.092 59.25C213.578 59.25 214.019 59.3686 214.413 59.6059C214.807 59.8432 215.119 60.1621 215.349 60.5628C215.583 60.9595 215.7 61.4049 215.7 61.8989V65.353C215.7 65.847 215.583 66.2943 215.349 66.6949C215.119 67.0917 214.807 67.4087 214.413 67.646C214.019 67.8832 213.578 68.0019 213.092 68.0019ZM213.092 67.3426C213.448 67.3426 213.772 67.2551 214.063 67.08C214.357 66.9011 214.593 66.6619 214.769 66.3624C214.945 66.0629 215.033 65.7322 215.033 65.3705V61.8756C215.033 61.5177 214.945 61.189 214.769 60.8895C214.593 60.59 214.357 60.3527 214.063 60.1777C213.772 59.9988 213.448 59.9093 213.092 59.9093C212.736 59.9093 212.41 59.9988 212.116 60.1777C211.825 60.3527 211.591 60.59 211.415 60.8895C211.239 61.189 211.151 61.5177 211.151 61.8756V65.3705C211.151 65.7322 211.239 66.0629 211.415 66.3624C211.591 66.6619 211.825 66.9011 212.116 67.08C212.41 67.2551 212.736 67.3426 213.092 67.3426Z" fill="#171117"/>
<path d="M207.64 67.8276V60.1901L206.078 61.1411V60.371L207.64 59.4258H208.307V67.8276H207.64Z" fill="#171117"/>
<path d="M204.01 59.4258H204.699L202.494 67.8276H201.805L204.01 59.4258Z" fill="#171117"/>
<path d="M197.701 68.0019C197.215 68.0019 196.775 67.8832 196.38 67.646C195.99 67.4087 195.678 67.0917 195.444 66.6949C195.211 66.2943 195.094 65.847 195.094 65.353V61.8989C195.094 61.4049 195.211 60.9595 195.444 60.5628C195.678 60.1621 195.99 59.8432 196.38 59.6059C196.775 59.3686 197.215 59.25 197.701 59.25C198.188 59.25 198.628 59.3686 199.022 59.6059C199.417 59.8432 199.729 60.1621 199.959 60.5628C200.192 60.9595 200.309 61.4049 200.309 61.8989V65.353C200.309 65.847 200.192 66.2943 199.959 66.6949C199.729 67.0917 199.417 67.4087 199.022 67.646C198.628 67.8832 198.188 68.0019 197.701 68.0019ZM197.701 67.3426C198.057 67.3426 198.381 67.2551 198.672 67.08C198.967 66.9011 199.202 66.6619 199.378 66.3624C199.555 66.0629 199.643 65.7322 199.643 65.3705V61.8756C199.643 61.5177 199.555 61.189 199.378 60.8895C199.202 60.59 198.967 60.3527 198.672 60.1777C198.381 59.9988 198.057 59.9093 197.701 59.9093C197.345 59.9093 197.02 59.9988 196.725 60.1777C196.434 60.3527 196.2 60.59 196.024 60.8895C195.848 61.189 195.76 61.5177 195.76 61.8756V65.3705C195.76 65.7322 195.848 66.0629 196.024 66.3624C196.2 66.6619 196.434 66.9011 196.725 67.08C197.02 67.2551 197.345 67.3426 197.701 67.3426Z" fill="#171117"/>
<path d="M190.929 68.0026C190.496 68.0026 190.096 67.9132 189.728 67.7342C189.364 67.5553 189.054 67.3083 188.798 66.9932C188.545 66.6743 188.365 66.3125 188.258 65.908L188.89 65.733C188.974 66.0597 189.119 66.3437 189.326 66.5848C189.533 66.8221 189.776 67.0069 190.056 67.1391C190.335 67.2675 190.628 67.3316 190.934 67.3316C191.336 67.3316 191.696 67.2344 192.014 67.0399C192.332 66.8415 192.583 66.5809 192.767 66.2581C192.954 65.9313 193.048 65.5754 193.048 65.1904C193.048 64.7858 192.95 64.4221 192.755 64.0993C192.56 63.7764 192.301 63.5197 191.98 63.3291C191.662 63.1385 191.313 63.0432 190.934 63.0432C190.525 63.0432 190.165 63.1405 189.855 63.335C189.548 63.5256 189.301 63.7745 189.114 64.0818L188.482 63.7667L188.735 59.4258H193.123V60.0793H188.982L189.372 59.7117L189.131 63.6559L188.936 63.3758C189.177 63.0763 189.475 62.839 189.832 62.664C190.188 62.4889 190.569 62.4014 190.975 62.4014C191.48 62.4014 191.939 62.5259 192.353 62.7748C192.767 63.0238 193.096 63.3602 193.341 63.7842C193.59 64.2043 193.714 64.673 193.714 65.1904C193.714 65.6999 193.588 66.1686 193.335 66.5965C193.082 67.0205 192.744 67.3608 192.319 67.6175C191.897 67.8743 191.434 68.0026 190.929 68.0026Z" fill="#171117"/>
<path d="M186.307 59.4258H186.996L184.791 67.8276H184.102L186.307 59.4258Z" fill="#171117"/>
<path d="M180.006 68.0019C179.52 68.0019 179.079 67.8832 178.685 67.646C178.294 67.4087 177.982 67.0917 177.749 66.6949C177.515 66.2943 177.398 65.847 177.398 65.353V61.8989C177.398 61.4049 177.515 60.9595 177.749 60.5628C177.982 60.1621 178.294 59.8432 178.685 59.6059C179.079 59.3686 179.52 59.25 180.006 59.25C180.492 59.25 180.933 59.3686 181.327 59.6059C181.721 59.8432 182.034 60.1621 182.263 60.5628C182.497 60.9595 182.614 61.4049 182.614 61.8989V65.353C182.614 65.847 182.497 66.2943 182.263 66.6949C182.034 67.0917 181.721 67.4087 181.327 67.646C180.933 67.8832 180.492 68.0019 180.006 68.0019ZM180.006 67.3426C180.362 67.3426 180.686 67.2551 180.977 67.08C181.272 66.9011 181.507 66.6619 181.683 66.3624C181.859 66.0629 181.947 65.7322 181.947 65.3705V61.8756C181.947 61.5177 181.859 61.189 181.683 60.8895C181.507 60.59 181.272 60.3527 180.977 60.1777C180.686 59.9988 180.362 59.9093 180.006 59.9093C179.65 59.9093 179.324 59.9988 179.03 60.1777C178.739 60.3527 178.505 60.59 178.329 60.8895C178.153 61.189 178.065 61.5177 178.065 61.8756V65.3705C178.065 65.7322 178.153 66.0629 178.329 66.3624C178.505 66.6619 178.739 66.9011 179.03 67.08C179.324 67.2551 179.65 67.3426 180.006 67.3426Z" fill="#171117"/>
<path d="M173.233 68.0026C172.801 68.0026 172.4 67.9132 172.033 67.7342C171.669 67.5553 171.359 67.3083 171.102 66.9932C170.85 66.6743 170.67 66.3125 170.562 65.908L171.194 65.733C171.279 66.0597 171.424 66.3437 171.631 66.5848C171.838 66.8221 172.081 67.0069 172.36 67.1391C172.64 67.2675 172.933 67.3316 173.239 67.3316C173.641 67.3316 174.001 67.2344 174.319 67.0399C174.637 66.8415 174.887 66.5809 175.071 66.2581C175.259 65.9313 175.353 65.5754 175.353 65.1904C175.353 64.7858 175.255 64.4221 175.06 64.0993C174.864 63.7764 174.606 63.5197 174.284 63.3291C173.967 63.1385 173.618 63.0432 173.239 63.0432C172.829 63.0432 172.469 63.1405 172.159 63.335C171.853 63.5256 171.606 63.7745 171.418 64.0818L170.786 63.7667L171.039 59.4258H175.427V60.0793H171.286L171.677 59.7117L171.436 63.6559L171.24 63.3758C171.481 63.0763 171.78 62.839 172.136 62.664C172.492 62.4889 172.873 62.4014 173.279 62.4014C173.785 62.4014 174.244 62.5259 174.658 62.7748C175.071 63.0238 175.401 63.3602 175.646 63.7842C175.894 64.2043 176.019 64.673 176.019 65.1904C176.019 65.6999 175.893 66.1686 175.64 66.5965C175.387 67.0205 175.048 67.3608 174.623 67.6175C174.202 67.8743 173.739 68.0026 173.233 68.0026Z" fill="#171117"/>
<path d="M168.604 59.4258H169.293L167.088 67.8276H166.398L168.604 59.4258Z" fill="#171117"/>
<path d="M162.303 68.0019C161.817 68.0019 161.376 67.8832 160.982 67.646C160.591 67.4087 160.279 67.0917 160.046 66.6949C159.812 66.2943 159.695 65.847 159.695 65.353V61.8989C159.695 61.4049 159.812 60.9595 160.046 60.5628C160.279 60.1621 160.591 59.8432 160.982 59.6059C161.376 59.3686 161.817 59.25 162.303 59.25C162.789 59.25 163.23 59.3686 163.624 59.6059C164.018 59.8432 164.33 60.1621 164.56 60.5628C164.794 60.9595 164.91 61.4049 164.91 61.8989V65.353C164.91 65.847 164.794 66.2943 164.56 66.6949C164.33 67.0917 164.018 67.4087 163.624 67.646C163.23 67.8832 162.789 68.0019 162.303 68.0019ZM162.303 67.3426C162.659 67.3426 162.983 67.2551 163.274 67.08C163.568 66.9011 163.804 66.6619 163.98 66.3624C164.156 66.0629 164.244 65.7322 164.244 65.3705V61.8756C164.244 61.5177 164.156 61.189 163.98 60.8895C163.804 60.59 163.568 60.3527 163.274 60.1777C162.983 59.9988 162.659 59.9093 162.303 59.9093C161.947 59.9093 161.621 59.9988 161.326 60.1777C161.035 60.3527 160.802 60.59 160.626 60.8895C160.45 61.189 160.362 61.5177 160.362 61.8756V65.3705C160.362 65.7322 160.45 66.0629 160.626 66.3624C160.802 66.6619 161.035 66.9011 161.326 67.08C161.621 67.2551 161.947 67.3426 162.303 67.3426Z" fill="#171117"/>
<path d="M155.35 68.0019C154.837 68.0019 154.37 67.8755 153.949 67.6226C153.528 67.3659 153.193 67.0236 152.944 66.5957C152.695 66.164 152.57 65.6836 152.57 65.1546V62.1206C152.57 61.5838 152.695 61.0996 152.944 60.6678C153.193 60.2322 153.528 59.8879 153.949 59.6351C154.374 59.3784 154.851 59.25 155.379 59.25C155.869 59.25 156.319 59.3686 156.729 59.6059C157.142 59.8393 157.472 60.1544 157.717 60.5511L157.188 60.942C157.001 60.6309 156.748 60.3819 156.43 60.1952C156.112 60.0046 155.762 59.9093 155.379 59.9093C154.969 59.9093 154.604 60.0104 154.282 60.2127C153.96 60.415 153.706 60.6814 153.518 61.012C153.33 61.3388 153.237 61.6947 153.237 62.0798V64.0577L153.041 63.8243C153.283 63.4042 153.608 63.0639 154.018 62.8033C154.431 62.5388 154.889 62.4065 155.39 62.4065C155.896 62.4065 156.355 62.5329 156.769 62.7858C157.186 63.0347 157.516 63.3712 157.757 63.7951C158.002 64.2152 158.124 64.682 158.124 65.1954C158.124 65.7128 157.998 66.1834 157.745 66.6074C157.496 67.0314 157.161 67.3698 156.74 67.6226C156.319 67.8755 155.856 68.0019 155.35 68.0019ZM155.35 67.3426C155.741 67.3426 156.095 67.2473 156.413 67.0567C156.734 66.8622 156.989 66.6035 157.177 66.2807C157.364 65.9539 157.458 65.5922 157.458 65.1954C157.458 64.7987 157.364 64.4389 157.177 64.116C156.989 63.7893 156.734 63.5306 156.413 63.34C156.095 63.1494 155.741 63.0542 155.35 63.0542C154.96 63.0542 154.604 63.1494 154.282 63.34C153.964 63.5306 153.709 63.7893 153.518 64.116C153.33 64.4389 153.237 64.7987 153.237 65.1954C153.237 65.5922 153.33 65.9539 153.518 66.2807C153.709 66.6035 153.964 66.8622 154.282 67.0567C154.604 67.2473 154.96 67.3426 155.35 67.3426Z" fill="#171117"/>
<path d="M143.875 67.8276V59.4258H144.536V63.4166L148.47 59.4258H149.343L145.386 63.4633L149.688 67.8276H148.803L144.536 63.5333V67.8276H143.875Z" fill="#171117"/>
<path d="M139.663 67.8276V64.2802L136.906 59.4258H137.67L139.996 63.51L142.317 59.4258H143.081L140.329 64.2802V67.8276H139.663Z" fill="#171117"/>
<path d="M128.109 67.8276V59.4258H128.724L132.113 66.859L135.467 59.4258H136.104V67.8159H135.455V60.9719L132.377 67.8276H131.837L128.753 60.9719V67.8276H128.109Z" fill="#171117"/>
<path d="M123.285 68.0019C122.462 68.0019 121.771 67.8171 121.212 67.4476C120.653 67.0742 120.232 66.5588 119.948 65.9014C119.665 65.2441 119.523 64.4856 119.523 63.6259C119.523 62.7663 119.665 62.0078 119.948 61.3505C120.232 60.6931 120.653 60.1796 121.212 59.8101C121.771 59.4367 122.462 59.25 123.285 59.25C124.247 59.25 125.026 59.5028 125.623 60.0085C126.224 60.5142 126.632 61.191 126.847 62.0389L126.163 62.2081C125.987 61.5041 125.658 60.9459 125.175 60.5336C124.696 60.1174 124.067 59.9093 123.285 59.9093C122.608 59.9093 122.043 60.0668 121.591 60.3819C121.143 60.697 120.804 61.1346 120.575 61.6947C120.349 62.2548 120.234 62.8986 120.23 63.6259C120.222 64.3533 120.331 64.9971 120.557 65.5572C120.787 66.1134 121.13 66.551 121.585 66.87C122.041 67.185 122.608 67.3426 123.285 67.3426C124.067 67.3426 124.696 67.1345 125.175 66.7183C125.658 66.3021 125.987 65.7439 126.163 65.0437L126.847 65.2129C126.632 66.0609 126.224 66.7377 125.623 67.2434C125.026 67.749 124.247 68.0019 123.285 68.0019Z" fill="#171117"/>
<path d="M169.186 83.3183C168.699 83.3183 168.259 83.1996 167.865 82.9624C167.474 82.7251 167.162 82.4081 166.928 82.0113C166.695 81.6107 166.578 81.1634 166.578 80.6694V77.2153C166.578 76.7213 166.695 76.2759 166.928 75.8792C167.162 75.4785 167.474 75.1596 167.865 74.9223C168.259 74.685 168.699 74.5664 169.186 74.5664C169.672 74.5664 170.112 74.685 170.507 74.9223C170.901 75.1596 171.213 75.4785 171.443 75.8792C171.677 76.2759 171.793 76.7213 171.793 77.2153V80.6694C171.793 81.1634 171.677 81.6107 171.443 82.0113C171.213 82.4081 170.901 82.7251 170.507 82.9624C170.112 83.1996 169.672 83.3183 169.186 83.3183ZM169.186 82.659C169.542 82.659 169.865 82.5715 170.156 82.3964C170.451 82.2175 170.687 81.9783 170.863 81.6788C171.039 81.3793 171.127 81.0486 171.127 80.6869V77.192C171.127 76.8341 171.039 76.5054 170.863 76.2059C170.687 75.9064 170.451 75.6691 170.156 75.4941C169.865 75.3152 169.542 75.2257 169.186 75.2257C168.83 75.2257 168.504 75.3152 168.209 75.4941C167.918 75.6691 167.685 75.9064 167.509 76.2059C167.332 76.5054 167.244 76.8341 167.244 77.192V80.6869C167.244 81.0486 167.332 81.3793 167.509 81.6788C167.685 81.9783 167.918 82.2175 168.209 82.3964C168.504 82.5715 168.83 82.659 169.186 82.659Z" fill="#171117"/>
<path d="M164.401 74.7422H165.09L162.885 83.144H162.195L164.401 74.7422Z" fill="#171117"/>
<path d="M158.092 83.3183C157.606 83.3183 157.165 83.1996 156.771 82.9624C156.38 82.7251 156.068 82.4081 155.835 82.0113C155.601 81.6107 155.484 81.1634 155.484 80.6694V77.2153C155.484 76.7213 155.601 76.2759 155.835 75.8792C156.068 75.4785 156.38 75.1596 156.771 74.9223C157.165 74.685 157.606 74.5664 158.092 74.5664C158.578 74.5664 159.019 74.685 159.413 74.9223C159.807 75.1596 160.119 75.4785 160.349 75.8792C160.583 76.2759 160.7 76.7213 160.7 77.2153V80.6694C160.7 81.1634 160.583 81.6107 160.349 82.0113C160.119 82.4081 159.807 82.7251 159.413 82.9624C159.019 83.1996 158.578 83.3183 158.092 83.3183ZM158.092 82.659C158.448 82.659 158.772 82.5715 159.063 82.3964C159.357 82.2175 159.593 81.9783 159.769 81.6788C159.945 81.3793 160.033 81.0486 160.033 80.6869V77.192C160.033 76.8341 159.945 76.5054 159.769 76.2059C159.593 75.9064 159.357 75.6691 159.063 75.4941C158.772 75.3152 158.448 75.2257 158.092 75.2257C157.736 75.2257 157.41 75.3152 157.116 75.4941C156.825 75.6691 156.591 75.9064 156.415 76.2059C156.239 76.5054 156.151 76.8341 156.151 77.192V80.6869C156.151 81.0486 156.239 81.3793 156.415 81.6788C156.591 81.9783 156.825 82.2175 157.116 82.3964C157.41 82.5715 157.736 82.659 158.092 82.659Z" fill="#171117"/>
<path d="M153.299 74.7422H153.989L151.783 83.144H151.094L153.299 74.7422Z" fill="#171117"/>
<path d="M146.998 83.3183C146.512 83.3183 146.072 83.1996 145.677 82.9624C145.287 82.7251 144.975 82.4081 144.741 82.0113C144.507 81.6107 144.391 81.1634 144.391 80.6694V77.2153C144.391 76.7213 144.507 76.2759 144.741 75.8792C144.975 75.4785 145.287 75.1596 145.677 74.9223C146.072 74.685 146.512 74.5664 146.998 74.5664C147.485 74.5664 147.925 74.685 148.319 74.9223C148.714 75.1596 149.026 75.4785 149.255 75.8792C149.489 76.2759 149.606 76.7213 149.606 77.2153V80.6694C149.606 81.1634 149.489 81.6107 149.255 82.0113C149.026 82.4081 148.714 82.7251 148.319 82.9624C147.925 83.1996 147.485 83.3183 146.998 83.3183ZM146.998 82.659C147.354 82.659 147.678 82.5715 147.969 82.3964C148.264 82.2175 148.499 81.9783 148.675 81.6788C148.851 81.3793 148.94 81.0486 148.94 80.6869V77.192C148.94 76.8341 148.851 76.5054 148.675 76.2059C148.499 75.9064 148.264 75.6691 147.969 75.4941C147.678 75.3152 147.354 75.2257 146.998 75.2257C146.642 75.2257 146.317 75.3152 146.022 75.4941C145.731 75.6691 145.497 75.9064 145.321 76.2059C145.145 76.5054 145.057 76.8341 145.057 77.192V80.6869C145.057 81.0486 145.145 81.3793 145.321 81.6788C145.497 81.9783 145.731 82.2175 146.022 82.3964C146.317 82.5715 146.642 82.659 146.998 82.659Z" fill="#171117"/>
<path d="M135.117 83.144V74.7422H138.282C138.711 74.7422 139.096 74.8355 139.436 75.0222C139.781 75.2051 140.051 75.456 140.246 75.7749C140.445 76.0939 140.545 76.4537 140.545 76.8543C140.545 77.3055 140.422 77.712 140.177 78.0737C139.932 78.4316 139.607 78.6825 139.201 78.8264L139.178 78.5463C139.722 78.7136 140.152 78.9937 140.47 79.3865C140.792 79.7755 140.953 80.2578 140.953 80.8335C140.953 81.3158 140.847 81.7301 140.637 82.0763C140.43 82.4186 140.143 82.6831 139.775 82.8698C139.408 83.0526 138.99 83.144 138.523 83.144H135.117ZM135.783 82.4847H138.305C138.672 82.4847 139.002 82.4205 139.293 82.2921C139.588 82.1638 139.819 81.979 139.988 81.7379C140.16 81.4967 140.246 81.205 140.246 80.8627C140.246 80.5243 140.168 80.2189 140.011 79.9466C139.858 79.6705 139.649 79.4526 139.385 79.2932C139.12 79.1298 138.824 79.0481 138.494 79.0481H135.783V82.4847ZM135.783 78.4005H138.276C138.563 78.4005 138.826 78.3324 139.063 78.1963C139.304 78.0601 139.496 77.8754 139.637 77.642C139.779 77.4047 139.85 77.1344 139.85 76.831C139.85 76.3992 139.699 76.0511 139.396 75.7866C139.097 75.5221 138.724 75.3898 138.276 75.3898H135.783V78.4005Z" fill="#171117"/>
<path d="M130.401 83.3183C129.8 83.3183 129.266 83.2133 128.799 83.0033C128.335 82.7932 127.945 82.4957 127.627 82.1106C127.309 81.7255 127.068 81.2646 126.903 80.7278C126.739 80.191 126.656 79.5959 126.656 78.9424C126.656 78.075 126.8 77.3145 127.087 76.6611C127.378 76.0037 127.801 75.4922 128.356 75.1266C128.912 74.7609 129.593 74.5781 130.401 74.5781C131.236 74.5781 131.921 74.7765 132.457 75.1733C132.997 75.57 133.376 76.0912 133.595 76.7369L132.94 76.9411C132.748 76.4238 132.436 76.0115 132.004 75.7042C131.575 75.393 131.046 75.2355 130.418 75.2316C129.741 75.2316 129.176 75.3891 128.724 75.7042C128.276 76.0154 127.939 76.451 127.713 77.0111C127.487 77.5713 127.37 78.215 127.363 78.9424C127.355 79.6698 127.464 80.3135 127.69 80.8736C127.92 81.4299 128.263 81.8675 128.718 82.1864C129.174 82.5015 129.741 82.659 130.418 82.659C131.065 82.6629 131.594 82.5346 132.004 82.2739C132.417 82.0133 132.723 81.6477 132.923 81.177C133.125 80.7025 133.235 80.1482 133.25 79.5142H131.194V78.9016H133.939C133.951 78.9988 133.956 79.0941 133.956 79.1874C133.96 79.2808 133.962 79.3528 133.962 79.4033C133.962 80.1463 133.834 80.8134 133.577 81.4046C133.325 81.9958 132.934 82.4626 132.406 82.8049C131.881 83.1472 131.213 83.3183 130.401 83.3183Z" fill="#171117"/>
<path d="M119.984 83.144V74.7422H123.103C123.184 74.7422 123.27 74.7461 123.362 74.7539C123.457 74.7577 123.557 74.7694 123.66 74.7889C124.074 74.855 124.428 75.0067 124.723 75.244C125.022 75.4773 125.249 75.773 125.406 76.1308C125.563 76.4848 125.642 76.8757 125.642 77.3036C125.642 77.922 125.479 78.4608 125.154 78.9198C124.828 79.3787 124.374 79.6705 123.792 79.7949L123.603 79.8708H120.645V83.144H119.984ZM125.079 83.144L123.448 79.7249L124.062 79.4099L125.854 83.144H125.079ZM120.645 79.2115H123.092C123.161 79.2115 123.239 79.2076 123.327 79.1998C123.419 79.192 123.511 79.1804 123.603 79.1648C123.902 79.1026 124.15 78.98 124.35 78.7972C124.549 78.6105 124.698 78.3869 124.798 78.1262C124.897 77.8656 124.947 77.5914 124.947 77.3036C124.947 77.0157 124.897 76.7435 124.798 76.4867C124.698 76.2261 124.549 76.0044 124.35 75.8216C124.15 75.6349 123.902 75.5104 123.603 75.4482C123.511 75.4287 123.419 75.4151 123.327 75.4073C123.239 75.3996 123.161 75.3957 123.092 75.3957H120.645V79.2115Z" fill="#171117"/>
</svg>
