<svg width="280" height="102" viewBox="0 0 280 102" fill="none" xmlns="http://www.w3.org/2000/svg">
<path d="M213.08 38.3426V34.962C213.08 34.5939 213.045 34.2565 212.977 33.9497C212.908 33.6388 212.797 33.3689 212.644 33.1398C212.495 32.9067 212.299 32.7267 212.057 32.5999C211.819 32.4731 211.528 32.4097 211.185 32.4097C210.87 32.4097 210.592 32.4649 210.349 32.5754C210.111 32.6858 209.909 32.8453 209.744 33.0539C209.583 33.2585 209.459 33.508 209.375 33.8024C209.29 34.0969 209.248 34.4323 209.248 34.8086L208.618 34.6675C208.618 33.9886 208.735 33.418 208.969 32.9558C209.203 32.4936 209.526 32.1439 209.938 31.9066C210.349 31.6694 210.822 31.5508 211.354 31.5508C211.746 31.5508 212.087 31.6121 212.378 31.7348C212.672 31.8575 212.92 32.0232 213.122 32.2318C213.328 32.4404 213.493 32.6797 213.619 32.9496C213.744 33.2155 213.835 33.4998 213.891 33.8024C213.948 34.101 213.976 34.3996 213.976 34.6982V38.3426H213.08ZM208.352 38.3426V31.7164H209.157V33.3484H209.248V38.3426H208.352Z" fill="black"/>
<path d="M205.656 30.4615V29.4492H206.546V30.4615H205.656ZM205.656 38.3455V31.7193H206.546V38.3455H205.656Z" fill="black"/>
<path d="M195.961 38.337L195.967 37.5149L199.908 33.9073C200.247 33.5965 200.471 33.302 200.58 33.0238C200.693 32.7416 200.75 32.4471 200.75 32.1403C200.75 31.7763 200.665 31.447 200.495 31.1525C200.326 30.8581 200.098 30.6249 199.811 30.4531C199.525 30.2772 199.204 30.1893 198.849 30.1893C198.477 30.1893 198.146 30.2793 197.856 30.4593C197.565 30.6392 197.335 30.8765 197.166 31.171C197 31.4655 196.919 31.7865 196.924 32.1342H196.015C196.015 31.5984 196.141 31.1178 196.391 30.6924C196.641 30.267 196.98 29.9337 197.408 29.6923C197.836 29.4469 198.32 29.3242 198.861 29.3242C199.39 29.3242 199.864 29.451 200.284 29.7046C200.707 29.9541 201.04 30.2936 201.282 30.7231C201.529 31.1485 201.652 31.6229 201.652 32.1465C201.652 32.5146 201.607 32.8398 201.519 33.122C201.434 33.4001 201.299 33.6599 201.113 33.9012C200.931 34.1384 200.699 34.3838 200.417 34.6374L196.917 37.8401L196.778 37.4719H201.652V38.337H195.961Z" fill="black"/>
<path d="M193.008 38.3427V30.514L191.367 31.5141V30.5017L193.008 29.5078H193.91V38.3427H193.008Z" fill="black"/>
<path d="M190.031 38.341V37.293H191.066V38.341H190.031Z" fill="black"/>
<path d="M185.322 38.5272C184.785 38.5272 184.301 38.4004 183.869 38.1468C183.441 37.8932 183.102 37.5497 182.852 37.1161C182.602 36.6784 182.477 36.1876 182.477 35.6436V32.2078C182.477 31.6638 182.602 31.175 182.852 30.7415C183.102 30.3038 183.441 29.9582 183.869 29.7046C184.301 29.451 184.785 29.3242 185.322 29.3242C185.859 29.3242 186.341 29.451 186.769 29.7046C187.201 29.9582 187.542 30.3038 187.792 30.7415C188.042 31.175 188.167 31.6638 188.167 32.2078V35.6436C188.167 36.1876 188.042 36.6784 187.792 37.1161C187.542 37.5497 187.201 37.8932 186.769 38.1468C186.341 38.4004 185.859 38.5272 185.322 38.5272ZM185.322 37.656C185.681 37.656 186.008 37.5681 186.303 37.3922C186.597 37.2122 186.831 36.9729 187.005 36.6744C187.179 36.3758 187.265 36.0465 187.265 35.6866V32.1649C187.265 31.8008 187.179 31.4695 187.005 31.171C186.831 30.8724 186.597 30.6351 186.303 30.4593C186.008 30.2793 185.681 30.1893 185.322 30.1893C184.963 30.1893 184.636 30.2793 184.341 30.4593C184.047 30.6351 183.812 30.8724 183.639 31.171C183.465 31.4695 183.379 31.8008 183.379 32.1649V35.6866C183.379 36.0465 183.465 36.3758 183.639 36.6744C183.812 36.9729 184.047 37.2122 184.341 37.3922C184.636 37.5681 184.963 37.656 185.322 37.656Z" fill="black"/>
<path d="M209.647 55.9838L209.653 51.6338C209.653 51.1225 209.512 50.7217 209.23 50.4313C208.951 50.1368 208.596 49.9896 208.164 49.9896C207.918 49.9896 207.678 50.0468 207.444 50.1613C207.21 50.2759 207.016 50.4599 206.863 50.7135C206.713 50.9671 206.639 51.2984 206.639 51.7074L206.112 51.5541C206.1 51.0796 206.191 50.6644 206.384 50.3086C206.582 49.9527 206.852 49.6766 207.196 49.4803C207.543 49.2799 207.934 49.1797 208.37 49.1797C209.028 49.1797 209.555 49.3862 209.95 49.7994C210.346 50.2084 210.543 50.7626 210.543 51.462L210.537 55.9838H209.647ZM201.844 55.9838V49.3576H202.643V50.9896H202.74V55.9838H201.844ZM205.755 55.9838L205.761 51.6952C205.761 51.1675 205.621 50.7524 205.343 50.4497C205.069 50.1429 204.705 49.9896 204.253 49.9896C203.801 49.9896 203.436 50.147 203.157 50.462C202.879 50.7728 202.74 51.188 202.74 51.7074L202.207 51.413C202.207 50.9876 202.306 50.6072 202.504 50.2718C202.701 49.9323 202.972 49.6664 203.315 49.4742C203.658 49.2779 204.047 49.1797 204.483 49.1797C204.899 49.1797 205.268 49.2697 205.591 49.4496C205.918 49.6296 206.174 49.8914 206.36 50.235C206.546 50.5785 206.639 50.9957 206.639 51.4866L206.633 55.9838H205.755Z" fill="black"/>
<path d="M199.382 55.9838L199.388 51.6338C199.388 51.1225 199.247 50.7217 198.964 50.4313C198.686 50.1368 198.33 49.9896 197.899 49.9896C197.652 49.9896 197.412 50.0468 197.178 50.1613C196.944 50.2759 196.75 50.4599 196.597 50.7135C196.448 50.9671 196.373 51.2984 196.373 51.7074L195.846 51.5541C195.834 51.0796 195.925 50.6644 196.119 50.3086C196.316 49.9527 196.587 49.6766 196.93 49.4803C197.277 49.2799 197.669 49.1797 198.104 49.1797C198.762 49.1797 199.289 49.3862 199.685 49.7994C200.08 50.2084 200.278 50.7626 200.278 51.462L200.272 55.9838H199.382ZM191.578 55.9838V49.3576H192.377V50.9896H192.474V55.9838H191.578ZM195.489 55.9838L195.495 51.6952C195.495 51.1675 195.356 50.7524 195.077 50.4497C194.803 50.1429 194.44 49.9896 193.988 49.9896C193.536 49.9896 193.17 50.147 192.892 50.462C192.613 50.7728 192.474 51.188 192.474 51.7074L191.941 51.413C191.941 50.9876 192.04 50.6072 192.238 50.2718C192.436 49.9323 192.706 49.6664 193.049 49.4742C193.392 49.2779 193.782 49.1797 194.218 49.1797C194.633 49.1797 195.003 49.2697 195.326 49.4496C195.653 49.6296 195.909 49.8914 196.094 50.235C196.28 50.5785 196.373 50.9957 196.373 51.4866L196.367 55.9838H195.489Z" fill="black"/>
<path d="M184.816 56.1613C184.384 56.1613 183.986 56.0835 183.623 55.9281C183.26 55.7727 182.947 55.5518 182.685 55.2655C182.422 54.9751 182.23 54.6295 182.109 54.2286L182.957 53.9709C183.102 54.4086 183.34 54.7399 183.671 54.9649C184.006 55.1898 184.384 55.2982 184.803 55.29C185.191 55.2819 185.524 55.1939 185.802 55.0262C186.085 54.8585 186.301 54.6254 186.45 54.3268C186.599 54.0282 186.674 53.6826 186.674 53.2899C186.674 52.6886 186.501 52.206 186.153 51.842C185.81 51.4739 185.356 51.2898 184.791 51.2898C184.634 51.2898 184.468 51.3123 184.295 51.3573C184.121 51.3982 183.96 51.4575 183.811 51.5352L183.363 50.8174L186.753 47.6454L186.898 48.0135H182.454V47.1484H187.491V48.0258L184.537 50.8849L184.525 50.529C185.13 50.4513 185.663 50.5208 186.123 50.7376C186.583 50.9544 186.943 51.2857 187.201 51.7315C187.463 52.1733 187.594 52.6927 187.594 53.2899C187.594 53.8544 187.473 54.3534 187.231 54.7869C186.993 55.2164 186.664 55.5539 186.244 55.7993C185.825 56.0406 185.348 56.1613 184.816 56.1613Z" fill="black"/>
<path d="M202.922 73.6223L205.477 70.2724L202.976 66.9961H204.042L205.997 69.5791L207.935 66.9961H209L206.5 70.2724L209.061 73.6223H207.989L205.997 70.9657L203.993 73.6223H202.922Z" fill="black"/>
<path d="M199.536 73.8068C198.935 73.8068 198.426 73.6534 198.01 73.3466C197.595 73.0358 197.28 72.6165 197.066 72.0889C196.852 71.5572 196.745 70.962 196.745 70.3035C196.745 69.6327 196.852 69.0355 197.066 68.512C197.284 67.9843 197.603 67.5692 198.023 67.2665C198.442 66.9638 198.959 66.8125 199.572 66.8125C200.17 66.8125 200.682 66.9659 201.11 67.2726C201.538 67.5794 201.865 67.9966 202.091 68.5243C202.321 69.0519 202.436 69.645 202.436 70.3035C202.436 70.9661 202.321 71.5613 202.091 72.0889C201.861 72.6165 201.53 73.0358 201.098 73.3466C200.666 73.6534 200.145 73.8068 199.536 73.8068ZM196.594 76.5677V66.9966H197.393V71.9846H197.49V76.5677H196.594ZM199.445 72.9662C199.901 72.9662 200.281 72.8497 200.583 72.6165C200.886 72.3834 201.112 72.0664 201.261 71.6656C201.415 71.2606 201.491 70.8066 201.491 70.3035C201.491 69.8045 201.417 69.3546 201.267 68.9537C201.118 68.5529 200.89 68.2359 200.583 68.0028C200.281 67.7696 199.895 67.653 199.427 67.653C198.971 67.653 198.592 67.7655 198.289 67.9905C197.99 68.2154 197.766 68.5283 197.617 68.9292C197.468 69.3259 197.393 69.784 197.393 70.3035C197.393 70.8148 197.468 71.2729 197.617 71.6778C197.766 72.0787 197.992 72.3936 198.295 72.6227C198.598 72.8517 198.981 72.9662 199.445 72.9662Z" fill="black"/>
<path d="M189.768 73.808C189.316 73.808 188.898 73.7139 188.515 73.5258C188.132 73.3376 187.805 73.0779 187.534 72.7466C187.264 72.4153 187.07 72.0349 186.953 71.6054L187.807 71.3723C187.883 71.6913 188.023 71.9674 188.224 72.2006C188.426 72.4296 188.662 72.6075 188.933 72.7343C189.207 72.8611 189.494 72.9245 189.792 72.9245C190.18 72.9245 190.527 72.8304 190.834 72.6423C191.145 72.4501 191.391 72.1965 191.572 71.8815C191.754 71.5666 191.845 71.2209 191.845 70.8446C191.845 70.4561 191.75 70.1064 191.56 69.7955C191.371 69.4806 191.12 69.231 190.81 69.047C190.499 68.8629 190.16 68.7709 189.792 68.7709C189.381 68.7709 189.026 68.8629 188.727 69.047C188.428 69.227 188.19 69.454 188.013 69.728L187.201 69.3844L187.468 64.7891H192.123V65.6541H187.861L188.303 65.2308L188.067 69.1513L187.843 68.8507C188.093 68.5603 188.396 68.3332 188.751 68.1696C189.106 68.006 189.48 67.9242 189.871 67.9242C190.408 67.9242 190.892 68.0551 191.324 68.3169C191.756 68.5746 192.099 68.9243 192.353 69.366C192.608 69.8078 192.735 70.3006 192.735 70.8446C192.735 71.3846 192.6 71.8795 192.329 72.3294C192.059 72.7752 191.7 73.1331 191.252 73.4031C190.804 73.673 190.309 73.808 189.768 73.808Z" fill="black"/>
<path d="M183.992 73.624V65.7953L182.352 66.7953V65.783L183.992 64.7891H184.894V73.624H183.992Z" fill="black"/>
<path d="M47.2955 49.8542H39.3937C39.2967 49.8542 39.2902 49.8181 39.3775 49.7723L51.3546 43.5428C51.4419 43.497 51.4354 43.4609 51.3385 43.4609H46.4003C46.2968 43.4609 46.1482 43.497 46.0609 43.5428L36.7274 48.4163C36.6369 48.4622 36.5658 48.5735 36.5658 48.6783V43.6411C36.5658 43.5428 36.4915 43.4609 36.3881 43.4609H34.2324C34.1355 43.4609 34.0547 43.5428 34.0547 43.6411V58.576C34.0547 58.6743 34.1355 58.7562 34.2324 58.7562H36.3881C36.4915 58.7562 36.5658 58.6743 36.5658 58.576V52.2418C36.5658 52.34 36.6466 52.4219 36.75 52.4219L47.4797 52.4055C48.5882 52.4055 49.1408 53.0344 49.1408 54.2921V58.576C49.1408 58.6743 49.2152 58.7562 49.3186 58.7562H51.4968C51.5938 58.7562 51.6746 58.6743 51.6746 58.576V53.6337C51.6714 51.1217 50.2106 49.8542 47.2955 49.8542Z" fill="#171117"/>
<path d="M56.336 52.4088C56.239 52.4088 56.1582 52.4907 56.1582 52.589V58.5793C56.1582 58.6776 56.0774 58.7595 55.9805 58.7595H53.8248C53.7214 58.7595 53.6406 58.6776 53.6406 58.5793V50.0376C53.6406 49.9393 53.7214 49.8574 53.8248 49.8574H71.0795C71.183 49.8574 71.2573 49.9393 71.2573 50.0376V52.232C71.2573 52.3302 71.183 52.4121 71.0795 52.4121H56.336V52.4088ZM53.8281 46.0156C53.7246 46.0156 53.6439 45.9337 53.6439 45.8355V43.6411C53.6439 43.5428 53.7246 43.4609 53.8281 43.4609H71.0828C71.1862 43.4609 71.2605 43.5428 71.2605 43.6411V45.8355C71.2605 45.9337 71.1862 46.0156 71.0828 46.0156H53.8281Z" fill="#171117"/>
<path d="M70.9334 58.8025C70.83 58.8025 70.7848 58.7272 70.83 58.6388L77.0545 46.039C77.4746 45.1842 77.8301 44.5947 78.1113 44.2639C78.4862 43.8217 78.9742 43.5597 79.5721 43.4844C80.17 43.5597 80.658 43.8152 81.0329 44.2409C81.1654 44.3916 81.314 44.6143 81.4918 44.9222C81.6631 45.2202 82.0024 45.872 82.0024 45.872C82.0477 45.9604 82.122 46.1045 82.164 46.193L88.2915 58.6355C88.3368 58.7239 88.2851 58.7993 88.1881 58.7993H86.0325C85.9356 58.7993 85.8192 58.7239 85.774 58.6355L80.1991 47.3065C79.9631 46.8185 79.7563 46.5795 79.5947 46.5795C79.417 46.5795 79.0647 47.1493 79.0647 47.1493C79.013 47.2378 78.9322 47.3819 78.8869 47.4638L73.325 58.6355C73.2797 58.7239 73.1634 58.7993 73.0664 58.7993H70.9334V58.8025Z" fill="#171117"/>
<path d="M94.5106 52.4088H94.5462C94.5979 52.4088 94.7239 52.4088 94.8209 52.4088L103.54 52.3924C103.55 52.3924 103.56 52.3924 103.569 52.3892V52.3924C106.485 52.3924 107.955 51.0987 107.955 48.5801V47.2864C107.955 44.735 106.494 43.4609 103.576 43.4609H90.4902C90.3933 43.4609 90.3125 43.5428 90.3125 43.6411V45.806C90.3125 45.9108 90.3933 45.9927 90.4902 45.9927H103.754C104.862 45.9927 105.415 47.2667 105.415 47.9021C105.415 48.5375 104.898 49.7886 103.789 49.8116C103.757 49.8116 103.708 49.8148 103.663 49.8214C103.647 49.8148 103.628 49.8116 103.611 49.8116C103.611 49.8116 94.6916 49.8574 94.669 49.8574C91.7668 49.864 90.3125 51.138 90.3125 53.637V58.5793C90.3125 58.6776 90.3933 58.7595 90.4902 58.7595H107.777C107.874 58.7595 107.955 58.6776 107.955 58.5793V56.4078C107.955 56.3096 107.874 56.2277 107.777 56.2277H93.024C92.927 56.2277 92.8462 56.1458 92.8462 56.0476V54.2953C92.8495 53.0377 93.4021 52.4088 94.5106 52.4088Z" fill="#171117"/>
<path fill-rule="evenodd" clip-rule="evenodd" d="M121.333 81.3029C121.333 81.4441 121.22 81.5586 121.08 81.5586C120.941 81.5586 120.828 81.4441 120.828 81.3029V60.0505L118.285 66.0636C118.23 66.1934 118.082 66.2535 117.954 66.1979C117.826 66.1423 117.766 65.992 117.821 65.8622L120.698 59.0594H109.979C109.84 59.0594 109.727 58.9446 109.727 58.8031C109.727 58.6615 109.84 58.5468 109.979 58.5468H121.074L121.08 58.5467L121.087 58.5468H132.181C132.321 58.5468 132.434 58.6615 132.434 58.8031C132.434 58.9446 132.321 59.0594 132.181 59.0594H121.464L124.341 65.8622C124.396 65.992 124.336 66.1423 124.208 66.1979C124.08 66.2535 123.932 66.1934 123.877 66.0636L121.333 60.0478V81.3029ZM109.979 43.2069C109.84 43.2069 109.727 43.3217 109.727 43.4633C109.727 43.6048 109.84 43.7196 109.979 43.7196H132.181C132.321 43.7196 132.434 43.6048 132.434 43.4633C132.434 43.3217 132.321 43.2069 132.181 43.2069H121.464L124.341 36.4033C124.396 36.2735 124.336 36.1232 124.208 36.0675C124.08 36.0119 123.932 36.072 123.877 36.2018L121.333 42.2172V20.9626C121.333 20.8214 121.22 20.7069 121.081 20.7069C120.941 20.7069 120.828 20.8214 120.828 20.9626V42.2153L118.285 36.2018C118.23 36.072 118.082 36.0119 117.954 36.0675C117.826 36.1232 117.766 36.2735 117.821 36.4033L120.698 43.2069H109.979Z" fill="#7C7C7C"/>
</svg>
