<svg width="616" height="186" viewBox="0 0 616 186" fill="none" xmlns="http://www.w3.org/2000/svg">
<rect x="40" y="26" width="104.81" height="69.6511" fill="#C5C4C4"/>
<rect x="0.5" y="0.5" width="144" height="185" stroke="#171117"/>
<path d="M13.309 9.77249H10.206C10.1679 9.77249 10.1654 9.75843 10.1996 9.74054L14.903 7.3093C14.9373 7.2914 14.9347 7.27734 14.8966 7.27734H12.9574C12.9168 7.27734 12.8584 7.2914 12.8242 7.3093L9.15894 9.21134C9.1234 9.22923 9.09548 9.2727 9.09548 9.3136V7.34765C9.09548 7.3093 9.06629 7.27734 9.02568 7.27734H8.17918C8.1411 7.27734 8.10938 7.3093 8.10938 7.34765V13.1765C8.10938 13.2148 8.1411 13.2468 8.17918 13.2468H9.02568C9.06629 13.2468 9.09548 13.2148 9.09548 13.1765V10.7043C9.09548 10.7427 9.12721 10.7746 9.16782 10.7746L13.3813 10.7683C13.8166 10.7683 14.0336 11.0137 14.0336 11.5045V13.1765C14.0336 13.2148 14.0628 13.2468 14.1034 13.2468H14.9588C14.9969 13.2468 15.0286 13.2148 15.0286 13.1765V11.2476C15.0274 10.2672 14.4537 9.77249 13.309 9.77249Z" fill="#171117"/>
<path d="M16.8553 10.7695C16.8172 10.7695 16.7855 10.8015 16.7855 10.8398V13.1778C16.7855 13.2161 16.7538 13.2481 16.7157 13.2481H15.8692C15.8286 13.2481 15.7969 13.2161 15.7969 13.1778V9.84408C15.7969 9.80573 15.8286 9.77377 15.8692 9.77377H22.6451C22.6857 9.77377 22.7149 9.80573 22.7149 9.84408V10.7005C22.7149 10.7389 22.6857 10.7708 22.6451 10.7708H16.8553V10.7695ZM15.8705 8.27438C15.8299 8.27438 15.7981 8.24242 15.7981 8.20408V7.34765C15.7981 7.3093 15.8299 7.27734 15.8705 7.27734H22.6463C22.6869 7.27734 22.7161 7.3093 22.7161 7.34765V8.20408C22.7161 8.24242 22.6869 8.27438 22.6463 8.27438H15.8705Z" fill="#171117"/>
<path d="M22.5944 13.2674C22.5537 13.2674 22.536 13.238 22.5538 13.2035L24.9981 8.2861C25.1631 7.95248 25.3027 7.72239 25.4131 7.59329C25.5603 7.42072 25.7519 7.31846 25.9867 7.28906C26.2215 7.31846 26.4132 7.41817 26.5604 7.58434C26.6124 7.64314 26.6708 7.73006 26.7406 7.85022C26.8078 7.96654 26.9411 8.22091 26.9411 8.22091C26.9589 8.25542 26.9881 8.31167 27.0046 8.34618L29.4108 13.2023C29.4286 13.2368 29.4083 13.2662 29.3702 13.2662H28.5237C28.4856 13.2662 28.4399 13.2368 28.4222 13.2023L26.2329 8.78078C26.1403 8.59032 26.0591 8.49701 25.9956 8.49701C25.9258 8.49701 25.7875 8.71943 25.7875 8.71943C25.7672 8.75394 25.7354 8.81018 25.7177 8.84214L23.5335 13.2023C23.5157 13.2368 23.4701 13.2662 23.432 13.2662H22.5944V13.2674Z" fill="#171117"/>
<path d="M31.8517 10.7695H31.8657C31.886 10.7695 31.9355 10.7695 31.9736 10.7695L35.3976 10.7631C35.4015 10.7631 35.4053 10.7631 35.4091 10.7619V10.7631C36.5538 10.7631 37.1313 10.2582 37.1313 9.27525V8.77034C37.1313 7.77458 36.5576 7.27734 35.4116 7.27734H30.2729C30.2349 7.27734 30.2031 7.3093 30.2031 7.34765V8.19257C30.2031 8.23348 30.2349 8.26543 30.2729 8.26543H35.4814C35.9167 8.26543 36.1337 8.76267 36.1337 9.01065C36.1337 9.25864 35.9307 9.74693 35.4954 9.75588C35.4827 9.75588 35.4636 9.75715 35.4459 9.75971C35.4395 9.75715 35.4319 9.75588 35.4256 9.75588C35.4256 9.75588 31.9228 9.77377 31.9139 9.77377C30.7742 9.77633 30.2031 10.2736 30.2031 11.2489V13.1778C30.2031 13.2161 30.2349 13.2481 30.2729 13.2481H37.0615C37.0995 13.2481 37.1313 13.2161 37.1313 13.1778V12.3303C37.1313 12.2919 37.0995 12.26 37.0615 12.26H31.2679C31.2298 12.26 31.1981 12.228 31.1981 12.1897V11.5058C31.1994 11.015 31.4164 10.7695 31.8517 10.7695Z" fill="#171117"/>
<rect x="158" y="26" width="104.962" height="69.6511" fill="#C5C4C4"/>
<rect x="157.5" y="0.5" width="145" height="185" stroke="#171117"/>
<path d="M270.461 9.77249H267.337C267.299 9.77249 267.296 9.75843 267.331 9.74054L272.066 7.3093C272.101 7.2914 272.098 7.27734 272.06 7.27734H270.108C270.067 7.27734 270.008 7.2914 269.973 7.3093L266.283 9.21134C266.247 9.22923 266.219 9.2727 266.219 9.3136V7.34765C266.219 7.3093 266.19 7.27734 266.149 7.27734H265.297C265.259 7.27734 265.227 7.3093 265.227 7.34765V13.1765C265.227 13.2148 265.259 13.2468 265.297 13.2468H266.149C266.19 13.2468 266.219 13.2148 266.219 13.1765V10.7043C266.219 10.7427 266.251 10.7746 266.292 10.7746L270.534 10.7683C270.973 10.7683 271.191 11.0137 271.191 11.5045V13.1765C271.191 13.2148 271.22 13.2468 271.261 13.2468H272.122C272.161 13.2468 272.193 13.2148 272.193 13.1765V11.2476C272.191 10.2672 271.614 9.77249 270.461 9.77249Z" fill="#171117"/>
<path d="M274.034 10.7695C273.996 10.7695 273.964 10.8015 273.964 10.8398V13.1778C273.964 13.2161 273.932 13.2481 273.894 13.2481H273.042C273.001 13.2481 272.969 13.2161 272.969 13.1778V9.84408C272.969 9.80573 273.001 9.77377 273.042 9.77377H279.863C279.904 9.77377 279.934 9.80573 279.934 9.84408V10.7005C279.934 10.7389 279.904 10.7708 279.863 10.7708H274.034V10.7695ZM273.043 8.27438C273.002 8.27438 272.97 8.24242 272.97 8.20408V7.34765C272.97 7.3093 273.002 7.27734 273.043 7.27734H279.865C279.906 7.27734 279.935 7.3093 279.935 7.34765V8.20408C279.935 8.24242 279.906 8.27438 279.865 8.27438H273.043Z" fill="#171117"/>
<path d="M279.806 13.2674C279.765 13.2674 279.747 13.238 279.765 13.2035L282.226 8.2861C282.392 7.95248 282.532 7.72239 282.643 7.59329C282.792 7.42072 282.985 7.31846 283.221 7.28906C283.457 7.31846 283.65 7.41817 283.799 7.58434C283.851 7.64314 283.91 7.73006 283.98 7.85022C284.048 7.96654 284.182 8.22091 284.182 8.22091C284.2 8.25542 284.229 8.31167 284.246 8.34618L286.668 13.2023C286.686 13.2368 286.666 13.2662 286.627 13.2662H285.775C285.737 13.2662 285.691 13.2368 285.673 13.2023L283.469 8.78078C283.376 8.59032 283.294 8.49701 283.23 8.49701C283.16 8.49701 283.02 8.71943 283.02 8.71943C283 8.75394 282.968 8.81018 282.95 8.84214L280.751 13.2023C280.733 13.2368 280.687 13.2662 280.649 13.2662H279.806V13.2674Z" fill="#171117"/>
<path d="M289.129 10.7695H289.143C289.163 10.7695 289.213 10.7695 289.251 10.7695L292.699 10.7631C292.702 10.7631 292.706 10.7631 292.71 10.7619V10.7631C293.863 10.7631 294.444 10.2582 294.444 9.27525V8.77034C294.444 7.77458 293.866 7.27734 292.713 7.27734H287.539C287.501 7.27734 287.469 7.3093 287.469 7.34765V8.19257C287.469 8.23348 287.501 8.26543 287.539 8.26543H292.783C293.221 8.26543 293.44 8.76267 293.44 9.01065C293.44 9.25864 293.235 9.74693 292.797 9.75588C292.784 9.75588 292.765 9.75715 292.747 9.75971C292.741 9.75715 292.733 9.75588 292.727 9.75588C292.727 9.75588 289.2 9.77377 289.191 9.77377C288.044 9.77633 287.469 10.2736 287.469 11.2489V13.1778C287.469 13.2161 287.501 13.2481 287.539 13.2481H294.374C294.412 13.2481 294.444 13.2161 294.444 13.1778V12.3303C294.444 12.2919 294.412 12.26 294.374 12.26H288.541C288.502 12.26 288.47 12.228 288.47 12.1897V11.5058C288.472 11.015 288.69 10.7695 289.129 10.7695Z" fill="#171117"/>
<rect x="354" y="26" width="104.796" height="69.6511" fill="#C5C4C4"/>
<rect x="314.516" y="0.5" width="143.98" height="185" stroke="#171117"/>
<path d="M326.308 176.241H323.206C323.168 176.241 323.165 176.227 323.199 176.209L327.902 173.778C327.936 173.76 327.934 173.746 327.896 173.746H325.957C325.916 173.746 325.858 173.76 325.824 173.778L322.159 175.68C322.123 175.698 322.095 175.741 322.095 175.782V173.816C322.095 173.778 322.066 173.746 322.026 173.746H321.179C321.141 173.746 321.109 173.778 321.109 173.816V179.645C321.109 179.684 321.141 179.716 321.179 179.716H322.026C322.066 179.716 322.095 179.684 322.095 179.645V177.173C322.095 177.211 322.127 177.243 322.168 177.243L326.381 177.237C326.816 177.237 327.033 177.482 327.033 177.973V179.645C327.033 179.684 327.062 179.716 327.103 179.716H327.958C327.996 179.716 328.028 179.684 328.028 179.645V177.716C328.026 176.736 327.453 176.241 326.308 176.241Z" fill="#171117"/>
<path d="M329.855 177.238C329.817 177.238 329.785 177.27 329.785 177.309V179.647C329.785 179.685 329.754 179.717 329.716 179.717H328.869C328.829 179.717 328.797 179.685 328.797 179.647V176.313C328.797 176.274 328.829 176.243 328.869 176.243H335.644C335.685 176.243 335.714 176.274 335.714 176.313V177.169C335.714 177.208 335.685 177.24 335.644 177.24H329.855V177.238ZM328.87 174.743C328.83 174.743 328.798 174.711 328.798 174.673V173.816C328.798 173.778 328.83 173.746 328.87 173.746H335.645C335.686 173.746 335.715 173.778 335.715 173.816V174.673C335.715 174.711 335.686 174.743 335.645 174.743H328.87Z" fill="#171117"/>
<path d="M335.587 179.736C335.546 179.736 335.528 179.707 335.546 179.672L337.99 174.755C338.155 174.421 338.294 174.191 338.405 174.062C338.552 173.889 338.744 173.787 338.978 173.758C339.213 173.787 339.405 173.887 339.552 174.053C339.604 174.112 339.662 174.199 339.732 174.319C339.799 174.435 339.933 174.69 339.933 174.69C339.95 174.724 339.98 174.78 339.996 174.815L342.402 179.671C342.42 179.706 342.4 179.735 342.361 179.735H341.515C341.477 179.735 341.431 179.706 341.414 179.671L339.225 175.25C339.132 175.059 339.051 174.966 338.987 174.966C338.918 174.966 338.779 175.188 338.779 175.188C338.759 175.223 338.727 175.279 338.709 175.311L336.526 179.671C336.508 179.706 336.462 179.735 336.424 179.735H335.587V179.736Z" fill="#171117"/>
<path d="M344.851 177.238H344.865C344.886 177.238 344.935 177.238 344.973 177.238L348.397 177.232C348.401 177.232 348.405 177.232 348.408 177.231V177.232C349.553 177.232 350.13 176.727 350.13 175.744V175.239C350.13 174.243 349.557 173.746 348.411 173.746H343.273C343.235 173.746 343.203 173.778 343.203 173.816V174.661C343.203 174.702 343.235 174.734 343.273 174.734H348.481C348.916 174.734 349.133 175.231 349.133 175.479C349.133 175.727 348.93 176.216 348.495 176.225C348.482 176.225 348.463 176.226 348.445 176.228C348.439 176.226 348.431 176.225 348.425 176.225C348.425 176.225 344.923 176.243 344.914 176.243C343.774 176.245 343.203 176.742 343.203 177.718V179.647C343.203 179.685 343.235 179.717 343.273 179.717H350.061C350.099 179.717 350.13 179.685 350.13 179.647V178.799C350.13 178.761 350.099 178.729 350.061 178.729H344.268C344.23 178.729 344.198 178.697 344.198 178.658V177.975C344.199 177.484 344.416 177.238 344.851 177.238Z" fill="#171117"/>
<rect x="471" y="26" width="103.57" height="69.5648" fill="#C5C4C4"/>
<rect x="471.5" y="0.5" width="144" height="185" stroke="#171117"/>
<path d="M584.572 176.25H581.456C581.418 176.25 581.416 176.236 581.45 176.218L586.172 173.79C586.206 173.772 586.204 173.758 586.166 173.758H584.219C584.178 173.758 584.119 173.772 584.085 173.79L580.405 175.689C580.37 175.707 580.342 175.751 580.342 175.792V173.828C580.342 173.79 580.312 173.758 580.271 173.758H579.422C579.383 173.758 579.352 173.79 579.352 173.828V179.65C579.352 179.688 579.383 179.72 579.422 179.72H580.271C580.312 179.72 580.342 179.688 580.342 179.65V177.181C580.342 177.219 580.373 177.251 580.414 177.251L584.644 177.244C585.081 177.244 585.299 177.49 585.299 177.98V179.65C585.299 179.688 585.329 179.72 585.369 179.72H586.228C586.266 179.72 586.298 179.688 586.298 179.65V177.723C586.297 176.744 585.721 176.25 584.572 176.25Z" fill="#171117"/>
<path d="M588.141 177.246C588.103 177.246 588.071 177.278 588.071 177.316V179.651C588.071 179.689 588.039 179.721 588.001 179.721H587.151C587.11 179.721 587.078 179.689 587.078 179.651V176.321C587.078 176.283 587.11 176.251 587.151 176.251H593.953C593.994 176.251 594.023 176.283 594.023 176.321V177.177C594.023 177.215 593.994 177.247 593.953 177.247H588.141V177.246ZM587.152 174.754C587.111 174.754 587.079 174.722 587.079 174.683V173.828C587.079 173.79 587.111 173.758 587.152 173.758H593.955C593.995 173.758 594.025 173.79 594.025 173.828V174.683C594.025 174.722 593.995 174.754 593.955 174.754H587.152Z" fill="#171117"/>
<path d="M593.891 179.741C593.851 179.741 593.833 179.711 593.851 179.677L596.305 174.765C596.47 174.432 596.61 174.202 596.721 174.073C596.869 173.901 597.061 173.799 597.297 173.77C597.533 173.799 597.725 173.898 597.873 174.064C597.925 174.123 597.984 174.21 598.054 174.33C598.122 174.446 598.255 174.7 598.255 174.7C598.273 174.735 598.302 174.791 598.319 174.825L600.735 179.675C600.753 179.71 600.732 179.739 600.694 179.739H599.844C599.806 179.739 599.76 179.71 599.742 179.675L597.544 175.259C597.451 175.069 597.37 174.976 597.306 174.976C597.236 174.976 597.097 175.198 597.097 175.198C597.077 175.233 597.045 175.289 597.027 175.321L594.834 179.675C594.816 179.71 594.771 179.739 594.732 179.739H593.891V179.741Z" fill="#171117"/>
<path d="M603.186 177.246H603.2C603.221 177.246 603.27 177.246 603.309 177.246L606.746 177.239C606.75 177.239 606.754 177.239 606.758 177.238V177.239C607.907 177.239 608.487 176.735 608.487 175.753V175.249C608.487 174.254 607.911 173.758 606.76 173.758H601.601C601.563 173.758 601.531 173.79 601.531 173.828V174.672C601.531 174.713 601.563 174.745 601.601 174.745H606.83C607.267 174.745 607.485 175.241 607.485 175.489C607.485 175.737 607.281 176.224 606.844 176.233C606.832 176.233 606.813 176.235 606.795 176.237C606.788 176.235 606.781 176.233 606.774 176.233C606.774 176.233 603.258 176.251 603.249 176.251C602.105 176.254 601.531 176.75 601.531 177.724V179.651C601.531 179.689 601.563 179.721 601.601 179.721H608.417C608.455 179.721 608.487 179.689 608.487 179.651V178.804C608.487 178.766 608.455 178.734 608.417 178.734H602.6C602.562 178.734 602.53 178.702 602.53 178.664V177.981C602.531 177.491 602.749 177.246 603.186 177.246Z" fill="#171117"/>
</svg>
