<svg width="280" height="355" viewBox="0 0 280 355" fill="none" xmlns="http://www.w3.org/2000/svg">
<rect x="37.2812" y="24.1406" width="96.7218" height="64.3721" fill="#C5C4C4"/>
<rect x="0.5" y="0.5" width="133" height="172" stroke="#171117"/>
<path d="M12.3472 9.09029H9.46848C9.43315 9.09029 9.4308 9.07721 9.46259 9.06056L13.826 6.79925C13.8578 6.78261 13.8554 6.76953 13.8201 6.76953H12.021C11.9834 6.76953 11.9292 6.78261 11.8974 6.79925L8.49713 8.56836C8.46417 8.585 8.43826 8.62542 8.43826 8.66347V6.83492C8.43826 6.79925 8.41119 6.76953 8.37351 6.76953H7.58819C7.55287 6.76953 7.52344 6.79925 7.52344 6.83492V12.2564C7.52344 12.292 7.55287 12.3218 7.58819 12.3218H8.37351C8.41119 12.3218 8.43826 12.292 8.43826 12.2564V9.95701C8.43826 9.99267 8.4677 10.0224 8.50538 10.0224L12.4143 10.0165C12.8181 10.0165 13.0195 10.2447 13.0195 10.7013V12.2564C13.0195 12.292 13.0466 12.3218 13.0842 12.3218H13.8778C13.9131 12.3218 13.9425 12.292 13.9425 12.2564V10.4623C13.9414 9.5504 13.4092 9.09029 12.3472 9.09029Z" fill="#171117"/>
<path d="M15.6382 10.0176C15.6029 10.0176 15.5734 10.0474 15.5734 10.083V12.2576C15.5734 12.2932 15.544 12.3229 15.5087 12.3229H14.7234C14.6857 12.3229 14.6562 12.2932 14.6562 12.2576V9.15687C14.6562 9.1212 14.6857 9.09148 14.7234 9.09148H21.0094C21.0471 9.09148 21.0742 9.1212 21.0742 9.15687V9.95344C21.0742 9.98911 21.0471 10.0188 21.0094 10.0188H15.6382V10.0176ZM14.7245 7.69688C14.6869 7.69688 14.6574 7.66716 14.6574 7.63149V6.83492C14.6574 6.79925 14.6869 6.76953 14.7245 6.76953H21.0106C21.0483 6.76953 21.0754 6.79925 21.0754 6.83492V7.63149C21.0754 7.66716 21.0483 7.69688 21.0106 7.69688H14.7245Z" fill="#171117"/>
<path d="M20.9581 12.3379C20.9204 12.3379 20.904 12.3105 20.9204 12.2784L23.1881 7.7047C23.3411 7.39439 23.4707 7.18039 23.5731 7.06031C23.7097 6.8998 23.8875 6.80469 24.1053 6.77734C24.3231 6.80469 24.5009 6.89742 24.6374 7.05198C24.6857 7.10667 24.7399 7.18752 24.8046 7.29928C24.867 7.40747 24.9907 7.64406 24.9907 7.64406C25.0071 7.67616 25.0342 7.72847 25.0495 7.76057L27.2819 12.2773C27.2983 12.3094 27.2795 12.3367 27.2442 12.3367H26.4589C26.4235 12.3367 26.3812 12.3094 26.3647 12.2773L24.3337 8.1648C24.2477 7.98766 24.1724 7.90087 24.1135 7.90087C24.0488 7.90087 23.9204 8.10774 23.9204 8.10774C23.9016 8.13984 23.8721 8.19215 23.8557 8.22187L21.8294 12.2773C21.8129 12.3094 21.7705 12.3367 21.7352 12.3367H20.9581V12.3379Z" fill="#171117"/>
<path d="M29.5529 10.0176H29.5658C29.5847 10.0176 29.6306 10.0176 29.6659 10.0176L32.8425 10.0117C32.846 10.0117 32.8495 10.0117 32.8531 10.0105V10.0117C33.9151 10.0117 34.4508 9.54207 34.4508 8.6278V8.15818C34.4508 7.23202 33.9186 6.76953 32.8554 6.76953H28.0882C28.0529 6.76953 28.0234 6.79925 28.0234 6.83492V7.62079C28.0234 7.65884 28.0529 7.68856 28.0882 7.68856H32.9202C33.324 7.68856 33.5254 8.15105 33.5254 8.3817C33.5254 8.61235 33.337 9.06651 32.9331 9.07483C32.9214 9.07483 32.9037 9.07602 32.8872 9.0784C32.8813 9.07602 32.8743 9.07483 32.8684 9.07483C32.8684 9.07483 29.6188 9.09148 29.6106 9.09148C28.5533 9.09386 28.0234 9.55634 28.0234 10.4635V12.2576C28.0234 12.2932 28.0529 12.3229 28.0882 12.3229H34.386C34.4213 12.3229 34.4508 12.2932 34.4508 12.2576V11.4693C34.4508 11.4336 34.4213 11.4039 34.386 11.4039H29.0113C28.9759 11.4039 28.9465 11.3742 28.9465 11.3385V10.7025C28.9477 10.2459 29.149 10.0176 29.5529 10.0176Z" fill="#171117"/>
<rect x="146" y="24.6016" width="97.2741" height="63.8953" fill="#C5C4C4"/>
<rect x="146.5" y="0.5" width="133" height="172" stroke="#171117"/>
<path d="M250.133 9.09029H247.265C247.23 9.09029 247.228 9.07721 247.26 9.06056L251.606 6.79925C251.637 6.78261 251.635 6.76953 251.6 6.76953H249.808C249.77 6.76953 249.716 6.78261 249.685 6.79925L246.298 8.56835C246.265 8.585 246.239 8.62542 246.239 8.66347V6.83492C246.239 6.79925 246.212 6.76953 246.175 6.76953H245.393C245.357 6.76953 245.328 6.79925 245.328 6.83492V12.2564C245.328 12.292 245.357 12.3218 245.393 12.3218H246.175C246.212 12.3218 246.239 12.292 246.239 12.2564V9.95701C246.239 9.99267 246.269 10.0224 246.306 10.0224L250.2 10.0165C250.602 10.0165 250.802 10.2447 250.802 10.7013V12.2564C250.802 12.292 250.829 12.3218 250.867 12.3218H251.657C251.692 12.3218 251.722 12.292 251.722 12.2564V10.4623C251.721 9.5504 251.191 9.09029 250.133 9.09029Z" fill="#171117"/>
<path d="M253.416 10.0176C253.38 10.0176 253.351 10.0474 253.351 10.083V12.2576C253.351 12.2932 253.322 12.3229 253.287 12.3229H252.504C252.467 12.3229 252.438 12.2932 252.438 12.2576V9.15687C252.438 9.1212 252.467 9.09148 252.504 9.09148H258.765C258.803 9.09148 258.83 9.1212 258.83 9.15687V9.95344C258.83 9.98911 258.803 10.0188 258.765 10.0188H253.416V10.0176ZM252.506 7.69688C252.468 7.69688 252.439 7.66716 252.439 7.63149V6.83492C252.439 6.79925 252.468 6.76953 252.506 6.76953H258.767C258.804 6.76953 258.831 6.79925 258.831 6.83492V7.63149C258.831 7.66716 258.804 7.69688 258.767 7.69688H252.506Z" fill="#171117"/>
<path d="M258.708 12.3379C258.67 12.3379 258.654 12.3105 258.67 12.2784L260.929 7.7047C261.082 7.39439 261.211 7.18039 261.313 7.06031C261.449 6.8998 261.626 6.80469 261.843 6.77734C262.06 6.80469 262.237 6.89742 262.373 7.05198C262.421 7.10667 262.475 7.18752 262.539 7.29928C262.601 7.40747 262.724 7.64406 262.724 7.64406C262.741 7.67616 262.768 7.72847 262.783 7.76057L265.007 12.2773C265.023 12.3094 265.004 12.3367 264.969 12.3367H264.187C264.152 12.3367 264.109 12.3094 264.093 12.2773L262.07 8.1648C261.985 7.98766 261.909 7.90087 261.851 7.90087C261.786 7.90087 261.658 8.10774 261.658 8.10774C261.64 8.13984 261.61 8.19215 261.594 8.22187L259.576 12.2773C259.559 12.3094 259.517 12.3367 259.482 12.3367H258.708V12.3379Z" fill="#171117"/>
<path d="M267.266 10.0176H267.278C267.297 10.0176 267.343 10.0176 267.378 10.0176L270.542 10.0117C270.546 10.0117 270.549 10.0117 270.553 10.0105V10.0117C271.61 10.0117 272.144 9.54207 272.144 8.6278V8.15818C272.144 7.23202 271.614 6.76953 270.555 6.76953H265.807C265.772 6.76953 265.742 6.79925 265.742 6.83492V7.62079C265.742 7.65884 265.772 7.68856 265.807 7.68856H270.62C271.022 7.68856 271.222 8.15105 271.222 8.3817C271.222 8.61235 271.035 9.06651 270.632 9.07483C270.621 9.07483 270.603 9.07602 270.587 9.0784C270.581 9.07602 270.574 9.07483 270.568 9.07483C270.568 9.07483 267.331 9.09148 267.323 9.09148C266.27 9.09386 265.742 9.55634 265.742 10.4635V12.2576C265.742 12.2932 265.772 12.3229 265.807 12.3229H272.08C272.115 12.3229 272.144 12.2932 272.144 12.2576V11.4693C272.144 11.4336 272.115 11.4039 272.08 11.4039H266.726C266.691 11.4039 266.662 11.3742 266.662 11.3385V10.7025C266.663 10.2459 266.863 10.0176 267.266 10.0176Z" fill="#171117"/>
<rect x="37.2656" y="206.281" width="96.6907" height="64.7485" fill="#C5C4C4"/>
<rect x="0.5" y="182.5" width="132.957" height="172" stroke="#171117"/>
<path d="M11.3997 346.307H8.52227C8.48697 346.307 8.48462 346.294 8.51639 346.277L12.8778 344.01C12.9096 343.994 12.9072 343.98 12.8719 343.98H11.0737C11.036 343.98 10.9819 343.994 10.9501 344.01L7.55138 345.783C7.51842 345.8 7.49253 345.841 7.49253 345.879V344.046C7.49253 344.01 7.46547 343.98 7.42781 343.98H6.64285C6.60754 343.98 6.57812 344.01 6.57812 344.046V349.48C6.57812 349.516 6.60754 349.546 6.64285 349.546H7.42781C7.46547 349.546 7.49253 349.516 7.49253 349.48V347.175C7.49253 347.211 7.52195 347.241 7.55961 347.241L11.4667 347.235C11.8704 347.235 12.0716 347.464 12.0716 347.921V349.48C12.0716 349.516 12.0987 349.546 12.1364 349.546H12.9296C12.9649 349.546 12.9943 349.516 12.9943 349.48V347.682C12.9931 346.768 12.4612 346.307 11.3997 346.307Z" fill="#171117"/>
<path d="M14.6924 347.236C14.6571 347.236 14.6277 347.266 14.6277 347.302V349.481C14.6277 349.517 14.5983 349.547 14.563 349.547H13.778C13.7404 349.547 13.7109 349.517 13.7109 349.481V346.373C13.7109 346.338 13.7404 346.308 13.778 346.308H20.0612C20.0989 346.308 20.1259 346.338 20.1259 346.373V347.172C20.1259 347.208 20.0989 347.237 20.0612 347.237H14.6924V347.236ZM13.7792 344.91C13.7415 344.91 13.7121 344.88 13.7121 344.844V344.046C13.7121 344.01 13.7415 343.98 13.7792 343.98H20.0624C20.1 343.98 20.1271 344.01 20.1271 344.046V344.844C20.1271 344.88 20.1 344.91 20.0624 344.91H13.7792Z" fill="#171117"/>
<path d="M20.005 349.562C19.9673 349.562 19.9508 349.534 19.9673 349.502L22.2339 344.918C22.3869 344.607 22.5164 344.392 22.6187 344.272C22.7553 344.111 22.933 344.016 23.1507 343.988C23.3684 344.016 23.5461 344.109 23.6826 344.264C23.7309 344.318 23.785 344.399 23.8497 344.511C23.9121 344.62 24.0357 344.857 24.0357 344.857C24.0521 344.889 24.0792 344.942 24.0945 344.974L26.3258 349.501C26.3423 349.533 26.3235 349.561 26.2882 349.561H25.5032C25.4679 349.561 25.4255 349.533 25.409 349.501L23.379 345.379C23.2931 345.201 23.2178 345.114 23.1589 345.114C23.0942 345.114 22.9659 345.322 22.9659 345.322C22.9471 345.354 22.9177 345.406 22.9012 345.436L20.8758 349.501C20.8594 349.533 20.817 349.561 20.7817 349.561H20.005V349.562Z" fill="#171117"/>
<path d="M28.5912 347.236H28.6042C28.623 347.236 28.6689 347.236 28.7042 347.236L31.8793 347.23C31.8829 347.23 31.8864 347.23 31.8899 347.229V347.23C32.9514 347.23 33.4869 346.759 33.4869 345.843V345.372C33.4869 344.444 32.955 343.98 31.8923 343.98H27.1272C27.0919 343.98 27.0625 344.01 27.0625 344.046V344.834C27.0625 344.872 27.0919 344.902 27.1272 344.902H31.957C32.3607 344.902 32.5619 345.365 32.5619 345.596C32.5619 345.828 32.3736 346.283 31.9699 346.291C31.9582 346.291 31.9405 346.292 31.924 346.295C31.9182 346.292 31.9111 346.291 31.9052 346.291C31.9052 346.291 28.6571 346.308 28.6489 346.308C27.5921 346.31 27.0625 346.774 27.0625 347.683V349.481C27.0625 349.517 27.0919 349.547 27.1272 349.547H33.4222C33.4575 349.547 33.4869 349.517 33.4869 349.481V348.691C33.4869 348.655 33.4575 348.626 33.4222 348.626H28.0499C28.0146 348.626 27.9851 348.596 27.9851 348.56V347.923C27.9863 347.465 28.1876 347.236 28.5912 347.236Z" fill="#171117"/>
<rect x="146.047" y="206.281" width="95.6835" height="64.7485" fill="#C5C4C4"/>
<rect x="146.547" y="182.5" width="132.957" height="172" stroke="#171117"/>
<path d="M250.919 346.315H248.03C247.995 346.315 247.992 346.302 248.024 346.286L252.404 344.022C252.435 344.005 252.433 343.992 252.398 343.992H250.592C250.554 343.992 250.5 344.005 250.468 344.022L247.055 345.793C247.022 345.81 246.996 345.85 246.996 345.888V344.058C246.996 344.022 246.969 343.992 246.931 343.992H246.143C246.108 343.992 246.078 344.022 246.078 344.058V349.485C246.078 349.521 246.108 349.55 246.143 349.55H246.931C246.969 349.55 246.996 349.521 246.996 349.485V347.183C246.996 347.219 247.026 347.249 247.064 347.249L250.987 347.243C251.392 347.243 251.594 347.471 251.594 347.928V349.485C251.594 349.521 251.621 349.55 251.659 349.55H252.456C252.491 349.55 252.521 349.521 252.521 349.485V347.689C252.519 346.776 251.985 346.315 250.919 346.315Z" fill="#171117"/>
<path d="M254.228 347.244C254.192 347.244 254.163 347.274 254.163 347.309V349.486C254.163 349.522 254.133 349.552 254.098 349.552H253.31C253.272 349.552 253.242 349.522 253.242 349.486V346.382C253.242 346.346 253.272 346.317 253.31 346.317H259.618C259.656 346.317 259.683 346.346 259.683 346.382V347.18C259.683 347.215 259.656 347.245 259.618 347.245H254.228V347.244ZM253.311 344.921C253.273 344.921 253.243 344.891 253.243 344.855V344.058C253.243 344.022 253.273 343.992 253.311 343.992H259.62C259.657 343.992 259.685 344.022 259.685 344.058V344.855C259.685 344.891 259.657 344.921 259.62 344.921H253.311Z" fill="#171117"/>
<path d="M259.56 349.567C259.522 349.567 259.505 349.539 259.522 349.507L261.798 344.928C261.952 344.618 262.081 344.403 262.184 344.283C262.321 344.123 262.5 344.027 262.718 344C262.937 344.027 263.115 344.12 263.253 344.275C263.301 344.33 263.355 344.411 263.42 344.523C263.483 344.631 263.607 344.868 263.607 344.868C263.624 344.9 263.651 344.952 263.666 344.984L265.907 349.506C265.923 349.538 265.904 349.565 265.869 349.565H265.081C265.045 349.565 265.003 349.538 264.986 349.506L262.948 345.389C262.861 345.212 262.786 345.125 262.727 345.125C262.662 345.125 262.533 345.332 262.533 345.332C262.514 345.364 262.484 345.416 262.468 345.446L260.434 349.506C260.418 349.538 260.375 349.565 260.34 349.565H259.56V349.567Z" fill="#171117"/>
<path d="M268.183 347.244H268.196C268.215 347.244 268.261 347.244 268.297 347.244L271.485 347.238C271.489 347.238 271.492 347.238 271.496 347.237V347.238C272.561 347.238 273.099 346.768 273.099 345.852V345.382C273.099 344.455 272.565 343.992 271.498 343.992H266.713C266.678 343.992 266.648 344.022 266.648 344.058V344.844C266.648 344.882 266.678 344.912 266.713 344.912H271.563C271.968 344.912 272.17 345.375 272.17 345.606C272.17 345.837 271.981 346.292 271.576 346.3C271.564 346.3 271.546 346.301 271.53 346.304C271.524 346.301 271.517 346.3 271.511 346.3C271.511 346.3 268.25 346.317 268.241 346.317C267.18 346.319 266.648 346.782 266.648 347.69V349.486C266.648 349.522 266.678 349.552 266.713 349.552H273.034C273.07 349.552 273.099 349.522 273.099 349.486V348.697C273.099 348.661 273.07 348.632 273.034 348.632H267.64C267.604 348.632 267.575 348.602 267.575 348.566V347.929C267.576 347.472 267.778 347.244 268.183 347.244Z" fill="#171117"/>
</svg>
