<svg width="887" height="363" viewBox="0 0 887 363" fill="none" xmlns="http://www.w3.org/2000/svg">
<path d="M0.457717 123.531C-0.245522 124.383 -0.125107 125.644 0.726672 126.347C1.57845 127.05 2.83904 126.93 3.54228 126.078L0.457717 123.531ZM272.582 6.26719L272.272 8.24295L272.582 6.26719ZM360.124 158.42L361.935 159.269L360.124 158.42ZM277.004 124.805L275.171 124.004L277.004 124.805ZM483.035 71.7278L482.424 73.6322L483.035 71.7278ZM606.389 146.477L607.909 145.178L606.389 146.477ZM624.516 270.322L625.784 271.869L624.516 270.322ZM573.229 222.996L572.185 221.29L573.229 222.996ZM890.426 361.234L891.66 362.808L894.808 360.34L893.574 358.766L890.426 361.234ZM3.54228 126.078C47.2497 73.1385 138.631 -12.7564 272.272 8.24295L272.893 4.29143C137.058 -17.0528 44.3918 70.3173 0.457717 123.531L3.54228 126.078ZM272.272 8.24295C353.232 20.9644 387.798 94.6727 358.313 157.571L361.935 159.269C392.579 93.8979 356.419 17.4161 272.893 4.29143L272.272 8.24295ZM358.313 157.571C345.501 184.901 319.362 191.046 299.557 183.353C289.639 179.5 281.364 172.195 277.106 162.369C272.861 152.573 272.518 140.064 278.836 125.605L275.171 124.004C268.473 139.332 268.689 153.007 273.435 163.959C278.168 174.881 287.316 182.889 298.109 187.081C319.727 195.479 348.164 188.645 361.935 159.269L358.313 157.571ZM278.836 125.605C296.166 85.9478 330.37 67.6539 368.71 61.9108C407.108 56.1589 449.451 63.0518 482.424 73.6322L483.646 69.8234C450.301 59.1235 407.312 52.0838 368.117 57.9549C328.864 63.8348 293.212 82.7195 275.171 124.004L278.836 125.605ZM482.424 73.6322C529.151 88.6255 569.868 106.828 604.869 147.777L607.909 145.178C572.201 103.4 530.651 84.9063 483.646 69.8234L482.424 73.6322ZM604.869 147.777C617.677 162.761 629.75 187.12 634.798 210.823C639.877 234.673 637.681 256.951 623.249 268.775L625.784 271.869C642.07 258.526 643.853 234.141 638.71 209.99C633.536 185.692 621.187 160.712 607.909 145.178L604.869 147.777ZM623.249 268.775C610.726 279.035 598.865 282.76 588.847 282.388C578.824 282.015 570.471 277.539 564.909 271.065C559.337 264.579 556.588 256.117 557.733 247.767C558.873 239.461 563.897 231.057 574.274 224.701L572.185 221.29C560.898 228.203 555.09 237.603 553.77 247.223C552.456 256.801 555.62 266.39 561.875 273.671C568.14 280.964 577.528 285.97 588.699 286.385C599.876 286.8 612.663 282.619 625.784 271.869L623.249 268.775ZM574.274 224.701C592.628 213.46 617.645 211.303 646.099 215.857C674.514 220.404 706.081 231.6 737.27 246.707C799.686 276.939 860.162 322.621 890.426 361.234L893.574 358.766C862.825 319.534 801.792 273.515 739.014 243.107C707.606 227.894 675.654 216.535 646.731 211.907C617.848 207.285 591.707 209.333 572.185 221.29L574.274 224.701Z" fill="#91FF6A"/>
</svg>
