<svg width="871" height="225" viewBox="0 0 871 225" fill="none" xmlns="http://www.w3.org/2000/svg">
<mask id="path-1-outside-1_2639_4473" maskUnits="userSpaceOnUse" x="0" y="0" width="871" height="225" fill="black">
<rect fill="white" width="871" height="225"/>
<path d="M40.78 91C32.18 91 24.92 89.1 19 85.3C13.08 81.46 8.6 76.16 5.56 69.4C2.52 62.64 1 54.84 1 46C1 37.16 2.52 29.36 5.56 22.6C8.6 15.84 13.08 10.56 19 6.76C24.92 2.92 32.18 1 40.78 1C50.82 1 59.02 3.58 65.38 8.74C71.74 13.86 76.1 20.74 78.46 29.38L69.46 31.72C67.62 24.88 64.32 19.46 59.56 15.46C54.8 11.46 48.54 9.45999 40.78 9.45999C34.02 9.45999 28.4 11 23.92 14.08C19.44 17.16 16.06 21.46 13.78 26.98C11.54 32.46 10.38 38.8 10.3 46C10.26 53.2 11.36 59.54 13.6 65.02C15.88 70.5 19.28 74.8 23.8 77.92C28.36 81 34.02 82.54 40.78 82.54C48.54 82.54 54.8 80.54 59.56 76.54C64.32 72.5 67.62 67.08 69.46 60.28L78.46 62.62C76.1 71.26 71.74 78.16 65.38 83.32C59.02 88.44 50.82 91 40.78 91Z"/>
<path d="M91.6984 89.2V2.8H100.518V43.6L139.938 2.8H151.218L110.958 44.5L154.518 89.2H142.998L100.518 46V89.2H91.6984Z"/>
<path d="M193.944 91C185.344 91 178.084 89.1 172.164 85.3C166.244 81.46 161.764 76.16 158.724 69.4C155.684 62.64 154.164 54.84 154.164 46C154.164 37.16 155.684 29.36 158.724 22.6C161.764 15.84 166.244 10.56 172.164 6.76C178.084 2.92 185.344 1 193.944 1C202.584 1 209.844 2.92 215.724 6.76C221.644 10.56 226.124 15.84 229.164 22.6C232.244 29.36 233.784 37.16 233.784 46C233.784 54.84 232.244 62.64 229.164 69.4C226.124 76.16 221.644 81.46 215.724 85.3C209.844 89.1 202.584 91 193.944 91ZM193.944 82.54C200.704 82.54 206.344 81 210.864 77.92C215.384 74.84 218.764 70.56 221.004 65.08C223.284 59.56 224.424 53.2 224.424 46C224.424 38.8 223.284 32.46 221.004 26.98C218.764 21.5 215.384 17.22 210.864 14.14C206.344 11.06 200.704 9.5 193.944 9.45999C187.184 9.45999 181.564 11 177.084 14.08C172.604 17.16 169.224 21.46 166.944 26.98C164.704 32.46 163.564 38.8 163.524 46C163.484 53.2 164.584 59.54 166.824 65.02C169.104 70.46 172.504 74.74 177.024 77.86C181.544 80.94 187.184 82.5 193.944 82.54Z"/>
<path d="M245.8 89.2V2.8H279.16C280 2.8 280.94 2.84 281.98 2.92C283.06 2.96 284.14 3.08 285.22 3.28C289.74 3.96 293.56 5.54 296.68 8.02C299.84 10.46 302.22 13.54 303.82 17.26C305.46 20.98 306.28 25.1 306.28 29.62C306.28 34.1 305.46 38.2 303.82 41.92C302.18 45.64 299.78 48.74 296.62 51.22C293.5 53.66 289.7 55.22 285.22 55.9C284.14 56.06 283.06 56.18 281.98 56.26C280.94 56.34 280 56.38 279.16 56.38H254.62V89.2H245.8ZM254.62 47.98H278.92C279.64 47.98 280.48 47.94 281.44 47.86C282.4 47.78 283.34 47.64 284.26 47.44C287.22 46.8 289.64 45.58 291.52 43.78C293.44 41.98 294.86 39.84 295.78 37.36C296.74 34.88 297.22 32.3 297.22 29.62C297.22 26.94 296.74 24.36 295.78 21.88C294.86 19.36 293.44 17.2 291.52 15.4C289.64 13.6 287.22 12.38 284.26 11.74C283.34 11.54 282.4 11.42 281.44 11.38C280.48 11.3 279.64 11.26 278.92 11.26H254.62V47.98Z"/>
<path d="M353.202 91C344.602 91 337.342 89.1 331.422 85.3C325.502 81.46 321.022 76.16 317.982 69.4C314.942 62.64 313.422 54.84 313.422 46C313.422 37.16 314.942 29.36 317.982 22.6C321.022 15.84 325.502 10.56 331.422 6.76C337.342 2.92 344.602 1 353.202 1C361.842 1 369.102 2.92 374.982 6.76C380.902 10.56 385.382 15.84 388.422 22.6C391.502 29.36 393.042 37.16 393.042 46C393.042 54.84 391.502 62.64 388.422 69.4C385.382 76.16 380.902 81.46 374.982 85.3C369.102 89.1 361.842 91 353.202 91ZM353.202 82.54C359.962 82.54 365.602 81 370.122 77.92C374.642 74.84 378.022 70.56 380.262 65.08C382.542 59.56 383.682 53.2 383.682 46C383.682 38.8 382.542 32.46 380.262 26.98C378.022 21.5 374.642 17.22 370.122 14.14C365.602 11.06 359.962 9.5 353.202 9.45999C346.442 9.45999 340.822 11 336.342 14.08C331.862 17.16 328.482 21.46 326.202 26.98C323.962 32.46 322.822 38.8 322.782 46C322.742 53.2 323.842 59.54 326.082 65.02C328.362 70.46 331.762 74.74 336.282 77.86C340.802 80.94 346.442 82.5 353.202 82.54Z"/>
<path d="M440.038 91C431.438 91 424.178 89.1 418.258 85.3C412.338 81.46 407.858 76.16 404.818 69.4C401.778 62.64 400.258 54.84 400.258 46C400.258 37.16 401.778 29.36 404.818 22.6C407.858 15.84 412.338 10.56 418.258 6.76C424.178 2.92 431.438 1 440.038 1C450.078 1 458.278 3.58 464.638 8.74C470.998 13.86 475.358 20.74 477.718 29.38L468.718 31.72C466.878 24.88 463.578 19.46 458.818 15.46C454.058 11.46 447.798 9.45999 440.038 9.45999C433.278 9.45999 427.658 11 423.178 14.08C418.698 17.16 415.318 21.46 413.038 26.98C410.798 32.46 409.638 38.8 409.558 46C409.518 53.2 410.618 59.54 412.858 65.02C415.138 70.5 418.538 74.8 423.058 77.92C427.618 81 433.278 82.54 440.038 82.54C447.798 82.54 454.058 80.54 458.818 76.54C463.578 72.5 466.878 67.08 468.718 60.28L477.718 62.62C475.358 71.26 470.998 78.16 464.638 83.32C458.278 88.44 450.078 91 440.038 91Z"/>
<path d="M513.936 89.2V11.26H483.756V2.8H552.936V11.26H522.756V89.2H513.936Z"/>
<path d="M562.558 89.2V2.8H571.378V41.74H619.138V2.8H627.898V89.2H619.138V50.2H571.378V89.2H562.558Z"/>
<path d="M638.706 89.2L668.466 2.8H680.166L709.926 89.2H700.746L672.486 7.72H675.966L647.886 89.2H638.706ZM651.966 68.26V59.98H696.606V68.26H651.966Z"/>
<path d="M779.621 89.2H770.861V56.38H742.121L739.061 55.66C732.661 54.42 727.741 51.4 724.301 46.6C720.861 41.8 719.141 36.14 719.141 29.62C719.141 25.1 719.961 20.98 721.601 17.26C723.241 13.54 725.621 10.46 728.741 8.02C731.901 5.54 735.721 3.96 740.201 3.28C741.321 3.08 742.401 2.96 743.441 2.92C744.481 2.84 745.421 2.8 746.261 2.8H779.621V89.2ZM727.301 89.2H717.161L735.881 50.8L744.341 54.04L727.301 89.2ZM770.861 47.98V11.26H746.501C745.821 11.26 744.981 11.3 743.981 11.38C743.021 11.42 742.081 11.54 741.161 11.74C738.201 12.38 735.761 13.6 733.841 15.4C731.961 17.2 730.561 19.36 729.641 21.88C728.721 24.36 728.261 26.94 728.261 29.62C728.261 32.3 728.721 34.88 729.641 37.36C730.561 39.84 731.961 41.98 733.841 43.78C735.761 45.58 738.201 46.8 741.161 47.44C742.081 47.64 743.021 47.78 743.981 47.86C744.981 47.94 745.821 47.98 746.501 47.98H770.861Z"/>
<path d="M5.8 209.2V122.8H39.16C44 122.8 48.22 123.8 51.82 125.8C55.42 127.8 58.22 130.5 60.22 133.9C62.22 137.26 63.22 140.98 63.22 145.06C63.22 149.7 61.98 153.84 59.5 157.48C57.02 161.08 53.7 163.58 49.54 164.98L49.42 162.04C55.02 163.64 59.42 166.44 62.62 170.44C65.82 174.44 67.42 179.28 67.42 184.96C67.42 189.96 66.36 194.28 64.24 197.92C62.12 201.52 59.14 204.3 55.3 206.26C51.46 208.22 47 209.2 41.92 209.2H5.8ZM14.68 200.74H39.76C43.28 200.74 46.44 200.12 49.24 198.88C52.04 197.6 54.24 195.8 55.84 193.48C57.48 191.16 58.3 188.36 58.3 185.08C58.3 181.88 57.56 179 56.08 176.44C54.6 173.88 52.58 171.84 50.02 170.32C47.5 168.76 44.62 167.98 41.38 167.98H14.68V200.74ZM14.68 159.64H39.1C41.86 159.64 44.38 159.02 46.66 157.78C48.94 156.5 50.74 154.76 52.06 152.56C53.42 150.36 54.1 147.82 54.1 144.94C54.1 140.86 52.68 137.54 49.84 134.98C47.04 132.42 43.46 131.14 39.1 131.14H14.68V159.64Z"/>
<path d="M144.734 209.2H135.854V138.34L88.2738 209.2H79.3938V122.8H88.2738V193.6L135.854 122.8H144.734V209.2Z"/>
<path d="M157.522 223.6V200.74C160.882 200.74 163.582 199.9 165.622 198.22C167.662 196.5 169.222 194.22 170.302 191.38C171.382 188.54 172.202 185.36 172.762 181.84C173.322 178.28 173.802 174.68 174.202 171.04C174.762 165.72 175.202 160.58 175.522 155.62C175.882 150.66 176.182 145.52 176.422 140.2C176.702 134.88 177.022 129.06 177.382 122.74L230.662 122.8V200.74H236.842V223.6H228.082V209.2H166.342V223.6H157.522ZM174.382 200.74H221.842V131.26L185.602 131.2C185.362 136.08 185.122 140.8 184.882 145.36C184.642 149.92 184.362 154.52 184.042 159.16C183.722 163.8 183.302 168.64 182.782 173.68C182.342 178.28 181.822 182.3 181.222 185.74C180.622 189.18 179.782 192.12 178.702 194.56C177.662 197 176.222 199.06 174.382 200.74Z"/>
<path d="M250.019 209.2V122.8H304.019V131.26H258.839V161.14H296.819V169.6H258.839V200.74H304.019V209.2H250.019Z"/>
<path d="M349.803 211C341.203 211 333.943 209.1 328.023 205.3C322.103 201.46 317.623 196.16 314.583 189.4C311.543 182.64 310.023 174.84 310.023 166C310.023 157.16 311.543 149.36 314.583 142.6C317.623 135.84 322.103 130.56 328.023 126.76C333.943 122.92 341.203 121 349.803 121C358.443 121 365.703 122.92 371.583 126.76C377.503 130.56 381.983 135.84 385.023 142.6C388.103 149.36 389.643 157.16 389.643 166C389.643 174.84 388.103 182.64 385.023 189.4C381.983 196.16 377.503 201.46 371.583 205.3C365.703 209.1 358.443 211 349.803 211ZM349.803 202.54C356.563 202.54 362.203 201 366.723 197.92C371.243 194.84 374.623 190.56 376.863 185.08C379.143 179.56 380.283 173.2 380.283 166C380.283 158.8 379.143 152.46 376.863 146.98C374.623 141.5 371.243 137.22 366.723 134.14C362.203 131.06 356.563 129.5 349.803 129.46C343.043 129.46 337.423 131 332.943 134.08C328.463 137.16 325.083 141.46 322.803 146.98C320.563 152.46 319.423 158.8 319.383 166C319.343 173.2 320.443 179.54 322.683 185.02C324.963 190.46 328.363 194.74 332.883 197.86C337.403 200.94 343.043 202.5 349.803 202.54Z"/>
<path d="M401.659 209.2V122.8H467.839V209.2H459.019V131.26H410.479V209.2H401.659Z"/>
<path d="M478.628 209.2L508.388 122.8H520.088L549.848 209.2H540.668L512.408 127.72H515.888L487.808 209.2H478.628ZM491.888 188.26V179.98H536.528V188.26H491.888Z"/>
<path d="M560.683 209.2V122.8H568.783L602.743 195.46L636.523 122.8H644.743V209.14H636.343V142.48L605.563 209.2H599.863L569.143 142.48V209.2H560.683Z"/>
<path d="M720.441 209.2H711.681V176.38H682.941L679.881 175.66C673.481 174.42 668.561 171.4 665.121 166.6C661.681 161.8 659.961 156.14 659.961 149.62C659.961 145.1 660.781 140.98 662.421 137.26C664.061 133.54 666.441 130.46 669.561 128.02C672.721 125.54 676.541 123.96 681.021 123.28C682.141 123.08 683.221 122.96 684.261 122.92C685.301 122.84 686.241 122.8 687.081 122.8H720.441V209.2ZM668.121 209.2H657.981L676.701 170.8L685.161 174.04L668.121 209.2ZM711.681 167.98V131.26H687.321C686.641 131.26 685.801 131.3 684.801 131.38C683.841 131.42 682.901 131.54 681.981 131.74C679.021 132.38 676.581 133.6 674.661 135.4C672.781 137.2 671.381 139.36 670.461 141.88C669.541 144.36 669.081 146.94 669.081 149.62C669.081 152.3 669.541 154.88 670.461 157.36C671.381 159.84 672.781 161.98 674.661 163.78C676.581 165.58 679.021 166.8 681.981 167.44C682.901 167.64 683.841 167.78 684.801 167.86C685.801 167.94 686.641 167.98 687.321 167.98H711.681Z"/>
<path d="M760.264 209.2V131.26H730.084V122.8H799.264V131.26H769.084V209.2H760.264Z"/>
<path d="M808.826 209.2V122.8H817.646V155.62H842.186C843.026 155.62 843.966 155.66 845.006 155.74C846.086 155.78 847.186 155.9 848.306 156.1C852.786 156.78 856.586 158.36 859.706 160.84C862.866 163.28 865.246 166.36 866.846 170.08C868.486 173.8 869.306 177.9 869.306 182.38C869.306 186.9 868.486 191.02 866.846 194.74C865.246 198.46 862.866 201.56 859.706 204.04C856.586 206.48 852.786 208.04 848.306 208.72C847.186 208.88 846.086 209 845.006 209.08C843.966 209.16 843.026 209.2 842.186 209.2H808.826ZM817.646 200.74H841.946C842.706 200.74 843.566 200.7 844.526 200.62C845.486 200.54 846.426 200.42 847.346 200.26C850.266 199.62 852.686 198.4 854.606 196.6C856.526 194.8 857.946 192.66 858.866 190.18C859.786 187.66 860.246 185.06 860.246 182.38C860.246 179.7 859.786 177.12 858.866 174.64C857.946 172.16 856.526 170.02 854.606 168.22C852.686 166.42 850.266 165.2 847.346 164.56C846.426 164.36 845.486 164.22 844.526 164.14C843.566 164.06 842.706 164.02 841.946 164.02H817.646V200.74Z"/>
</mask>
<path d="M40.78 91C32.18 91 24.92 89.1 19 85.3C13.08 81.46 8.6 76.16 5.56 69.4C2.52 62.64 1 54.84 1 46C1 37.16 2.52 29.36 5.56 22.6C8.6 15.84 13.08 10.56 19 6.76C24.92 2.92 32.18 1 40.78 1C50.82 1 59.02 3.58 65.38 8.74C71.74 13.86 76.1 20.74 78.46 29.38L69.46 31.72C67.62 24.88 64.32 19.46 59.56 15.46C54.8 11.46 48.54 9.45999 40.78 9.45999C34.02 9.45999 28.4 11 23.92 14.08C19.44 17.16 16.06 21.46 13.78 26.98C11.54 32.46 10.38 38.8 10.3 46C10.26 53.2 11.36 59.54 13.6 65.02C15.88 70.5 19.28 74.8 23.8 77.92C28.36 81 34.02 82.54 40.78 82.54C48.54 82.54 54.8 80.54 59.56 76.54C64.32 72.5 67.62 67.08 69.46 60.28L78.46 62.62C76.1 71.26 71.74 78.16 65.38 83.32C59.02 88.44 50.82 91 40.78 91Z" stroke="white" stroke-width="2" stroke-linejoin="round" mask="url(#path-1-outside-1_2639_4473)"/>
<path d="M91.6984 89.2V2.8H100.518V43.6L139.938 2.8H151.218L110.958 44.5L154.518 89.2H142.998L100.518 46V89.2H91.6984Z" stroke="white" stroke-width="2" stroke-linejoin="round" mask="url(#path-1-outside-1_2639_4473)"/>
<path d="M193.944 91C185.344 91 178.084 89.1 172.164 85.3C166.244 81.46 161.764 76.16 158.724 69.4C155.684 62.64 154.164 54.84 154.164 46C154.164 37.16 155.684 29.36 158.724 22.6C161.764 15.84 166.244 10.56 172.164 6.76C178.084 2.92 185.344 1 193.944 1C202.584 1 209.844 2.92 215.724 6.76C221.644 10.56 226.124 15.84 229.164 22.6C232.244 29.36 233.784 37.16 233.784 46C233.784 54.84 232.244 62.64 229.164 69.4C226.124 76.16 221.644 81.46 215.724 85.3C209.844 89.1 202.584 91 193.944 91ZM193.944 82.54C200.704 82.54 206.344 81 210.864 77.92C215.384 74.84 218.764 70.56 221.004 65.08C223.284 59.56 224.424 53.2 224.424 46C224.424 38.8 223.284 32.46 221.004 26.98C218.764 21.5 215.384 17.22 210.864 14.14C206.344 11.06 200.704 9.5 193.944 9.45999C187.184 9.45999 181.564 11 177.084 14.08C172.604 17.16 169.224 21.46 166.944 26.98C164.704 32.46 163.564 38.8 163.524 46C163.484 53.2 164.584 59.54 166.824 65.02C169.104 70.46 172.504 74.74 177.024 77.86C181.544 80.94 187.184 82.5 193.944 82.54Z" stroke="white" stroke-width="2" stroke-linejoin="round" mask="url(#path-1-outside-1_2639_4473)"/>
<path d="M245.8 89.2V2.8H279.16C280 2.8 280.94 2.84 281.98 2.92C283.06 2.96 284.14 3.08 285.22 3.28C289.74 3.96 293.56 5.54 296.68 8.02C299.84 10.46 302.22 13.54 303.82 17.26C305.46 20.98 306.28 25.1 306.28 29.62C306.28 34.1 305.46 38.2 303.82 41.92C302.18 45.64 299.78 48.74 296.62 51.22C293.5 53.66 289.7 55.22 285.22 55.9C284.14 56.06 283.06 56.18 281.98 56.26C280.94 56.34 280 56.38 279.16 56.38H254.62V89.2H245.8ZM254.62 47.98H278.92C279.64 47.98 280.48 47.94 281.44 47.86C282.4 47.78 283.34 47.64 284.26 47.44C287.22 46.8 289.64 45.58 291.52 43.78C293.44 41.98 294.86 39.84 295.78 37.36C296.74 34.88 297.22 32.3 297.22 29.62C297.22 26.94 296.74 24.36 295.78 21.88C294.86 19.36 293.44 17.2 291.52 15.4C289.64 13.6 287.22 12.38 284.26 11.74C283.34 11.54 282.4 11.42 281.44 11.38C280.48 11.3 279.64 11.26 278.92 11.26H254.62V47.98Z" stroke="white" stroke-width="2" stroke-linejoin="round" mask="url(#path-1-outside-1_2639_4473)"/>
<path d="M353.202 91C344.602 91 337.342 89.1 331.422 85.3C325.502 81.46 321.022 76.16 317.982 69.4C314.942 62.64 313.422 54.84 313.422 46C313.422 37.16 314.942 29.36 317.982 22.6C321.022 15.84 325.502 10.56 331.422 6.76C337.342 2.92 344.602 1 353.202 1C361.842 1 369.102 2.92 374.982 6.76C380.902 10.56 385.382 15.84 388.422 22.6C391.502 29.36 393.042 37.16 393.042 46C393.042 54.84 391.502 62.64 388.422 69.4C385.382 76.16 380.902 81.46 374.982 85.3C369.102 89.1 361.842 91 353.202 91ZM353.202 82.54C359.962 82.54 365.602 81 370.122 77.92C374.642 74.84 378.022 70.56 380.262 65.08C382.542 59.56 383.682 53.2 383.682 46C383.682 38.8 382.542 32.46 380.262 26.98C378.022 21.5 374.642 17.22 370.122 14.14C365.602 11.06 359.962 9.5 353.202 9.45999C346.442 9.45999 340.822 11 336.342 14.08C331.862 17.16 328.482 21.46 326.202 26.98C323.962 32.46 322.822 38.8 322.782 46C322.742 53.2 323.842 59.54 326.082 65.02C328.362 70.46 331.762 74.74 336.282 77.86C340.802 80.94 346.442 82.5 353.202 82.54Z" stroke="white" stroke-width="2" stroke-linejoin="round" mask="url(#path-1-outside-1_2639_4473)"/>
<path d="M440.038 91C431.438 91 424.178 89.1 418.258 85.3C412.338 81.46 407.858 76.16 404.818 69.4C401.778 62.64 400.258 54.84 400.258 46C400.258 37.16 401.778 29.36 404.818 22.6C407.858 15.84 412.338 10.56 418.258 6.76C424.178 2.92 431.438 1 440.038 1C450.078 1 458.278 3.58 464.638 8.74C470.998 13.86 475.358 20.74 477.718 29.38L468.718 31.72C466.878 24.88 463.578 19.46 458.818 15.46C454.058 11.46 447.798 9.45999 440.038 9.45999C433.278 9.45999 427.658 11 423.178 14.08C418.698 17.16 415.318 21.46 413.038 26.98C410.798 32.46 409.638 38.8 409.558 46C409.518 53.2 410.618 59.54 412.858 65.02C415.138 70.5 418.538 74.8 423.058 77.92C427.618 81 433.278 82.54 440.038 82.54C447.798 82.54 454.058 80.54 458.818 76.54C463.578 72.5 466.878 67.08 468.718 60.28L477.718 62.62C475.358 71.26 470.998 78.16 464.638 83.32C458.278 88.44 450.078 91 440.038 91Z" stroke="white" stroke-width="2" stroke-linejoin="round" mask="url(#path-1-outside-1_2639_4473)"/>
<path d="M513.936 89.2V11.26H483.756V2.8H552.936V11.26H522.756V89.2H513.936Z" stroke="white" stroke-width="2" stroke-linejoin="round" mask="url(#path-1-outside-1_2639_4473)"/>
<path d="M562.558 89.2V2.8H571.378V41.74H619.138V2.8H627.898V89.2H619.138V50.2H571.378V89.2H562.558Z" stroke="white" stroke-width="2" stroke-linejoin="round" mask="url(#path-1-outside-1_2639_4473)"/>
<path d="M638.706 89.2L668.466 2.8H680.166L709.926 89.2H700.746L672.486 7.72H675.966L647.886 89.2H638.706ZM651.966 68.26V59.98H696.606V68.26H651.966Z" stroke="white" stroke-width="2" stroke-linejoin="round" mask="url(#path-1-outside-1_2639_4473)"/>
<path d="M779.621 89.2H770.861V56.38H742.121L739.061 55.66C732.661 54.42 727.741 51.4 724.301 46.6C720.861 41.8 719.141 36.14 719.141 29.62C719.141 25.1 719.961 20.98 721.601 17.26C723.241 13.54 725.621 10.46 728.741 8.02C731.901 5.54 735.721 3.96 740.201 3.28C741.321 3.08 742.401 2.96 743.441 2.92C744.481 2.84 745.421 2.8 746.261 2.8H779.621V89.2ZM727.301 89.2H717.161L735.881 50.8L744.341 54.04L727.301 89.2ZM770.861 47.98V11.26H746.501C745.821 11.26 744.981 11.3 743.981 11.38C743.021 11.42 742.081 11.54 741.161 11.74C738.201 12.38 735.761 13.6 733.841 15.4C731.961 17.2 730.561 19.36 729.641 21.88C728.721 24.36 728.261 26.94 728.261 29.62C728.261 32.3 728.721 34.88 729.641 37.36C730.561 39.84 731.961 41.98 733.841 43.78C735.761 45.58 738.201 46.8 741.161 47.44C742.081 47.64 743.021 47.78 743.981 47.86C744.981 47.94 745.821 47.98 746.501 47.98H770.861Z" stroke="white" stroke-width="2" stroke-linejoin="round" mask="url(#path-1-outside-1_2639_4473)"/>
<path d="M5.8 209.2V122.8H39.16C44 122.8 48.22 123.8 51.82 125.8C55.42 127.8 58.22 130.5 60.22 133.9C62.22 137.26 63.22 140.98 63.22 145.06C63.22 149.7 61.98 153.84 59.5 157.48C57.02 161.08 53.7 163.58 49.54 164.98L49.42 162.04C55.02 163.64 59.42 166.44 62.62 170.44C65.82 174.44 67.42 179.28 67.42 184.96C67.42 189.96 66.36 194.28 64.24 197.92C62.12 201.52 59.14 204.3 55.3 206.26C51.46 208.22 47 209.2 41.92 209.2H5.8ZM14.68 200.74H39.76C43.28 200.74 46.44 200.12 49.24 198.88C52.04 197.6 54.24 195.8 55.84 193.48C57.48 191.16 58.3 188.36 58.3 185.08C58.3 181.88 57.56 179 56.08 176.44C54.6 173.88 52.58 171.84 50.02 170.32C47.5 168.76 44.62 167.98 41.38 167.98H14.68V200.74ZM14.68 159.64H39.1C41.86 159.64 44.38 159.02 46.66 157.78C48.94 156.5 50.74 154.76 52.06 152.56C53.42 150.36 54.1 147.82 54.1 144.94C54.1 140.86 52.68 137.54 49.84 134.98C47.04 132.42 43.46 131.14 39.1 131.14H14.68V159.64Z" stroke="white" stroke-width="2" stroke-linejoin="round" mask="url(#path-1-outside-1_2639_4473)"/>
<path d="M144.734 209.2H135.854V138.34L88.2738 209.2H79.3938V122.8H88.2738V193.6L135.854 122.8H144.734V209.2Z" stroke="white" stroke-width="2" stroke-linejoin="round" mask="url(#path-1-outside-1_2639_4473)"/>
<path d="M157.522 223.6V200.74C160.882 200.74 163.582 199.9 165.622 198.22C167.662 196.5 169.222 194.22 170.302 191.38C171.382 188.54 172.202 185.36 172.762 181.84C173.322 178.28 173.802 174.68 174.202 171.04C174.762 165.72 175.202 160.58 175.522 155.62C175.882 150.66 176.182 145.52 176.422 140.2C176.702 134.88 177.022 129.06 177.382 122.74L230.662 122.8V200.74H236.842V223.6H228.082V209.2H166.342V223.6H157.522ZM174.382 200.74H221.842V131.26L185.602 131.2C185.362 136.08 185.122 140.8 184.882 145.36C184.642 149.92 184.362 154.52 184.042 159.16C183.722 163.8 183.302 168.64 182.782 173.68C182.342 178.28 181.822 182.3 181.222 185.74C180.622 189.18 179.782 192.12 178.702 194.56C177.662 197 176.222 199.06 174.382 200.74Z" stroke="white" stroke-width="2" stroke-linejoin="round" mask="url(#path-1-outside-1_2639_4473)"/>
<path d="M250.019 209.2V122.8H304.019V131.26H258.839V161.14H296.819V169.6H258.839V200.74H304.019V209.2H250.019Z" stroke="white" stroke-width="2" stroke-linejoin="round" mask="url(#path-1-outside-1_2639_4473)"/>
<path d="M349.803 211C341.203 211 333.943 209.1 328.023 205.3C322.103 201.46 317.623 196.16 314.583 189.4C311.543 182.64 310.023 174.84 310.023 166C310.023 157.16 311.543 149.36 314.583 142.6C317.623 135.84 322.103 130.56 328.023 126.76C333.943 122.92 341.203 121 349.803 121C358.443 121 365.703 122.92 371.583 126.76C377.503 130.56 381.983 135.84 385.023 142.6C388.103 149.36 389.643 157.16 389.643 166C389.643 174.84 388.103 182.64 385.023 189.4C381.983 196.16 377.503 201.46 371.583 205.3C365.703 209.1 358.443 211 349.803 211ZM349.803 202.54C356.563 202.54 362.203 201 366.723 197.92C371.243 194.84 374.623 190.56 376.863 185.08C379.143 179.56 380.283 173.2 380.283 166C380.283 158.8 379.143 152.46 376.863 146.98C374.623 141.5 371.243 137.22 366.723 134.14C362.203 131.06 356.563 129.5 349.803 129.46C343.043 129.46 337.423 131 332.943 134.08C328.463 137.16 325.083 141.46 322.803 146.98C320.563 152.46 319.423 158.8 319.383 166C319.343 173.2 320.443 179.54 322.683 185.02C324.963 190.46 328.363 194.74 332.883 197.86C337.403 200.94 343.043 202.5 349.803 202.54Z" stroke="white" stroke-width="2" stroke-linejoin="round" mask="url(#path-1-outside-1_2639_4473)"/>
<path d="M401.659 209.2V122.8H467.839V209.2H459.019V131.26H410.479V209.2H401.659Z" stroke="white" stroke-width="2" stroke-linejoin="round" mask="url(#path-1-outside-1_2639_4473)"/>
<path d="M478.628 209.2L508.388 122.8H520.088L549.848 209.2H540.668L512.408 127.72H515.888L487.808 209.2H478.628ZM491.888 188.26V179.98H536.528V188.26H491.888Z" stroke="white" stroke-width="2" stroke-linejoin="round" mask="url(#path-1-outside-1_2639_4473)"/>
<path d="M560.683 209.2V122.8H568.783L602.743 195.46L636.523 122.8H644.743V209.14H636.343V142.48L605.563 209.2H599.863L569.143 142.48V209.2H560.683Z" stroke="white" stroke-width="2" stroke-linejoin="round" mask="url(#path-1-outside-1_2639_4473)"/>
<path d="M720.441 209.2H711.681V176.38H682.941L679.881 175.66C673.481 174.42 668.561 171.4 665.121 166.6C661.681 161.8 659.961 156.14 659.961 149.62C659.961 145.1 660.781 140.98 662.421 137.26C664.061 133.54 666.441 130.46 669.561 128.02C672.721 125.54 676.541 123.96 681.021 123.28C682.141 123.08 683.221 122.96 684.261 122.92C685.301 122.84 686.241 122.8 687.081 122.8H720.441V209.2ZM668.121 209.2H657.981L676.701 170.8L685.161 174.04L668.121 209.2ZM711.681 167.98V131.26H687.321C686.641 131.26 685.801 131.3 684.801 131.38C683.841 131.42 682.901 131.54 681.981 131.74C679.021 132.38 676.581 133.6 674.661 135.4C672.781 137.2 671.381 139.36 670.461 141.88C669.541 144.36 669.081 146.94 669.081 149.62C669.081 152.3 669.541 154.88 670.461 157.36C671.381 159.84 672.781 161.98 674.661 163.78C676.581 165.58 679.021 166.8 681.981 167.44C682.901 167.64 683.841 167.78 684.801 167.86C685.801 167.94 686.641 167.98 687.321 167.98H711.681Z" stroke="white" stroke-width="2" stroke-linejoin="round" mask="url(#path-1-outside-1_2639_4473)"/>
<path d="M760.264 209.2V131.26H730.084V122.8H799.264V131.26H769.084V209.2H760.264Z" stroke="white" stroke-width="2" stroke-linejoin="round" mask="url(#path-1-outside-1_2639_4473)"/>
<path d="M808.826 209.2V122.8H817.646V155.62H842.186C843.026 155.62 843.966 155.66 845.006 155.74C846.086 155.78 847.186 155.9 848.306 156.1C852.786 156.78 856.586 158.36 859.706 160.84C862.866 163.28 865.246 166.36 866.846 170.08C868.486 173.8 869.306 177.9 869.306 182.38C869.306 186.9 868.486 191.02 866.846 194.74C865.246 198.46 862.866 201.56 859.706 204.04C856.586 206.48 852.786 208.04 848.306 208.72C847.186 208.88 846.086 209 845.006 209.08C843.966 209.16 843.026 209.2 842.186 209.2H808.826ZM817.646 200.74H841.946C842.706 200.74 843.566 200.7 844.526 200.62C845.486 200.54 846.426 200.42 847.346 200.26C850.266 199.62 852.686 198.4 854.606 196.6C856.526 194.8 857.946 192.66 858.866 190.18C859.786 187.66 860.246 185.06 860.246 182.38C860.246 179.7 859.786 177.12 858.866 174.64C857.946 172.16 856.526 170.02 854.606 168.22C852.686 166.42 850.266 165.2 847.346 164.56C846.426 164.36 845.486 164.22 844.526 164.14C843.566 164.06 842.706 164.02 841.946 164.02H817.646V200.74Z" stroke="white" stroke-width="2" stroke-linejoin="round" mask="url(#path-1-outside-1_2639_4473)"/>
</svg>
