<svg width="383" height="62" viewBox="0 0 383 62" fill="none" xmlns="http://www.w3.org/2000/svg">
<path d="M2.85413 54.1029L42.7436 0.104919H50.5436L50.3341 54.1029H44.2141L44.2819 3.1798H46.6019L8.97413 54.1029H2.85413ZM16.5533 41.0159L18.4748 35.8411H48.2348L46.3133 41.0159H16.5533ZM57.5573 54.1029L77.6067 0.104919H83.4867L74.0189 25.604L109.767 0.104919H117.287L80.7701 26.1664L99.4373 54.1029H91.7573L73.462 27.1039L63.4373 54.1029H57.5573ZM147.494 61.1151L150.097 54.1029H105.057L125.107 0.104919H130.987L112.831 49.0031H145.871L163.846 0.592401H169.726L151.751 49.0031H157.871L153.374 61.1151H147.494ZM162.401 54.1029L182.45 0.104919H218.45L216.487 5.39222H186.367L179.434 24.0665H204.754L202.79 29.3538H177.47L170.244 48.8156H200.364L198.401 54.1029H162.401ZM208.026 54.1029L228.075 0.104919H233.955L224.919 24.4415H256.759L265.795 0.104919H271.635L251.586 54.1029H245.746L254.796 29.7288H222.956L213.906 54.1029H208.026ZM278.112 54.1029L296.198 5.39222H276.078L278.041 0.104919H324.161L322.198 5.39222H302.078L283.992 54.1029H278.112ZM310.486 54.1029L330.535 0.104919H336.415L328.799 20.6166H345.159C345.719 20.6166 346.337 20.6416 347.012 20.6916C347.722 20.7166 348.428 20.7916 349.128 20.9166C351.957 21.3416 354.124 22.3291 355.628 23.879C357.169 25.404 358.041 27.3289 358.244 29.6538C358.474 31.9787 358.069 34.5411 357.03 37.341C355.981 40.1659 354.478 42.7408 352.522 45.0657C350.592 47.3906 348.286 49.3281 345.603 50.878C342.957 52.4029 340.062 53.3779 336.917 53.8029C336.134 53.9029 335.372 53.9779 334.634 54.0279C333.922 54.0779 333.286 54.1029 332.726 54.1029H310.486ZM318.329 48.8156H334.529C335.036 48.8156 335.618 48.7906 336.277 48.7406C336.936 48.6906 337.59 48.6156 338.241 48.5156C340.336 48.1156 342.232 47.3531 343.93 46.2282C345.628 45.1032 347.071 43.7658 348.26 42.2158C349.458 40.6409 350.368 39.0159 350.99 37.341C351.612 35.6661 351.904 34.0536 351.866 32.5037C351.828 30.9537 351.378 29.6163 350.516 28.4913C349.653 27.3664 348.323 26.6039 346.525 26.2039C345.958 26.0789 345.364 25.9914 344.742 25.9414C344.121 25.8914 343.557 25.8664 343.05 25.8664H326.85L318.329 48.8156ZM356.486 54.1029L376.535 0.104919H382.415L362.366 54.1029H356.486Z" fill="white"/>
</svg>
