<svg width="120" height="120" viewBox="0 0 120 120" fill="none" xmlns="http://www.w3.org/2000/svg">
<g clip-path="url(#clip0_656_6383)">
<rect width="120" height="120" rx="60" fill="#4916DD"/>
<path d="M35.7436 68.5701C35.7178 68.5701 35.6923 68.565 35.6685 68.555C35.6447 68.5449 35.6232 68.5303 35.6052 68.5118C35.5872 68.4933 35.573 68.4714 35.5636 68.4474C35.5541 68.4234 35.5496 68.3977 35.5502 68.3719V63.7337C35.5502 62.3752 34.9362 61.6943 33.7082 61.6913H21.9472C21.8942 61.6913 21.8434 61.6705 21.8055 61.6335C21.7676 61.5964 21.7458 61.546 21.7445 61.493V57.6525C21.747 57.5939 21.7649 57.537 21.7965 57.4876C21.828 57.4382 21.8721 57.398 21.9241 57.3712L32.1564 52.0922C32.2714 52.0362 32.3969 52.0048 32.5247 52H37.9402C38.0461 52 38.0553 52.0415 37.9402 52.0922L24.8483 58.842C24.7516 58.8927 24.7562 58.9296 24.8483 58.9296H33.5102C36.7106 58.9296 38.3132 60.3127 38.3132 63.0283V68.3765C38.312 68.4287 38.2908 68.4784 38.2539 68.5154C38.217 68.5523 38.1673 68.5736 38.1152 68.5747L35.7436 68.5701ZM19 52.1983C19 52.1465 19.0202 52.0967 19.0564 52.0597C19.0925 52.0226 19.1417 52.0012 19.1934 52H21.5604C21.5861 52 21.6117 52.0051 21.6355 52.0152C21.6592 52.0252 21.6807 52.0399 21.6988 52.0583C21.7168 52.0768 21.7309 52.0987 21.7404 52.1227C21.7498 52.1468 21.7544 52.1724 21.7538 52.1983V68.3719C21.7544 68.3977 21.7498 68.4234 21.7404 68.4474C21.7309 68.4714 21.7168 68.4933 21.6988 68.5118C21.6807 68.5303 21.6592 68.5449 21.6355 68.555C21.6117 68.565 21.5861 68.5701 21.5604 68.5701H19.1934C19.1417 68.5689 19.0925 68.5475 19.0564 68.5105C19.0202 68.4734 19 68.4237 19 68.3719V52.1983Z" fill="white"/>
<path d="M43.4385 61.694C43.3877 61.6951 43.3392 61.7159 43.3032 61.752C43.2672 61.7881 43.2465 61.8367 43.2453 61.8877V68.3764C43.2441 68.4287 43.2229 68.4784 43.186 68.5154C43.1492 68.5523 43.0995 68.5736 43.0474 68.5747H40.6868C40.6338 68.5747 40.583 68.554 40.5452 68.5169C40.5073 68.4799 40.4855 68.4294 40.4843 68.3764V59.1252C40.4855 59.0722 40.5073 59.0217 40.5452 58.9847C40.583 58.9476 40.6338 58.9269 40.6868 58.9269H59.5904C59.6429 58.9269 59.6932 58.9478 59.7303 58.985C59.7674 59.0222 59.7883 59.0726 59.7883 59.1252V61.5003C59.7883 61.5261 59.7831 61.5517 59.7731 61.5755C59.7631 61.5993 59.7485 61.6208 59.73 61.6389C59.7116 61.6569 59.6898 61.6711 59.6658 61.6806C59.6418 61.69 59.6161 61.6946 59.5904 61.694H43.4385ZM40.6775 54.7763C40.6516 54.7769 40.6257 54.7724 40.6015 54.763C40.5772 54.7536 40.5551 54.7395 40.5363 54.7215C40.5175 54.7035 40.5024 54.682 40.4919 54.6581C40.4814 54.6343 40.4757 54.6086 40.4751 54.5826V52.1983C40.4763 52.1453 40.4981 52.0949 40.536 52.0578C40.5738 52.0207 40.6246 52 40.6775 52H59.5812C59.6337 52 59.684 52.0209 59.7211 52.0581C59.7582 52.0953 59.7791 52.1457 59.7791 52.1983V54.5734C59.7791 54.5992 59.7739 54.6248 59.7639 54.6486C59.7539 54.6724 59.7393 54.6939 59.7208 54.712C59.7024 54.73 59.6805 54.7442 59.6566 54.7537C59.6326 54.7631 59.6069 54.7677 59.5812 54.7671L40.6775 54.7763Z" fill="white"/>
<path d="M59.3427 68.5688C59.2316 68.5688 59.1806 68.4906 59.2316 68.394L66.0952 54.7753C66.4109 54.0899 66.8007 53.4406 67.2577 52.8389C67.44 52.5799 67.6825 52.3684 67.9647 52.2223C68.2469 52.0763 68.5604 52 68.8786 52C69.1969 52 69.5104 52.0763 69.7926 52.2223C70.0748 52.3684 70.3173 52.5799 70.4996 52.8389C70.6922 53.0679 70.8628 53.3142 71.0091 53.5748C71.1943 53.9014 71.5695 54.6051 71.5695 54.6051C71.6158 54.7017 71.6991 54.8535 71.7501 54.95L78.5072 68.3986C78.519 68.4173 78.5251 68.4389 78.5249 68.461C78.5247 68.483 78.5181 68.5045 78.5059 68.5229C78.4937 68.5414 78.4764 68.5559 78.4561 68.5649C78.4358 68.5738 78.4133 68.5768 78.3914 68.5734H76.0155C75.9569 68.57 75.9 68.5523 75.8499 68.5218C75.7998 68.4913 75.758 68.449 75.7284 68.3986L69.5641 56.1505C69.3047 55.6261 69.0732 55.3686 68.8972 55.3686C68.7212 55.3686 68.309 55.9803 68.309 55.9803C68.2534 56.0769 68.1608 56.2333 68.1145 56.3207L61.9826 68.394C61.9537 68.444 61.9127 68.4862 61.8634 68.5166C61.8141 68.5471 61.758 68.5651 61.7001 68.5688H59.3427Z" fill="white"/>
<path d="M99.8069 65.8307C99.8577 65.8319 99.9062 65.8527 99.9422 65.8888C99.9781 65.9248 99.9988 65.9734 100 66.0244V68.3764C100 68.4282 99.9798 68.478 99.9437 68.515C99.9076 68.5521 99.8585 68.5735 99.8069 68.5747H80.88C80.8284 68.5735 80.7793 68.5521 80.7432 68.515C80.7071 68.478 80.6869 68.4282 80.6869 68.3764V63.0268C80.6869 60.315 82.2779 58.9361 85.4554 58.9269L95.2453 58.8808C95.2705 58.8808 95.2954 58.8858 95.3185 58.8956C95.3417 58.9054 95.3627 58.9197 95.3803 58.9378C95.3979 58.9558 95.4116 58.9772 95.4208 59.0007C95.43 59.0242 95.4344 59.0493 95.4338 59.0745L95.3695 61.4772C95.3662 61.53 95.3438 61.5797 95.3066 61.6171C95.2693 61.6544 95.2197 61.6769 95.1671 61.6801H85.2945C84.0682 61.6801 83.4551 62.3611 83.4551 63.7231V65.6232C83.4551 65.6746 83.4754 65.7238 83.5117 65.7602C83.5479 65.7965 83.597 65.8169 83.6482 65.8169L99.8069 65.8307ZM95.4016 54.7625H80.88C80.8541 54.7619 80.8285 54.7561 80.8047 54.7456C80.781 54.7351 80.7595 54.72 80.7415 54.7011C80.7236 54.6823 80.7095 54.6601 80.7002 54.6358C80.6908 54.6115 80.6863 54.5856 80.6869 54.5595V52.1983C80.6869 52.1465 80.7071 52.0967 80.7432 52.0597C80.7793 52.0226 80.8284 52.0012 80.88 52H95.2039C98.4013 52 100 53.3835 100 56.1506V57.5341C100 60.2597 98.3906 61.6847 95.1993 61.6847C95.1993 61.6847 94.7855 59.4757 95.1993 58.9177C95.2315 58.8808 95.3695 58.8716 95.4338 58.8716C96.6478 58.8716 97.2134 57.488 97.2134 56.8009C97.2134 56.1137 96.6064 54.7348 95.397 54.7348L95.4016 54.7625Z" fill="white"/>
</g>
<defs>
<clipPath id="clip0_656_6383">
<rect width="120" height="120" fill="white"/>
</clipPath>
</defs>
</svg>
