<svg width="120" height="120" viewBox="0 0 120 120" fill="none" xmlns="http://www.w3.org/2000/svg">
<g clip-path="url(#clip0_557_5695)">
<path d="M24.7075 58.1682H12.9465C12.8022 58.1682 12.7926 58.1166 12.9224 58.0508L30.7491 49.1174C30.879 49.0517 30.8693 49 30.725 49H23.375C23.2211 49 22.9998 49.0517 22.87 49.1174L8.97804 56.1063C8.84336 56.1721 8.73753 56.3318 8.73753 56.4821V49.2583C8.73753 49.1174 8.6269 49 8.47298 49H5.26456C5.12025 49 5 49.1174 5 49.2583V70.6759C5 70.8168 5.12025 70.9343 5.26456 70.9343H8.47298C8.6269 70.9343 8.73753 70.8168 8.73753 70.6759V61.5922C8.73753 61.7331 8.85779 61.8506 9.01172 61.8506L24.9816 61.8271C26.6315 61.8271 27.4541 62.7289 27.4541 64.5325V70.6759C27.4541 70.8168 27.5647 70.9343 27.7187 70.9343H30.9607C31.105 70.9343 31.2253 70.8168 31.2253 70.6759V63.5884C31.2205 59.9859 29.0463 58.1682 24.7075 58.1682Z" fill="#1B1B1B"/>
<path d="M38.168 61.8318C38.0237 61.8318 37.9035 61.9492 37.9035 62.0901V70.6806C37.9035 70.8215 37.7832 70.939 37.6389 70.939H34.4305C34.2766 70.939 34.1562 70.8215 34.1562 70.6806V58.4313C34.1562 58.2904 34.2766 58.1729 34.4305 58.1729H60.1123C60.2662 58.1729 60.3768 58.2904 60.3768 58.4313V61.5781C60.3768 61.7191 60.2662 61.8365 60.1123 61.8365H38.168V61.8318ZM34.4352 52.6635C34.2813 52.6635 34.1611 52.5461 34.1611 52.4052V49.2583C34.1611 49.1174 34.2813 49 34.4352 49H60.1171C60.271 49 60.3815 49.1174 60.3815 49.2583V52.4052C60.3815 52.5461 60.271 52.6635 60.1171 52.6635H34.4352Z" fill="#1B1B1B"/>
<path d="M59.8831 70.9984C59.7292 70.9984 59.6618 70.8904 59.7292 70.7635L68.9937 52.6948C69.619 51.4689 70.1481 50.6235 70.5666 50.1491C71.1246 49.515 71.8509 49.1393 72.7408 49.0312C73.6307 49.1393 74.3571 49.5056 74.915 50.1162C75.1123 50.3323 75.3335 50.6517 75.5981 51.0932C75.853 51.5206 76.3581 52.4553 76.3581 52.4553C76.4255 52.5821 76.5361 52.7887 76.5986 52.9155L85.7188 70.7589C85.7861 70.8857 85.7092 70.9937 85.5649 70.9937H82.3564C82.2121 70.9937 82.039 70.8857 81.9716 70.7589L73.674 54.5125C73.3229 53.8126 73.015 53.4698 72.7745 53.4698C72.5099 53.4698 71.9856 54.287 71.9856 54.287C71.9086 54.4138 71.7884 54.6205 71.7211 54.7379L63.4427 70.7589C63.3753 70.8857 63.2022 70.9937 63.0578 70.9937H59.8831V70.9984Z" fill="#1B1B1B"/>
<path d="M94.9907 61.8318H95.0436C95.1205 61.8318 95.3081 61.8318 95.4524 61.8318L108.43 61.8083C108.445 61.8083 108.459 61.8083 108.474 61.8036V61.8083C112.813 61.8083 115.001 59.953 115.001 56.3412V54.4859C115.001 50.8271 112.827 49 108.483 49H89.0067C88.8624 49 88.7422 49.1174 88.7422 49.2583V52.3629C88.7422 52.5132 88.8624 52.6307 89.0067 52.6307H108.748C110.398 52.6307 111.22 54.4577 111.22 55.3689C111.22 56.2801 110.451 58.0743 108.801 58.1072C108.753 58.1072 108.681 58.1119 108.613 58.1213C108.589 58.1119 108.56 58.1072 108.536 58.1072C108.536 58.1072 95.26 58.1729 95.2264 58.1729C90.9068 58.1823 88.7422 60.0094 88.7422 63.5931V70.6806C88.7422 70.8215 88.8624 70.939 89.0067 70.939H114.737C114.881 70.939 115.001 70.8215 115.001 70.6806V67.5666C115.001 67.4257 114.881 67.3083 114.737 67.3083H92.778C92.6336 67.3083 92.5134 67.1909 92.5134 67.05V64.5372C92.5182 62.7336 93.3407 61.8318 94.9907 61.8318Z" fill="#1B1B1B"/>
</g>
<defs>
<clipPath id="clip0_557_5695">
<rect width="110" height="22" fill="white" transform="translate(5 49)"/>
</clipPath>
</defs>
</svg>
