<svg width="110" height="22" viewBox="0 0 110 22" fill="none" xmlns="http://www.w3.org/2000/svg">
<path d="M19.7075 9.16823H7.94647C7.80217 9.16823 7.79255 9.11657 7.92243 9.05081L25.7491 0.117421C25.879 0.0516653 25.8693 0 25.725 0H18.375C18.2211 0 17.9998 0.0516653 17.87 0.117421L3.97804 7.10632C3.84336 7.17207 3.73753 7.33177 3.73753 7.48207V0.258321C3.73753 0.117415 3.6269 0 3.47298 0H0.264556C0.12025 0 0 0.117415 0 0.258321V21.6759C0 21.8168 0.12025 21.9343 0.264556 21.9343H3.47298C3.6269 21.9343 3.73753 21.8168 3.73753 21.6759V12.5922C3.73753 12.7331 3.85779 12.8506 4.01172 12.8506L19.9816 12.8271C21.6315 12.8271 22.4541 13.7289 22.4541 15.5325V21.6759C22.4541 21.8168 22.5647 21.9343 22.7187 21.9343H25.9607C26.105 21.9343 26.2253 21.8168 26.2253 21.6759V14.5884C26.2205 10.9859 24.0463 9.16823 19.7075 9.16823Z" fill="#1B1B1B"/>
<path d="M33.168 12.8318C33.0237 12.8318 32.9034 12.9492 32.9034 13.0901V21.6806C32.9034 21.8215 32.7831 21.939 32.6388 21.939H29.4304C29.2765 21.939 29.1562 21.8215 29.1562 21.6806V9.43126C29.1562 9.29036 29.2765 9.17293 29.4304 9.17293H55.1122C55.2661 9.17293 55.3767 9.29036 55.3767 9.43126V12.5781C55.3767 12.7191 55.2661 12.8365 55.1122 12.8365H33.168V12.8318ZM29.4352 3.66353C29.2813 3.66353 29.1611 3.54612 29.1611 3.40521V0.258321C29.1611 0.117415 29.2813 0 29.4352 0H55.117C55.2709 0 55.3815 0.117415 55.3815 0.258321V3.40521C55.3815 3.54612 55.2709 3.66353 55.117 3.66353H29.4352Z" fill="#1B1B1B"/>
<path d="M54.8831 21.9984C54.7292 21.9984 54.6618 21.8904 54.7292 21.7635L63.9937 3.69479C64.619 2.46891 65.1481 1.62348 65.5666 1.1491C66.1246 0.515027 66.8509 0.139277 67.7408 0.03125C68.6307 0.139277 69.3571 0.50563 69.915 1.11622C70.1123 1.33227 70.3335 1.65166 70.5981 2.09316C70.853 2.52058 71.3581 3.45525 71.3581 3.45525C71.4255 3.58207 71.5361 3.78873 71.5986 3.91554L80.7188 21.7589C80.7861 21.8857 80.7092 21.9937 80.5649 21.9937H77.3564C77.2121 21.9937 77.039 21.8857 76.9716 21.7589L68.674 5.51247C68.3229 4.81264 68.015 4.46977 67.7745 4.46977C67.5099 4.46977 66.9856 5.28702 66.9856 5.28702C66.9086 5.41383 66.7884 5.6205 66.7211 5.73792L58.4427 21.7589C58.3753 21.8857 58.2022 21.9937 58.0578 21.9937H54.8831V21.9984Z" fill="#1B1B1B"/>
<path d="M89.9907 12.8318H90.0436C90.1205 12.8318 90.3081 12.8318 90.4524 12.8318L103.43 12.8083C103.445 12.8083 103.459 12.8083 103.474 12.8036V12.8083C107.813 12.8083 110.001 10.953 110.001 7.34116V5.48591C110.001 1.82707 107.827 0 103.483 0H84.0067C83.8624 0 83.7422 0.117415 83.7422 0.258321V3.36293C83.7422 3.51323 83.8624 3.63066 84.0067 3.63066H103.748C105.398 3.63066 106.22 5.45773 106.22 6.36892C106.22 7.28011 105.451 9.0743 103.801 9.10718C103.753 9.10718 103.681 9.11187 103.613 9.12127C103.589 9.11187 103.56 9.10718 103.536 9.10718C103.536 9.10718 90.26 9.17293 90.2264 9.17293C85.9068 9.18233 83.7422 11.0094 83.7422 14.5931V21.6806C83.7422 21.8215 83.8624 21.939 84.0067 21.939H109.737C109.881 21.939 110.001 21.8215 110.001 21.6806V18.5666C110.001 18.4257 109.881 18.3083 109.737 18.3083H87.778C87.6336 18.3083 87.5134 18.1909 87.5134 18.05V15.5372C87.5182 13.7336 88.3407 12.8318 89.9907 12.8318Z" fill="#1B1B1B"/>
</svg>
