<svg width="51" height="51" viewBox="0 0 51 51" fill="none" xmlns="http://www.w3.org/2000/svg">
<g clip-path="url(#clip0_3924_2417)">
<path fill-rule="evenodd" clip-rule="evenodd" d="M25.5118 22.838C23.3094 22.8413 21.1575 23.4984 19.3278 24.7263C17.4982 25.9542 16.0731 27.6977 15.2325 29.7365C14.3919 31.7754 14.1737 34.018 14.6053 36.1811C15.037 38.3441 16.0991 40.3305 17.6576 41.8891C19.216 43.4477 21.2008 44.5087 23.3611 44.9379C25.5214 45.3671 27.7602 45.1453 29.7947 44.3005C31.8291 43.4557 33.5678 42.0258 34.7912 40.1915C36.0145 38.3573 36.6675 36.201 36.6676 33.9952C36.6608 31.0354 35.4828 28.1991 33.3917 26.1077C31.3006 24.0163 28.4669 22.8405 25.5118 22.838ZM25.5118 23.9007C27.8117 23.8992 30.0424 24.6887 31.8307 26.1373C32.0921 26.6416 32.3089 27.1679 32.4786 27.7102L34.1337 28.7774C34.3924 29.1919 34.6197 29.6253 34.8137 30.074L32.716 28.7247C32.8055 29.181 32.8654 29.6427 32.8955 30.1067L35.3205 31.6712C35.3989 31.9936 35.461 32.3198 35.5065 32.6485L32.9405 30.9934C32.9313 31.3967 32.8991 31.7991 32.8443 32.1987L35.6028 33.9766V33.9978C35.6028 34.2721 35.5835 34.542 35.5642 34.8125L32.7224 32.9807C32.6462 33.3454 32.5498 33.7055 32.4337 34.0595L35.4039 35.9748C35.359 36.2266 35.2884 36.4721 35.2242 36.7169L32.1835 34.7559C32.0504 35.0885 31.9006 35.414 31.7345 35.7313L34.8714 37.7552C34.7816 37.9826 34.6789 38.2049 34.5699 38.4208L31.3687 36.3584C31.1827 36.6603 30.9839 36.9527 30.7722 37.2354L34.0503 39.3512C33.922 39.5561 33.7873 39.7547 33.6461 39.9487L30.3103 37.8002C30.0726 38.0728 29.8199 38.3319 29.5533 38.5763L32.9661 40.7776C32.7993 40.9594 32.6326 41.1361 32.4529 41.3057L28.9952 39.0743C28.6974 39.3129 28.3869 39.5351 28.065 39.7399L31.6061 42.0247C31.4008 42.1814 31.1891 42.3331 30.971 42.4744L27.3786 40.1614C27.006 40.3577 26.6226 40.5328 26.2303 40.6857L29.9189 43.063C29.6598 43.1923 29.3943 43.3083 29.1235 43.4106L25.3707 40.987C24.8893 41.1292 24.3984 41.2365 23.9016 41.3083L27.802 43.8224C27.4568 43.9028 27.1078 43.9656 26.7563 44.0107L22.7341 41.4181C22.5993 41.4233 22.4646 41.4387 22.3235 41.4387C21.7342 41.4349 21.1462 41.3816 20.5658 41.2794L24.8767 44.0634C24.2908 44.0286 23.7091 43.9426 23.1382 43.8064L18.0767 40.5379C17.9356 40.4737 17.8008 40.4094 17.6597 40.34C16.458 38.8584 15.701 37.0656 15.4766 35.17C15.2522 33.2744 15.5697 31.3539 16.3922 29.6319C17.2147 27.91 18.5084 26.4572 20.1228 25.4427C21.7372 24.4281 23.6059 23.8934 25.5118 23.9007ZM45.3858 9.55599L40.3884 4.55469L36.4495 8.49392L37.3669 9.41015L35.2371 10.4729L39.471 14.7032L40.5295 12.5777L41.4469 13.4939L45.3858 9.55599ZM40.3884 6.05688L43.8846 9.55599L41.4469 11.9918L37.9506 8.49392L40.3884 6.05688ZM39.1759 12.9093L37.0333 10.7639L38.156 10.2024L39.7405 11.7862L39.1759 12.9093ZM33.4793 13.2755H36.6676V16.463H35.6028V15.09L28.7322 21.9648L15.1963 10.6887L15.8764 9.87211L28.6616 20.5282L34.8522 14.3395H33.4793V13.2774V13.2755ZM33.4793 18.5871H36.6676V21.7753H35.6028V20.4009L32.9469 23.0577L32.1963 22.3066L34.8522 19.6499H33.4793V18.5871ZM9.57027 4.77314C8.72617 4.76801 7.90565 5.0518 7.24456 5.5775C6.58348 6.10321 6.12152 6.83931 5.93516 7.66388C5.74879 8.48846 5.84922 9.35205 6.21981 10.1117C6.5904 10.8713 7.2089 11.4813 7.97292 11.8408V14.3389H9.03785V14.8702H10.1028V14.3389H11.1612V11.8408C11.9258 11.4825 12.5452 10.8732 12.9167 10.1141C13.2881 9.3549 13.3894 8.49139 13.2037 7.66666C13.0181 6.84193 12.5565 6.10551 11.8957 5.57948C11.2348 5.05346 10.4144 4.76941 9.57027 4.77442V4.77314ZM10.1028 12.2102V13.2742H9.03785V12.2115H10.1028V12.2102ZM10.5197 10.9644L11.3473 9.31698L10.3914 8.84152L9.57027 10.4928L8.74278 8.84152L7.79328 9.31698L8.62085 10.9644C8.04138 10.7418 7.55809 10.3229 7.25482 9.78061C6.95155 9.23828 6.84747 8.6067 6.96069 7.99553C7.07392 7.38436 7.3973 6.8322 7.87464 6.43494C8.35198 6.03767 8.95317 5.82039 9.5738 5.82081C10.1944 5.82123 10.7953 6.03933 11.2721 6.43724C11.7489 6.83515 12.0715 7.38774 12.1839 7.99906C12.2963 8.61038 12.1914 9.24182 11.8874 9.78374C11.5834 10.3257 11.0995 10.7438 10.5197 10.9657V10.9644Z" fill="#1B1B1B"/>
</g>
<defs>
<clipPath id="clip0_3924_2417">
<rect width="51" height="51" fill="white"/>
</clipPath>
</defs>
</svg>
