<svg width="51" height="51" viewBox="0 0 51 51" fill="none" xmlns="http://www.w3.org/2000/svg">
<g clip-path="url(#clip0_3924_2430)">
<path fill-rule="evenodd" clip-rule="evenodd" d="M25.5007 7.96729C22.0333 7.96729 18.6437 8.99548 15.7607 10.9218C12.8777 12.8482 10.6309 15.5862 9.30402 18.7896C7.97712 21.993 7.62993 25.518 8.30637 28.9187C8.98282 32.3195 10.6526 35.4432 13.1044 37.895C15.5561 40.3468 18.6798 42.0165 22.0805 42.6929C25.4812 43.3694 29.0061 43.0222 32.2095 41.6953C35.4129 40.3684 38.1511 38.1214 40.0775 35.2384C42.0038 32.3554 43.0319 28.9659 43.0319 25.4985C43.0266 20.8506 41.1777 16.3945 37.8911 13.1079C34.6045 9.82129 30.1486 7.97256 25.5007 7.96729ZM25.5007 41.9676C22.2435 41.9671 19.0598 41.0008 16.3518 39.1909C13.6438 37.3809 11.533 34.8087 10.2869 31.7993C9.04075 28.7899 8.71498 25.4786 9.35072 22.2841C9.98645 19.0896 11.5551 16.1553 13.8584 13.8523C16.1618 11.5493 19.0964 9.98106 22.291 9.34579C25.4856 8.71053 28.7968 9.03681 31.806 10.2834C34.8152 11.5299 37.387 13.6408 39.1966 16.3491C41.0061 19.0574 41.972 22.2414 41.972 25.4985C41.9672 29.8653 40.2301 34.0518 37.1421 37.1394C34.0541 40.2269 29.8674 41.9633 25.5007 41.9676ZM39.3981 11.5987C36.1828 8.38668 31.9533 6.38878 27.4302 5.94534C22.9071 5.50189 18.3702 6.64032 14.5923 9.16669C10.8144 11.6931 8.02939 15.4511 6.71146 19.8006C5.39352 24.1501 5.62415 28.8219 7.36436 33.0203C9.10457 37.2187 12.2468 40.684 16.2553 42.8257C20.2638 44.9674 24.8907 45.6531 29.3481 44.766C33.8054 43.879 37.8174 41.4739 40.7004 37.9607C43.5835 34.4475 45.1593 30.0433 45.1595 25.4985C45.1663 22.9157 44.6606 20.3572 43.6716 17.9713C42.6826 15.5853 41.2301 13.4193 39.3981 11.5987ZM38.6491 38.647C35.607 41.6918 31.6033 43.5874 27.3201 44.011C23.0369 44.4345 18.7395 43.3597 15.16 40.9697C11.5805 38.5797 8.94023 35.0224 7.68965 30.9041C6.43907 26.7857 6.65554 22.3611 8.3017 18.3843C9.94787 14.4075 12.9221 11.1245 16.7175 9.0949C20.513 7.06529 24.8947 6.4146 29.1162 7.25373C33.3376 8.09286 37.1374 10.3699 39.8682 13.6967C42.5989 17.0236 44.0917 21.1945 44.0918 25.4985C44.0985 27.9411 43.621 30.3608 42.6868 32.6176C41.7526 34.8745 40.3802 36.9238 38.6491 38.647Z" fill="#1B1B1B"/>
<path fill-rule="evenodd" clip-rule="evenodd" d="M25.4596 38.7806C25.3454 38.78 25.2325 38.7544 25.1292 38.7057C25.026 38.6569 24.935 38.5862 24.8619 38.4986L16.6461 28.7528C16.5575 28.657 16.4989 28.5373 16.4776 28.4085C16.4564 28.2798 16.4735 28.1476 16.5266 28.0284C16.5853 27.911 16.6765 27.813 16.7897 27.7464C16.9028 27.6798 17.0328 27.6474 17.164 27.6531H20.7258V25.7175C20.7279 25.4975 20.8176 25.2874 20.9744 25.1332C21.1313 24.9791 21.3428 24.8934 21.5628 24.8951H23.5308V23.0336C23.5323 22.8149 23.6203 22.6056 23.7756 22.4515C23.9308 22.2974 24.1408 22.211 24.3596 22.2112H26.3281V20.3497C26.3302 20.1298 26.4194 19.9197 26.5763 19.7655C26.7332 19.6113 26.9447 19.5257 27.1646 19.5274H29.356C29.5748 19.5272 29.7848 19.6135 29.9401 19.7676C30.0953 19.9217 30.1833 20.131 30.1848 20.3497V27.6507H33.8346C33.9659 27.6452 34.0961 27.6778 34.2093 27.7447C34.3224 27.8116 34.4135 27.9099 34.4719 28.0276C34.5256 28.1473 34.5425 28.2802 34.5198 28.4094C34.497 28.5385 34.436 28.6579 34.3447 28.752L26.0572 38.4978C25.9844 38.5858 25.8928 38.6568 25.7895 38.7057C25.6863 38.7545 25.5738 38.7801 25.4596 38.7806ZM18.0087 28.7153L25.4596 37.5606L32.9898 28.7153H29.9619C29.7419 28.717 29.53 28.6314 29.3731 28.4772C29.2163 28.323 29.127 28.1129 29.1249 27.893V20.5896H27.388V22.4511C27.3859 22.671 27.2966 22.8812 27.1397 23.0353C26.9828 23.1895 26.771 23.2752 26.551 23.2735H24.5907V25.135C24.5886 25.3549 24.4994 25.565 24.3425 25.7192C24.1856 25.8734 23.9741 25.9591 23.7542 25.9574H21.7939V27.8898C21.7918 28.1097 21.7025 28.3198 21.5456 28.474C21.3888 28.6282 21.1769 28.7139 20.9569 28.7122H18.0087V28.7153Z" fill="#1B1B1B"/>
<path fill-rule="evenodd" clip-rule="evenodd" d="M23.197 23.0313H21.5635C21.3436 23.033 21.1321 22.9473 20.9752 22.7931C20.8183 22.6389 20.7287 22.4287 20.7266 22.2087V20.6399C20.7287 20.4198 20.818 20.2095 20.9748 20.0551C21.1317 19.9008 21.3435 19.8149 21.5635 19.8164H23.197C23.417 19.8149 23.6288 19.9008 23.7857 20.0551C23.9425 20.2095 24.0318 20.4198 24.0339 20.6399V22.2047C24.0334 22.314 24.0113 22.4221 23.9689 22.5228C23.9266 22.6235 23.8646 22.7149 23.7868 22.7917C23.7091 22.8685 23.6172 22.9292 23.516 22.9703C23.4148 23.0114 23.3062 23.0322 23.197 23.0313ZM21.7946 21.9687H22.9658V20.8838H21.7946V21.9687Z" fill="#1B1B1B"/>
<path fill-rule="evenodd" clip-rule="evenodd" d="M25.9939 20.257H24.36C24.1412 20.257 23.9313 20.1704 23.776 20.0162C23.6207 19.8619 23.5327 19.6525 23.5312 19.4336V17.8696C23.5327 17.6507 23.6207 17.4414 23.776 17.2872C23.9313 17.1331 24.1413 17.0467 24.36 17.0469H25.9939C26.2138 17.0452 26.4253 17.1309 26.5822 17.2851C26.739 17.4393 26.8283 17.6495 26.8304 17.8696V19.4336C26.8285 19.6537 26.7395 19.8641 26.5826 20.0185C26.4257 20.1729 26.2139 20.2587 25.9939 20.257ZM24.5912 19.1936H25.7705V18.1095H24.5912V19.1936Z" fill="#1B1B1B"/>
<path fill-rule="evenodd" clip-rule="evenodd" d="M28.7903 18.1133H27.1647C26.9447 18.115 26.7332 18.0293 26.5764 17.8751C26.4195 17.7208 26.3302 17.5106 26.3281 17.2906V15.7258C26.33 15.5057 26.4191 15.2953 26.576 15.1408C26.7329 14.9864 26.9446 14.9007 27.1647 14.9024H28.7903C29.0104 14.9007 29.2222 14.9864 29.3791 15.1408C29.5359 15.2953 29.6254 15.5057 29.6273 15.7258V17.2938C29.6244 17.5133 29.5347 17.7226 29.3779 17.8762C29.2211 18.0297 29.0097 18.115 28.7903 18.1133ZM27.388 17.0507H28.5674V15.9657H27.388V17.0546V17.0507Z" fill="#1B1B1B"/>
<path fill-rule="evenodd" clip-rule="evenodd" d="M25.9939 15.4297H24.36C24.1413 15.4299 23.9313 15.3435 23.776 15.1893C23.6207 15.0352 23.5327 14.8259 23.5312 14.607V13.0422C23.5327 12.8233 23.6207 12.6139 23.776 12.4596C23.9313 12.3053 24.1412 12.2188 24.36 12.2188H25.9939C26.2139 12.2173 26.4253 12.3031 26.5822 12.4575C26.739 12.6119 26.8283 12.8221 26.8304 13.0422V14.607C26.8283 14.827 26.739 15.0372 26.5822 15.1915C26.4253 15.3457 26.2138 15.4314 25.9939 15.4297ZM24.5912 14.3671H25.7705V13.2822H24.5912V14.3671Z" fill="#1B1B1B"/>
</g>
<defs>
<clipPath id="clip0_3924_2430">
<rect width="51" height="51" fill="white"/>
</clipPath>
</defs>
</svg>
