<svg width="51" height="50" viewBox="0 0 51 50" fill="none" xmlns="http://www.w3.org/2000/svg">
<g clip-path="url(#clip0_3924_2405)">
<path fill-rule="evenodd" clip-rule="evenodd" d="M41.9677 18.4391H41.5765L34.1443 14.2259H29.8927L22.4604 10.014H18.2088L10.7765 5.80078H5.85156V44.7684H10.7765L18.2088 40.5552H22.4604L29.8927 36.3427H34.1443L41.5765 32.1301H46.2193V18.4391H41.9677ZM40.9096 23.705V29.0854L39.2295 25.2836L40.9096 21.4838V23.705ZM11.1613 35.2892V11.1982L14.2714 25.2836L11.1613 39.3703V35.2892ZM29.2193 32.1295L27.2057 25.283L29.2193 18.4384V32.1295ZM30.2838 22.6503V19.4906H33.4709V22.6503H30.2838ZM33.4709 23.7044V26.8641H30.2838V23.7044H33.4709ZM30.2838 27.9163H33.4709V31.076H30.2838V27.9163ZM34.5354 31.076V17.2706L38.0688 25.2836L34.5354 33.2986V31.076ZM35.1319 15.9991L40.7621 19.1879L38.6524 23.9705L35.1319 15.9991ZM33.4709 18.4391H30.2838V15.2793H33.4709V18.4391ZM26.6542 23.4042L23.1978 11.6437L29.1231 15.0044L26.6542 23.4042ZM18.6 26.8641V23.7044H21.787V26.8641H18.6ZM21.787 27.9169V31.0767H18.6V27.9169H21.787ZM18.6 22.6509V19.4912H21.787V22.6509H18.6ZM18.6 18.4391V15.2793H21.787V18.4391H18.6ZM17.5354 18.4391V35.1571L15.3615 25.2836L17.5354 15.4114V18.4391ZM18.6 32.1301H21.787V35.2898H18.6V32.1301ZM22.8516 35.2898V14.2271L26.1028 25.2862L22.8516 36.3452V35.2917V35.2898ZM21.787 14.2259H18.6V11.0661H21.787V14.2259ZM14.8165 22.8203L11.405 7.37306L17.4649 10.8058L14.8165 22.8203ZM14.8165 27.7495L17.4649 39.7634L11.405 43.1955L14.8165 27.7495ZM18.6 36.3439H21.787V39.5036H18.6V36.3439ZM26.6542 27.1668L29.1231 35.5654L23.1978 38.9267L26.6542 27.1668ZM30.2838 32.1314H33.4709V35.2911H30.2838V32.1314ZM38.6524 26.6L40.7621 31.3825L35.1319 34.57L38.6524 26.6ZM6.91609 6.85486H10.1032V10.0146H6.91609V6.85486ZM6.91609 11.0674H10.1032V14.2271H6.91609V11.0674ZM6.91609 15.2806H10.1032V18.4403H6.91609V15.2806ZM6.91609 19.4925H10.1032V22.6522H6.91609V19.4925ZM6.91609 23.7063H10.1032V26.866H6.91609V23.7063ZM6.91609 27.9182H10.1032V31.0779H6.91609V27.9182ZM6.91609 32.1314H10.1032V35.2911H6.91609V32.1314ZM6.91609 36.3439H10.1032V39.5036H6.91609V36.3439ZM6.91609 40.5565H10.1032V43.7162H6.91609V40.5565ZM45.1548 31.0773H41.9677V27.9176H45.1548V31.0773ZM45.1548 26.8654H41.9677V23.7057H45.1548V26.8654ZM41.9677 22.6522V19.4925H45.1548V22.6522H41.9677Z" fill="#1B1B1B"/>
</g>
<defs>
<clipPath id="clip0_3924_2405">
<rect width="51" height="50" fill="white"/>
</clipPath>
</defs>
</svg>
