<svg width="51" height="50" viewBox="0 0 51 50" fill="none" xmlns="http://www.w3.org/2000/svg">
<g clip-path="url(#clip0_3924_2399)">
<path fill-rule="evenodd" clip-rule="evenodd" d="M13.2821 21.3604V20.1232L41.9944 12.5793L40.8958 8.55469L13.2821 15.8082V15.7919L12.6074 15.9865L7.96875 17.2054V42.1956H43.0353V21.3604H13.2821ZM34.696 24.4854L35.2613 22.4022H38.4159L37.844 24.4854H34.696ZM17.696 24.4854L18.2613 22.4022H21.4158L20.8441 24.4848H17.696V24.4854ZM22.5146 22.4022H25.6627L25.0973 24.4854H21.9427L22.5146 22.4022ZM26.7613 22.4022H29.9159L29.344 24.4854H26.196L26.7613 22.4022ZM31.0146 22.4022H34.1626L33.5973 24.4854H30.4427L31.0146 22.4022ZM17.1627 22.4022L16.5972 24.4854H13.2821V22.4022H17.1627ZM32.6015 13.9695L29.5625 14.7689V12.612L32.6015 11.8126V13.9695ZM33.6679 11.533L36.7068 10.7336V12.8904L33.6679 13.6904V11.533ZM28.4959 15.0479L25.457 15.8467V13.6904L28.4959 12.8904V15.0479ZM24.3906 16.127L21.3516 16.9257V14.7689L24.3906 13.9695V16.127ZM20.285 17.2054L17.2461 18.0041V15.8467L20.285 15.0479V17.2054ZM40.6902 11.8435L37.767 12.612V10.4552L40.1442 9.83154L40.6902 11.8435ZM16.1797 16.127V18.2838L13.2821 19.046V16.8879L16.1797 16.127ZM9.03537 20.8401V18.1056L12.222 17.1846V24.4848H9.03537V20.8388V20.8401ZM41.9687 41.1537H9.03537V25.5279H41.9687V41.1531V41.1537ZM38.9427 24.486L39.5145 22.4029H41.9687V24.4848H38.9427V24.486ZM11.6887 28.6542H39.3153V29.6955H11.6887V28.6542ZM11.6887 32.8205H39.3153V33.8624H11.6887V32.8205ZM11.6887 36.9868H39.3153V38.0281H11.6887V36.9862V36.9868Z" fill="#1B1B1B"/>
</g>
<defs>
<clipPath id="clip0_3924_2399">
<rect width="51" height="50" fill="white"/>
</clipPath>
</defs>
</svg>
