<svg width="110" height="111" viewBox="0 0 110 111" fill="none" xmlns="http://www.w3.org/2000/svg">
<g clip-path="url(#clip0_3924_4389)">
<path fill-rule="evenodd" clip-rule="evenodd" d="M90.5069 41.4828H89.6633L73.6329 32.2151H64.4627L48.4324 22.9503H39.2622L23.2317 13.6826H12.6094V99.3988H23.2317L39.2622 90.1312H48.4324L64.4627 80.865H73.6329L89.6633 71.5987H99.6771V41.4828H90.5069ZM88.2248 53.0662V64.9013L84.601 56.5387L88.2248 48.1801V53.0662ZM24.0617 78.5477V25.5553L30.7698 56.5387L24.0617 87.5248V78.5477V78.5477ZM63.0104 71.5973L58.6674 56.5373L63.0104 41.4814V71.5973ZM65.3064 50.7462V43.7958H72.1805V50.7462H65.3064ZM72.1805 53.0648V60.0152H65.3064V53.0648H72.1805ZM65.3064 62.3297H72.1805V69.2801H65.3064V62.3297ZM74.4766 69.2801V38.9125L82.0976 56.5387L74.4766 74.169V69.2801V69.2801ZM75.7629 36.1157L87.9067 43.13L83.3563 53.6501L75.7629 36.1157ZM72.1805 41.4828H65.3064V34.5324H72.1805V41.4828ZM57.4779 52.4046L50.0228 26.5353L62.8029 33.9277L57.4779 52.4046ZM40.1059 60.0152V53.0648H46.98V60.0152H40.1059V60.0152ZM46.98 62.3311V69.2815H40.1059V62.3311H46.98V62.3311ZM40.1059 50.7476V43.7972H46.98V50.7476H40.1059V50.7476ZM40.1059 41.4828V34.5324H46.98V41.4828H40.1059V41.4828ZM37.8099 41.4828V78.2572L33.1211 56.5387L37.8099 34.8229V41.4828V41.4828ZM40.1059 71.5987H46.98V78.5491H40.1059V71.5987V71.5987ZM49.2761 78.5491V32.2179L56.2884 56.5442L49.2761 80.8705V78.5533V78.5491ZM46.98 32.2151H40.1059V25.2647H46.98V32.2151ZM31.9454 51.1201L24.5873 17.1411L37.6578 24.692L31.9454 51.1201ZM31.9454 61.9627L37.6578 88.3895L24.5873 95.939L31.9454 61.9627ZM40.1059 80.8677H46.98V87.8181H40.1059V80.8677V80.8677ZM57.4779 60.6811L62.8029 79.1552L50.0228 86.549L57.4779 60.6811ZM65.3064 71.6015H72.1805V78.5519H65.3064V71.6015ZM83.3563 59.4342L87.9067 69.9543L75.7629 76.9658L83.3563 59.4342ZM14.9054 16.0013H21.7795V22.9516H14.9054V16.0013ZM14.9054 25.2675H21.7795V32.2179H14.9054V25.2675ZM14.9054 34.5351H21.7795V41.4855H14.9054V34.5351ZM14.9054 43.8H21.7795V50.7504H14.9054V43.8ZM14.9054 53.069H21.7795V60.0194H14.9054V53.069ZM14.9054 62.3339H21.7795V69.2843H14.9054V62.3339ZM14.9054 71.6015H21.7795V78.5519H14.9054V71.6015ZM14.9054 80.8677H21.7795V87.8181H14.9054V80.8677ZM14.9054 90.134H21.7795V97.0844H14.9054V90.134ZM97.381 69.2829H90.5069V62.3325H97.381V69.2829ZM97.381 60.018H90.5069V53.0676H97.381V60.018ZM90.5069 50.7504V43.8H97.381V50.7504H90.5069Z" fill="white"/>
</g>
<defs>
<clipPath id="clip0_3924_4389">
<rect width="110" height="109.984" fill="white" transform="translate(0 0.922852)"/>
</clipPath>
</defs>
</svg>
