<svg width="51" height="51" viewBox="0 0 51 51" fill="none" xmlns="http://www.w3.org/2000/svg">
<g clip-path="url(#clip0_3924_2447)">
<path fill-rule="evenodd" clip-rule="evenodd" d="M31.7915 7.96484H7.96875V43.0295H43.0336V7.96484H31.7896H31.7915ZM40.9082 19.7758V31.2173L41.9709 31.5032V41.9668H31.5068L31.2215 40.904H19.7802L19.4949 41.9668H9.03147V31.5019L10.0942 31.2173V19.7751L9.03147 19.4911V9.02758H19.4956L19.7809 10.0897H31.2222L31.5075 9.02758H41.9722V19.4924L40.9082 19.7758ZM13.2798 13.2766H15.4053V15.4021H13.2798V13.2766ZM18.5922 15.4021H16.4674V13.2766H18.5922V15.4021ZM19.6556 13.2766H21.7804V15.4021H19.6575V13.2766H19.6556ZM24.9679 15.4021H22.8444V13.2766H24.9698V15.4021H24.9679ZM28.1555 15.4021H26.0306V13.2766H28.158V15.4021H28.1555ZM31.343 15.4021H29.2182V13.2766H31.343V15.4021ZM32.4057 13.2766H34.5312V15.4021H32.4057V13.2766ZM35.5933 13.2766H37.7187V15.4021H35.5933V13.2766ZM13.2798 16.4655H15.4053V18.5903H13.2798V16.4655ZM18.5922 18.5903H16.4674V16.4655H18.5922V18.5903ZM19.6556 16.4655H21.7804V18.5903H19.6575V16.4655H19.6556ZM24.9679 18.5903H22.8444V16.4655H24.9698V18.5903H24.9679ZM28.1555 18.5903H26.0306V16.4655H28.158V18.5903H28.1555ZM31.343 18.5903H29.2182V16.4655H31.343V18.5903ZM32.4057 16.4655H34.5312V18.5903H32.4057V16.4655ZM35.5933 16.4655H37.7187V18.5903H35.5933V16.4655ZM13.2798 19.6531H15.4053V21.7779H13.2798V19.6531ZM35.5933 19.6531H37.7187V21.7779H35.5933V19.6531ZM13.2798 22.8406H15.4053V24.9655H13.2798V22.8406ZM35.5933 22.8406H37.7187V24.9655H35.5933V22.8406ZM13.2817 26.0282H15.4072V28.1531H13.2817V26.0282ZM35.5952 26.0282H37.7206V28.1531H35.5952V26.0282ZM13.2817 29.2158H15.4072V31.3413H13.2817V29.2158ZM35.5952 29.2158H37.7206V31.3413H35.5952V29.2158ZM13.2817 32.4034H15.4072V34.5282H13.2817V32.4034ZM16.4693 32.4034H18.5941V34.5282H16.4693V32.4034ZM19.6575 32.4034H21.7823V34.5282H19.6575V32.4034ZM22.8444 32.4034H24.9698V34.5282H22.8444V32.4034ZM26.0326 32.4034H28.158V34.5282H26.0332V32.4034H26.0326ZM29.2201 32.4034H31.3449V34.5282H29.2201V32.4034ZM32.4076 32.4034H34.5331V34.5282H32.4076V32.4034ZM35.5952 32.4034H37.7206V34.5282H35.5952V32.4034ZM13.2817 35.591H15.4072V37.7164H13.2817V35.591ZM16.4693 35.591H18.5941V37.7164H16.4693V35.591ZM19.6575 35.591H21.7823V37.7164H19.6575V35.591ZM22.8444 35.591H24.9698V37.7164H22.8444V35.591ZM26.0326 35.591H28.158V37.7164H26.0332V35.591H26.0326ZM29.2201 35.591H31.3449V37.7164H29.2201V35.591ZM32.4076 35.591H34.5331V37.7164H32.4076V35.591ZM35.5952 35.591H37.7206V37.7164H35.5952V35.591ZM21.0742 28.3619C20.5605 28.8814 19.8629 29.1779 19.1323 29.1874C18.4018 29.1969 17.6968 28.9186 17.1696 28.4126C16.4558 27.6994 16.4629 26.8937 16.4629 25.4969C16.4629 24.1 16.4526 23.2949 17.1696 22.5811C17.4179 22.329 17.715 22.1302 18.0429 21.9971C18.3707 21.8639 18.7222 21.7992 19.076 21.8068C19.719 21.7801 20.3484 21.9974 20.838 22.4151C21.3277 22.8329 21.6413 23.4203 21.7161 24.0595H20.6084C20.5547 23.6971 20.3688 23.3674 20.0864 23.1341C19.804 22.9007 19.4452 22.7801 19.0792 22.7957C18.8795 22.7934 18.6814 22.8321 18.4973 22.9094C18.3132 22.9868 18.1469 23.1012 18.0088 23.2454C17.6522 23.631 17.5699 24.0415 17.5699 25.4988C17.5699 26.956 17.6522 27.375 18.0088 27.7624C18.1477 27.9048 18.3144 28.0172 18.4985 28.0926C18.6826 28.168 18.8803 28.2047 19.0792 28.2006C19.3014 28.2062 19.5223 28.1635 19.7264 28.0754C19.9305 27.9873 20.1131 27.856 20.2615 27.6904C20.5237 27.3702 20.6547 26.9624 20.6283 26.5493V26.1413H19.0792V25.2039H21.7328V26.3141C21.7683 26.6821 21.7286 27.0534 21.6159 27.4055C21.5032 27.7575 21.32 28.083 21.0775 28.3619H21.0742ZM25.8931 21.8679H23.1464V29.1284H24.247V26.2724H25.8989C26.1976 26.2875 26.4963 26.2417 26.7767 26.1378C27.0572 26.0339 27.3136 25.874 27.5303 25.6679C27.747 25.4617 27.9195 25.2137 28.0373 24.9388C28.1551 24.6639 28.2158 24.3679 28.2157 24.0688C28.2155 23.7697 28.1545 23.4738 28.0363 23.199C27.9182 22.9242 27.7453 22.6764 27.5284 22.4705C27.3114 22.2646 27.0549 22.105 26.7743 22.0014C26.4937 21.8978 26.195 21.8524 25.8964 21.8679H25.8931ZM25.8289 25.2732H24.2386V22.8573H25.8289C25.9941 22.8462 26.1599 22.869 26.3159 22.9245C26.4719 22.9799 26.6149 23.0668 26.7361 23.1797C26.8572 23.2927 26.9538 23.4293 27.0201 23.5811C27.0863 23.7329 27.1207 23.8966 27.121 24.0622C27.1214 24.2278 27.0879 24.3917 27.0224 24.5438C26.9569 24.6959 26.8609 24.833 26.7403 24.9465C26.6197 25.06 26.4771 25.1476 26.3213 25.2038C26.1656 25.26 26 25.2836 25.8347 25.2732H25.8289ZM33.426 21.8679H34.5273V26.6797C34.5014 27.3532 34.2156 27.9905 33.73 28.4579C33.2443 28.9252 32.5965 29.1863 31.9225 29.1863C31.2485 29.1863 30.6007 28.9252 30.1151 28.4579C29.6294 27.9905 29.3437 27.3532 29.3177 26.6797V21.8679H30.4184V26.629C30.409 26.8323 30.4409 27.0354 30.5123 27.2261C30.5836 27.4167 30.6929 27.5909 30.8334 27.7382C30.974 27.8854 31.143 28.0026 31.3301 28.0826C31.5172 28.1627 31.7187 28.204 31.9222 28.204C32.1258 28.204 32.3272 28.1627 32.5143 28.0826C32.7015 28.0026 32.8705 27.8854 33.011 27.7382C33.1516 27.5909 33.2608 27.4167 33.3322 27.2261C33.4035 27.0354 33.4354 26.8323 33.426 26.629V21.8679Z" fill="#1B1B1B"/>
</g>
<defs>
<clipPath id="clip0_3924_2447">
<rect width="51" height="51" fill="white"/>
</clipPath>
</defs>
</svg>
