<svg width="110" height="111" viewBox="0 0 110 111" fill="none" xmlns="http://www.w3.org/2000/svg">
<g clip-path="url(#clip0_3924_4418)">
<path fill-rule="evenodd" clip-rule="evenodd" d="M55.015 50.2096C50.2647 50.2167 45.6233 51.6338 41.6771 54.2818C37.7308 56.9298 34.657 60.6898 32.844 65.0867C31.031 69.4836 30.5603 74.3199 31.4913 78.9846C32.4222 83.6494 34.7132 87.933 38.0746 91.2943C41.4359 94.6555 45.7168 96.9435 50.3762 97.8691C55.0357 98.7947 59.8645 98.3164 64.2526 96.4945C68.6406 94.6726 72.3908 91.589 75.0294 87.6334C77.6679 83.6778 79.0763 79.0276 79.0766 74.2707C79.062 67.8878 76.5212 61.771 72.0109 57.2609C67.5007 52.7508 61.3888 50.2151 55.015 50.2096ZM55.015 52.5014C59.9756 52.4981 64.787 54.2008 68.644 57.3247C69.2078 58.4123 69.6755 59.5473 70.0415 60.7167L73.6113 63.0182C74.1694 63.9121 74.6595 64.8468 75.0779 65.8143L70.5535 62.9045C70.7464 63.8887 70.8757 64.8842 70.9408 65.885L76.171 69.2589C76.3402 69.9542 76.4742 70.6576 76.5723 71.3665L71.0377 67.7971C71.0179 68.6668 70.9485 69.5347 70.8301 70.3965L76.7799 74.2305V74.2762C76.7799 74.8679 76.7383 75.4498 76.6968 76.0332L70.5673 72.0828C70.403 72.8693 70.195 73.6459 69.9446 74.4093L76.3509 78.5397C76.254 79.0829 76.1018 79.6122 75.9634 80.1401L69.4049 75.9113C69.1179 76.6284 68.7947 77.3304 68.4364 78.0146L75.2025 82.3793C75.0088 82.8698 74.7873 83.3492 74.5521 83.8148L67.6477 79.3669C67.2464 80.0182 66.8176 80.6486 66.361 81.2583L73.4314 85.8211C73.1547 86.2631 72.8641 86.6913 72.5597 87.1097L65.3648 82.4762C64.8522 83.0642 64.307 83.6231 63.732 84.1501L71.0929 88.8972C70.7332 89.2893 70.3735 89.6703 69.9861 90.0361L62.5282 85.2239C61.886 85.7386 61.2163 86.2178 60.522 86.6594L68.1596 91.5866C67.7168 91.9247 67.2603 92.2517 66.7898 92.5566L59.0414 87.5684C58.2378 87.9918 57.4109 88.3693 56.5646 88.699L64.5206 93.8258C63.9618 94.1046 63.3891 94.3548 62.8049 94.5754L54.7106 89.3489C53.6723 89.6554 52.6135 89.8869 51.5422 90.0417L59.9547 95.4636C59.2102 95.6369 58.4575 95.7724 57.6993 95.8695L49.0238 90.2786C48.7333 90.2897 48.4427 90.323 48.1383 90.323C46.8672 90.3148 45.599 90.1999 44.3471 89.9793L53.6452 95.9832C52.3815 95.9082 51.1269 95.7227 49.8955 95.4289L38.9785 88.3803C38.6741 88.2418 38.3835 88.1032 38.0791 87.9536C35.4872 84.7584 33.8544 80.892 33.3705 76.8041C32.8865 72.7161 33.5713 68.5746 35.3453 64.8611C37.1193 61.1475 39.9096 58.0147 43.3916 55.8267C46.8736 53.6387 50.9042 52.4856 55.015 52.5014ZM97.8805 21.5663L87.1018 10.7808L78.6062 19.2759L80.5849 21.2518L75.9911 23.5436L85.1232 32.6664L87.4062 28.0828L89.3849 30.0587L97.8805 21.5663ZM87.1018 14.0203L94.6427 21.5663L89.3849 26.8192L81.8439 19.2759L87.1018 14.0203ZM84.4867 28.7978L79.8654 24.1713L82.2868 22.9602L85.7043 26.3758L84.4867 28.7978ZM72.1999 29.5876H79.0766V36.4616H76.7799V33.5006L61.9609 48.3266L32.766 24.0092L34.2327 22.2481L61.8087 45.2284L75.161 31.8822H72.1999V29.5918V29.5876ZM72.1999 41.0424H79.0766V47.9178H76.7799V44.954L71.0516 50.6835L69.4326 49.0637L75.161 43.3342H72.1999V41.0424ZM20.6313 11.2519C18.8107 11.2408 17.041 11.8528 15.6151 12.9865C14.1892 14.1202 13.1929 15.7077 12.7909 17.4859C12.3889 19.2641 12.6055 21.1265 13.4049 22.7646C14.2042 24.4028 15.5382 25.7184 17.1861 26.4935V31.8808H19.483V33.0267H21.7799V31.8808H24.0628V26.4935C25.7118 25.7209 27.0478 24.407 27.849 22.7698C28.6503 21.1326 28.8687 19.2704 28.4682 17.4919C28.0678 15.7133 27.0722 14.1252 25.6469 12.9908C24.2216 11.8564 22.452 11.2438 20.6313 11.2546V11.2519ZM21.7799 27.2903V29.5848H19.483V27.2931H21.7799V27.2903ZM22.6791 24.6036L24.4641 21.0509L22.4025 20.0255L20.6313 23.5866L18.8466 20.0255L16.7986 21.0509L18.5836 24.6036C17.3337 24.1235 16.2914 23.2203 15.6372 22.0507C14.9831 20.8812 14.7586 19.5191 15.0028 18.2011C15.2471 16.8831 15.9445 15.6923 16.9741 14.8356C18.0037 13.9789 19.3003 13.5103 20.6389 13.5112C21.9776 13.5121 23.2735 13.9825 24.3019 14.8406C25.3303 15.6987 26.0262 16.8904 26.2686 18.2087C26.5111 19.5271 26.2847 20.8888 25.629 22.0575C24.9733 23.2262 23.9296 24.128 22.6791 24.6063V24.6036Z" fill="white"/>
</g>
<defs>
<clipPath id="clip0_3924_4418">
<rect width="110" height="109.984" fill="white" transform="translate(0 0.956055)"/>
</clipPath>
</defs>
</svg>
