<svg width="110" height="111" viewBox="0 0 110 111" fill="none" xmlns="http://www.w3.org/2000/svg">
<g clip-path="url(#clip0_3924_4424)">
<path fill-rule="evenodd" clip-rule="evenodd" d="M68.5777 18.1353H17.1953V93.7539H92.8255V18.1353H68.5735H68.5777ZM88.2411 43.6061V68.2803L90.5332 68.8969V91.4621H67.9637L67.3484 89.1702H42.671L42.0557 91.4621H19.4875V68.8941L21.7796 68.2803V43.6047L19.4875 42.9923V20.4271H42.057L42.6724 22.7176H67.3497L67.9651 20.4271H90.536V42.9951L88.2411 43.6061ZM28.6505 29.5904H33.2349V34.1741H28.6505V29.5904ZM40.1086 34.1741H35.5256V29.5904H40.1086V34.1741ZM42.4022 29.5904H46.9851V34.1741H42.4063V29.5904H42.4022ZM53.8602 34.1741H49.28V29.5904H53.8643V34.1741H53.8602ZM60.7353 34.1741H56.1523V29.5904H60.7408V34.1741H60.7353ZM67.6103 34.1741H63.0274V29.5904H67.6103V34.1741ZM69.9025 29.5904H74.4868V34.1741H69.9025V29.5904ZM76.7776 29.5904H81.3619V34.1741H76.7776V29.5904ZM28.6505 36.4673H33.2349V41.0496H28.6505V36.4673ZM40.1086 41.0496H35.5256V36.4673H40.1086V41.0496ZM42.4022 36.4673H46.9851V41.0496H42.4063V36.4673H42.4022ZM53.8602 41.0496H49.28V36.4673H53.8643V41.0496H53.8602ZM60.7353 41.0496H56.1523V36.4673H60.7408V41.0496H60.7353ZM67.6103 41.0496H63.0274V36.4673H67.6103V41.0496ZM69.9025 36.4673H74.4868V41.0496H69.9025V36.4673ZM76.7776 36.4673H81.3619V41.0496H76.7776V36.4673ZM28.6505 43.3415H33.2349V47.9238H28.6505V43.3415ZM76.7776 43.3415H81.3619V47.9238H76.7776V43.3415ZM28.6505 50.2156H33.2349V54.798H28.6505V50.2156ZM76.7776 50.2156H81.3619V54.798H76.7776V50.2156ZM28.6547 57.0898H33.2391V61.6721H28.6547V57.0898ZM76.7817 57.0898H81.366V61.6721H76.7817V57.0898ZM28.6547 63.964H33.2391V68.5477H28.6547V63.964ZM76.7817 63.964H81.366V68.5477H76.7817V63.964ZM28.6547 70.8382H33.2391V75.4205H28.6547V70.8382ZM35.5298 70.8382H40.1127V75.4205H35.5298V70.8382ZM42.4063 70.8382H46.9892V75.4205H42.4063V70.8382ZM49.28 70.8382H53.8643V75.4205H49.28V70.8382ZM56.1565 70.8382H60.7408V75.4205H56.1578V70.8382H56.1565ZM63.0316 70.8382H67.6145V75.4205H63.0316V70.8382ZM69.9066 70.8382H74.4909V75.4205H69.9066V70.8382ZM76.7817 70.8382H81.366V75.4205H76.7817V70.8382ZM28.6547 77.7123H33.2391V82.296H28.6547V77.7123ZM35.5298 77.7123H40.1127V82.296H35.5298V77.7123ZM42.4063 77.7123H46.9892V82.296H42.4063V77.7123ZM49.28 77.7123H53.8643V82.296H49.28V77.7123ZM56.1565 77.7123H60.7408V82.296H56.1578V77.7123H56.1565ZM63.0316 77.7123H67.6145V82.296H63.0316V77.7123ZM69.9066 77.7123H74.4909V82.296H69.9066V77.7123ZM76.7817 77.7123H81.366V82.296H76.7817V77.7123ZM45.4621 62.1225C44.3539 63.2428 42.8494 63.8822 41.2736 63.9027C39.6979 63.9232 38.1773 63.323 37.0404 62.2319C35.5007 60.6939 35.516 58.9563 35.516 55.9439C35.516 52.9315 35.4938 51.1953 37.0404 49.6559C37.5758 49.1122 38.2167 48.6836 38.9238 48.3965C39.6309 48.1094 40.3891 47.9697 41.1521 47.9862C42.5391 47.9285 43.8966 48.3971 44.9526 49.298C46.0086 50.1989 46.6851 51.4656 46.8465 52.8442H44.4573C44.3416 52.0627 43.9405 51.3517 43.3314 50.8484C42.7223 50.3451 41.9485 50.0851 41.159 50.1187C40.7283 50.1137 40.3011 50.1972 39.904 50.364C39.5068 50.5308 39.1482 50.7775 38.8503 51.0886C38.0812 51.92 37.9037 52.8054 37.9037 55.9481C37.9037 59.0907 38.0812 59.9941 38.8503 60.8297C39.1499 61.1368 39.5094 61.3792 39.9066 61.5417C40.3037 61.7043 40.73 61.7835 41.159 61.7747C41.6384 61.7868 42.1147 61.6947 42.5549 61.5047C42.9952 61.3148 43.3889 61.0315 43.709 60.6745C44.2745 59.9838 44.5572 59.1044 44.5003 58.2136V57.3337H41.159V55.312H46.8825V57.7064C46.9591 58.4999 46.8734 59.3007 46.6303 60.0599C46.3873 60.8192 45.9922 61.5209 45.469 62.1225H45.4621ZM55.8558 48.1178H49.9313V63.7755H52.3053V57.6164H55.8682C56.5125 57.649 57.1566 57.5502 57.7615 57.3261C58.3664 57.102 58.9194 56.7572 59.3868 56.3127C59.8542 55.8681 60.2263 55.3332 60.4804 54.7403C60.7345 54.1475 60.8655 53.5091 60.8651 52.8641C60.8647 52.2191 60.7331 51.581 60.4783 50.9884C60.2235 50.3959 59.8507 49.8613 59.3828 49.4174C58.9148 48.9734 58.3614 48.6292 57.7563 48.4058C57.1511 48.1824 56.5069 48.0844 55.8627 48.1178H55.8558ZM55.7171 55.4617H52.2873V50.2517H55.7171C56.0735 50.2276 56.431 50.2768 56.7676 50.3964C57.1041 50.516 57.4126 50.7034 57.6738 50.9469C57.9351 51.1905 58.1436 51.4851 58.2864 51.8124C58.4292 52.1397 58.5033 52.4929 58.5042 52.85C58.505 53.2072 58.4326 53.5607 58.2914 53.8887C58.1501 54.2167 57.943 54.5123 57.683 54.7571C57.4229 55.0019 57.1153 55.1907 56.7793 55.3119C56.4434 55.4331 56.0861 55.4841 55.7297 55.4617H55.7171ZM72.1032 48.1178H74.4785V58.4949C74.4226 59.9473 73.8062 61.3216 72.7587 62.3294C71.7112 63.3373 70.314 63.9003 68.8603 63.9003C67.4066 63.9003 66.0094 63.3373 64.9619 62.3294C63.9144 61.3216 63.2981 59.9473 63.2422 58.4949V48.1178H65.6161V58.3854C65.5958 58.8239 65.6647 59.2619 65.8186 59.6731C65.9725 60.0842 66.2081 60.4599 66.5113 60.7774C66.8144 61.0948 67.1789 61.3475 67.5825 61.5202C67.9862 61.6929 68.4206 61.7819 68.8597 61.7819C69.2987 61.7819 69.7332 61.6929 70.1368 61.5202C70.5404 61.3475 70.9049 61.0948 71.208 60.7774C71.5112 60.4599 71.7469 60.0842 71.9007 59.6731C72.0546 59.2619 72.1235 58.8239 72.1032 58.3854V48.1178Z" fill="white"/>
</g>
<defs>
<clipPath id="clip0_3924_4424">
<rect width="110" height="109.984" fill="white" transform="translate(0 0.956055)"/>
</clipPath>
</defs>
</svg>
