<svg width="110" height="111" viewBox="0 0 110 111" fill="none" xmlns="http://www.w3.org/2000/svg">
<g clip-path="url(#clip0_3924_4406)">
<path fill-rule="evenodd" clip-rule="evenodd" d="M96.7364 25.6334L88.5742 23.9998L90.847 21.7288L89.2255 20.1076L87.0085 22.3246L85.4008 14.2881L73.844 25.8385C66.4447 21.2029 57.5983 19.4515 48.9907 20.9183C40.3831 22.3851 32.616 26.9674 27.17 33.792C21.724 40.6165 18.9798 49.2062 19.4601 57.9238C19.9405 66.6414 23.6121 74.8776 29.775 81.0625C35.938 87.2475 44.1613 90.9488 52.8779 91.4611C61.5946 91.9734 70.1949 89.2608 77.0401 83.8404C83.8852 78.42 88.4964 70.6706 89.9948 62.0693C91.4933 53.4679 89.7743 44.616 85.1654 37.2005L96.7364 25.6334ZM85.3454 25.6902L92.0941 27.0412L82.6987 36.437L75.9503 35.086L74.6197 28.4531L74.8972 28.025L83.9874 18.9396L85.3454 25.6902ZM88.2417 55.9381C88.2512 63.292 85.8236 70.4419 81.3384 76.27C76.8531 82.0981 70.563 86.276 63.4513 88.1506C56.3396 90.0252 48.8073 89.4908 42.0315 86.6309C35.2558 83.7711 29.6185 78.747 26.0011 72.3441C22.3838 65.9411 20.9899 58.5202 22.0378 51.2412C23.0856 43.9623 26.5162 37.2357 31.7928 32.1128C37.0693 26.9899 43.8946 23.7596 51.2019 22.9267C58.5092 22.0939 65.8866 23.7055 72.1808 27.5095L72.1118 27.5816L73.7192 35.6181L71.1693 38.1607C66.5066 33.9217 60.3707 31.6744 54.0728 31.8989C47.775 32.1234 41.8149 34.802 37.466 39.3622C33.117 43.9225 30.7243 50.0026 30.7991 56.3034C30.874 62.6042 33.4105 68.6258 37.8665 73.0814C42.3226 77.5371 48.3449 80.0733 54.6463 80.1481C60.9477 80.223 67.0285 77.8305 71.5891 73.482C76.1498 69.1335 78.8285 63.1738 79.053 56.8766C79.2776 50.5794 77.0302 44.4441 72.7908 39.7819L75.2849 37.2878L83.4471 38.9186L83.5026 38.8688C86.6048 44.0219 88.2431 49.9233 88.2417 55.9381V55.9381ZM55.4829 57.084L63.0352 49.5379C64.5074 51.3468 65.3144 53.6059 65.3215 55.9381C65.3209 57.9768 64.7158 59.9697 63.5826 61.6646C62.4494 63.3596 60.839 64.6804 58.9551 65.4603C57.0711 66.2401 54.9984 66.4439 52.9987 66.0458C50.999 65.6477 49.1622 64.6657 47.7206 63.2238C46.279 61.782 45.2973 59.9451 44.8998 57.9454C44.5022 55.9458 44.7063 53.8731 45.4867 51.9896C46.2672 50.106 47.5886 48.4962 49.284 47.3635C50.9794 46.2309 52.9727 45.6264 55.0117 45.6264C57.3449 45.6364 59.6042 46.4452 61.4136 47.9182L53.8614 55.4642V57.084H55.4829ZM63.0768 46.2582C60.5804 44.1793 57.3783 43.1427 54.1371 43.3641C50.8959 43.5855 47.8649 45.0478 45.6745 47.4468C43.4841 49.8459 42.3031 52.997 42.3769 56.2446C42.4508 59.4922 43.7738 62.5863 46.071 64.8834C48.3682 67.1804 51.4626 68.5034 54.7106 68.5773C57.9585 68.6511 61.1099 67.4701 63.5091 65.2798C65.9084 63.0896 67.3709 60.0588 67.5923 56.8179C67.8137 53.577 66.7771 50.3755 64.698 47.8794L71.1693 41.4016C74.9871 45.6381 76.9995 51.1977 76.7779 56.896C76.5562 62.5943 74.1181 67.9808 69.9828 71.9079C65.8475 75.835 60.3419 77.9923 54.6392 77.92C48.9365 77.8477 43.4874 75.5517 39.4529 71.521C35.4184 67.4904 33.1176 62.0438 33.0405 56.3417C32.9633 50.6396 35.1159 45.1328 39.0398 40.9945C42.9637 36.8562 48.3488 34.4136 54.0475 34.1871C59.7461 33.9606 65.308 35.9681 69.5481 39.7819L63.0768 46.2582Z" fill="white"/>
</g>
<defs>
<clipPath id="clip0_3924_4406">
<rect width="110" height="109.984" fill="white" transform="translate(0 0.956055)"/>
</clipPath>
</defs>
</svg>
