<svg width="51" height="50" viewBox="0 0 51 50" fill="none" xmlns="http://www.w3.org/2000/svg">
<g clip-path="url(#clip0_3924_2424)">
<path fill-rule="evenodd" clip-rule="evenodd" d="M45.162 34.903V10.9414H5.84375V34.9011H21.6186L20.7704 38.0261H17.5319V39.068H33.4738V38.028H30.2353L29.3807 34.903H45.162ZM6.91034 11.9852H44.1017V33.8617H6.91034V11.9852ZM29.1366 38.028H21.8692L22.7238 34.903H28.2819L29.1366 38.028ZM7.97058 32.8198H43.0351V13.0271H7.97058V32.8198ZM9.03082 14.0683H41.9749V31.7773H9.03082V14.0683ZM25.5061 26.5698C26.6626 26.5698 27.7931 26.2336 28.7546 25.6037C29.7162 24.9738 30.4657 24.0786 30.9083 23.0311C31.3509 21.9837 31.4667 20.8311 31.241 19.7192C31.0154 18.6072 30.4585 17.5858 29.6407 16.7841C28.823 15.9825 27.7811 15.4365 26.6468 15.2153C25.5125 14.9941 24.3369 15.1077 23.2684 15.5415C22.2 15.9754 21.2867 16.7101 20.6442 17.6528C20.0017 18.5955 19.6588 19.7037 19.6588 20.8375C19.6588 22.3578 20.2748 23.8158 21.3714 24.8908C22.468 25.9658 23.9553 26.5698 25.5061 26.5698ZM25.5061 16.1521C26.4517 16.1531 27.3757 16.4289 28.1614 16.9447C28.9471 17.4604 29.5593 18.1929 29.9204 19.0497C30.2815 19.9064 30.3754 20.8488 30.1903 21.7579C30.0051 22.6669 29.5493 23.5017 28.8802 24.1568C28.2112 24.8119 27.3591 25.2578 26.4316 25.4382C25.5041 25.6186 24.5428 25.5254 23.6693 25.1704C22.7958 24.8153 22.0493 24.2143 21.5242 23.4434C20.9991 22.6726 20.7188 21.7664 20.719 20.8394C20.7205 19.5957 21.2256 18.4035 22.1231 17.5246C23.0207 16.6458 24.2375 16.1521 25.5061 16.1521ZM16.4716 27.611H37.7211V28.6535H16.4716V29.6948H15.4115V28.6535H13.2846V27.611H15.4115V26.5698H16.4716V27.611ZM23.9061 17.7842V23.8983L28.584 20.8413L23.9061 17.7842ZM24.9728 19.7313L26.6691 20.8413L24.9728 21.9518V19.7313Z" fill="#1B1B1B"/>
</g>
<defs>
<clipPath id="clip0_3924_2424">
<rect width="51" height="50" fill="white"/>
</clipPath>
</defs>
</svg>
