<svg width="110" height="111" viewBox="0 0 110 111" fill="none" xmlns="http://www.w3.org/2000/svg">
<g clip-path="url(#clip0_3924_4412)">
<path fill-rule="evenodd" clip-rule="evenodd" d="M56.1612 68.5406H58.4618V93.7462H17.2031V52.5022H42.413V54.7926H19.4899V91.4544H56.1612V68.5406ZM19.4899 41.0432H17.2031V47.9186H19.4899V41.0432ZM19.4899 29.5884H17.2031V36.4624H19.4899V29.5884ZM63.0354 93.742H69.9095V91.4502H63.0354V93.742ZM74.4968 93.742H81.371V91.4502H74.4968V93.742ZM19.4899 20.4212H24.0774V18.1294H17.2031V25.0034H19.4899V20.4212ZM90.5458 70.8324H92.8326V63.9584H90.5458V70.8324ZM90.5458 82.2913H92.8326V75.416H90.5458V82.2913V82.2913ZM90.5458 47.9186H92.8326V41.0432H90.5458V47.9186ZM90.5458 59.3762H92.8326V52.5022H90.5458V59.3762ZM47.0003 18.1294H40.1262V20.4212H47.0003V18.1294ZM35.5387 18.1294H28.6647V20.4212H35.5387V18.1294ZM63.0354 20.4212H69.9095V18.1294H63.0354V20.4212ZM58.4618 18.1294H51.5739V20.4212H58.4618V18.1294ZM90.5458 91.4544H85.9583V93.7462H92.8326V86.8736H90.5458V91.4544ZM90.5458 36.4624H92.8326V29.5884H90.5458V36.4624ZM74.4968 20.4212H81.371V18.1294H74.4968V20.4212ZM85.9583 18.1294V20.4212H90.5458V25.0034H92.8326V18.1294H85.9583V18.1294ZM49.2871 43.3391H66.0013L44.2285 65.1084L45.85 66.7282L67.6227 44.9589V61.6694H69.9095V41.0432H49.2871V43.3391Z" fill="white"/>
</g>
<defs>
<clipPath id="clip0_3924_4412">
<rect width="110" height="109.984" fill="white" transform="translate(0 0.956055)"/>
</clipPath>
</defs>
</svg>
