<svg width="110" height="111" viewBox="0 0 110 111" fill="none" xmlns="http://www.w3.org/2000/svg">
<g clip-path="url(#clip0_3924_4377)">
<path fill-rule="evenodd" clip-rule="evenodd" d="M28.6398 47.9089V45.1875L90.5684 28.5932L88.1988 19.7405L28.6398 35.696V35.6599L27.1847 36.0881L17.1797 38.7693V93.7398H92.8135V47.9089H28.6398ZM74.8266 54.783L76.0459 50.2007H82.8501L81.6166 54.783H74.8266ZM38.16 54.783L39.3793 50.2007H46.1831L44.95 54.7816H38.16V54.783ZM48.553 50.2007H55.343L54.1237 54.783H47.3195L48.553 50.2007ZM57.7126 50.2007H64.5168L63.2833 54.783H56.4933L57.7126 50.2007ZM66.8863 50.2007H73.6763L72.457 54.783H65.6528L66.8863 50.2007ZM37.0097 50.2007L35.7901 54.783H28.6398V50.2007H37.0097ZM70.3091 31.6513L63.7545 33.4097V28.6653L70.3091 26.9069V31.6513ZM72.6093 26.2917L79.1638 24.5334V29.2777L72.6093 31.0375V26.2917ZM61.454 34.0235L54.8995 35.7805V31.0375L61.454 29.2777V34.0235ZM52.5993 36.3971L46.0448 38.1541V33.4097L52.5993 31.6513V36.3971ZM43.7442 38.7693L37.1897 40.5263V35.7805L43.7442 34.0235V38.7693ZM87.7553 26.9748L81.4505 28.6653V23.9209L86.5776 22.5492L87.7553 26.9748ZM34.8895 36.3971V41.1415L28.6398 42.8181V38.0709L34.8895 36.3971ZM19.4802 46.7644V40.7494L26.3534 38.7236V54.7816H19.4802V46.7616V46.7644ZM90.5129 91.448H19.4802V57.0762H90.5129V91.4466V91.448ZM83.9861 54.7843L85.2196 50.2021H90.5129V54.7816H83.9861V54.7843ZM25.2032 63.953H84.79V66.2435H25.2032V63.953ZM25.2032 73.1175H84.79V75.4093H25.2032V73.1175ZM25.2032 82.2821H84.79V84.5725H25.2032V82.2807V82.2821Z" fill="white"/>
</g>
<defs>
<clipPath id="clip0_3924_4377">
<rect width="110" height="109.984" fill="white" transform="translate(0 0.922852)"/>
</clipPath>
</defs>
</svg>
