<svg width="51" height="51" viewBox="0 0 51 51" fill="none" xmlns="http://www.w3.org/2000/svg">
<g clip-path="url(#clip0_3924_2441)">
<path fill-rule="evenodd" clip-rule="evenodd" d="M26.0311 31.3368H27.0978V43.0247H7.96875V23.8997H19.657V24.9618H9.02899V41.962H26.0311V31.3368ZM9.02899 18.5862H7.96875V21.7743H9.02899V18.5862ZM9.02899 13.2745H7.96875V16.462H9.02899V13.2745ZM29.2183 43.0228H32.4053V41.9601H29.2183V43.0228ZM34.5322 43.0228H37.7193V41.9601H34.5322V43.0228ZM9.02899 9.02366H11.1559V7.96094H7.96875V11.1484H9.02899V9.02366ZM41.9731 32.3995H43.0333V29.212H41.9731V32.3995ZM41.9731 37.7131H43.0333V34.5249H41.9731V37.7131ZM41.9731 21.7743H43.0333V18.5862H41.9731V21.7743ZM41.9731 27.0872H43.0333V23.8997H41.9731V27.0872ZM21.7838 7.96094H18.5967V9.02366H21.7838V7.96094ZM16.4698 7.96094H13.2827V9.02366H16.4698V7.96094ZM29.2183 9.02366H32.4053V7.96094H29.2183V9.02366ZM27.0978 7.96094H23.9043V9.02366H27.0978V7.96094ZM41.9731 41.962H39.8462V43.0247H43.0333V39.8379H41.9731V41.962ZM41.9731 16.462H43.0333V13.2745H41.9731V16.462ZM34.5322 9.02366H37.7193V7.96094H34.5322V9.02366ZM39.8462 7.96094V9.02366H41.9731V11.1484H43.0333V7.96094H39.8462ZM22.844 19.6508H30.5934L20.4987 29.7453L21.2505 30.4964L31.3451 20.4019V28.1506H32.4053V18.5862H22.844V19.6508Z" fill="#1B1B1B"/>
</g>
<defs>
<clipPath id="clip0_3924_2441">
<rect width="51" height="51" fill="white"/>
</clipPath>
</defs>
</svg>
