<svg width="110" height="111" viewBox="0 0 110 111" fill="none" xmlns="http://www.w3.org/2000/svg">
<g clip-path="url(#clip0_3924_4395)">
<path fill-rule="evenodd" clip-rule="evenodd" d="M55.003 18.1066C47.5244 18.1066 40.2135 20.324 33.9953 24.4782C27.777 28.6325 22.931 34.5372 20.069 41.4455C17.2071 48.3538 16.4582 55.9556 17.9172 63.2894C19.3762 70.6232 22.9777 77.3598 28.2658 82.6472C33.554 87.9346 40.2912 91.5354 47.6261 92.9942C54.961 94.4529 62.5637 93.7042 69.473 90.8427C76.3824 87.9812 82.2883 83.1354 86.4432 76.918C90.5981 70.7007 92.8155 63.3911 92.8155 55.9136C92.8041 45.8901 88.8163 36.2803 81.7275 29.1926C74.6388 22.1049 65.028 18.118 55.003 18.1066V18.1066ZM55.003 91.4298C47.9777 91.4288 41.1109 89.345 35.2701 85.4418C29.4293 81.5386 24.8767 75.9913 22.1889 69.5015C19.5012 63.0117 18.7986 55.8707 20.1697 48.9816C21.5409 42.0924 24.9243 35.7645 29.8923 30.798C34.8602 25.8315 41.1898 22.4494 48.0801 21.0794C54.9705 19.7094 62.1123 20.4131 68.6027 23.1014C75.0931 25.7897 80.6402 30.3419 84.5431 36.1824C88.446 42.0229 90.5294 48.8894 90.5294 55.9136C90.5189 65.3308 86.7724 74.3592 80.112 81.0177C73.4516 87.6761 64.4215 91.4207 55.003 91.4298V91.4298ZM84.9779 25.9378C78.0429 19.011 68.9204 14.7025 59.1647 13.7462C49.409 12.7899 39.6234 15.2449 31.4751 20.6932C23.3267 26.1414 17.3198 34.2458 14.4772 43.6257C11.6346 53.0055 12.1321 63.0807 15.8855 72.1347C19.6388 81.1888 26.4162 88.6617 35.0619 93.2804C43.7077 97.8992 53.6874 99.378 63.3013 97.4649C72.9152 95.5519 81.5684 90.3654 87.7868 82.7889C94.0052 75.2124 97.404 65.7146 97.4044 55.9136C97.4191 50.3437 96.3282 44.8262 94.1952 39.6807C92.0621 34.5352 88.9293 29.8641 84.9779 25.9378V25.9378ZM83.3623 84.2689C76.801 90.8351 68.1654 94.9232 58.9272 95.8366C49.689 96.75 40.42 94.4321 32.6995 89.278C24.979 84.1238 19.2844 76.4523 16.5871 67.5709C13.8897 58.6894 14.3566 49.1476 17.9072 40.5714C21.4577 31.9951 27.8726 24.9153 36.0589 20.5384C44.2453 16.1614 53.696 14.7582 62.8011 16.5678C71.9062 18.3774 80.1019 23.2879 85.9917 30.4625C91.8815 37.637 95.1013 46.6317 95.1015 55.9136C95.116 61.1811 94.086 66.3992 92.0711 71.2663C90.0561 76.1333 87.096 80.5526 83.3623 84.2689V84.2689Z" fill="white"/>
<path fill-rule="evenodd" clip-rule="evenodd" d="M54.9154 84.5566C54.6692 84.5551 54.4256 84.4999 54.2029 84.3948C53.9803 84.2898 53.784 84.1373 53.6264 83.9482L35.906 62.931C35.7149 62.7244 35.5884 62.4663 35.5426 62.1886C35.4967 61.9109 35.5337 61.6259 35.6483 61.3689C35.7748 61.1156 35.9716 60.9044 36.2156 60.7608C36.4596 60.6171 36.7401 60.5472 37.023 60.5595H44.7053V56.3852C44.7099 55.9109 44.9032 55.4578 45.2416 55.1253C45.5799 54.7928 46.0361 54.6081 46.5105 54.6117H50.7554V50.5973C50.7585 50.1256 50.9483 49.6742 51.2832 49.3419C51.6182 49.0096 52.0711 48.8234 52.5429 48.8238H56.7886V44.8094C56.7931 44.3351 56.9857 43.8819 57.324 43.5494C57.6624 43.2169 58.1186 43.0323 58.593 43.0359H63.3195C63.7914 43.0355 64.2443 43.2217 64.5792 43.554C64.9141 43.8863 65.1039 44.3376 65.1071 44.8094V60.5543H72.9791C73.2623 60.5424 73.5432 60.6128 73.7873 60.7571C74.0313 60.9014 74.2277 61.1133 74.3538 61.3672C74.4696 61.6252 74.506 61.9119 74.457 62.1904C74.408 62.4689 74.2763 62.7263 74.0793 62.9293L56.2045 83.9465C56.0474 84.1364 55.8498 84.2894 55.6271 84.3948C55.4044 84.5003 55.1619 84.5555 54.9154 84.5566V84.5566ZM38.845 62.8502L54.9154 81.9255L71.1571 62.8502H64.6262C64.1518 62.8539 63.6948 62.6692 63.3564 62.3367C63.0181 62.0042 62.8256 61.5511 62.821 61.0767V45.3267H59.0747V49.3411C59.0701 49.8154 58.8776 50.2686 58.5392 50.6011C58.2009 50.9336 57.7439 51.1183 57.2695 51.1146H53.0414V55.129C53.0369 55.6033 52.8443 56.0565 52.506 56.389C52.1676 56.7215 51.7115 56.9062 51.2371 56.9025H47.009V61.0699C47.0045 61.5442 46.8119 61.9973 46.4736 62.3298C46.1352 62.6623 45.6782 62.847 45.2038 62.8434H38.845V62.8502Z" fill="white"/>
<path fill-rule="evenodd" clip-rule="evenodd" d="M50.0314 50.5887H46.5083C46.0339 50.5924 45.5777 50.4077 45.2394 50.0751C44.901 49.7426 44.7077 49.2894 44.7031 48.815V45.4325C44.7077 44.9579 44.9003 44.5046 45.2386 44.1717C45.5769 43.8389 46.0338 43.6538 46.5083 43.657H50.0314C50.506 43.6538 50.9629 43.8389 51.3012 44.1717C51.6395 44.5046 51.8321 44.9579 51.8366 45.4325V48.8064C51.8355 49.042 51.7878 49.2751 51.6965 49.4923C51.6051 49.7095 51.4713 49.9065 51.3037 50.0721C51.136 50.2377 50.9379 50.3685 50.7196 50.4572C50.5013 50.5458 50.267 50.5905 50.0314 50.5887V50.5887ZM47.0068 48.2976H49.5329V45.9584H47.0068V48.2976Z" fill="white"/>
<path fill-rule="evenodd" clip-rule="evenodd" d="M56.0615 44.6104H52.5376C52.0656 44.6104 51.6128 44.4238 51.2779 44.0912C50.943 43.7585 50.7532 43.307 50.75 42.835V39.4628C50.7532 38.991 50.943 38.5395 51.2779 38.2072C51.6128 37.8748 52.0657 37.6886 52.5376 37.689H56.0615C56.5359 37.6854 56.9921 37.8701 57.3304 38.2026C57.6688 38.5352 57.8613 38.9884 57.8659 39.4628V42.835C57.8618 43.3097 57.6697 43.7633 57.3313 44.0963C56.9929 44.4292 56.5362 44.6141 56.0615 44.6104V44.6104ZM53.0361 42.3177H55.5798V39.9801H53.0361V42.3177Z" fill="white"/>
<path fill-rule="evenodd" clip-rule="evenodd" d="M62.0997 39.982H58.5934C58.119 39.9857 57.6628 39.8009 57.3245 39.4684C56.9861 39.1358 56.7936 38.6827 56.7891 38.2083V34.8343C56.7931 34.3597 56.9853 33.906 57.3237 33.5731C57.6621 33.2402 58.1187 33.0552 58.5934 33.0589H62.0997C62.5744 33.0552 63.0311 33.2402 63.3695 33.5731C63.7079 33.906 63.9008 34.3597 63.9049 34.8343V38.2151C63.8986 38.6883 63.7051 39.1398 63.367 39.4708C63.0288 39.8019 62.573 39.9857 62.0997 39.982V39.982ZM59.0751 37.6909H61.6189V35.3517H59.0751V37.6995V37.6909Z" fill="white"/>
<path fill-rule="evenodd" clip-rule="evenodd" d="M56.0615 34.1976H52.5376C52.0657 34.198 51.6128 34.0117 51.2779 33.6794C50.943 33.347 50.7532 32.8957 50.75 32.4238V29.0499C50.7532 28.5779 50.943 28.1264 51.2779 27.7937C51.6128 27.4611 52.0656 27.2744 52.5376 27.2745H56.0615C56.5361 27.2712 56.9921 27.4563 57.3304 27.7892C57.6687 28.122 57.8613 28.5754 57.8659 29.0499V32.4238C57.8613 32.8982 57.6688 33.3514 57.3304 33.6839C56.9921 34.0165 56.5359 34.2012 56.0615 34.1976ZM53.0361 31.9065H55.5798V29.5672H53.0361V31.9065Z" fill="white"/>
</g>
<defs>
<clipPath id="clip0_3924_4395">
<rect width="110" height="109.984" fill="white" transform="translate(0 0.922852)"/>
</clipPath>
</defs>
</svg>
