<svg width="110" height="111" viewBox="0 0 110 111" fill="none" xmlns="http://www.w3.org/2000/svg">
<g clip-path="url(#clip0_3924_4383)">
<path fill-rule="evenodd" clip-rule="evenodd" d="M97.4134 77.6975V24.9897H12.6094V77.6934H46.6335L44.8041 84.5675H37.8191V86.8593H72.2037V84.5716H65.2186L63.3754 77.6975H97.4134V77.6975ZM14.9099 27.2857H95.1266V75.4071H14.9099V27.2857ZM62.8488 84.5716H47.174L49.0174 77.6975H61.0054L62.8488 84.5716ZM17.1967 73.1153H92.8261V29.5776H17.1967V73.1153V73.1153ZM19.4835 31.868H90.5393V70.8221H19.4835V31.868V31.868ZM55.0183 59.3671C57.5127 59.3671 59.951 58.6276 62.025 57.2421C64.099 55.8565 65.7156 53.8873 66.6702 51.5832C67.6247 49.2792 67.8745 46.7439 67.3878 44.298C66.9012 41.8521 65.7 39.6053 63.9362 37.8419C62.1724 36.0784 59.9251 34.8775 57.4787 34.391C55.0322 33.9045 52.4965 34.1542 50.192 35.1086C47.8875 36.0629 45.9177 37.6791 44.5319 39.7526C43.1461 41.8262 42.4065 44.264 42.4065 46.7579C42.4065 50.1021 43.7352 53.3093 46.1004 55.674C48.4656 58.0387 51.6734 59.3671 55.0183 59.3671ZM55.0183 36.4516C57.0578 36.4538 59.0508 37.0605 60.7455 38.195C62.4402 39.3294 63.7605 40.9408 64.5394 42.8253C65.3183 44.7098 65.5208 46.7829 65.1215 48.7825C64.7222 50.7821 63.7389 52.6184 62.2959 54.0594C60.8529 55.5004 59.015 56.4813 57.0145 56.8781C55.0139 57.2749 52.9406 57.0699 51.0566 56.2889C49.1727 55.5079 47.5626 54.1859 46.4299 52.4902C45.2973 50.7945 44.6929 48.8012 44.6931 46.7621C44.6965 44.0264 45.7858 41.404 47.7218 39.4707C49.6578 37.5375 52.2821 36.4516 55.0183 36.4516V36.4516ZM35.5323 61.6576H81.3645V63.9508H35.5323V66.2412H33.2457V63.9508H28.6582V61.6576H33.2457V59.3671H35.5323V61.6576ZM51.5674 40.0418V53.4907L61.6569 46.7662L51.5674 40.0418ZM53.8681 44.3248L57.5267 46.7662L53.8681 49.2091V44.3248Z" fill="white"/>
</g>
<defs>
<clipPath id="clip0_3924_4383">
<rect width="110" height="109.984" fill="white" transform="translate(0 0.922852)"/>
</clipPath>
</defs>
</svg>
