<svg width="51" height="51" viewBox="0 0 51 51" fill="none" xmlns="http://www.w3.org/2000/svg">
<g clip-path="url(#clip0_3924_2411)">
<path fill-rule="evenodd" clip-rule="evenodd" d="M44.7257 11.404L40.9524 10.6489L42.0031 9.59927L41.2535 8.84996L40.2286 9.87465L39.4854 6.16016L34.1427 11.4988C30.7221 9.35618 26.6324 8.54671 22.6532 9.22466C18.674 9.90261 15.0833 12.0206 12.5657 15.1749C10.048 18.3292 8.7794 22.2994 9.00148 26.3287C9.22356 30.358 10.9209 34.1648 13.77 37.0234C16.619 39.8821 20.4206 41.5929 24.4503 41.8297C28.4799 42.0665 32.4558 40.8127 35.6202 38.3074C38.7847 35.802 40.9164 32.2203 41.6091 28.2447C42.3019 24.2692 41.5072 20.1778 39.3765 16.7503L44.7257 11.404ZM39.4597 11.4303L42.5796 12.0547L38.2362 16.3974L35.1165 15.773L34.5013 12.7073L34.6296 12.5094L38.8319 8.31008L39.4597 11.4303ZM40.7987 25.4109C40.8031 28.8099 39.6808 32.1146 37.6073 34.8083C35.5338 37.5021 32.6259 39.4331 29.3382 40.2996C26.0506 41.166 22.5684 40.919 19.4361 39.5972C16.3037 38.2754 13.6976 35.9532 12.0253 32.9938C10.353 30.0343 9.70868 26.6043 10.1931 23.24C10.6775 19.8756 12.2634 16.7666 14.7027 14.3988C17.1421 12.031 20.2973 10.5379 23.6755 10.153C27.0536 9.76801 30.4641 10.5129 33.3739 12.2711L33.3419 12.3044L34.085 16.0189L32.9062 17.1941C30.7507 15.2349 27.9141 14.1961 25.0027 14.2999C22.0912 14.4037 19.3359 15.6417 17.3254 17.7495C15.3149 19.8572 14.2088 22.6675 14.2434 25.5797C14.278 28.492 15.4506 31.2752 17.5106 33.3346C19.5706 35.394 22.3547 36.5662 25.2678 36.6008C28.1808 36.6354 30.9919 35.5296 33.1003 33.5197C35.2087 31.5098 36.447 28.7553 36.5508 25.8447C36.6546 22.9341 35.6157 20.0983 33.6558 17.9434L34.8088 16.7907L38.5821 17.5445L38.6078 17.5214C40.0419 19.9032 40.7993 22.6308 40.7987 25.4109ZM25.6545 25.9405L29.1459 22.4527C29.8265 23.2888 30.1995 24.3329 30.2028 25.4109C30.2026 26.3532 29.9228 27.2743 29.3989 28.0577C28.8751 28.8411 28.1306 29.4516 27.2597 29.8121C26.3888 30.1725 25.4306 30.2667 24.5061 30.0827C23.5816 29.8987 22.7325 29.4448 22.0661 28.7784C21.3997 28.1119 20.9458 27.2629 20.762 26.3387C20.5782 25.4144 20.6726 24.4565 21.0334 23.5859C21.3942 22.7153 22.005 21.9712 22.7888 21.4477C23.5726 20.9242 24.4941 20.6448 25.4367 20.6448C26.5153 20.6494 27.5597 21.0233 28.3962 21.7041L24.9049 25.1918V25.9405H25.6545ZM29.1651 20.9368C28.0111 19.9759 26.5308 19.4968 25.0324 19.5991C23.534 19.7015 22.1328 20.3774 21.1202 21.4862C20.1076 22.595 19.5616 24.0515 19.5957 25.5525C19.6299 27.0536 20.2415 28.4837 21.3035 29.5454C22.3655 30.6071 23.796 31.2186 25.2975 31.2527C26.799 31.2869 28.2558 30.741 29.365 29.7287C30.4742 28.7163 31.1502 27.3155 31.2526 25.8175C31.3549 24.3196 30.8757 22.8398 29.9146 21.6861L32.9062 18.6921C34.6712 20.6502 35.6015 23.2198 35.499 25.8536C35.3966 28.4874 34.2695 30.9771 32.3577 32.7922C30.446 34.6073 27.9008 35.6044 25.2645 35.571C22.6282 35.5376 20.1091 34.4763 18.244 32.6134C16.3789 30.7504 15.3152 28.233 15.2796 25.5974C15.2439 22.9619 16.239 20.4166 18.053 18.5039C19.867 16.5912 22.3565 15.4622 24.9909 15.3575C27.6254 15.2528 30.1966 16.1807 32.1567 17.9434L29.1651 20.9368Z" fill="#1B1B1B"/>
</g>
<defs>
<clipPath id="clip0_3924_2411">
<rect width="50.8522" height="50.8348" fill="white"/>
</clipPath>
</defs>
</svg>
