<svg width="20" height="21" viewBox="0 0 20 21" fill="none" xmlns="http://www.w3.org/2000/svg">
<path fill-rule="evenodd" clip-rule="evenodd" d="M13.5728 2.79538C12.8743 3.30549 11.884 2.9821 11.6172 2.15681L11.2053 0.882563C10.8249 -0.294189 9.16862 -0.294187 8.78822 0.882564L8.37839 2.15036C8.11162 2.97558 7.12142 3.29901 6.42299 2.78904L5.35794 2.01138C4.362 1.28417 3.02209 2.2628 3.40256 3.43952L3.80964 4.69853C4.07648 5.5238 3.46446 6.37056 2.60112 6.37056H1.27318C0.0421808 6.37056 -0.469643 7.95387 0.526254 8.68114L1.60548 9.46927C2.30388 9.97929 2.30391 11.0258 1.60555 11.5359L0.532655 12.3195C-0.463195 13.0468 0.048731 14.6301 1.27973 14.63L2.59511 14.6299C3.45845 14.6299 4.07053 15.4766 3.80374 16.3019L3.39674 17.5609C3.01634 18.7377 4.35631 19.7162 5.35221 18.9889L6.42737 18.2038C7.12577 17.6938 8.116 18.0171 8.38282 18.8423L8.79513 20.1175C9.17561 21.2942 10.8319 21.2941 11.2122 20.1174L11.6217 18.8505C11.8884 18.0252 12.8787 17.7017 13.5771 18.2118L14.6413 18.9889C15.6372 19.7162 16.9772 18.7377 16.5968 17.5609L16.1895 16.3009C15.9227 15.4757 16.5347 14.629 17.3979 14.629L18.7269 14.6289C19.9579 14.6288 20.4696 13.0454 19.4737 12.3182L18.3952 11.5308C17.6967 11.0208 17.6967 9.97414 18.3952 9.46408L19.4673 8.68114C20.4632 7.95387 19.9514 6.37056 18.7204 6.37056H17.4039C16.5407 6.37056 15.9287 5.52393 16.1954 4.69869L16.6026 3.43865C16.9829 2.26187 15.6429 1.28342 14.647 2.01076L13.5728 2.79538Z" fill="white"/>
</svg>
