<svg width="1237" height="1122" viewBox="0 0 1237 1122" fill="none" xmlns="http://www.w3.org/2000/svg">
<path d="M161.703 953.205C96.6841 819.482 23.3368 680.242 80.6771 656.045C201.714 604.971 603.832 1173.29 616.836 1042.35C631.42 895.503 330.753 524.177 396.772 488.889C462.791 453.601 948.989 1280.61 948.989 975.491C948.989 621.683 774.468 -167.635 1005.95 123.007C1127.99 276.231 1161 500.031 1176 573.393" stroke="#91FF6A" stroke-width="120" stroke-linecap="round"/>
<path d="M484 886.5C533.478 936.214 620.838 1028.91 612.442 1042.66C601.947 1059.86 543.976 981.906 490.5 862.5" stroke="#0A0A0A" stroke-width="4" stroke-linecap="round"/>
<path d="M148 775C136.975 746.155 100.332 641.94 78.783 656.362C60.3765 668.68 137.917 735.922 175 767.557" stroke="#0A0A0A" stroke-width="4" stroke-linecap="round"/>
<path d="M949.756 203.549C949.756 141.049 950.468 45.5359 929.751 48.0486C913.257 50.049 933.256 139.549 976.756 198.049" stroke="#0A0A0A" stroke-width="4" stroke-linecap="round"/>
</svg>
