<svg width="21" height="12" viewBox="0 0 21 12" fill="none" xmlns="http://www.w3.org/2000/svg">
<path fill-rule="evenodd" clip-rule="evenodd" d="M20.5057 0.833333C20.6614 0.363333 20.5057 0.0216665 19.8166 0.0216665H17.5254C16.9475 0.0216665 16.6806 0.320833 16.5248 0.640833C16.5248 0.640833 15.3462 3.37417 13.7003 5.14625C13.1666 5.65875 12.922 5.82958 12.6328 5.82958C12.4771 5.82958 12.2767 5.65875 12.2767 5.18917V0.81125C12.2767 0.25625 12.0991 0 11.6095 0H8.00626C7.65014 0 7.42789 0.25625 7.42789 0.5125C7.42789 1.04625 8.25082 1.17458 8.33964 2.66917V5.91667C8.33964 6.62125 8.20839 6.75 7.91701 6.75C7.1387 6.75 5.24826 3.99542 4.11426 0.856667C3.89376 0.235 3.66976 0 3.09138 0H0.778314C0.111125 0 0 0.29875 0 0.619167C0 1.19583 0.778314 4.09958 3.62513 7.94292C5.51557 10.5679 8.20664 11.9788 10.6308 11.9788C12.0991 11.9788 12.2767 11.6583 12.2767 11.1246V9.13875C12.2767 8.49833 12.4101 8.39167 12.8774 8.39167C13.2108 8.39167 13.8115 8.56208 15.1681 9.82208C16.7248 11.3167 16.9916 12 17.8592 12H20.15C20.8172 12 21.1287 11.6796 20.9506 11.0604C20.7507 10.4413 19.9942 9.54458 19.0155 8.47708C18.4818 7.87958 17.6811 7.2175 17.4366 6.89708C17.1032 6.47 17.192 6.29917 17.4366 5.915C17.4143 5.915 20.2169 2.11417 20.5057 0.831667" fill="white"/>
</svg>
