<svg width="17" height="12" viewBox="0 0 17 12" fill="none" xmlns="http://www.w3.org/2000/svg">
<path d="M16.8908 2.64962C16.8908 1.2434 15.7916 0.112184 14.4334 0.112184C12.5937 0.031249 10.7175 0 8.80014 0H8.20241C6.28967 0 4.41013 0.0312491 2.57045 0.112497C1.21559 0.112497 0.116428 1.24997 0.116428 2.65618C0.0334092 3.76834 -0.0017905 4.8808 0.000201936 5.99327C-0.00311879 7.10574 0.0345162 8.21926 0.113107 9.33381C0.113107 10.74 1.21227 11.8806 2.56713 11.8806C4.49979 11.965 6.48227 12.0025 8.49795 11.9994C10.517 12.0056 12.4939 11.966 14.4288 11.8806C15.787 11.8806 16.8861 10.74 16.8861 9.33381C16.9658 8.21821 17.0023 7.10574 16.999 5.99015C17.0066 4.87768 16.9705 3.76417 16.8908 2.64962ZM6.87412 9.05882V2.91836L11.6892 5.98702L6.87412 9.05882Z" fill="white"/>
</svg>
