<svg width="1774" height="1251" viewBox="0 0 1774 1251" fill="none" xmlns="http://www.w3.org/2000/svg">
<path d="M583.031 1175.61C385.071 1066.39 -17.8333 726.227 1.71862 703.796C29.4479 671.983 892.294 1258.2 924.892 1250.11C957.49 1242.02 311.455 726.024 347.024 707.328C375.983 692.106 1129.92 1066.3 1191.12 1071.16C1252.32 1076.01 646.683 704.609 679.541 677.538C712.4 650.468 1402.31 1043.62 1418.74 1030.09C1435.17 1016.55 821.128 481.496 864.315 464.525C921.12 442.203 1632.3 919.616 1649.35 912.92C1666.39 906.223 893.524 265.448 888.929 214.16C884.511 164.847 1520.64 650.441 1772.95 782.936L964.946 0.579929" stroke="white"/>
</svg>
