<svg width="1021" height="792" viewBox="0 0 1021 792" fill="none" xmlns="http://www.w3.org/2000/svg">
<path d="M281.319 240.736C461.884 120.045 717.304 28.0744 786.946 47.6306C826.405 58.7109 82.1247 670.52 46.3221 740.258C10.5195 809.996 712.966 316.987 808.439 262.193C903.913 207.399 752.567 409.883 639.192 586.718C525.817 763.553 837.757 529.829 975 417.75" stroke="#91FF6A" stroke-width="90" stroke-linecap="round"/>
<path d="M397.157 477.5C351.016 511 205.001 592 208.017 601.5C210.704 609.965 288.485 570 349.5 516.5C382.676 487.41 447.183 433.667 479.016 405" stroke="#EDEDED" stroke-width="4"/>
<path d="M648 126.5C683 91.1667 754.403 39.935 766.5 47.9992C772.5 51.9991 693.5 106.5 602.5 132.5" stroke="#EDEDED" stroke-width="4"/>
<path d="M695.5 393C737.864 361 821.7 305.9 822.5 301.5C823.5 296 774.5 307 701 406" stroke="#EDEDED" stroke-width="4"/>
<path d="M740 521.5C739.5 522 678.001 612.5 674.501 594C671.701 579.2 742.501 534.5 773.001 511" stroke="#EDEDED" stroke-width="4"/>
</svg>
