<svg width="341" height="161" viewBox="0 0 341 161" fill="none" xmlns="http://www.w3.org/2000/svg">
<path d="M338.003 39.5503C295.33 84.9631 246.031 107.464 200.88 107.793" stroke="#0A0A0A" stroke-width="4" stroke-linecap="round"/>
<path d="M237.245 66.8756C234 75.399 221.577 94.8254 197.552 105.65C196.858 105.962 196.728 106.903 197.33 107.367C206.252 114.246 219.053 122.461 250.345 125.07" stroke="#0A0A0A" stroke-width="4" stroke-linecap="round"/>
<path d="M142.72 125.16C142.507 125.053 142.187 124.867 141.76 124.6C141.387 124.28 140.987 123.933 140.56 123.56C140.187 123.133 139.92 122.76 139.76 122.44C139.6 122.173 139.6 121.693 139.76 121C139.973 120.307 140.187 119.96 140.4 119.96C140.56 120.067 140.827 119.88 141.2 119.4C141.573 118.92 141.947 118.413 142.32 117.88C142.693 117.293 142.88 116.947 142.88 116.84C142.933 116.627 143.067 116.467 143.28 116.36C143.547 116.2 143.787 116.04 144 115.88C144.267 115.453 144.613 115.027 145.04 114.6C145.52 114.12 145.893 113.72 146.16 113.4C146.587 112.867 147.36 112.067 148.48 111C149.6 109.933 150.693 108.84 151.76 107.72C152.88 106.493 153.867 105.427 154.72 104.52C155.573 103.56 156.027 102.893 156.08 102.52C156.08 102.52 156.16 102.44 156.32 102.28C156.533 102.067 156.773 101.88 157.04 101.72C157.307 101.56 157.653 101.293 158.08 100.92C158.56 100.547 158.96 100.2 159.28 99.88C159.387 99.4533 159.68 98.8667 160.16 98.12C160.693 97.32 161.227 96.6533 161.76 96.12C162.187 95.48 162.587 94.7867 162.96 94.04C163.333 93.24 163.573 92.6533 163.68 92.28C163.84 91.6933 163.84 91.3467 163.68 91.24C163.52 91.08 162.853 90.8133 161.68 90.44C160.4 90.0133 158.987 89.8533 157.44 89.96C155.947 90.0133 154.267 90.7067 152.4 92.04C151.653 92.2 150.96 92.4133 150.32 92.68C149.733 92.9467 149.227 93.0533 148.8 93C148.587 92.8933 148.347 92.6533 148.08 92.28C147.813 91.9067 147.52 91.56 147.2 91.24L146.4 89.56L148.88 88.2C151.067 86.8133 153.04 85.8533 154.8 85.32C156.613 84.7867 158.267 84.76 159.76 85.24C160.347 85.24 160.88 85.32 161.36 85.48C161.84 85.5867 162.08 85.64 162.08 85.64C162.507 85.5867 163.04 85.8267 163.68 86.36C164.32 86.84 164.933 87.4533 165.52 88.2C166.16 88.9467 166.64 89.6933 166.96 90.44C167.813 91.72 168.08 93.08 167.76 94.52C167.493 95.9067 166.693 97.5867 165.36 99.56C165.093 99.88 164.507 100.547 163.6 101.56C162.693 102.573 161.653 103.72 160.48 105C159.36 106.227 158.32 107.32 157.36 108.28C156.453 109.24 155.867 109.853 155.6 110.12C155.227 110.28 154.587 110.84 153.68 111.8C152.827 112.707 151.893 113.72 150.88 114.84C149.92 115.907 149.093 116.867 148.4 117.72C147.76 118.52 147.493 118.92 147.6 118.92C147.547 119.133 147.627 119.24 147.84 119.24C148.053 119.187 148.4 119.08 148.88 118.92C149.68 118.653 150.72 118.387 152 118.12C153.333 117.853 154.693 117.64 156.08 117.48C157.467 117.267 158.667 117.133 159.68 117.08C160.747 117.027 161.36 117.08 161.52 117.24C161.627 117.507 161.707 117.613 161.76 117.56C161.867 117.453 161.92 117.4 161.92 117.4C162.027 117.027 162.693 116.92 163.92 117.08C165.2 117.24 166.347 117.48 167.36 117.8C167.947 117.96 168.4 118.093 168.72 118.2C169.093 118.307 169.28 118.467 169.28 118.68C169.28 118.68 169.333 118.813 169.44 119.08C169.6 119.293 169.84 119.587 170.16 119.96C171.013 120.653 171.12 121.107 170.48 121.32C169.84 121.533 168.453 121.453 166.32 121.08C164.933 121.08 163.787 121.16 162.88 121.32C162.667 121.427 162.213 121.48 161.52 121.48C160.827 121.48 160.16 121.507 159.52 121.56C158.56 121.453 157.6 121.507 156.64 121.72C155.68 121.88 154.533 122.173 153.2 122.6C152.72 122.76 151.973 123 150.96 123.32C149.947 123.64 148.853 123.96 147.68 124.28C146.507 124.6 145.44 124.84 144.48 125C143.573 125.16 142.987 125.213 142.72 125.16Z" fill="#0A0A0A"/>
<path d="M12.84 127.36C12.24 127.12 11.62 126.86 10.98 126.58C10.38 126.3 9.8 125.88 9.24 125.32C8.72 124.8 8.26 124.06 7.86 123.1C7.46 121.94 7.18 120.8 7.02 119.68C6.9 118.56 6.86 117.26 6.9 115.78C6.9 113.7 7.04 111.9 7.32 110.38C7.64 108.82 8.12 107.24 8.76 105.64C8.84 105.52 8.98 105.18 9.18 104.62C9.42 104.02 9.68 103.38 9.96 102.7C10.28 102.02 10.52 101.5 10.68 101.14C11 100.46 11.48 99.56 12.12 98.44C12.8 97.28 13.52 96.16 14.28 95.08C15.44 93.36 16.4 92 17.16 91C17.92 90 18.64 89.16 19.32 88.48C20 87.8 20.76 87.16 21.6 86.56C22.48 85.92 23.6 85.14 24.96 84.22C25.84 83.58 26.8 83.24 27.84 83.2C28.92 83.16 29.92 83.4 30.84 83.92C31.76 84.4 32.44 85.12 32.88 86.08C33.32 86.92 33.54 87.94 33.54 89.14C33.54 90.3 33.36 91.54 33 92.86C32.64 94.14 32.14 95.36 31.5 96.52C30.86 97.68 30.12 98.64 29.28 99.4C28.76 99.88 28.28 100.06 27.84 99.94C27.44 99.82 26.96 99.5 26.4 98.98C26.04 98.3 25.84 97.9 25.8 97.78C25.8 97.66 25.88 97.58 26.04 97.54C26.28 97.26 26.6 96.78 27 96.1C27.4 95.42 27.8 94.7 28.2 93.94C28.6 93.14 28.88 92.5 29.04 92.02C29.36 90.34 29.58 89.16 29.7 88.48C29.82 87.76 29.7 87.22 29.34 86.86C29.18 86.7 28.94 86.64 28.62 86.68C28.34 86.72 27.86 86.92 27.18 87.28C26.26 87.68 25.06 88.58 23.58 89.98C22.1 91.34 20.74 92.86 19.5 94.54C17.9 96.66 16.56 98.54 15.48 100.18C14.4 101.82 13.58 103.5 13.02 105.22C12.94 105.38 12.8 105.68 12.6 106.12C12.44 106.56 12.36 106.78 12.36 106.78C12.4 106.94 12.34 107.34 12.18 107.98C12.02 108.58 11.84 109.1 11.64 109.54C11.2 111.38 10.94 113.3 10.86 115.3C10.78 117.26 10.88 119 11.16 120.52C11.48 122.04 11.94 123.1 12.54 123.7C13.06 124.06 13.76 124.18 14.64 124.06C15.56 123.94 16.6 123.66 17.76 123.22C18.92 122.78 20.1 122.3 21.3 121.78C22.26 121.38 23.14 120.94 23.94 120.46C24.74 119.98 25.34 119.56 25.74 119.2C26.06 118.96 26.46 118.72 26.94 118.48C27.46 118.2 27.9 118.06 28.26 118.06C28.82 117.86 29.14 117.78 29.22 117.82C29.3 117.86 29.34 118.04 29.34 118.36C29.34 118.92 29.02 119.54 28.38 120.22C27.78 120.9 27 121.52 26.04 122.08C25.72 122.4 25.3 122.74 24.78 123.1C24.26 123.46 23.72 123.74 23.16 123.94C22.32 124.58 21.28 125.2 20.04 125.8C18.8 126.4 17.54 126.86 16.26 127.18C15.02 127.5 13.88 127.56 12.84 127.36ZM49.2366 126.22C48.7166 125.9 48.4366 125.58 48.3966 125.26C48.3566 124.98 48.4566 124.42 48.6966 123.58C48.6566 123.06 48.6766 122.58 48.7566 122.14C48.8766 121.7 48.9566 121.4 48.9966 121.24C49.1966 121.24 49.3166 121.12 49.3566 120.88C49.3966 120.64 49.4166 120.44 49.4166 120.28C49.4166 119.96 49.5366 119.42 49.7766 118.66C50.0566 117.9 50.2966 117.12 50.4966 116.32C50.8166 115.52 51.1166 114.78 51.3966 114.1C51.7166 113.38 51.8766 112.94 51.8766 112.78C51.8766 112.46 51.9566 112.14 52.1166 111.82C52.2766 111.46 52.4566 111.12 52.6566 110.8C52.8566 110.32 52.9966 109.8 53.0766 109.24C53.1966 108.64 53.2566 108.18 53.2566 107.86C53.4966 107.34 53.7566 106.78 54.0366 106.18C54.3166 105.58 54.5366 104.96 54.6966 104.32C54.9366 103.64 55.2766 102.66 55.7166 101.38C56.1966 100.06 56.6966 98.72 57.2166 97.36C57.5766 96.6 57.9366 95.8 58.2966 94.96C58.6566 94.12 58.9766 93.4 59.2566 92.8C59.5366 92.2 59.7366 91.9 59.8566 91.9C59.8566 91.9 59.8566 91.84 59.8566 91.72C59.8566 91.56 59.8566 91.4 59.8566 91.24C59.8566 91.04 60.0166 90.66 60.3366 90.1C60.6566 89.5 60.9566 88.88 61.2366 88.24C61.6366 87.64 61.9166 87.08 62.0766 86.56C62.2366 86 62.3166 85.72 62.3166 85.72C62.3166 85.72 62.3766 85.6 62.4966 85.36C62.6566 85.12 62.8166 84.92 62.9766 84.76C63.4966 84.4 63.9766 84.26 64.4166 84.34C64.8966 84.42 65.2966 84.8 65.6166 85.48C65.9366 86.12 66.0766 86.66 66.0366 87.1C65.9966 87.5 65.8166 87.94 65.4966 88.42C65.1766 89.14 64.7566 90.06 64.2366 91.18C63.7166 92.26 63.1566 93.44 62.5566 94.72C61.9966 95.96 61.4566 97.16 60.9366 98.32C60.4566 99.44 60.0566 100.42 59.7366 101.26C59.4566 102.06 59.3166 102.56 59.3166 102.76L56.8566 108.82C56.8566 108.9 56.7766 109.1 56.6166 109.42C56.4966 109.74 56.3166 110.22 56.0766 110.86C55.8766 111.5 55.6166 112.34 55.2966 113.38C54.9766 114.42 54.5966 115.68 54.1566 117.16C53.3566 119.72 52.7366 121.72 52.2966 123.16C51.8566 124.56 51.4966 125.52 51.2166 126.04C50.9766 126.6 50.7166 126.88 50.4366 126.88C50.2766 126.88 50.0966 126.8 49.8966 126.64C49.7366 126.52 49.5166 126.38 49.2366 126.22ZM70.4166 126.7C70.0566 126.74 69.5566 126.56 68.9166 126.16C68.3166 125.8 67.6566 125.34 66.9366 124.78C66.2566 124.22 65.5966 123.64 64.9566 123.04C64.3566 122.44 63.8766 121.92 63.5166 121.48C62.8766 120.56 62.0766 119.36 61.1166 117.88C60.1566 116.36 59.4366 114.74 58.9566 113.02C58.6766 111.74 58.3966 110.74 58.1166 110.02C57.8366 109.26 57.6566 108.64 57.5766 108.16L57.6366 103.96L60.6966 104.92C60.8966 107.08 61.1966 108.88 61.5966 110.32C62.0366 111.72 62.5566 112.96 63.1566 114.04C63.6366 115.08 64.1766 116.12 64.7766 117.16C65.3766 118.16 66.0166 119 66.6966 119.68C67.6166 120.68 68.4366 121.42 69.1566 121.9C69.8766 122.38 70.4166 122.62 70.7766 122.62C70.9766 122.66 71.2566 122.8 71.6166 123.04C72.0166 123.28 72.3766 123.54 72.6966 123.82C73.0566 124.06 73.2566 124.3 73.2966 124.54C73.3366 124.66 73.3566 124.84 73.3566 125.08C73.3566 125.36 73.3166 125.6 73.2366 125.8C73.1966 126.04 73.1366 126.22 73.0566 126.34C72.9366 126.62 72.7166 126.86 72.3966 127.06C72.1166 127.3 71.4566 127.18 70.4166 126.7ZM56.9766 104.44L61.3566 101.26C61.4766 101.14 61.8966 100.74 62.6166 100.06C63.3766 99.38 64.6166 98.4 66.3366 97.12L73.7166 91.12C74.7166 90.6 75.7366 89.94 76.7766 89.14C77.8566 88.34 78.6766 87.76 79.2366 87.4C79.9166 86.92 80.5166 86.5 81.0366 86.14C81.5566 85.78 81.8966 85.62 82.0566 85.66C82.3766 85.5 82.6966 85.56 83.0166 85.84C83.3766 86.08 83.6566 86.42 83.8566 86.86C84.0966 87.26 84.1966 87.62 84.1566 87.94C84.2366 88.34 84.1566 88.68 83.9166 88.96C83.6766 89.24 83.0966 89.64 82.1766 90.16C81.4166 90.52 80.7366 90.88 80.1366 91.24C79.5766 91.6 79.2366 91.9 79.1166 92.14C79.1166 92.14 78.7366 92.44 77.9766 93.04C77.2566 93.6 76.3166 94.28 75.1566 95.08C73.5566 96.12 72.1766 97.1 71.0166 98.02C69.8966 98.94 69.1766 99.64 68.8566 100.12C68.6966 100.12 68.5366 100.18 68.3766 100.3C68.2566 100.42 68.1166 100.46 67.9566 100.42C67.9566 100.42 67.7966 100.52 67.4766 100.72C67.1966 100.92 66.9766 101.12 66.8166 101.32C66.7366 101.52 66.5566 101.8 66.2766 102.16C66.0366 102.52 65.7166 102.68 65.3166 102.64C65.0366 102.8 64.5366 103.14 63.8166 103.66C63.0966 104.14 62.3366 104.68 61.5366 105.28C60.7766 105.88 60.1166 106.42 59.5566 106.9C58.9966 107.38 58.6966 107.66 58.6566 107.74L56.9766 104.44ZM82.8253 123.88L83.3053 121.06C83.5853 119.26 83.8653 117.58 84.1453 116.02C84.4253 114.46 84.6853 113.2 84.9253 112.24C85.2053 111.28 85.3853 110.8 85.4653 110.8C85.6253 110.72 85.7053 110.56 85.7053 110.32C85.7053 110.04 85.7253 109.7 85.7653 109.3L85.8853 107.8L84.9853 107.92C84.5053 107.84 84.2253 107.74 84.1453 107.62C84.0653 107.5 84.0253 107.14 84.0253 106.54C84.0653 106.14 84.1253 105.86 84.2053 105.7C84.2853 105.5 84.5053 105.38 84.8653 105.34C85.5053 105.14 86.1653 104.78 86.8453 104.26C87.5653 103.7 87.9053 103.22 87.8653 102.82C87.9053 102.5 88.0453 101.86 88.2853 100.9C88.5653 99.9 88.9253 98.8 89.3653 97.6C89.8053 96.36 90.2853 95.24 90.8053 94.24C90.9653 93.72 91.1053 93.2 91.2253 92.68C91.3853 92.12 91.4653 91.7 91.4653 91.42C91.5453 91.1 91.6453 90.74 91.7653 90.34C91.8853 89.94 91.9453 89.66 91.9453 89.5C92.1853 89.06 92.2253 88.82 92.0653 88.78C91.9053 88.7 91.5253 88.7 90.9253 88.78C90.9253 88.78 90.7453 88.82 90.3853 88.9C90.0253 88.94 89.6253 88.94 89.1853 88.9C88.5453 89.06 88.1053 89.12 87.8653 89.08C87.6253 89.04 87.4253 88.86 87.2653 88.54C86.9053 88.18 86.7453 87.8 86.7853 87.4C86.8653 87 87.0853 86.82 87.4453 86.86C87.6453 86.9 87.8053 86.88 87.9253 86.8C88.0853 86.68 88.2453 86.54 88.4053 86.38C88.5653 86.22 88.9453 86.04 89.5453 85.84C90.1453 85.6 90.8853 85.46 91.7653 85.42C92.1653 85.38 92.6453 85.3 93.2053 85.18C93.8053 85.02 94.3453 84.84 94.8253 84.64C95.3053 84.44 95.5853 84.3 95.6653 84.22C95.6653 84.02 95.7653 83.92 95.9653 83.92C96.2053 83.92 96.4053 83.92 96.5653 83.92C96.7253 83.88 97.0253 83.84 97.4653 83.8C97.9453 83.72 98.2453 83.7 98.3653 83.74C98.6853 83.58 99.3853 83.46 100.465 83.38C101.545 83.26 103.185 83.22 105.385 83.26C106.025 83.3 106.565 83.34 107.005 83.38C107.445 83.38 107.665 83.3 107.665 83.14C107.665 83.14 107.925 83.18 108.445 83.26C108.965 83.3 109.545 83.42 110.185 83.62C111.145 83.66 111.905 83.8 112.465 84.04C113.025 84.24 113.425 84.56 113.665 85C113.945 85.44 114.085 86.04 114.085 86.8L114.325 88.18L112.705 87.64C112.385 87.6 111.825 87.54 111.025 87.46C110.225 87.34 109.345 87.24 108.385 87.16C107.465 87.08 106.585 87.02 105.745 86.98C104.905 86.9 104.305 86.9 103.945 86.98C103.545 86.98 103.125 87.02 102.685 87.1C102.245 87.14 101.805 87.14 101.365 87.1C100.805 87.26 100.265 87.34 99.7453 87.34C99.2653 87.34 98.9453 87.32 98.7853 87.28C98.3853 87.44 98.0253 87.52 97.7053 87.52C97.4253 87.52 97.1653 87.62 96.9253 87.82C96.9253 87.82 96.8053 87.88 96.5653 88C96.3653 88.12 96.1853 88.18 96.0253 88.18C95.8653 88.14 95.7853 88.22 95.7853 88.42C95.7853 88.62 95.7453 89.02 95.6653 89.62C95.7053 90.18 95.6853 90.68 95.6053 91.12C95.5253 91.56 95.3653 92.12 95.1253 92.8C94.8853 93.48 94.5053 94.48 93.9853 95.8C93.7453 96.48 93.4653 97.24 93.1453 98.08C92.8253 98.88 92.6253 99.5 92.5453 99.94C92.1053 101.14 91.6853 102.06 91.2853 102.7C91.3653 103.1 91.4253 103.32 91.4653 103.36C91.5453 103.36 91.7253 103.24 92.0053 103C92.3253 103.12 92.5853 103.12 92.7853 103C93.0253 102.88 93.2253 102.8 93.3853 102.76C93.5453 102.76 93.7053 102.76 93.8653 102.76C94.0653 102.76 94.3053 102.8 94.5853 102.88C94.5453 102.72 94.7053 102.64 95.0653 102.64C95.4253 102.6 95.8253 102.56 96.2653 102.52C96.7053 102.32 97.2453 102.18 97.8853 102.1C98.5653 101.98 99.0453 101.84 99.3253 101.68C99.7653 101.48 100.065 101.38 100.225 101.38C100.425 101.38 100.785 101.5 101.305 101.74C101.585 102.1 101.785 102.54 101.905 103.06C102.025 103.54 102.065 104 102.025 104.44C101.985 104.84 101.865 105.12 101.665 105.28C101.665 105.28 101.465 105.36 101.065 105.52C100.665 105.64 100.245 105.78 99.8053 105.94C99.3653 105.86 98.9453 105.86 98.5453 105.94C98.1453 106.02 97.8653 106.1 97.7053 106.18C96.8653 106.7 95.4853 106.88 93.5653 106.72C93.2853 106.92 92.9453 107.02 92.5453 107.02C92.1853 107.02 91.9053 107.1 91.7053 107.26C91.5853 107.26 91.3453 107.3 90.9853 107.38C90.6653 107.42 90.4253 107.42 90.2653 107.38C90.1053 107.38 90.0053 107.5 89.9653 107.74C89.9253 107.94 89.9053 108.12 89.9053 108.28C89.9053 108.44 89.8453 108.6 89.7253 108.76C89.6053 108.92 89.5453 109 89.5453 109C89.3053 109.24 89.1653 109.5 89.1253 109.78C89.1253 109.78 89.1053 110.02 89.0653 110.5C89.0653 110.98 88.9653 111.5 88.7653 112.06C88.4453 113.1 88.1453 114.16 87.8653 115.24C87.5853 116.32 87.3853 117.26 87.2653 118.06C87.1453 118.82 87.1253 119.28 87.2053 119.44C87.3653 119.6 87.5253 119.74 87.6853 119.86C87.8453 119.98 88.0253 120.06 88.2253 120.1C88.4253 119.94 88.6053 120 88.7653 120.28C88.9653 120.56 89.0853 120.92 89.1253 121.36C89.0853 121.52 88.9053 121.84 88.5853 122.32C88.2653 122.76 87.8853 123.26 87.4453 123.82C86.9253 125.06 86.3653 125.74 85.7653 125.86C85.2053 125.98 84.5253 125.68 83.7253 124.96L82.8253 123.88ZM104.863 125.98C104.143 125.58 103.743 125.14 103.663 124.66C103.623 124.18 103.903 123.34 104.503 122.14C105.103 120.94 106.043 119.08 107.323 116.56C108.283 114.76 109.003 113.36 109.483 112.36C110.003 111.32 110.343 110.58 110.503 110.14C110.703 109.7 110.803 109.42 110.803 109.3C110.723 108.94 110.763 108.66 110.923 108.46C111.083 108.22 111.343 108.02 111.703 107.86C111.903 107.66 112.223 107.3 112.663 106.78C113.143 106.26 113.583 105.64 113.983 104.92C114.343 104.08 114.763 103.22 115.243 102.34C115.723 101.46 116.363 100.36 117.163 99.04C117.963 97.68 119.003 95.92 120.283 93.76C121.083 92.36 121.963 90.94 122.923 89.5C123.883 88.02 124.903 86.56 125.983 85.12C126.423 84.56 126.823 84.12 127.183 83.8C127.543 83.44 127.903 83.28 128.263 83.32C128.743 83.32 129.283 83.48 129.883 83.8C130.523 84.12 131.103 84.54 131.623 85.06C132.143 85.58 132.523 86.14 132.763 86.74C132.963 87.06 133.043 87.74 133.003 88.78C132.963 89.82 132.883 91.08 132.763 92.56C132.643 94.04 132.503 95.62 132.343 97.3C132.223 98.94 132.043 100.88 131.803 103.12C131.563 105.36 131.323 107.7 131.083 110.14C130.883 112.58 130.723 114.94 130.603 117.22C130.483 119.46 130.483 121.42 130.603 123.1C130.643 123.46 130.643 123.8 130.603 124.12C130.563 124.44 130.543 124.7 130.543 124.9C130.303 125.14 129.903 125.24 129.343 125.2C128.823 125.2 128.303 125.08 127.783 124.84C127.303 124.6 127.023 124.3 126.943 123.94C126.823 123.82 126.743 123.66 126.703 123.46C126.703 123.22 126.723 122.74 126.763 122.02C126.803 121.3 126.843 120.16 126.883 118.6L127.183 108.88L126.403 108.94C126.043 108.94 125.363 108.98 124.363 109.06C123.363 109.14 122.283 109.26 121.123 109.42C119.963 109.54 118.883 109.68 117.883 109.84C116.923 109.96 116.263 110.08 115.903 110.2C115.543 110.2 115.103 110.44 114.583 110.92C114.103 111.4 113.643 112.02 113.203 112.78C113.043 113.34 112.743 113.94 112.303 114.58C111.903 115.18 111.703 115.58 111.703 115.78C111.423 115.98 111.183 116.22 110.983 116.5C110.823 116.78 110.743 116.92 110.743 116.92C110.743 117.16 110.543 117.76 110.143 118.72C109.783 119.64 109.323 120.68 108.763 121.84C108.203 122.96 107.643 123.94 107.083 124.78L105.823 126.7L104.863 125.98ZM117.283 106.66C117.283 106.66 117.483 106.62 117.883 106.54C118.323 106.46 118.823 106.38 119.383 106.3C119.983 106.18 120.523 106.12 121.003 106.12C122.683 105.72 123.903 105.46 124.663 105.34C125.423 105.18 125.943 105.1 126.223 105.1C126.543 105.1 126.823 105.16 127.063 105.28C127.223 105.48 127.363 105.6 127.483 105.64C127.643 105.68 127.723 105.7 127.723 105.7C127.763 105.62 127.823 105.16 127.903 104.32C127.983 103.48 128.083 102.44 128.203 101.2C128.363 99.96 128.503 98.68 128.623 97.36C128.783 96 128.903 94.76 128.983 93.64C129.063 92.48 129.123 91.6 129.163 91C129.203 90.24 129.243 89.56 129.283 88.96C129.323 88.32 129.343 88 129.343 88C129.103 88 128.583 88.44 127.783 89.32C127.023 90.2 126.163 91.36 125.203 92.8C124.243 94.24 123.343 95.78 122.503 97.42C122.103 98.18 121.723 98.86 121.363 99.46C121.003 100.06 120.723 100.36 120.523 100.36C120.443 100.44 120.203 100.8 119.803 101.44C119.443 102.04 119.043 102.74 118.603 103.54C118.163 104.3 117.803 105 117.523 105.64C117.243 106.24 117.163 106.58 117.283 106.66Z" fill="#0A0A0A"/>
</svg>
