<svg width="195" height="188" viewBox="0 0 195 188" fill="none" xmlns="http://www.w3.org/2000/svg">
<path d="M67.4706 23.7245C76.9209 -5.24151 118.079 -5.2415 127.529 23.7245C132.294 38.3283 145.955 48.2084 161.362 48.2084C191.965 48.2084 204.649 87.1846 179.924 105.076C167.455 114.098 162.233 130.094 166.998 144.7C176.438 173.635 143.175 197.764 118.407 179.842C105.94 170.822 89.0602 170.822 76.5933 179.842C51.8252 197.764 18.5616 173.635 28.0019 144.7C32.7669 130.094 27.5454 114.098 15.0765 105.076C-9.64941 87.1846 3.03499 48.2084 33.6384 48.2084C49.0447 48.2084 62.706 38.3283 67.4706 23.7245Z" stroke="#91FF6A" stroke-width="4"/>
</svg>
