<svg width="542" height="124" viewBox="0 0 542 124" fill="none" xmlns="http://www.w3.org/2000/svg">
<path d="M2 119.2C2 120.305 2.89543 121.2 4 121.2H55.04C63.1191 121.2 69.9915 119.69 75.5465 116.54L75.56 116.532C81.0686 113.352 85.1931 108.951 87.8797 103.352C90.5938 97.8081 91.92 91.4467 91.92 84.32C91.92 77.5171 89.9847 71.3304 86.1215 65.8173C83.9223 62.6355 81.1057 60.1134 77.7103 58.2341C79.2826 56.8939 80.6785 55.3239 81.893 53.526C85.1031 48.8531 86.64 43.0742 86.64 36.32C86.64 30.9336 85.3904 25.6295 82.9279 20.4247C80.4066 15.0956 76.4336 10.7156 71.0866 7.2809C65.5987 3.70163 58.5433 2 50.08 2H4C2.89543 2 2 2.89543 2 4V119.2ZM64.271 90.5948L64.2635 90.6077C63.1704 92.5207 61.6549 94.0197 59.681 95.1248C57.7168 96.1719 55.4398 96.72 52.8 96.72H28.08V71.28H52.8C55.9144 71.28 58.3479 71.8738 60.2077 72.9365C60.2239 72.9457 60.2402 72.9548 60.2567 72.9636C62.2264 74.0171 63.6303 75.4193 64.5492 77.1697C65.5002 78.981 66 81.0816 66 83.52C66 86.3195 65.3993 88.6542 64.271 90.5948ZM232.146 121.2C233.251 121.2 234.146 120.305 234.146 119.2V4C234.146 2.89543 233.251 2 232.146 2H210.066C209.39 2 208.76 2.3414 208.391 2.90757L161.986 74.0714V4C161.986 2.89543 161.091 2 159.986 2H137.906C136.802 2 135.906 2.89543 135.906 4V119.2C135.906 120.305 136.802 121.2 137.906 121.2H159.986C160.662 121.2 161.292 120.859 161.662 120.292L208.066 49.1287V119.2C208.066 120.305 208.962 121.2 210.066 121.2H232.146ZM252.469 119.2C252.469 120.305 253.364 121.2 254.469 121.2H276.229C277.333 121.2 278.229 120.305 278.229 119.2V26.32H329.669C330.773 26.32 331.669 25.4246 331.669 24.32V4C331.669 2.89543 330.773 2 329.669 2H254.469C253.364 2 252.469 2.89543 252.469 4V119.2ZM340.438 119.2C340.438 120.305 341.333 121.2 342.438 121.2H364.197C365.302 121.2 366.197 120.305 366.197 119.2V82.16H391.077C392.199 82.16 393.736 82.1043 395.668 81.9969C397.631 81.8879 399.397 81.7232 400.96 81.4999L400.986 81.496C408.071 80.389 414.014 78.0159 418.714 74.2917C423.415 70.6092 426.882 65.9781 429.092 60.4282C431.333 54.8808 432.438 48.7557 432.438 42.08C432.438 35.4122 431.363 29.3179 429.178 23.8252C426.969 18.2193 423.502 13.5559 418.794 9.86837C414.096 6.14593 408.132 3.7749 401.006 2.66709C399.407 2.38298 397.616 2.21756 395.643 2.1616C393.773 2.05507 392.246 2 391.077 2H342.438C341.333 2 340.438 2.89543 340.438 4V119.2ZM396.951 57.1105L396.928 57.117C395.952 57.3957 394.858 57.5887 393.638 57.6864C392.348 57.7896 391.175 57.84 390.117 57.84H366.197V26.32H390.117C391.175 26.32 392.348 26.3704 393.638 26.4736C394.858 26.5713 395.952 26.7643 396.928 27.0431L396.951 27.0495C399.576 27.7654 401.456 28.9379 402.741 30.4804L402.759 30.5016C404.16 32.1365 405.107 33.9647 405.617 36.0051C405.622 36.0226 405.626 36.0402 405.631 36.0576C406.229 38.2007 406.517 40.2057 406.517 42.08C406.517 43.9552 406.229 45.9904 405.628 48.1938L405.62 48.2243C405.112 50.209 404.166 52.0469 402.751 53.7482C401.467 55.2411 399.585 56.3923 396.951 57.1105ZM458.468 118.313C458.161 118.933 458.196 119.667 458.561 120.255C458.926 120.843 459.568 121.2 460.26 121.2H483.46C484.234 121.2 484.938 120.754 485.268 120.054L539.668 4.85401C539.961 4.23445 539.916 3.50825 539.549 2.92949C539.183 2.35074 538.545 2 537.86 2H514.66C513.873 2 513.16 2.4611 512.837 3.17826L487.653 59.0589L463.374 3.20273C463.057 2.47241 462.336 2 461.54 2H436.9C436.214 2 435.576 2.35153 435.209 2.93134C434.843 3.51115 434.799 4.23835 435.093 4.85797L474.037 86.8619L458.468 118.313ZM49.76 46.96H28.08V26.32H49.76C53.5256 26.32 56.0941 27.3929 57.8016 29.267C59.6232 31.2663 60.56 33.7327 60.56 36.8C60.56 39.3666 60.0522 41.2885 59.1854 42.6977C58.279 44.1175 57.0668 45.1595 55.5077 45.8524C53.8827 46.5746 51.98 46.96 49.76 46.96Z" stroke="#0A0A0A" stroke-width="4" stroke-linejoin="round"/>
</svg>
