<svg width="1400" height="1443" viewBox="0 0 1400 1443" fill="none" xmlns="http://www.w3.org/2000/svg">
<g filter="url(#filter0_f_4117_5986)">
<path fill-rule="evenodd" clip-rule="evenodd" d="M510.397 506.981C638.542 404.48 670.412 147.29 833.889 161.156C992.959 174.649 997.176 414.333 1073.09 554.709C1137.42 673.655 1256.69 774.432 1238.01 908.393C1218.69 1046.93 1102.08 1150.21 980.427 1219.32C866.988 1283.77 733.936 1296.79 606.976 1266.9C483.983 1237.94 382.404 1161.5 306.368 1060.62C224.228 951.646 125.16 818.387 172.364 690.296C218.433 565.287 406.339 590.215 510.397 506.981Z" fill="url(#paint0_linear_4117_5986)"/>
</g>
<defs>
<filter id="filter0_f_4117_5986" x="0.140625" y="0.617188" width="1399.83" height="1441.56" filterUnits="userSpaceOnUse" color-interpolation-filters="sRGB">
<feFlood flood-opacity="0" result="BackgroundImageFix"/>
<feBlend mode="normal" in="SourceGraphic" in2="BackgroundImageFix" result="shape"/>
<feGaussianBlur stdDeviation="80" result="effect1_foregroundBlur_4117_5986"/>
</filter>
<linearGradient id="paint0_linear_4117_5986" x1="33" y1="654.902" x2="1381.94" y2="552.203" gradientUnits="userSpaceOnUse">
<stop stop-color="#3300FF"/>
<stop offset="1" stop-color="#09BDB2"/>
</linearGradient>
</defs>
</svg>
