<svg width="1404" height="850" viewBox="0 0 1404 850" fill="none" xmlns="http://www.w3.org/2000/svg">
<path fill-rule="evenodd" clip-rule="evenodd" d="M995.622 310.896C1027.04 249.371 1057.47 190.82 1083.96 143.138C1102.99 108.882 1120.85 78.6369 1136.18 56.4883C1143.68 45.6438 1151.94 34.7302 1160.54 25.9326C1164.8 21.5792 1170.72 16.0946 1178.12 11.3715C1184.64 7.21539 1198.64 -0.482239 1217.5 0.024231C1231.74 0.406372 1246.29 5.31036 1258.4 15.4384C1269.65 24.8406 1275.55 36.0016 1278.66 44.2042C1284.38 59.2805 1284.42 74.2471 1284.05 83.0867C1283.23 102.577 1278.36 126.007 1272.56 148.75C1269.9 159.194 1266.82 170.323 1263.41 181.963C1271.19 168.055 1279.04 153.62 1286.95 138.652C1302.43 109.351 1338.73 98.1456 1368.03 113.623C1397.33 129.1 1408.53 165.4 1393.06 194.701C1325.25 323.073 1260.15 415.894 1210.18 477.531C1185.22 508.313 1163.89 531.504 1147.69 547.563C1139.65 555.541 1132.52 562.105 1126.59 567.098C1123.69 569.538 1120.5 572.089 1117.25 574.381C1115.66 575.505 1113.42 577.021 1110.77 578.548L1110.7 578.583C1109.05 579.536 1102.92 583.058 1094.54 585.192C1082.84 588.167 1065.15 588.673 1047.98 578.056C1032.27 568.343 1025.62 554.549 1022.98 547.25C1020.47 540.338 1019.62 533.907 1019.39 529.183C987.51 591.826 956.578 651.806 929.676 700.898C910.577 735.748 892.748 766.523 877.539 789.33C870.046 800.566 862.114 811.508 854.113 820.409C850.136 824.833 844.986 830.06 838.808 834.773C833.536 838.796 822.348 846.512 806.585 849.12C786.352 852.468 763.684 846.266 747.85 828.263C735.744 814.499 732.649 799.3 731.603 792.624C729.347 778.218 731.067 763.229 732.604 752.931C736.045 729.875 743.823 699.206 753.412 665.756C772.879 597.849 803.138 507.25 833.126 418.183C835.87 410.033 838.611 401.896 841.344 393.785C843.803 386.489 846.253 379.214 848.692 371.974C837.788 388.321 826.765 404.888 815.723 421.491C813.884 424.256 812.045 427.022 810.205 429.789C761.455 503.096 712.673 576.449 673.751 631.677C653.666 660.175 635.346 685.081 620.546 703C613.347 711.716 605.566 720.519 597.906 727.496C594.235 730.839 588.599 735.616 581.533 739.675C577.108 742.216 558.665 752.677 534.589 747.31C511.081 742.069 497.736 725.728 491.63 713.56C486.194 702.727 484.835 692.562 484.354 687.135C483.348 675.783 484.655 664.323 485.919 655.893C488.64 637.754 494.273 614.679 500.973 590.235C514.421 541.172 534.845 477.135 554.731 414.787L555.373 412.773C557.307 406.709 559.236 400.663 561.152 394.645C549.72 409.222 538.105 424.135 526.463 439.147C504.372 467.635 480.888 498.177 458.747 526.973C437.935 554.041 418.308 579.568 402.137 600.397C384.636 622.94 369.185 642.584 357.192 657.222C351.237 664.491 345.718 671.037 341.002 676.274C338.664 678.87 336.093 681.625 333.479 684.18C331.691 685.93 326.836 690.66 320.372 694.746C314.912 698.198 303.43 704.314 287.6 704.401C269.062 704.503 253.139 696.327 242.491 684.844C233.494 675.141 229.88 664.977 228.396 659.936C226.737 654.3 226.139 649.422 225.877 646.329C224.983 635.792 226.493 625.016 227.409 618.992C229.657 604.217 234.142 584.028 239.452 561.994C247.372 529.133 258.32 487.383 269.709 443.952C273.807 428.326 277.961 412.483 282.052 396.758C282.401 395.419 282.749 394.08 283.096 392.743C221.56 478.757 154.384 577.286 109.907 643.917C91.5098 671.478 54.2533 678.907 26.6923 660.509C-0.868652 642.112 -8.29724 604.856 10.1001 577.295C57.5693 506.181 130.769 398.888 196.134 308.105C228.742 262.817 259.892 220.951 285.137 189.583C297.667 174.015 309.494 160.09 319.766 149.378C324.843 144.083 330.444 138.621 336.215 133.898C340.102 130.718 351.08 121.799 366.201 117.712C382.203 113.387 403.121 114.615 421.171 128.314C436.114 139.655 441.848 154.257 444.052 161.2C448.44 175.02 448.113 188.882 447.785 196.137C446.999 213.52 443.305 235.743 438.776 258.415C430.871 297.987 418.377 348.637 405.23 399.756C413.822 388.617 422.621 377.235 431.634 365.612C476.498 307.757 522.302 249.658 559.234 206.087C577.56 184.467 594.663 165.277 608.881 151.243C615.82 144.394 623.534 137.306 631.32 131.614C635.154 128.811 640.619 125.146 647.231 122.095C652.508 119.66 666.083 113.963 683.549 116.063C707.108 118.896 722.767 133.568 730.725 147.211C737.416 158.681 739.156 169.717 739.782 175.307C741.099 187.06 739.806 198.845 738.619 207.098C736.028 225.106 730.467 248.065 723.859 272.294C713.818 309.11 699.744 354.584 684.883 401.514C693.468 388.623 702.141 375.582 710.852 362.483L715.803 355.038C766.419 278.93 818.021 201.455 859.626 142.829C880.333 113.65 899.365 87.9991 915.02 69.1776C922.717 59.9241 930.749 50.9171 938.546 43.6885C942.392 40.1227 947.475 35.77 953.469 31.9054C958.047 28.9537 970.18 21.5444 986.935 20.4548C998.649 19.6932 1011.89 22.1331 1024.14 29.7208C1035.85 36.9716 1042.84 46.5585 1046.82 54.0804C1053.9 67.459 1054.7 80.3578 1054.9 85.6561C1055.38 98.0792 1053.26 111.368 1051.23 121.828C1046.83 144.483 1038.44 174.88 1028.23 208.64C1019.05 238.98 1007.86 273.781 995.622 310.896ZM412.209 226.769C413.033 226.094 412.898 226.314 411.914 227.018C412.038 226.911 412.136 226.829 412.209 226.769ZM327.952 189.107C327.921 188.659 327.922 188.416 327.93 188.41C327.938 188.405 327.953 188.626 327.952 189.107ZM702.087 228.527C702.172 228.469 702.213 228.437 702.211 228.438C702.209 228.439 702.186 228.455 702.142 228.487C702.125 228.499 702.106 228.513 702.087 228.527ZM1020.7 131.181C1020.7 131.183 1020.67 131.21 1020.6 131.26C1020.67 131.204 1020.7 131.178 1020.7 131.181ZM1246.59 109.582C1246.59 109.584 1246.54 109.636 1246.44 109.731C1246.54 109.627 1246.59 109.579 1246.59 109.582ZM1164.17 77.2606C1164.14 76.8147 1164.15 76.571 1164.16 76.5606C1164.16 76.5502 1164.18 76.7732 1164.17 77.2606ZM1138.17 537.262C1138.18 537.207 1138.2 537.145 1138.22 537.075C1138.1 537.592 1138.05 537.691 1138.17 537.262ZM764.254 740.847C764.213 740.888 764.193 740.907 764.193 740.907C764.193 740.906 764.213 740.886 764.254 740.847Z" fill="#91FF6A"/>
<path fill-rule="evenodd" clip-rule="evenodd" d="M1021.32 241.729C1021.37 241.544 1021.39 241.473 1021.39 241.473C1021.39 241.473 1021.39 241.476 1021.39 241.482C1021.56 240.408 1022.61 239.681 1023.71 239.858C1024.82 240.034 1025.57 241.048 1025.39 242.122C1025.33 242.474 1025.15 243.073 1024.94 243.714C1024.71 244.425 1024.39 245.38 1023.98 246.556C1023.17 248.911 1022 252.186 1020.53 256.243C1020.46 256.42 1020.4 256.599 1020.33 256.78C1027.77 241.864 1034.94 227.232 1041.61 213.172C1042.08 212.184 1043.28 211.754 1044.3 212.212C1045.32 212.669 1045.76 213.841 1045.3 214.829C1033.84 238.972 1020.93 264.814 1007.65 290.873C997.639 317.321 984.384 351.518 970.578 385.46C956.444 420.209 941.718 454.723 929.303 480.383C923.1 493.203 917.447 503.871 912.711 511.265C910.349 514.952 908.165 517.907 906.206 519.917C905.228 520.92 904.241 521.757 903.252 522.324C902.277 522.884 901.105 523.291 899.855 523.105C898.796 522.947 897.862 522.468 897.154 521.671C896.479 520.911 896.107 519.974 895.911 519.023C895.526 517.161 895.717 514.753 896.253 512.016C897.338 506.479 900.024 498.718 903.916 489.244C911.719 470.251 924.564 443.907 939.885 413.711C949.74 394.287 960.623 373.26 971.865 351.539C982.415 331.156 993.282 310.162 1003.91 289.309C1004.13 288.74 1004.34 288.175 1004.55 287.614C1009.59 274.276 1013.76 263.022 1016.7 254.925C1018.17 250.875 1019.33 247.62 1020.14 245.291C1020.54 244.126 1020.85 243.2 1021.07 242.527C1021.18 242.189 1021.26 241.924 1021.32 241.729ZM990.522 324.243C985.464 334.048 980.42 343.794 975.448 353.401C964.215 375.103 953.35 396.096 943.525 415.46C928.203 445.661 915.422 471.879 907.685 490.712C903.808 500.15 901.247 507.617 900.239 512.761C899.729 515.364 899.663 517.16 899.889 518.257C899.998 518.785 900.149 519.016 900.224 519.1C900.265 519.147 900.307 519.186 900.458 519.209C900.467 519.209 900.682 519.217 901.182 518.929C901.721 518.62 902.414 518.068 903.256 517.204C904.937 515.479 906.953 512.785 909.264 509.177C913.872 501.983 919.446 491.482 925.63 478.7C937.99 453.155 952.678 418.733 966.804 384.004C975.105 363.597 983.207 343.095 990.522 324.243Z" fill="#1B1B1B"/>
<path fill-rule="evenodd" clip-rule="evenodd" d="M690.326 383.409C690.444 383.056 690.502 382.864 690.526 382.784C690.539 382.741 690.542 382.731 690.54 382.745C690.731 381.673 691.782 380.957 692.886 381.146C693.99 381.335 694.729 382.357 694.537 383.429C694.491 383.688 694.37 384.077 694.242 384.464C698.017 376.966 701.667 369.603 705.135 362.449C705.612 361.465 706.821 361.045 707.835 361.51C708.849 361.976 709.284 363.151 708.807 364.135C700.498 381.272 691.145 399.622 681.529 418.128C674.224 436.886 664.558 461.136 654.504 485.21C644.207 509.867 633.49 534.372 624.48 552.609C619.979 561.717 615.877 569.319 612.447 574.605C610.738 577.238 609.144 579.377 607.705 580.85C606.987 581.584 606.243 582.22 605.479 582.663C604.733 583.096 603.766 583.46 602.695 583.313C601.81 583.191 601.009 582.793 600.406 582.113C599.837 581.471 599.548 580.699 599.405 579.965C599.126 578.536 599.301 576.744 599.707 574.79C600.533 570.816 602.518 565.272 605.354 558.546C611.045 545.049 620.367 526.324 631.463 504.877C638.605 491.072 646.487 476.13 654.627 460.698C662.259 446.23 670.118 431.331 677.808 416.533C677.962 416.139 678.114 415.747 678.265 415.358C681.943 405.9 684.988 397.921 687.135 392.181C688.209 389.311 689.057 387.005 689.646 385.358C689.941 384.533 690.169 383.881 690.326 383.409ZM663.668 452.208C661.834 455.687 660.008 459.149 658.195 462.585C650.065 477.999 642.201 492.907 635.089 506.653C623.991 528.105 614.734 546.707 609.109 560.047C606.288 566.739 604.43 571.993 603.685 575.578C603.306 577.404 603.263 578.582 603.391 579.239C603.394 579.251 603.396 579.263 603.399 579.274C603.723 579.085 604.177 578.727 604.759 578.132C605.927 576.938 607.354 575.053 609.013 572.498C612.317 567.406 616.339 559.968 620.821 550.896C629.775 532.772 640.455 508.358 650.743 483.721C655.184 473.089 659.549 462.421 663.668 452.208Z" fill="#1B1B1B"/>
<path fill-rule="evenodd" clip-rule="evenodd" d="M419.631 359.169C419.701 358.955 419.721 358.873 419.721 358.874L419.721 358.875C419.942 357.801 421.003 357.12 422.091 357.354C423.178 357.588 423.881 358.648 423.659 359.722C423.582 360.099 423.373 360.71 423.131 361.378C422.867 362.107 422.501 363.073 422.042 364.251C421.124 366.611 419.819 369.863 418.181 373.867C417.134 376.425 415.951 379.293 414.643 382.435C423.329 367.994 431.718 353.679 439.523 339.751C440.058 338.795 441.28 338.461 442.252 339.004C443.224 339.548 443.578 340.763 443.043 341.719C431.041 363.137 417.648 385.49 403.924 407.797C392.907 433.528 378.401 466.508 363.457 498.666C348.153 531.599 332.368 563.717 319.392 586.302C312.917 597.573 307.081 606.577 302.31 612.122C299.954 614.86 297.694 616.954 295.597 617.967C294.526 618.484 293.33 618.802 292.1 618.613C290.809 618.415 289.768 617.702 289.002 616.694C287.674 614.948 287.07 612.73 286.948 610.278C286.826 607.822 287.179 604.991 287.906 601.859C289.359 595.596 292.384 587.814 296.601 578.843C305.044 560.882 318.451 537.782 334.302 511.861C344.506 495.174 355.729 477.309 367.318 458.86C378.179 441.571 389.362 423.768 400.332 405.94C400.564 405.398 400.794 404.86 401.023 404.325C406.572 391.343 411.185 380.316 414.453 372.329C416.087 368.334 417.383 365.106 418.29 362.775C418.743 361.609 419.097 360.677 419.345 359.99C419.47 359.646 419.564 359.373 419.631 359.169ZM389.369 431.272C383.093 441.33 376.826 451.307 370.666 461.113C359.093 479.537 347.901 497.354 337.747 513.958C321.899 539.874 308.593 562.814 300.249 580.563C296.072 589.447 293.184 596.938 291.824 602.801C291.144 605.731 290.865 608.175 290.963 610.136C291.06 612.102 291.528 613.443 292.201 614.327C292.435 614.635 292.585 614.668 292.663 614.68C292.803 614.701 293.153 614.694 293.795 614.384C295.123 613.743 296.948 612.176 299.236 609.516C303.751 604.268 309.435 595.537 315.892 584.298C328.78 561.865 344.507 529.873 359.802 496.961C370.214 474.555 380.415 451.745 389.369 431.272Z" fill="#1B1B1B"/>
<path fill-rule="evenodd" clip-rule="evenodd" d="M1285.78 110.042C1285.83 109.857 1285.85 109.785 1285.85 109.786C1285.85 109.786 1285.85 109.789 1285.85 109.795C1286.03 108.721 1287.07 107.993 1288.17 108.17C1289.28 108.347 1290.03 109.361 1289.85 110.435C1289.79 110.786 1289.61 111.385 1289.4 112.026C1289.17 112.738 1288.85 113.693 1288.44 114.869C1287.63 117.223 1286.46 120.498 1284.99 124.556C1284.92 124.733 1284.86 124.912 1284.79 125.092C1292.23 110.177 1299.4 95.5442 1306.07 81.484C1306.54 80.4965 1307.74 80.0668 1308.76 80.5244C1309.78 80.9819 1310.22 82.1535 1309.76 83.141C1298.3 107.284 1285.39 133.126 1272.11 159.185C1262.1 185.633 1248.84 219.831 1235.04 253.773C1220.9 288.522 1206.18 323.036 1193.76 348.696C1187.56 361.516 1181.91 372.184 1177.17 379.578C1174.81 383.264 1172.63 386.219 1170.67 388.229C1169.69 389.232 1168.7 390.069 1167.71 390.637C1166.74 391.196 1165.57 391.604 1164.32 391.418C1163.26 391.26 1162.32 390.78 1161.62 389.984C1160.94 389.224 1160.57 388.287 1160.37 387.336C1159.99 385.473 1160.18 383.066 1160.71 380.328C1161.8 374.791 1164.49 367.03 1168.38 357.556C1176.18 338.564 1189.03 312.22 1204.35 282.023C1214.2 262.599 1225.08 241.572 1236.33 219.851C1246.88 199.468 1257.74 178.474 1268.37 157.621C1268.59 157.053 1268.8 156.488 1269.01 155.926C1274.05 142.589 1278.22 131.335 1281.16 123.237C1282.63 119.188 1283.79 115.933 1284.6 113.604C1285 112.438 1285.31 111.513 1285.53 110.839C1285.64 110.502 1285.72 110.237 1285.78 110.042ZM1254.98 192.556C1249.93 202.361 1244.88 212.107 1239.91 221.714C1228.68 243.416 1217.81 264.408 1207.99 283.772C1192.66 313.973 1179.88 340.192 1172.15 359.024C1168.27 368.463 1165.71 375.93 1164.7 381.074C1164.19 383.677 1164.12 385.473 1164.35 386.569C1164.46 387.098 1164.61 387.329 1164.68 387.412C1164.73 387.459 1164.77 387.498 1164.92 387.521C1164.93 387.521 1165.14 387.529 1165.64 387.242C1166.18 386.932 1166.87 386.38 1167.72 385.516C1169.4 383.791 1171.41 381.098 1173.73 377.49C1178.33 370.295 1183.91 359.794 1190.09 347.012C1202.45 321.467 1217.14 287.045 1231.26 252.317C1239.57 231.909 1247.67 211.408 1254.98 192.556Z" fill="#1B1B1B"/>
<path fill-rule="evenodd" clip-rule="evenodd" d="M789.806 469.101C788.872 468.493 788.613 467.265 789.228 466.361C794.303 458.895 813.603 428.663 837.427 390.434C848.897 368.063 862.353 341.972 876.033 315.917C894.053 281.595 912.474 247.312 927.263 221.669C934.654 208.854 941.16 198.159 946.266 190.688C948.814 186.96 951.051 183.98 952.902 181.929C953.823 180.908 954.703 180.056 955.524 179.454C956.251 178.92 957.323 178.283 958.544 178.376C959.226 178.428 959.908 178.709 960.427 179.272C960.902 179.787 961.102 180.389 961.188 180.871C961.354 181.795 961.209 182.875 960.972 183.923C960.48 186.094 959.348 189.114 957.734 192.787C954.486 200.177 949.085 210.649 942.197 223.196C928.412 248.309 908.568 281.924 887.789 316.239C871.988 342.336 855.634 368.857 840.979 392.373C837.366 399.42 833.95 406.097 830.787 412.287C828.479 416.803 826.305 421.06 824.287 425.012C820.528 432.373 817.31 438.675 814.773 443.62C812.823 447.42 811.272 450.425 810.183 452.498C809.64 453.533 809.207 454.345 808.896 454.91C808.742 455.19 808.608 455.426 808.502 455.603C808.451 455.689 808.392 455.784 808.332 455.872C808.303 455.915 808.257 455.98 808.199 456.051L808.196 456.055C808.169 456.089 808 456.3 807.728 456.478C806.805 457.085 805.545 456.842 804.913 455.936C804.404 455.204 804.459 454.264 804.985 453.61C804.99 453.602 804.995 453.594 805 453.585C805.07 453.469 805.176 453.282 805.324 453.014C805.616 452.484 806.034 451.7 806.575 450.67C807.654 448.615 809.198 445.623 811.147 441.825C812.677 438.842 814.455 435.367 816.45 431.463C804.537 450.303 795.803 463.87 792.611 468.566C791.996 469.47 790.74 469.71 789.806 469.101ZM864.797 346.184C871.286 335.612 877.837 324.874 884.297 314.206C905.068 279.901 924.878 246.343 938.622 221.305C945.5 208.776 950.833 198.428 954.009 191.2C955.453 187.915 956.411 185.363 956.882 183.579C956.599 183.858 956.29 184.182 955.954 184.555C954.279 186.41 952.159 189.22 949.643 192.901C944.622 200.247 938.176 210.838 930.798 223.631C916.048 249.205 897.657 283.432 879.642 317.745C874.635 327.281 869.658 336.822 864.797 346.184ZM957.198 181.508C957.198 181.508 957.198 181.51 957.199 181.514C957.198 181.51 957.198 181.508 957.198 181.508Z" fill="#1B1B1B"/>
<path fill-rule="evenodd" clip-rule="evenodd" d="M531.221 447.469C530.26 446.902 529.945 445.687 530.516 444.755C534.366 438.481 548.927 412.994 566.858 380.731C575.291 361.729 585.191 339.572 595.28 317.457C608.573 288.317 622.205 259.226 633.248 237.51C638.766 226.659 643.658 217.609 647.55 211.306C649.49 208.164 651.221 205.64 652.687 203.905C653.414 203.045 654.137 202.305 654.843 201.78C655.462 201.319 656.479 200.708 657.689 200.874C658.345 200.964 658.946 201.271 659.395 201.774C659.809 202.238 660.006 202.765 660.105 203.199C660.294 204.034 660.226 204.997 660.078 205.92C659.773 207.826 658.973 210.438 657.81 213.578C655.469 219.901 651.487 228.81 646.376 239.451C636.144 260.751 621.289 289.192 605.693 318.194C593.837 340.242 581.54 362.636 570.508 382.488C567.854 388.469 565.345 394.135 563.023 399.389C561.327 403.224 559.73 406.84 558.248 410.197C555.484 416.453 553.119 421.81 551.252 426.012C549.818 429.24 548.675 431.795 547.872 433.556C547.471 434.435 547.149 435.128 546.916 435.611C546.801 435.85 546.699 436.056 546.615 436.214C546.574 436.29 546.525 436.381 546.471 436.468C546.445 436.509 546.401 436.579 546.343 436.656L546.341 436.659C546.317 436.691 546.138 436.936 545.831 437.138C544.908 437.744 543.648 437.501 543.017 436.595C542.53 435.897 542.559 435.009 543.02 434.36C543.068 434.269 543.143 434.12 543.248 433.902C543.462 433.456 543.77 432.794 544.168 431.921C544.963 430.178 546.099 427.639 547.533 424.412C548.155 423.012 548.832 421.484 549.56 419.838C541.831 433.478 536.199 443.221 533.997 446.808C533.425 447.74 532.183 448.035 531.221 447.469ZM590.551 337.675C594.409 330.591 598.278 323.444 602.103 316.332C617.692 287.342 632.513 258.965 642.705 237.746C647.806 227.127 651.723 218.351 653.999 212.204C654.89 209.798 655.505 207.861 655.848 206.405C655.84 206.415 655.831 206.426 655.822 206.436C654.545 207.947 652.934 210.277 651.025 213.368C647.219 219.531 642.385 228.466 636.88 239.293C625.876 260.932 612.272 289.963 598.983 319.092C596.148 325.307 593.328 331.525 590.551 337.675ZM657.597 204.754C657.597 204.754 657.591 204.757 657.58 204.761C657.592 204.756 657.597 204.754 657.597 204.754ZM656.151 204.018C656.15 204.013 656.15 204.012 656.151 204.018Z" fill="#1B1B1B"/>
<path fill-rule="evenodd" clip-rule="evenodd" d="M268.716 417.651C267.754 417.085 267.438 415.87 268.009 414.938C270.097 411.531 278.016 397.648 287.774 380.064C292.365 369.698 297.752 357.616 303.243 345.556C310.485 329.648 317.918 313.756 323.943 301.887C326.952 295.959 329.63 290.994 331.771 287.522C332.835 285.795 333.806 284.374 334.648 283.377C335.064 282.884 335.509 282.422 335.974 282.076C336.352 281.794 337.165 281.265 338.21 281.409C338.784 281.488 339.316 281.76 339.712 282.204C340.073 282.607 340.231 283.052 340.306 283.379C340.448 284.002 340.389 284.663 340.304 285.197C340.124 286.327 339.663 287.819 339.026 289.543C337.737 293.034 335.553 297.927 332.766 303.739C327.183 315.384 319.082 330.921 310.583 346.752C304.129 358.774 297.434 370.987 291.424 381.818C289.985 385.069 288.624 388.149 287.364 391.006C286.441 393.099 285.571 395.072 284.763 396.904C283.258 400.319 281.969 403.244 280.952 405.538C280.171 407.3 279.547 408.698 279.107 409.664C278.888 410.145 278.71 410.53 278.578 410.803C278.514 410.936 278.453 411.061 278.399 411.163C278.373 411.21 278.336 411.279 278.292 411.351C278.271 411.384 278.231 411.448 278.176 411.52L278.175 411.522C278.155 411.549 277.978 411.793 277.672 411.994C276.749 412.601 275.489 412.358 274.858 411.452C274.835 411.419 274.814 411.387 274.794 411.354C273.254 414.028 272.119 415.965 271.491 416.989C270.92 417.921 269.678 418.217 268.716 417.651ZM314.513 330.749C320.127 320.081 325.225 310.107 329.094 302.037C330.742 298.6 332.158 295.526 333.294 292.902C331.62 295.857 329.691 299.5 327.576 303.668C323.677 311.348 319.177 320.741 314.513 330.749ZM338.511 285.185C338.511 285.187 338.497 285.196 338.471 285.21C338.498 285.191 338.512 285.184 338.511 285.185Z" fill="#1B1B1B"/>
<path fill-rule="evenodd" clip-rule="evenodd" d="M1113.64 324.142C1060.26 400.981 1021.46 495.638 1017 555.15L1013.01 554.851C1017.54 494.363 1056.75 399.02 1110.36 321.859L1113.64 324.142Z" fill="#1B1B1B"/>
</svg>
