<svg width="1435" height="1322" viewBox="0 0 1435 1322" fill="none" xmlns="http://www.w3.org/2000/svg">
<path d="M114.721 350.166C239.449 235.023 477.228 75.4688 554.357 80.0985C650.768 85.8857 143.708 624.018 82.4485 753.065C35.4485 852.073 677.763 419.611 920.72 350.166C1163.68 280.72 636.865 594.689 187 1115.08C-246.999 1617.12 1294.28 463.376 1344.93 469.767C1418.45 479.043 1055.64 937.067 637 1195.09" stroke="#91FF6A" stroke-width="160" stroke-linecap="round"/>
<path d="M328 300.018C383.5 232.513 512.5 94.7139 534.5 112.002C559.5 131.648 355 254.015 259.5 337.521" stroke="#0A0A0A" stroke-width="4" stroke-linecap="round"/>
<path d="M416 508.534C328.5 550.037 170.262 663.402 156.999 699.549C137 754.053 264 646.044 439 423.027" stroke="#0A0A0A" stroke-width="4" stroke-linecap="round"/>
</svg>
