<svg width="143" height="326" viewBox="0 0 143 326" fill="none" xmlns="http://www.w3.org/2000/svg">
<path fill-rule="evenodd" clip-rule="evenodd" d="M115.459 0.59732C114.872 0.0981952 114.05 -0.0192026 113.347 0.295531C112.643 0.610265 112.183 1.30114 112.164 2.07152C112.15 2.64376 112.239 3.41248 112.346 4.19264C112.429 4.797 112.537 5.50937 112.656 6.29246L112.656 6.29355C112.698 6.57214 112.742 6.85969 112.787 7.1545C113.129 9.42763 113.532 12.264 113.78 15.3937C114.279 21.7013 114.122 28.9723 111.714 35.037C111.307 36.0636 111.808 37.2263 112.835 37.634C113.861 38.0416 115.024 37.5399 115.432 36.5133C117.791 30.5733 118.2 23.8348 117.944 17.9364C164.637 165.494 77.0562 287.492 1.52614 322.131C0.522112 322.591 0.0814711 323.778 0.541918 324.782C1.00237 325.786 2.18955 326.227 3.19357 325.767C81.5394 289.837 171.843 162.591 119.49 9.85003C126.231 16.7738 132.83 25.4954 138.316 35.7502C138.837 36.7242 140.049 37.0914 141.023 36.5704C141.997 36.0494 142.364 34.8375 141.843 33.8635C134.328 19.814 124.77 8.51229 115.459 0.59732Z" fill="#7CE158"/>
</svg>
