<svg width="1123" height="774" viewBox="0 0 1123 774" fill="none" xmlns="http://www.w3.org/2000/svg">
<g filter="url(#filter0_f_2320_6296)">
<path fill-rule="evenodd" clip-rule="evenodd" d="M151.667 381.331C150.921 277.66 -8.20617 157.149 94.5456 85.0302C197.718 12.6168 361.366 118.781 503.333 134.507C607.15 146.007 714.023 124.017 803.739 163.589C921.19 215.393 1059.32 281.71 1062.93 381.331C1066.56 481.538 931.121 551.201 819.932 610.81C727.657 660.28 617.262 671.265 503.333 681.336C364.143 693.641 189.579 752.013 98.7861 674.558C7.24566 596.465 152.404 483.804 151.667 381.331Z" fill="url(#paint0_linear_2320_6296)"/>
</g>
<defs>
<filter id="filter0_f_2320_6296" x="0" y="0" width="1123" height="774" filterUnits="userSpaceOnUse" color-interpolation-filters="sRGB">
<feFlood flood-opacity="0" result="BackgroundImageFix"/>
<feBlend mode="normal" in="SourceGraphic" in2="BackgroundImageFix" result="shape"/>
<feGaussianBlur stdDeviation="30" result="effect1_foregroundBlur_2320_6296"/>
</filter>
<linearGradient id="paint0_linear_2320_6296" x1="60" y1="714" x2="269.083" y2="-134.935" gradientUnits="userSpaceOnUse">
<stop stop-color="#FA9B00"/>
<stop offset="0.473958" stop-color="#AE4F99"/>
<stop offset="1" stop-color="#3C09D7"/>
</linearGradient>
</defs>
</svg>
