<svg width="543" height="71" viewBox="0 0 543 71" fill="none" xmlns="http://www.w3.org/2000/svg">
<path d="M0.880391 69.301L25.9599 1.81009H33.3099L21.4668 33.6808L66.1599 1.81009H75.5599L29.9056 34.3838L53.2304 69.301H43.6304L20.7702 35.5555L8.23039 69.301H0.880391ZM55.2554 69.301L57.5369 63.1612C59.3122 63.3174 60.8521 63.2549 62.1566 62.9737C63.4727 62.6612 64.6948 61.9738 65.8229 60.9115C66.9844 59.8491 68.2374 58.2712 69.582 56.1777C70.9382 54.053 72.5324 51.2878 74.3647 47.882C76.3681 44.195 78.2657 40.5236 80.0575 36.8678C81.8826 33.2121 83.6585 29.5095 85.3852 25.76C87.1568 21.9792 88.8965 18.1048 90.6044 14.1365C92.3123 10.1683 94.0558 6.05951 95.8349 1.81009H141.285L116.205 69.301H108.855L131.479 8.41857H100.479C99.05 11.6369 97.5917 14.9333 96.1044 18.3079C94.6504 21.6824 93.1007 25.1351 91.4554 28.6658C89.8433 32.1966 88.1073 35.8367 86.2473 39.5862C84.4323 43.3045 82.4542 47.1477 80.3129 51.1159C78.665 54.1155 76.9983 56.8964 75.3128 59.4585C73.6607 62.0207 71.8596 64.1767 69.9094 65.9264C67.9925 67.6762 65.8288 68.8791 63.4183 69.5353C61.0411 70.1915 58.3202 70.1134 55.2554 69.301ZM125.177 69.301L175.057 1.81009H184.807L184.527 69.301H176.877L176.979 5.65332H179.879L132.827 69.301H125.177ZM142.306 52.9438L144.709 46.4759H181.909L179.506 52.9438H142.306ZM220.231 70.707C213.064 70.707 207.565 69.2228 203.735 66.2545C199.916 63.2549 197.722 59.1148 197.15 53.8343C196.579 48.5538 197.577 42.4608 200.143 35.5555C202.709 28.6502 206.24 22.5573 210.735 17.2767C215.231 11.9962 220.497 7.87177 226.533 4.90342C232.581 1.90383 239.188 0.40403 246.355 0.40403C254.722 0.40403 260.806 2.41938 264.608 6.45008C268.422 10.4495 270.058 15.8238 269.517 22.5729L261.338 24.4008C261.79 19.0578 260.613 14.824 257.808 11.6994C255.002 8.5748 250.366 7.01251 243.899 7.01251C238.266 7.01251 233.136 8.21547 228.508 10.6214C223.881 13.0273 219.816 16.3862 216.314 20.6982C212.856 24.9788 210.049 29.9313 207.893 35.5555C205.77 41.1798 204.846 46.1322 205.122 50.4129C205.431 54.6936 207.016 58.0525 209.877 60.4897C212.783 62.8956 217.053 64.0985 222.686 64.0985C229.153 64.0985 234.95 62.5363 240.078 59.4117C245.217 56.2559 249.541 52.022 253.048 46.7103L259.868 48.5381C255.394 55.2872 249.758 60.6771 242.96 64.7078C236.174 68.7073 228.597 70.707 220.231 70.707ZM291.813 70.707C284.646 70.707 279.147 69.2228 275.317 66.2545C271.498 63.2549 269.304 59.1148 268.732 53.8343C268.161 48.5538 269.159 42.4608 271.725 35.5555C274.291 28.6502 277.822 22.5573 282.317 17.2767C286.813 11.9962 292.079 7.87177 298.115 4.90342C304.163 1.90383 310.77 0.40403 317.937 0.40403C326.304 0.40403 332.388 2.41938 336.19 6.45008C340.004 10.4495 341.64 15.8238 341.099 22.5729L332.92 24.4008C333.372 19.0578 332.195 14.824 329.39 11.6994C326.584 8.5748 321.948 7.01251 315.481 7.01251C309.848 7.01251 304.718 8.21547 300.09 10.6214C295.463 13.0273 291.398 16.3862 287.896 20.6982C284.438 24.9788 281.631 29.9313 279.475 35.5555C277.352 41.1798 276.428 46.1322 276.704 50.4129C277.013 54.6936 278.598 58.0525 281.459 60.4897C284.365 62.8956 288.635 64.0985 294.268 64.0985C300.735 64.0985 306.532 62.5363 311.66 59.4117C316.799 56.2559 321.123 52.022 324.63 46.7103L331.451 48.5381C326.976 55.2872 321.34 60.6771 314.542 64.7078C307.756 68.7073 300.179 70.707 291.813 70.707ZM389.217 69.301H381.817L402.386 13.9491L342.167 69.301H334.767L359.847 1.81009H367.247L346.695 57.1151L406.897 1.81009H414.297L389.217 69.301ZM403.224 69.301L428.304 1.81009H435.654L423.811 33.6808L468.504 1.81009H477.904L432.249 34.3838L455.574 69.301H445.974L423.114 35.5555L410.574 69.301H403.224ZM457.599 69.301L507.479 1.81009H517.229L516.949 69.301H509.299L509.401 5.65332H512.301L465.249 69.301H457.599ZM474.727 52.9438L477.131 46.4759H514.331L511.927 52.9438H474.727Z" fill="white"/>
</svg>
