<svg width="130" height="45" viewBox="0 0 130 45" fill="none" xmlns="http://www.w3.org/2000/svg">
<path d="M0.78125 26.5138V35.2678H27.1836V44.0847H36.0054V35.2678H40.3533V26.5138H36.0054V0H27.1836L0.78125 26.5138ZM27.1836 26.5138H11.8085L27.1836 11.2731V26.5138Z" fill="#5528DA"/>
<path d="M53.6135 29.5368V8.81695H69.9338L53.6135 29.5368ZM75.605 35.2678H59.5997L75.605 14.7369V35.2678ZM80.0159 44.0847L84.3637 39.7392V4.47146L80.0159 0H49.1396L44.7917 4.47146V39.7392L49.1396 44.0847H80.0159Z" fill="#5528DA"/>
<path d="M98.8276 44.0847V35.2678L107.586 26.5138H111.997L120.819 35.2678V44.0847H129.578V30.9223L120.819 22.1054L129.578 13.2884V0H120.819V8.87993L111.997 17.6969H107.586L98.8276 8.87993V0H90.0058V13.2884L98.8276 22.1054L90.0058 30.9223V44.0847H98.8276Z" fill="#5528DA"/>
</svg>
