<svg width="413" height="45" viewBox="0 0 413 45" fill="none" xmlns="http://www.w3.org/2000/svg">
<path d="M0.015625 26.5138V35.2678H26.7724V44.0847H35.7126V35.2678H40.1188V26.5138H35.7126V0H26.7724L0.015625 26.5138ZM26.7724 26.5138H11.1909L26.7724 11.2731V26.5138Z" fill="#5528DA"/>
<path d="M53.557 29.5368V8.81695H70.0964L53.557 29.5368ZM75.8437 35.2678H59.6236L75.8437 14.7369V35.2678ZM80.3138 44.0847L84.72 39.7392V4.47146L80.3138 0H49.0231L44.6168 4.47146V39.7392L49.0231 44.0847H80.3138Z" fill="#5528DA"/>
<path d="M99.3781 44.0847V35.2678L108.254 26.5138H112.725L121.665 35.2678V44.0847H130.541V30.9223L121.665 22.1054L130.541 13.2884V0H121.665V8.87993L112.725 17.6969H108.254L99.3781 8.87993V0H90.4379V13.2884L99.3781 22.1054L90.4379 30.9223V44.0847H99.3781Z" fill="#5528DA"/>
<path d="M141.781 26.5138V35.2678H168.184V44.0847H177.005V35.2678H181.353V26.5138H177.005V0H168.184L141.781 26.5138ZM168.184 26.5138H152.808L168.184 11.2731V26.5138Z" fill="#5528DA"/>
<path d="M194.614 29.5368V8.81695H210.934L194.614 29.5368ZM216.605 35.2678H200.6L216.605 14.7369V35.2678ZM221.016 44.0847L225.364 39.7392V4.47146L221.016 0H190.14L185.792 4.47146V39.7392L190.14 44.0847H221.016Z" fill="#5528DA"/>
<path d="M239.828 44.0847V35.2678L248.586 26.5138H252.997L261.819 35.2678V44.0847H270.578V30.9223L261.819 22.1054L270.578 13.2884V0H261.819V8.87993L252.997 17.6969H248.586L239.828 8.87993V0H231.006V13.2884L239.828 22.1054L231.006 30.9223V44.0847H239.828Z" fill="#5528DA"/>
<path d="M281.812 26.5138V35.2678H308.569V44.0847H317.509V35.2678H321.916V26.5138H317.509V0H308.569L281.812 26.5138ZM308.569 26.5138H292.988L308.569 11.2731V26.5138Z" fill="#5528DA"/>
<path d="M335.354 29.5368V8.81695H351.893L335.354 29.5368ZM357.641 35.2678H341.42L357.641 14.7369V35.2678ZM362.111 44.0847L366.517 39.7392V4.47146L362.111 0H330.82L326.414 4.47146V39.7392L330.82 44.0847H362.111Z" fill="#5528DA"/>
<path d="M381.175 44.0847V35.2678L390.051 26.5138H394.521L403.462 35.2678V44.0847H412.338V30.9223L403.462 22.1054L412.338 13.2884V0H403.462V8.87993L394.521 17.6969H390.051L381.175 8.87993V0H372.235V13.2884L381.175 22.1054L372.235 30.9223V44.0847H381.175Z" fill="#5528DA"/>
</svg>
