<svg width="1800" height="82" viewBox="0 0 1800 82" fill="none" xmlns="http://www.w3.org/2000/svg">
<path d="M329.454 64V20.8H345.984C348.224 20.8 350.234 21.28 352.014 22.24C353.814 23.18 355.224 24.47 356.244 26.11C357.284 27.75 357.804 29.6 357.804 31.66C357.804 33.98 357.164 36.07 355.884 37.93C354.604 39.77 352.904 41.06 350.784 41.8L350.664 40.36C353.504 41.22 355.754 42.66 357.414 44.68C359.094 46.68 359.934 49.16 359.934 52.12C359.934 54.6 359.384 56.73 358.284 58.51C357.204 60.27 355.704 61.63 353.784 62.59C351.864 63.53 349.684 64 347.244 64H329.454ZM332.934 60.61H346.104C348.024 60.61 349.744 60.28 351.264 59.62C352.804 58.96 354.014 58.01 354.894 56.77C355.794 55.53 356.244 54.03 356.244 52.27C356.244 50.53 355.834 48.96 355.014 47.56C354.214 46.14 353.124 45.02 351.744 44.2C350.364 43.36 348.814 42.94 347.094 42.94H332.934V60.61ZM332.934 39.61H345.954C347.454 39.61 348.824 39.26 350.064 38.56C351.324 37.86 352.324 36.91 353.064 35.71C353.804 34.49 354.174 33.1 354.174 31.54C354.174 29.32 353.384 27.53 351.804 26.17C350.244 24.81 348.294 24.13 345.954 24.13H332.934V39.61ZM397.879 64H394.399V26.89L369.379 64H365.899V20.8H369.379V57.85L394.399 20.8H397.879V64ZM404.38 71.2V60.64C406.14 60.64 407.54 60.19 408.58 59.29C409.62 58.39 410.41 57.2 410.95 55.72C411.49 54.22 411.89 52.57 412.15 50.77C412.43 48.97 412.66 47.16 412.84 45.34C413.14 42.62 413.38 40 413.56 37.48C413.74 34.96 413.89 32.36 414.01 29.68C414.15 26.98 414.3 24.02 414.46 20.8H440.59V60.64H443.65V71.2H440.17V64H407.83V71.2H404.38ZM411.85 60.64H437.14V24.16H417.76C417.64 26.7 417.51 29.2 417.37 31.66C417.25 34.1 417.1 36.56 416.92 39.04C416.74 41.5 416.52 44.04 416.26 46.66C416.02 49 415.74 51.08 415.42 52.9C415.12 54.7 414.69 56.25 414.13 57.55C413.57 58.83 412.81 59.86 411.85 60.64ZM450.274 64V20.8H476.974V24.16H453.724V40.57H473.374V43.93H453.724V60.64H476.974V64H450.274ZM499.634 64.9C495.334 64.9 491.724 63.95 488.804 62.05C485.884 60.13 483.684 57.48 482.204 54.1C480.724 50.72 479.984 46.82 479.984 42.4C479.984 37.98 480.724 34.08 482.204 30.7C483.684 27.32 485.884 24.68 488.804 22.78C491.724 20.86 495.334 19.9 499.634 19.9C503.934 19.9 507.534 20.86 510.434 22.78C513.354 24.68 515.554 27.32 517.034 30.7C518.514 34.08 519.254 37.98 519.254 42.4C519.254 46.82 518.514 50.72 517.034 54.1C515.554 57.48 513.354 60.13 510.434 62.05C507.534 63.95 503.934 64.9 499.634 64.9ZM499.634 61.51C503.174 61.53 506.124 60.73 508.484 59.11C510.844 57.47 512.614 55.21 513.794 52.33C514.974 49.45 515.564 46.14 515.564 42.4C515.564 38.66 514.974 35.35 513.794 32.47C512.614 29.59 510.844 27.34 508.484 25.72C506.124 24.1 503.174 23.29 499.634 23.29C496.094 23.27 493.144 24.07 490.784 25.69C488.444 27.31 486.684 29.57 485.504 32.47C484.324 35.35 483.714 38.66 483.674 42.4C483.634 46.14 484.204 49.45 485.384 52.33C486.584 55.19 488.374 57.44 490.754 59.08C493.134 60.7 496.094 61.51 499.634 61.51ZM525.274 64V20.8H528.724V41.32L549.274 20.8H553.834L533.164 41.56L555.634 64H551.014L528.724 41.92V64H525.274ZM556.845 64L572.145 20.8H576.435L591.735 64H588.075L573.375 22.6H575.115L560.505 64H556.845ZM563.175 53.14V49.87H585.375V53.14H563.175ZM597.11 64V20.8H613.4C613.82 20.8 614.27 20.82 614.75 20.86C615.25 20.88 615.77 20.94 616.31 21.04C618.47 21.38 620.32 22.16 621.86 23.38C623.42 24.58 624.61 26.1 625.43 27.94C626.25 29.76 626.66 31.77 626.66 33.97C626.66 36.19 626.25 38.22 625.43 40.06C624.61 41.88 623.42 43.4 621.86 44.62C620.32 45.82 618.47 46.59 616.31 46.93C615.77 47.01 615.25 47.07 614.75 47.11C614.27 47.15 613.82 47.17 613.4 47.17H600.56V64H597.11ZM600.56 43.78H613.34C613.7 43.78 614.11 43.76 614.57 43.72C615.05 43.68 615.53 43.62 616.01 43.54C617.57 43.22 618.87 42.59 619.91 41.65C620.95 40.69 621.73 39.54 622.25 38.2C622.77 36.86 623.03 35.45 623.03 33.97C623.03 32.49 622.77 31.09 622.25 29.77C621.73 28.43 620.95 27.29 619.91 26.35C618.87 25.39 617.57 24.75 616.01 24.43C615.53 24.33 615.05 24.26 614.57 24.22C614.11 24.18 613.7 24.16 613.34 24.16H600.56V43.78ZM644.557 64V24.16H629.077V20.8H663.487V24.16H648.007V64H644.557ZM668.302 64V20.8H671.752V37.63H684.592C685.012 37.63 685.462 37.65 685.942 37.69C686.422 37.71 686.932 37.77 687.472 37.87C689.632 38.21 691.482 38.99 693.022 40.21C694.582 41.41 695.772 42.93 696.592 44.77C697.432 46.59 697.852 48.61 697.852 50.83C697.852 53.03 697.442 55.05 696.622 56.89C695.802 58.71 694.612 60.23 693.052 61.45C691.512 62.65 689.652 63.42 687.472 63.76C686.932 63.84 686.422 63.9 685.942 63.94C685.462 63.98 685.012 64 684.592 64H668.302ZM671.752 60.64H684.532C684.872 60.64 685.282 60.62 685.762 60.58C686.242 60.54 686.712 60.47 687.172 60.37C688.752 60.05 690.062 59.42 691.102 58.48C692.142 57.52 692.922 56.38 693.442 55.06C693.962 53.72 694.222 52.31 694.222 50.83C694.222 49.35 693.962 47.94 693.442 46.6C692.922 45.26 692.142 44.12 691.102 43.18C690.062 42.22 688.752 41.58 687.172 41.26C686.712 41.16 686.242 41.1 685.762 41.08C685.282 41.04 684.872 41.02 684.532 41.02H671.752V60.64ZM702.052 64V20.8H705.502V64H702.052Z" fill="url(#paint0_linear_4021_7031)"/>
<path d="M1229.45 64V20.8H1245.98C1248.22 20.8 1250.23 21.28 1252.01 22.24C1253.81 23.18 1255.22 24.47 1256.24 26.11C1257.28 27.75 1257.8 29.6 1257.8 31.66C1257.8 33.98 1257.16 36.07 1255.88 37.93C1254.6 39.77 1252.9 41.06 1250.78 41.8L1250.66 40.36C1253.5 41.22 1255.75 42.66 1257.41 44.68C1259.09 46.68 1259.93 49.16 1259.93 52.12C1259.93 54.6 1259.38 56.73 1258.28 58.51C1257.2 60.27 1255.7 61.63 1253.78 62.59C1251.86 63.53 1249.68 64 1247.24 64H1229.45ZM1232.93 60.61H1246.1C1248.02 60.61 1249.74 60.28 1251.26 59.62C1252.8 58.96 1254.01 58.01 1254.89 56.77C1255.79 55.53 1256.24 54.03 1256.24 52.27C1256.24 50.53 1255.83 48.96 1255.01 47.56C1254.21 46.14 1253.12 45.02 1251.74 44.2C1250.36 43.36 1248.81 42.94 1247.09 42.94H1232.93V60.61ZM1232.93 39.61H1245.95C1247.45 39.61 1248.82 39.26 1250.06 38.56C1251.32 37.86 1252.32 36.91 1253.06 35.71C1253.8 34.49 1254.17 33.1 1254.17 31.54C1254.17 29.32 1253.38 27.53 1251.8 26.17C1250.24 24.81 1248.29 24.13 1245.95 24.13H1232.93V39.61ZM1297.88 64H1294.4V26.89L1269.38 64H1265.9V20.8H1269.38V57.85L1294.4 20.8H1297.88V64ZM1304.38 71.2V60.64C1306.14 60.64 1307.54 60.19 1308.58 59.29C1309.62 58.39 1310.41 57.2 1310.95 55.72C1311.49 54.22 1311.89 52.57 1312.15 50.77C1312.43 48.97 1312.66 47.16 1312.84 45.34C1313.14 42.62 1313.38 40 1313.56 37.48C1313.74 34.96 1313.89 32.36 1314.01 29.68C1314.15 26.98 1314.3 24.02 1314.46 20.8H1340.59V60.64H1343.65V71.2H1340.17V64H1307.83V71.2H1304.38ZM1311.85 60.64H1337.14V24.16H1317.76C1317.64 26.7 1317.51 29.2 1317.37 31.66C1317.25 34.1 1317.1 36.56 1316.92 39.04C1316.74 41.5 1316.52 44.04 1316.26 46.66C1316.02 49 1315.74 51.08 1315.42 52.9C1315.12 54.7 1314.69 56.25 1314.13 57.55C1313.57 58.83 1312.81 59.86 1311.85 60.64ZM1350.27 64V20.8H1376.97V24.16H1353.72V40.57H1373.37V43.93H1353.72V60.64H1376.97V64H1350.27ZM1399.63 64.9C1395.33 64.9 1391.72 63.95 1388.8 62.05C1385.88 60.13 1383.68 57.48 1382.2 54.1C1380.72 50.72 1379.98 46.82 1379.98 42.4C1379.98 37.98 1380.72 34.08 1382.2 30.7C1383.68 27.32 1385.88 24.68 1388.8 22.78C1391.72 20.86 1395.33 19.9 1399.63 19.9C1403.93 19.9 1407.53 20.86 1410.43 22.78C1413.35 24.68 1415.55 27.32 1417.03 30.7C1418.51 34.08 1419.25 37.98 1419.25 42.4C1419.25 46.82 1418.51 50.72 1417.03 54.1C1415.55 57.48 1413.35 60.13 1410.43 62.05C1407.53 63.95 1403.93 64.9 1399.63 64.9ZM1399.63 61.51C1403.17 61.53 1406.12 60.73 1408.48 59.11C1410.84 57.47 1412.61 55.21 1413.79 52.33C1414.97 49.45 1415.56 46.14 1415.56 42.4C1415.56 38.66 1414.97 35.35 1413.79 32.47C1412.61 29.59 1410.84 27.34 1408.48 25.72C1406.12 24.1 1403.17 23.29 1399.63 23.29C1396.09 23.27 1393.14 24.07 1390.78 25.69C1388.44 27.31 1386.68 29.57 1385.5 32.47C1384.32 35.35 1383.71 38.66 1383.67 42.4C1383.63 46.14 1384.2 49.45 1385.38 52.33C1386.58 55.19 1388.37 57.44 1390.75 59.08C1393.13 60.7 1396.09 61.51 1399.63 61.51ZM1425.27 64V20.8H1428.72V41.32L1449.27 20.8H1453.83L1433.16 41.56L1455.63 64H1451.01L1428.72 41.92V64H1425.27ZM1456.84 64L1472.14 20.8H1476.43L1491.73 64H1488.07L1473.37 22.6H1475.11L1460.5 64H1456.84ZM1463.17 53.14V49.87H1485.37V53.14H1463.17ZM1497.11 64V20.8H1513.4C1513.82 20.8 1514.27 20.82 1514.75 20.86C1515.25 20.88 1515.77 20.94 1516.31 21.04C1518.47 21.38 1520.32 22.16 1521.86 23.38C1523.42 24.58 1524.61 26.1 1525.43 27.94C1526.25 29.76 1526.66 31.77 1526.66 33.97C1526.66 36.19 1526.25 38.22 1525.43 40.06C1524.61 41.88 1523.42 43.4 1521.86 44.62C1520.32 45.82 1518.47 46.59 1516.31 46.93C1515.77 47.01 1515.25 47.07 1514.75 47.11C1514.27 47.15 1513.82 47.17 1513.4 47.17H1500.56V64H1497.11ZM1500.56 43.78H1513.34C1513.7 43.78 1514.11 43.76 1514.57 43.72C1515.05 43.68 1515.53 43.62 1516.01 43.54C1517.57 43.22 1518.87 42.59 1519.91 41.65C1520.95 40.69 1521.73 39.54 1522.25 38.2C1522.77 36.86 1523.03 35.45 1523.03 33.97C1523.03 32.49 1522.77 31.09 1522.25 29.77C1521.73 28.43 1520.95 27.29 1519.91 26.35C1518.87 25.39 1517.57 24.75 1516.01 24.43C1515.53 24.33 1515.05 24.26 1514.57 24.22C1514.11 24.18 1513.7 24.16 1513.34 24.16H1500.56V43.78ZM1544.56 64V24.16H1529.08V20.8H1563.49V24.16H1548.01V64H1544.56ZM1568.3 64V20.8H1571.75V37.63H1584.59C1585.01 37.63 1585.46 37.65 1585.94 37.69C1586.42 37.71 1586.93 37.77 1587.47 37.87C1589.63 38.21 1591.48 38.99 1593.02 40.21C1594.58 41.41 1595.77 42.93 1596.59 44.77C1597.43 46.59 1597.85 48.61 1597.85 50.83C1597.85 53.03 1597.44 55.05 1596.62 56.89C1595.8 58.71 1594.61 60.23 1593.05 61.45C1591.51 62.65 1589.65 63.42 1587.47 63.76C1586.93 63.84 1586.42 63.9 1585.94 63.94C1585.46 63.98 1585.01 64 1584.59 64H1568.3ZM1571.75 60.64H1584.53C1584.87 60.64 1585.28 60.62 1585.76 60.58C1586.24 60.54 1586.71 60.47 1587.17 60.37C1588.75 60.05 1590.06 59.42 1591.1 58.48C1592.14 57.52 1592.92 56.38 1593.44 55.06C1593.96 53.72 1594.22 52.31 1594.22 50.83C1594.22 49.35 1593.96 47.94 1593.44 46.6C1592.92 45.26 1592.14 44.12 1591.1 43.18C1590.06 42.22 1588.75 41.58 1587.17 41.26C1586.71 41.16 1586.24 41.1 1585.76 41.08C1585.28 41.04 1584.87 41.02 1584.53 41.02H1571.75V60.64ZM1602.05 64V20.8H1605.5V64H1602.05Z" fill="#1B1B1B"/>
<path d="M904.346 64V20.8H907.796V41.32L928.346 20.8H932.906L912.236 41.56L934.706 64H930.086L907.796 41.92V64H904.346ZM938.917 64V20.8H963.307V24.25H942.367V40.66H959.707V44.14H942.367V64H938.917ZM965.096 64L980.396 20.8H984.686L999.986 64H996.326L981.626 22.6H983.366L968.756 64H965.096ZM971.426 53.14V49.87H993.626V53.14H971.426ZM1004.16 64L1004.22 60.7L1024.08 42.67C1025.84 41.09 1026.99 39.58 1027.53 38.14C1028.07 36.68 1028.34 35.12 1028.34 33.46C1028.34 31.58 1027.89 29.87 1026.99 28.33C1026.09 26.79 1024.87 25.57 1023.33 24.67C1021.81 23.75 1020.1 23.29 1018.2 23.29C1016.26 23.29 1014.52 23.76 1012.98 24.7C1011.44 25.64 1010.22 26.88 1009.32 28.42C1008.44 29.96 1008 31.64 1008 33.46H1004.52C1004.52 30.92 1005.13 28.63 1006.35 26.59C1007.57 24.53 1009.21 22.9 1011.27 21.7C1013.35 20.5 1015.67 19.9 1018.23 19.9C1020.81 19.9 1023.12 20.52 1025.16 21.76C1027.22 22.98 1028.85 24.62 1030.05 26.68C1031.25 28.74 1031.85 31.01 1031.85 33.49C1031.85 35.21 1031.65 36.75 1031.25 38.11C1030.87 39.45 1030.26 40.71 1029.42 41.89C1028.58 43.05 1027.5 44.22 1026.18 45.4L1007.43 62.41L1006.71 60.61H1031.85V64H1004.16Z" fill="#1B1B1B"/>
<path d="M4.34648 64V20.8H7.79649V41.32L28.3465 20.8H32.9065L12.2365 41.56L34.7065 64H30.0865L7.79649 41.92V64H4.34648ZM38.9168 64V20.8H63.3068V24.25H42.3668V40.66H59.7068V44.14H42.3668V64H38.9168ZM65.0965 64L80.3965 20.8H84.6865L99.9865 64H96.3265L81.6265 22.6H83.3665L68.7565 64H65.0965ZM71.4265 53.14V49.87H93.6265V53.14H71.4265ZM104.162 64L104.222 60.7L124.082 42.67C125.842 41.09 126.992 39.58 127.532 38.14C128.072 36.68 128.342 35.12 128.342 33.46C128.342 31.58 127.892 29.87 126.992 28.33C126.092 26.79 124.872 25.57 123.332 24.67C121.812 23.75 120.102 23.29 118.202 23.29C116.262 23.29 114.522 23.76 112.982 24.7C111.442 25.64 110.222 26.88 109.322 28.42C108.442 29.96 108.002 31.64 108.002 33.46H104.522C104.522 30.92 105.132 28.63 106.352 26.59C107.572 24.53 109.212 22.9 111.272 21.7C113.352 20.5 115.672 19.9 118.232 19.9C120.812 19.9 123.122 20.52 125.162 21.76C127.222 22.98 128.852 24.62 130.052 26.68C131.252 28.74 131.852 31.01 131.852 33.49C131.852 35.21 131.652 36.75 131.252 38.11C130.872 39.45 130.262 40.71 129.422 41.89C128.582 43.05 127.502 44.22 126.182 45.4L107.432 62.41L106.712 60.61H131.852V64H104.162Z" fill="#1B1B1B"/>
<path d="M750 41H860" stroke="#1B1B1B" stroke-width="2"/>
<path d="M1075 41H1185" stroke="#1B1B1B" stroke-width="2"/>
<path d="M1650 41H1760" stroke="#1B1B1B" stroke-width="2"/>
<path d="M175 41H285" stroke="#1B1B1B" stroke-width="2"/>
<defs>
<linearGradient id="paint0_linear_4021_7031" x1="325" y1="0" x2="496.363" y2="236.68" gradientUnits="userSpaceOnUse">
<stop stop-color="#44FC8E"/>
<stop offset="1" stop-color="#4916DD"/>
</linearGradient>
</defs>
</svg>
