<svg width="2652" height="137" viewBox="0 0 2652 137" fill="none" xmlns="http://www.w3.org/2000/svg">
<path d="M462.09 107V35H489.64C493.373 35 496.723 35.8 499.69 37.4C502.69 38.9667 505.04 41.1167 506.74 43.85C508.473 46.5833 509.34 49.6667 509.34 53.1C509.34 56.9667 508.273 60.45 506.14 63.55C504.007 66.6167 501.173 68.7667 497.64 70L497.44 67.6C502.173 69.0333 505.923 71.4333 508.69 74.8C511.49 78.1333 512.89 82.2667 512.89 87.2C512.89 91.3333 511.973 94.8833 510.14 97.85C508.34 100.783 505.84 103.05 502.64 104.65C499.44 106.217 495.807 107 491.74 107H462.09ZM467.89 101.35H489.84C493.04 101.35 495.907 100.8 498.44 99.7C501.007 98.6 503.023 97.0167 504.49 94.95C505.99 92.8833 506.74 90.3833 506.74 87.45C506.74 84.55 506.057 81.9333 504.69 79.6C503.357 77.2333 501.54 75.3667 499.24 74C496.94 72.6 494.357 71.9 491.49 71.9H467.89V101.35ZM467.89 66.35H489.59C492.09 66.35 494.373 65.7667 496.44 64.6C498.54 63.4333 500.207 61.85 501.44 59.85C502.673 57.8167 503.29 55.5 503.29 52.9C503.29 49.2 501.973 46.2167 499.34 43.95C496.74 41.6833 493.49 40.55 489.59 40.55H467.89V66.35ZM576.132 107H570.332V45.15L528.632 107H522.832V35H528.632V96.75L570.332 35H576.132V107ZM586.967 119V101.4C589.901 101.4 592.234 100.65 593.967 99.15C595.701 97.65 597.017 95.6667 597.917 93.2C598.817 90.7 599.484 87.95 599.917 84.95C600.384 81.95 600.767 78.9333 601.067 75.9C601.567 71.3667 601.967 67 602.267 62.8C602.567 58.6 602.817 54.2667 603.017 49.8C603.251 45.3 603.501 40.3667 603.767 35H647.317V101.4H652.417V119H646.617V107H592.717V119H586.967ZM599.417 101.4H641.567V40.6H609.267C609.067 44.8333 608.851 49 608.617 53.1C608.417 57.1667 608.167 61.2667 607.867 65.4C607.567 69.5 607.201 73.7333 606.767 78.1C606.367 82 605.901 85.4667 605.367 88.5C604.867 91.5 604.151 94.0833 603.217 96.25C602.284 98.3833 601.017 100.1 599.417 101.4ZM663.457 107V35H707.957V40.6H669.207V67.95H701.957V73.55H669.207V101.4H707.957V107H663.457ZM745.723 108.5C738.556 108.5 732.539 106.917 727.673 103.75C722.806 100.55 719.139 96.1333 716.673 90.5C714.206 84.8667 712.973 78.3667 712.973 71C712.973 63.6333 714.206 57.1333 716.673 51.5C719.139 45.8667 722.806 41.4667 727.673 38.3C732.539 35.1 738.556 33.5 745.723 33.5C752.889 33.5 758.889 35.1 763.723 38.3C768.589 41.4667 772.256 45.8667 774.723 51.5C777.189 57.1333 778.423 63.6333 778.423 71C778.423 78.3667 777.189 84.8667 774.723 90.5C772.256 96.1333 768.589 100.55 763.723 103.75C758.889 106.917 752.889 108.5 745.723 108.5ZM745.723 102.85C751.623 102.883 756.539 101.55 760.473 98.85C764.406 96.1167 767.356 92.35 769.323 87.55C771.289 82.75 772.273 77.2333 772.273 71C772.273 64.7667 771.289 59.25 769.323 54.45C767.356 49.65 764.406 45.9 760.473 43.2C756.539 40.5 751.623 39.15 745.723 39.15C739.823 39.1167 734.906 40.45 730.973 43.15C727.073 45.85 724.139 49.6167 722.173 54.45C720.206 59.25 719.189 64.7667 719.123 71C719.056 77.2333 720.006 82.75 721.973 87.55C723.973 92.3167 726.956 96.0667 730.923 98.8C734.889 101.5 739.823 102.85 745.723 102.85ZM788.457 107V35H794.207V69.2L828.457 35H836.057L801.607 69.6L839.057 107H831.357L794.207 70.2V107H788.457ZM841.074 107L866.574 35H873.724L899.224 107H893.124L868.624 38H871.524L847.174 107H841.074ZM851.624 88.9V83.45H888.624V88.9H851.624ZM908.184 107V35H935.334C936.034 35 936.784 35.0333 937.584 35.1C938.417 35.1333 939.284 35.2333 940.184 35.4C943.784 35.9667 946.867 37.2667 949.434 39.3C952.034 41.3 954.017 43.8333 955.384 46.9C956.75 49.9333 957.434 53.2833 957.434 56.95C957.434 60.65 956.75 64.0333 955.384 67.1C954.017 70.1333 952.034 72.6667 949.434 74.7C946.867 76.7 943.784 77.9833 940.184 78.55C939.284 78.6833 938.417 78.7833 937.584 78.85C936.784 78.9167 936.034 78.95 935.334 78.95H913.934V107H908.184ZM913.934 73.3H935.234C935.834 73.3 936.517 73.2667 937.284 73.2C938.084 73.1333 938.884 73.0333 939.684 72.9C942.284 72.3667 944.45 71.3167 946.184 69.75C947.917 68.15 949.217 66.2333 950.084 64C950.95 61.7667 951.384 59.4167 951.384 56.95C951.384 54.4833 950.95 52.15 950.084 49.95C949.217 47.7167 947.917 45.8167 946.184 44.25C944.45 42.65 942.284 41.5833 939.684 41.05C938.884 40.8833 938.084 40.7667 937.284 40.7C936.517 40.6333 935.834 40.6 935.234 40.6H913.934V73.3ZM987.261 107V40.6H961.461V35H1018.81V40.6H993.011V107H987.261ZM1026.84 107V35H1032.59V63.05H1053.99C1054.69 63.05 1055.44 63.0833 1056.24 63.15C1057.04 63.1833 1057.89 63.2833 1058.79 63.45C1062.39 64.0167 1065.47 65.3167 1068.04 67.35C1070.64 69.35 1072.62 71.8833 1073.99 74.95C1075.39 77.9833 1076.09 81.35 1076.09 85.05C1076.09 88.7167 1075.4 92.0833 1074.04 95.15C1072.67 98.1833 1070.69 100.717 1068.09 102.75C1065.52 104.75 1062.42 106.033 1058.79 106.6C1057.89 106.733 1057.04 106.833 1056.24 106.9C1055.44 106.967 1054.69 107 1053.99 107H1026.84ZM1032.59 101.4H1053.89C1054.45 101.4 1055.14 101.367 1055.94 101.3C1056.74 101.233 1057.52 101.117 1058.29 100.95C1060.92 100.417 1063.1 99.3667 1064.84 97.8C1066.57 96.2 1067.87 94.3 1068.74 92.1C1069.6 89.8667 1070.04 87.5167 1070.04 85.05C1070.04 82.5833 1069.6 80.2333 1068.74 78C1067.87 75.7667 1066.57 73.8667 1064.84 72.3C1063.1 70.7 1060.92 69.6333 1058.29 69.1C1057.52 68.9333 1056.74 68.8333 1055.94 68.8C1055.14 68.7333 1054.45 68.7 1053.89 68.7H1032.59V101.4ZM1083.09 107V35H1088.84V107H1083.09Z" fill="url(#paint0_linear_4021_7041)"/>
<path d="M1788.09 107V35H1815.64C1819.37 35 1822.72 35.8 1825.69 37.4C1828.69 38.9667 1831.04 41.1167 1832.74 43.85C1834.47 46.5833 1835.34 49.6667 1835.34 53.1C1835.34 56.9667 1834.27 60.45 1832.14 63.55C1830.01 66.6167 1827.17 68.7667 1823.64 70L1823.44 67.6C1828.17 69.0333 1831.92 71.4333 1834.69 74.8C1837.49 78.1333 1838.89 82.2667 1838.89 87.2C1838.89 91.3333 1837.97 94.8833 1836.14 97.85C1834.34 100.783 1831.84 103.05 1828.64 104.65C1825.44 106.217 1821.81 107 1817.74 107H1788.09ZM1793.89 101.35H1815.84C1819.04 101.35 1821.91 100.8 1824.44 99.7C1827.01 98.6 1829.02 97.0167 1830.49 94.95C1831.99 92.8833 1832.74 90.3833 1832.74 87.45C1832.74 84.55 1832.06 81.9333 1830.69 79.6C1829.36 77.2333 1827.54 75.3667 1825.24 74C1822.94 72.6 1820.36 71.9 1817.49 71.9H1793.89V101.35ZM1793.89 66.35H1815.59C1818.09 66.35 1820.37 65.7667 1822.44 64.6C1824.54 63.4333 1826.21 61.85 1827.44 59.85C1828.67 57.8167 1829.29 55.5 1829.29 52.9C1829.29 49.2 1827.97 46.2167 1825.34 43.95C1822.74 41.6833 1819.49 40.55 1815.59 40.55H1793.89V66.35ZM1902.13 107H1896.33V45.15L1854.63 107H1848.83V35H1854.63V96.75L1896.33 35H1902.13V107ZM1912.97 119V101.4C1915.9 101.4 1918.23 100.65 1919.97 99.15C1921.7 97.65 1923.02 95.6667 1923.92 93.2C1924.82 90.7 1925.48 87.95 1925.92 84.95C1926.38 81.95 1926.77 78.9333 1927.07 75.9C1927.57 71.3667 1927.97 67 1928.27 62.8C1928.57 58.6 1928.82 54.2667 1929.02 49.8C1929.25 45.3 1929.5 40.3667 1929.77 35H1973.32V101.4H1978.42V119H1972.62V107H1918.72V119H1912.97ZM1925.42 101.4H1967.57V40.6H1935.27C1935.07 44.8333 1934.85 49 1934.62 53.1C1934.42 57.1667 1934.17 61.2667 1933.87 65.4C1933.57 69.5 1933.2 73.7333 1932.77 78.1C1932.37 82 1931.9 85.4667 1931.37 88.5C1930.87 91.5 1930.15 94.0833 1929.22 96.25C1928.28 98.3833 1927.02 100.1 1925.42 101.4ZM1989.46 107V35H2033.96V40.6H1995.21V67.95H2027.96V73.55H1995.21V101.4H2033.96V107H1989.46ZM2071.72 108.5C2064.56 108.5 2058.54 106.917 2053.67 103.75C2048.81 100.55 2045.14 96.1333 2042.67 90.5C2040.21 84.8667 2038.97 78.3667 2038.97 71C2038.97 63.6333 2040.21 57.1333 2042.67 51.5C2045.14 45.8667 2048.81 41.4667 2053.67 38.3C2058.54 35.1 2064.56 33.5 2071.72 33.5C2078.89 33.5 2084.89 35.1 2089.72 38.3C2094.59 41.4667 2098.26 45.8667 2100.72 51.5C2103.19 57.1333 2104.42 63.6333 2104.42 71C2104.42 78.3667 2103.19 84.8667 2100.72 90.5C2098.26 96.1333 2094.59 100.55 2089.72 103.75C2084.89 106.917 2078.89 108.5 2071.72 108.5ZM2071.72 102.85C2077.62 102.883 2082.54 101.55 2086.47 98.85C2090.41 96.1167 2093.36 92.35 2095.32 87.55C2097.29 82.75 2098.27 77.2333 2098.27 71C2098.27 64.7667 2097.29 59.25 2095.32 54.45C2093.36 49.65 2090.41 45.9 2086.47 43.2C2082.54 40.5 2077.62 39.15 2071.72 39.15C2065.82 39.1167 2060.91 40.45 2056.97 43.15C2053.07 45.85 2050.14 49.6167 2048.17 54.45C2046.21 59.25 2045.19 64.7667 2045.12 71C2045.06 77.2333 2046.01 82.75 2047.97 87.55C2049.97 92.3167 2052.96 96.0667 2056.92 98.8C2060.89 101.5 2065.82 102.85 2071.72 102.85ZM2114.46 107V35H2120.21V69.2L2154.46 35H2162.06L2127.61 69.6L2165.06 107H2157.36L2120.21 70.2V107H2114.46ZM2167.07 107L2192.57 35H2199.72L2225.22 107H2219.12L2194.62 38H2197.52L2173.17 107H2167.07ZM2177.62 88.9V83.45H2214.62V88.9H2177.62ZM2234.18 107V35H2261.33C2262.03 35 2262.78 35.0333 2263.58 35.1C2264.42 35.1333 2265.28 35.2333 2266.18 35.4C2269.78 35.9667 2272.87 37.2667 2275.43 39.3C2278.03 41.3 2280.02 43.8333 2281.38 46.9C2282.75 49.9333 2283.43 53.2833 2283.43 56.95C2283.43 60.65 2282.75 64.0333 2281.38 67.1C2280.02 70.1333 2278.03 72.6667 2275.43 74.7C2272.87 76.7 2269.78 77.9833 2266.18 78.55C2265.28 78.6833 2264.42 78.7833 2263.58 78.85C2262.78 78.9167 2262.03 78.95 2261.33 78.95H2239.93V107H2234.18ZM2239.93 73.3H2261.23C2261.83 73.3 2262.52 73.2667 2263.28 73.2C2264.08 73.1333 2264.88 73.0333 2265.68 72.9C2268.28 72.3667 2270.45 71.3167 2272.18 69.75C2273.92 68.15 2275.22 66.2333 2276.08 64C2276.95 61.7667 2277.38 59.4167 2277.38 56.95C2277.38 54.4833 2276.95 52.15 2276.08 49.95C2275.22 47.7167 2273.92 45.8167 2272.18 44.25C2270.45 42.65 2268.28 41.5833 2265.68 41.05C2264.88 40.8833 2264.08 40.7667 2263.28 40.7C2262.52 40.6333 2261.83 40.6 2261.23 40.6H2239.93V73.3ZM2313.26 107V40.6H2287.46V35H2344.81V40.6H2319.01V107H2313.26ZM2352.84 107V35H2358.59V63.05H2379.99C2380.69 63.05 2381.44 63.0833 2382.24 63.15C2383.04 63.1833 2383.89 63.2833 2384.79 63.45C2388.39 64.0167 2391.47 65.3167 2394.04 67.35C2396.64 69.35 2398.62 71.8833 2399.99 74.95C2401.39 77.9833 2402.09 81.35 2402.09 85.05C2402.09 88.7167 2401.4 92.0833 2400.04 95.15C2398.67 98.1833 2396.69 100.717 2394.09 102.75C2391.52 104.75 2388.42 106.033 2384.79 106.6C2383.89 106.733 2383.04 106.833 2382.24 106.9C2381.44 106.967 2380.69 107 2379.99 107H2352.84ZM2358.59 101.4H2379.89C2380.45 101.4 2381.14 101.367 2381.94 101.3C2382.74 101.233 2383.52 101.117 2384.29 100.95C2386.92 100.417 2389.1 99.3667 2390.84 97.8C2392.57 96.2 2393.87 94.3 2394.74 92.1C2395.6 89.8667 2396.04 87.5167 2396.04 85.05C2396.04 82.5833 2395.6 80.2333 2394.74 78C2393.87 75.7667 2392.57 73.8667 2390.84 72.3C2389.1 70.7 2386.92 69.6333 2384.29 69.1C2383.52 68.9333 2382.74 68.8333 2381.94 68.8C2381.14 68.7333 2380.45 68.7 2379.89 68.7H2358.59V101.4ZM2409.09 107V35H2414.84V107H2409.09Z" fill="#1B1B1B"/>
<path d="M1333.24 107V35H1338.99V69.2L1373.24 35H1380.84L1346.39 69.6L1383.84 107H1376.14L1338.99 70.2V107H1333.24ZM1390.86 107V35H1431.51V40.75H1396.61V68.1H1425.51V73.9H1396.61V107H1390.86ZM1434.49 107L1459.99 35H1467.14L1492.64 107H1486.54L1462.04 38H1464.94L1440.59 107H1434.49ZM1445.04 88.9V83.45H1482.04V88.9H1445.04ZM1499.6 107L1499.7 101.5L1532.8 71.45C1535.74 68.8167 1537.65 66.3 1538.55 63.9C1539.45 61.4667 1539.9 58.8667 1539.9 56.1C1539.9 52.9667 1539.15 50.1167 1537.65 47.55C1536.15 44.9833 1534.12 42.95 1531.55 41.45C1529.02 39.9167 1526.17 39.15 1523 39.15C1519.77 39.15 1516.87 39.9333 1514.3 41.5C1511.74 43.0667 1509.7 45.1333 1508.2 47.7C1506.74 50.2667 1506 53.0667 1506 56.1H1500.2C1500.2 51.8667 1501.22 48.05 1503.25 44.65C1505.29 41.2167 1508.02 38.5 1511.45 36.5C1514.92 34.5 1518.79 33.5 1523.05 33.5C1527.35 33.5 1531.2 34.5333 1534.6 36.6C1538.04 38.6333 1540.75 41.3667 1542.75 44.8C1544.75 48.2333 1545.75 52.0167 1545.75 56.15C1545.75 59.0167 1545.42 61.5833 1544.75 63.85C1544.12 66.0833 1543.1 68.1833 1541.7 70.15C1540.3 72.0833 1538.5 74.0333 1536.3 76L1505.05 104.35L1503.85 101.35H1545.75V107H1499.6Z" fill="#1B1B1B"/>
<path d="M7.24414 107V35H12.9941V69.2L47.2441 35H54.8441L20.3941 69.6L57.8441 107H50.1441L12.9941 70.2V107H7.24414ZM64.8613 107V35H105.511V40.75H70.6113V68.1H99.5113V73.9H70.6113V107H64.8613ZM108.494 107L133.994 35H141.144L166.644 107H160.544L136.044 38H138.944L114.594 107H108.494ZM119.044 88.9V83.45H156.044V88.9H119.044ZM173.604 107L173.704 101.5L206.804 71.45C209.737 68.8167 211.654 66.3 212.554 63.9C213.454 61.4667 213.904 58.8667 213.904 56.1C213.904 52.9667 213.154 50.1167 211.654 47.55C210.154 44.9833 208.12 42.95 205.554 41.45C203.02 39.9167 200.17 39.15 197.004 39.15C193.77 39.15 190.87 39.9333 188.304 41.5C185.737 43.0667 183.704 45.1333 182.204 47.7C180.737 50.2667 180.004 53.0667 180.004 56.1H174.204C174.204 51.8667 175.22 48.05 177.254 44.65C179.287 41.2167 182.02 38.5 185.454 36.5C188.92 34.5 192.787 33.5 197.054 33.5C201.354 33.5 205.204 34.5333 208.604 36.6C212.037 38.6333 214.754 41.3667 216.754 44.8C218.754 48.2333 219.754 52.0167 219.754 56.15C219.754 59.0167 219.42 61.5833 218.754 63.85C218.12 66.0833 217.104 68.1833 215.704 70.15C214.304 72.0833 212.504 74.0333 210.304 76L179.054 104.35L177.854 101.35H219.754V107H173.604Z" fill="#1B1B1B"/>
<path d="M1156 69H1266" stroke="#1B1B1B" stroke-width="2"/>
<path d="M1611 69H1721" stroke="#1B1B1B" stroke-width="2"/>
<path d="M2482 68H2592" stroke="#1B1B1B" stroke-width="2"/>
<path d="M285 69H395" stroke="#1B1B1B" stroke-width="2"/>
<defs>
<linearGradient id="paint0_linear_4021_7041" x1="455" y1="0" x2="741.611" y2="394.482" gradientUnits="userSpaceOnUse">
<stop stop-color="#44FC8E"/>
<stop offset="1" stop-color="#4916DD"/>
</linearGradient>
</defs>
</svg>
