<svg width="1276" height="55" viewBox="0 0 1276 55" fill="none" xmlns="http://www.w3.org/2000/svg">
<path d="M237.136 42V13.2H248.156C249.649 13.2 250.989 13.52 252.176 14.16C253.376 14.7867 254.316 15.6467 254.996 16.74C255.689 17.8333 256.036 19.0667 256.036 20.44C256.036 21.9867 255.609 23.38 254.756 24.62C253.903 25.8467 252.769 26.7067 251.356 27.2L251.276 26.24C253.169 26.8133 254.669 27.7733 255.776 29.12C256.896 30.4533 257.456 32.1067 257.456 34.08C257.456 35.7333 257.089 37.1533 256.356 38.34C255.636 39.5133 254.636 40.42 253.356 41.06C252.076 41.6867 250.623 42 248.996 42H237.136ZM239.456 39.74H248.236C249.516 39.74 250.663 39.52 251.676 39.08C252.703 38.64 253.509 38.0067 254.096 37.18C254.696 36.3533 254.996 35.3533 254.996 34.18C254.996 33.02 254.723 31.9733 254.176 31.04C253.643 30.0933 252.916 29.3467 251.996 28.8C251.076 28.24 250.043 27.96 248.896 27.96H239.456V39.74ZM239.456 25.74H248.136C249.136 25.74 250.049 25.5067 250.876 25.04C251.716 24.5733 252.383 23.94 252.876 23.14C253.369 22.3267 253.616 21.4 253.616 20.36C253.616 18.88 253.089 17.6867 252.036 16.78C250.996 15.8733 249.696 15.42 248.136 15.42H239.456V25.74ZM282.753 42H280.433V17.26L263.753 42H261.433V13.2H263.753V37.9L280.433 13.2H282.753V42ZM287.087 46.8V39.76C288.26 39.76 289.194 39.46 289.887 38.86C290.58 38.26 291.107 37.4667 291.467 36.48C291.827 35.48 292.094 34.38 292.267 33.18C292.454 31.98 292.607 30.7733 292.727 29.56C292.927 27.7467 293.087 26 293.207 24.32C293.327 22.64 293.427 20.9067 293.507 19.12C293.6 17.32 293.7 15.3467 293.807 13.2H311.227V39.76H313.267V46.8H310.947V42H289.387V46.8H287.087ZM292.067 39.76H308.927V15.44H296.007C295.927 17.1333 295.84 18.8 295.747 20.44C295.667 22.0667 295.567 23.7067 295.447 25.36C295.327 27 295.18 28.6933 295.007 30.44C294.847 32 294.66 33.3867 294.447 34.6C294.247 35.8 293.96 36.8333 293.587 37.7C293.214 38.5533 292.707 39.24 292.067 39.76ZM317.683 42V13.2H335.483V15.44H319.983V26.38H333.083V28.62H319.983V39.76H335.483V42H317.683ZM350.589 42.6C347.722 42.6 345.316 41.9667 343.369 40.7C341.422 39.42 339.956 37.6533 338.969 35.4C337.982 33.1467 337.489 30.5467 337.489 27.6C337.489 24.6533 337.982 22.0533 338.969 19.8C339.956 17.5467 341.422 15.7867 343.369 14.52C345.316 13.24 347.722 12.6 350.589 12.6C353.456 12.6 355.856 13.24 357.789 14.52C359.736 15.7867 361.202 17.5467 362.189 19.8C363.176 22.0533 363.669 24.6533 363.669 27.6C363.669 30.5467 363.176 33.1467 362.189 35.4C361.202 37.6533 359.736 39.42 357.789 40.7C355.856 41.9667 353.456 42.6 350.589 42.6ZM350.589 40.34C352.949 40.3533 354.916 39.82 356.489 38.74C358.062 37.6467 359.242 36.14 360.029 34.22C360.816 32.3 361.209 30.0933 361.209 27.6C361.209 25.1067 360.816 22.9 360.029 20.98C359.242 19.06 358.062 17.56 356.489 16.48C354.916 15.4 352.949 14.86 350.589 14.86C348.229 14.8467 346.262 15.38 344.689 16.46C343.129 17.54 341.956 19.0467 341.169 20.98C340.382 22.9 339.976 25.1067 339.949 27.6C339.922 30.0933 340.302 32.3 341.089 34.22C341.889 36.1267 343.082 37.6267 344.669 38.72C346.256 39.8 348.229 40.34 350.589 40.34ZM367.683 42V13.2H369.983V26.88L383.683 13.2H386.723L372.943 27.04L387.923 42H384.843L369.983 27.28V42H367.683ZM388.73 42L398.93 13.2H401.79L411.99 42H409.55L399.75 14.4H400.91L391.17 42H388.73ZM392.95 34.76V32.58H407.75V34.76H392.95ZM415.573 42V13.2H426.433C426.713 13.2 427.013 13.2133 427.333 13.24C427.667 13.2533 428.013 13.2933 428.373 13.36C429.813 13.5867 431.047 14.1067 432.073 14.92C433.113 15.72 433.907 16.7333 434.453 17.96C435 19.1733 435.273 20.5133 435.273 21.98C435.273 23.46 435 24.8133 434.453 26.04C433.907 27.2533 433.113 28.2667 432.073 29.08C431.047 29.88 429.813 30.3933 428.373 30.62C428.013 30.6733 427.667 30.7133 427.333 30.74C427.013 30.7667 426.713 30.78 426.433 30.78H417.873V42H415.573ZM417.873 28.52H426.393C426.633 28.52 426.907 28.5067 427.213 28.48C427.533 28.4533 427.853 28.4133 428.173 28.36C429.213 28.1467 430.08 27.7267 430.773 27.1C431.467 26.46 431.987 25.6933 432.333 24.8C432.68 23.9067 432.853 22.9667 432.853 21.98C432.853 20.9933 432.68 20.06 432.333 19.18C431.987 18.2867 431.467 17.5267 430.773 16.9C430.08 16.26 429.213 15.8333 428.173 15.62C427.853 15.5533 427.533 15.5067 427.213 15.48C426.907 15.4533 426.633 15.44 426.393 15.44H417.873V28.52ZM447.204 42V15.44H436.884V13.2H459.824V15.44H449.504V42H447.204ZM463.034 42V13.2H465.334V24.42H473.894C474.174 24.42 474.474 24.4333 474.794 24.46C475.114 24.4733 475.454 24.5133 475.814 24.58C477.254 24.8067 478.488 25.3267 479.514 26.14C480.554 26.94 481.348 27.9533 481.894 29.18C482.454 30.3933 482.734 31.74 482.734 33.22C482.734 34.6867 482.461 36.0333 481.914 37.26C481.368 38.4733 480.574 39.4867 479.534 40.3C478.508 41.1 477.268 41.6133 475.814 41.84C475.454 41.8933 475.114 41.9333 474.794 41.96C474.474 41.9867 474.174 42 473.894 42H463.034ZM465.334 39.76H473.854C474.081 39.76 474.354 39.7467 474.674 39.72C474.994 39.6933 475.308 39.6467 475.614 39.58C476.668 39.3667 477.541 38.9467 478.234 38.32C478.928 37.68 479.448 36.92 479.794 36.04C480.141 35.1467 480.314 34.2067 480.314 33.22C480.314 32.2333 480.141 31.2933 479.794 30.4C479.448 29.5067 478.928 28.7467 478.234 28.12C477.541 27.48 476.668 27.0533 475.614 26.84C475.308 26.7733 474.994 26.7333 474.674 26.72C474.354 26.6933 474.081 26.68 473.854 26.68H465.334V39.76ZM485.534 42V13.2H487.834V42H485.534Z" fill="url(#paint0_linear_4021_7021)"/>
<path d="M872.136 42V13.2H883.156C884.649 13.2 885.989 13.52 887.176 14.16C888.376 14.7867 889.316 15.6467 889.996 16.74C890.689 17.8333 891.036 19.0667 891.036 20.44C891.036 21.9867 890.609 23.38 889.756 24.62C888.903 25.8467 887.769 26.7067 886.356 27.2L886.276 26.24C888.169 26.8133 889.669 27.7733 890.776 29.12C891.896 30.4533 892.456 32.1067 892.456 34.08C892.456 35.7333 892.089 37.1533 891.356 38.34C890.636 39.5133 889.636 40.42 888.356 41.06C887.076 41.6867 885.623 42 883.996 42H872.136ZM874.456 39.74H883.236C884.516 39.74 885.663 39.52 886.676 39.08C887.703 38.64 888.509 38.0067 889.096 37.18C889.696 36.3533 889.996 35.3533 889.996 34.18C889.996 33.02 889.723 31.9733 889.176 31.04C888.643 30.0933 887.916 29.3467 886.996 28.8C886.076 28.24 885.043 27.96 883.896 27.96H874.456V39.74ZM874.456 25.74H883.136C884.136 25.74 885.049 25.5067 885.876 25.04C886.716 24.5733 887.383 23.94 887.876 23.14C888.369 22.3267 888.616 21.4 888.616 20.36C888.616 18.88 888.089 17.6867 887.036 16.78C885.996 15.8733 884.696 15.42 883.136 15.42H874.456V25.74ZM917.753 42H915.433V17.26L898.753 42H896.433V13.2H898.753V37.9L915.433 13.2H917.753V42ZM922.087 46.8V39.76C923.26 39.76 924.194 39.46 924.887 38.86C925.58 38.26 926.107 37.4667 926.467 36.48C926.827 35.48 927.094 34.38 927.267 33.18C927.454 31.98 927.607 30.7733 927.727 29.56C927.927 27.7467 928.087 26 928.207 24.32C928.327 22.64 928.427 20.9067 928.507 19.12C928.6 17.32 928.7 15.3467 928.807 13.2H946.227V39.76H948.267V46.8H945.947V42H924.387V46.8H922.087ZM927.067 39.76H943.927V15.44H931.007C930.927 17.1333 930.84 18.8 930.747 20.44C930.667 22.0667 930.567 23.7067 930.447 25.36C930.327 27 930.18 28.6933 930.007 30.44C929.847 32 929.66 33.3867 929.447 34.6C929.247 35.8 928.96 36.8333 928.587 37.7C928.214 38.5533 927.707 39.24 927.067 39.76ZM952.683 42V13.2H970.483V15.44H954.983V26.38H968.083V28.62H954.983V39.76H970.483V42H952.683ZM985.589 42.6C982.722 42.6 980.316 41.9667 978.369 40.7C976.422 39.42 974.956 37.6533 973.969 35.4C972.982 33.1467 972.489 30.5467 972.489 27.6C972.489 24.6533 972.982 22.0533 973.969 19.8C974.956 17.5467 976.422 15.7867 978.369 14.52C980.316 13.24 982.722 12.6 985.589 12.6C988.456 12.6 990.856 13.24 992.789 14.52C994.736 15.7867 996.202 17.5467 997.189 19.8C998.176 22.0533 998.669 24.6533 998.669 27.6C998.669 30.5467 998.176 33.1467 997.189 35.4C996.202 37.6533 994.736 39.42 992.789 40.7C990.856 41.9667 988.456 42.6 985.589 42.6ZM985.589 40.34C987.949 40.3533 989.916 39.82 991.489 38.74C993.062 37.6467 994.242 36.14 995.029 34.22C995.816 32.3 996.209 30.0933 996.209 27.6C996.209 25.1067 995.816 22.9 995.029 20.98C994.242 19.06 993.062 17.56 991.489 16.48C989.916 15.4 987.949 14.86 985.589 14.86C983.229 14.8467 981.262 15.38 979.689 16.46C978.129 17.54 976.956 19.0467 976.169 20.98C975.382 22.9 974.976 25.1067 974.949 27.6C974.922 30.0933 975.302 32.3 976.089 34.22C976.889 36.1267 978.082 37.6267 979.669 38.72C981.256 39.8 983.229 40.34 985.589 40.34ZM1002.68 42V13.2H1004.98V26.88L1018.68 13.2H1021.72L1007.94 27.04L1022.92 42H1019.84L1004.98 27.28V42H1002.68ZM1023.73 42L1033.93 13.2H1036.79L1046.99 42H1044.55L1034.75 14.4H1035.91L1026.17 42H1023.73ZM1027.95 34.76V32.58H1042.75V34.76H1027.95ZM1050.57 42V13.2H1061.43C1061.71 13.2 1062.01 13.2133 1062.33 13.24C1062.67 13.2533 1063.01 13.2933 1063.37 13.36C1064.81 13.5867 1066.05 14.1067 1067.07 14.92C1068.11 15.72 1068.91 16.7333 1069.45 17.96C1070 19.1733 1070.27 20.5133 1070.27 21.98C1070.27 23.46 1070 24.8133 1069.45 26.04C1068.91 27.2533 1068.11 28.2667 1067.07 29.08C1066.05 29.88 1064.81 30.3933 1063.37 30.62C1063.01 30.6733 1062.67 30.7133 1062.33 30.74C1062.01 30.7667 1061.71 30.78 1061.43 30.78H1052.87V42H1050.57ZM1052.87 28.52H1061.39C1061.63 28.52 1061.91 28.5067 1062.21 28.48C1062.53 28.4533 1062.85 28.4133 1063.17 28.36C1064.21 28.1467 1065.08 27.7267 1065.77 27.1C1066.47 26.46 1066.99 25.6933 1067.33 24.8C1067.68 23.9067 1067.85 22.9667 1067.85 21.98C1067.85 20.9933 1067.68 20.06 1067.33 19.18C1066.99 18.2867 1066.47 17.5267 1065.77 16.9C1065.08 16.26 1064.21 15.8333 1063.17 15.62C1062.85 15.5533 1062.53 15.5067 1062.21 15.48C1061.91 15.4533 1061.63 15.44 1061.39 15.44H1052.87V28.52ZM1082.2 42V15.44H1071.88V13.2H1094.82V15.44H1084.5V42H1082.2ZM1098.03 42V13.2H1100.33V24.42H1108.89C1109.17 24.42 1109.47 24.4333 1109.79 24.46C1110.11 24.4733 1110.45 24.5133 1110.81 24.58C1112.25 24.8067 1113.49 25.3267 1114.51 26.14C1115.55 26.94 1116.35 27.9533 1116.89 29.18C1117.45 30.3933 1117.73 31.74 1117.73 33.22C1117.73 34.6867 1117.46 36.0333 1116.91 37.26C1116.37 38.4733 1115.57 39.4867 1114.53 40.3C1113.51 41.1 1112.27 41.6133 1110.81 41.84C1110.45 41.8933 1110.11 41.9333 1109.79 41.96C1109.47 41.9867 1109.17 42 1108.89 42H1098.03ZM1100.33 39.76H1108.85C1109.08 39.76 1109.35 39.7467 1109.67 39.72C1109.99 39.6933 1110.31 39.6467 1110.61 39.58C1111.67 39.3667 1112.54 38.9467 1113.23 38.32C1113.93 37.68 1114.45 36.92 1114.79 36.04C1115.14 35.1467 1115.31 34.2067 1115.31 33.22C1115.31 32.2333 1115.14 31.2933 1114.79 30.4C1114.45 29.5067 1113.93 28.7467 1113.23 28.12C1112.54 27.48 1111.67 27.0533 1110.61 26.84C1110.31 26.7733 1109.99 26.7333 1109.67 26.72C1109.35 26.6933 1109.08 26.68 1108.85 26.68H1100.33V39.76ZM1120.53 42V13.2H1122.83V42H1120.53Z" fill="#1B1B1B"/>
<path d="M637.898 42V13.2H640.198V26.88L653.898 13.2H656.938L643.158 27.04L658.138 42H655.058L640.198 27.28V42H637.898ZM660.945 42V13.2H677.205V15.5H663.245V26.44H674.805V28.76H663.245V42H660.945ZM678.398 42L688.598 13.2H691.458L701.658 42H699.218L689.418 14.4H690.578L680.838 42H678.398ZM682.618 34.76V32.58H697.418V34.76H682.618ZM704.441 42L704.481 39.8L717.721 27.78C718.895 26.7267 719.661 25.72 720.021 24.76C720.381 23.7867 720.561 22.7467 720.561 21.64C720.561 20.3867 720.261 19.2467 719.661 18.22C719.061 17.1933 718.248 16.38 717.221 15.78C716.208 15.1667 715.068 14.86 713.801 14.86C712.508 14.86 711.348 15.1733 710.321 15.8C709.295 16.4267 708.481 17.2533 707.881 18.28C707.295 19.3067 707.001 20.4267 707.001 21.64H704.681C704.681 19.9467 705.088 18.42 705.901 17.06C706.715 15.6867 707.808 14.6 709.181 13.8C710.568 13 712.115 12.6 713.821 12.6C715.541 12.6 717.081 13.0133 718.441 13.84C719.815 14.6533 720.901 15.7467 721.701 17.12C722.501 18.4933 722.901 20.0067 722.901 21.66C722.901 22.8067 722.768 23.8333 722.501 24.74C722.248 25.6333 721.841 26.4733 721.281 27.26C720.721 28.0333 720.001 28.8133 719.121 29.6L706.621 40.94L706.141 39.74H722.901V42H704.441Z" fill="#1B1B1B"/>
<path d="M2.89766 42V13.2H5.19766V26.88L18.8977 13.2H21.9377L8.15766 27.04L23.1377 42H20.0577L5.19766 27.28V42H2.89766ZM25.9445 42V13.2H42.2045V15.5H28.2445V26.44H39.8045V28.76H28.2445V42H25.9445ZM43.3977 42L53.5977 13.2H56.4577L66.6577 42H64.2177L54.4177 14.4H55.5777L45.8377 42H43.3977ZM47.6177 34.76V32.58H62.4177V34.76H47.6177ZM69.4414 42L69.4814 39.8L82.7214 27.78C83.8947 26.7267 84.6614 25.72 85.0214 24.76C85.3814 23.7867 85.5614 22.7467 85.5614 21.64C85.5614 20.3867 85.2614 19.2467 84.6614 18.22C84.0614 17.1933 83.2481 16.38 82.2214 15.78C81.2081 15.1667 80.0681 14.86 78.8014 14.86C77.5081 14.86 76.3481 15.1733 75.3214 15.8C74.2947 16.4267 73.4814 17.2533 72.8814 18.28C72.2947 19.3067 72.0014 20.4267 72.0014 21.64H69.6814C69.6814 19.9467 70.0881 18.42 70.9014 17.06C71.7147 15.6867 72.8081 14.6 74.1814 13.8C75.5681 13 77.1147 12.6 78.8214 12.6C80.5414 12.6 82.0814 13.0133 83.4414 13.84C84.8147 14.6533 85.9014 15.7467 86.7014 17.12C87.5014 18.4933 87.9014 20.0067 87.9014 21.66C87.9014 22.8067 87.7681 23.8333 87.5014 24.74C87.2481 25.6333 86.8414 26.4733 86.2814 27.26C85.7214 28.0333 85.0014 28.8133 84.1214 29.6L71.6214 40.94L71.1414 39.74H87.9014V42H69.4414Z" fill="#1B1B1B"/>
<path d="M523 31H603" stroke="#1B1B1B"/>
<path d="M757 31H837" stroke="#1B1B1B"/>
<path d="M1156 31H1236" stroke="#1B1B1B"/>
<path d="M122 31H202" stroke="#1B1B1B"/>
<defs>
<linearGradient id="paint0_linear_4021_7021" x1="234" y1="3" x2="329.556" y2="153.503" gradientUnits="userSpaceOnUse">
<stop stop-color="#44FC8E"/>
<stop offset="1" stop-color="#4916DD"/>
</linearGradient>
</defs>
</svg>
