<svg width="998" height="44" viewBox="0 0 998 44" fill="none" xmlns="http://www.w3.org/2000/svg">
<path d="M182.709 34V10.96H191.525C192.719 10.96 193.791 11.216 194.741 11.728C195.701 12.2293 196.453 12.9173 196.997 13.792C197.551 14.6667 197.829 15.6533 197.829 16.752C197.829 17.9893 197.487 19.104 196.805 20.096C196.122 21.0773 195.215 21.7653 194.085 22.16L194.021 21.392C195.535 21.8507 196.735 22.6187 197.621 23.696C198.517 24.7627 198.965 26.0853 198.965 27.664C198.965 28.9867 198.671 30.1227 198.085 31.072C197.509 32.0107 196.709 32.736 195.685 33.248C194.661 33.7493 193.498 34 192.197 34H182.709ZM184.565 32.192H191.589C192.613 32.192 193.53 32.016 194.341 31.664C195.162 31.312 195.807 30.8053 196.277 30.144C196.757 29.4827 196.997 28.6827 196.997 27.744C196.997 26.816 196.778 25.9787 196.341 25.232C195.914 24.4747 195.333 23.8773 194.597 23.44C193.861 22.992 193.034 22.768 192.117 22.768H184.565V32.192ZM184.565 20.992H191.509C192.309 20.992 193.039 20.8053 193.701 20.432C194.373 20.0587 194.906 19.552 195.301 18.912C195.695 18.2613 195.893 17.52 195.893 16.688C195.893 15.504 195.471 14.5493 194.629 13.824C193.797 13.0987 192.757 12.736 191.509 12.736H184.565V20.992ZM219.202 34H217.346V14.208L204.002 34H202.146V10.96H204.002V30.72L217.346 10.96H219.202V34ZM222.67 37.84V32.208C223.608 32.208 224.355 31.968 224.91 31.488C225.464 31.008 225.886 30.3733 226.174 29.584C226.462 28.784 226.675 27.904 226.814 26.944C226.963 25.984 227.086 25.0187 227.182 24.048C227.342 22.5973 227.47 21.2 227.566 19.856C227.662 18.512 227.742 17.1253 227.806 15.696C227.88 14.256 227.96 12.6773 228.046 10.96H241.982V32.208H243.614V37.84H241.758V34H224.51V37.84H222.67ZM226.654 32.208H240.142V12.752H229.806C229.742 14.1067 229.672 15.44 229.598 16.752C229.534 18.0533 229.454 19.3653 229.358 20.688C229.262 22 229.144 23.3547 229.006 24.752C228.878 26 228.728 27.1093 228.558 28.08C228.398 29.04 228.168 29.8667 227.87 30.56C227.571 31.2427 227.166 31.792 226.654 32.208ZM247.146 34V10.96H261.386V12.752H248.986V21.504H259.466V23.296H248.986V32.208H261.386V34H247.146ZM273.471 34.48C271.178 34.48 269.253 33.9733 267.695 32.96C266.138 31.936 264.965 30.5227 264.175 28.72C263.386 26.9173 262.991 24.8373 262.991 22.48C262.991 20.1227 263.386 18.0427 264.175 16.24C264.965 14.4373 266.138 13.0293 267.695 12.016C269.253 10.992 271.178 10.48 273.471 10.48C275.765 10.48 277.685 10.992 279.231 12.016C280.789 13.0293 281.962 14.4373 282.751 16.24C283.541 18.0427 283.935 20.1227 283.935 22.48C283.935 24.8373 283.541 26.9173 282.751 28.72C281.962 30.5227 280.789 31.936 279.231 32.96C277.685 33.9733 275.765 34.48 273.471 34.48ZM273.471 32.672C275.359 32.6827 276.933 32.256 278.191 31.392C279.45 30.5173 280.394 29.312 281.023 27.776C281.653 26.24 281.967 24.4747 281.967 22.48C281.967 20.4853 281.653 18.72 281.023 17.184C280.394 15.648 279.45 14.448 278.191 13.584C276.933 12.72 275.359 12.288 273.471 12.288C271.583 12.2773 270.01 12.704 268.751 13.568C267.503 14.432 266.565 15.6373 265.935 17.184C265.306 18.72 264.981 20.4853 264.959 22.48C264.938 24.4747 265.242 26.24 265.871 27.776C266.511 29.3013 267.466 30.5013 268.735 31.376C270.005 32.24 271.583 32.672 273.471 32.672ZM287.146 34V10.96H288.986V21.904L299.946 10.96H302.378L291.354 22.032L303.338 34H300.874L288.986 22.224V34H287.146ZM303.984 34L312.144 10.96H314.432L322.592 34H320.64L312.8 11.92H313.728L305.936 34H303.984ZM307.36 28.208V26.464H319.2V28.208H307.36ZM325.459 34V10.96H334.147C334.371 10.96 334.611 10.9707 334.867 10.992C335.133 11.0027 335.411 11.0347 335.699 11.088C336.851 11.2693 337.837 11.6853 338.659 12.336C339.491 12.976 340.125 13.7867 340.563 14.768C341 15.7387 341.219 16.8107 341.219 17.984C341.219 19.168 341 20.2507 340.563 21.232C340.125 22.2027 339.491 23.0133 338.659 23.664C337.837 24.304 336.851 24.7147 335.699 24.896C335.411 24.9387 335.133 24.9707 334.867 24.992C334.611 25.0133 334.371 25.024 334.147 25.024H327.299V34H325.459ZM327.299 23.216H334.115C334.307 23.216 334.525 23.2053 334.771 23.184C335.027 23.1627 335.283 23.1307 335.539 23.088C336.371 22.9173 337.064 22.5813 337.619 22.08C338.173 21.568 338.589 20.9547 338.867 20.24C339.144 19.5253 339.283 18.7733 339.283 17.984C339.283 17.1947 339.144 16.448 338.867 15.744C338.589 15.0293 338.173 14.4213 337.619 13.92C337.064 13.408 336.371 13.0667 335.539 12.896C335.283 12.8427 335.027 12.8053 334.771 12.784C334.525 12.7627 334.307 12.752 334.115 12.752H327.299V23.216ZM350.764 34V12.752H342.508V10.96H360.86V12.752H352.604V34H350.764ZM363.428 34V10.96H365.268V19.936H372.116C372.34 19.936 372.58 19.9467 372.836 19.968C373.092 19.9787 373.364 20.0107 373.652 20.064C374.804 20.2453 375.79 20.6613 376.612 21.312C377.444 21.952 378.078 22.7627 378.516 23.744C378.964 24.7147 379.188 25.792 379.188 26.976C379.188 28.1493 378.969 29.2267 378.532 30.208C378.094 31.1787 377.46 31.9893 376.628 32.64C375.806 33.28 374.814 33.6907 373.652 33.872C373.364 33.9147 373.092 33.9467 372.836 33.968C372.58 33.9893 372.34 34 372.116 34H363.428ZM365.268 32.208H372.084C372.265 32.208 372.484 32.1973 372.74 32.176C372.996 32.1547 373.246 32.1173 373.492 32.064C374.334 31.8933 375.033 31.5573 375.588 31.056C376.142 30.544 376.558 29.936 376.836 29.232C377.113 28.5173 377.252 27.7653 377.252 26.976C377.252 26.1867 377.113 25.4347 376.836 24.72C376.558 24.0053 376.142 23.3973 375.588 22.896C375.033 22.384 374.334 22.0427 373.492 21.872C373.246 21.8187 372.996 21.7867 372.74 21.776C372.484 21.7547 372.265 21.744 372.084 21.744H365.268V32.208ZM381.428 34V10.96H383.268V34H381.428Z" fill="url(#paint0_linear_4021_7009)"/>
<path d="M676.709 34V10.96H685.525C686.719 10.96 687.791 11.216 688.741 11.728C689.701 12.2293 690.453 12.9173 690.997 13.792C691.551 14.6667 691.829 15.6533 691.829 16.752C691.829 17.9893 691.487 19.104 690.805 20.096C690.122 21.0773 689.215 21.7653 688.085 22.16L688.021 21.392C689.535 21.8507 690.735 22.6187 691.621 23.696C692.517 24.7627 692.965 26.0853 692.965 27.664C692.965 28.9867 692.671 30.1227 692.085 31.072C691.509 32.0107 690.709 32.736 689.685 33.248C688.661 33.7493 687.498 34 686.197 34H676.709ZM678.565 32.192H685.589C686.613 32.192 687.53 32.016 688.341 31.664C689.162 31.312 689.807 30.8053 690.277 30.144C690.757 29.4827 690.997 28.6827 690.997 27.744C690.997 26.816 690.778 25.9787 690.341 25.232C689.914 24.4747 689.333 23.8773 688.597 23.44C687.861 22.992 687.034 22.768 686.117 22.768H678.565V32.192ZM678.565 20.992H685.509C686.309 20.992 687.039 20.8053 687.701 20.432C688.373 20.0587 688.906 19.552 689.301 18.912C689.695 18.2613 689.893 17.52 689.893 16.688C689.893 15.504 689.471 14.5493 688.629 13.824C687.797 13.0987 686.757 12.736 685.509 12.736H678.565V20.992ZM713.202 34H711.346V14.208L698.002 34H696.146V10.96H698.002V30.72L711.346 10.96H713.202V34ZM716.67 37.84V32.208C717.608 32.208 718.355 31.968 718.91 31.488C719.464 31.008 719.886 30.3733 720.174 29.584C720.462 28.784 720.675 27.904 720.814 26.944C720.963 25.984 721.086 25.0187 721.182 24.048C721.342 22.5973 721.47 21.2 721.566 19.856C721.662 18.512 721.742 17.1253 721.806 15.696C721.88 14.256 721.96 12.6773 722.046 10.96H735.982V32.208H737.614V37.84H735.758V34H718.51V37.84H716.67ZM720.654 32.208H734.142V12.752H723.806C723.742 14.1067 723.672 15.44 723.598 16.752C723.534 18.0533 723.454 19.3653 723.358 20.688C723.262 22 723.144 23.3547 723.006 24.752C722.878 26 722.728 27.1093 722.558 28.08C722.398 29.04 722.168 29.8667 721.87 30.56C721.571 31.2427 721.166 31.792 720.654 32.208ZM741.146 34V10.96H755.386V12.752H742.986V21.504H753.466V23.296H742.986V32.208H755.386V34H741.146ZM767.471 34.48C765.178 34.48 763.253 33.9733 761.695 32.96C760.138 31.936 758.965 30.5227 758.175 28.72C757.386 26.9173 756.991 24.8373 756.991 22.48C756.991 20.1227 757.386 18.0427 758.175 16.24C758.965 14.4373 760.138 13.0293 761.695 12.016C763.253 10.992 765.178 10.48 767.471 10.48C769.765 10.48 771.685 10.992 773.231 12.016C774.789 13.0293 775.962 14.4373 776.751 16.24C777.541 18.0427 777.935 20.1227 777.935 22.48C777.935 24.8373 777.541 26.9173 776.751 28.72C775.962 30.5227 774.789 31.936 773.231 32.96C771.685 33.9733 769.765 34.48 767.471 34.48ZM767.471 32.672C769.359 32.6827 770.933 32.256 772.191 31.392C773.45 30.5173 774.394 29.312 775.023 27.776C775.653 26.24 775.967 24.4747 775.967 22.48C775.967 20.4853 775.653 18.72 775.023 17.184C774.394 15.648 773.45 14.448 772.191 13.584C770.933 12.72 769.359 12.288 767.471 12.288C765.583 12.2773 764.01 12.704 762.751 13.568C761.503 14.432 760.565 15.6373 759.935 17.184C759.306 18.72 758.981 20.4853 758.959 22.48C758.938 24.4747 759.242 26.24 759.871 27.776C760.511 29.3013 761.466 30.5013 762.735 31.376C764.005 32.24 765.583 32.672 767.471 32.672ZM781.146 34V10.96H782.986V21.904L793.946 10.96H796.378L785.354 22.032L797.338 34H794.874L782.986 22.224V34H781.146ZM797.984 34L806.144 10.96H808.432L816.592 34H814.64L806.8 11.92H807.728L799.936 34H797.984ZM801.36 28.208V26.464H813.2V28.208H801.36ZM819.459 34V10.96H828.147C828.371 10.96 828.611 10.9707 828.867 10.992C829.133 11.0027 829.411 11.0347 829.699 11.088C830.851 11.2693 831.837 11.6853 832.659 12.336C833.491 12.976 834.125 13.7867 834.563 14.768C835 15.7387 835.219 16.8107 835.219 17.984C835.219 19.168 835 20.2507 834.563 21.232C834.125 22.2027 833.491 23.0133 832.659 23.664C831.837 24.304 830.851 24.7147 829.699 24.896C829.411 24.9387 829.133 24.9707 828.867 24.992C828.611 25.0133 828.371 25.024 828.147 25.024H821.299V34H819.459ZM821.299 23.216H828.115C828.307 23.216 828.525 23.2053 828.771 23.184C829.027 23.1627 829.283 23.1307 829.539 23.088C830.371 22.9173 831.064 22.5813 831.619 22.08C832.173 21.568 832.589 20.9547 832.867 20.24C833.144 19.5253 833.283 18.7733 833.283 17.984C833.283 17.1947 833.144 16.448 832.867 15.744C832.589 15.0293 832.173 14.4213 831.619 13.92C831.064 13.408 830.371 13.0667 829.539 12.896C829.283 12.8427 829.027 12.8053 828.771 12.784C828.525 12.7627 828.307 12.752 828.115 12.752H821.299V23.216ZM844.764 34V12.752H836.508V10.96H854.86V12.752H846.604V34H844.764ZM857.428 34V10.96H859.268V19.936H866.116C866.34 19.936 866.58 19.9467 866.836 19.968C867.092 19.9787 867.364 20.0107 867.652 20.064C868.804 20.2453 869.79 20.6613 870.612 21.312C871.444 21.952 872.078 22.7627 872.516 23.744C872.964 24.7147 873.188 25.792 873.188 26.976C873.188 28.1493 872.969 29.2267 872.532 30.208C872.094 31.1787 871.46 31.9893 870.628 32.64C869.806 33.28 868.814 33.6907 867.652 33.872C867.364 33.9147 867.092 33.9467 866.836 33.968C866.58 33.9893 866.34 34 866.116 34H857.428ZM859.268 32.208H866.084C866.265 32.208 866.484 32.1973 866.74 32.176C866.996 32.1547 867.246 32.1173 867.492 32.064C868.334 31.8933 869.033 31.5573 869.588 31.056C870.142 30.544 870.558 29.936 870.836 29.232C871.113 28.5173 871.252 27.7653 871.252 26.976C871.252 26.1867 871.113 25.4347 870.836 24.72C870.558 24.0053 870.142 23.3973 869.588 22.896C869.033 22.384 868.334 22.0427 867.492 21.872C867.246 21.8187 866.996 21.7867 866.74 21.776C866.484 21.7547 866.265 21.744 866.084 21.744H859.268V32.208ZM875.428 34V10.96H877.268V34H875.428Z" fill="#1B1B1B"/>
<path d="M496.318 34V10.96H498.158V21.904L509.118 10.96H511.55L500.526 22.032L512.51 34H510.046L498.158 22.224V34H496.318ZM514.756 34V10.96H527.764V12.8H516.596V21.552H525.844V23.408H516.596V34H514.756ZM528.718 34L536.878 10.96H539.166L547.326 34H545.374L537.534 11.92H538.462L530.67 34H528.718ZM532.094 28.208V26.464H543.934V28.208H532.094ZM549.553 34L549.585 32.24L560.177 22.624C561.116 21.7813 561.729 20.976 562.017 20.208C562.305 19.4293 562.449 18.5973 562.449 17.712C562.449 16.7093 562.209 15.7973 561.729 14.976C561.249 14.1547 560.598 13.504 559.777 13.024C558.966 12.5333 558.054 12.288 557.041 12.288C556.006 12.288 555.078 12.5387 554.257 13.04C553.436 13.5413 552.785 14.2027 552.305 15.024C551.836 15.8453 551.601 16.7413 551.601 17.712H549.745C549.745 16.3573 550.07 15.136 550.721 14.048C551.372 12.9493 552.246 12.08 553.345 11.44C554.454 10.8 555.692 10.48 557.057 10.48C558.433 10.48 559.665 10.8107 560.753 11.472C561.852 12.1227 562.721 12.9973 563.361 14.096C564.001 15.1947 564.321 16.4053 564.321 17.728C564.321 18.6453 564.214 19.4667 564.001 20.192C563.798 20.9067 563.473 21.5787 563.025 22.208C562.577 22.8267 562.001 23.4507 561.297 24.08L551.297 33.152L550.913 32.192H564.321V34H549.553Z" fill="#1B1B1B"/>
<path d="M2.31813 34V10.96H4.15813V21.904L15.1181 10.96H17.5501L6.52613 22.032L18.5101 34H16.0461L4.15813 22.224V34H2.31813ZM20.7556 34V10.96H33.7636V12.8H22.5956V21.552H31.8436V23.408H22.5956V34H20.7556ZM34.7181 34L42.8781 10.96H45.1661L53.3261 34H51.3741L43.5341 11.92H44.4621L36.6701 34H34.7181ZM38.0941 28.208V26.464H49.9341V28.208H38.0941ZM55.5531 34L55.5851 32.24L66.1771 22.624C67.1158 21.7813 67.7291 20.976 68.0171 20.208C68.3051 19.4293 68.4491 18.5973 68.4491 17.712C68.4491 16.7093 68.2091 15.7973 67.7291 14.976C67.2491 14.1547 66.5985 13.504 65.7771 13.024C64.9665 12.5333 64.0545 12.288 63.0411 12.288C62.0065 12.288 61.0785 12.5387 60.2571 13.04C59.4358 13.5413 58.7851 14.2027 58.3051 15.024C57.8358 15.8453 57.6011 16.7413 57.6011 17.712H55.7451C55.7451 16.3573 56.0705 15.136 56.7211 14.048C57.3718 12.9493 58.2465 12.08 59.3451 11.44C60.4545 10.8 61.6918 10.48 63.0571 10.48C64.4331 10.48 65.6651 10.8107 66.7531 11.472C67.8518 12.1227 68.7211 12.9973 69.3611 14.096C70.0011 15.1947 70.3211 16.4053 70.3211 17.728C70.3211 18.6453 70.2145 19.4667 70.0011 20.192C69.7985 20.9067 69.4731 21.5787 69.0251 22.208C68.5771 22.8267 68.0011 23.4507 67.2971 24.08L57.2971 33.152L56.9131 32.192H70.3211V34H55.5531Z" fill="#1B1B1B"/>
<path d="M410 22H470" stroke="#1B1B1B"/>
<path d="M590 22H650" stroke="#1B1B1B"/>
<path d="M96 22H156" stroke="#1B1B1B"/>
<path d="M908 22H968" stroke="#1B1B1B"/>
<defs>
<linearGradient id="paint0_linear_4021_7009" x1="180" y1="0" x2="272.032" y2="126.751" gradientUnits="userSpaceOnUse">
<stop stop-color="#44FC8E"/>
<stop offset="1" stop-color="#4916DD"/>
</linearGradient>
</defs>
</svg>
