<svg width="877" height="379" viewBox="0 0 877 379" fill="none" xmlns="http://www.w3.org/2000/svg">
<path d="M30.32 165.88L29.795 166.731L29.799 166.734L30.32 165.88ZM11.36 144.76L10.4603 145.197L10.4624 145.201L11.36 144.76ZM11.36 82.04L10.4624 81.5992L10.4603 81.6035L11.36 82.04ZM30.32 61L30.841 61.8536L30.845 61.8511L30.32 61ZM93.12 63.4L92.5185 64.1988L92.5215 64.2012L93.12 63.4ZM111.76 90.2L112.026 91.164L113.028 90.8878L112.713 89.8974L111.76 90.2ZM92.32 95.56L91.3616 95.8455L91.6413 96.7844L92.5858 96.524L92.32 95.56ZM80.88 77.96L80.2591 78.7439L80.2639 78.7477L80.88 77.96ZM40.56 76.76L40.0033 75.9293L39.9993 75.9319L40.56 76.76ZM28.96 91.4L28.0365 91.0165L28.0348 91.0204L28.96 91.4ZM25.04 113.4L24.04 113.394V113.4H25.04ZM28.88 135.48L27.9537 135.857L27.9576 135.866L28.88 135.48ZM40.56 150.04L41.1167 149.209L41.1167 149.209L40.56 150.04ZM80.88 148.84L80.2591 148.056L80.2591 148.056L80.88 148.84ZM92.32 131.24L92.5858 130.276L91.6432 130.016L91.3622 130.953L92.32 131.24ZM111.76 136.6L112.713 136.903L113.028 135.912L112.026 135.636L111.76 136.6ZM93.12 163.48L93.7185 164.281L93.7215 164.279L93.12 163.48ZM59.92 172.4C48.5473 172.4 38.869 169.927 30.841 165.026L29.799 166.734C38.1977 171.86 48.2527 174.4 59.92 174.4V172.4ZM30.845 165.029C22.7987 160.065 16.6047 153.171 12.2576 144.319L10.4624 145.201C14.9686 154.376 21.4146 161.561 29.795 166.731L30.845 165.029ZM12.2597 144.323C7.96361 135.469 5.8 125.17 5.8 113.4H3.8C3.8 125.417 6.00973 136.024 10.4603 145.197L12.2597 144.323ZM5.8 113.4C5.8 101.63 7.96361 91.3306 12.2597 82.4765L10.4603 81.6035C6.00973 90.776 3.8 101.383 3.8 113.4H5.8ZM12.2576 82.4808C16.6043 73.6302 22.7971 66.7634 30.841 61.8535L29.799 60.1464C21.4162 65.2632 14.969 72.4231 10.4624 81.5992L12.2576 82.4808ZM30.845 61.8511C38.8723 56.8992 48.5492 54.4 59.92 54.4V52.4C48.2508 52.4 38.1944 54.9675 29.795 60.1489L30.845 61.8511ZM59.92 54.4C73.0273 54.4 83.8708 57.6871 92.5185 64.1988L93.7215 62.6012C84.6625 55.7796 73.3727 52.4 59.92 52.4V54.4ZM92.5215 64.2012C101.196 70.6807 107.292 79.434 110.807 90.5026L112.713 89.8974C109.081 78.4593 102.751 69.346 93.7185 62.5988L92.5215 64.2012ZM111.494 89.236L92.0542 94.596L92.5858 96.524L112.026 91.164L111.494 89.236ZM93.2784 95.2745C90.9882 87.586 87.0695 81.5317 81.4961 77.1723L80.2639 78.7477C85.4638 82.8149 89.1718 88.494 91.3616 95.8455L93.2784 95.2745ZM81.5009 77.1761C75.8972 72.7375 68.6746 70.56 59.92 70.56V72.56C68.3388 72.56 75.0895 74.6491 80.2591 78.7439L81.5009 77.1761ZM59.92 70.56C52.0366 70.56 45.3772 72.3282 40.0033 75.9293L41.1167 77.5907C46.0894 74.2585 52.3368 72.56 59.92 72.56V70.56ZM39.9993 75.9319C34.7012 79.5192 30.7168 84.5619 28.0365 91.0165L29.8835 91.7835C32.4299 85.6515 36.1788 80.9341 41.1207 77.588L39.9993 75.9319ZM28.0348 91.0204C25.4158 97.4044 24.094 104.87 24.04 113.394L26.04 113.406C26.0927 105.077 27.3842 97.8756 29.8852 91.7796L28.0348 91.0204ZM24.04 113.4C24.04 121.926 25.3349 129.419 27.9537 135.857L29.8063 135.103C27.3051 128.955 26.04 121.728 26.04 113.4H24.04ZM27.9576 135.866C30.6398 142.271 34.6531 147.286 40.0033 150.871L41.1167 149.209C36.1202 145.861 32.3468 141.169 29.8024 135.094L27.9576 135.866ZM40.0033 150.871C45.3772 154.472 52.0366 156.24 59.92 156.24V154.24C52.3368 154.24 46.0894 152.542 41.1167 149.209L40.0033 150.871ZM59.92 156.24C68.6746 156.24 75.8972 154.062 81.5009 149.624L80.2591 148.056C75.0895 152.151 68.3388 154.24 59.92 154.24V156.24ZM81.5009 149.624C87.0691 145.213 90.9872 139.163 93.2778 131.527L91.3622 130.953C89.1728 138.251 85.4643 143.933 80.2591 148.056L81.5009 149.624ZM92.0542 132.204L111.494 137.564L112.026 135.636L92.5858 130.276L92.0542 132.204ZM110.807 136.297C107.292 147.366 101.195 156.148 92.5185 162.681L93.7215 164.279C102.752 157.479 109.081 148.34 112.713 136.903L110.807 136.297ZM92.5215 162.679C83.8737 169.139 73.029 172.4 59.92 172.4V174.4C73.371 174.4 84.6596 171.048 93.7185 164.281L92.5215 162.679ZM129.325 171H128.325V172H129.325V171ZM129.325 55.8V54.8H128.325V55.8H129.325ZM148.605 55.8H149.605V54.8H148.605V55.8ZM148.605 109.24H147.605V111.935L149.363 109.892L148.605 109.24ZM194.605 55.8V54.8H194.146L193.847 55.1476L194.605 55.8ZM218.285 55.8L219.037 56.4593L220.492 54.8H218.285V55.8ZM168.765 112.28L168.013 111.621L167.427 112.289L168.022 112.949L168.765 112.28ZM221.645 171V172H223.891L222.388 170.331L221.645 171ZM197.165 171L196.423 171.67L196.721 172H197.165V171ZM148.605 117.24L149.347 116.57L147.605 114.641V117.24H148.605ZM148.605 171V172H149.605V171H148.605ZM130.325 171V55.8H128.325V171H130.325ZM129.325 56.8H148.605V54.8H129.325V56.8ZM147.605 55.8V109.24H149.605V55.8H147.605ZM149.363 109.892L195.363 56.4524L193.847 55.1476L147.847 108.588L149.363 109.892ZM194.605 56.8H218.285V54.8H194.605V56.8ZM217.533 55.1407L168.013 111.621L169.517 112.939L219.037 56.4593L217.533 55.1407ZM168.022 112.949L220.902 171.669L222.388 170.331L169.508 111.611L168.022 112.949ZM221.645 170H197.165V172H221.645V170ZM197.907 170.33L149.347 116.57L147.863 117.91L196.423 171.67L197.907 170.33ZM147.605 117.24V171H149.605V117.24H147.605ZM148.605 170H129.325V172H148.605V170ZM245.789 165.88L245.264 166.731L245.268 166.734L245.789 165.88ZM226.829 144.76L225.929 145.197L225.931 145.201L226.829 144.76ZM226.829 82.04L225.931 81.5992L225.929 81.6035L226.829 82.04ZM245.789 61L246.31 61.8536L246.314 61.8511L245.789 61ZM304.989 61L304.464 61.8511L304.47 61.855L304.989 61ZM323.949 82.04L323.049 82.4765L323.051 82.4808L323.949 82.04ZM323.949 144.76L323.051 144.319L323.049 144.323L323.949 144.76ZM304.989 165.88L305.51 166.734L305.511 166.733L304.989 165.88ZM275.389 155.24L275.375 156.24L275.382 156.24L275.389 155.24ZM294.669 150.12L294.112 149.289L294.108 149.292L294.669 150.12ZM306.269 135.48L305.345 135.096L305.342 135.103L306.269 135.48ZM306.269 91.48L305.344 91.8596L305.348 91.8691L306.269 91.48ZM294.669 76.92L294.108 77.7481L294.112 77.7507L294.669 76.92ZM275.389 71.56L275.403 70.5601L275.396 70.56L275.389 71.56ZM256.109 76.68L256.669 77.508L256.669 77.508L256.109 76.68ZM244.509 91.32L243.585 90.9365L243.582 90.9432L244.509 91.32ZM244.509 135.4L243.584 135.78L243.585 135.782L244.509 135.4ZM256.029 149.88L255.468 150.708L255.472 150.711L256.029 149.88ZM275.389 172.4C264.016 172.4 254.338 169.927 246.31 165.026L245.268 166.734C253.666 171.86 263.721 174.4 275.389 174.4V172.4ZM246.314 165.029C238.267 160.065 232.073 153.171 227.726 144.319L225.931 145.201C230.437 154.376 236.883 161.561 245.264 166.731L246.314 165.029ZM227.728 144.323C223.432 135.469 221.269 125.17 221.269 113.4H219.269C219.269 125.417 221.478 136.024 225.929 145.197L227.728 144.323ZM221.269 113.4C221.269 101.63 223.432 91.3306 227.728 82.4765L225.929 81.6035C221.478 90.776 219.269 101.383 219.269 113.4H221.269ZM227.726 82.4808C232.073 73.6302 238.266 66.7634 246.31 61.8535L245.268 60.1464C236.885 65.2632 230.438 72.4231 225.931 81.5992L227.726 82.4808ZM246.314 61.8511C254.341 56.8992 264.018 54.4 275.389 54.4V52.4C263.72 52.4 253.663 54.9675 245.264 60.1489L246.314 61.8511ZM275.389 54.4C286.76 54.4 296.436 56.8992 304.464 61.8511L305.514 60.1489C297.114 54.9675 287.058 52.4 275.389 52.4V54.4ZM304.47 61.855C312.566 66.7647 318.757 73.6299 323.049 82.4765L324.848 81.6035C320.394 72.4235 313.945 65.2619 305.507 60.1449L304.47 61.855ZM323.051 82.4808C327.399 91.3339 329.589 101.632 329.589 113.4H331.589C331.589 101.382 329.352 90.7728 324.846 81.5992L323.051 82.4808ZM329.589 113.4C329.589 125.168 327.399 135.466 323.051 144.319L324.846 145.201C329.352 136.027 331.589 125.418 331.589 113.4H329.589ZM323.049 144.323C318.756 153.171 312.564 160.064 304.466 165.027L305.511 166.733C313.946 161.563 320.395 154.376 324.848 145.197L323.049 144.323ZM304.468 165.026C296.44 169.927 286.761 172.4 275.389 172.4V174.4C287.056 174.4 297.111 171.86 305.51 166.734L304.468 165.026ZM275.382 156.24C283.266 156.294 289.904 154.554 295.229 150.948L294.108 149.292C289.193 152.62 282.978 154.292 275.396 154.24L275.382 156.24ZM295.225 150.951C300.58 147.363 304.567 142.317 307.195 135.857L305.342 135.103C302.85 141.229 299.105 145.944 294.112 149.289L295.225 150.951ZM307.192 135.864C309.867 129.424 311.189 121.928 311.189 113.4H309.189C309.189 121.725 307.898 128.95 305.345 135.096L307.192 135.864ZM311.189 113.4C311.189 104.873 309.867 97.4277 307.19 91.0909L305.348 91.8691C307.897 97.9056 309.189 105.074 309.189 113.4H311.189ZM307.194 91.1004C304.565 84.6928 300.577 79.6757 295.225 76.0893L294.112 77.7507C299.107 81.0977 302.852 85.7872 305.344 91.8596L307.194 91.1004ZM295.229 76.092C289.912 72.4913 283.282 70.6688 275.403 70.5601L275.375 72.5599C282.962 72.6646 289.186 74.4154 294.108 77.748L295.229 76.092ZM275.396 70.56C267.511 70.5056 260.873 72.2464 255.548 75.852L256.669 77.508C261.584 74.1803 267.8 72.5077 275.382 72.56L275.396 70.56ZM255.548 75.852C250.25 79.4392 246.266 84.4819 243.585 90.9365L245.432 91.7035C247.979 85.5715 251.728 80.8541 256.669 77.508L255.548 75.852ZM243.582 90.9432C240.964 97.3812 239.669 104.874 239.669 113.4H241.669C241.669 105.072 242.934 97.8455 245.435 91.6968L243.582 90.9432ZM239.669 113.4C239.669 121.926 240.964 129.393 243.584 135.78L245.434 135.02C242.934 128.927 241.669 121.728 241.669 113.4H239.669ZM243.585 135.782C246.213 142.134 250.172 147.122 255.468 150.708L256.589 149.052C251.645 145.704 247.924 141.039 245.433 135.018L243.585 135.782ZM255.472 150.711C260.841 154.309 267.495 156.131 275.375 156.24L275.403 154.24C267.816 154.135 261.563 152.385 256.585 149.049L255.472 150.711ZM346.513 171H345.513V172H346.513V171ZM346.513 55.8V54.8H345.513V55.8H346.513ZM398.433 55.96L398.372 56.9582L398.387 56.9591L398.402 56.9595L398.433 55.96ZM403.313 56.44L403.137 57.4244L403.149 57.4267L403.162 57.4286L403.313 56.44ZM419.792 63.08L419.173 63.8646L419.177 63.8683L419.792 63.08ZM429.473 76.04L428.543 76.4098L428.548 76.4212L429.473 76.04ZM429.473 110.6L430.397 110.981L430.398 110.978L429.473 110.6ZM419.713 123.48L419.097 122.692L419.093 122.695L419.713 123.48ZM403.313 130.12L403.454 131.11L403.464 131.108L403.313 130.12ZM398.353 130.6L398.294 129.602L398.292 129.602L398.353 130.6ZM365.793 130.76V129.76H364.793V130.76H365.793ZM365.793 171V172H366.793V171H365.793ZM365.793 112.76H364.793V113.76H365.793V112.76ZM396.913 112.6L396.992 113.597L396.992 113.597L396.913 112.6ZM400.593 111.96L400.35 110.99L400.334 110.994L400.318 110.998L400.593 111.96ZM408.113 107.72L407.377 107.043L407.372 107.048L407.367 107.053L408.113 107.72ZM412.033 100.84L411.078 100.542L411.075 100.551L411.073 100.56L412.033 100.84ZM412.033 85.8L411.071 86.0747L411.074 86.0865L411.078 86.0983L412.033 85.8ZM408.113 78.84L407.367 79.5068L407.372 79.5122L407.377 79.5175L408.113 78.84ZM400.593 74.6L400.318 75.5615L400.334 75.5661L400.35 75.5701L400.593 74.6ZM396.913 74.04L396.833 75.0368L396.853 75.0384L396.873 75.0392L396.913 74.04ZM365.793 73.88V72.88H364.793V73.88H365.793ZM347.513 171V55.8H345.513V171H347.513ZM346.513 56.8H394.113V54.8H346.513V56.8ZM394.113 56.8C395.204 56.8 396.622 56.8521 398.372 56.9582L398.493 54.9618C396.723 54.8545 395.261 54.8 394.113 54.8V56.8ZM398.402 56.9595C400.121 57.0116 401.698 57.1676 403.137 57.4244L403.488 55.4556C401.94 55.1791 400.264 55.015 398.463 54.9605L398.402 56.9595ZM403.162 57.4286C409.696 58.4217 415.016 60.5806 419.173 63.8646L420.412 62.2954C415.929 58.7527 410.263 56.4849 403.463 55.4514L403.162 57.4286ZM419.177 63.8683C423.409 67.1708 426.528 71.3456 428.543 76.4098L430.402 75.6702C428.257 70.2811 424.923 65.8158 420.408 62.2917L419.177 63.8683ZM428.548 76.4212C430.625 81.4585 431.673 87.0867 431.673 93.32H433.673C433.673 86.86 432.586 80.9682 430.397 75.6588L428.548 76.4212ZM431.673 93.32C431.673 99.4986 430.626 105.128 428.547 110.222L430.398 110.978C432.586 105.618 433.673 99.728 433.673 93.32H431.673ZM428.548 110.219C426.48 115.233 423.333 119.386 419.097 122.692L420.328 124.268C424.839 120.747 428.198 116.313 430.397 110.981L428.548 110.219ZM419.093 122.695C414.935 125.98 409.64 128.139 403.161 129.132L403.464 131.108C410.212 130.075 415.85 127.806 420.332 124.265L419.093 122.695ZM403.171 129.13C401.71 129.339 400.085 129.496 398.294 129.602L398.411 131.598C400.247 131.49 401.928 131.328 403.454 131.11L403.171 129.13ZM398.292 129.602C396.541 129.708 395.15 129.76 394.113 129.76V131.76C395.208 131.76 396.644 131.705 398.413 131.598L398.292 129.602ZM394.113 129.76H365.793V131.76H394.113V129.76ZM364.793 130.76V171H366.793V130.76H364.793ZM365.793 170H346.513V172H365.793V170ZM365.793 113.76H393.313V111.76H365.793V113.76ZM393.313 113.76C394.411 113.76 395.639 113.705 396.992 113.597L396.833 111.603C395.52 111.708 394.347 111.76 393.313 111.76V113.76ZM396.992 113.597C398.382 113.486 399.675 113.262 400.867 112.922L400.318 110.998C399.27 111.298 398.11 111.501 396.833 111.603L396.992 113.597ZM400.835 112.93C404.187 112.092 406.885 110.592 408.858 108.387L407.367 107.053C405.714 108.902 403.398 110.228 400.35 110.99L400.835 112.93ZM408.848 108.397C410.816 106.261 412.201 103.833 412.993 101.12L411.073 100.56C410.37 102.967 409.143 105.125 407.377 107.043L408.848 108.397ZM412.987 101.138C413.814 98.4907 414.233 95.8834 414.233 93.32H412.233C412.233 95.6632 411.851 98.0693 411.078 100.542L412.987 101.138ZM414.233 93.32C414.233 90.7565 413.814 88.1493 412.987 85.5017L411.078 86.0983C411.851 88.5707 412.233 90.9768 412.233 93.32H414.233ZM412.994 85.5253C412.204 82.7598 410.819 80.3023 408.848 78.1625L407.377 79.5175C409.139 81.431 410.368 83.6136 411.071 86.0747L412.994 85.5253ZM408.858 78.1732C406.885 75.9682 404.187 74.4679 400.835 73.6299L400.35 75.5701C403.398 76.3321 405.714 77.6585 407.367 79.5068L408.858 78.1732ZM400.867 73.6385C399.661 73.2937 398.354 73.0969 396.952 73.0408L396.873 75.0392C398.138 75.0898 399.284 75.2663 400.318 75.5615L400.867 73.6385ZM396.992 73.0432C395.639 72.9349 394.411 72.88 393.313 72.88V74.88C394.347 74.88 395.52 74.9318 396.833 75.0368L396.992 73.0432ZM393.313 72.88H365.793V74.88H393.313V72.88ZM364.793 73.88V112.76H366.793V73.88H364.793ZM467.82 165.88L467.295 166.731L467.299 166.734L467.82 165.88ZM448.86 144.76L447.96 145.197L447.962 145.201L448.86 144.76ZM448.86 82.04L447.962 81.5992L447.96 81.6035L448.86 82.04ZM467.82 61L468.341 61.8536L468.345 61.8511L467.82 61ZM527.02 61L526.495 61.8511L526.501 61.855L527.02 61ZM545.98 82.04L545.08 82.4765L545.082 82.4808L545.98 82.04ZM545.98 144.76L545.082 144.319L545.08 144.323L545.98 144.76ZM527.02 165.88L527.541 166.734L527.543 166.733L527.02 165.88ZM497.42 155.24L497.406 156.24L497.413 156.24L497.42 155.24ZM516.7 150.12L516.143 149.289L516.139 149.292L516.7 150.12ZM528.3 135.48L527.376 135.096L527.374 135.103L528.3 135.48ZM528.3 91.48L527.375 91.8596L527.379 91.8691L528.3 91.48ZM516.7 76.92L516.139 77.7481L516.143 77.7507L516.7 76.92ZM497.42 71.56L497.434 70.5601L497.427 70.56L497.42 71.56ZM478.14 76.68L478.701 77.508L478.701 77.508L478.14 76.68ZM466.54 91.32L465.616 90.9365L465.614 90.9432L466.54 91.32ZM466.54 135.4L465.615 135.78L465.616 135.782L466.54 135.4ZM478.06 149.88L477.499 150.708L477.503 150.711L478.06 149.88ZM497.42 172.4C486.047 172.4 476.369 169.927 468.341 165.026L467.299 166.734C475.698 171.86 485.753 174.4 497.42 174.4V172.4ZM468.345 165.029C460.299 160.065 454.105 153.171 449.758 144.319L447.962 145.201C452.469 154.376 458.915 161.561 467.295 166.731L468.345 165.029ZM449.76 144.323C445.464 135.469 443.3 125.17 443.3 113.4H441.3C441.3 125.417 443.51 136.024 447.96 145.197L449.76 144.323ZM443.3 113.4C443.3 101.63 445.464 91.3306 449.76 82.4765L447.96 81.6035C443.51 90.776 441.3 101.383 441.3 113.4H443.3ZM449.758 82.4808C454.104 73.6302 460.297 66.7634 468.341 61.8535L467.299 60.1464C458.916 65.2632 452.469 72.4231 447.962 81.5992L449.758 82.4808ZM468.345 61.8511C476.372 56.8992 486.049 54.4 497.42 54.4V52.4C485.751 52.4 475.694 54.9675 467.295 60.1489L468.345 61.8511ZM497.42 54.4C508.791 54.4 518.468 56.8992 526.495 61.8511L527.545 60.1489C519.146 54.9675 509.089 52.4 497.42 52.4V54.4ZM526.501 61.855C534.597 66.7647 540.788 73.6299 545.08 82.4765L546.88 81.6035C542.425 72.4235 535.976 65.2619 527.539 60.1449L526.501 61.855ZM545.082 82.4808C549.43 91.3339 551.62 101.632 551.62 113.4H553.62C553.62 101.382 551.383 90.7728 546.878 81.5992L545.082 82.4808ZM551.62 113.4C551.62 125.168 549.43 135.466 545.082 144.319L546.878 145.201C551.383 136.027 553.62 125.418 553.62 113.4H551.62ZM545.08 144.323C540.787 153.171 534.596 160.064 526.497 165.027L527.543 166.733C535.978 161.563 542.426 154.376 546.88 145.197L545.08 144.323ZM526.499 165.026C518.471 169.927 508.793 172.4 497.42 172.4V174.4C509.087 174.4 519.142 171.86 527.541 166.734L526.499 165.026ZM497.413 156.24C505.298 156.294 511.935 154.554 517.261 150.948L516.139 149.292C511.225 152.62 505.009 154.292 497.427 154.24L497.413 156.24ZM517.257 150.951C522.611 147.363 526.598 142.317 529.226 135.857L527.374 135.103C524.882 141.229 521.136 145.944 516.143 149.289L517.257 150.951ZM529.224 135.864C531.898 129.424 533.22 121.928 533.22 113.4H531.22C531.22 121.725 529.929 128.95 527.376 135.096L529.224 135.864ZM533.22 113.4C533.22 104.873 531.898 97.4277 529.221 91.0909L527.379 91.8691C529.929 97.9056 531.22 105.074 531.22 113.4H533.22ZM529.225 91.1004C526.596 84.6928 522.609 79.6757 517.257 76.0893L516.143 77.7507C521.138 81.0977 524.884 85.7872 527.375 91.8596L529.225 91.1004ZM517.261 76.092C511.943 72.4913 505.313 70.6688 497.434 70.5601L497.406 72.5599C504.993 72.6646 511.217 74.4154 516.139 77.748L517.261 76.092ZM497.427 70.56C489.542 70.5056 482.905 72.2464 477.579 75.852L478.701 77.508C483.615 74.1803 489.831 72.5077 497.413 72.56L497.427 70.56ZM477.579 75.852C472.281 79.4392 468.297 84.4819 465.616 90.9365L467.464 91.7035C470.01 85.5715 473.759 80.8541 478.701 77.508L477.579 75.852ZM465.614 90.9432C462.995 97.3812 461.7 104.874 461.7 113.4H463.7C463.7 105.072 464.965 97.8455 467.466 91.6968L465.614 90.9432ZM461.7 113.4C461.7 121.926 462.995 129.393 465.615 135.78L467.465 135.02C464.965 128.927 463.7 121.728 463.7 113.4H461.7ZM465.616 135.782C468.244 142.134 472.204 147.122 477.499 150.708L478.621 149.052C473.676 145.704 469.956 141.039 467.464 135.018L465.616 135.782ZM477.503 150.711C482.872 154.309 489.526 156.131 497.406 156.24L497.434 154.24C489.847 154.135 483.594 152.385 478.617 149.049L477.503 150.711ZM587.664 165.88L587.139 166.731L587.143 166.734L587.664 165.88ZM568.704 144.76L567.804 145.197L567.806 145.201L568.704 144.76ZM568.704 82.04L567.806 81.5992L567.804 81.6035L568.704 82.04ZM587.664 61L588.185 61.8536L588.189 61.8511L587.664 61ZM650.464 63.4L649.862 64.1988L649.865 64.2012L650.464 63.4ZM669.104 90.2L669.37 91.164L670.371 90.8878L670.057 89.8974L669.104 90.2ZM649.664 95.56L648.705 95.8455L648.985 96.7844L649.93 96.524L649.664 95.56ZM638.224 77.96L637.603 78.7439L637.608 78.7477L638.224 77.96ZM597.904 76.76L597.347 75.9293L597.343 75.9319L597.904 76.76ZM586.304 91.4L585.38 91.0165L585.379 91.0204L586.304 91.4ZM582.384 113.4L581.384 113.394V113.4H582.384ZM586.224 135.48L585.297 135.857L585.301 135.866L586.224 135.48ZM597.904 150.04L598.46 149.209L598.46 149.209L597.904 150.04ZM638.224 148.84L637.603 148.056L637.603 148.056L638.224 148.84ZM649.664 131.24L649.93 130.276L648.987 130.016L648.706 130.953L649.664 131.24ZM669.104 136.6L670.057 136.903L670.371 135.912L669.37 135.636L669.104 136.6ZM650.464 163.48L651.062 164.281L651.065 164.279L650.464 163.48ZM617.264 172.4C605.891 172.4 596.213 169.927 588.185 165.026L587.143 166.734C595.541 171.86 605.596 174.4 617.264 174.4V172.4ZM588.189 165.029C580.142 160.065 573.948 153.171 569.601 144.319L567.806 145.201C572.312 154.376 578.758 161.561 587.139 166.731L588.189 165.029ZM569.603 144.323C565.307 135.469 563.144 125.17 563.144 113.4H561.144C561.144 125.417 563.353 136.024 567.804 145.197L569.603 144.323ZM563.144 113.4C563.144 101.63 565.307 91.3306 569.603 82.4765L567.804 81.6035C563.353 90.776 561.144 101.383 561.144 113.4H563.144ZM569.601 82.4808C573.948 73.6302 580.141 66.7634 588.185 61.8535L587.143 60.1464C578.76 65.2632 572.313 72.4231 567.806 81.5992L569.601 82.4808ZM588.189 61.8511C596.216 56.8992 605.893 54.4 617.264 54.4V52.4C605.595 52.4 595.538 54.9675 587.139 60.1489L588.189 61.8511ZM617.264 54.4C630.371 54.4 641.215 57.6871 649.862 64.1988L651.065 62.6012C642.006 55.7796 630.716 52.4 617.264 52.4V54.4ZM649.865 64.2012C658.54 70.6807 664.636 79.434 668.151 90.5026L670.057 89.8974C666.425 78.4593 660.095 69.346 651.062 62.5988L649.865 64.2012ZM668.838 89.236L649.398 94.596L649.93 96.524L669.37 91.164L668.838 89.236ZM650.622 95.2745C648.332 87.586 644.413 81.5317 638.84 77.1723L637.608 78.7477C642.808 82.8149 646.516 88.494 648.705 95.8455L650.622 95.2745ZM638.845 77.1761C633.241 72.7375 626.018 70.56 617.264 70.56V72.56C625.683 72.56 632.433 74.6491 637.603 78.7439L638.845 77.1761ZM617.264 70.56C609.38 70.56 602.721 72.3282 597.347 75.9293L598.46 77.5907C603.433 74.2585 609.681 72.56 617.264 72.56V70.56ZM597.343 75.9319C592.045 79.5192 588.061 84.5619 585.38 91.0165L587.227 91.7835C589.774 85.6515 593.523 80.9341 598.464 77.588L597.343 75.9319ZM585.379 91.0204C582.76 97.4044 581.438 104.87 581.384 113.394L583.384 113.406C583.436 105.077 584.728 97.8756 587.229 91.7796L585.379 91.0204ZM581.384 113.4C581.384 121.926 582.679 129.419 585.297 135.857L587.15 135.103C584.649 128.955 583.384 121.728 583.384 113.4H581.384ZM585.301 135.866C587.984 142.271 591.997 147.286 597.347 150.871L598.46 149.209C593.464 145.861 589.691 141.169 587.146 135.094L585.301 135.866ZM597.347 150.871C602.721 154.472 609.38 156.24 617.264 156.24V154.24C609.681 154.24 603.433 152.542 598.46 149.209L597.347 150.871ZM617.264 156.24C626.018 156.24 633.241 154.062 638.845 149.624L637.603 148.056C632.433 152.151 625.683 154.24 617.264 154.24V156.24ZM638.845 149.624C644.413 145.213 648.331 139.163 650.622 131.527L648.706 130.953C646.517 138.251 642.808 143.933 637.603 148.056L638.845 149.624ZM649.398 132.204L668.838 137.564L669.37 135.636L649.93 130.276L649.398 132.204ZM668.151 136.297C664.636 147.366 658.539 156.148 649.862 162.681L651.065 164.279C660.096 157.479 666.425 148.34 670.057 136.903L668.151 136.297ZM649.865 162.679C641.217 169.139 630.373 172.4 617.264 172.4V174.4C630.715 174.4 642.003 171.048 651.062 164.281L649.865 162.679ZM714.349 171H713.349V172H714.349V171ZM714.349 73.88H715.349V72.88H714.349V73.88ZM677.069 73.88H676.069V74.88H677.069V73.88ZM677.069 55.8V54.8H676.069V55.8H677.069ZM770.909 55.8H771.909V54.8H770.909V55.8ZM770.909 73.88V74.88H771.909V73.88H770.909ZM733.629 73.88V72.88H732.629V73.88H733.629ZM733.629 171V172H734.629V171H733.629ZM715.349 171V73.88H713.349V171H715.349ZM714.349 72.88H677.069V74.88H714.349V72.88ZM678.069 73.88V55.8H676.069V73.88H678.069ZM677.069 56.8H770.909V54.8H677.069V56.8ZM769.909 55.8V73.88H771.909V55.8H769.909ZM770.909 72.88H733.629V74.88H770.909V72.88ZM732.629 73.88V171H734.629V73.88H732.629ZM733.629 170H714.349V172H733.629V170ZM783.54 171H782.54V172H783.54V171ZM783.54 55.8V54.8H782.54V55.8H783.54ZM802.82 55.8H803.82V54.8H802.82V55.8ZM802.82 96.04H801.82V97.04H802.82V96.04ZM835.46 96.2L835.401 97.1983L835.416 97.1991L835.431 97.1996L835.46 96.2ZM840.42 96.68L840.244 97.6644L840.256 97.6666L840.269 97.6685L840.42 96.68ZM856.82 103.32L856.2 104.105L856.205 104.108L856.82 103.32ZM866.5 116.28L865.571 116.65L865.576 116.661L866.5 116.28ZM866.5 150.84L865.574 150.462L865.572 150.467L866.5 150.84ZM856.82 163.72L856.205 162.932L856.2 162.935L856.82 163.72ZM840.42 170.36L840.561 171.35L840.571 171.348L840.42 170.36ZM835.46 170.84L835.401 169.842L835.4 169.842L835.46 170.84ZM802.82 152.92H801.82V153.92H802.82V152.92ZM833.94 152.76L833.86 151.763L833.857 151.763L833.94 152.76ZM837.7 152.2L837.922 153.175L837.934 153.172L837.946 153.169L837.7 152.2ZM845.14 147.96L844.404 147.283L844.4 147.288L844.395 147.293L845.14 147.96ZM849.06 141.08L848.104 140.787L848.1 140.8L849.06 141.08ZM849.06 125.96L848.1 126.24L848.103 126.249L848.106 126.258L849.06 125.96ZM845.14 119.08L844.395 119.747L844.4 119.752L844.404 119.757L845.14 119.08ZM837.7 114.84L837.437 115.805L837.445 115.807L837.454 115.809L837.7 114.84ZM833.94 114.2L833.857 115.197L833.86 115.197L833.94 114.2ZM802.82 114.04V113.04H801.82V114.04H802.82ZM784.54 171V55.8H782.54V171H784.54ZM783.54 56.8H802.82V54.8H783.54V56.8ZM801.82 55.8V96.04H803.82V55.8H801.82ZM802.82 97.04H831.14V95.04H802.82V97.04ZM831.14 97.04C832.178 97.04 833.596 97.0921 835.401 97.1983L835.519 95.2017C833.697 95.0946 832.235 95.04 831.14 95.04V97.04ZM835.431 97.1996C837.204 97.2517 838.808 97.4079 840.244 97.6644L840.596 95.6956C839.046 95.4188 837.343 95.2549 835.489 95.2004L835.431 97.1996ZM840.269 97.6685C846.747 98.6612 852.042 100.82 856.2 104.105L857.44 102.535C852.958 98.9938 847.319 96.7255 840.571 95.6915L840.269 97.6685ZM856.205 104.108C860.436 107.411 863.556 111.586 865.571 116.65L867.429 115.91C865.284 110.521 861.951 106.056 857.435 102.532L856.205 104.108ZM865.576 116.661C867.653 121.699 868.7 127.301 868.7 133.48H870.7C870.7 127.072 869.614 121.207 867.424 115.899L865.576 116.661ZM868.7 133.48C868.7 139.713 867.653 145.369 865.574 150.462L867.426 151.218C869.614 145.857 870.7 139.94 870.7 133.48H868.7ZM865.572 150.467C863.558 155.478 860.438 159.627 856.205 162.932L857.435 164.508C861.948 160.986 865.282 156.549 867.428 151.213L865.572 150.467ZM856.2 162.935C852.042 166.22 846.747 168.379 840.269 169.372L840.571 171.348C847.319 170.315 852.958 168.046 857.44 164.505L856.2 162.935ZM840.279 169.37C838.818 169.579 837.192 169.736 835.401 169.842L835.519 171.838C837.354 171.73 839.036 171.568 840.561 171.35L840.279 169.37ZM835.4 169.842C833.65 169.948 832.232 170 831.14 170V172C832.288 172 833.75 171.945 835.52 171.838L835.4 169.842ZM831.14 170H783.54V172H831.14V170ZM802.82 153.92H830.34V151.92H802.82V153.92ZM830.34 153.92C831.491 153.92 832.719 153.865 834.023 153.757L833.857 151.763C832.601 151.868 831.429 151.92 830.34 151.92V153.92ZM834.02 153.757C835.396 153.647 836.697 153.454 837.922 153.175L837.478 151.225C836.357 151.48 835.151 151.66 833.86 151.763L834.02 153.757ZM837.946 153.169C841.248 152.33 843.915 150.828 845.885 148.627L844.395 147.293C842.738 149.145 840.446 150.47 837.454 151.231L837.946 153.169ZM845.876 148.637C847.843 146.501 849.229 144.073 850.02 141.36L848.1 140.8C847.398 143.207 846.17 145.365 844.404 147.283L845.876 148.637ZM850.016 141.373C850.842 138.675 851.26 136.043 851.26 133.48H849.26C849.26 135.824 848.878 138.258 848.104 140.787L850.016 141.373ZM851.26 133.48C851.26 130.917 850.842 128.309 850.014 125.662L848.106 126.258C848.878 128.731 849.26 131.137 849.26 133.48H851.26ZM850.02 125.68C849.229 122.967 847.843 120.539 845.876 118.403L844.404 119.757C846.17 121.675 847.398 123.833 848.1 126.24L850.02 125.68ZM845.885 118.413C843.915 116.212 841.248 114.71 837.946 113.871L837.454 115.809C840.446 116.57 842.738 117.895 844.395 119.747L845.885 118.413ZM837.963 113.875C836.724 113.537 835.409 113.314 834.02 113.203L833.86 115.197C835.138 115.299 836.329 115.503 837.437 115.805L837.963 113.875ZM834.023 113.203C832.719 113.095 831.491 113.04 830.34 113.04V115.04C831.429 115.04 832.601 115.092 833.857 115.197L834.023 113.203ZM830.34 113.04H802.82V115.04H830.34V113.04ZM801.82 114.04V152.92H803.82V114.04H801.82Z" fill="#FF6914"/>
<path d="M103.68 331V332H104.68V331H103.68ZM84.16 331H83.16V332H84.16V331ZM84.16 249.8H85.16V246.462L83.3247 249.25L84.16 249.8ZM30.72 331V332H31.259L31.5553 331.55L30.72 331ZM11.2 331H10.2V332H11.2V331ZM11.2 215.8V214.8H10.2V215.8H11.2ZM30.72 215.8H31.72V214.8H30.72V215.8ZM30.72 297H29.72V300.338L31.5553 297.55L30.72 297ZM84.16 215.8V214.8H83.621L83.3247 215.25L84.16 215.8ZM103.68 215.8H104.68V214.8H103.68V215.8ZM103.68 330H84.16V332H103.68V330ZM85.16 331V249.8H83.16V331H85.16ZM83.3247 249.25L29.8847 330.45L31.5553 331.55L84.9953 250.35L83.3247 249.25ZM30.72 330H11.2V332H30.72V330ZM12.2 331V215.8H10.2V331H12.2ZM11.2 216.8H30.72V214.8H11.2V216.8ZM29.72 215.8V297H31.72V215.8H29.72ZM31.5553 297.55L84.9953 216.35L83.3247 215.25L29.8847 296.45L31.5553 297.55ZM84.16 216.8H103.68V214.8H84.16V216.8ZM102.68 215.8V331H104.68V215.8H102.68ZM158.075 331H157.075V332H158.075V331ZM158.075 215.8V214.8H157.075V215.8H158.075ZM175.435 215.8L176.334 215.361L176.06 214.8H175.435V215.8ZM215.275 297.4L214.376 297.839L215.275 299.679L216.174 297.839L215.275 297.4ZM255.115 215.8V214.8H254.49L254.216 215.361L255.115 215.8ZM272.475 215.8H273.475V214.8H272.475V215.8ZM272.475 331V332H273.475V331H272.475ZM254.475 331H253.475V332H254.475V331ZM254.475 257.16H255.475L253.573 256.728L254.475 257.16ZM219.115 331V332H219.745L220.017 331.432L219.115 331ZM211.435 331L210.533 331.431L210.805 332H211.435V331ZM176.155 257.16L177.057 256.729L175.155 257.16H176.155ZM176.155 331V332H177.155V331H176.155ZM159.075 331V215.8H157.075V331H159.075ZM158.075 216.8H175.435V214.8H158.075V216.8ZM174.536 216.239L214.376 297.839L216.174 296.961L176.334 215.361L174.536 216.239ZM216.174 297.839L256.014 216.239L254.216 215.361L214.376 296.961L216.174 297.839ZM255.115 216.8H272.475V214.8H255.115V216.8ZM271.475 215.8V331H273.475V215.8H271.475ZM272.475 330H254.475V332H272.475V330ZM255.475 331V257.16H253.475V331H255.475ZM253.573 256.728L218.213 330.568L220.017 331.432L255.377 257.592L253.573 256.728ZM219.115 330H211.435V332H219.115V330ZM212.337 330.569L177.057 256.729L175.253 257.591L210.533 331.431L212.337 330.569ZM175.155 257.16V331H177.155V257.16H175.155ZM176.155 330H158.075V332H176.155V330ZM314.07 325.88L313.545 326.731L313.549 326.734L314.07 325.88ZM295.11 304.76L294.21 305.197L294.212 305.201L295.11 304.76ZM295.11 242.04L294.212 241.599L294.21 241.603L295.11 242.04ZM314.07 221L314.591 221.854L314.595 221.851L314.07 221ZM373.27 221L372.745 221.851L372.751 221.855L373.27 221ZM392.23 242.04L391.33 242.477L391.332 242.481L392.23 242.04ZM392.23 304.76L391.332 304.319L391.33 304.323L392.23 304.76ZM373.27 325.88L373.791 326.734L373.793 326.733L373.27 325.88ZM343.67 315.24L343.656 316.24L343.663 316.24L343.67 315.24ZM362.95 310.12L362.393 309.289L362.389 309.292L362.95 310.12ZM374.55 295.48L373.626 295.096L373.624 295.103L374.55 295.48ZM374.55 251.48L373.625 251.86L373.629 251.869L374.55 251.48ZM362.95 236.92L362.389 237.748L362.393 237.751L362.95 236.92ZM343.67 231.56L343.684 230.56L343.677 230.56L343.67 231.56ZM324.39 236.68L324.951 237.508L324.951 237.508L324.39 236.68ZM312.79 251.32L311.866 250.936L311.864 250.943L312.79 251.32ZM312.79 295.4L311.865 295.78L311.866 295.782L312.79 295.4ZM324.31 309.88L323.749 310.708L323.753 310.711L324.31 309.88ZM343.67 332.4C332.297 332.4 322.619 329.927 314.591 325.026L313.549 326.734C321.948 331.86 332.003 334.4 343.67 334.4V332.4ZM314.595 325.029C306.549 320.065 300.355 313.171 296.008 304.319L294.212 305.201C298.719 314.376 305.165 321.561 313.545 326.731L314.595 325.029ZM296.01 304.323C291.714 295.469 289.55 285.17 289.55 273.4H287.55C287.55 285.417 289.76 296.024 294.21 305.197L296.01 304.323ZM289.55 273.4C289.55 261.63 291.714 251.331 296.01 242.477L294.21 241.603C289.76 250.776 287.55 261.383 287.55 273.4H289.55ZM296.008 242.481C300.354 233.63 306.547 226.763 314.591 221.854L313.549 220.146C305.166 225.263 298.719 232.423 294.212 241.599L296.008 242.481ZM314.595 221.851C322.622 216.899 332.299 214.4 343.67 214.4V212.4C332.001 212.4 321.944 214.967 313.545 220.149L314.595 221.851ZM343.67 214.4C355.041 214.4 364.718 216.899 372.745 221.851L373.795 220.149C365.396 214.967 355.339 212.4 343.67 212.4V214.4ZM372.751 221.855C380.847 226.765 387.038 233.63 391.33 242.477L393.13 241.603C388.675 232.423 382.226 225.262 373.789 220.145L372.751 221.855ZM391.332 242.481C395.68 251.334 397.87 261.632 397.87 273.4H399.87C399.87 261.382 397.633 250.773 393.128 241.599L391.332 242.481ZM397.87 273.4C397.87 285.168 395.68 295.466 391.332 304.319L393.128 305.201C397.633 296.027 399.87 285.418 399.87 273.4H397.87ZM391.33 304.323C387.037 313.171 380.846 320.064 372.747 325.027L373.793 326.733C382.228 321.563 388.676 314.376 393.13 305.197L391.33 304.323ZM372.749 325.026C364.721 329.927 355.043 332.4 343.67 332.4V334.4C355.337 334.4 365.392 331.86 373.791 326.734L372.749 325.026ZM343.663 316.24C351.548 316.294 358.185 314.554 363.511 310.948L362.389 309.292C357.475 312.62 351.259 314.292 343.677 314.24L343.663 316.24ZM363.507 310.951C368.861 307.363 372.848 302.317 375.476 295.857L373.624 295.103C371.132 301.229 367.386 305.944 362.393 309.289L363.507 310.951ZM375.474 295.864C378.148 289.424 379.47 281.928 379.47 273.4H377.47C377.47 281.725 376.179 288.95 373.626 295.096L375.474 295.864ZM379.47 273.4C379.47 264.873 378.148 257.428 375.471 251.091L373.629 251.869C376.179 257.906 377.47 265.074 377.47 273.4H379.47ZM375.475 251.1C372.846 244.693 368.859 239.676 363.507 236.089L362.393 237.751C367.388 241.098 371.134 245.787 373.625 251.86L375.475 251.1ZM363.511 236.092C358.193 232.491 351.563 230.669 343.684 230.56L343.656 232.56C351.243 232.665 357.467 234.415 362.389 237.748L363.511 236.092ZM343.677 230.56C335.792 230.506 329.155 232.246 323.829 235.852L324.951 237.508C329.865 234.18 336.081 232.508 343.663 232.56L343.677 230.56ZM323.829 235.852C318.531 239.439 314.547 244.482 311.866 250.936L313.714 251.703C316.26 245.571 320.009 240.854 324.951 237.508L323.829 235.852ZM311.864 250.943C309.245 257.381 307.95 264.874 307.95 273.4H309.95C309.95 265.072 311.215 257.845 313.716 251.697L311.864 250.943ZM307.95 273.4C307.95 281.926 309.245 289.393 311.865 295.78L313.715 295.02C311.215 288.927 309.95 281.728 309.95 273.4H307.95ZM311.866 295.782C314.494 302.134 318.454 307.122 323.749 310.708L324.871 309.052C319.926 305.704 316.206 301.039 313.714 295.018L311.866 295.782ZM323.753 310.711C329.122 314.309 335.776 316.131 343.656 316.24L343.684 314.24C336.097 314.135 329.844 312.385 324.867 309.049L323.753 310.711ZM537.354 349.16H536.354V350.16H537.354V349.16ZM537.354 331H538.354V330H537.354V331ZM526.154 331H525.154V332H526.154V331ZM526.154 313.88V312.88H525.154V313.88H526.154ZM556.634 313.88H557.634V312.88H556.634V313.88ZM556.634 349.16V350.16H557.634V349.16H556.634ZM414.794 331H413.794V332H414.794V331ZM414.794 215.8V214.8H413.794V215.8H414.794ZM434.074 215.8H435.074V214.8H434.074V215.8ZM434.074 312.92H433.074V313.92H434.074V312.92ZM469.674 312.92V313.92H470.674V312.92H469.674ZM469.674 215.8V214.8H468.674V215.8H469.674ZM488.954 215.8H489.954V214.8H488.954V215.8ZM488.954 312.92H487.954V313.92H488.954V312.92ZM524.634 312.92V313.92H525.634V312.92H524.634ZM524.634 215.8V214.8H523.634V215.8H524.634ZM543.834 215.8H544.834V214.8H543.834V215.8ZM543.834 331V332H544.834V331H543.834ZM538.354 349.16V331H536.354V349.16H538.354ZM537.354 330H526.154V332H537.354V330ZM527.154 331V313.88H525.154V331H527.154ZM526.154 314.88H556.634V312.88H526.154V314.88ZM555.634 313.88V349.16H557.634V313.88H555.634ZM556.634 348.16H537.354V350.16H556.634V348.16ZM415.794 331V215.8H413.794V331H415.794ZM414.794 216.8H434.074V214.8H414.794V216.8ZM433.074 215.8V312.92H435.074V215.8H433.074ZM434.074 313.92H469.674V311.92H434.074V313.92ZM470.674 312.92V215.8H468.674V312.92H470.674ZM469.674 216.8H488.954V214.8H469.674V216.8ZM487.954 215.8V312.92H489.954V215.8H487.954ZM488.954 313.92H524.634V311.92H488.954V313.92ZM525.634 312.92V215.8H523.634V312.92H525.634ZM524.634 216.8H543.834V214.8H524.634V216.8ZM542.834 215.8V331H544.834V215.8H542.834ZM543.834 330H414.794V332H543.834V330ZM569.321 331H568.321V332H569.321V331ZM569.321 215.8V214.8H568.321V215.8H569.321ZM588.601 215.8H589.601V214.8H588.601V215.8ZM588.601 256.04H587.601V257.04H588.601V256.04ZM621.241 256.2L621.183 257.198L621.197 257.199L621.212 257.2L621.241 256.2ZM626.201 256.68L626.025 257.664L626.038 257.667L626.05 257.668L626.201 256.68ZM642.601 263.32L641.981 264.105L641.986 264.108L642.601 263.32ZM652.281 276.28L651.352 276.65L651.357 276.661L652.281 276.28ZM652.281 310.84L651.355 310.462L651.353 310.467L652.281 310.84ZM642.601 323.72L641.986 322.932L641.981 322.935L642.601 323.72ZM626.201 330.36L626.343 331.35L626.353 331.348L626.201 330.36ZM621.241 330.84L621.183 329.842L621.181 329.842L621.241 330.84ZM588.601 312.92H587.601V313.92H588.601V312.92ZM619.721 312.76L619.642 311.763L619.638 311.763L619.721 312.76ZM623.481 312.2L623.703 313.175L623.715 313.172L623.728 313.169L623.481 312.2ZM630.921 307.96L630.186 307.283L630.181 307.288L630.176 307.293L630.921 307.96ZM634.841 301.08L633.885 300.787L633.881 300.8L634.841 301.08ZM634.841 285.96L633.881 286.24L633.884 286.249L633.887 286.258L634.841 285.96ZM630.921 279.08L630.176 279.747L630.181 279.752L630.186 279.757L630.921 279.08ZM623.481 274.84L623.218 275.805L623.226 275.807L623.235 275.809L623.481 274.84ZM619.721 274.2L619.638 275.197L619.642 275.197L619.721 274.2ZM588.601 274.04V273.04H587.601V274.04H588.601ZM570.321 331V215.8H568.321V331H570.321ZM569.321 216.8H588.601V214.8H569.321V216.8ZM587.601 215.8V256.04H589.601V215.8H587.601ZM588.601 257.04H616.921V255.04H588.601V257.04ZM616.921 257.04C617.959 257.04 619.377 257.092 621.183 257.198L621.3 255.202C619.479 255.095 618.016 255.04 616.921 255.04V257.04ZM621.212 257.2C622.985 257.252 624.589 257.408 626.025 257.664L626.377 255.696C624.827 255.419 623.124 255.255 621.271 255.2L621.212 257.2ZM626.05 257.668C632.529 258.661 637.824 260.82 641.981 264.105L643.221 262.535C638.739 258.994 633.101 256.725 626.353 255.692L626.05 257.668ZM641.986 264.108C646.217 267.411 649.337 271.586 651.352 276.65L653.21 275.91C651.066 270.521 647.732 266.056 643.217 262.532L641.986 264.108ZM651.357 276.661C653.434 281.699 654.481 287.301 654.481 293.48H656.481C656.481 287.072 655.395 281.207 653.206 275.899L651.357 276.661ZM654.481 293.48C654.481 299.713 653.434 305.369 651.355 310.462L653.207 311.218C655.395 305.857 656.481 299.94 656.481 293.48H654.481ZM651.353 310.467C649.339 315.478 646.22 319.627 641.986 322.932L643.217 324.508C647.73 320.986 651.064 316.549 653.209 311.213L651.353 310.467ZM641.981 322.935C637.824 326.22 632.529 328.379 626.05 329.372L626.353 331.348C633.101 330.315 638.739 328.046 643.221 324.505L641.981 322.935ZM626.06 329.37C624.599 329.579 622.974 329.736 621.183 329.842L621.3 331.838C623.136 331.73 624.817 331.568 626.343 331.35L626.06 329.37ZM621.181 329.842C619.431 329.948 618.013 330 616.921 330V332C618.069 332 619.532 331.945 621.302 331.838L621.181 329.842ZM616.921 330H569.321V332H616.921V330ZM588.601 313.92H616.121V311.92H588.601V313.92ZM616.121 313.92C617.273 313.92 618.501 313.865 619.804 313.757L619.638 311.763C618.382 311.868 617.21 311.92 616.121 311.92V313.92ZM619.801 313.757C621.177 313.647 622.478 313.454 623.703 313.175L623.26 311.225C622.138 311.48 620.932 311.66 619.642 311.763L619.801 313.757ZM623.728 313.169C627.029 312.33 629.697 310.828 631.666 308.627L630.176 307.293C628.519 309.145 626.227 310.47 623.235 311.231L623.728 313.169ZM631.657 308.637C633.624 306.501 635.01 304.073 635.801 301.36L633.881 300.8C633.179 303.207 631.951 305.365 630.186 307.283L631.657 308.637ZM635.797 301.373C636.623 298.675 637.041 296.043 637.041 293.48H635.041C635.041 295.824 634.659 298.258 633.885 300.787L635.797 301.373ZM637.041 293.48C637.041 290.917 636.623 288.309 635.796 285.662L633.887 286.258C634.659 288.731 635.041 291.137 635.041 293.48H637.041ZM635.801 285.68C635.01 282.967 633.624 280.539 631.657 278.403L630.186 279.757C631.951 281.675 633.179 283.833 633.881 286.24L635.801 285.68ZM631.666 278.413C629.697 276.212 627.029 274.71 623.728 273.871L623.235 275.809C626.227 276.57 628.519 277.895 630.176 279.747L631.666 278.413ZM623.744 273.875C622.505 273.537 621.19 273.314 619.801 273.203L619.642 275.197C620.919 275.299 622.11 275.503 623.218 275.805L623.744 273.875ZM619.804 273.203C618.501 273.095 617.273 273.04 616.121 273.04V275.04C617.21 275.04 618.382 275.092 619.638 275.197L619.804 273.203ZM616.121 273.04H588.601V275.04H616.121V273.04ZM587.601 274.04V312.92H589.601V274.04H587.601Z" fill="#FF6914"/>
</svg>
