<svg width="1440" height="655" viewBox="0 0 1440 655" fill="none" xmlns="http://www.w3.org/2000/svg">
<path d="M339.707 523V132H1099.05V523H339.707Z" stroke="#5B5B5B" stroke-linecap="round"/>
<path d="M144.875 654L404.649 523" stroke="#5B5B5B" stroke-linecap="round"/>
<path d="M1 1L339.705 132" stroke="#5B5B5B" stroke-linecap="round"/>
<path d="M339.707 523L1.00162 654" stroke="#5B5B5B" stroke-linecap="round"/>
<path d="M1438.75 654L1099.05 523" stroke="#5B5B5B" stroke-linecap="round"/>
<path d="M1438.75 1L1099.05 132" stroke="#5B5B5B" stroke-linecap="round"/>
<path d="M1 654L1438.75 654" stroke="#5B5B5B" stroke-linecap="round"/>
<path d="M1 1L1438.75 1" stroke="#5B5B5B" stroke-linecap="round"/>
<path d="M719.375 1V654" stroke="#5B5B5B" stroke-linecap="round"/>
<path d="M1 328H1439" stroke="#5B5B5B" stroke-linecap="round"/>
<path d="M1034.1 523L1293.88 654" stroke="#5B5B5B" stroke-linecap="round"/>
<path d="M339.703 654L534.534 523" stroke="#5B5B5B" stroke-linecap="round"/>
<path d="M904.211 523L1099.04 654" stroke="#5B5B5B" stroke-linecap="round"/>
<path d="M404.648 132V523" stroke="#5B5B5B" stroke-linecap="round"/>
<path d="M534.535 132V523" stroke="#5B5B5B" stroke-linecap="round"/>
<path d="M904.215 132V523" stroke="#5B5B5B" stroke-linecap="round"/>
<path d="M1034.1 132V523" stroke="#5B5B5B" stroke-linecap="round"/>
<path d="M274.766 548L1163.99 548" stroke="#5B5B5B" stroke-linecap="round"/>
<path d="M1228.93 573L209.82 573" stroke="#5B5B5B" stroke-linecap="round"/>
<path d="M124.895 606L1313.86 606" stroke="#5B5B5B" stroke-linecap="round"/>
<path d="M274.766 107L1163.99 107" stroke="#5B5B5B" stroke-linecap="round"/>
<path d="M1228.93 82L209.82 82" stroke="#5B5B5B" stroke-linecap="round"/>
<path d="M124.895 49L1313.86 49" stroke="#5B5B5B" stroke-linecap="round"/>
<path d="M274.762 107V548" stroke="#5B5B5B" stroke-linecap="round"/>
<path d="M209.82 573V82" stroke="#5B5B5B" stroke-linecap="round"/>
<path d="M124.891 49V606" stroke="#5B5B5B" stroke-linecap="round"/>
<path d="M1 1V654" stroke="#5B5B5B" stroke-linecap="round"/>
<path d="M1163.98 107V548" stroke="#5B5B5B" stroke-linecap="round"/>
<path d="M1228.93 573V82" stroke="#5B5B5B" stroke-linecap="round"/>
<path d="M1314 49V606" stroke="#5B5B5B" stroke-linecap="round"/>
<path d="M1439 1V654.001" stroke="#5B5B5B" stroke-linecap="round"/>
<path d="M124.895 1L404.651 132" stroke="#5B5B5B" stroke-linecap="round"/>
<path d="M339.707 1L534.538 132" stroke="#5B5B5B" stroke-linecap="round"/>
<path d="M904.215 132L1099.05 1" stroke="#5B5B5B" stroke-linecap="round"/>
<path d="M1034.1 132L1313.86 1.00001" stroke="#5B5B5B" stroke-linecap="round"/>
<path d="M337.609 229.727H1101.15" stroke="#5B5B5B" stroke-linecap="round"/>
<path d="M337.609 426.023H1101.15" stroke="#5B5B5B" stroke-linecap="round"/>
<path d="M337.606 229.727L1 161" stroke="#5B5B5B" stroke-linecap="round"/>
<path d="M337.707 426L1 494" stroke="#5B5B5B" stroke-linecap="round"/>
<path d="M1101.15 229.726L1438.01 161.547" stroke="#5B5B5B" stroke-linecap="round"/>
<path d="M1101.15 426.022L1439.01 495" stroke="#5B5B5B" stroke-linecap="round"/>
</svg>
