<svg width="320" height="312" viewBox="0 0 320 312" fill="none" xmlns="http://www.w3.org/2000/svg">
<path d="M82 248.016V63.0156H239V248.016H82Z" stroke="#3B3B3B" stroke-linecap="round"/>
<path d="M80.75 310.09L117.634 248.09" stroke="#3B3B3B" stroke-linecap="round"/>
<path d="M1 1.08984L81.4927 63.0898" stroke="#3B3B3B" stroke-linecap="round"/>
<path d="M81.4922 248.09L0.999459 310.09" stroke="#3B3B3B" stroke-linecap="round"/>
<path d="M318.992 310.09L238.499 248.09" stroke="#3B3B3B" stroke-linecap="round"/>
<path d="M319 1.00781L239 63.0078" stroke="#3B3B3B" stroke-linecap="round"/>
<path d="M1 310.09H318.994" stroke="#3B3B3B" stroke-linecap="round"/>
<path d="M1 1H319" stroke="#3B3B3B" stroke-linecap="round"/>
<path d="M159 2.01562V311.015" stroke="#3B3B3B" stroke-linecap="round"/>
<path d="M1 156.055H319" stroke="#3B3B3B" stroke-linecap="round"/>
<path d="M202.359 248.09L238.246 310.09" stroke="#3B3B3B" stroke-linecap="round"/>
<path d="M117.633 63.2148V247.763" stroke="#3B3B3B" stroke-linecap="round"/>
<path d="M202 63.2148V247.763" stroke="#3B3B3B" stroke-linecap="round"/>
<path d="M275.221 35.0625H44.8594" stroke="#3B3B3B" stroke-linecap="round"/>
<path d="M20.9375 16.0469H299.059" stroke="#3B3B3B" stroke-linecap="round"/>
<path d="M275.001 276.043L44.7734 276.043" stroke="#3B3B3B" stroke-linecap="round"/>
<path d="M298 294.086H20.9328" stroke="#3B3B3B" stroke-linecap="round"/>
<path d="M44.8594 276.047V35.0469" stroke="#3B3B3B" stroke-linecap="round"/>
<path d="M20.9375 16.0469L20.9375 294.047" stroke="#3B3B3B" stroke-linecap="round"/>
<path d="M1 1.06641L0.999986 310.066" stroke="#3B3B3B" stroke-linecap="round"/>
<path d="M275.133 276.08L275.133 35.0625" stroke="#3B3B3B" stroke-linecap="round"/>
<path d="M299 15.9844L299 294.005" stroke="#3B3B3B" stroke-linecap="round"/>
<path d="M319 1L319 310.023" stroke="#3B3B3B" stroke-linecap="round"/>
<path d="M56.8281 1.08984L117.636 63.0898" stroke="#3B3B3B" stroke-linecap="round"/>
<path d="M202 63.0156L263 1.01563" stroke="#3B3B3B" stroke-linecap="round"/>
<path d="M81.75 109.051H238.256" stroke="#3B3B3B" stroke-linecap="round"/>
<path d="M81.75 202.211H238.256" stroke="#3B3B3B" stroke-linecap="round"/>
<path d="M81.7451 109.051L1 77.0508" stroke="#3B3B3B" stroke-linecap="round"/>
<path d="M81.7451 202.059L1 234.059" stroke="#3B3B3B" stroke-linecap="round"/>
<path d="M238.594 109.325L318.797 77.0625" stroke="#3B3B3B" stroke-linecap="round"/>
<path d="M238.594 202.21L318.797 234.473" stroke="#3B3B3B" stroke-linecap="round"/>
</svg>
