<svg width="61" height="30" viewBox="0 0 61 30" fill="none" xmlns="http://www.w3.org/2000/svg">
<path d="M9.2574 28.3902C9.15114 28.3994 8.86933 28.2365 8.41199 27.9015C7.98122 27.5641 7.73356 27.0235 7.66901 26.2796C7.62412 25.4537 7.68204 24.5788 7.84277 23.6548C8.02776 22.7019 8.20868 21.8564 8.38555 21.1183C8.50346 20.6263 8.60171 20.2163 8.68032 19.8883C8.78549 19.5579 8.83462 19.3529 8.8277 19.2732C8.80114 19.2755 8.65733 19.3148 8.39627 19.391C8.16178 19.4648 7.86202 19.5578 7.497 19.6697C6.21827 20.0484 5.23354 20.2676 4.5428 20.3276C3.87863 20.3852 3.27287 20.0362 2.72551 19.2807C2.55228 19.1352 2.31439 18.8614 2.01184 18.4594C1.70929 18.0573 1.48298 17.6085 1.33292 17.113C1.20942 16.6151 1.30537 16.1785 1.62077 15.8032C1.82881 15.116 1.99986 14.6193 2.1339 14.3133C2.26795 14.0072 2.35577 13.7855 2.39738 13.648C2.46556 13.5083 2.49388 13.372 2.48236 13.2391C2.50431 13.1837 2.53725 13.1005 2.58116 12.9897C2.62507 12.8788 2.68227 12.7668 2.75275 12.6536C2.95727 12.2343 3.24441 11.6875 3.61416 11.013C4.01047 10.3362 4.42007 9.65823 4.84295 8.97914C5.29009 8.27117 5.69101 7.64751 6.04572 7.10816C6.39812 6.54225 6.66039 6.17153 6.83253 5.99599C6.98501 5.90246 7.25359 5.7587 7.63826 5.56473C8.0495 5.36844 8.34811 5.26223 8.53407 5.2461C8.74661 5.22765 8.95854 5.35648 9.16986 5.63259C9.40545 5.87981 9.60234 6.14378 9.76053 6.42449C9.91872 6.7052 10.0024 6.89869 10.0116 7.00495C10.0116 7.00495 10.0007 7.03267 9.97871 7.08811C9.95675 7.14355 9.91169 7.24115 9.84351 7.3809C9.75107 7.54952 9.61011 7.77588 9.42063 8.05999C9.25771 8.3418 9.00873 8.71137 8.67367 9.16871C8.38714 9.56831 8.0359 10.1475 7.61993 10.9063C7.20166 11.6385 6.788 12.4239 6.37895 13.2624C5.99416 14.072 5.66888 14.7962 5.40309 15.4349C5.13731 16.0736 5.01364 16.4992 5.03208 16.7117C5.0436 16.8446 5.09267 16.9474 5.17929 17.0202C5.29017 17.0641 5.47844 17.0745 5.74411 17.0515C6.08487 16.9684 6.38578 16.8887 6.64683 16.8125C6.93446 16.734 7.19552 16.6579 7.43001 16.584C7.71763 16.5055 7.96541 16.4305 8.17333 16.3589C8.37895 16.2607 8.57244 16.177 8.7538 16.1078C8.95942 16.0096 9.13962 15.9271 9.29442 15.8601C9.47347 15.7643 9.6248 15.6575 9.74841 15.5397C10.0442 15.2463 10.2521 14.8669 10.3724 14.4015C10.4926 13.936 10.6919 13.3031 10.9705 12.5027C11.1369 11.9529 11.3079 11.4562 11.4836 11.0127C11.6835 10.5403 11.8603 10.1101 12.014 9.72204C12.5721 8.44233 13.0528 7.50394 13.4561 6.90685C13.857 6.28319 14.084 5.96906 14.1371 5.96445C14.2168 5.95753 14.412 6.04766 14.7227 6.23484C15.0334 6.42202 15.3319 6.62363 15.6183 6.83968C15.847 7.00721 16.0347 7.16491 16.1813 7.31279C16.3257 7.4341 16.4002 7.52132 16.4048 7.57445C16.4325 7.89325 16.3816 8.23225 16.2521 8.59145C16.147 8.92178 15.98 9.31101 15.7512 9.75913C15.5224 10.2072 15.2642 10.7784 14.9764 11.4725C14.6448 12.2775 14.3397 13.0802 14.0611 13.8806C13.7803 14.6545 13.5128 15.4272 13.2585 16.1987C13.002 16.9437 12.7708 17.673 12.5651 18.3868C12.3593 19.1006 12.1634 19.7734 11.9773 20.4052C11.5289 22.0234 11.2306 23.2136 11.0827 23.9759C10.9347 24.7382 10.8733 25.2655 10.8987 25.5577C10.9483 25.8211 11.021 26.0423 11.1169 26.2213C11.1469 26.5667 11.0694 26.908 10.8845 27.2453C10.6973 27.5559 10.4524 27.8181 10.1498 28.0317C9.84709 28.2454 9.54964 28.3648 9.2574 28.3902ZM26.8097 27.3812C26.5676 27.5521 26.3181 27.638 26.0612 27.6388C25.8274 27.6591 25.5289 27.6743 25.1658 27.6844C24.8359 27.5846 24.6114 27.4648 24.4922 27.3253C24.3961 27.2051 24.2802 26.9797 24.1444 26.6488C24.1593 26.3263 24.1838 25.9923 24.2181 25.6467C24.2523 25.3011 24.3 24.9865 24.361 24.7028C24.4692 24.2223 24.5428 23.7127 24.5817 23.174C24.64 22.6122 24.7177 22.0273 24.8149 21.4193L25.4181 19.8573C25.482 19.3592 25.5856 18.8256 25.7289 18.2564C25.8722 17.6873 26.0017 17.2049 26.1173 16.8095C26.2467 16.3271 26.3674 15.867 26.4793 15.429C26.6124 14.9892 26.7377 14.5822 26.8551 14.2079C26.9236 14.0093 27.0077 13.745 27.1076 13.4151C27.2056 13.064 27.3124 12.6907 27.428 12.2953C27.5417 11.8785 27.6476 11.4946 27.7456 11.1435C27.7964 10.9892 27.8482 10.8455 27.9009 10.7125C27.9536 10.5794 27.9966 10.4579 28.0299 10.3479C27.6649 10.3368 27.3937 10.2961 27.2163 10.2258C27.037 10.1343 26.8841 9.97625 26.7576 9.75169C26.6985 9.56409 26.6403 9.38713 26.583 9.22079C26.547 9.0526 26.511 8.88442 26.475 8.71624C26.4603 8.54621 26.4358 8.38773 26.4016 8.2408C26.7371 7.9119 27.0509 7.70266 27.3429 7.61309C27.6543 7.50041 27.8525 7.44038 27.9376 7.43301C28.2259 7.30092 28.5248 7.16792 28.8344 7.03399C29.144 6.90006 29.4439 6.77768 29.7341 6.66685C29.8385 6.63637 30.1199 6.54772 30.5782 6.40088C31.0366 6.25404 31.5578 6.09105 32.1418 5.91189C32.7258 5.73273 33.2586 5.57944 33.74 5.45201C34.2196 5.30333 34.5232 5.22346 34.6507 5.2124C34.9252 5.16717 35.1377 5.14873 35.2883 5.15707C35.4584 5.14232 35.554 5.13402 35.5753 5.13218C35.8054 5.06938 36.0258 5.01814 36.2364 4.97845C36.4453 4.9175 36.6551 4.86718 36.8657 4.82748C37.0958 4.76469 37.3162 4.71345 37.5269 4.67375C37.7533 4.56846 37.9844 4.51629 38.22 4.51726C38.4538 4.49697 38.6529 4.44757 38.8174 4.36906C38.957 4.24988 39.1136 4.20417 39.2873 4.23193C39.4805 4.23658 39.7276 4.24726 40.0289 4.26395C40.3393 4.3869 40.5675 4.54912 40.7135 4.75059C40.8576 4.9308 40.9851 5.166 41.0959 5.45617L41.0389 6.64957C40.9187 6.74565 40.7482 6.87822 40.5273 7.04728C40.3277 7.21449 40.0865 7.39602 39.8037 7.59187C39.6817 7.66669 39.5597 7.74152 39.4377 7.81634C39.3158 7.89117 39.1822 7.95629 39.0371 8.0117C38.8301 8.09391 38.6213 8.15485 38.4106 8.19455C38.1999 8.23424 37.9952 8.21988 37.7966 8.15146C37.6848 8.09692 37.5854 8.06272 37.4986 8.04884C37.4311 8.01186 37.3752 7.98459 37.3309 7.96703C37.2422 7.9319 37.1872 7.91525 37.1659 7.9171C37.1447 7.91894 37.11 7.88983 37.062 7.82976C37.014 7.76968 36.8638 7.64352 36.6116 7.45127C36.3519 7.66653 36.1033 7.76304 35.8658 7.74082C35.6265 7.69735 35.3636 7.75228 35.0771 7.90562C34.8452 7.94715 34.5407 8.0164 34.1637 8.11336C33.7866 8.21031 33.4105 8.31789 33.0353 8.4361C32.6389 8.55615 32.285 8.67251 31.9735 8.78519C31.6603 8.87661 31.463 8.94726 31.3817 8.99715C31.2975 9.26141 31.2028 9.52659 31.0974 9.7927C31.0132 10.057 30.9397 10.3203 30.8768 10.5827C30.6522 11.2018 30.446 11.7871 30.2583 12.3388C30.0706 12.8904 29.9139 13.4286 29.7881 13.9534L28.494 18.6589C28.4413 18.792 28.3678 19.0553 28.2735 19.4489C28.1773 19.8213 28.0742 20.2371 27.9642 20.6964C27.8541 21.1556 27.7626 21.5811 27.6895 21.9729C27.6146 22.3434 27.572 22.5934 27.5618 22.7227C27.5414 22.9814 27.5026 23.2739 27.4452 23.6001C27.4091 23.9244 27.3518 24.2506 27.2732 24.5786C27.2019 24.9917 27.1307 25.4047 27.0595 25.8177C27.0077 26.2077 26.9813 26.5205 26.9803 26.7561C26.9932 26.9049 26.9724 27.0351 26.9179 27.1469C26.8633 27.2587 26.8273 27.3368 26.8097 27.3812ZM48.7964 4.65955C48.5782 5.10675 48.3494 5.55487 48.11 6.00391C47.8919 6.45111 47.6746 6.90893 47.4583 7.37739C47.2633 7.84399 47.0682 8.3106 46.8731 8.77721C46.6781 9.24382 46.5043 9.70858 46.3517 10.1715C46.6723 10.1651 46.993 10.1587 47.3136 10.1523C47.6324 10.1246 47.9531 10.1182 48.2756 10.1331C48.8355 10.1701 49.4819 10.3389 50.2146 10.6393C50.9667 10.9167 51.5978 11.2795 52.1078 11.7278C52.2233 11.8248 52.3175 11.9237 52.3905 12.0244C52.4847 12.1233 52.5683 12.2231 52.6413 12.3239C52.8224 12.4366 53.0118 12.6451 53.2095 12.9491C53.4284 13.2513 53.6164 13.5669 53.7734 13.8959C53.9517 14.223 54.0607 14.492 54.1004 14.7027C54.3958 16.1331 54.2288 17.5395 53.5992 18.9218C52.9891 20.2809 52.1304 21.4903 51.0232 22.55C50.2127 23.327 49.3282 23.9926 48.3699 24.5469C47.4134 25.1224 46.4749 25.5357 45.5545 25.7869C45.3864 25.8229 45.0588 25.8727 44.5718 25.9364C44.1079 26.0194 43.6412 26.0706 43.1718 26.09C42.7042 26.1305 42.3933 26.1254 42.239 26.0745C42.0385 25.9849 41.7793 25.836 41.4615 25.6281C41.1437 25.4201 40.8452 25.189 40.5662 24.9349C40.3066 24.6576 40.126 24.427 40.0244 24.2431C39.8443 23.8947 39.8041 23.5556 39.904 23.2257C40.0233 22.8728 40.1107 22.5226 40.1662 22.1751C40.3891 21.0423 40.5686 19.9025 40.7046 18.7558C40.8601 17.586 41.1264 16.4601 41.5036 15.3781C41.5684 15.1369 41.634 14.9064 41.7006 14.6865C41.7653 14.4453 41.831 14.2148 41.8975 13.9948C42.0307 13.555 42.1329 13.1286 42.2041 12.7156C42.2947 12.2794 42.3969 11.853 42.5107 11.4363C42.9091 10.3524 43.2979 9.28014 43.6769 8.21941C44.0754 7.13557 44.497 6.07115 44.9416 5.02613C44.5887 4.90686 44.293 4.70767 44.0547 4.42857C43.8376 4.14761 43.7046 3.84866 43.6557 3.5317C43.6261 3.19164 43.7288 2.89366 43.9635 2.63774C44.1964 2.36057 44.5989 2.18646 45.1709 2.11542C45.4028 2.07388 45.6357 2.04297 45.8695 2.02268C46.1014 1.98115 46.3131 1.95208 46.5043 1.93548C46.7594 1.91335 47.0126 1.86997 47.2639 1.80533C47.5365 1.73885 47.7994 1.68392 48.0526 1.64054C48.8778 1.52611 49.7137 1.41076 50.5601 1.29449C51.4047 1.15697 52.2521 1.05132 53.1022 0.977559C53.9736 0.901951 54.8187 0.89287 55.6374 0.950315C55.7667 0.960504 55.9732 0.996118 56.2569 1.05716C56.5406 1.1182 56.803 1.18108 57.0442 1.24581C57.3066 1.3087 57.4378 1.34014 57.4378 1.34014C57.5496 1.39468 57.6651 1.49173 57.7843 1.63128C57.9016 1.74958 57.9968 1.8591 58.0697 1.95983C58.0956 2.25738 58.016 2.57478 57.8311 2.91202C57.6675 3.24742 57.4531 3.49087 57.1879 3.64236C56.882 3.8188 56.3696 3.95962 55.6506 4.06483C54.9299 4.14878 54.1329 4.21793 53.2596 4.27229C52.3864 4.32664 51.545 4.37823 50.7356 4.42705C49.9261 4.47587 49.2797 4.55337 48.7964 4.65955ZM43.2361 23.1293C43.4699 23.109 43.6806 23.0693 43.8682 23.0102C44.0771 22.9493 44.2859 22.8883 44.4948 22.8274C44.7978 22.8653 45.0298 22.8238 45.1906 22.7028C45.3495 22.5605 45.545 22.4686 45.7769 22.4271C46.007 22.3643 46.2238 22.2705 46.4271 22.1458C46.6285 21.9998 46.8309 21.8645 47.0342 21.7398C47.5009 21.4423 47.9834 21.0793 48.4815 20.6506C48.9991 20.1989 49.4704 19.7083 49.8956 19.1789C50.342 18.6476 50.69 18.0928 50.9396 17.5144C51.2086 16.9129 51.3173 16.3146 51.2657 15.7195C51.1901 14.8481 50.8575 14.2238 50.2681 13.8467C49.6998 13.4678 49.0364 13.2255 48.2778 13.12C48.1253 13.0904 47.9622 13.0618 47.7885 13.034C47.6342 12.9832 47.4711 12.9545 47.2993 12.948C47.278 12.9498 47.2355 12.9535 47.1717 12.9591C47.108 12.9646 47.0239 12.9826 46.9195 13.0131C46.6875 13.0546 46.4246 13.1095 46.1308 13.1779C45.8369 13.2462 45.6068 13.309 45.4405 13.3662L45.2116 14.0606C45.0942 14.4348 44.9504 14.8756 44.7803 15.3828C44.6314 15.8883 44.4826 16.3937 44.3337 16.8991C44.2061 17.4027 44.096 17.8619 44.0036 18.2768C43.9111 18.6917 43.875 19.016 43.8953 19.2498C43.8268 19.4485 43.7542 19.7224 43.6775 20.0717C43.5989 20.3997 43.523 20.7597 43.45 21.1514C43.3981 21.5414 43.3551 21.9091 43.3209 22.2547C43.2866 22.6003 43.2584 22.8918 43.2361 23.1293Z" fill="#7CE158"/>
</svg>
