<svg width="280" height="105" viewBox="0 0 280 105" fill="none" xmlns="http://www.w3.org/2000/svg">
<path d="M177.088 72.3096C176.728 72.3096 176.421 72.1991 176.168 71.9782C175.952 71.7205 175.844 71.4075 175.844 71.0393V69.2721C175.844 68.9407 175.934 68.5725 176.114 68.1675C176.295 67.7625 176.655 67.3207 177.197 66.8421L188.669 55.1339C190.509 53.5507 191.952 52.2068 192.998 51.1023C194.081 49.9609 194.838 48.8748 195.271 47.8439C195.74 46.813 195.975 45.7452 195.975 44.6407C195.975 42.5421 195.397 40.8852 194.243 39.6702C193.089 38.4184 191.375 37.7925 189.102 37.7925C187.659 37.7925 186.414 38.1055 185.368 38.7314C184.322 39.3205 183.492 40.1489 182.879 41.2166C182.302 42.2475 181.923 43.4257 181.742 44.7512C181.67 45.2298 181.472 45.5611 181.147 45.7452C180.858 45.9293 180.588 46.0214 180.335 46.0214H177.521C177.197 46.0214 176.926 45.9293 176.71 45.7452C176.493 45.5243 176.385 45.2666 176.385 44.9721C176.421 43.573 176.71 42.1739 177.251 40.7748C177.792 39.3389 178.586 38.0502 179.632 36.9089C180.714 35.7675 182.031 34.8471 183.582 34.1475C185.17 33.4112 187.01 33.043 189.102 33.043C191.952 33.043 194.279 33.5768 196.083 34.6446C197.923 35.6755 199.276 37.0561 200.142 38.7866C201.007 40.5171 201.44 42.4132 201.44 44.475C201.44 46.095 201.17 47.5862 200.629 48.9484C200.087 50.2739 199.294 51.5809 198.248 52.8696C197.237 54.1214 195.975 55.41 194.459 56.7355L184.069 67.5048H200.953C201.35 67.5048 201.657 67.6152 201.873 67.8362C202.126 68.0571 202.252 68.37 202.252 68.775V71.0393C202.252 71.4075 202.126 71.7205 201.873 71.9782C201.657 72.1991 201.35 72.3096 200.953 72.3096H177.088Z" fill="#1B1B1B"/>
<path d="M139.106 72.3114C138.817 72.3114 138.565 72.201 138.348 71.9801C138.132 71.7592 138.023 71.5014 138.023 71.2069C138.023 71.0228 138.041 70.8203 138.078 70.5994L151.498 34.8673C151.642 34.4992 151.841 34.2046 152.093 33.9837C152.346 33.7628 152.725 33.6523 153.23 33.6523H156.91C157.379 33.6523 157.739 33.7628 157.992 33.9837C158.281 34.2046 158.497 34.4992 158.641 34.8673L172.008 70.5994C172.08 70.8203 172.116 71.0228 172.116 71.2069C172.116 71.5014 172.008 71.7592 171.791 71.9801C171.575 72.201 171.322 72.3114 171.034 72.3114H168.274C167.841 72.3114 167.516 72.201 167.3 71.9801C167.119 71.7592 166.993 71.5567 166.921 71.3726L163.945 63.5303H146.195L143.219 71.3726C143.182 71.5567 143.056 71.7592 142.84 71.9801C142.623 72.201 142.299 72.3114 141.866 72.3114H139.106ZM147.764 58.7808H162.375L155.07 39.1751L147.764 58.7808Z" fill="#1B1B1B"/>
<path d="M113.612 72.3114C113.215 72.3114 112.908 72.201 112.692 71.9801C112.475 71.7223 112.367 71.4094 112.367 71.0412V34.9778C112.367 34.5728 112.475 34.2598 112.692 34.0389C112.908 33.7812 113.215 33.6523 113.612 33.6523H135.691C136.088 33.6523 136.394 33.7812 136.611 34.0389C136.827 34.2598 136.936 34.5728 136.936 34.9778V37.1869C136.936 37.5919 136.827 37.9048 136.611 38.1258C136.394 38.3467 136.088 38.4571 135.691 38.4571H117.616V51.3251H134.609C135.005 51.3251 135.312 51.4539 135.529 51.7117C135.745 51.9326 135.853 52.2455 135.853 52.6505V54.8596C135.853 55.2278 135.745 55.5408 135.529 55.7985C135.312 56.0194 135.005 56.1298 134.609 56.1298H117.616V71.0412C117.616 71.4094 117.49 71.7223 117.238 71.9801C117.021 72.201 116.714 72.3114 116.318 72.3114H113.612Z" fill="#1B1B1B"/>
<path d="M81.1118 72.3075C80.715 72.3075 80.4083 72.1971 80.1919 71.9762C79.9754 71.7184 79.8672 71.4055 79.8672 71.0373V34.9739C79.8672 34.5689 79.9754 34.2559 80.1919 34.035C80.4083 33.7773 80.715 33.6484 81.1118 33.6484H83.8176C84.2145 33.6484 84.5211 33.7773 84.7376 34.035C84.9901 34.2559 85.1164 34.5689 85.1164 34.9739V48.6703L99.5652 34.5321C99.7095 34.3848 99.944 34.2007 100.269 33.9798C100.629 33.7589 101.098 33.6484 101.676 33.6484H104.598C104.887 33.6484 105.139 33.7589 105.356 33.9798C105.572 34.2007 105.68 34.4584 105.68 34.753C105.68 35.0475 105.608 35.2868 105.464 35.4709L88.7421 52.1496L106.546 70.4298C106.726 70.6507 106.817 70.9084 106.817 71.203C106.817 71.4975 106.708 71.7553 106.492 71.9762C106.275 72.1971 106.023 72.3075 105.734 72.3075H102.704C102.091 72.3075 101.622 72.1971 101.297 71.9762C100.972 71.7184 100.738 71.5344 100.593 71.4239L85.1164 55.8498V71.0373C85.1164 71.4055 84.9901 71.7184 84.7376 71.9762C84.5211 72.1971 84.2145 72.3075 83.8176 72.3075H81.1118Z" fill="#1B1B1B"/>
<path d="M20.4998 18.3578L27.5338 11.1794C27.8676 10.8393 28.0554 10.3778 28.0558 9.89639C28.0562 9.415 27.8692 8.95317 27.536 8.61248C27.2027 8.27179 26.7505 8.08015 26.2788 8.07973C25.8072 8.0793 25.3546 8.27012 25.0208 8.61021L17.9868 15.7887L10.9529 8.61021C10.619 8.26952 10.1663 8.07812 9.69415 8.07812C9.22204 8.07812 8.76927 8.26952 8.43544 8.61021C8.10161 8.9509 7.91406 9.41298 7.91406 9.89478C7.91406 10.3766 8.10161 10.8387 8.43544 11.1794L15.4694 18.3578L8.43544 25.5363C8.10161 25.877 7.91406 26.3391 7.91406 26.8209C7.91406 27.3027 8.10161 27.7648 8.43544 28.1055C8.76927 28.4462 9.22204 28.6376 9.69415 28.6376C10.1663 28.6376 10.619 28.4462 10.9529 28.1055L17.9868 20.927L25.0208 28.1055C25.3546 28.4462 25.8074 28.6376 26.2795 28.6376C26.7516 28.6376 27.2044 28.4462 27.5382 28.1055C27.872 27.7648 28.0596 27.3027 28.0596 26.8209C28.0596 26.3391 27.872 25.877 27.5382 25.5363L20.4998 18.3578Z" fill="#8C1616"/>
</svg>
