<svg width="280" height="110" viewBox="0 0 280 110" fill="none" xmlns="http://www.w3.org/2000/svg">
<path d="M89.5792 50.7387H65.3624C65.0653 50.7387 65.0455 50.6262 65.3129 50.483L102.019 31.0253C102.287 30.8821 102.267 30.7695 101.97 30.7695H86.8357C86.5187 30.7695 86.0631 30.8821 85.7957 31.0253L57.1911 46.2477C56.9138 46.3909 56.6959 46.7388 56.6959 47.0661V31.3322C56.6959 31.0253 56.4681 30.7695 56.1511 30.7695H49.5447C49.2476 30.7695 49 31.0253 49 31.3322V77.9816C49 78.2885 49.2476 78.5443 49.5447 78.5443H56.1511C56.4681 78.5443 56.6959 78.2885 56.6959 77.9816V58.1965C56.6959 58.5034 56.9435 58.7592 57.2605 58.7592L90.1438 58.708C93.5411 58.708 95.2348 60.6722 95.2348 64.6006V77.9816C95.2348 78.2885 95.4626 78.5443 95.7795 78.5443H102.455C102.752 78.5443 103 78.2885 103 77.9816V62.5443C102.99 54.6978 98.5132 50.7387 89.5792 50.7387Z" fill="#1B1B1B"/>
<path d="M119.813 57.5061C119.604 57.5061 119.43 57.6856 119.43 57.9011V71.0357C119.43 71.2511 119.255 71.4307 119.046 71.4307H114.397C114.174 71.4307 114 71.2511 114 71.0357V52.3068C114 52.0914 114.174 51.9118 114.397 51.9118H151.61C151.833 51.9118 151.993 52.0914 151.993 52.3068V57.1183C151.993 57.3337 151.833 57.5133 151.61 57.5133H119.813V57.5061ZM114.404 43.4881C114.181 43.4881 114.007 43.3086 114.007 43.0932V38.2817C114.007 38.0662 114.181 37.8867 114.404 37.8867H151.617C151.84 37.8867 152 38.0662 152 38.2817V43.0932C152 43.3086 151.84 43.4881 151.617 43.4881H114.404Z" fill="#1B1B1B"/>
<path d="M151.49 74.0988C151.231 74.0988 151.118 73.91 151.231 73.6885L166.78 42.1195C167.829 39.9777 168.717 38.5006 169.42 37.6718C170.356 36.564 171.575 35.9075 173.069 35.7188C174.562 35.9075 175.781 36.5476 176.718 37.6144C177.049 37.9918 177.42 38.5499 177.864 39.3212C178.292 40.068 179.14 41.701 179.14 41.701C179.253 41.9226 179.438 42.2837 179.543 42.5052L194.85 73.6803C194.963 73.9018 194.834 74.0906 194.592 74.0906H189.207C188.965 74.0906 188.674 73.9018 188.561 73.6803L174.635 45.2953C174.046 44.0726 173.529 43.4735 173.125 43.4735C172.681 43.4735 171.801 44.9014 171.801 44.9014C171.672 45.123 171.47 45.484 171.357 45.6892L157.464 73.6803C157.351 73.9018 157.06 74.0906 156.818 74.0906H151.49V74.0988Z" fill="#1B1B1B"/>
<path d="M207.139 57.4069H207.199C207.287 57.4069 207.501 57.4069 207.666 57.4069L222.493 57.3786C222.51 57.3786 222.526 57.3786 222.543 57.373V57.3786C227.5 57.3786 230 55.1437 230 50.7927V48.5578C230 44.1502 227.516 41.9492 222.554 41.9492H200.302C200.137 41.9492 200 42.0907 200 42.2604V46.0003C200 46.1814 200.137 46.3229 200.302 46.3229H222.856C224.741 46.3229 225.681 48.5238 225.681 49.6215C225.681 50.7191 224.801 52.8805 222.916 52.9201C222.861 52.9201 222.779 52.9258 222.702 52.9371C222.674 52.9258 222.642 52.9201 222.614 52.9201C222.614 52.9201 207.446 52.9993 207.408 52.9993C202.473 53.0106 200 55.2116 200 59.5287V68.0666C200 68.2363 200.137 68.3778 200.302 68.3778H229.698C229.863 68.3778 230 68.2363 230 68.0666V64.3153C230 64.1456 229.863 64.0041 229.698 64.0041H204.611C204.446 64.0041 204.308 63.8627 204.308 63.693V60.6659C204.314 58.4932 205.254 57.4069 207.139 57.4069Z" fill="#1B1B1B"/>
<path d="M20.6203 18.4609L27.4902 11.4778C27.8163 11.1469 27.9997 10.698 28.0001 10.2297C28.0005 9.76144 27.8179 9.31217 27.4924 8.98075C27.1669 8.64933 26.7253 8.46291 26.2646 8.4625C25.8039 8.46208 25.3619 8.64771 25.0359 8.97855L18.166 15.9617L11.296 8.97855C10.97 8.64713 10.5278 8.46094 10.0667 8.46094C9.6056 8.46094 9.16338 8.64713 8.83734 8.97855C8.5113 9.30997 8.32812 9.75947 8.32812 10.2282C8.32812 10.6969 8.5113 11.1464 8.83734 11.4778L15.7073 18.4609L8.83734 25.4441C8.5113 25.7755 8.32812 26.225 8.32812 26.6937C8.32812 27.1624 8.5113 27.6119 8.83734 27.9433C9.16338 28.2748 9.6056 28.4609 10.0667 28.4609C10.5278 28.4609 10.97 28.2748 11.296 27.9433L18.166 20.9602L25.0359 27.9433C25.3619 28.2748 25.8041 28.4609 26.2652 28.4609C26.7263 28.4609 27.1685 28.2748 27.4946 27.9433C27.8206 27.6119 28.0038 27.1624 28.0038 26.6937C28.0038 26.225 27.8206 25.7755 27.4946 25.4441L20.6203 18.4609Z" fill="#8C1616"/>
</svg>
