<svg width="280" height="103" viewBox="0 0 280 103" fill="none" xmlns="http://www.w3.org/2000/svg">
<path d="M62.998 47.2051H37.3377C37.0229 47.2051 37.0019 47.0892 37.2852 46.9418L76.1797 26.9156C76.463 26.7682 76.442 26.6523 76.1272 26.6523H60.0908C59.755 26.6523 59.2722 26.7682 58.9889 26.9156L28.6793 42.5828C28.3855 42.7302 28.1546 43.0882 28.1546 43.4251V27.2314C28.1546 26.9156 27.9132 26.6523 27.5774 26.6523H20.5772C20.2624 26.6523 20 26.9156 20 27.2314V75.244C20 75.5599 20.2624 75.8231 20.5772 75.8231H27.5774C27.9132 75.8231 28.1546 75.5599 28.1546 75.244V54.8808C28.1546 55.1966 28.417 55.4599 28.7528 55.4599L63.5962 55.4072C67.1959 55.4072 68.9906 57.4288 68.9906 61.472V75.244C68.9906 75.5599 69.232 75.8231 69.5678 75.8231H76.6414C76.9563 75.8231 77.2187 75.5599 77.2187 75.244V59.3556C77.2082 51.2798 72.4644 47.2051 62.998 47.2051Z" fill="#1B1B1B"/>
<path d="M92.3622 55.4177C92.0473 55.4177 91.785 55.681 91.785 55.9968V75.2545C91.785 75.5704 91.5226 75.8336 91.2077 75.8336H84.2076C83.8717 75.8336 83.6094 75.5704 83.6094 75.2545V47.7947C83.6094 47.4788 83.8717 47.2156 84.2076 47.2156H140.24C140.576 47.2156 140.818 47.4788 140.818 47.7947V54.8492C140.818 55.165 140.576 55.4283 140.24 55.4283H92.3622V55.4177ZM84.2181 34.865C83.8822 34.865 83.6199 34.6018 83.6199 34.2859V27.2314C83.6199 26.9156 83.8822 26.6523 84.2181 26.6523H140.251C140.587 26.6523 140.828 26.9156 140.828 27.2314V34.2859C140.828 34.6018 140.587 34.865 140.251 34.865H84.2181Z" fill="#1B1B1B"/>
<path d="M139.744 75.971C139.408 75.971 139.261 75.7288 139.408 75.4445L159.622 34.9392C160.986 32.1911 162.141 30.2959 163.054 29.2325C164.271 27.8111 165.856 26.9687 167.797 26.7266C169.739 26.9687 171.324 27.79 172.541 29.1588C172.971 29.6431 173.454 30.3591 174.031 31.3488C174.588 32.307 175.69 34.4023 175.69 34.4023C175.837 34.6865 176.078 35.1498 176.214 35.4341L196.113 75.434C196.26 75.7183 196.092 75.9605 195.777 75.9605H188.777C188.462 75.9605 188.084 75.7183 187.937 75.434L169.833 39.014C169.067 37.4451 168.396 36.6765 167.871 36.6765C167.294 36.6765 166.15 38.5086 166.15 38.5086C165.982 38.7929 165.719 39.2562 165.572 39.5194L147.511 75.434C147.364 75.7183 146.986 75.9605 146.671 75.9605H139.744V75.971Z" fill="#1B1B1B"/>
<path d="M216.344 55.4177H216.459C216.627 55.4177 217.037 55.4177 217.351 55.4177L245.667 55.3651C245.698 55.3651 245.73 55.3651 245.761 55.3546V55.3651C255.228 55.3651 260.003 51.2061 260.003 43.1093V38.9503C260.003 30.7481 255.259 26.6523 245.782 26.6523H203.288C202.973 26.6523 202.711 26.9156 202.711 27.2314V34.1911C202.711 34.5281 202.973 34.7913 203.288 34.7913H246.36C249.959 34.7913 251.754 38.8871 251.754 40.9297C251.754 42.9724 250.075 46.9945 246.475 47.0682C246.37 47.0682 246.213 47.0787 246.066 47.0998C246.013 47.0787 245.95 47.0682 245.898 47.0682C245.898 47.0682 216.932 47.2156 216.858 47.2156C207.434 47.2367 202.711 51.3325 202.711 59.3661V75.2545C202.711 75.5704 202.973 75.8336 203.288 75.8336H259.426C259.741 75.8336 260.003 75.5704 260.003 75.2545V68.2737C260.003 67.9578 259.741 67.6946 259.426 67.6946H211.516C211.201 67.6946 210.939 67.4314 210.939 67.1155V61.4825C210.949 57.4393 212.744 55.4177 216.344 55.4177Z" fill="#1B1B1B"/>
<path d="M20.4948 18.0598L27.478 11.054C27.8094 10.7221 27.9958 10.2717 27.9962 9.80187C27.9966 9.33207 27.811 8.88134 27.4802 8.54885C27.1494 8.21635 26.7004 8.02932 26.2321 8.02891C25.7638 8.02849 25.3146 8.21472 24.9832 8.54663L18 15.5525L11.0168 8.54663C10.6854 8.21414 10.2359 8.02734 9.76723 8.02734C9.29853 8.02734 8.84903 8.21414 8.51761 8.54663C8.18619 8.87913 8 9.33009 8 9.80031C8 10.2705 8.18619 10.7215 8.51761 11.054L15.5008 18.0598L8.51761 25.0656C8.18619 25.3981 8 25.8491 8 26.3193C8 26.7895 8.18619 27.2405 8.51761 27.573C8.84903 27.9055 9.29853 28.0923 9.76723 28.0923C10.2359 28.0923 10.6854 27.9055 11.0168 27.573L18 20.5672L24.9832 27.573C25.3146 27.9055 25.7641 28.0923 26.2328 28.0923C26.7015 28.0923 27.151 27.9055 27.4824 27.573C27.8138 27.2405 28 26.7895 28 26.3193C28 25.8491 27.8138 25.3981 27.4824 25.0656L20.4948 18.0598Z" fill="#8C1616"/>
</svg>
