<svg width="280" height="109" viewBox="0 0 280 109" fill="none" xmlns="http://www.w3.org/2000/svg">
<path d="M82.2218 51.3326H63.3432C63.1116 51.3326 63.076 51.2495 63.2588 51.1438L88.3857 36.7748C88.5685 36.669 88.5329 36.5859 88.3013 36.5859H76.5031C76.2561 36.5859 75.9211 36.669 75.7383 36.7748L56.1681 48.0161C55.9775 48.1219 55.87 48.3788 55.9287 48.6205L53.1081 37.0014C53.0531 36.7748 52.8297 36.5859 52.5826 36.5859H47.4325C47.2008 36.5859 47.0537 36.7748 47.1087 37.0014L55.4714 71.4507C55.5264 71.6773 55.7653 71.8662 55.9969 71.8662H61.1471C61.3941 71.8662 61.5259 71.6773 61.4709 71.4507L57.924 56.84C57.979 57.0666 58.2179 57.2555 58.465 57.2555L84.0905 57.2177C86.7389 57.2177 88.4114 58.6682 89.1156 61.5692L91.5144 71.4507C91.5694 71.6773 91.7929 71.8662 92.0399 71.8662H97.2441C97.4757 71.8662 97.6229 71.6773 97.5679 71.4507L94.8005 60.0507C93.3861 54.2563 89.1864 51.3326 82.2218 51.3326Z" fill="#1B1B1B"/>
<path d="M106.161 57.6393C105.929 57.6393 105.782 57.8282 105.837 58.0548L109.191 71.8723C109.246 72.0989 109.099 72.2878 108.867 72.2878H103.717C103.47 72.2878 103.231 72.0989 103.176 71.8723L98.3935 52.1698C98.3385 51.9431 98.4856 51.7543 98.7327 51.7543H139.957C140.204 51.7543 140.427 51.9431 140.482 52.1698L141.711 57.2314C141.766 57.458 141.634 57.6469 141.387 57.6469H106.163L106.161 57.6393ZM96.5892 42.8926C96.3421 42.8926 96.1033 42.7038 96.0483 42.4771L94.8195 37.4155C94.7645 37.1889 94.9117 37 95.1588 37H136.383C136.63 37 136.853 37.1889 136.908 37.4155L138.137 42.4771C138.192 42.7038 138.06 42.8926 137.813 42.8926H96.5892Z" fill="#1B1B1B"/>
<path d="M144.601 72.3917C144.354 72.3917 144.203 72.218 144.262 72.014L152.078 42.9512C152.603 40.9795 153.122 39.6196 153.609 38.8566C154.257 37.8367 155.276 37.2324 156.662 37.0586C158.133 37.2324 159.442 37.8216 160.576 38.8037C160.977 39.1512 161.457 39.665 162.054 40.3751C162.63 41.0626 163.806 42.5659 163.806 42.5659C163.963 42.7699 164.222 43.1023 164.371 43.3063L185.978 72.0065C186.136 72.2104 186.054 72.3842 185.823 72.3842H180.673C180.441 72.3842 180.121 72.2104 179.963 72.0065L160.3 45.8749C159.464 44.7492 158.835 44.1977 158.449 44.1977C158.025 44.1977 157.502 45.5123 157.502 45.5123C157.428 45.7162 157.316 46.0486 157.254 46.2375L150.221 72.0065C150.162 72.2104 149.926 72.3842 149.695 72.3842H144.599L144.601 72.3917Z" fill="#1B1B1B"/>
<path d="M197.376 57.6393H197.461C197.585 57.6393 197.886 57.6393 198.117 57.6393L218.94 57.6016C218.963 57.6016 218.987 57.6016 219.008 57.594L219.01 57.6016C225.974 57.6016 228.763 54.6175 227.353 48.8079L226.628 45.8238C225.2 39.9388 220.996 37 214.024 37H182.761C182.529 37 182.382 37.1889 182.437 37.4155L183.649 42.4091C183.708 42.6509 183.947 42.8397 184.178 42.8397H215.866C218.515 42.8397 220.549 45.7785 220.904 47.2441C221.26 48.7097 220.725 51.5956 218.09 51.6485C218.013 51.6485 217.899 51.656 217.794 51.6711C217.752 51.656 217.704 51.6485 217.665 51.6485C217.665 51.6485 196.38 51.7543 196.326 51.7543C189.396 51.7694 186.635 54.7081 188.034 60.4723L190.801 71.8723C190.856 72.0989 191.095 72.2878 191.327 72.2878H232.628C232.86 72.2878 233.007 72.0989 232.952 71.8723L231.736 66.8636C231.681 66.6369 231.442 66.4481 231.21 66.4481H195.963C195.731 66.4481 195.492 66.2592 195.437 66.0326L194.456 61.9908C193.76 59.0898 194.728 57.6393 197.376 57.6393Z" fill="#1B1B1B"/>
<path d="M20.4973 18.4651L27.4819 11.4299C27.8134 11.0966 27.9999 10.6444 28.0003 10.1726C28.0007 9.70081 27.815 9.2482 27.4841 8.91431C27.1532 8.58042 26.7042 8.39261 26.2358 8.3922C25.7674 8.39178 25.3181 8.57879 24.9866 8.91209L18.002 15.9472L11.0175 8.91209C10.686 8.5782 10.2364 8.39062 9.76758 8.39062C9.29879 8.39062 8.8492 8.5782 8.51771 8.91209C8.18623 9.24598 8 9.69882 8 10.171C8 10.6432 8.18623 11.096 8.51771 11.4299L15.5023 18.4651L8.51771 25.5002C8.18623 25.8341 8 26.287 8 26.7592C8 27.2314 8.18623 27.6842 8.51771 28.0181C8.8492 28.352 9.29879 28.5396 9.76758 28.5396C10.2364 28.5396 10.686 28.352 11.0175 28.0181L18.002 20.9829L24.9866 28.0181C25.3181 28.352 25.7677 28.5396 26.2365 28.5396C26.7052 28.5396 27.1548 28.352 27.4863 28.0181C27.8178 27.6842 28.004 27.2314 28.004 26.7592C28.004 26.287 27.8178 25.8341 27.4863 25.5002L20.4973 18.4651Z" fill="#8C1616"/>
</svg>
