<svg width="280" height="103" viewBox="0 0 280 103" fill="none" xmlns="http://www.w3.org/2000/svg">
<path d="M91.8737 49.7986H75.8361C75.6393 49.7986 75.6262 49.7262 75.8033 49.6341L100.112 37.1176C100.289 37.0255 100.276 36.9531 100.079 36.9531H90.0568C89.8469 36.9531 89.5451 37.0255 89.368 37.1176L70.4246 46.9097C70.2409 47.0018 70.0966 47.2255 70.0966 47.4361V37.3151C70.0966 37.1176 69.9458 36.9531 69.7359 36.9531H65.3608C65.164 36.9531 65 37.1176 65 37.3151V67.3229C65 67.5203 65.164 67.6848 65.3608 67.6848H69.7359C69.9458 67.6848 70.0966 67.5203 70.0966 67.3229V54.5959C70.0966 54.7933 70.2606 54.9578 70.4705 54.9578L92.2476 54.9249C94.4975 54.9249 95.6191 56.1884 95.6191 58.7154V67.3229C95.6191 67.5203 95.77 67.6848 95.9799 67.6848H100.401C100.598 67.6848 100.762 67.5203 100.762 67.3229V57.3926C100.755 52.3453 97.7903 49.7986 91.8737 49.7986Z" fill="#AE72C7"/>
<path d="M110.228 54.9315C110.032 54.9315 109.868 55.096 109.868 55.2934V67.3294C109.868 67.5269 109.704 67.6914 109.507 67.6914H105.132C104.922 67.6914 104.758 67.5269 104.758 67.3294V50.1671C104.758 49.9697 104.922 49.8052 105.132 49.8052H140.152C140.362 49.8052 140.513 49.9697 140.513 50.1671V54.5761C140.513 54.7736 140.362 54.9381 140.152 54.9381H110.228V54.9315ZM105.138 42.086C104.928 42.086 104.764 41.9215 104.764 41.7241V37.3151C104.764 37.1176 104.928 36.9531 105.138 36.9531H140.159C140.369 36.9531 140.519 37.1176 140.519 37.3151V41.7241C140.519 41.9215 140.369 42.086 140.159 42.086H105.138Z" fill="#AE72C7"/>
<path d="M139.839 67.7816C139.629 67.7816 139.537 67.6303 139.629 67.4526L152.263 42.1368C153.115 40.4193 153.837 39.2348 154.408 38.5701C155.168 37.6817 156.159 37.1553 157.372 37.0039C158.586 37.1553 159.576 37.6686 160.337 38.524C160.606 38.8267 160.908 39.2742 161.269 39.8928C161.616 40.4917 162.305 41.8012 162.305 41.8012C162.397 41.9789 162.548 42.2684 162.633 42.4461L175.07 67.446C175.161 67.6237 175.056 67.7751 174.86 67.7751H170.485C170.288 67.7751 170.052 67.6237 169.96 67.446L158.645 44.6835C158.166 43.703 157.746 43.2226 157.418 43.2226C157.058 43.2226 156.343 44.3677 156.343 44.3677C156.238 44.5453 156.074 44.8349 155.982 44.9994L144.693 67.446C144.601 67.6237 144.365 67.7751 144.168 67.7751H139.839V67.7816Z" fill="#AE72C7"/>
<path d="M187.708 54.9315H187.78C187.885 54.9315 188.141 54.9315 188.338 54.9315L206.035 54.8986C206.055 54.8986 206.074 54.8986 206.094 54.892V54.8986C212.011 54.8986 214.995 52.2992 214.995 47.2387V44.6393C214.995 39.513 212.03 36.9531 206.107 36.9531H179.548C179.351 36.9531 179.188 37.1176 179.188 37.3151V41.6649C179.188 41.8755 179.351 42.04 179.548 42.04H206.468C208.718 42.04 209.839 44.5999 209.839 45.8765C209.839 47.1531 208.79 49.667 206.54 49.713C206.474 49.713 206.376 49.7196 206.284 49.7328C206.251 49.7196 206.212 49.713 206.179 49.713C206.179 49.713 188.075 49.8052 188.03 49.8052C182.139 49.8183 179.188 52.3782 179.188 57.3992V67.3294C179.188 67.5269 179.351 67.6914 179.548 67.6914H214.634C214.831 67.6914 214.995 67.5269 214.995 67.3294V62.9665C214.995 62.769 214.831 62.6045 214.634 62.6045H184.691C184.494 62.6045 184.33 62.44 184.33 62.2426V58.722C184.337 56.195 185.458 54.9315 187.708 54.9315Z" fill="#AE72C7"/>
<path d="M20.4948 17.8918L27.478 10.886C27.8094 10.5541 27.9958 10.1037 27.9962 9.6339C27.9966 9.1641 27.811 8.71337 27.4802 8.38088C27.1494 8.04838 26.7004 7.86135 26.2321 7.86094C25.7638 7.86052 25.3146 8.04676 24.9832 8.37866L18 15.3845L11.0168 8.37866C10.6854 8.04617 10.2359 7.85938 9.76723 7.85938C9.29853 7.85938 8.84903 8.04617 8.51761 8.37866C8.18619 8.71116 8 9.16212 8 9.63234C8 10.1026 8.18619 10.5535 8.51761 10.886L15.5008 17.8918L8.51761 24.8977C8.18619 25.2302 8 25.6811 8 26.1513C8 26.6216 8.18619 27.0725 8.51761 27.405C8.84903 27.7375 9.29853 27.9243 9.76723 27.9243C10.2359 27.9243 10.6854 27.7375 11.0168 27.405L18 20.3992L24.9832 27.405C25.3146 27.7375 25.7641 27.9243 26.2328 27.9243C26.7015 27.9243 27.151 27.7375 27.4824 27.405C27.8138 27.0725 28 26.6216 28 26.1513C28 25.6811 27.8138 25.2302 27.4824 24.8977L20.4948 17.8918Z" fill="#8C1616"/>
</svg>
