<svg width="280" height="109" viewBox="0 0 280 109" fill="none" xmlns="http://www.w3.org/2000/svg">
<path d="M148.71 22.8068H132.672C132.475 22.8068 132.462 22.7341 132.639 22.6416L156.948 10.0753C157.125 9.98283 157.112 9.91016 156.915 9.91016H146.893C146.683 9.91016 146.381 9.98283 146.204 10.0753L127.261 19.9063C127.077 19.9988 126.933 20.2235 126.933 20.4349V10.2735C126.933 10.0753 126.782 9.91016 126.572 9.91016H122.197C122 9.91016 121.836 10.0753 121.836 10.2735V40.4009C121.836 40.5991 122 40.7642 122.197 40.7642H126.572C126.782 40.7642 126.933 40.5991 126.933 40.4009V27.6232C126.933 27.8214 127.097 27.9866 127.306 27.9866L149.084 27.9535C151.333 27.9535 152.455 29.222 152.455 31.7591V40.4009C152.455 40.5991 152.606 40.7642 152.816 40.7642H157.237C157.434 40.7642 157.598 40.5991 157.598 40.4009V30.4311C157.591 25.3636 154.626 22.8068 148.71 22.8068Z" fill="#1B1B1B"/>
<path d="M167.064 27.9601C166.867 27.9601 166.703 28.1253 166.703 28.3235V40.4075C166.703 40.6057 166.54 40.7709 166.343 40.7709H161.968C161.758 40.7709 161.594 40.6057 161.594 40.4075V23.1768C161.594 22.9785 161.758 22.8134 161.968 22.8134H196.988C197.198 22.8134 197.349 22.9785 197.349 23.1768V27.6034C197.349 27.8016 197.198 27.9667 196.988 27.9667H167.064V27.9601ZM161.974 15.0635C161.764 15.0635 161.6 14.8983 161.6 14.7001V10.2735C161.6 10.0753 161.764 9.91016 161.974 9.91016H196.995C197.205 9.91016 197.355 10.0753 197.355 10.2735V14.7001C197.355 14.8983 197.205 15.0635 196.995 15.0635H161.974Z" fill="#1B1B1B"/>
<path d="M196.683 40.8574C196.473 40.8574 196.381 40.7054 196.473 40.527L209.106 15.1104C209.959 13.386 210.681 12.1968 211.251 11.5295C212.012 10.6375 213.003 10.109 214.216 9.95703C215.43 10.109 216.42 10.6243 217.181 11.4832C217.45 11.7871 217.752 12.2364 218.112 12.8574C218.46 13.4587 219.149 14.7734 219.149 14.7734C219.241 14.9518 219.391 15.2425 219.477 15.4209L231.913 40.5204C232.005 40.6988 231.9 40.8508 231.703 40.8508H227.328C227.132 40.8508 226.895 40.6988 226.804 40.5204L215.489 17.6672C215.01 16.6828 214.59 16.2005 214.262 16.2005C213.901 16.2005 213.186 17.3501 213.186 17.3501C213.081 17.5285 212.917 17.8192 212.826 17.9844L201.537 40.5204C201.445 40.6988 201.209 40.8508 201.012 40.8508H196.683V40.8574Z" fill="#1B1B1B"/>
<path d="M244.552 27.9601H244.624C244.729 27.9601 244.985 27.9601 245.182 27.9601L262.879 27.9271C262.898 27.9271 262.918 27.9271 262.938 27.9205V27.9271C268.854 27.9271 271.839 25.3174 271.839 20.2367V17.627C271.839 12.4802 268.874 9.91016 262.951 9.91016H236.392C236.195 9.91016 236.031 10.0753 236.031 10.2735V14.6407C236.031 14.8521 236.195 15.0173 236.392 15.0173H263.312C265.561 15.0173 266.683 17.5873 266.683 18.8691C266.683 20.1508 265.634 22.6746 263.384 22.7209C263.318 22.7209 263.22 22.7275 263.128 22.7407C263.095 22.7275 263.056 22.7209 263.023 22.7209C263.023 22.7209 244.919 22.8134 244.873 22.8134C238.983 22.8266 236.031 25.3967 236.031 30.4377V40.4075C236.031 40.6057 236.195 40.7709 236.392 40.7709H271.478C271.675 40.7709 271.839 40.6057 271.839 40.4075V36.0271C271.839 35.8289 271.675 35.6637 271.478 35.6637H241.535C241.338 35.6637 241.174 35.4986 241.174 35.3004V31.7657C241.18 29.2286 242.302 27.9601 244.552 27.9601Z" fill="#1B1B1B"/>
<path d="M20.4948 18.131L27.478 11.0973C27.8094 10.7641 27.9958 10.3119 27.9962 9.84019C27.9966 9.36851 27.811 8.91599 27.4802 8.58217C27.1494 8.24835 26.7004 8.06058 26.2321 8.06016C25.7638 8.05975 25.3146 8.24672 24.9832 8.57995L18 15.6137L11.0168 8.57995C10.6854 8.24613 10.2359 8.05859 9.76723 8.05859C9.29853 8.05859 8.84903 8.24613 8.51761 8.57995C8.18619 8.91377 8 9.36653 8 9.83862C8 10.3107 8.18619 10.7635 8.51761 11.0973L15.5008 18.131L8.51761 25.1648C8.18619 25.4986 8 25.9513 8 26.4234C8 26.8955 8.18619 27.3483 8.51761 27.6821C8.84903 28.0159 9.29853 28.2034 9.76723 28.2034C10.2359 28.2034 10.6854 28.0159 11.0168 27.6821L18 20.6484L24.9832 27.6821C25.3146 28.0159 25.7641 28.2034 26.2328 28.2034C26.7015 28.2034 27.151 28.0159 27.4824 27.6821C27.8138 27.3483 28 26.8955 28 26.4234C28 25.9513 27.8138 25.4986 27.4824 25.1648L20.4948 18.131Z" fill="#8C1616"/>
</svg>
