<svg width="796" height="214" viewBox="0 0 796 214" fill="none" xmlns="http://www.w3.org/2000/svg">
<path d="M5.28906 137.849C93.0191 170.402 266.718 209.53 348.681 195.979C422.513 183.772 488.965 95.8154 450.309 53.8533C400.509 -0.206746 325.518 48.6223 370.397 108.204C435.832 195.078 583.063 60.5364 625.19 32.3446C666.015 5.02417 758.088 2.69941 781.251 79.1388" stroke="#6C65BA" stroke-width="28.9693"/>
<path d="M1.49422 142.457L4.33118 134.611L5.30017 134.964L4.04915 138.424L8.17554 139.928L9.42656 136.468L10.3956 136.821L7.5586 144.667L6.5896 144.314L7.8426 140.848L3.71621 139.345L2.46322 142.81L1.49422 142.457Z" fill="white"/>
<path d="M12.3196 146.53C11.5356 146.256 10.9303 145.85 10.5035 145.312C10.0768 144.774 9.82637 144.147 9.75219 143.429C9.68166 142.713 9.78688 141.95 10.0678 141.14C10.3488 140.33 10.7384 139.666 11.2367 139.149C11.7387 138.633 12.3232 138.297 12.9904 138.141C13.6576 137.986 14.3832 138.045 15.1671 138.319C15.9548 138.594 16.5619 139.001 16.9886 139.538C17.4154 140.076 17.664 140.703 17.7345 141.419C17.805 142.135 17.6998 142.899 17.4189 143.709C17.1379 144.519 16.7483 145.183 16.25 145.7C15.7517 146.217 15.1689 146.554 14.5017 146.709C13.8346 146.865 13.1072 146.805 12.3196 146.53ZM12.6423 145.599C13.2281 145.808 13.7623 145.847 14.2448 145.717C14.7323 145.585 15.1555 145.313 15.5146 144.903C15.8773 144.494 16.1674 143.975 16.3851 143.347C16.6041 142.716 16.6974 142.129 16.665 141.586C16.6363 141.044 16.4712 140.571 16.1698 140.167C15.872 139.764 15.4302 139.458 14.8444 139.249C14.2586 139.041 13.7244 139.001 13.2419 139.131C12.763 139.263 12.3422 139.533 11.9795 139.942C11.6168 140.351 11.3242 140.871 11.1016 141.501C10.8802 142.128 10.7858 142.712 10.8181 143.256C10.8505 143.799 11.015 144.274 11.3115 144.68C11.6129 145.084 12.0565 145.39 12.6423 145.599Z" fill="white"/>
<path d="M18.2825 148.421L20.929 140.508L25.5409 142.063L25.2138 143.041L21.5791 141.816L20.7466 144.305L23.7224 145.308L23.3952 146.286L20.4194 145.283L19.2598 148.75L18.2825 148.421Z" fill="white"/>
<path d="M26.5671 151.192L31.775 144.108L33.1421 144.551L33.2482 153.354L32.2284 153.024L32.109 144.85L32.4177 144.949L27.5869 151.522L26.5671 151.192ZM28.443 149.747L28.7388 148.826L32.8621 150.16L32.5663 151.081L28.443 149.747Z" fill="white"/>
<path d="M33.4075 153.401L35.9166 145.444L36.8995 145.756L34.3904 153.713L33.4075 153.401Z" fill="white"/>
<path d="M39.546 155.341L41.9813 147.361L42.9671 147.664L41.8932 151.183L46.0909 152.474L47.1648 148.955L48.1506 149.258L45.7152 157.238L44.7295 156.935L45.8051 153.41L41.6073 152.12L40.5317 155.644L39.546 155.341Z" fill="white"/>
<path d="M50.1507 158.753C49.355 158.515 48.7317 158.137 48.2808 157.62C47.83 157.102 47.5511 156.487 47.4443 155.774C47.3411 155.062 47.4114 154.294 47.6551 153.472C47.8988 152.65 48.2577 151.969 48.7319 151.43C49.2098 150.891 49.7785 150.529 50.4379 150.343C51.0974 150.157 51.825 150.183 52.6207 150.42C53.4201 150.659 54.0452 151.037 54.4961 151.555C54.9469 152.073 55.224 152.688 55.3271 153.4C55.4303 154.112 55.36 154.879 55.1163 155.701C54.8726 156.523 54.5136 157.204 54.0394 157.744C53.5652 158.283 52.9984 158.646 52.339 158.832C51.6795 159.018 50.9501 158.992 50.1507 158.753ZM50.4306 157.808C51.0254 157.99 51.5608 158.005 52.037 157.853C52.5179 157.698 52.9284 157.408 53.2683 156.981C53.612 156.556 53.8782 156.025 54.0671 155.388C54.257 154.747 54.3234 154.156 54.2662 153.615C54.2128 153.075 54.0263 152.61 53.7067 152.22C53.3908 151.832 52.9355 151.546 52.3407 151.365C51.746 151.183 51.2105 151.168 50.7344 151.32C50.2619 151.473 49.8539 151.763 49.5102 152.188C49.1666 152.614 48.8979 153.146 48.7043 153.786C48.5118 154.422 48.4441 155.01 48.5013 155.551C48.5584 156.092 48.7444 156.559 49.0591 156.951C49.3787 157.341 49.8359 157.627 50.4306 157.808Z" fill="white"/>
<path d="M55.2377 160.091L57.5531 152.076L62.226 153.436L61.9398 154.427L58.2571 153.355L57.5287 155.876L60.5439 156.754L60.2577 157.745L57.2425 156.867L56.228 160.38L55.2377 160.091Z" fill="white"/>
<path d="M64.3485 162.73L69.2798 155.45L70.6631 155.84L71.1083 164.632L70.0765 164.341L69.6421 156.178L69.9545 156.266L65.3803 163.021L64.3485 162.73ZM66.1674 161.214L66.4275 160.282L70.5994 161.455L70.3393 162.387L66.1674 161.214Z" fill="white"/>
<path d="M72.2651 164.94L74.4727 156.895L75.4667 157.169L73.2591 165.215L72.2651 164.94Z" fill="white"/>
<path d="M76.816 166.202L78.9713 158.142L79.9671 158.411L79.0167 161.965L83.2572 163.107L84.2076 159.553L85.2034 159.821L83.0481 167.881L82.0523 167.613L83.0042 164.053L78.7637 162.911L77.8118 166.47L76.816 166.202Z" fill="white"/>
<path d="M88.8933 169.599C88.0899 169.389 87.4541 169.033 86.9859 168.531C86.5176 168.029 86.218 167.423 86.0869 166.714C85.9596 166.006 86.0038 165.237 86.2194 164.407C86.435 163.577 86.7706 162.884 87.2262 162.329C87.6856 161.774 88.2416 161.393 88.8944 161.185C89.5471 160.976 90.2752 160.977 91.0786 161.187C91.8857 161.399 92.5234 161.755 92.9916 162.257C93.4598 162.759 93.7576 163.364 93.8849 164.072C94.0123 164.78 93.9681 165.549 93.7525 166.379C93.5369 167.209 93.2013 167.902 92.7457 168.457C92.2901 169.013 91.7359 169.395 91.0831 169.603C90.4303 169.812 89.7004 169.81 88.8933 169.599ZM89.141 168.646C89.7416 168.807 90.2773 168.803 90.748 168.635C91.2234 168.464 91.6238 168.16 91.949 167.722C92.2781 167.285 92.5261 166.745 92.6931 166.102C92.8612 165.455 92.9074 164.862 92.8319 164.324C92.7601 163.786 92.5579 163.327 92.2253 162.949C91.8963 162.571 91.4316 162.302 90.8309 162.141C90.2303 161.979 89.6946 161.983 89.2239 162.151C88.7569 162.32 88.3589 162.623 88.0299 163.06C87.7009 163.497 87.4505 164.039 87.2787 164.684C87.1079 165.326 87.0603 165.917 87.1358 166.456C87.2113 166.995 87.4131 167.455 87.741 167.836C88.0737 168.215 88.5403 168.484 89.141 168.646Z" fill="white"/>
<path d="M93.4277 170.613L95.4801 162.527L100.195 163.732L99.9415 164.732L96.2255 163.782L95.5799 166.326L98.6223 167.104L98.3686 168.103L95.3262 167.325L94.4269 170.869L93.4277 170.613Z" fill="white"/>
<path d="M102.199 172.846L106.9 165.415L108.294 165.76L109.015 174.533L107.975 174.276L107.285 166.131L107.6 166.209L103.239 173.104L102.199 172.846ZM103.969 171.273L104.2 170.333L108.407 171.374L108.176 172.314L103.969 171.273Z" fill="white"/>
<path d="M110.76 174.951L112.715 166.84L113.718 167.084L111.762 175.194L110.76 174.951Z" fill="white"/>
<path d="M116.144 176.256L118.048 168.134L119.052 168.371L118.212 171.953L122.486 172.962L123.326 169.38L124.33 169.618L122.425 177.74L121.422 177.503L122.263 173.916L117.989 172.906L117.147 176.494L116.144 176.256Z" fill="white"/>
<path d="M127.305 179.045C126.496 178.859 125.849 178.523 125.366 178.035C124.883 177.548 124.565 176.952 124.413 176.247C124.264 175.543 124.285 174.773 124.475 173.937C124.666 173.101 124.98 172.399 125.419 171.83C125.861 171.261 126.405 170.863 127.052 170.635C127.698 170.407 128.426 170.386 129.235 170.571C130.048 170.758 130.696 171.095 131.18 171.582C131.663 172.07 131.979 172.665 132.127 173.369C132.276 174.073 132.255 174.843 132.065 175.679C131.874 176.515 131.56 177.218 131.121 177.787C130.683 178.356 130.14 178.755 129.494 178.983C128.848 179.211 128.118 179.232 127.305 179.045ZM127.524 178.085C128.129 178.228 128.664 178.208 129.13 178.025C129.6 177.84 129.991 177.524 130.303 177.076C130.618 176.629 130.85 176.082 130.998 175.434C131.146 174.783 131.174 174.189 131.082 173.653C130.994 173.117 130.778 172.665 130.435 172.297C130.094 171.93 129.622 171.675 129.016 171.532C128.411 171.389 127.876 171.409 127.41 171.591C126.949 171.774 126.56 172.089 126.244 172.536C125.929 172.983 125.695 173.532 125.542 174.182C125.391 174.829 125.361 175.421 125.453 175.957C125.545 176.493 125.761 176.947 126.1 177.318C126.444 177.686 126.918 177.942 127.524 178.085Z" fill="white"/>
<path d="M132.389 180.029L134.195 171.884L138.945 172.945L138.721 173.952L134.978 173.116L134.41 175.678L137.475 176.363L137.251 177.37L134.187 176.685L133.395 180.254L132.389 180.029Z" fill="white"/>
<path d="M139.994 181.724L144.471 174.155L145.876 174.459L146.858 183.206L145.81 182.98L144.878 174.859L145.195 174.928L141.042 181.95L139.994 181.724ZM141.717 180.098L141.92 179.152L146.156 180.067L145.953 181.013L141.717 180.098Z" fill="white"/>
<path d="M148.874 183.632L150.586 175.466L151.595 175.679L149.883 183.845L148.874 183.632Z" fill="white"/>
<path d="M154.606 184.845L156.264 176.668L157.274 176.875L156.543 180.48L160.846 181.359L161.577 177.753L162.587 177.96L160.93 186.137L159.92 185.93L160.652 182.319L156.349 181.44L155.617 185.051L154.606 184.845Z" fill="white"/>
<path d="M166.059 187.33C165.244 187.169 164.588 186.853 164.09 186.381C163.592 185.909 163.256 185.323 163.081 184.623C162.911 183.924 162.908 183.154 163.073 182.313C163.237 181.471 163.53 180.759 163.951 180.177C164.376 179.595 164.908 179.18 165.546 178.932C166.185 178.684 166.912 178.64 167.727 178.801C168.546 178.962 169.204 179.279 169.702 179.751C170.2 180.223 170.534 180.809 170.704 181.508C170.875 182.206 170.878 182.977 170.713 183.818C170.548 184.66 170.256 185.372 169.835 185.954C169.414 186.536 168.884 186.952 168.245 187.2C167.606 187.448 166.877 187.491 166.059 187.33ZM166.248 186.363C166.857 186.487 167.392 186.451 167.851 186.254C168.316 186.054 168.697 185.726 168.995 185.269C169.296 184.813 169.511 184.258 169.639 183.606C169.767 182.951 169.777 182.356 169.669 181.823C169.564 181.291 169.334 180.846 168.979 180.488C168.628 180.132 168.147 179.891 167.538 179.767C166.928 179.643 166.394 179.68 165.934 179.877C165.479 180.074 165.1 180.401 164.798 180.857C164.496 181.314 164.279 181.869 164.147 182.524C164.016 183.176 164.004 183.768 164.113 184.301C164.221 184.834 164.45 185.281 164.801 185.641C165.156 185.999 165.639 186.239 166.248 186.363Z" fill="white"/>
<path d="M171.278 188.173L172.828 179.975L177.609 180.887L177.417 181.9L173.65 181.182L173.162 183.761L176.247 184.349L176.055 185.362L172.97 184.774L172.291 188.366L171.278 188.173Z" fill="white"/>
<path d="M178.968 189.635L183.2 181.926L184.613 182.183L185.876 190.894L184.822 190.702L183.628 182.616L183.947 182.675L180.022 189.827L178.968 189.635ZM180.637 187.955L180.81 187.003L185.073 187.78L184.901 188.732L180.637 187.955Z" fill="white"/>
<path d="M187.875 191.25L189.319 183.033L190.334 183.213L188.89 191.43L187.875 191.25Z" fill="white"/>
<path d="M193.508 192.235L194.89 184.007L195.906 184.179L195.297 187.808L199.627 188.54L200.237 184.912L201.254 185.084L199.872 193.312L198.855 193.14L199.465 189.506L195.135 188.773L194.525 192.407L193.508 192.235Z" fill="white"/>
<path d="M204.806 194.297C203.986 194.165 203.319 193.872 202.804 193.417C202.29 192.963 201.934 192.389 201.736 191.696C201.541 191.004 201.512 190.234 201.647 189.387C201.782 188.54 202.05 187.819 202.451 187.222C202.855 186.626 203.372 186.193 204.002 185.922C204.632 185.652 205.357 185.583 206.177 185.715C207 185.848 207.669 186.141 208.183 186.596C208.698 187.05 209.052 187.624 209.246 188.316C209.441 189.009 209.47 189.778 209.335 190.625C209.2 191.472 208.932 192.193 208.531 192.79C208.131 193.387 207.616 193.82 206.986 194.091C206.356 194.361 205.629 194.43 204.806 194.297ZM204.961 193.324C205.574 193.427 206.107 193.372 206.56 193.159C207.017 192.943 207.386 192.602 207.668 192.135C207.954 191.668 208.149 191.107 208.254 190.451C208.359 189.791 208.349 189.197 208.222 188.668C208.099 188.139 207.854 187.703 207.487 187.358C207.123 187.014 206.635 186.79 206.021 186.688C205.408 186.585 204.875 186.64 204.422 186.853C203.974 187.066 203.607 187.406 203.321 187.873C203.035 188.339 202.837 188.902 202.728 189.561C202.62 190.217 202.629 190.809 202.755 191.338C202.882 191.867 203.127 192.305 203.49 192.653C203.857 192.998 204.348 193.222 204.961 193.324Z" fill="white"/>
<path d="M209.768 194.912L211.025 186.664L215.835 187.402L215.68 188.422L211.889 187.84L211.493 190.435L214.597 190.911L214.442 191.931L211.338 191.454L210.788 195.068L209.768 194.912Z" fill="white"/>
<path d="M218.828 196.289L222.763 188.423L224.185 188.626L225.78 197.281L224.719 197.13L223.217 189.096L223.539 189.142L219.89 196.441L218.828 196.289ZM220.433 194.546L220.569 193.588L224.859 194.2L224.723 195.158L220.433 194.546Z" fill="white"/>
<path d="M227.456 197.505L228.576 189.237L229.598 189.377L228.478 197.645L227.456 197.505Z" fill="white"/>
<path d="M232.515 198.192L233.558 189.914L234.582 190.044L234.122 193.694L238.478 194.247L238.938 190.597L239.961 190.727L238.918 199.005L237.895 198.875L238.356 195.219L233.999 194.666L233.539 198.322L232.515 198.192Z" fill="white"/>
<path d="M243.2 199.695C242.375 199.598 241.696 199.334 241.163 198.902C240.63 198.47 240.249 197.913 240.021 197.229C239.797 196.545 239.735 195.778 239.834 194.926C239.932 194.074 240.169 193.342 240.544 192.728C240.922 192.115 241.42 191.66 242.038 191.363C242.655 191.066 243.377 190.965 244.202 191.062C245.03 191.159 245.711 191.423 246.244 191.855C246.777 192.287 247.156 192.844 247.38 193.528C247.604 194.211 247.667 194.979 247.568 195.83C247.469 196.682 247.232 197.415 246.858 198.028C246.483 198.642 245.987 199.097 245.369 199.394C244.752 199.691 244.028 199.791 243.2 199.695ZM243.313 198.716C243.931 198.792 244.461 198.714 244.904 198.482C245.351 198.247 245.705 197.89 245.967 197.411C246.233 196.932 246.404 196.363 246.48 195.703C246.557 195.039 246.521 194.446 246.372 193.923C246.226 193.4 245.963 192.975 245.581 192.646C245.203 192.318 244.705 192.116 244.088 192.04C243.471 191.964 242.941 192.042 242.498 192.274C242.059 192.507 241.706 192.862 241.441 193.341C241.175 193.819 241.002 194.39 240.921 195.053C240.841 195.713 240.875 196.304 241.024 196.827C241.174 197.35 241.437 197.777 241.815 198.109C242.197 198.438 242.696 198.64 243.313 198.716Z" fill="white"/>
<path d="M249.203 200.207L250.079 191.91L254.919 192.425L254.81 193.45L250.996 193.045L250.721 195.655L253.843 195.987L253.735 197.012L250.613 196.68L250.229 200.316L249.203 200.207Z" fill="white"/>
<path d="M257.203 201.053L260.747 193.002L262.178 193.135L264.195 201.701L263.128 201.602L261.234 193.653L261.557 193.683L258.27 201.152L257.203 201.053ZM258.72 199.233L258.809 198.269L263.124 198.669L263.035 199.632L258.72 199.233Z" fill="white"/>
<path d="M266.888 201.931L267.576 193.616L268.603 193.702L267.916 202.016L266.888 201.931Z" fill="white"/>
<path d="M272.509 202.383L273.082 194.06L274.111 194.131L273.858 197.801L278.24 198.105L278.492 194.435L279.521 194.506L278.948 202.829L277.92 202.758L278.172 199.082L273.791 198.778L273.538 202.455L272.509 202.383Z" fill="white"/>
<path d="M283.628 203.268C282.799 203.224 282.105 203.002 281.546 202.604C280.987 202.207 280.573 201.674 280.303 201.005C280.038 200.337 279.928 199.575 279.974 198.719C280.02 197.862 280.211 197.117 280.547 196.481C280.886 195.846 281.355 195.361 281.954 195.025C282.552 194.69 283.266 194.545 284.095 194.59C284.928 194.635 285.624 194.857 286.183 195.255C286.742 195.652 287.154 196.185 287.42 196.853C287.685 197.522 287.795 198.284 287.749 199.14C287.703 199.996 287.512 200.742 287.176 201.378C286.841 202.013 286.373 202.498 285.775 202.834C285.177 203.169 284.461 203.314 283.628 203.268ZM283.681 202.285C284.302 202.322 284.826 202.212 285.254 201.952C285.686 201.69 286.018 201.311 286.249 200.817C286.485 200.323 286.62 199.744 286.656 199.081C286.692 198.413 286.619 197.823 286.438 197.311C286.26 196.798 285.971 196.39 285.569 196.086C285.172 195.782 284.663 195.611 284.042 195.574C283.421 195.536 282.897 195.647 282.469 195.906C282.045 196.166 281.715 196.542 281.48 197.036C281.244 197.53 281.107 198.111 281.067 198.778C281.028 199.441 281.099 200.029 281.28 200.542C281.461 201.055 281.751 201.465 282.148 201.773C282.549 202.077 283.06 202.247 283.681 202.285Z" fill="white"/>
<path d="M288.285 203.351L288.612 195.014L293.476 195.206L293.435 196.237L289.603 196.085L289.5 198.708L292.637 198.832L292.597 199.863L289.459 199.739L289.316 203.392L288.285 203.351Z" fill="white"/>
<path d="M297.568 203.686L300.496 195.389L301.932 195.413L304.589 203.801L303.517 203.783L301.031 196.001L301.355 196.006L298.64 203.703L297.568 203.686ZM298.944 201.756L298.959 200.788L303.293 200.859L303.277 201.827L298.944 201.756Z" fill="white"/>
<path d="M306.003 203.803L306.026 195.46L307.058 195.463L307.035 203.806L306.003 203.803Z" fill="white"/>
<path d="M311.148 203.817L310.979 195.475L312.01 195.454L312.085 199.133L316.476 199.043L316.401 195.364L317.432 195.343L317.601 203.685L316.57 203.706L316.495 200.022L312.105 200.112L312.179 203.796L311.148 203.817Z" fill="white"/>
<path d="M322.998 203.648C322.168 203.688 321.455 203.539 320.859 203.201C320.262 202.863 319.796 202.375 319.46 201.738C319.127 201.101 318.94 200.354 318.898 199.498C318.857 198.641 318.971 197.879 319.24 197.213C319.513 196.546 319.93 196.015 320.491 195.62C321.052 195.225 321.747 195.008 322.577 194.967C323.41 194.926 324.125 195.075 324.721 195.413C325.318 195.752 325.782 196.239 326.115 196.877C326.447 197.514 326.635 198.261 326.676 199.117C326.718 199.974 326.604 200.735 326.334 201.402C326.065 202.069 325.65 202.6 325.089 202.994C324.528 203.389 323.831 203.607 322.998 203.648ZM322.95 202.664C323.571 202.637 324.082 202.473 324.481 202.171C324.884 201.866 325.175 201.455 325.355 200.94C325.539 200.424 325.615 199.834 325.582 199.171C325.55 198.503 325.417 197.924 325.185 197.433C324.956 196.941 324.626 196.565 324.196 196.303C323.77 196.042 323.246 195.924 322.624 195.951C322.003 195.977 321.493 196.142 321.094 196.443C320.698 196.745 320.409 197.154 320.225 197.669C320.041 198.185 319.964 198.776 319.992 199.444C320.021 200.108 320.151 200.685 320.384 201.177C320.616 201.668 320.946 202.046 321.373 202.312C321.803 202.573 322.329 202.69 322.95 202.664Z" fill="white"/>
<path d="M328.239 203.197L327.592 194.879L332.444 194.499L332.524 195.528L328.7 195.827L328.904 198.444L332.034 198.199L332.114 199.227L328.983 199.472L329.267 203.117L328.239 203.197Z" fill="white"/>
<path d="M338.013 202.362L339.728 193.73L341.153 193.547L344.978 201.468L343.915 201.604L340.344 194.259L340.666 194.217L339.076 202.226L338.013 202.362ZM339.099 200.254L338.977 199.295L343.275 198.742L343.398 199.702L339.099 200.254Z" fill="white"/>
<path d="M345.652 201.341L344.363 193.098L345.382 192.937L346.671 201.18L345.652 201.341Z" fill="white"/>
<path d="M352.687 200.145L350.764 192.026L351.768 191.787L352.615 195.367L356.887 194.348L356.039 190.768L357.043 190.528L358.965 198.647L357.962 198.886L357.113 195.301L352.841 196.32L353.69 199.906L352.687 200.145Z" fill="white"/>
<path d="M364.659 197.14C363.867 197.389 363.14 197.426 362.478 197.249C361.816 197.073 361.242 196.719 360.756 196.188C360.274 195.655 359.905 194.98 359.65 194.161C359.394 193.343 359.313 192.577 359.406 191.863C359.502 191.148 359.772 190.529 360.215 190.005C360.658 189.48 361.276 189.094 362.068 188.844C362.864 188.594 363.593 188.557 364.255 188.733C364.917 188.91 365.489 189.264 365.971 189.797C366.453 190.329 366.822 191.005 367.078 191.823C367.333 192.642 367.415 193.408 367.322 194.121C367.229 194.835 366.961 195.454 366.518 195.978C366.075 196.502 365.455 196.89 364.659 197.14ZM364.366 196.2C364.96 196.017 365.412 195.729 365.722 195.336C366.035 194.937 366.214 194.466 366.258 193.922C366.306 193.376 366.231 192.786 366.033 192.152C365.834 191.514 365.56 190.987 365.211 190.57C364.866 190.152 364.453 189.872 363.971 189.728C363.493 189.583 362.956 189.602 362.362 189.785C361.768 189.968 361.315 190.256 361.005 190.649C360.699 191.041 360.521 191.51 360.473 192.055C360.425 192.601 360.499 193.193 360.694 193.832C360.889 194.468 361.16 194.994 361.509 195.41C361.858 195.827 362.272 196.11 362.751 196.258C363.233 196.402 363.771 196.383 364.366 196.2Z" fill="white"/>
<path d="M368.981 195.553L366.068 187.735L370.624 186.024L370.984 186.991L367.393 188.339L368.31 190.798L371.25 189.694L371.61 190.661L368.67 191.765L369.947 195.191L368.981 195.553Z" fill="white"/>
<path d="M378.336 191.901L377.382 183.147L378.685 182.543L384.707 188.947L383.735 189.398L378.128 183.465L378.422 183.329L379.309 191.45L378.336 191.901ZM378.74 189.562L378.335 188.683L382.267 186.86L382.671 187.739L378.74 189.562Z" fill="white"/>
<path d="M385.436 188.542L381.694 181.085L382.614 180.619L386.356 188.076L385.436 188.542Z" fill="white"/>
<path d="M390.441 185.977L386.299 178.734L387.193 178.219L389.019 181.413L392.824 179.221L390.998 176.027L391.892 175.512L396.033 182.755L395.14 183.269L393.311 180.071L389.505 182.263L391.334 185.462L390.441 185.977Z" fill="white"/>
<path d="M401.275 179.652C400.58 180.106 399.89 180.338 399.206 180.347C398.521 180.356 397.873 180.17 397.263 179.789C396.655 179.407 396.118 178.855 395.652 178.136C395.185 177.416 394.901 176.701 394.798 175.988C394.698 175.273 394.791 174.604 395.076 173.979C395.361 173.354 395.852 172.815 396.547 172.36C397.245 171.904 397.937 171.671 398.622 171.662C399.306 171.653 399.952 171.84 400.56 172.223C401.167 172.606 401.704 173.157 402.171 173.876C402.637 174.596 402.922 175.312 403.025 176.024C403.128 176.737 403.037 177.406 402.751 178.03C402.466 178.655 401.974 179.196 401.275 179.652ZM400.74 178.826C401.262 178.489 401.62 178.089 401.812 177.626C402.006 177.158 402.051 176.656 401.947 176.12C401.846 175.581 401.615 175.033 401.254 174.475C400.89 173.915 400.485 173.481 400.037 173.174C399.592 172.864 399.119 172.705 398.616 172.697C398.117 172.687 397.606 172.85 397.083 173.187C396.56 173.524 396.203 173.923 396.01 174.386C395.821 174.847 395.776 175.346 395.877 175.885C395.978 176.423 396.208 176.974 396.569 177.537C396.927 178.096 397.33 178.53 397.778 178.837C398.225 179.144 398.7 179.305 399.202 179.319C399.704 179.327 400.217 179.163 400.74 178.826Z" fill="white"/>
<path d="M405.141 176.875L400.297 170.082L404.25 167.242L404.849 168.082L401.734 170.32L403.257 172.457L405.808 170.625L406.406 171.465L403.856 173.297L405.979 176.274L405.141 176.875Z" fill="white"/>
<path d="M413.171 170.969L410.068 162.726L411.18 161.815L418.603 166.519L417.774 167.198L410.87 162.848L411.121 162.642L414 170.29L413.171 170.969ZM412.979 168.602L412.369 167.851L415.721 165.105L416.332 165.856L412.979 168.602Z" fill="white"/>
<path d="M419.182 165.986L413.73 159.671L414.508 158.994L419.96 165.309L419.182 165.986Z" fill="white"/>
<path d="M423.932 161.773L418.154 155.754L418.896 155.037L421.443 157.691L424.6 154.638L422.052 151.984L422.794 151.267L428.571 157.286L427.83 158.003L425.278 155.345L422.121 158.398L424.673 161.056L423.932 161.773Z" fill="white"/>
<path d="M431.927 154.036C431.359 154.643 430.744 155.032 430.081 155.203C429.419 155.374 428.745 155.347 428.062 155.122C427.381 154.894 426.729 154.486 426.105 153.898C425.481 153.31 425.035 152.682 424.766 152.014C424.499 151.343 424.43 150.671 424.559 149.996C424.688 149.321 425.036 148.68 425.604 148.074C426.174 147.465 426.79 147.075 427.453 146.903C428.116 146.732 428.788 146.76 429.469 146.988C430.149 147.216 430.802 147.624 431.426 148.212C432.049 148.801 432.496 149.429 432.765 150.097C433.034 150.764 433.104 151.436 432.975 152.11C432.846 152.785 432.497 153.427 431.927 154.036ZM431.21 153.361C431.638 152.909 431.89 152.436 431.968 151.941C432.045 151.44 431.969 150.941 431.741 150.445C431.515 149.945 431.161 149.468 430.677 149.012C430.191 148.553 429.694 148.228 429.186 148.036C428.681 147.841 428.183 147.799 427.693 147.91C427.206 148.019 426.748 148.298 426.32 148.75C425.893 149.201 425.64 149.675 425.563 150.17C425.488 150.662 425.564 151.158 425.789 151.658C426.015 152.157 426.37 152.637 426.853 153.099C427.334 153.557 427.828 153.883 428.336 154.075C428.844 154.267 429.343 154.31 429.833 154.205C430.324 154.093 430.782 153.812 431.21 153.361Z" fill="white"/>
<path d="M435.927 149.392L429.574 143.985L432.714 140.267L433.5 140.935L431.025 143.865L433.023 145.567L435.05 143.168L435.835 143.836L433.809 146.235L436.593 148.605L435.927 149.392Z" fill="white"/>
<path d="M441.635 142.497L436.589 135.278L437.441 134.121L445.798 136.842L445.162 137.705L437.396 135.198L437.589 134.937L442.27 141.634L441.635 142.497ZM440.864 140.252L440.086 139.675L442.655 136.185L443.433 136.761L440.864 140.252Z" fill="white"/>
<path d="M446.432 135.875L439.553 131.154L440.133 130.302L447.013 135.022L446.432 135.875Z" fill="white"/>
<path d="M449.794 130.843L442.619 126.585L443.142 125.696L446.306 127.574L448.535 123.79L445.371 121.912L445.894 121.023L453.069 125.281L452.546 126.17L449.377 124.289L447.148 128.074L450.317 129.954L449.794 130.843Z" fill="white"/>
<path d="M455.905 120.182C455.538 120.927 455.063 121.478 454.478 121.835C453.894 122.192 453.242 122.362 452.522 122.346C451.804 122.327 451.061 122.127 450.293 121.746C449.524 121.365 448.914 120.895 448.462 120.335C448.012 119.771 447.751 119.148 447.677 118.465C447.604 117.782 447.751 117.068 448.117 116.323C448.486 115.574 448.962 115.021 449.546 114.664C450.131 114.307 450.782 114.138 451.5 114.158C452.218 114.177 452.961 114.378 453.729 114.758C454.498 115.139 455.108 115.61 455.56 116.17C456.012 116.73 456.274 117.351 456.347 118.034C456.42 118.717 456.273 119.433 455.905 120.182ZM455.022 119.744C455.3 119.188 455.404 118.662 455.333 118.166C455.261 117.664 455.044 117.21 454.681 116.801C454.32 116.389 453.841 116.036 453.246 115.741C452.647 115.444 452.077 115.278 451.535 115.242C450.995 115.203 450.506 115.308 450.069 115.557C449.634 115.803 449.278 116.204 449 116.76C448.722 117.316 448.618 117.843 448.689 118.339C448.761 118.831 448.977 119.284 449.338 119.695C449.7 120.107 450.179 120.463 450.776 120.763C451.37 121.062 451.937 121.229 452.479 121.265C453.021 121.301 453.512 121.196 453.95 120.952C454.387 120.703 454.744 120.301 455.022 119.744Z" fill="white"/>
<path d="M457.164 114.752L449.436 111.605L451.26 107.093L452.215 107.482L450.778 111.038L453.209 112.028L454.385 109.116L455.34 109.505L454.164 112.417L457.55 113.795L457.164 114.752Z" fill="white"/>
<path d="M469.128 114.383C458.936 119.266 441.428 123.587 433.804 123.974C430.097 132.112 415.659 145.966 410.93 149.842C429.692 151.469 444.324 150.326 448.86 148.97C457.662 143.389 467.004 121.068 469.128 114.383Z" fill="#6C65BA"/>
<path d="M460.45 106.239L453.166 101.296L453.551 99.9116L462.333 99.4739L462.046 100.507L453.892 100.934L453.979 100.621L460.738 105.206L460.45 106.239ZM458.931 104.417L457.999 104.156L459.161 99.9804L460.093 100.242L458.931 104.417Z" fill="white"/>
<path d="M462.684 97.5324L454.505 95.888L454.707 94.8766L462.886 96.521L462.684 97.5324Z" fill="white"/>
<path d="M463.748 91.5654L455.425 90.9879L455.496 89.9591L459.166 90.2137L459.468 85.8323L455.797 85.5777L455.868 84.5488L464.191 85.1263L464.121 86.1551L460.445 85.9001L460.143 90.2815L463.819 90.5365L463.748 91.5654Z" fill="white"/>
<path d="M464.099 79.4243C464.17 80.2517 464.047 80.9698 463.731 81.5786C463.415 82.1874 462.945 82.6718 462.32 83.0319C461.696 83.3881 460.956 83.6031 460.102 83.6767C459.247 83.7503 458.482 83.6651 457.806 83.4209C457.13 83.173 456.584 82.7761 456.169 82.2303C455.754 81.6845 455.511 80.9979 455.441 80.1705C455.369 79.3392 455.492 78.6192 455.808 78.0104C456.124 77.4016 456.595 76.9191 457.22 76.5629C457.844 76.2066 458.584 75.9917 459.438 75.9181C460.292 75.8444 461.058 75.9297 461.734 76.1738C462.41 76.418 462.955 76.8129 463.37 77.3587C463.785 77.9045 464.028 78.593 464.099 79.4243ZM463.118 79.5088C463.069 78.8889 462.886 78.3851 462.57 77.9976C462.25 77.6065 461.829 77.3307 461.307 77.1701C460.785 77.0058 460.193 76.9521 459.531 77.0091C458.866 77.0665 458.292 77.2207 457.809 77.4716C457.326 77.7187 456.962 78.0622 456.717 78.502C456.471 78.938 456.373 79.466 456.422 80.0859C456.471 80.7059 456.654 81.2096 456.97 81.5972C457.286 81.9809 457.705 82.255 458.226 82.4194C458.748 82.5837 459.342 82.6392 460.008 82.5856C460.671 82.5324 461.243 82.3804 461.726 82.1294C462.208 81.8785 462.574 81.5349 462.824 81.0985C463.069 80.6587 463.167 80.1288 463.118 79.5088Z" fill="white"/>
<path d="M463.115 73.3749L455.036 75.4573L453.83 70.7422L454.828 70.4848L455.779 74.2007L458.32 73.5457L457.542 70.5033L458.541 70.2459L459.319 73.2883L462.859 72.3758L463.115 73.3749Z" fill="white"/>
<path d="M461.153 63.5978L452.483 65.0425L451.812 63.7715L457.877 57.3864L458.377 58.3345L452.761 64.278L452.609 63.991L460.653 62.6497L461.153 63.5978ZM458.802 63.325L457.947 63.779L455.926 59.9456L456.78 59.4915L458.802 63.325Z" fill="white"/>
<path d="M456.792 55.9737L449.953 60.7529L449.366 59.9054L456.204 55.1262L456.792 55.9737Z" fill="white"/>
<path d="M452.529 50.5524L446.58 56.4023L445.86 55.6643L448.483 53.0846L445.415 49.9416L442.792 52.5212L442.072 51.7831L448.021 45.9332L448.741 46.6713L446.114 49.255L449.181 52.3981L451.808 49.8144L452.529 50.5524Z" fill="white"/>
<path d="M443.851 42.0878C444.488 42.6206 444.912 43.2141 445.122 43.8682C445.332 44.5223 445.345 45.1983 445.162 45.8964C444.976 46.592 444.61 47.2696 444.062 47.9294C443.514 48.5892 442.916 49.0735 442.268 49.3825C441.617 49.6889 440.952 49.7975 440.274 49.7081C439.595 49.6186 438.937 49.3075 438.3 48.7747C437.66 48.2393 437.235 47.6446 437.025 46.9906C436.815 46.3365 436.803 45.6616 436.989 44.9661C437.175 44.2705 437.541 43.5928 438.089 42.9331C438.637 42.2733 439.235 41.7889 439.883 41.48C440.531 41.171 441.194 41.0613 441.873 41.1507C442.552 41.2401 443.211 41.5525 443.851 42.0878ZM443.222 42.8456C442.747 42.4437 442.262 42.2186 441.764 42.1703C441.262 42.1226 440.771 42.2277 440.29 42.4857C439.807 42.7412 439.353 43.1245 438.929 43.6357C438.502 44.1498 438.208 44.667 438.048 45.1872C437.884 45.7049 437.872 46.206 438.012 46.6906C438.149 47.1728 438.454 47.6148 438.929 48.0168C439.404 48.4188 439.889 48.6439 440.386 48.6921C440.881 48.7379 441.369 48.633 441.852 48.3775C442.336 48.122 442.792 47.7385 443.222 47.2268C443.649 46.7181 443.943 46.2037 444.104 45.6835C444.265 45.1633 444.278 44.6606 444.144 44.1755C444.004 43.6909 443.696 43.2476 443.222 42.8456Z" fill="white"/>
<path d="M439.172 38.6547L434.502 45.5681L430.478 42.8293L431.056 41.9748L434.226 44.1331L435.696 41.9583L433.1 40.1912L433.677 39.3366L436.273 41.1037L438.32 38.0743L439.172 38.6547Z" fill="white"/>
<path d="M431.159 33.5434L425.037 39.8518L423.744 39.2267L424.836 30.4887L425.801 30.955L424.808 39.0715L424.515 38.9303L430.194 33.0772L431.159 33.5434ZM429.105 34.7193L428.686 35.5918L424.784 33.7065L425.202 32.834L429.105 34.7193Z" fill="white"/>
<path d="M423.325 29.9693L420.32 37.7525L419.359 37.3785L422.364 29.5954L423.325 29.9693Z" fill="white"/>
<path d="M417.29 27.8537L415.399 35.9797L414.395 35.7442L415.229 32.1609L410.953 31.1581L410.119 34.7414L409.115 34.5059L411.006 26.38L412.01 26.6155L411.175 30.2044L415.451 31.2072L416.286 27.6183L417.29 27.8537Z" fill="white"/>
<path d="M405.222 25.5353C406.05 25.6022 406.738 25.8418 407.286 26.2543C407.834 26.6667 408.234 27.2105 408.486 27.8858C408.735 28.5608 408.824 29.3256 408.756 30.1804C408.687 31.0351 408.477 31.7757 408.124 32.4021C407.768 33.0282 407.286 33.5008 406.68 33.8199C406.073 34.139 405.355 34.2651 404.528 34.1983C403.696 34.1311 403.006 33.8912 402.458 33.4788C401.91 33.0664 401.512 32.5227 401.264 31.8477C401.015 31.1728 400.926 30.4079 400.994 29.5532C401.063 28.6984 401.273 27.9578 401.626 27.3314C401.978 26.705 402.458 26.2322 403.065 25.9131C403.672 25.594 404.391 25.4681 405.222 25.5353ZM405.144 26.5171C404.524 26.4631 403.997 26.5601 403.563 26.8078C403.124 27.0592 402.782 27.4288 402.538 27.9166C402.289 28.4042 402.139 28.9791 402.086 29.6414C402.032 30.3075 402.089 30.8992 402.257 31.4165C402.421 31.9335 402.7 32.3493 403.093 32.664C403.482 32.9784 403.987 33.1625 404.606 33.2164C405.226 33.2704 405.753 33.1735 406.187 32.9257C406.618 32.6776 406.958 32.3098 407.206 31.8222C407.454 31.3346 407.607 30.7579 407.664 30.0922C407.721 29.4302 407.666 28.8406 407.498 28.3233C407.33 27.8059 407.052 27.3882 406.663 27.07C406.27 26.7553 405.763 26.571 405.144 26.5171Z" fill="white"/>
<path d="M399.268 25.4758L399.741 33.8055L394.882 34.0835L394.823 33.0538L398.653 32.8348L398.504 30.2144L395.369 30.3937L395.31 29.3641L398.445 29.1847L398.238 25.5347L399.268 25.4758Z" fill="white"/>
<path d="M389.645 26.3954L389.015 35.1759L387.623 35.5355L382.846 28.1532L383.884 27.8849L388.338 34.7285L388.023 34.8097L388.607 26.6637L389.645 26.3954ZM388.829 28.6232L389.069 29.5604L384.873 30.6452L384.633 29.708L388.829 28.6232Z" fill="white"/>
<path d="M381.239 28.8309L384.158 36.6468L383.193 37.0101L380.274 29.1941L381.239 28.8309Z" fill="white"/>
<path d="M375.232 31.3606L379.463 38.5512L378.576 39.0772L376.71 35.9063L372.933 38.1463L374.799 41.3172L373.912 41.8432L369.68 34.6527L370.567 34.1266L372.436 37.3025L376.214 35.0625L374.345 31.8866L375.232 31.3606Z" fill="white"/>
<path d="M364.838 38.4012C365.455 37.8454 366.101 37.5105 366.776 37.3965C367.451 37.2824 368.12 37.3666 368.782 37.6492C369.44 37.9343 370.056 38.3966 370.627 39.036C371.198 39.6754 371.589 40.3392 371.801 41.0276C372.009 41.7185 372.02 42.3946 371.834 43.0559C371.648 43.7173 371.246 44.3258 370.629 44.8815C370.009 45.4398 369.362 45.7759 368.686 45.89C368.011 46.0041 367.344 45.9186 366.686 45.6335C366.027 45.3483 365.412 44.8861 364.84 44.2467C364.269 43.6073 363.878 42.9434 363.667 42.2551C363.455 41.5667 363.443 40.8919 363.629 40.2306C363.815 39.5692 364.218 38.9594 364.838 38.4012ZM365.494 39.1356C365.03 39.5488 364.738 39.9989 364.618 40.4857C364.499 40.978 364.532 41.4812 364.717 41.9955C364.899 42.5124 365.211 43.0185 365.654 43.5139C366.099 44.0122 366.567 44.3787 367.056 44.6136C367.543 44.851 368.035 44.9353 368.533 44.8664C369.028 44.8001 369.508 44.5603 369.973 44.147C370.437 43.7338 370.729 43.2838 370.849 42.7969C370.965 42.3127 370.932 41.8122 370.75 41.2953C370.568 40.7784 370.256 40.2696 369.813 39.7687C369.373 39.2707 368.909 38.9043 368.419 38.6695C367.929 38.4346 367.436 38.3489 366.938 38.4124C366.44 38.4813 365.959 38.7223 365.494 39.1356Z" fill="white"/>
<path d="M360.599 42.9008L367.199 48.0043L364.236 51.8654L363.421 51.2345L365.756 48.1916L363.679 46.5861L361.768 49.0774L360.952 48.4466L362.863 45.9553L359.971 43.719L360.599 42.9008Z" fill="white"/>
<path d="M355.887 51.4793L362.448 57.3524L361.882 58.6732L353.123 57.9343L353.545 56.949L361.68 57.6142L361.553 57.9125L355.465 52.4646L355.887 51.4793ZM357.151 53.4886L358.039 53.872L356.333 57.8558L355.445 57.4724L357.151 53.4886Z" fill="white"/>
<path d="M352.7 59.7396L360.741 61.9661L360.467 62.9606L352.427 60.7341L352.7 59.7396Z" fill="white"/>
<path d="M351.276 65.9667L359.602 66.5022L359.536 67.5314L355.864 67.2953L355.585 71.6781L359.256 71.9143L359.19 72.9435L350.865 72.408L350.93 71.3787L354.608 71.6153L354.887 67.2324L351.21 66.9959L351.276 65.9667Z" fill="white"/>
<path d="M351.184 78.2756C351.08 77.4517 351.173 76.7292 351.464 76.1079C351.755 75.4866 352.205 74.9832 352.814 74.5978C353.424 74.2162 354.154 73.9711 355.005 73.8624C355.855 73.7538 356.623 73.8075 357.309 74.0237C357.995 74.2437 358.556 74.6179 358.993 75.1462C359.43 75.6745 359.7 76.3505 359.805 77.1744C359.91 78.0021 359.817 78.7266 359.525 79.3479C359.234 79.9691 358.784 80.4706 358.174 80.8522C357.565 81.2338 356.835 81.4789 355.984 81.5876C355.133 81.6962 354.365 81.6425 353.68 81.4263C352.995 81.2101 352.433 80.8379 351.997 80.3096C351.56 79.7813 351.289 79.1033 351.184 78.2756ZM352.161 78.1508C352.235 78.7682 352.438 79.2641 352.77 79.6384C353.106 80.016 353.538 80.2743 354.066 80.4133C354.594 80.5561 355.187 80.5854 355.846 80.5012C356.509 80.4165 357.076 80.2389 357.548 79.9684C358.021 79.7017 358.37 79.3435 358.598 78.894C358.825 78.4482 358.902 77.9166 358.828 77.2992C358.753 76.6818 358.55 76.1859 358.219 75.8116C357.887 75.4412 357.458 75.1845 356.93 75.0417C356.401 74.8989 355.806 74.8679 355.142 74.9488C354.483 75.0291 353.917 75.2046 353.445 75.4751C352.974 75.7457 352.622 76.1041 352.39 76.5503C352.163 76.9999 352.087 77.5334 352.161 78.1508Z" fill="white"/>
<path d="M352.324 83.9407L360.351 81.6655L361.669 86.3505L360.677 86.6318L359.638 82.9395L357.113 83.6553L357.963 86.6782L356.971 86.9595L356.121 83.9365L352.603 84.9335L352.324 83.9407Z" fill="white"/>
<path d="M354.245 93.2946L362.973 92.2515L363.585 93.5519L357.232 99.65L356.776 98.6799L362.66 93.0022L362.798 93.2959L354.701 94.2647L354.245 93.2946ZM356.582 93.6755L357.456 93.2614L359.299 97.1837L358.425 97.5978L356.582 93.6755Z" fill="white"/>
<path d="M357.966 100.848L365.226 96.7355L365.731 97.6345L358.472 101.747L357.966 100.848Z" fill="white"/>
<path d="M361.142 106.242L367.931 101.393L368.527 102.234L365.534 104.373L368.073 107.955L371.067 105.817L371.664 106.658L364.874 111.508L364.278 110.666L367.277 108.525L364.737 104.942L361.738 107.084L361.142 106.242Z" fill="white"/>
<path d="M368.375 116.044C367.829 115.418 367.504 114.765 367.399 114.086C367.294 113.407 367.386 112.738 367.676 112.077C367.969 111.419 368.437 110.807 369.081 110.241C369.726 109.675 370.392 109.29 371.08 109.087C371.771 108.886 372.445 108.883 373.101 109.077C373.758 109.272 374.359 109.682 374.905 110.308C375.453 110.937 375.779 111.591 375.884 112.27C375.99 112.949 375.896 113.617 375.603 114.275C375.311 114.933 374.843 115.545 374.198 116.111C373.554 116.677 372.888 117.061 372.199 117.265C371.511 117.469 370.839 117.473 370.182 117.279C369.526 117.084 368.923 116.673 368.375 116.044ZM369.115 115.394C369.521 115.865 369.966 116.163 370.449 116.289C370.938 116.415 371.44 116.388 371.954 116.208C372.471 116.031 372.98 115.724 373.479 115.285C373.981 114.844 374.352 114.379 374.592 113.891C374.835 113.405 374.925 112.912 374.863 112.412C374.803 111.914 374.57 111.429 374.165 110.958C373.759 110.487 373.314 110.188 372.831 110.063C372.35 109.94 371.851 109.968 371.334 110.144C370.816 110.321 370.306 110.628 369.801 111.066C369.299 111.502 368.928 111.964 368.688 112.453C368.448 112.941 368.356 113.436 368.413 113.936C368.475 114.436 368.709 114.922 369.115 115.394Z" fill="white"/>
<path d="M372.915 120.711L378.579 114.585L382.14 117.903L381.44 118.66L378.634 116.046L376.852 117.973L379.149 120.114L378.449 120.871L376.152 118.73L373.67 121.414L372.915 120.711Z" fill="white"/>
<path d="M379.623 126.716L386.676 121.472L387.852 122.298L385.372 130.749L384.495 130.133L386.778 122.28L387.043 122.466L380.501 127.332L379.623 126.716ZM381.839 125.886L382.392 125.092L385.94 127.58L385.387 128.374L381.839 125.886Z" fill="white"/>
<path d="M386.944 131.634L391.145 124.426L392.035 124.948L387.833 132.156L386.944 131.634Z" fill="white"/>
<path d="M392.6 134.78L395.836 127.09L396.786 127.492L395.359 130.883L399.402 132.598L400.829 129.207L401.778 129.609L398.542 137.299L397.593 136.897L399.022 133.5L394.979 131.786L393.55 135.182L392.6 134.78Z" fill="white"/>
<path d="M403.912 139.172C403.113 138.946 402.484 138.577 402.026 138.066C401.568 137.555 401.28 136.944 401.164 136.232C401.05 135.522 401.11 134.754 401.342 133.928C401.574 133.103 401.923 132.417 402.389 131.87C402.859 131.325 403.423 130.955 404.08 130.759C404.736 130.564 405.464 130.579 406.263 130.806C407.066 131.033 407.697 131.402 408.155 131.913C408.613 132.424 408.899 133.035 409.012 133.746C409.125 134.456 409.066 135.224 408.834 136.05C408.602 136.875 408.253 137.561 407.786 138.108C407.32 138.654 406.758 139.025 406.101 139.22C405.445 139.416 404.715 139.4 403.912 139.172ZM404.179 138.224C404.776 138.397 405.312 138.404 405.785 138.245C406.264 138.084 406.67 137.788 407.004 137.356C407.342 136.926 407.601 136.391 407.78 135.751C407.961 135.108 408.019 134.516 407.954 133.976C407.893 133.437 407.7 132.975 407.375 132.59C407.054 132.206 406.594 131.927 405.997 131.754C405.4 131.581 404.864 131.573 404.39 131.732C403.92 131.892 403.516 132.187 403.178 132.618C402.841 133.048 402.58 133.584 402.395 134.226C402.212 134.865 402.152 135.454 402.217 135.995C402.282 136.535 402.475 136.999 402.795 137.387C403.12 137.772 403.581 138.051 404.179 138.224Z" fill="white"/>
<path d="M408.699 140.263L410.153 132.048L414.945 132.902L414.765 133.918L410.989 133.245L410.532 135.829L413.623 136.38L413.443 137.396L410.352 136.845L409.715 140.445L408.699 140.263Z" fill="white"/>
<path d="M417.822 141.746L421.047 133.561L422.482 133.637L424.834 142.116L423.764 142.06L421.56 134.192L421.884 134.209L418.892 141.802L417.822 141.746ZM419.266 139.867L419.317 138.901L423.645 139.129L423.594 140.096L419.266 139.867Z" fill="white"/>
<path d="M426.573 142.095L426.515 133.752L427.546 133.745L427.605 142.087L426.573 142.095Z" fill="white"/>
<path d="M433.58 141.924L432.793 133.618L433.82 133.52L434.167 137.183L438.539 136.765L438.192 133.102L439.218 133.004L440.006 141.31L438.979 141.408L438.631 137.74L434.259 138.158L434.607 141.826L433.58 141.924Z" fill="white"/>
<path d="M445.379 140.669C444.56 140.807 443.835 140.743 443.203 140.477C442.571 140.212 442.051 139.783 441.642 139.19C441.237 138.596 440.964 137.876 440.823 137.03C440.681 136.185 440.705 135.415 440.894 134.721C441.087 134.026 441.439 133.45 441.95 132.992C442.461 132.533 443.126 132.235 443.945 132.097C444.767 131.958 445.495 132.022 446.126 132.287C446.758 132.553 447.277 132.982 447.682 133.576C448.086 134.17 448.36 134.89 448.501 135.735C448.643 136.581 448.619 137.351 448.429 138.045C448.24 138.739 447.89 139.315 447.379 139.773C446.869 140.231 446.202 140.53 445.379 140.669ZM445.217 139.697C445.83 139.598 446.318 139.374 446.679 139.028C447.043 138.676 447.284 138.234 447.403 137.701C447.525 137.167 447.531 136.573 447.421 135.917C447.311 135.258 447.112 134.699 446.823 134.238C446.538 133.777 446.167 133.442 445.709 133.233C445.255 133.024 444.721 132.969 444.107 133.069C443.493 133.168 443.006 133.391 442.645 133.738C442.288 134.084 442.048 134.524 441.926 135.058C441.804 135.592 441.796 136.189 441.902 136.848C442.008 137.504 442.205 138.062 442.494 138.523C442.783 138.984 443.154 139.32 443.609 139.534C444.067 139.742 444.603 139.797 445.217 139.697Z" fill="white"/>
<path d="M450.062 139.649L448.25 131.505L452.999 130.441L453.223 131.447L449.48 132.286L450.05 134.848L453.114 134.162L453.338 135.168L450.274 135.855L451.068 139.424L450.062 139.649Z" fill="white"/>
<path d="M459.668 137.366L460.006 128.569L461.384 128.163L466.404 135.381L465.376 135.684L460.697 128.993L461.008 128.902L460.697 137.063L459.668 137.366ZM460.41 135.112L460.138 134.184L464.295 132.959L464.567 133.887L460.41 135.112Z" fill="white"/>
<path d="M467.75 134.919L465.174 126.983L466.154 126.662L468.73 134.598L467.75 134.919Z" fill="white"/>
<path d="M473.315 133.05L470.409 125.229L471.374 124.867L472.656 128.316L476.769 126.776L475.487 123.327L476.453 122.965L479.36 130.786L478.394 131.148L477.11 127.693L472.997 129.234L474.281 132.688L473.315 133.05Z" fill="white"/>
<path d="M483.157 129.425C482.39 129.743 481.669 129.843 480.994 129.725C480.319 129.608 479.717 129.305 479.187 128.818C478.66 128.33 478.234 127.689 477.908 126.896C477.582 126.103 477.434 125.347 477.464 124.628C477.497 123.908 477.712 123.267 478.108 122.706C478.503 122.144 479.085 121.705 479.852 121.387C480.623 121.068 481.346 120.967 482.02 121.084C482.695 121.202 483.296 121.505 483.823 121.993C484.349 122.482 484.775 123.122 485.102 123.915C485.428 124.709 485.576 125.465 485.546 126.184C485.515 126.903 485.303 127.543 484.907 128.104C484.511 128.665 483.928 129.105 483.157 129.425ZM482.783 128.514C483.359 128.279 483.784 127.953 484.058 127.534C484.335 127.11 484.472 126.624 484.468 126.078C484.469 125.53 484.343 124.949 484.09 124.335C483.836 123.717 483.517 123.215 483.133 122.831C482.753 122.445 482.317 122.201 481.824 122.1C481.335 121.997 480.803 122.063 480.227 122.298C479.651 122.532 479.225 122.859 478.951 123.278C478.68 123.696 478.544 124.178 478.544 124.726C478.544 125.274 478.669 125.858 478.919 126.477C479.168 127.093 479.485 127.593 479.868 127.978C480.252 128.362 480.689 128.608 481.18 128.714C481.672 128.815 482.207 128.748 482.783 128.514Z" fill="white"/>
<path d="M488.706 126.896L485.296 119.281L489.733 117.279L490.154 118.221L486.658 119.798L487.731 122.194L490.593 120.902L491.015 121.843L488.152 123.135L489.646 126.471L488.706 126.896Z" fill="white"/>
<path d="M496.309 123.431L495.154 114.701L496.443 114.066L502.61 120.331L501.648 120.804L495.907 115.002L496.198 114.859L497.271 122.958L496.309 123.431ZM496.659 121.083L496.234 120.213L500.123 118.3L500.547 119.169L496.659 121.083Z" fill="white"/>
<path d="M504.482 119.362L500.69 111.931L501.607 111.459L505.399 118.891L504.482 119.362Z" fill="white"/>
<path d="M509.147 116.946L505.184 109.604L506.09 109.111L507.837 112.349L511.695 110.25L509.948 107.013L510.854 106.52L514.817 113.862L513.911 114.355L512.161 111.112L508.303 113.21L510.053 116.453L509.147 116.946Z" fill="white"/>
<path d="M519.024 111.696C518.303 112.108 517.6 112.298 516.916 112.267C516.232 112.235 515.596 112.011 515.009 111.594C514.426 111.176 513.923 110.594 513.5 109.848C513.077 109.102 512.835 108.371 512.774 107.653C512.717 106.934 512.85 106.271 513.172 105.664C513.494 105.058 514.015 104.548 514.736 104.136C515.461 103.722 516.165 103.531 516.849 103.563C517.533 103.595 518.167 103.82 518.751 104.238C519.334 104.657 519.837 105.239 520.26 105.985C520.683 106.73 520.925 107.462 520.986 108.179C521.046 108.897 520.915 109.559 520.593 110.165C520.271 110.772 519.748 111.282 519.024 111.696ZM518.538 110.839C519.08 110.534 519.46 110.156 519.68 109.706C519.901 109.251 519.976 108.752 519.904 108.21C519.836 107.666 519.637 107.106 519.31 106.528C518.98 105.947 518.601 105.489 518.172 105.156C517.747 104.821 517.283 104.634 516.782 104.596C516.284 104.556 515.764 104.688 515.222 104.993C514.68 105.298 514.3 105.676 514.08 106.126C513.864 106.575 513.79 107.071 513.858 107.615C513.927 108.158 514.124 108.722 514.45 109.305C514.775 109.885 515.151 110.341 515.58 110.674C516.009 111.008 516.473 111.196 516.973 111.24C517.474 111.278 517.996 111.145 518.538 110.839Z" fill="white"/>
<path d="M524.602 108.268L520.349 101.09L524.528 98.5952L525.054 99.4824L521.761 101.448L523.098 103.707L525.795 102.097L526.32 102.984L523.624 104.594L525.487 107.739L524.602 108.268Z" fill="white"/>
<path d="M532.045 103.794L530.016 95.2234L531.234 94.4618L538 100.072L537.091 100.64L530.795 95.4468L531.07 95.2748L532.954 103.225L532.045 103.794ZM532.156 101.422L531.646 100.6L535.321 98.3026L535.831 99.1248L532.156 101.422Z" fill="white"/>
<path d="M538.537 99.7179L534.074 92.669L534.943 92.1143L539.407 99.1632L538.537 99.7179Z" fill="white"/>
<path d="M542.905 96.932L538.342 89.9474L539.203 89.3803L541.215 92.4603L544.884 90.0454L542.871 86.9654L543.733 86.3983L548.296 93.3829L547.435 93.95L545.419 90.8651L541.751 93.28L543.766 96.3649L542.905 96.932Z" fill="white"/>
<path d="M553.302 90.2237C552.615 90.6901 551.929 90.9337 551.244 90.9547C550.56 90.9757 549.909 90.8011 549.292 90.431C548.678 90.0588 548.132 89.517 547.653 88.8058C547.174 88.0946 546.877 87.3836 546.761 86.673C546.649 85.9602 546.73 85.289 547.005 84.6593C547.279 84.0296 547.76 83.4816 548.447 83.0153C549.137 82.5468 549.825 82.302 550.509 82.281C551.194 82.26 551.843 82.4357 552.457 82.8079C553.071 83.1802 553.617 83.722 554.096 84.4332C554.575 85.1444 554.872 85.8554 554.988 86.566C555.103 87.2766 555.023 87.9467 554.749 88.5764C554.475 89.2061 553.992 89.7552 553.302 90.2237ZM552.752 89.4068C553.268 89.0608 553.619 88.6548 553.803 88.1888C553.989 87.7175 554.025 87.2145 553.912 86.6799C553.802 86.1431 553.561 85.5991 553.19 85.0481C552.817 84.4938 552.404 84.067 551.951 83.7677C551.501 83.4661 551.024 83.3155 550.522 83.3159C550.022 83.3141 549.514 83.4862 548.997 83.8322C548.481 84.1782 548.13 84.5842 547.946 85.0501C547.764 85.5139 547.729 86.0142 547.839 86.551C547.949 87.0879 548.189 87.6345 548.559 88.1909C548.927 88.7441 549.337 89.1704 549.79 89.4698C550.243 89.7691 550.721 89.9213 551.222 89.9263C551.725 89.926 552.235 89.7528 552.752 89.4068Z" fill="white"/>
<path d="M556.971 87.5158L552.24 80.6436L556.239 77.8697L556.824 78.7191L553.672 80.9053L555.16 83.0672L557.741 81.2773L558.325 82.1268L555.745 83.9166L557.818 86.928L556.971 87.5158Z" fill="white"/>
<path d="M564.526 82.2593L561.981 73.8273L563.151 72.9932L570.244 78.183L569.371 78.8052L562.772 74.003L563.037 73.8147L565.398 81.6371L564.526 82.2593ZM564.492 79.8851L563.934 79.0952L567.462 76.5795L568.021 77.3694L564.492 79.8851Z" fill="white"/>
<path d="M571.405 77.3289L566.546 70.547L567.382 69.9433L572.241 76.7252L571.405 77.3289Z" fill="white"/>
<path d="M575.723 74.2089L570.808 67.467L571.639 66.8564L573.806 69.8294L577.346 67.2294L575.178 64.2564L576.01 63.6459L580.924 70.3878L580.093 70.9984L577.923 68.0207L574.383 70.6207L576.554 73.5983L575.723 74.2089Z" fill="white"/>
<path d="M585.485 67.2236C584.819 67.72 584.145 67.9939 583.462 68.0453C582.779 68.0966 582.122 67.9511 581.489 67.6088C580.859 67.2641 580.289 66.7471 579.779 66.0578C579.269 65.3685 578.94 64.6715 578.794 63.9666C578.65 63.2595 578.701 62.5853 578.948 61.944C579.194 61.3027 579.65 60.7338 580.316 60.2374C580.984 59.7387 581.66 59.4637 582.343 59.4123C583.026 59.361 583.682 59.5076 584.312 59.8523C584.942 60.1969 585.512 60.7139 586.022 61.4032C586.532 62.0925 586.86 62.7896 587.007 63.4944C587.154 64.1992 587.104 64.8723 586.858 65.5136C586.611 66.1549 586.154 66.7249 585.485 67.2236ZM584.899 66.4318C585.4 66.0632 585.732 65.6421 585.896 65.1684C586.06 64.6892 586.074 64.1851 585.937 63.656C585.803 63.1246 585.539 62.5918 585.144 62.0578C584.746 61.5206 584.315 61.1125 583.849 60.8336C583.386 60.5523 582.903 60.423 582.401 60.4457C581.902 60.4661 581.402 60.6606 580.901 61.0292C580.401 61.3978 580.068 61.819 579.905 62.2927C579.744 62.7641 579.731 63.2655 579.865 63.7969C579.998 64.3284 580.262 64.8638 580.657 65.4033C581.049 65.9396 581.478 66.3473 581.944 66.6263C582.41 66.9052 582.893 67.0361 583.395 67.0188C583.897 66.9961 584.398 66.8005 584.899 66.4318Z" fill="white"/>
<path d="M589.722 63.8429L584.728 57.1599L588.615 54.2321L589.233 55.0582L586.169 57.3656L587.74 59.4679L590.249 57.5788L590.866 58.4049L588.358 60.294L590.546 63.2225L589.722 63.8429Z" fill="white"/>
<path d="M596.637 58.6222L593.843 50.2691L594.988 49.4006L602.231 54.3778L601.377 55.0257L594.64 50.4213L594.898 50.2252L597.491 57.9743L596.637 58.6222ZM596.533 56.2499L595.951 55.4769L599.404 52.8575L599.986 53.6304L596.533 56.2499Z" fill="white"/>
<path d="M603.685 53.2742L598.665 46.6103L599.487 45.9867L604.507 52.6506L603.685 53.2742Z" fill="white"/>
<path d="M607.745 50.1923L602.745 43.5132L603.569 42.8922L605.773 45.8375L609.279 43.1928L607.075 40.2475L607.898 39.6264L612.898 46.3055L612.075 46.9266L609.866 43.9766L606.36 46.6213L608.568 49.5713L607.745 50.1923Z" fill="white"/>
<path d="M616.912 43.5352C616.244 44.0284 615.568 44.2991 614.885 44.3473C614.202 44.3954 613.545 44.2469 612.914 43.9016C612.286 43.554 611.718 43.0343 611.211 42.3426C610.704 41.6509 610.379 40.9523 610.236 40.2468C610.096 39.539 610.15 38.865 610.399 38.2249C610.648 37.5848 611.107 37.0181 611.775 36.5248C612.446 36.0292 613.123 35.7574 613.806 35.7092C614.489 35.6611 615.145 35.8108 615.773 36.1584C616.401 36.506 616.969 37.0257 617.476 37.7174C617.983 38.409 618.308 39.1076 618.451 39.8132C618.595 40.5187 618.542 41.1915 618.292 41.8316C618.043 42.4718 617.583 43.0396 616.912 43.5352ZM616.33 42.7407C616.832 42.3744 617.166 41.9548 617.332 41.4819C617.499 41.0035 617.515 40.4995 617.381 39.9697C617.249 39.4377 616.987 38.9037 616.595 38.3678C616.2 37.8288 615.77 37.4187 615.306 37.1375C614.844 36.8541 614.362 36.7225 613.86 36.7429C613.361 36.7609 612.86 36.9531 612.357 37.3193C611.855 37.6856 611.521 38.1052 611.355 38.5781C611.192 39.0488 611.176 39.5501 611.308 40.0821C611.439 40.6142 611.7 41.1509 612.092 41.6922C612.482 42.2304 612.909 42.6401 613.373 42.9212C613.838 43.2024 614.321 43.3355 614.822 43.3206C615.325 43.3002 615.827 43.1069 616.33 42.7407Z" fill="white"/>
<path d="M621.117 40.2294L616.342 33.3876L620.323 30.5881L620.913 31.4338L617.776 33.6401L619.278 35.7924L621.847 33.986L622.437 34.8317L619.868 36.6381L621.961 39.6362L621.117 40.2294Z" fill="white"/>
<path d="M628.292 35.2317L626.693 26.5713L627.948 25.8718L634.426 31.813L633.489 32.3348L627.46 26.8334L627.744 26.6755L629.228 34.7098L628.292 35.2317ZM628.521 32.8687L628.053 32.022L631.838 29.9121L632.306 30.7588L628.521 32.8687Z" fill="white"/>
<path d="M635.303 31.4367L631.691 23.916L632.619 23.4667L636.231 30.9874L635.303 31.4367Z" fill="white"/>
<path d="M640.364 29.0764L637.389 21.2816L638.352 20.9114L639.664 24.3487L643.763 22.7723L642.451 19.335L643.413 18.9648L646.388 26.7596L645.426 27.1298L644.112 23.6871L640.013 25.2635L641.327 28.7062L640.364 29.0764Z" fill="white"/>
<path d="M650.4 25.6657C649.605 25.9083 648.878 25.9386 648.217 25.7566C647.557 25.5747 646.986 25.2159 646.505 24.6803C646.027 24.1436 645.664 23.4649 645.416 22.6443C645.167 21.8237 645.092 21.057 645.191 20.3443C645.293 19.6304 645.568 19.0133 646.016 18.4929C646.464 17.9725 647.085 17.5911 647.879 17.3485C648.677 17.1048 649.406 17.074 650.067 17.2559C650.727 17.4379 651.296 17.7972 651.774 18.3339C652.251 18.8706 652.614 19.5493 652.863 20.3699C653.112 21.1906 653.187 21.9572 653.088 22.67C652.989 23.3827 652.716 23.9992 652.268 24.5196C651.82 25.04 651.197 25.422 650.4 25.6657ZM650.114 24.7231C650.71 24.5452 651.164 24.2609 651.478 23.8704C651.794 23.475 651.977 23.0053 652.026 22.4612C652.078 21.9161 652.008 21.3256 651.816 20.6898C651.622 20.0503 651.352 19.5207 651.007 19.1011C650.666 18.6803 650.255 18.3959 649.774 18.2479C649.297 18.0988 648.76 18.1132 648.165 18.2911C647.569 18.4691 647.114 18.7533 646.801 19.1439C646.491 19.5333 646.309 20.0006 646.257 20.5458C646.204 21.0909 646.273 21.6838 646.463 22.3245C646.652 22.9614 646.919 23.4897 647.264 23.9093C647.609 24.3289 648.021 24.6152 648.499 24.768C648.98 24.916 649.518 24.901 650.114 24.7231Z" fill="white"/>
<path d="M655.059 24.1177L653.128 16.0012L657.86 14.8664L658.099 15.8697L654.369 16.764L654.977 19.3173L658.03 18.5851L658.269 19.5884L655.215 20.3206L656.062 23.8772L655.059 24.1177Z" fill="white"/>
<path d="M663.154 22.2478L664.6 13.5662L666.019 13.3387L670.087 21.1361L669.029 21.3058L665.232 14.075L665.553 14.0237L664.212 22.0781L663.154 22.2478ZM664.174 20.1067L664.022 19.1512L668.301 18.4651L668.453 19.4206L664.174 20.1067Z" fill="white"/>
<path d="M671.111 21.0363L670.126 12.7515L671.15 12.6288L672.135 20.9136L671.111 21.0363Z" fill="white"/>
<path d="M676.378 20.4328L675.918 12.1023L676.947 12.045L677.15 15.7186L681.535 15.4746L681.332 11.8011L682.362 11.7438L682.822 20.0743L681.792 20.1316L681.589 16.4523L677.204 16.6962L677.407 20.3755L676.378 20.4328Z" fill="white"/>
<path d="M687.692 20.2151C686.862 20.2069 686.158 20.0165 685.583 19.6438C685.007 19.2712 684.57 18.757 684.271 18.1012C683.976 17.4455 683.833 16.6889 683.841 15.8315C683.85 14.974 684.008 14.2204 684.315 13.5706C684.627 12.9209 685.074 12.4154 685.657 12.0542C686.24 11.693 686.947 11.5165 687.777 11.5247C688.611 11.533 689.316 11.7234 689.892 12.096C690.468 12.4687 690.903 12.9829 691.198 13.6386C691.493 14.2943 691.636 15.0509 691.628 15.9083C691.619 16.7658 691.461 17.5194 691.154 18.1692C690.846 18.8189 690.401 19.3244 689.818 19.6856C689.235 20.0468 688.526 20.2233 687.692 20.2151ZM687.702 19.2302C688.323 19.2402 688.842 19.1063 689.258 18.8284C689.678 18.5467 689.993 18.1539 690.203 17.6499C690.416 17.146 690.526 16.5619 690.533 15.8975C690.539 15.2293 690.441 14.6432 690.237 14.139C690.037 13.6349 689.73 13.2398 689.316 12.9537C688.905 12.6677 688.389 12.5196 687.767 12.5096C687.146 12.4996 686.627 12.6336 686.211 12.9114C685.798 13.1894 685.486 13.5803 685.272 14.0842C685.059 14.5881 684.947 15.1741 684.936 15.8423C684.926 16.5066 685.022 17.0908 685.226 17.595C685.43 18.0991 685.737 18.4962 686.147 18.7861C686.562 19.0722 687.08 19.2202 687.702 19.2302Z" fill="white"/>
<path d="M692.827 20.1606L693.412 11.838L698.267 12.1818L698.194 13.2106L694.369 12.9396L694.185 15.5577L697.317 15.7796L697.245 16.8084L694.112 16.5865L693.856 20.2334L692.827 20.1606Z" fill="white"/>
<path d="M701.155 20.8336L705.183 13.0149L706.603 13.2349L708.095 21.9087L707.036 21.7446L705.63 13.6939L705.95 13.7435L702.215 20.9977L701.155 20.8336ZM702.78 19.1096L702.928 18.1532L707.21 18.8167L707.063 19.7731L702.78 19.1096Z" fill="white"/>
<path d="M708.55 22.0382L710.174 13.8546L711.185 14.0568L709.561 22.2404L708.55 22.0382Z" fill="white"/>
<path d="M714.032 23.1817L716.296 15.1515L717.288 15.4333L716.29 18.9744L720.514 20.1743L721.513 16.6332L722.505 16.915L720.241 24.9452L719.249 24.6635L720.249 21.1168L716.024 19.9168L715.024 23.4635L714.032 23.1817Z" fill="white"/>
<path d="M724.86 26.7767C724.084 26.4828 723.489 26.0617 723.076 25.5132C722.663 24.9646 722.428 24.3308 722.372 23.6117C722.32 22.894 722.445 22.1338 722.746 21.331C723.047 20.5282 723.453 19.8745 723.965 19.37C724.48 18.8668 725.072 18.5459 725.743 18.4073C726.414 18.2688 727.138 18.3464 727.915 18.6402C728.695 18.9354 729.292 19.3572 729.705 19.9058C730.118 20.4543 730.35 21.0874 730.403 21.8051C730.455 22.5228 730.331 23.2831 730.029 24.0859C729.728 24.8887 729.322 25.5424 728.81 26.0469C728.299 26.5515 727.708 26.873 727.037 27.0116C726.366 27.1501 725.641 27.0718 724.86 26.7767ZM725.207 25.8545C725.787 26.0782 726.32 26.1311 726.805 26.0133C727.296 25.8933 727.726 25.6327 728.095 25.2314C728.468 24.8314 728.771 24.3205 729.005 23.6985C729.24 23.0729 729.348 22.4881 729.329 21.9442C729.314 21.4017 729.161 20.9247 728.87 20.5131C728.583 20.1029 728.149 19.786 727.568 19.5623C726.988 19.3387 726.455 19.2858 725.97 19.4035C725.488 19.5227 725.06 19.7822 724.687 20.1821C724.314 20.5821 724.009 21.0941 723.77 21.7184C723.533 22.339 723.424 22.9213 723.442 23.4652C723.461 24.0091 723.613 24.4879 723.899 24.9017C724.191 25.3133 724.626 25.6309 725.207 25.8545Z" fill="white"/>
<path d="M728.9 28.1652L732.413 20.598L736.822 22.6605L736.387 23.5959L732.913 21.9704L731.808 24.351L734.652 25.6818L734.218 26.6172L731.374 25.2863L729.834 28.6023L728.9 28.1652Z" fill="white"/>
<path d="M736.4 31.7851L743.112 26.1104L744.338 26.8601L742.391 35.4493L741.476 34.89L743.264 26.9096L743.541 27.079L737.315 32.3444L736.4 31.7851ZM738.56 30.8174L739.062 29.9903L742.759 32.2517L742.257 33.0789L738.56 30.8174Z" fill="white"/>
<path d="M743.461 36.2528L748.236 29.411L749.079 30.0042L744.305 36.8461L743.461 36.2528Z" fill="white"/>
<path d="M747.469 39.1259L752.898 32.7911L753.679 33.4652L751.285 36.2587L754.608 39.1292L757.003 36.3358L757.783 37.0098L752.354 43.3447L751.573 42.6706L753.971 39.8727L750.647 37.0022L748.249 39.8L747.469 39.1259Z" fill="white"/>
<path d="M755.438 46.7339C754.869 46.1295 754.519 45.4901 754.387 44.8157C754.256 44.1413 754.323 43.4684 754.587 42.7969C754.854 42.1282 755.298 41.4986 755.92 40.9083C756.542 40.3179 757.193 39.9077 757.873 39.6776C758.556 39.4503 759.229 39.4212 759.892 39.5903C760.556 39.7594 761.172 40.1461 761.741 40.7506C762.313 41.3579 762.665 41.9987 762.796 42.6731C762.927 43.3474 762.86 44.019 762.593 44.6877C762.326 45.3564 761.881 45.9859 761.26 46.5763C760.638 47.1666 759.987 47.5769 759.307 47.807C758.627 48.0371 757.955 48.0676 757.292 47.8985C756.628 47.7294 756.01 47.3412 755.438 46.7339ZM756.153 46.0558C756.576 46.5112 757.032 46.7922 757.52 46.8989C758.013 47.0057 758.514 46.9595 759.021 46.7601C759.531 46.5636 760.027 46.2366 760.509 45.7792C760.993 45.3192 761.346 44.8404 761.567 44.3429C761.791 43.8481 761.862 43.3519 761.781 42.8541C761.702 42.3592 761.451 41.884 761.027 41.4287C760.603 40.9734 760.148 40.6924 759.66 40.5857C759.175 40.4818 758.677 40.5281 758.167 40.7247C757.657 40.9212 757.158 41.2481 756.671 41.7053C756.186 42.1599 755.834 42.636 755.612 43.1335C755.391 43.631 755.319 44.1286 755.395 44.6262C755.476 45.124 755.729 45.6005 756.153 46.0558Z" fill="white"/>
<path d="M758.893 50.3092L765.452 45.1533L768.445 48.9907L767.635 49.6281L765.276 46.6038L763.212 48.2258L765.144 50.7018L764.333 51.3391L762.401 48.8631L759.527 51.1224L758.893 50.3092Z" fill="white"/>
<path d="M763.783 56.7708L772.349 54.8025L773.095 56.0306L767.429 62.7727L766.872 61.8566L772.118 55.5825L772.287 55.8598L764.34 57.6869L763.783 56.7708ZM766.147 56.9004L766.972 56.3954L769.222 60.0995L768.396 60.6046L766.147 56.9004Z" fill="white"/>
<path d="M767.721 63.4602L775.078 59.5243L775.561 60.4352L768.205 64.371L767.721 63.4602Z" fill="white"/>
<path d="M771.051 67.7375L778.734 64.4863L779.134 65.4372L775.745 66.8709L777.446 70.9201L780.834 69.4864L781.233 70.4373L773.55 73.6885L773.15 72.7376L776.544 71.3017L774.844 67.2525L771.45 68.6884L771.051 67.7375Z" fill="white"/>
<path d="M774.874 78.074C774.616 77.2845 774.572 76.5571 774.74 75.8917C774.909 75.2262 775.256 74.6465 775.782 74.1524C776.308 73.662 776.979 73.2829 777.793 73.0149C778.608 72.747 779.372 72.6542 780.085 72.7367C780.8 72.8228 781.422 73.0839 781.95 73.52C782.479 73.9561 782.872 74.5689 783.129 75.3584C783.388 76.1515 783.433 76.8808 783.265 77.5462C783.096 78.2117 782.748 78.7896 782.221 79.28C781.695 79.7703 781.024 80.1495 780.21 80.4174C779.395 80.6854 778.631 80.7781 777.918 80.6957C777.204 80.6133 776.583 80.354 776.055 79.9179C775.526 79.4817 775.133 78.8671 774.874 78.074ZM775.809 77.7662C775.999 78.3586 776.291 78.8072 776.687 79.112C777.088 79.4192 777.561 79.5911 778.105 79.6276C778.651 79.6678 779.239 79.5841 779.87 79.3765C780.505 79.1677 781.028 78.8857 781.44 78.5305C781.854 78.179 782.13 77.7609 782.268 77.2762C782.408 76.7952 782.383 76.2585 782.194 75.6661C782.004 75.0738 781.712 74.6252 781.316 74.3204C780.921 74.0193 780.45 73.8486 779.905 73.8085C779.36 73.7683 778.769 73.8508 778.133 74.0559C777.501 74.2598 776.978 74.5394 776.566 74.8946C776.154 75.2498 775.876 75.6684 775.733 76.1507C775.595 76.6353 775.62 77.1738 775.809 77.7662Z" fill="white"/>
</svg>
