<svg width="2202" height="1973" viewBox="0 0 2202 1973" fill="none" xmlns="http://www.w3.org/2000/svg">
<g filter="url(#filter0_f_3993_7010)">
<path fill-rule="evenodd" clip-rule="evenodd" d="M1080.67 347.24C864.166 292.166 603.957 256.989 438.868 407.655C271.24 560.637 295.959 823.619 310.342 1050.26C323.553 1258.44 346.514 1494.16 515.556 1616.08C674.472 1730.7 884.821 1603.91 1080.67 1605.86C1280.56 1607.86 1492.14 1740.45 1657.14 1627.46C1835.2 1505.54 1935.03 1261.92 1892.08 1050.26C1852.41 854.839 1613.02 798.517 1462.42 668.029C1331.82 554.881 1248.05 389.819 1080.67 347.24Z" fill="url(#paint0_linear_3993_7010)"/>
</g>
<defs>
<filter id="filter0_f_3993_7010" x="0" y="0" width="2202" height="1973" filterUnits="userSpaceOnUse" color-interpolation-filters="sRGB">
<feFlood flood-opacity="0" result="BackgroundImageFix"/>
<feBlend mode="normal" in="SourceGraphic" in2="BackgroundImageFix" result="shape"/>
<feGaussianBlur stdDeviation="150" result="effect1_foregroundBlur_3993_7010"/>
</filter>
<linearGradient id="paint0_linear_3993_7010" x1="1902" y1="300" x2="47.2475" y2="936.611" gradientUnits="userSpaceOnUse">
<stop stop-color="#44FC8E"/>
<stop offset="1" stop-color="#4916DD"/>
</linearGradient>
</defs>
</svg>
