<svg width="110" height="110" viewBox="0 0 110 110" fill="none" xmlns="http://www.w3.org/2000/svg">
<g clip-path="url(#clip0_3214_43657)">
<path fill-rule="evenodd" clip-rule="evenodd" d="M68.5777 17.1816H17.1953V92.8113H92.8255V17.1816H68.5735H68.5777ZM88.2411 42.6562V67.3339L90.5332 67.9506V90.5191H67.9637L67.3484 88.2269H42.671L42.0557 90.5191H19.4875V67.9479L21.7796 67.3339V42.6548L19.4875 42.0423V19.4738H42.057L42.6724 21.7646H67.3497L67.9651 19.4738H90.536V42.0451L88.2411 42.6562ZM28.6505 28.6384H33.2349V33.2228H28.6505V28.6384ZM40.1086 33.2228H35.5256V28.6384H40.1086V33.2228ZM42.4022 28.6384H46.9851V33.2228H42.4063V28.6384H42.4022ZM53.8602 33.2228H49.28V28.6384H53.8643V33.2228H53.8602ZM60.7353 33.2228H56.1523V28.6384H60.7408V33.2228H60.7353ZM67.6103 33.2228H63.0274V28.6384H67.6103V33.2228ZM69.9025 28.6384H74.4868V33.2228H69.9025V28.6384ZM76.7776 28.6384H81.3619V33.2228H76.7776V28.6384ZM28.6505 35.5164H33.2349V40.0993H28.6505V35.5164ZM40.1086 40.0993H35.5256V35.5164H40.1086V40.0993ZM42.4022 35.5164H46.9851V40.0993H42.4063V35.5164H42.4022ZM53.8602 40.0993H49.28V35.5164H53.8643V40.0993H53.8602ZM60.7353 40.0993H56.1523V35.5164H60.7408V40.0993H60.7353ZM67.6103 40.0993H63.0274V35.5164H67.6103V40.0993ZM69.9025 35.5164H74.4868V40.0993H69.9025V35.5164ZM76.7776 35.5164H81.3619V40.0993H76.7776V35.5164ZM28.6505 42.3915H33.2349V46.9745H28.6505V42.3915ZM76.7776 42.3915H81.3619V46.9745H76.7776V42.3915ZM28.6505 49.2667H33.2349V53.8497H28.6505V49.2667ZM76.7776 49.2667H81.3619V53.8497H76.7776V49.2667ZM28.6547 56.1419H33.2391V60.7249H28.6547V56.1419ZM76.7817 56.1419H81.366V60.7249H76.7817V56.1419ZM28.6547 63.017H33.2391V67.6014H28.6547V63.017ZM76.7817 63.017H81.366V67.6014H76.7817V63.017ZM28.6547 69.8922H33.2391V74.4752H28.6547V69.8922ZM35.5298 69.8922H40.1127V74.4752H35.5298V69.8922ZM42.4063 69.8922H46.9892V74.4752H42.4063V69.8922ZM49.28 69.8922H53.8643V74.4752H49.28V69.8922ZM56.1565 69.8922H60.7408V74.4752H56.1578V69.8922H56.1565ZM63.0316 69.8922H67.6145V74.4752H63.0316V69.8922ZM69.9066 69.8922H74.4909V74.4752H69.9066V69.8922ZM76.7817 69.8922H81.366V74.4752H76.7817V69.8922ZM28.6547 76.7674H33.2391V81.3518H28.6547V76.7674ZM35.5298 76.7674H40.1127V81.3518H35.5298V76.7674ZM42.4063 76.7674H46.9892V81.3518H42.4063V76.7674ZM49.28 76.7674H53.8643V81.3518H49.28V76.7674ZM56.1565 76.7674H60.7408V81.3518H56.1578V76.7674H56.1565ZM63.0316 76.7674H67.6145V81.3518H63.0316V76.7674ZM69.9066 76.7674H74.4909V81.3518H69.9066V76.7674ZM76.7817 76.7674H81.366V81.3518H76.7817V76.7674ZM45.4621 61.1753C44.3539 62.2957 42.8494 62.9353 41.2736 62.9558C39.6979 62.9762 38.1773 62.376 37.0404 61.2847C35.5007 59.7464 35.516 58.0086 35.516 54.9958C35.516 51.983 35.4938 50.2465 37.0404 48.7068C37.5758 48.1631 38.2167 47.7344 38.9238 47.4473C39.6309 47.1601 40.3891 47.0205 41.1521 47.0369C42.5391 46.9792 43.8966 47.4479 44.9526 48.3489C46.0086 49.25 46.6851 50.5169 46.8465 51.8956H44.4573C44.3416 51.114 43.9405 50.4029 43.3314 49.8995C42.7223 49.3962 41.9485 49.1362 41.159 49.1697C40.7283 49.1647 40.3011 49.2482 39.904 49.4151C39.5068 49.5819 39.1482 49.8286 38.8503 50.1398C38.0812 50.9713 37.9037 51.8568 37.9037 54.9999C37.9037 58.143 38.0812 59.0466 38.8503 59.8823C39.1499 60.1894 39.5094 60.4318 39.9066 60.5944C40.3037 60.757 40.73 60.8363 41.159 60.8274C41.6384 60.8395 42.1147 60.7474 42.5549 60.5574C42.9952 60.3674 43.3889 60.0841 43.709 59.7271C44.2745 59.0362 44.5572 58.1568 44.5003 57.2658V56.3858H41.159V54.3638H46.8825V56.7586C46.9591 57.5522 46.8734 58.3531 46.6303 59.1124C46.3873 59.8718 45.9922 60.5736 45.469 61.1753H45.4621ZM55.8558 47.1685H49.9313V62.8286H52.3053V56.6685H55.8682C56.5125 56.7011 57.1566 56.6024 57.7615 56.3782C58.3664 56.1541 58.9194 55.8092 59.3868 55.3646C59.8542 54.92 60.2263 54.385 60.4804 53.792C60.7345 53.1991 60.8655 52.5607 60.8651 51.9156C60.8647 51.2705 60.7331 50.6322 60.4783 50.0396C60.2235 49.447 59.8507 48.9123 59.3828 48.4683C58.9148 48.0242 58.3614 47.68 57.7563 47.4566C57.1511 47.2331 56.5069 47.1351 55.8627 47.1685H55.8558ZM55.7171 54.5135H52.2873V49.3027H55.7171C56.0735 49.2786 56.431 49.3279 56.7676 49.4475C57.1041 49.5671 57.4126 49.7545 57.6738 49.9981C57.9351 50.2417 58.1436 50.5363 58.2864 50.8637C58.4292 51.1911 58.5033 51.5443 58.5042 51.9015C58.505 52.2586 58.4326 52.6122 58.2914 52.9403C58.1501 53.2683 57.943 53.5639 57.683 53.8088C57.4229 54.0536 57.1153 54.2425 56.7793 54.3637C56.4434 54.4849 56.0861 54.5359 55.7297 54.5135H55.7171ZM72.1032 47.1685H74.4785V57.5471C74.4226 58.9998 73.8062 60.3743 72.7587 61.3823C71.7112 62.3902 70.314 62.9533 68.8603 62.9533C67.4066 62.9533 66.0094 62.3902 64.9619 61.3823C63.9144 60.3743 63.2981 58.9998 63.2422 57.5471V47.1685H65.6161V57.4376C65.5958 57.8762 65.6647 58.3143 65.8186 58.7255C65.9725 59.1367 66.2081 59.5124 66.5113 59.8299C66.8144 60.1475 67.1789 60.4002 67.5825 60.5729C67.9862 60.7456 68.4206 60.8346 68.8597 60.8346C69.2987 60.8346 69.7332 60.7456 70.1368 60.5729C70.5404 60.4002 70.9049 60.1475 71.208 59.8299C71.5112 59.5124 71.7469 59.1367 71.9007 58.7255C72.0546 58.3143 72.1235 57.8762 72.1032 57.4376V47.1685Z" fill="white"/>
</g>
<defs>
<clipPath id="clip0_3214_43657">
<rect width="110" height="110" fill="white"/>
</clipPath>
</defs>
</svg>
