<svg width="110" height="110" viewBox="0 0 110 110" fill="none" xmlns="http://www.w3.org/2000/svg">
<g clip-path="url(#clip0_3214_43651)">
<path fill-rule="evenodd" clip-rule="evenodd" d="M55.015 49.2608C50.2647 49.2679 45.6233 50.6852 41.6771 53.3336C37.7308 55.9819 34.657 59.7425 32.844 64.14C31.031 68.5375 30.5603 73.3746 31.4913 78.04C32.4222 82.7054 34.7132 86.9897 38.0746 90.3514C41.4359 93.7132 45.7168 96.0015 50.3762 96.9272C55.0357 97.8529 59.8645 97.3745 64.2526 95.5524C68.6406 93.7302 72.3908 90.6462 75.0294 86.69C77.6679 82.7338 79.0763 78.083 79.0766 73.3253C79.062 66.9415 76.5212 60.8239 72.0109 56.3131C67.5007 51.8023 61.3888 49.2662 55.015 49.2608ZM55.015 51.5529C59.9756 51.5496 64.787 53.2526 68.644 56.3769C69.2078 57.4647 69.6755 58.5998 70.0415 59.7694L73.6113 62.0712C74.1694 62.9653 74.6595 63.9001 75.0779 64.8677L70.5535 61.9575C70.7464 62.9418 70.8757 63.9375 70.9408 64.9384L76.171 68.3129C76.3402 69.0082 76.4742 69.7118 76.5723 70.4207L71.0377 66.8508C71.0179 67.7207 70.9485 68.5887 70.8301 69.4506L76.7799 73.2852V73.3309C76.7799 73.9226 76.7383 74.5047 76.6968 75.0881L70.5673 71.1372C70.403 71.9237 70.195 72.7005 69.9446 73.4639L76.3509 77.595C76.254 78.1382 76.1018 78.6676 75.9634 79.1956L69.4049 74.9661C69.1179 75.6834 68.7947 76.3855 68.4364 77.0698L75.2025 81.4351C75.0088 81.9257 74.7873 82.4052 74.5521 82.8708L67.6477 78.4223C67.2464 79.0737 66.8176 79.7042 66.361 80.314L73.4314 84.8774C73.1547 85.3195 72.8641 85.7477 72.5597 86.1663L65.3648 81.5321C64.8522 82.1202 64.307 82.6791 63.732 83.2062L71.0929 87.9539C70.7332 88.3461 70.3735 88.7272 69.9861 89.0931L62.5282 84.2802C61.886 84.7949 61.2163 85.2741 60.522 85.7159L68.1596 90.6438C67.7168 90.9819 67.2603 91.309 66.7898 91.6139L59.0414 86.625C58.2378 87.0484 57.4109 87.426 56.5646 87.7558L64.5206 92.8833C63.9618 93.1622 63.3891 93.4124 62.8049 93.633L54.7106 88.4057C53.6723 88.7123 52.6135 88.9439 51.5422 89.0986L59.9547 94.5213C59.2102 94.6947 58.4575 94.8302 57.6993 94.9273L49.0238 89.3356C48.7333 89.3467 48.4427 89.38 48.1383 89.38C46.8672 89.3718 45.599 89.2568 44.3471 89.0363L53.6452 95.041C52.3815 94.966 51.1269 94.7805 49.8955 94.4867L38.9785 87.437C38.6741 87.2985 38.3835 87.1599 38.0791 87.0102C35.4872 83.8146 33.8544 79.9476 33.3705 75.8591C32.8865 71.7706 33.5713 67.6284 35.3453 63.9143C37.1193 60.2003 39.9096 57.0669 43.3916 54.8787C46.8736 52.6904 50.9042 51.5371 55.015 51.5529ZM97.8805 20.6133L87.1018 9.82617L78.6062 18.3226L80.5849 20.2987L75.9911 22.5909L85.1232 31.715L87.4062 27.1308L89.3849 29.1069L97.8805 20.6133ZM87.1018 13.0662L94.6427 20.6133L89.3849 25.8669L81.8439 18.3226L87.1018 13.0662ZM84.4867 27.8459L79.8654 23.2186L82.2868 22.0074L85.7043 25.4235L84.4867 27.8459ZM72.1999 28.6358H79.0766V35.5108H76.7799V32.5493L61.9609 47.3774L32.766 23.0565L34.2327 21.2951L61.8087 44.2788L75.161 30.9307H72.1999V28.6399V28.6358ZM72.1999 40.0922H79.0766V46.9686H76.7799V44.0044L71.0516 49.7347L69.4326 48.1147L75.161 42.3844H72.1999V40.0922ZM20.6313 10.2973C18.8107 10.2863 17.041 10.8984 15.6151 12.0322C14.1892 13.1661 13.1929 14.7538 12.7909 16.5323C12.3889 18.3108 12.6055 20.1734 13.4049 21.8118C14.2042 23.4501 15.5382 24.7659 17.1861 25.5412V30.9293H19.483V32.0753H21.7799V30.9293H24.0628V25.5412C25.7118 24.7684 27.0478 23.4544 27.849 21.817C28.6503 20.1796 28.8687 18.3171 28.4682 16.5383C28.0678 14.7594 27.0722 13.1711 25.6469 12.0365C24.2216 10.902 22.452 10.2893 20.6313 10.3001V10.2973ZM21.7799 26.3381V28.633H19.483V26.3409H21.7799V26.3381ZM22.6791 23.651L24.4641 20.0978L22.4025 19.0723L20.6313 22.6338L18.8466 19.0723L16.7986 20.0978L18.5836 23.651C17.3337 23.1709 16.2914 22.2675 15.6372 21.0978C14.9831 19.928 14.7586 18.5658 15.0028 17.2476C15.2471 15.9294 15.9445 14.7385 16.9741 13.8816C18.0037 13.0248 19.3003 12.5561 20.6389 12.557C21.9776 12.5579 23.2735 13.0283 24.3019 13.8866C25.3303 14.7448 26.0262 15.9367 26.2686 17.2552C26.5111 18.5737 26.2847 19.9357 25.629 21.1045C24.9733 22.2734 23.9296 23.1753 22.6791 23.6538V23.651Z" fill="white"/>
</g>
<defs>
<clipPath id="clip0_3214_43651">
<rect width="110" height="110" fill="white"/>
</clipPath>
</defs>
</svg>
