<svg width="110" height="110" viewBox="0 0 110 110" fill="none" xmlns="http://www.w3.org/2000/svg">
<g clip-path="url(#clip0_3214_43645)">
<path fill-rule="evenodd" clip-rule="evenodd" d="M56.1612 67.5943H58.4618V92.8036H17.2031V51.5536H42.413V53.8443H19.4899V90.5114H56.1612V67.5943ZM19.4899 40.0929H17.2031V46.9693H19.4899V40.0929ZM19.4899 28.6364H17.2031V35.5114H19.4899V28.6364ZM63.0354 92.7994H69.9095V90.5073H63.0354V92.7994ZM74.4968 92.7994H81.371V90.5073H74.4968V92.7994ZM19.4899 19.4679H24.0774V17.1758H17.2031V24.0508H19.4899V19.4679ZM90.5458 69.8864H92.8326V63.0114H90.5458V69.8864ZM90.5458 81.3471H92.8326V74.4707H90.5458V81.3471ZM90.5458 46.9693H92.8326V40.0929H90.5458V46.9693ZM90.5458 58.4286H92.8326V51.5536H90.5458V58.4286ZM47.0003 17.1758H40.1262V19.4679H47.0003V17.1758ZM35.5387 17.1758H28.6647V19.4679H35.5387V17.1758ZM63.0354 19.4679H69.9095V17.1758H63.0354V19.4679ZM58.4618 17.1758H51.5739V19.4679H58.4618V17.1758ZM90.5458 90.5114H85.9583V92.8036H92.8326V85.9299H90.5458V90.5114ZM90.5458 35.5114H92.8326V28.6364H90.5458V35.5114ZM74.4968 19.4679H81.371V17.1758H74.4968V19.4679ZM85.9583 17.1758V19.4679H90.5458V24.0508H92.8326V17.1758H85.9583ZM49.2871 42.3892H66.0013L44.2285 64.1616L45.85 65.7817L67.6227 44.0092V60.7221H69.9095V40.0929H49.2871V42.3892Z" fill="white"/>
</g>
<defs>
<clipPath id="clip0_3214_43645">
<rect width="110" height="110" fill="white"/>
</clipPath>
</defs>
</svg>
