<svg width="110" height="110" viewBox="0 0 110 110" fill="none" xmlns="http://www.w3.org/2000/svg">
<g clip-path="url(#clip0_3214_43639)">
<path fill-rule="evenodd" clip-rule="evenodd" d="M96.7364 24.681L88.5742 23.0471L90.847 20.7758L89.2255 19.1544L87.0085 21.3717L85.4008 13.334L73.844 24.8861C66.4447 20.2498 57.5983 18.4982 48.9907 19.9652C40.3831 21.4322 32.616 26.0152 27.17 32.8407C21.724 39.6663 18.9798 48.2571 19.4601 56.976C19.9405 65.695 23.6121 73.9323 29.775 80.1181C35.938 86.304 44.1613 90.0059 52.8779 90.5182C61.5946 91.0306 70.1949 88.3177 77.0401 82.8964C83.8852 77.4752 88.4964 69.7247 89.9948 61.1221C91.4933 52.5195 89.7743 43.6663 85.1654 36.2497L96.7364 24.681ZM85.3454 24.7378L92.0941 26.089L82.6987 35.4861L75.9503 34.135L74.6198 27.5011L74.8972 27.0729L83.9874 17.9861L85.3454 24.7378ZM88.2417 54.99C88.2512 62.345 85.8236 69.4959 81.3384 75.3249C76.8531 81.1539 70.563 85.3324 63.4513 87.2072C56.3396 89.0821 48.8073 88.5476 42.0315 85.6874C35.2558 82.8271 29.6185 77.8023 26.0011 71.3984C22.3838 64.9945 20.9899 57.5725 22.0378 50.2925C23.0856 43.0125 26.5162 36.2849 31.7928 31.1613C37.0693 26.0377 43.8946 22.8069 51.2019 21.9739C58.5092 21.1409 65.8866 22.7527 72.1808 26.5574L72.1118 26.6294L73.7192 34.6671L71.1693 37.2101C66.5066 32.9705 60.3707 30.7228 54.0728 30.9474C47.775 31.1719 41.8149 33.8509 37.466 38.4118C33.117 42.9727 30.7243 49.0537 30.7991 55.3554C30.874 61.6571 33.4105 67.6796 37.8665 72.1359C42.3226 76.5922 48.3449 79.1288 54.6463 79.2036C60.9477 79.2785 67.0285 76.8857 71.5891 72.5365C76.1498 68.1874 78.8285 62.2268 79.053 55.9287C79.2776 49.6306 77.0302 43.4944 72.7908 38.8315L75.2849 36.337L83.4471 37.9681L83.5026 37.9182C86.6048 43.0722 88.2431 48.9744 88.2417 54.99ZM55.4829 56.1361L63.0352 48.589C64.5074 50.398 65.3144 52.6575 65.3215 54.99C65.3209 57.0291 64.7158 59.0223 63.5826 60.7174C62.4494 62.4126 60.839 63.7337 58.9551 64.5136C57.0711 65.2936 54.9984 65.4974 52.9987 65.0992C50.999 64.7011 49.1622 63.7189 47.7206 62.2768C46.279 60.8348 45.2973 58.9977 44.8998 56.9977C44.5022 54.9977 44.7063 52.9248 45.4867 51.041C46.2672 49.1572 47.5886 47.5471 49.284 46.4143C50.9794 45.2815 52.9727 44.6768 55.0117 44.6768C57.3449 44.6869 59.6042 45.4958 61.4136 46.969L53.8614 54.5161V56.1361H55.4829ZM63.0768 45.3088C60.5804 43.2295 57.3783 42.1928 54.1371 42.4142C50.8959 42.6356 47.8649 44.0982 45.6745 46.4976C43.4841 48.8969 42.3031 52.0485 42.3769 55.2966C42.4508 58.5447 43.7738 61.6393 46.071 63.9366C48.3682 66.234 51.4626 67.5572 54.7106 67.6311C57.9585 67.7049 61.1099 66.5237 63.5091 64.3332C65.9084 62.1426 67.3709 59.1114 67.5923 55.87C67.8137 52.6286 66.7771 49.4266 64.698 46.9302L71.1693 40.4515C74.9871 44.6885 76.9995 50.2489 76.7779 55.9481C76.5562 61.6472 74.1181 67.0345 69.9828 70.9622C65.8475 74.8899 60.3419 77.0474 54.6392 76.9751C48.9365 76.9029 43.4874 74.6065 39.4529 70.5753C35.4184 66.544 33.1176 61.0967 33.0405 55.3937C32.9633 49.6908 35.1159 44.1832 39.0398 40.0443C42.9637 35.9054 48.3488 33.4624 54.0475 33.2359C59.7461 33.0093 65.308 35.0171 69.5481 38.8315L63.0768 45.3088Z" fill="white"/>
</g>
<defs>
<clipPath id="clip0_3214_43639">
<rect width="110" height="110" fill="white"/>
</clipPath>
</defs>
</svg>
