<svg width="110" height="110" viewBox="0 0 110 110" fill="none" xmlns="http://www.w3.org/2000/svg">
<g clip-path="url(#clip0_3214_43627)">
<path fill-rule="evenodd" clip-rule="evenodd" d="M55.003 17.1864C47.5244 17.1864 40.2135 19.4041 33.9953 23.5589C27.777 27.7138 22.931 33.6193 20.069 40.5287C17.2071 47.438 16.4582 55.0408 17.9172 62.3757C19.3762 69.7107 22.9777 76.4482 28.2658 81.7363C33.554 87.0245 40.2912 90.6258 47.6261 92.0848C54.961 93.5438 62.5637 92.795 69.473 89.9331C76.3824 87.0711 82.2883 82.2246 86.4432 76.0064C90.5981 69.7881 92.8155 62.4775 92.8155 54.9989C92.8041 44.9739 88.8163 35.3627 81.7275 28.274C74.6388 21.1852 65.028 17.1978 55.003 17.1864ZM55.003 90.5203C47.9777 90.5193 41.1109 88.4351 35.2701 84.5313C29.4293 80.6276 24.8767 75.0795 22.1889 68.5887C19.5012 62.098 18.7986 54.956 20.1697 48.0658C21.5409 41.1757 24.9243 34.8469 29.8923 29.8796C34.8602 24.9124 41.1898 21.5298 48.0801 20.1596C54.9705 18.7894 62.1124 19.4932 68.6027 22.1819C75.0931 24.8705 80.6402 29.4234 84.5431 35.2648C88.4461 41.1061 90.5294 47.9736 90.5294 54.9989C90.5189 64.4174 86.7724 73.4472 80.112 80.1066C73.4516 86.766 64.4215 90.5112 55.003 90.5203ZM84.9779 25.0187C78.0429 18.0909 68.9204 13.7817 59.1647 12.8253C49.409 11.8689 39.6234 14.3243 31.4751 19.7733C23.3267 25.2223 17.3198 33.3279 14.4772 42.7091C11.6346 52.0904 12.1321 62.167 15.8855 71.2224C19.6388 80.2778 26.4162 87.7518 35.0619 92.3712C43.7077 96.9905 53.6874 98.4696 63.3013 96.5563C72.9152 94.6429 81.5684 89.4556 87.7868 81.8781C94.0052 74.3005 97.404 64.8013 97.4044 54.9989C97.4191 49.4281 96.3282 43.9098 94.1952 38.7636C92.0621 33.6174 88.9293 28.9455 84.9779 25.0187ZM83.3623 83.3583C76.801 89.9254 68.1654 94.0141 58.9272 94.9277C49.689 95.8412 40.42 93.523 32.6995 88.3681C24.979 83.2132 19.2844 75.5406 16.5871 66.6578C13.8897 57.7751 14.3566 48.2318 17.9072 39.6544C21.4577 31.0769 27.8726 23.9961 36.0589 19.6185C44.2453 15.2409 53.696 13.8374 62.8011 15.6473C71.9062 17.4572 80.1019 22.3684 85.9917 29.544C91.8815 36.7196 95.1013 45.7156 95.1015 54.9989C95.116 60.2671 94.086 65.486 92.0711 70.3538C90.0561 75.2215 87.096 79.6415 83.3623 83.3583Z" fill="white"/>
<path fill-rule="evenodd" clip-rule="evenodd" d="M54.9154 83.6459C54.6692 83.6444 54.4256 83.5892 54.2029 83.4841C53.9803 83.379 53.784 83.2266 53.6264 83.0374L35.906 62.0172C35.7149 61.8105 35.5884 61.5523 35.5426 61.2746C35.4967 60.9969 35.5337 60.7119 35.6483 60.4548C35.7748 60.2015 35.9716 59.9902 36.2156 59.8466C36.4596 59.7029 36.7401 59.633 37.023 59.6453H44.7053V55.4704C44.7099 54.996 44.9032 54.5428 45.2416 54.2103C45.5799 53.8777 46.0361 53.693 46.5105 53.6967H50.7554V49.6817C50.7585 49.2099 50.9483 48.7584 51.2832 48.4261C51.6182 48.0937 52.0711 47.9074 52.5429 47.9079H56.7886V43.8929C56.7931 43.4185 56.9857 42.9653 57.324 42.6328C57.6624 42.3002 58.1186 42.1155 58.593 42.1192H63.3195C63.7914 42.1187 64.2443 42.305 64.5792 42.6374C64.9141 42.9697 65.1039 43.4211 65.1071 43.8929V59.6401H72.9791C73.2623 59.6282 73.5432 59.6986 73.7873 59.8429C74.0313 59.9872 74.2277 60.1991 74.3538 60.4531C74.4696 60.7111 74.506 60.9979 74.457 61.2765C74.408 61.555 74.2763 61.8125 74.0793 62.0154L56.2045 83.0358C56.0474 83.2257 55.8498 83.3787 55.6271 83.4841C55.4044 83.5896 55.1619 83.6448 54.9154 83.6459ZM38.845 61.9364L54.9154 81.0145L71.1571 61.9364H64.6262C64.1518 61.94 63.6948 61.7553 63.3564 61.4228C63.0181 61.0902 62.8256 60.637 62.821 60.1626V44.4102H59.0747V48.4252C59.0701 48.8996 58.8776 49.3529 58.5392 49.6854C58.2009 50.018 57.7439 50.2027 57.2695 50.199H53.0414V54.214C53.0369 54.6884 52.8443 55.1416 52.506 55.4742C52.1676 55.8067 51.7115 55.9915 51.2371 55.9878H47.009V60.1557C47.0045 60.6301 46.8119 61.0833 46.4736 61.4159C46.1352 61.7484 45.6782 61.9332 45.2038 61.9295H38.845V61.9364Z" fill="white"/>
<path fill-rule="evenodd" clip-rule="evenodd" d="M50.0314 49.672H46.5083C46.0339 49.6756 45.5777 49.4909 45.2394 49.1584C44.901 48.8258 44.7077 48.3726 44.7031 47.8983V44.5157C44.7077 44.0412 44.9003 43.5878 45.2386 43.255C45.5769 42.9222 46.0338 42.7371 46.5083 42.7403H50.0314C50.506 42.7371 50.9629 42.9222 51.3012 43.255C51.6395 43.5878 51.8321 44.0412 51.8366 44.5157V47.8897C51.8355 48.1253 51.7878 48.3584 51.6965 48.5756C51.6051 48.7928 51.4713 48.9898 51.3037 49.1554C51.136 49.3209 50.9379 49.4518 50.7196 49.5404C50.5013 49.6291 50.267 49.6738 50.0314 49.672ZM47.0068 47.3809H49.5329V45.0417H47.0068V47.3809Z" fill="white"/>
<path fill-rule="evenodd" clip-rule="evenodd" d="M56.0615 43.693H52.5376C52.0656 43.693 51.6128 43.5063 51.2779 43.1737C50.943 42.8411 50.7532 42.3895 50.75 41.9175V38.5453C50.7532 38.0735 50.943 37.6221 51.2779 37.2897C51.6128 36.9574 52.0657 36.7711 52.5376 36.7715H56.0615C56.5359 36.7679 56.9921 36.9526 57.3304 37.2851C57.6688 37.6177 57.8613 38.0709 57.8659 38.5453V41.9175C57.8618 42.3922 57.6697 42.8459 57.3313 43.1788C56.9929 43.5117 56.5362 43.6966 56.0615 43.693ZM53.0361 41.4002H55.5798V39.0626H53.0361V41.4002Z" fill="white"/>
<path fill-rule="evenodd" clip-rule="evenodd" d="M62.0997 39.0638H58.5934C58.119 39.0674 57.6628 38.8827 57.3245 38.5502C56.9861 38.2176 56.7936 37.7644 56.7891 37.2901V33.9161C56.7931 33.4414 56.9853 32.9878 57.3237 32.6549C57.6621 32.3219 58.1187 32.137 58.5934 32.1407H62.0997C62.5744 32.137 63.0311 32.3219 63.3695 32.6549C63.7079 32.9878 63.9008 33.4414 63.9049 33.9161V37.2969C63.8986 37.7701 63.7051 38.2216 63.367 38.5526C63.0288 38.8837 62.573 39.0675 62.0997 39.0638ZM59.0751 36.7727H61.6189V34.4335H59.0751V36.7813V36.7727Z" fill="white"/>
<path fill-rule="evenodd" clip-rule="evenodd" d="M56.0615 33.2786H52.5376C52.0657 33.2791 51.6128 33.0928 51.2779 32.7604C50.943 32.4281 50.7532 31.9767 50.75 31.5049V28.131C50.7532 27.659 50.943 27.2074 51.2779 26.8748C51.6128 26.5422 52.0656 26.3555 52.5376 26.3555H56.0615C56.5361 26.3523 56.9921 26.5374 57.3304 26.8702C57.6687 27.203 57.8613 27.6564 57.8659 28.131V31.5049C57.8613 31.9793 57.6688 32.4324 57.3304 32.765C56.9921 33.0975 56.5359 33.2823 56.0615 33.2786ZM53.0361 30.9876H55.5798V28.6483H53.0361V30.9876Z" fill="white"/>
</g>
<defs>
<clipPath id="clip0_3214_43627">
<rect width="110" height="110" fill="white"/>
</clipPath>
</defs>
</svg>
