<svg width="110" height="110" viewBox="0 0 110 110" fill="none" xmlns="http://www.w3.org/2000/svg">
<g clip-path="url(#clip0_3214_43621)">
<path fill-rule="evenodd" clip-rule="evenodd" d="M90.5069 40.5659H89.6633L73.6329 31.2969H64.4627L48.4324 22.0307H39.2622L23.2317 12.7617H12.6094V98.4904H23.2317L39.2622 89.2214H48.4324L64.4627 79.9539H73.6329L89.6633 70.6863H99.6771V40.5659H90.5069ZM88.2248 52.1511V63.9879L84.601 55.624L88.2248 47.2643V52.1511ZM24.0617 77.6362V24.6361L30.7698 55.624L24.0617 86.6147V77.6362ZM63.0104 70.6849L58.6674 55.6226L63.0104 40.5645V70.6849ZM65.3064 49.8307V42.8793H72.1805V49.8307H65.3064ZM72.1805 52.1497V59.1011H65.3064V52.1497H72.1805ZM65.3064 61.4159H72.1805V68.3673H65.3064V61.4159ZM74.4766 68.3673V37.9953L82.0976 55.624L74.4766 73.2569V68.3673ZM75.7629 35.198L87.9067 42.2134L83.3563 52.735L75.7629 35.198ZM72.1805 40.5659H65.3064V33.6145H72.1805V40.5659ZM57.4779 51.4893L50.0228 25.6162L62.8029 33.0097L57.4779 51.4893ZM40.1059 59.1011V52.1497H46.98V59.1011H40.1059ZM46.98 61.4173V68.3687H40.1059V61.4173H46.98ZM40.1059 49.8321V42.8807H46.98V49.8321H40.1059ZM40.1059 40.5659V33.6145H46.98V40.5659H40.1059ZM37.8099 40.5659V77.3457L33.1211 55.624L37.8099 33.9051V40.5659ZM40.1059 70.6863H46.98V77.6376H40.1059V70.6863ZM49.2761 77.6376V31.2997L56.2884 55.6296L49.2761 79.9594V77.6418V77.6376ZM46.98 31.2969H40.1059V24.3455H46.98V31.2969ZM31.9454 50.2047L24.5873 16.2207L37.6578 23.7727L31.9454 50.2047ZM31.9454 61.0488L37.6578 87.4794L24.5873 95.03L31.9454 61.0488ZM40.1059 79.9566H46.98V86.908H40.1059V79.9566ZM57.4779 59.767L62.8029 78.2438L50.0228 85.6387L57.4779 59.767ZM65.3064 70.6891H72.1805V77.6404H65.3064V70.6891ZM83.3563 58.5199L87.9067 69.0416L75.7629 76.0541L83.3563 58.5199ZM14.9054 15.0807H21.7795V22.0321H14.9054V15.0807ZM14.9054 24.3483H21.7795V31.2997H14.9054V24.3483ZM14.9054 33.6173H21.7795V40.5687H14.9054V33.6173ZM14.9054 42.8835H21.7795V49.8349H14.9054V42.8835ZM14.9054 52.1539H21.7795V59.1053H14.9054V52.1539ZM14.9054 61.4201H21.7795V68.3715H14.9054V61.4201ZM14.9054 70.6891H21.7795V77.6404H14.9054V70.6891ZM14.9054 79.9566H21.7795V86.908H14.9054V79.9566ZM14.9054 89.2242H21.7795V96.1756H14.9054V89.2242ZM97.381 68.3701H90.5069V61.4187H97.381V68.3701ZM97.381 59.1039H90.5069V52.1525H97.381V59.1039ZM90.5069 49.8349V42.8835H97.381V49.8349H90.5069Z" fill="white"/>
</g>
<defs>
<clipPath id="clip0_3214_43621">
<rect width="110" height="110" fill="white"/>
</clipPath>
</defs>
</svg>
