<svg width="110" height="110" viewBox="0 0 110 110" fill="none" xmlns="http://www.w3.org/2000/svg">
<g clip-path="url(#clip0_3214_43615)">
<path fill-rule="evenodd" clip-rule="evenodd" d="M97.4134 76.7858V24.0703H12.6094V76.7816H46.6335L44.8041 83.6567H37.8191V85.9489H72.2037V83.6609H65.2186L63.3754 76.7858H97.4134ZM14.9099 26.3666H95.1266V74.495H14.9099V26.3666ZM62.8488 83.6609H47.174L49.0174 76.7858H61.0054L62.8488 83.6609ZM17.1967 72.2028H92.8261V28.6588H17.1967V72.2028ZM19.4835 30.9496H90.5393V69.9093H19.4835V30.9496ZM55.0183 58.4527C57.5127 58.4527 59.951 57.713 62.025 56.3273C64.099 54.9416 65.7156 52.972 66.6702 50.6677C67.6247 48.3633 67.8745 45.8277 67.3878 43.3814C66.9012 40.9351 65.7 38.688 63.9362 36.9243C62.1724 35.1606 59.9251 33.9595 57.4787 33.4729C55.0322 32.9863 52.4965 33.2361 50.192 34.1906C47.8875 35.1451 45.9177 36.7615 44.5319 38.8354C43.1461 40.9092 42.4065 43.3474 42.4065 45.8416C42.4065 49.1863 43.7352 52.394 46.1004 54.759C48.4656 57.124 51.6734 58.4527 55.0183 58.4527ZM55.0183 35.5339C57.0578 35.5361 59.0508 36.1428 60.7455 37.2775C62.4402 38.4121 63.7605 40.0237 64.5394 41.9085C65.3183 43.7933 65.5208 45.8666 65.1215 47.8665C64.7222 49.8664 63.7389 51.703 62.2959 53.1442C60.8529 54.5854 59.015 55.5664 57.0145 55.9633C55.0139 56.3602 52.9406 56.1551 51.0566 55.374C49.1727 54.5929 47.5626 53.2708 46.4299 51.5748C45.2973 49.8788 44.6929 47.8852 44.6931 45.8458C44.6965 43.1098 45.7858 40.4869 47.7218 38.5534C49.6578 36.6199 52.2821 35.5339 55.0183 35.5339ZM35.5323 60.7435H81.3645V63.037H35.5323V65.3278H33.2457V63.037H28.6582V60.7435H33.2457V58.4527H35.5323V60.7435ZM51.5674 39.1246V52.5754L61.6569 45.85L51.5674 39.1246ZM53.8681 43.4082L57.5267 45.85L53.8681 48.2932V43.4082Z" fill="white"/>
</g>
<defs>
<clipPath id="clip0_3214_43615">
<rect width="110" height="110" fill="white"/>
</clipPath>
</defs>
</svg>
