<svg width="110" height="110" viewBox="0 0 110 110" fill="none" xmlns="http://www.w3.org/2000/svg">
<g clip-path="url(#clip0_3214_43609)">
<path fill-rule="evenodd" clip-rule="evenodd" d="M28.6398 46.9928V44.2711L90.5684 27.6744L88.1988 18.8203L28.6398 34.7781V34.7421L27.1847 35.1703L17.1797 37.8519V92.8304H92.8135V46.9928H28.6398ZM74.8266 53.8679L76.0459 49.2849H82.8501L81.6166 53.8679H74.8266ZM38.16 53.8679L39.3793 49.2849H46.1831L44.95 53.8665H38.16V53.8679ZM48.553 49.2849H55.343L54.1237 53.8679H47.3195L48.553 49.2849ZM57.7126 49.2849H64.5168L63.2833 53.8679H56.4933L57.7126 49.2849ZM66.8863 49.2849H73.6763L72.457 53.8679H65.6528L66.8863 49.2849ZM37.0097 49.2849L35.7901 53.8679H28.6398V49.2849H37.0097ZM70.3091 30.7329L63.7545 32.4915V27.7464L70.3091 25.9878V30.7329ZM72.6093 25.3725L79.1638 23.6139V28.359L72.6093 30.119V25.3725ZM61.454 33.1054L54.8995 34.8627V30.119L61.454 28.359V33.1054ZM52.5993 35.4793L46.0448 37.2366V32.4915L52.5993 30.7329V35.4793ZM43.7442 37.8519L37.1897 39.6091V34.8627L43.7442 33.1054V37.8519ZM87.7553 26.0557L81.4505 27.7464V23.0013L86.5776 21.6294L87.7553 26.0557ZM34.8895 35.4793V40.2244L28.6398 41.9013V37.1534L34.8895 35.4793ZM19.4802 45.8481V39.8322L26.3534 37.8062V53.8665H19.4802V45.8453V45.8481ZM90.5129 90.5382H19.4802V56.1614H90.5129V90.5368V90.5382ZM83.9861 53.8693L85.2196 49.2863H90.5129V53.8665H83.9861V53.8693ZM25.2032 63.0393H84.79V65.3301H25.2032V63.0393ZM25.2032 72.2051H84.79V74.4973H25.2032V72.2051ZM25.2032 81.371H84.79V83.6618H25.2032V81.3696V81.371Z" fill="white"/>
</g>
<defs>
<clipPath id="clip0_3214_43609">
<rect width="110" height="110" fill="white"/>
</clipPath>
</defs>
</svg>
