<svg width="1225" height="689" viewBox="0 0 1225 689" fill="none" xmlns="http://www.w3.org/2000/svg">
<path fill-rule="evenodd" clip-rule="evenodd" d="M856.497 1.49914C878.477 -3.37369 895.65 4.77911 903.524 9.61313C948.631 37.305 1000.43 85.3618 1052.28 141.935C1104.97 199.434 1160.77 269.112 1213.8 343.251C1233.08 370.204 1226.86 407.681 1199.91 426.959C1172.95 446.237 1135.48 440.016 1116.2 413.063C1065.45 342.118 1012.67 276.33 963.81 223.015C957.865 216.528 952.019 210.272 946.282 204.252C948.263 214.576 950.319 225.177 952.42 235.965C953.511 241.567 954.614 247.214 955.721 252.887C964.658 298.677 973.931 346.191 980.528 385.924C984.23 408.221 987.28 429.181 988.935 446.666C989.761 455.386 990.327 464.13 990.334 472.24C990.34 479.267 989.995 490.278 986.891 501.381C984.504 509.918 979.638 520.268 970.322 529.316C960.828 538.537 949.748 543.45 939.717 545.535C922.242 549.167 908.18 544.313 903.45 542.565C892.271 538.433 882.794 531.715 877.597 527.88C865.253 518.773 850.258 505.367 834.873 490.845C803.382 461.124 762.532 419.325 722.29 377.674C713.741 368.826 705.216 359.982 696.79 351.234C697.689 354.297 698.592 357.368 699.499 360.444C712.362 404.106 725.7 448.181 737.157 486.039C739.817 494.829 742.375 503.283 744.803 511.32C751.212 532.538 756.754 550.988 760.779 564.816C762.784 571.701 764.505 577.756 765.798 582.577L765.908 582.988C766.744 586.092 768.646 593.161 769.381 599.333C770.227 606.436 772.162 638.705 741.434 657.925C717.825 672.692 694.809 665.514 691.453 664.468C691.374 664.443 691.306 664.422 691.249 664.404C680.887 661.226 673.051 655.651 671.298 654.404C671.216 654.346 671.147 654.297 671.092 654.258C665.237 650.138 658.784 644.619 653.149 639.622C641.039 628.884 624.33 613.015 605.1 594.318C566.376 556.666 514.567 504.744 462.685 452.634C456.52 446.443 450.355 440.248 444.207 434.072C435.081 424.904 425.996 415.776 417.019 406.762C433.805 456.201 450.242 505.792 461.426 544.225C467.378 564.681 472.488 584.136 475.121 599.37C476.294 606.154 477.831 616.643 477.101 627.301C476.781 631.974 475.692 643.578 468.92 655.824C460.162 671.665 441.466 688.022 414.526 688.022C399.675 688.022 387.555 682.577 384.218 681.077C384.119 681.033 384.028 680.992 383.945 680.955C378.372 678.462 372.862 675.434 367.941 672.535C357.931 666.638 346.073 658.721 333.272 649.637C307.44 631.305 274.49 605.88 238.672 576.384C167.237 517.558 81.4728 440.137 15.4316 366.863C-6.75358 342.249 -4.78401 304.31 19.8307 282.125C44.4455 259.939 82.3843 261.909 104.569 286.524C165.213 353.809 246.103 427.052 314.955 483.751C315.587 484.271 316.218 484.79 316.847 485.307C311.168 468.27 305.203 450.641 299.147 432.87C293.619 416.649 288.011 400.295 282.507 384.244C270.018 347.826 258.064 312.968 248.802 284.765C242.165 264.557 236.476 246.466 232.862 233.034C231.174 226.76 229.298 219.195 228.312 212.214C227.942 209.589 226.898 202.037 227.945 193.192C228.411 189.248 229.951 178.424 237.234 167.022C246.584 152.384 264.485 139.011 288.322 139.011C303.098 139.011 314.028 144.597 316.035 145.622C316.11 145.661 316.173 145.693 316.223 145.718C319.969 147.602 322.919 149.539 324.579 150.671C328.06 153.045 331.281 155.629 333.696 157.632C338.781 161.852 344.879 167.348 351.385 173.393C364.603 185.676 382.27 202.814 402.528 222.779C438.326 258.062 483.548 303.494 529.264 349.424C535.415 355.604 541.576 361.793 547.723 367.968C561.545 381.85 575.3 395.657 588.758 409.139C587.298 404.212 585.841 399.282 584.39 394.357C568.438 340.212 552.934 285.771 542.718 244.644C537.694 224.42 533.496 205.637 531.336 191.201C530.365 184.714 529.179 175.252 529.68 165.873C529.882 162.081 530.579 151.398 536.096 139.826C539.126 133.473 545.023 123.858 555.996 116.007C568.018 107.405 582.148 103.806 595.681 104.686C610.794 105.669 621.937 112.167 624.418 113.614C624.502 113.663 624.576 113.707 624.64 113.744C628.967 116.246 632.706 118.957 635.391 121.007C640.917 125.226 646.845 130.409 652.539 135.617C664.161 146.247 678.833 160.699 694.97 177.001C718.264 200.535 746.227 229.573 774.974 259.424C786.137 271.016 797.417 282.73 808.589 294.293C822.578 308.771 836.394 323.01 849.692 336.584C845.937 316.843 841.942 296.368 837.93 275.808C836.831 270.176 835.731 264.538 834.634 258.907C824.731 208.064 814.979 157.185 809.833 120.153C807.382 102.514 805.354 83.9226 805.868 69.2048L805.877 68.9298C806.047 63.95 806.605 47.6358 815.358 32.1636C820.838 22.4748 833.408 6.61805 856.497 1.49914ZM870.275 474.435C870.273 474.432 870.278 474.328 870.297 474.135C870.286 474.342 870.277 474.438 870.275 474.435ZM950.61 432.568C950.828 432.698 950.942 432.772 950.943 432.778C950.945 432.783 950.837 432.718 950.61 432.568ZM562.302 216.187C562.303 216.187 562.341 216.214 562.418 216.271C562.341 216.217 562.302 216.187 562.302 216.187ZM925.795 73.3868C925.852 71.7594 925.986 72.1224 925.784 73.8406C925.786 73.6783 925.79 73.5271 925.795 73.3868Z" fill="#91FF6A"/>
<path fill-rule="evenodd" clip-rule="evenodd" d="M429.103 429.668C439.328 451.707 449.907 473.214 460.663 491.914C461.213 492.872 460.884 494.094 459.926 494.645C458.969 495.196 457.746 494.866 457.195 493.908C442.188 467.816 427.511 436.267 413.706 405.508C399.91 384.513 386.351 365.424 374.53 348.781C372.937 346.539 371.377 344.342 369.851 342.19C357.538 324.824 347.45 310.342 341.656 299.576C338.774 294.22 336.838 289.577 336.311 285.85C336.044 283.967 336.115 282.168 336.732 280.583C337.37 278.945 338.535 277.692 340.148 276.869C344.184 274.812 348.391 276.211 352.29 279.289C356.188 282.366 360.262 287.457 364.485 293.959C372.955 307 382.429 326.363 392.612 348.62C397.563 359.441 402.686 370.958 407.954 382.798C410.999 389.643 414.092 396.595 417.228 403.584C431.647 425.541 446.337 449.599 459.584 475.126C460.092 476.107 459.71 477.314 458.729 477.823C457.749 478.331 456.542 477.949 456.033 476.969C447.507 460.537 438.377 444.715 429.103 429.668ZM404.141 384.072C398.923 372.342 393.856 360.955 388.974 350.284C378.785 328.012 369.42 308.901 361.13 296.138C356.973 289.737 353.186 285.092 349.811 282.429C346.437 279.765 343.958 279.417 341.965 280.433C341.178 280.834 340.722 281.361 340.459 282.036C340.175 282.765 340.062 283.813 340.271 285.29C340.694 288.281 342.338 292.403 345.179 297.681C350.83 308.184 360.755 322.446 373.114 339.877C374.645 342.036 376.212 344.242 377.812 346.495C385.916 357.904 394.856 370.49 404.141 384.072Z" fill="#1B1B1B"/>
<path fill-rule="evenodd" clip-rule="evenodd" d="M564.146 351.205C565.168 350.786 566.336 351.275 566.755 352.297C573.939 369.834 581.24 386.264 588.425 401.327C601.083 415.781 614.28 431.319 625.734 445.683C635.835 458.349 644.62 470.15 650.488 479.507C653.416 484.177 655.666 488.314 656.98 491.689C657.636 493.375 658.091 494.949 658.254 496.354C658.414 497.734 658.319 499.175 657.614 500.393C656.926 501.583 655.947 502.516 654.648 502.978C653.373 503.433 652.027 503.35 650.737 502.971C648.236 502.236 645.447 500.242 642.491 497.44C636.507 491.766 629 481.955 620.583 468.813C609.905 452.137 597.65 429.918 585.052 403.548C575.526 392.678 566.314 382.432 558.395 373.783C557.649 372.968 557.705 371.703 558.519 370.957C559.334 370.211 560.599 370.267 561.345 371.082C566.743 376.977 572.743 383.616 579.036 390.692C573.704 379.06 568.346 366.733 563.054 353.813C562.635 352.791 563.124 351.623 564.146 351.205ZM595.236 415.275C605.432 435.658 615.235 453.043 623.952 466.656C632.32 479.722 639.618 489.203 645.243 494.537C648.092 497.238 650.31 498.677 651.865 499.133C652.603 499.35 653.047 499.303 653.305 499.21C653.54 499.127 653.838 498.931 654.151 498.39C654.248 498.224 654.392 497.776 654.281 496.815C654.172 495.878 653.843 494.657 653.253 493.141C652.073 490.112 649.978 486.224 647.099 481.632C641.353 472.469 632.68 460.808 622.607 448.177C614.135 437.554 604.701 426.278 595.236 415.275Z" fill="#1B1B1B"/>
<path fill-rule="evenodd" clip-rule="evenodd" d="M290.735 434.182C291.765 433.783 292.923 434.294 293.323 435.323C298.683 449.136 304.13 462.077 309.49 473.942C318.949 485.337 328.807 497.584 337.365 508.908C344.921 518.905 351.501 528.23 355.9 535.633C358.095 539.326 359.79 542.614 360.784 545.309C361.281 546.654 361.63 547.927 361.756 549.073C361.879 550.193 361.813 551.411 361.233 552.468C360.686 553.466 359.879 554.301 358.757 554.723C357.652 555.139 356.507 555.053 355.46 554.729C353.455 554.108 351.295 552.456 349.077 550.238C344.562 545.722 338.927 537.946 332.631 527.57C324.643 514.408 315.483 496.88 306.068 476.082C298.96 467.526 292.087 459.461 286.176 452.651C285.452 451.817 285.542 450.553 286.376 449.83C287.21 449.106 288.473 449.195 289.197 450.029C292.618 453.97 296.361 458.333 300.288 462.969C296.716 454.649 293.135 445.896 289.594 436.77C289.194 435.741 289.705 434.582 290.735 434.182ZM316.309 488.565C323.312 503.101 330.029 515.572 336.05 525.495C342.303 535.798 347.738 543.242 351.906 547.41C354.029 549.534 355.614 550.589 356.642 550.908C357.112 551.053 357.306 550.995 357.349 550.979L357.349 550.979C357.375 550.969 357.524 550.913 357.726 550.545C357.746 550.509 357.86 550.238 357.78 549.509C357.703 548.808 357.467 547.874 357.031 546.693C356.162 544.335 354.609 541.29 352.462 537.676C348.177 530.466 341.703 521.281 334.174 511.32C328.617 503.967 322.505 496.218 316.309 488.565Z" fill="#1B1B1B"/>
<path fill-rule="evenodd" clip-rule="evenodd" d="M706.464 373.567C710.744 384.81 715.29 395.506 720.208 405.046C720.715 406.028 720.329 407.234 719.347 407.74C718.366 408.246 717.159 407.861 716.653 406.879C708.284 390.647 700.965 371.07 694.237 351.219C682.756 331.224 671.062 313.243 661.115 297.947C659.987 296.212 658.881 294.512 657.801 292.847C649.311 279.765 642.32 268.779 638.359 260.514C636.388 256.402 635.069 252.767 634.773 249.78C634.469 246.717 635.233 243.906 637.921 242.289C642.197 239.714 646.439 239.463 650.476 241.331C654.355 243.126 657.842 246.783 661.058 251.565C667.504 261.146 673.479 276.192 679.468 293.549C682.627 302.703 685.799 312.525 689.056 322.61C691.923 331.485 694.855 340.564 697.902 349.569C705.643 363.069 713.292 377.494 720.248 392.628C720.71 393.632 720.27 394.819 719.266 395.28C718.263 395.742 717.075 395.302 716.614 394.298C713.363 387.225 709.959 380.308 706.464 373.567ZM688.333 333.374C687.259 330.071 686.198 326.787 685.148 323.535C681.916 313.527 678.783 303.827 675.687 294.854C669.686 277.463 663.855 262.889 657.739 253.798C654.676 249.243 651.692 246.301 648.796 244.961C646.056 243.693 643.215 243.77 639.984 245.716C639.112 246.24 638.535 247.191 638.753 249.385C638.978 251.655 640.044 254.774 641.966 258.786C645.792 266.77 652.623 277.52 661.156 290.669C662.242 292.342 663.353 294.051 664.489 295.797C671.736 306.94 679.942 319.558 688.333 333.374Z" fill="#1B1B1B"/>
<path fill-rule="evenodd" clip-rule="evenodd" d="M951.44 215.732C954.544 224.962 956.93 232.828 958.035 237.815C958.275 238.893 957.594 239.961 956.516 240.2C955.437 240.439 954.369 239.759 954.13 238.681C952.703 232.243 949.024 220.691 944.388 207.558C938.87 201.111 933.692 194.844 929.16 188.428C918.601 173.478 911.504 157.655 911.503 136.54C911.503 135.88 911.543 135.264 911.645 134.723C911.738 134.226 911.924 133.566 912.379 133.015C912.944 132.33 913.804 131.968 914.731 132.111C915.466 132.224 916.036 132.626 916.397 132.929C917.149 133.561 917.906 134.562 918.642 135.691C919.407 136.864 920.253 138.337 921.16 140.049C924.779 146.879 929.625 157.972 934.612 170.349C939.167 181.655 943.877 194.126 947.911 205.522C948.634 206.365 949.364 207.213 950.101 208.067C950.982 209.088 951.872 210.117 952.77 211.155C958.507 217.787 964.571 224.797 970.653 232.508C971.337 233.375 971.189 234.633 970.322 235.317C969.454 236.001 968.197 235.853 967.513 234.985C962.079 228.096 956.663 221.776 951.44 215.732ZM940.436 196.607C937.383 188.321 934.11 179.809 930.902 171.844C925.922 159.485 921.141 148.556 917.625 141.922C916.845 140.45 916.14 139.213 915.519 138.23C915.885 157.454 922.486 172.045 932.427 186.12C934.906 189.629 937.589 193.102 940.436 196.607ZM915.609 135.327C915.609 135.327 915.608 135.331 915.605 135.337C915.607 135.33 915.609 135.327 915.609 135.327ZM913.774 135.952C913.762 135.945 913.756 135.941 913.756 135.94C913.756 135.94 913.762 135.943 913.774 135.952Z" fill="#1B1B1B"/>
<path fill-rule="evenodd" clip-rule="evenodd" d="M829.762 263.383C830.84 263.144 831.908 263.825 832.147 264.903C837.275 288.045 842.822 309.875 848.548 330.016C861.537 350.825 874.966 373.092 886.41 393.478C896.492 411.441 905.064 427.999 910.432 440.835C913.11 447.241 915.029 452.808 915.918 457.202C916.362 459.396 916.569 461.389 916.446 463.094C916.324 464.779 915.862 466.413 914.736 467.617C913.607 468.824 912.229 469.606 910.634 469.804C909.071 469.999 907.51 469.607 906.023 468.863C903.11 467.404 900.042 464.373 896.88 460.221C890.507 451.848 883.126 438.061 875.348 419.96C865.479 396.991 854.891 366.886 844.855 331.655C835.069 315.986 825.54 301.157 817.313 288.603C816.708 287.68 816.966 286.44 817.89 285.834C818.814 285.229 820.054 285.487 820.659 286.411C826.882 295.906 833.851 306.706 841.115 318.19C836.639 301.655 832.308 284.119 828.242 265.769C828.003 264.69 828.683 263.622 829.762 263.383ZM852.748 344.388C861.508 373.548 870.544 398.645 879.024 418.381C886.762 436.392 893.99 449.82 900.063 457.798C903.125 461.82 905.74 464.248 907.814 465.286C908.82 465.79 909.579 465.905 910.141 465.835C910.671 465.769 911.225 465.515 911.814 464.885C912.064 464.618 912.368 464.028 912.456 462.806C912.543 461.603 912.404 460.004 911.997 457.996C911.185 453.984 909.384 448.699 906.741 442.378C901.465 429.758 892.983 413.36 882.922 395.436C873.732 379.065 863.252 361.468 852.748 344.388Z" fill="#1B1B1B"/>
</svg>
