<svg width="932" height="44" viewBox="0 0 932 44" fill="none" xmlns="http://www.w3.org/2000/svg">
<path d="M182.303 31V7.96H184.015L193.455 28.344L202.799 7.96H204.575V30.968H202.767V12.2L194.191 31H192.687L184.095 12.2V31H182.303ZM218.253 31.48C215.959 31.48 214.034 30.9733 212.477 29.96C210.919 28.936 209.746 27.5227 208.957 25.72C208.167 23.9173 207.773 21.8373 207.773 19.48C207.773 17.1227 208.167 15.0427 208.957 13.24C209.746 11.4373 210.919 10.0293 212.477 9.016C214.034 7.992 215.959 7.48 218.253 7.48C220.546 7.48 222.466 7.992 224.013 9.016C225.57 10.0293 226.743 11.4373 227.533 13.24C228.322 15.0427 228.717 17.1227 228.717 19.48C228.717 21.8373 228.322 23.9173 227.533 25.72C226.743 27.5227 225.57 28.936 224.013 29.96C222.466 30.9733 220.546 31.48 218.253 31.48ZM218.253 29.672C220.141 29.6827 221.714 29.256 222.972 28.392C224.231 27.5173 225.175 26.312 225.805 24.776C226.434 23.24 226.749 21.4747 226.749 19.48C226.749 17.4853 226.434 15.72 225.805 14.184C225.175 12.648 224.231 11.448 222.972 10.584C221.714 9.72 220.141 9.288 218.253 9.288C216.365 9.27733 214.791 9.704 213.533 10.568C212.285 11.432 211.346 12.6373 210.717 14.184C210.087 15.72 209.762 17.4853 209.741 19.48C209.719 21.4747 210.023 23.24 210.653 24.776C211.293 26.3013 212.247 27.5013 213.517 28.376C214.786 29.24 216.365 29.672 218.253 29.672ZM231.928 31V7.96H233.768V18.584H247.112V7.96H248.968V31H247.112V20.376H233.768V31H231.928ZM270.515 31H268.659V11.208L255.315 31H253.459V7.96H255.315V27.72L268.659 7.96H270.515V31ZM281.326 31V9.752H273.07V7.96H291.422V9.752H283.166V31H281.326ZM303.19 31.48C300.897 31.48 298.971 30.9733 297.414 29.96C295.857 28.936 294.683 27.5227 293.894 25.72C293.105 23.9173 292.71 21.8373 292.71 19.48C292.71 17.1227 293.105 15.0427 293.894 13.24C294.683 11.4373 295.857 10.0293 297.414 9.016C298.971 7.992 300.897 7.48 303.19 7.48C305.483 7.48 307.403 7.992 308.95 9.016C310.507 10.0293 311.681 11.4373 312.47 13.24C313.259 15.0427 313.654 17.1227 313.654 19.48C313.654 21.8373 313.259 23.9173 312.47 25.72C311.681 27.5227 310.507 28.936 308.95 29.96C307.403 30.9733 305.483 31.48 303.19 31.48ZM303.19 29.672C305.078 29.6827 306.651 29.256 307.91 28.392C309.169 27.5173 310.113 26.312 310.742 24.776C311.371 23.24 311.686 21.4747 311.686 19.48C311.686 17.4853 311.371 15.72 310.742 14.184C310.113 12.648 309.169 11.448 307.91 10.584C306.651 9.72 305.078 9.288 303.19 9.288C301.302 9.27733 299.729 9.704 298.47 10.568C297.222 11.432 296.283 12.6373 295.654 14.184C295.025 15.72 294.699 17.4853 294.678 19.48C294.657 21.4747 294.961 23.24 295.59 24.776C296.23 26.3013 297.185 27.5013 298.454 28.376C299.723 29.24 301.302 29.672 303.19 29.672ZM316.865 31V7.96H325.553C325.777 7.96 326.017 7.97067 326.273 7.992C326.54 8.00267 326.817 8.03467 327.105 8.088C328.257 8.26933 329.244 8.68533 330.065 9.336C330.897 9.976 331.532 10.7867 331.969 11.768C332.406 12.7387 332.625 13.8107 332.625 14.984C332.625 16.168 332.406 17.2507 331.969 18.232C331.532 19.2027 330.897 20.0133 330.065 20.664C329.244 21.304 328.257 21.7147 327.105 21.896C326.817 21.9387 326.54 21.9707 326.273 21.992C326.017 22.0133 325.777 22.024 325.553 22.024H318.705V31H316.865ZM318.705 20.216H325.521C325.713 20.216 325.932 20.2053 326.177 20.184C326.433 20.1627 326.689 20.1307 326.945 20.088C327.777 19.9173 328.47 19.5813 329.025 19.08C329.58 18.568 329.996 17.9547 330.273 17.24C330.55 16.5253 330.689 15.7733 330.689 14.984C330.689 14.1947 330.55 13.448 330.273 12.744C329.996 12.0293 329.58 11.4213 329.025 10.92C328.47 10.408 327.777 10.0667 326.945 9.896C326.689 9.84267 326.433 9.80533 326.177 9.784C325.932 9.76267 325.713 9.752 325.521 9.752H318.705V20.216ZM335.834 31V7.96H337.674V16.936H344.522C344.746 16.936 344.986 16.9467 345.242 16.968C345.498 16.9787 345.77 17.0107 346.058 17.064C347.21 17.2453 348.196 17.6613 349.018 18.312C349.85 18.952 350.484 19.7627 350.922 20.744C351.37 21.7147 351.594 22.792 351.594 23.976C351.594 25.1493 351.375 26.2267 350.938 27.208C350.5 28.1787 349.866 28.9893 349.034 29.64C348.212 30.28 347.22 30.6907 346.058 30.872C345.77 30.9147 345.498 30.9467 345.242 30.968C344.986 30.9893 344.746 31 344.522 31H335.834ZM337.674 29.208H344.49C344.671 29.208 344.89 29.1973 345.146 29.176C345.402 29.1547 345.652 29.1173 345.898 29.064C346.74 28.8933 347.439 28.5573 347.994 28.056C348.548 27.544 348.964 26.936 349.242 26.232C349.519 25.5173 349.658 24.7653 349.658 23.976C349.658 23.1867 349.519 22.4347 349.242 21.72C348.964 21.0053 348.548 20.3973 347.994 19.896C347.439 19.384 346.74 19.0427 345.898 18.872C345.652 18.8187 345.402 18.7867 345.146 18.776C344.89 18.7547 344.671 18.744 344.49 18.744H337.674V29.208ZM353.834 31V7.96H355.674V31H353.834Z" fill="url(#paint0_linear_4264_949)"/>
<path d="M648.303 31V7.96H650.015L659.455 28.344L668.799 7.96H670.575V30.968H668.767V12.2L660.191 31H658.687L650.095 12.2V31H648.303ZM684.253 31.48C681.959 31.48 680.034 30.9733 678.477 29.96C676.919 28.936 675.746 27.5227 674.957 25.72C674.167 23.9173 673.773 21.8373 673.773 19.48C673.773 17.1227 674.167 15.0427 674.957 13.24C675.746 11.4373 676.919 10.0293 678.477 9.016C680.034 7.992 681.959 7.48 684.253 7.48C686.546 7.48 688.466 7.992 690.013 9.016C691.57 10.0293 692.743 11.4373 693.533 13.24C694.322 15.0427 694.717 17.1227 694.717 19.48C694.717 21.8373 694.322 23.9173 693.533 25.72C692.743 27.5227 691.57 28.936 690.013 29.96C688.466 30.9733 686.546 31.48 684.253 31.48ZM684.253 29.672C686.141 29.6827 687.714 29.256 688.972 28.392C690.231 27.5173 691.175 26.312 691.805 24.776C692.434 23.24 692.749 21.4747 692.749 19.48C692.749 17.4853 692.434 15.72 691.805 14.184C691.175 12.648 690.231 11.448 688.972 10.584C687.714 9.72 686.141 9.288 684.253 9.288C682.365 9.27733 680.791 9.704 679.533 10.568C678.285 11.432 677.346 12.6373 676.717 14.184C676.087 15.72 675.762 17.4853 675.741 19.48C675.719 21.4747 676.023 23.24 676.653 24.776C677.293 26.3013 678.247 27.5013 679.517 28.376C680.786 29.24 682.365 29.672 684.253 29.672ZM697.928 31V7.96H699.768V18.584H713.112V7.96H714.968V31H713.112V20.376H699.768V31H697.928ZM736.515 31H734.659V11.208L721.315 31H719.459V7.96H721.315V27.72L734.659 7.96H736.515V31ZM747.326 31V9.752H739.07V7.96H757.422V9.752H749.166V31H747.326ZM769.19 31.48C766.897 31.48 764.971 30.9733 763.414 29.96C761.857 28.936 760.683 27.5227 759.894 25.72C759.105 23.9173 758.71 21.8373 758.71 19.48C758.71 17.1227 759.105 15.0427 759.894 13.24C760.683 11.4373 761.857 10.0293 763.414 9.016C764.971 7.992 766.897 7.48 769.19 7.48C771.483 7.48 773.403 7.992 774.95 9.016C776.507 10.0293 777.681 11.4373 778.47 13.24C779.259 15.0427 779.654 17.1227 779.654 19.48C779.654 21.8373 779.259 23.9173 778.47 25.72C777.681 27.5227 776.507 28.936 774.95 29.96C773.403 30.9733 771.483 31.48 769.19 31.48ZM769.19 29.672C771.078 29.6827 772.651 29.256 773.91 28.392C775.169 27.5173 776.113 26.312 776.742 24.776C777.371 23.24 777.686 21.4747 777.686 19.48C777.686 17.4853 777.371 15.72 776.742 14.184C776.113 12.648 775.169 11.448 773.91 10.584C772.651 9.72 771.078 9.288 769.19 9.288C767.302 9.27733 765.729 9.704 764.47 10.568C763.222 11.432 762.283 12.6373 761.654 14.184C761.025 15.72 760.699 17.4853 760.678 19.48C760.657 21.4747 760.961 23.24 761.59 24.776C762.23 26.3013 763.185 27.5013 764.454 28.376C765.723 29.24 767.302 29.672 769.19 29.672ZM782.865 31V7.96H791.553C791.777 7.96 792.017 7.97067 792.273 7.992C792.54 8.00267 792.817 8.03467 793.105 8.088C794.257 8.26933 795.244 8.68533 796.065 9.336C796.897 9.976 797.532 10.7867 797.969 11.768C798.406 12.7387 798.625 13.8107 798.625 14.984C798.625 16.168 798.406 17.2507 797.969 18.232C797.532 19.2027 796.897 20.0133 796.065 20.664C795.244 21.304 794.257 21.7147 793.105 21.896C792.817 21.9387 792.54 21.9707 792.273 21.992C792.017 22.0133 791.777 22.024 791.553 22.024H784.705V31H782.865ZM784.705 20.216H791.521C791.713 20.216 791.932 20.2053 792.177 20.184C792.433 20.1627 792.689 20.1307 792.945 20.088C793.777 19.9173 794.47 19.5813 795.025 19.08C795.58 18.568 795.996 17.9547 796.273 17.24C796.55 16.5253 796.689 15.7733 796.689 14.984C796.689 14.1947 796.55 13.448 796.273 12.744C795.996 12.0293 795.58 11.4213 795.025 10.92C794.47 10.408 793.777 10.0667 792.945 9.896C792.689 9.84267 792.433 9.80533 792.177 9.784C791.932 9.76267 791.713 9.752 791.521 9.752H784.705V20.216ZM801.834 31V7.96H803.674V16.936H810.522C810.746 16.936 810.986 16.9467 811.242 16.968C811.498 16.9787 811.77 17.0107 812.058 17.064C813.21 17.2453 814.196 17.6613 815.018 18.312C815.85 18.952 816.484 19.7627 816.922 20.744C817.37 21.7147 817.594 22.792 817.594 23.976C817.594 25.1493 817.375 26.2267 816.938 27.208C816.5 28.1787 815.866 28.9893 815.034 29.64C814.212 30.28 813.22 30.6907 812.058 30.872C811.77 30.9147 811.498 30.9467 811.242 30.968C810.986 30.9893 810.746 31 810.522 31H801.834ZM803.674 29.208H810.49C810.671 29.208 810.89 29.1973 811.146 29.176C811.402 29.1547 811.652 29.1173 811.898 29.064C812.74 28.8933 813.439 28.5573 813.994 28.056C814.548 27.544 814.964 26.936 815.242 26.232C815.519 25.5173 815.658 24.7653 815.658 23.976C815.658 23.1867 815.519 22.4347 815.242 21.72C814.964 21.0053 814.548 20.3973 813.994 19.896C813.439 19.384 812.74 19.0427 811.898 18.872C811.652 18.8187 811.402 18.7867 811.146 18.776C810.89 18.7547 810.671 18.744 810.49 18.744H803.674V29.208ZM819.834 31V7.96H821.674V31H819.834Z" fill="#1B1B1B"/>
<path d="M468.318 31V7.96H470.158V18.904L481.118 7.96H483.55L472.526 19.032L484.51 31H482.046L470.158 19.224V31H468.318ZM486.756 31V7.96H499.764V9.8H488.596V18.552H497.844V20.408H488.596V31H486.756ZM500.718 31L508.878 7.96H511.166L519.326 31H517.374L509.534 8.92H510.462L502.67 31H500.718ZM504.094 25.208V23.464H515.934V25.208H504.094ZM521.553 31L521.585 29.24L532.177 19.624C533.116 18.7813 533.729 17.976 534.017 17.208C534.305 16.4293 534.449 15.5973 534.449 14.712C534.449 13.7093 534.209 12.7973 533.729 11.976C533.249 11.1547 532.598 10.504 531.777 10.024C530.966 9.53333 530.054 9.288 529.041 9.288C528.006 9.288 527.078 9.53867 526.257 10.04C525.436 10.5413 524.785 11.2027 524.305 12.024C523.836 12.8453 523.601 13.7413 523.601 14.712H521.745C521.745 13.3573 522.07 12.136 522.721 11.048C523.372 9.94933 524.246 9.08 525.345 8.44C526.454 7.8 527.692 7.48 529.057 7.48C530.433 7.48 531.665 7.81067 532.753 8.472C533.852 9.12266 534.721 9.99733 535.361 11.096C536.001 12.1947 536.321 13.4053 536.321 14.728C536.321 15.6453 536.214 16.4667 536.001 17.192C535.798 17.9067 535.473 18.5787 535.025 19.208C534.577 19.8267 534.001 20.4507 533.297 21.08L523.297 30.152L522.913 29.192H536.321V31H521.553Z" fill="#1B1B1B"/>
<path d="M2.31813 31V7.96H4.15813V18.904L15.1181 7.96H17.5501L6.52613 19.032L18.5101 31H16.0461L4.15813 19.224V31H2.31813ZM20.7556 31V7.96H33.7636V9.8H22.5956V18.552H31.8436V20.408H22.5956V31H20.7556ZM34.7181 31L42.8781 7.96H45.1661L53.3261 31H51.3741L43.5341 8.92H44.4621L36.6701 31H34.7181ZM38.0941 25.208V23.464H49.9341V25.208H38.0941ZM55.5531 31L55.5851 29.24L66.1771 19.624C67.1158 18.7813 67.7291 17.976 68.0171 17.208C68.3051 16.4293 68.4491 15.5973 68.4491 14.712C68.4491 13.7093 68.2091 12.7973 67.7291 11.976C67.2491 11.1547 66.5985 10.504 65.7771 10.024C64.9665 9.53333 64.0545 9.288 63.0411 9.288C62.0065 9.288 61.0785 9.53867 60.2571 10.04C59.4358 10.5413 58.7851 11.2027 58.3051 12.024C57.8358 12.8453 57.6011 13.7413 57.6011 14.712H55.7451C55.7451 13.3573 56.0705 12.136 56.7211 11.048C57.3718 9.94933 58.2465 9.08 59.3451 8.44C60.4545 7.8 61.6918 7.48 63.0571 7.48C64.4331 7.48 65.6651 7.81067 66.7531 8.472C67.8518 9.12266 68.7211 9.99733 69.3611 11.096C70.0011 12.1947 70.3211 13.4053 70.3211 14.728C70.3211 15.6453 70.2145 16.4667 70.0011 17.192C69.7985 17.9067 69.4731 18.5787 69.0251 19.208C68.5771 19.8267 68.0011 20.4507 67.2971 21.08L57.2971 30.152L56.9131 29.192H70.3211V31H55.5531Z" fill="#1B1B1B"/>
<path d="M382 22H442" stroke="#1B1B1B"/>
<path d="M562 22H622" stroke="#1B1B1B"/>
<path d="M848 22H908" stroke="#1B1B1B"/>
<path d="M96 22H156" stroke="#1B1B1B"/>
<defs>
<linearGradient id="paint0_linear_4264_949" x1="180" y1="0" x2="259.47" y2="109.505" gradientUnits="userSpaceOnUse">
<stop stop-color="#44FC8E"/>
<stop offset="1" stop-color="#4916DD"/>
</linearGradient>
</defs>
</svg>
