<svg width="1700" height="82" viewBox="0 0 1700 82" fill="none" xmlns="http://www.w3.org/2000/svg">
<path d="M329.442 59V15.8H332.652L350.352 54.02L367.872 15.8H371.202V58.94H367.812V23.75L351.732 59H348.912L332.802 23.75V59H329.442ZM396.848 59.9C392.548 59.9 388.938 58.95 386.018 57.05C383.098 55.13 380.898 52.48 379.418 49.1C377.938 45.72 377.198 41.82 377.198 37.4C377.198 32.98 377.938 29.08 379.418 25.7C380.898 22.32 383.098 19.68 386.018 17.78C388.938 15.86 392.548 14.9 396.848 14.9C401.148 14.9 404.748 15.86 407.648 17.78C410.568 19.68 412.768 22.32 414.248 25.7C415.728 29.08 416.468 32.98 416.468 37.4C416.468 41.82 415.728 45.72 414.248 49.1C412.768 52.48 410.568 55.13 407.648 57.05C404.748 58.95 401.148 59.9 396.848 59.9ZM396.848 56.51C400.388 56.53 403.338 55.73 405.698 54.11C408.058 52.47 409.828 50.21 411.008 47.33C412.188 44.45 412.778 41.14 412.778 37.4C412.778 33.66 412.188 30.35 411.008 27.47C409.828 24.59 408.058 22.34 405.698 20.72C403.338 19.1 400.388 18.29 396.848 18.29C393.308 18.27 390.358 19.07 387.998 20.69C385.658 22.31 383.898 24.57 382.718 27.47C381.538 30.35 380.928 33.66 380.888 37.4C380.848 41.14 381.418 44.45 382.598 47.33C383.798 50.19 385.588 52.44 387.968 54.08C390.348 55.7 393.308 56.51 396.848 56.51ZM422.489 59V15.8H425.939V35.72H450.959V15.8H454.439V59H450.959V39.08H425.939V59H422.489ZM494.84 59H491.36V21.89L466.34 59H462.86V15.8H466.34V52.85L491.36 15.8H494.84V59ZM515.111 59V19.16H499.631V15.8H534.041V19.16H518.561V59H515.111ZM556.106 59.9C551.806 59.9 548.196 58.95 545.276 57.05C542.356 55.13 540.156 52.48 538.676 49.1C537.196 45.72 536.456 41.82 536.456 37.4C536.456 32.98 537.196 29.08 538.676 25.7C540.156 22.32 542.356 19.68 545.276 17.78C548.196 15.86 551.806 14.9 556.106 14.9C560.406 14.9 564.006 15.86 566.906 17.78C569.826 19.68 572.026 22.32 573.506 25.7C574.986 29.08 575.726 32.98 575.726 37.4C575.726 41.82 574.986 45.72 573.506 49.1C572.026 52.48 569.826 55.13 566.906 57.05C564.006 58.95 560.406 59.9 556.106 59.9ZM556.106 56.51C559.646 56.53 562.596 55.73 564.956 54.11C567.316 52.47 569.086 50.21 570.266 47.33C571.446 44.45 572.036 41.14 572.036 37.4C572.036 33.66 571.446 30.35 570.266 27.47C569.086 24.59 567.316 22.34 564.956 20.72C562.596 19.1 559.646 18.29 556.106 18.29C552.566 18.27 549.616 19.07 547.256 20.69C544.916 22.31 543.156 24.57 541.976 27.47C540.796 30.35 540.186 33.66 540.146 37.4C540.106 41.14 540.676 44.45 541.856 47.33C543.056 50.19 544.846 52.44 547.226 54.08C549.606 55.7 552.566 56.51 556.106 56.51ZM581.747 59V15.8H598.037C598.457 15.8 598.907 15.82 599.387 15.86C599.887 15.88 600.407 15.94 600.947 16.04C603.107 16.38 604.957 17.16 606.497 18.38C608.057 19.58 609.247 21.1 610.067 22.94C610.887 24.76 611.297 26.77 611.297 28.97C611.297 31.19 610.887 33.22 610.067 35.06C609.247 36.88 608.057 38.4 606.497 39.62C604.957 40.82 603.107 41.59 600.947 41.93C600.407 42.01 599.887 42.07 599.387 42.11C598.907 42.15 598.457 42.17 598.037 42.17H585.197V59H581.747ZM585.197 38.78H597.977C598.337 38.78 598.747 38.76 599.207 38.72C599.687 38.68 600.167 38.62 600.647 38.54C602.207 38.22 603.507 37.59 604.547 36.65C605.587 35.69 606.367 34.54 606.887 33.2C607.407 31.86 607.667 30.45 607.667 28.97C607.667 27.49 607.407 26.09 606.887 24.77C606.367 23.43 605.587 22.29 604.547 21.35C603.507 20.39 602.207 19.75 600.647 19.43C600.167 19.33 599.687 19.26 599.207 19.22C598.747 19.18 598.337 19.16 597.977 19.16H585.197V38.78ZM617.313 59V15.8H620.763V32.63H633.603C634.023 32.63 634.473 32.65 634.953 32.69C635.433 32.71 635.943 32.77 636.483 32.87C638.643 33.21 640.493 33.99 642.033 35.21C643.593 36.41 644.783 37.93 645.603 39.77C646.443 41.59 646.863 43.61 646.863 45.83C646.863 48.03 646.453 50.05 645.633 51.89C644.813 53.71 643.623 55.23 642.063 56.45C640.523 57.65 638.663 58.42 636.483 58.76C635.943 58.84 635.433 58.9 634.953 58.94C634.473 58.98 634.023 59 633.603 59H617.313ZM620.763 55.64H633.543C633.883 55.64 634.293 55.62 634.773 55.58C635.253 55.54 635.723 55.47 636.183 55.37C637.763 55.05 639.073 54.42 640.113 53.48C641.153 52.52 641.933 51.38 642.453 50.06C642.973 48.72 643.233 47.31 643.233 45.83C643.233 44.35 642.973 42.94 642.453 41.6C641.933 40.26 641.153 39.12 640.113 38.18C639.073 37.22 637.763 36.58 636.183 36.26C635.723 36.16 635.253 36.1 634.773 36.08C634.293 36.04 633.883 36.02 633.543 36.02H620.763V55.64ZM651.063 59V15.8H654.513V59H651.063Z" fill="url(#paint0_linear_4270_1080)"/>
<path d="M1178.44 59V15.8H1181.65L1199.35 54.02L1216.87 15.8H1220.2V58.94H1216.81V23.75L1200.73 59H1197.91L1181.8 23.75V59H1178.44ZM1245.85 59.9C1241.55 59.9 1237.94 58.95 1235.02 57.05C1232.1 55.13 1229.9 52.48 1228.42 49.1C1226.94 45.72 1226.2 41.82 1226.2 37.4C1226.2 32.98 1226.94 29.08 1228.42 25.7C1229.9 22.32 1232.1 19.68 1235.02 17.78C1237.94 15.86 1241.55 14.9 1245.85 14.9C1250.15 14.9 1253.75 15.86 1256.65 17.78C1259.57 19.68 1261.77 22.32 1263.25 25.7C1264.73 29.08 1265.47 32.98 1265.47 37.4C1265.47 41.82 1264.73 45.72 1263.25 49.1C1261.77 52.48 1259.57 55.13 1256.65 57.05C1253.75 58.95 1250.15 59.9 1245.85 59.9ZM1245.85 56.51C1249.39 56.53 1252.34 55.73 1254.7 54.11C1257.06 52.47 1258.83 50.21 1260.01 47.33C1261.19 44.45 1261.78 41.14 1261.78 37.4C1261.78 33.66 1261.19 30.35 1260.01 27.47C1258.83 24.59 1257.06 22.34 1254.7 20.72C1252.34 19.1 1249.39 18.29 1245.85 18.29C1242.31 18.27 1239.36 19.07 1237 20.69C1234.66 22.31 1232.9 24.57 1231.72 27.47C1230.54 30.35 1229.93 33.66 1229.89 37.4C1229.85 41.14 1230.42 44.45 1231.6 47.33C1232.8 50.19 1234.59 52.44 1236.97 54.08C1239.35 55.7 1242.31 56.51 1245.85 56.51ZM1271.49 59V15.8H1274.94V35.72H1299.96V15.8H1303.44V59H1299.96V39.08H1274.94V59H1271.49ZM1343.84 59H1340.36V21.89L1315.34 59H1311.86V15.8H1315.34V52.85L1340.36 15.8H1343.84V59ZM1364.11 59V19.16H1348.63V15.8H1383.04V19.16H1367.56V59H1364.11ZM1405.11 59.9C1400.81 59.9 1397.2 58.95 1394.28 57.05C1391.36 55.13 1389.16 52.48 1387.68 49.1C1386.2 45.72 1385.46 41.82 1385.46 37.4C1385.46 32.98 1386.2 29.08 1387.68 25.7C1389.16 22.32 1391.36 19.68 1394.28 17.78C1397.2 15.86 1400.81 14.9 1405.11 14.9C1409.41 14.9 1413.01 15.86 1415.91 17.78C1418.83 19.68 1421.03 22.32 1422.51 25.7C1423.99 29.08 1424.73 32.98 1424.73 37.4C1424.73 41.82 1423.99 45.72 1422.51 49.1C1421.03 52.48 1418.83 55.13 1415.91 57.05C1413.01 58.95 1409.41 59.9 1405.11 59.9ZM1405.11 56.51C1408.65 56.53 1411.6 55.73 1413.96 54.11C1416.32 52.47 1418.09 50.21 1419.27 47.33C1420.45 44.45 1421.04 41.14 1421.04 37.4C1421.04 33.66 1420.45 30.35 1419.27 27.47C1418.09 24.59 1416.32 22.34 1413.96 20.72C1411.6 19.1 1408.65 18.29 1405.11 18.29C1401.57 18.27 1398.62 19.07 1396.26 20.69C1393.92 22.31 1392.16 24.57 1390.98 27.47C1389.8 30.35 1389.19 33.66 1389.15 37.4C1389.11 41.14 1389.68 44.45 1390.86 47.33C1392.06 50.19 1393.85 52.44 1396.23 54.08C1398.61 55.7 1401.57 56.51 1405.11 56.51ZM1430.75 59V15.8H1447.04C1447.46 15.8 1447.91 15.82 1448.39 15.86C1448.89 15.88 1449.41 15.94 1449.95 16.04C1452.11 16.38 1453.96 17.16 1455.5 18.38C1457.06 19.58 1458.25 21.1 1459.07 22.94C1459.89 24.76 1460.3 26.77 1460.3 28.97C1460.3 31.19 1459.89 33.22 1459.07 35.06C1458.25 36.88 1457.06 38.4 1455.5 39.62C1453.96 40.82 1452.11 41.59 1449.95 41.93C1449.41 42.01 1448.89 42.07 1448.39 42.11C1447.91 42.15 1447.46 42.17 1447.04 42.17H1434.2V59H1430.75ZM1434.2 38.78H1446.98C1447.34 38.78 1447.75 38.76 1448.21 38.72C1448.69 38.68 1449.17 38.62 1449.65 38.54C1451.21 38.22 1452.51 37.59 1453.55 36.65C1454.59 35.69 1455.37 34.54 1455.89 33.2C1456.41 31.86 1456.67 30.45 1456.67 28.97C1456.67 27.49 1456.41 26.09 1455.89 24.77C1455.37 23.43 1454.59 22.29 1453.55 21.35C1452.51 20.39 1451.21 19.75 1449.65 19.43C1449.17 19.33 1448.69 19.26 1448.21 19.22C1447.75 19.18 1447.34 19.16 1446.98 19.16H1434.2V38.78ZM1466.31 59V15.8H1469.76V32.63H1482.6C1483.02 32.63 1483.47 32.65 1483.95 32.69C1484.43 32.71 1484.94 32.77 1485.48 32.87C1487.64 33.21 1489.49 33.99 1491.03 35.21C1492.59 36.41 1493.78 37.93 1494.6 39.77C1495.44 41.59 1495.86 43.61 1495.86 45.83C1495.86 48.03 1495.45 50.05 1494.63 51.89C1493.81 53.71 1492.62 55.23 1491.06 56.45C1489.52 57.65 1487.66 58.42 1485.48 58.76C1484.94 58.84 1484.43 58.9 1483.95 58.94C1483.47 58.98 1483.02 59 1482.6 59H1466.31ZM1469.76 55.64H1482.54C1482.88 55.64 1483.29 55.62 1483.77 55.58C1484.25 55.54 1484.72 55.47 1485.18 55.37C1486.76 55.05 1488.07 54.42 1489.11 53.48C1490.15 52.52 1490.93 51.38 1491.45 50.06C1491.97 48.72 1492.23 47.31 1492.23 45.83C1492.23 44.35 1491.97 42.94 1491.45 41.6C1490.93 40.26 1490.15 39.12 1489.11 38.18C1488.07 37.22 1486.76 36.58 1485.18 36.26C1484.72 36.16 1484.25 36.1 1483.77 36.08C1483.29 36.04 1482.88 36.02 1482.54 36.02H1469.76V55.64ZM1500.06 59V15.8H1503.51V59H1500.06Z" fill="#1B1B1B"/>
<path d="M853.346 59V15.8H856.796V36.32L877.346 15.8H881.906L861.236 36.56L883.706 59H879.086L856.796 36.92V59H853.346ZM887.917 59V15.8H912.307V19.25H891.367V35.66H908.707V39.14H891.367V59H887.917ZM914.096 59L929.396 15.8H933.686L948.986 59H945.326L930.626 17.6H932.366L917.756 59H914.096ZM920.426 48.14V44.87H942.626V48.14H920.426ZM953.162 59L953.222 55.7L973.082 37.67C974.842 36.09 975.992 34.58 976.532 33.14C977.072 31.68 977.342 30.12 977.342 28.46C977.342 26.58 976.892 24.87 975.992 23.33C975.092 21.79 973.872 20.57 972.332 19.67C970.812 18.75 969.102 18.29 967.202 18.29C965.262 18.29 963.522 18.76 961.982 19.7C960.442 20.64 959.222 21.88 958.322 23.42C957.442 24.96 957.002 26.64 957.002 28.46H953.522C953.522 25.92 954.132 23.63 955.352 21.59C956.572 19.53 958.212 17.9 960.272 16.7C962.352 15.5 964.672 14.9 967.232 14.9C969.812 14.9 972.122 15.52 974.162 16.76C976.222 17.98 977.852 19.62 979.052 21.68C980.252 23.74 980.852 26.01 980.852 28.49C980.852 30.21 980.652 31.75 980.252 33.11C979.872 34.45 979.262 35.71 978.422 36.89C977.582 38.05 976.502 39.22 975.182 40.4L956.432 57.41L955.712 55.61H980.852V59H953.162Z" fill="#1B1B1B"/>
<path d="M4.34648 59V15.8H7.79649V36.32L28.3465 15.8H32.9065L12.2365 36.56L34.7065 59H30.0865L7.79649 36.92V59H4.34648ZM38.9168 59V15.8H63.3068V19.25H42.3668V35.66H59.7068V39.14H42.3668V59H38.9168ZM65.0965 59L80.3965 15.8H84.6865L99.9865 59H96.3265L81.6265 17.6H83.3665L68.7565 59H65.0965ZM71.4265 48.14V44.87H93.6265V48.14H71.4265ZM104.162 59L104.222 55.7L124.082 37.67C125.842 36.09 126.992 34.58 127.532 33.14C128.072 31.68 128.342 30.12 128.342 28.46C128.342 26.58 127.892 24.87 126.992 23.33C126.092 21.79 124.872 20.57 123.332 19.67C121.812 18.75 120.102 18.29 118.202 18.29C116.262 18.29 114.522 18.76 112.982 19.7C111.442 20.64 110.222 21.88 109.322 23.42C108.442 24.96 108.002 26.64 108.002 28.46H104.522C104.522 25.92 105.132 23.63 106.352 21.59C107.572 19.53 109.212 17.9 111.272 16.7C113.352 15.5 115.672 14.9 118.232 14.9C120.812 14.9 123.122 15.52 125.162 16.76C127.222 17.98 128.852 19.62 130.052 21.68C131.252 23.74 131.852 26.01 131.852 28.49C131.852 30.21 131.652 31.75 131.252 33.11C130.872 34.45 130.262 35.71 129.422 36.89C128.582 38.05 127.502 39.22 126.182 40.4L107.432 57.41L106.712 55.61H131.852V59H104.162Z" fill="#1B1B1B"/>
<path d="M699 41H809" stroke="#1B1B1B" stroke-width="2"/>
<path d="M1024 41H1134" stroke="#1B1B1B" stroke-width="2"/>
<path d="M1549 41H1659" stroke="#1B1B1B" stroke-width="2"/>
<path d="M175 41H285" stroke="#1B1B1B" stroke-width="2"/>
<defs>
<linearGradient id="paint0_linear_4270_1080" x1="325" y1="0" x2="476.022" y2="206.087" gradientUnits="userSpaceOnUse">
<stop stop-color="#44FC8E"/>
<stop offset="1" stop-color="#4916DD"/>
</linearGradient>
</defs>
</svg>
