<svg width="1192" height="55" viewBox="0 0 1192 55" fill="none" xmlns="http://www.w3.org/2000/svg">
<path d="M237.128 39V10.2H239.268L251.068 35.68L262.748 10.2H264.968V38.96H262.708V15.5L251.988 39H250.108L239.368 15.5V39H237.128ZM282.066 39.6C279.199 39.6 276.792 38.9667 274.846 37.7C272.899 36.42 271.432 34.6533 270.446 32.4C269.459 30.1467 268.966 27.5467 268.966 24.6C268.966 21.6533 269.459 19.0533 270.446 16.8C271.432 14.5467 272.899 12.7867 274.846 11.52C276.792 10.24 279.199 9.6 282.066 9.6C284.932 9.6 287.332 10.24 289.266 11.52C291.212 12.7867 292.679 14.5467 293.666 16.8C294.652 19.0533 295.146 21.6533 295.146 24.6C295.146 27.5467 294.652 30.1467 293.666 32.4C292.679 34.6533 291.212 36.42 289.266 37.7C287.332 38.9667 284.932 39.6 282.066 39.6ZM282.066 37.34C284.426 37.3533 286.392 36.82 287.966 35.74C289.539 34.6467 290.719 33.14 291.506 31.22C292.292 29.3 292.686 27.0933 292.686 24.6C292.686 22.1067 292.292 19.9 291.506 17.98C290.719 16.06 289.539 14.56 287.966 13.48C286.392 12.4 284.426 11.86 282.066 11.86C279.706 11.8467 277.739 12.38 276.166 13.46C274.606 14.54 273.432 16.0467 272.646 17.98C271.859 19.9 271.452 22.1067 271.426 24.6C271.399 27.0933 271.779 29.3 272.566 31.22C273.366 33.1267 274.559 34.6267 276.146 35.72C277.732 36.8 279.706 37.34 282.066 37.34ZM299.159 39V10.2H301.459V23.48H318.139V10.2H320.459V39H318.139V25.72H301.459V39H299.159ZM347.393 39H345.073V14.26L328.393 39H326.073V10.2H328.393V34.9L345.073 10.2H347.393V39ZM360.908 39V12.44H350.588V10.2H373.528V12.44H363.208V39H360.908ZM388.238 39.6C385.371 39.6 382.964 38.9667 381.018 37.7C379.071 36.42 377.604 34.6533 376.618 32.4C375.631 30.1467 375.138 27.5467 375.138 24.6C375.138 21.6533 375.631 19.0533 376.618 16.8C377.604 14.5467 379.071 12.7867 381.018 11.52C382.964 10.24 385.371 9.6 388.238 9.6C391.104 9.6 393.504 10.24 395.438 11.52C397.384 12.7867 398.851 14.5467 399.838 16.8C400.824 19.0533 401.318 21.6533 401.318 24.6C401.318 27.5467 400.824 30.1467 399.838 32.4C398.851 34.6533 397.384 36.42 395.438 37.7C393.504 38.9667 391.104 39.6 388.238 39.6ZM388.238 37.34C390.598 37.3533 392.564 36.82 394.137 35.74C395.711 34.6467 396.891 33.14 397.678 31.22C398.464 29.3 398.858 27.0933 398.858 24.6C398.858 22.1067 398.464 19.9 397.678 17.98C396.891 16.06 395.711 14.56 394.137 13.48C392.564 12.4 390.598 11.86 388.238 11.86C385.878 11.8467 383.911 12.38 382.338 13.46C380.778 14.54 379.604 16.0467 378.818 17.98C378.031 19.9 377.624 22.1067 377.598 24.6C377.571 27.0933 377.951 29.3 378.738 31.22C379.538 33.1267 380.731 34.6267 382.318 35.72C383.904 36.8 385.878 37.34 388.238 37.34ZM405.331 39V10.2H416.191C416.471 10.2 416.771 10.2133 417.091 10.24C417.425 10.2533 417.771 10.2933 418.131 10.36C419.571 10.5867 420.805 11.1067 421.831 11.92C422.871 12.72 423.665 13.7333 424.211 14.96C424.758 16.1733 425.031 17.5133 425.031 18.98C425.031 20.46 424.758 21.8133 424.211 23.04C423.665 24.2533 422.871 25.2667 421.831 26.08C420.805 26.88 419.571 27.3933 418.131 27.62C417.771 27.6733 417.425 27.7133 417.091 27.74C416.771 27.7667 416.471 27.78 416.191 27.78H407.631V39H405.331ZM407.631 25.52H416.151C416.391 25.52 416.665 25.5067 416.971 25.48C417.291 25.4533 417.611 25.4133 417.931 25.36C418.971 25.1467 419.838 24.7267 420.531 24.1C421.225 23.46 421.745 22.6933 422.091 21.8C422.438 20.9067 422.611 19.9667 422.611 18.98C422.611 17.9933 422.438 17.06 422.091 16.18C421.745 15.2867 421.225 14.5267 420.531 13.9C419.838 13.26 418.971 12.8333 417.931 12.62C417.611 12.5533 417.291 12.5067 416.971 12.48C416.665 12.4533 416.391 12.44 416.151 12.44H407.631V25.52ZM429.042 39V10.2H431.342V21.42H439.902C440.182 21.42 440.482 21.4333 440.802 21.46C441.122 21.4733 441.462 21.5133 441.822 21.58C443.262 21.8067 444.496 22.3267 445.522 23.14C446.562 23.94 447.356 24.9533 447.902 26.18C448.462 27.3933 448.742 28.74 448.742 30.22C448.742 31.6867 448.469 33.0333 447.922 34.26C447.376 35.4733 446.582 36.4867 445.542 37.3C444.516 38.1 443.276 38.6133 441.822 38.84C441.462 38.8933 441.122 38.9333 440.802 38.96C440.482 38.9867 440.182 39 439.902 39H429.042ZM431.342 36.76H439.862C440.089 36.76 440.362 36.7467 440.682 36.72C441.002 36.6933 441.316 36.6467 441.622 36.58C442.676 36.3667 443.549 35.9467 444.242 35.32C444.936 34.68 445.456 33.92 445.802 33.04C446.149 32.1467 446.322 31.2067 446.322 30.22C446.322 29.2333 446.149 28.2933 445.802 27.4C445.456 26.5067 444.936 25.7467 444.242 25.12C443.549 24.48 442.676 24.0533 441.622 23.84C441.316 23.7733 441.002 23.7333 440.682 23.72C440.362 23.6933 440.089 23.68 439.862 23.68H431.342V36.76ZM451.542 39V10.2H453.842V39H451.542Z" fill="url(#paint0_linear_4270_1046)"/>
<path d="M838.128 39V10.2H840.268L852.068 35.68L863.748 10.2H865.968V38.96H863.708V15.5L852.988 39H851.108L840.368 15.5V39H838.128ZM883.066 39.6C880.199 39.6 877.792 38.9667 875.846 37.7C873.899 36.42 872.432 34.6533 871.446 32.4C870.459 30.1467 869.966 27.5467 869.966 24.6C869.966 21.6533 870.459 19.0533 871.446 16.8C872.432 14.5467 873.899 12.7867 875.846 11.52C877.792 10.24 880.199 9.6 883.066 9.6C885.932 9.6 888.332 10.24 890.266 11.52C892.212 12.7867 893.679 14.5467 894.666 16.8C895.652 19.0533 896.146 21.6533 896.146 24.6C896.146 27.5467 895.652 30.1467 894.666 32.4C893.679 34.6533 892.212 36.42 890.266 37.7C888.332 38.9667 885.932 39.6 883.066 39.6ZM883.066 37.34C885.426 37.3533 887.392 36.82 888.966 35.74C890.539 34.6467 891.719 33.14 892.506 31.22C893.292 29.3 893.686 27.0933 893.686 24.6C893.686 22.1067 893.292 19.9 892.506 17.98C891.719 16.06 890.539 14.56 888.966 13.48C887.392 12.4 885.426 11.86 883.066 11.86C880.706 11.8467 878.739 12.38 877.166 13.46C875.606 14.54 874.432 16.0467 873.646 17.98C872.859 19.9 872.452 22.1067 872.426 24.6C872.399 27.0933 872.779 29.3 873.566 31.22C874.366 33.1267 875.559 34.6267 877.146 35.72C878.732 36.8 880.706 37.34 883.066 37.34ZM900.159 39V10.2H902.459V23.48H919.139V10.2H921.459V39H919.139V25.72H902.459V39H900.159ZM948.393 39H946.073V14.26L929.393 39H927.073V10.2H929.393V34.9L946.073 10.2H948.393V39ZM961.908 39V12.44H951.588V10.2H974.528V12.44H964.208V39H961.908ZM989.238 39.6C986.371 39.6 983.964 38.9667 982.018 37.7C980.071 36.42 978.604 34.6533 977.618 32.4C976.631 30.1467 976.138 27.5467 976.138 24.6C976.138 21.6533 976.631 19.0533 977.618 16.8C978.604 14.5467 980.071 12.7867 982.018 11.52C983.964 10.24 986.371 9.6 989.238 9.6C992.104 9.6 994.504 10.24 996.438 11.52C998.384 12.7867 999.851 14.5467 1000.84 16.8C1001.82 19.0533 1002.32 21.6533 1002.32 24.6C1002.32 27.5467 1001.82 30.1467 1000.84 32.4C999.851 34.6533 998.384 36.42 996.438 37.7C994.504 38.9667 992.104 39.6 989.238 39.6ZM989.238 37.34C991.598 37.3533 993.564 36.82 995.137 35.74C996.711 34.6467 997.891 33.14 998.678 31.22C999.464 29.3 999.858 27.0933 999.858 24.6C999.858 22.1067 999.464 19.9 998.678 17.98C997.891 16.06 996.711 14.56 995.137 13.48C993.564 12.4 991.598 11.86 989.238 11.86C986.878 11.8467 984.911 12.38 983.338 13.46C981.778 14.54 980.604 16.0467 979.818 17.98C979.031 19.9 978.624 22.1067 978.598 24.6C978.571 27.0933 978.951 29.3 979.738 31.22C980.538 33.1267 981.731 34.6267 983.318 35.72C984.904 36.8 986.878 37.34 989.238 37.34ZM1006.33 39V10.2H1017.19C1017.47 10.2 1017.77 10.2133 1018.09 10.24C1018.42 10.2533 1018.77 10.2933 1019.13 10.36C1020.57 10.5867 1021.8 11.1067 1022.83 11.92C1023.87 12.72 1024.66 13.7333 1025.21 14.96C1025.76 16.1733 1026.03 17.5133 1026.03 18.98C1026.03 20.46 1025.76 21.8133 1025.21 23.04C1024.66 24.2533 1023.87 25.2667 1022.83 26.08C1021.8 26.88 1020.57 27.3933 1019.13 27.62C1018.77 27.6733 1018.42 27.7133 1018.09 27.74C1017.77 27.7667 1017.47 27.78 1017.19 27.78H1008.63V39H1006.33ZM1008.63 25.52H1017.15C1017.39 25.52 1017.66 25.5067 1017.97 25.48C1018.29 25.4533 1018.61 25.4133 1018.93 25.36C1019.97 25.1467 1020.84 24.7267 1021.53 24.1C1022.22 23.46 1022.74 22.6933 1023.09 21.8C1023.44 20.9067 1023.61 19.9667 1023.61 18.98C1023.61 17.9933 1023.44 17.06 1023.09 16.18C1022.74 15.2867 1022.22 14.5267 1021.53 13.9C1020.84 13.26 1019.97 12.8333 1018.93 12.62C1018.61 12.5533 1018.29 12.5067 1017.97 12.48C1017.66 12.4533 1017.39 12.44 1017.15 12.44H1008.63V25.52ZM1030.04 39V10.2H1032.34V21.42H1040.9C1041.18 21.42 1041.48 21.4333 1041.8 21.46C1042.12 21.4733 1042.46 21.5133 1042.82 21.58C1044.26 21.8067 1045.5 22.3267 1046.52 23.14C1047.56 23.94 1048.36 24.9533 1048.9 26.18C1049.46 27.3933 1049.74 28.74 1049.74 30.22C1049.74 31.6867 1049.47 33.0333 1048.92 34.26C1048.38 35.4733 1047.58 36.4867 1046.54 37.3C1045.52 38.1 1044.28 38.6133 1042.82 38.84C1042.46 38.8933 1042.12 38.9333 1041.8 38.96C1041.48 38.9867 1041.18 39 1040.9 39H1030.04ZM1032.34 36.76H1040.86C1041.09 36.76 1041.36 36.7467 1041.68 36.72C1042 36.6933 1042.32 36.6467 1042.62 36.58C1043.68 36.3667 1044.55 35.9467 1045.24 35.32C1045.94 34.68 1046.46 33.92 1046.8 33.04C1047.15 32.1467 1047.32 31.2067 1047.32 30.22C1047.32 29.2333 1047.15 28.2933 1046.8 27.4C1046.46 26.5067 1045.94 25.7467 1045.24 25.12C1044.55 24.48 1043.68 24.0533 1042.62 23.84C1042.32 23.7733 1042 23.7333 1041.68 23.72C1041.36 23.6933 1041.09 23.68 1040.86 23.68H1032.34V36.76ZM1052.54 39V10.2H1054.84V39H1052.54Z" fill="#1B1B1B"/>
<path d="M603.898 39V10.2H606.198V23.88L619.898 10.2H622.938L609.158 24.04L624.138 39H621.058L606.198 24.28V39H603.898ZM626.945 39V10.2H643.205V12.5H629.245V23.44H640.805V25.76H629.245V39H626.945ZM644.398 39L654.598 10.2H657.458L667.658 39H665.218L655.418 11.4H656.578L646.838 39H644.398ZM648.618 31.76V29.58H663.418V31.76H648.618ZM670.441 39L670.481 36.8L683.721 24.78C684.895 23.7267 685.661 22.72 686.021 21.76C686.381 20.7867 686.561 19.7467 686.561 18.64C686.561 17.3867 686.261 16.2467 685.661 15.22C685.061 14.1933 684.248 13.38 683.221 12.78C682.208 12.1667 681.068 11.86 679.801 11.86C678.508 11.86 677.348 12.1733 676.321 12.8C675.295 13.4267 674.481 14.2533 673.881 15.28C673.295 16.3067 673.001 17.4267 673.001 18.64H670.681C670.681 16.9467 671.088 15.42 671.901 14.06C672.715 12.6867 673.808 11.6 675.181 10.8C676.568 10 678.115 9.6 679.821 9.6C681.541 9.6 683.081 10.0133 684.441 10.84C685.815 11.6533 686.901 12.7467 687.701 14.12C688.501 15.4933 688.901 17.0067 688.901 18.66C688.901 19.8067 688.768 20.8333 688.501 21.74C688.248 22.6333 687.841 23.4733 687.281 24.26C686.721 25.0333 686.001 25.8133 685.121 26.6L672.621 37.94L672.141 36.74H688.901V39H670.441Z" fill="#1B1B1B"/>
<path d="M2.89766 39V10.2H5.19766V23.88L18.8977 10.2H21.9377L8.15766 24.04L23.1377 39H20.0577L5.19766 24.28V39H2.89766ZM25.9445 39V10.2H42.2045V12.5H28.2445V23.44H39.8045V25.76H28.2445V39H25.9445ZM43.3977 39L53.5977 10.2H56.4577L66.6577 39H64.2177L54.4177 11.4H55.5777L45.8377 39H43.3977ZM47.6177 31.76V29.58H62.4177V31.76H47.6177ZM69.4414 39L69.4814 36.8L82.7214 24.78C83.8947 23.7267 84.6614 22.72 85.0214 21.76C85.3814 20.7867 85.5614 19.7467 85.5614 18.64C85.5614 17.3867 85.2614 16.2467 84.6614 15.22C84.0614 14.1933 83.2481 13.38 82.2214 12.78C81.2081 12.1667 80.0681 11.86 78.8014 11.86C77.5081 11.86 76.3481 12.1733 75.3214 12.8C74.2947 13.4267 73.4814 14.2533 72.8814 15.28C72.2947 16.3067 72.0014 17.4267 72.0014 18.64H69.6814C69.6814 16.9467 70.0881 15.42 70.9014 14.06C71.7147 12.6867 72.8081 11.6 74.1814 10.8C75.5681 10 77.1147 9.6 78.8214 9.6C80.5414 9.6 82.0814 10.0133 83.4414 10.84C84.8147 11.6533 85.9014 12.7467 86.7014 14.12C87.5014 15.4933 87.9014 17.0067 87.9014 18.66C87.9014 19.8067 87.7681 20.8333 87.5014 21.74C87.2481 22.6333 86.8414 23.4733 86.2814 24.26C85.7214 25.0333 85.0014 25.8133 84.1214 26.6L71.6214 37.94L71.1414 36.74H87.9014V39H69.4414Z" fill="#1B1B1B"/>
<path d="M489 28H569" stroke="#1B1B1B"/>
<path d="M723 28H803" stroke="#1B1B1B"/>
<path d="M1089 27H1160" stroke="#1B1B1B"/>
<path d="M122 28H202" stroke="#1B1B1B"/>
<defs>
<linearGradient id="paint0_linear_4270_1046" x1="234" y1="0" x2="334.636" y2="137.535" gradientUnits="userSpaceOnUse">
<stop stop-color="#44FC8E"/>
<stop offset="1" stop-color="#4916DD"/>
</linearGradient>
</defs>
</svg>
