<svg width="621" height="643" viewBox="0 0 621 643" fill="none" xmlns="http://www.w3.org/2000/svg">
<path d="M430.643 587.903C496.636 522.591 627.247 329.02 619.685 318.382C608.961 303.293 324.779 644.644 313.093 641.985C301.406 639.325 511.759 344.092 498.698 336.113C488.063 329.617 235.413 556.872 214.103 562.192C192.792 567.511 393.522 348.525 381.148 336.113C368.774 323.701 139.173 557.759 132.986 551.553C126.799 545.347 325.334 241.783 309.655 235.042C289.032 226.177 54.6194 504.564 48.4325 501.904C42.2457 499.245 293.157 133.972 293.157 107.375C293.157 81.8016 85.3245 360.937 0.999973 440.73L259.788 0.999995" stroke="white" stroke-width="0.5"/>
</svg>
