<svg width="702" height="81" viewBox="0 0 702 81" fill="none" xmlns="http://www.w3.org/2000/svg">
<path d="M37.054 70.7155C29.8874 70.7155 24.3885 69.2311 20.5574 66.2625C16.738 63.2626 14.542 59.1221 13.9695 53.8411C13.397 48.56 14.3929 42.4665 16.9571 35.5605C19.5213 28.6546 23.0505 22.561 27.5447 17.28C32.0389 11.9989 37.3038 7.87409 43.3394 4.90545C49.3865 1.90557 55.9935 0.405626 63.1601 0.405626C70.3601 0.405626 75.8532 1.90557 79.6394 4.90545C83.4704 7.87409 85.6722 11.9989 86.2447 17.28C86.8505 22.561 85.8713 28.6546 83.3071 35.5605C80.7429 42.4665 77.197 48.56 72.6695 53.8411C68.1753 59.1221 62.9046 63.2626 56.8574 66.2625C50.8552 69.2311 44.254 70.7155 37.054 70.7155ZM39.508 64.1063C45.1414 64.1063 50.2881 62.9033 54.9481 60.4971C59.6082 58.0909 63.6664 54.7473 67.1226 50.4662C70.6238 46.1539 73.4186 41.1853 75.5071 35.5605C77.5956 29.9358 78.4846 24.9828 78.1742 20.7017C77.8971 16.4206 76.3219 13.077 73.4487 10.6709C70.5754 8.2647 66.3279 7.046 60.7062 7.01475C55.0728 7.01475 49.9428 8.21783 45.3161 10.624C40.6893 13.0301 36.6254 16.3894 33.1242 20.7017C29.6679 24.9828 26.8789 29.9358 24.7571 35.5605C22.6353 41.1853 21.7129 46.1383 21.99 50.4194C22.312 54.6692 23.9039 58.0128 26.7655 60.4502C29.6388 62.8564 33.8863 64.0751 39.508 64.1063ZM69.809 69.3093L107.447 35.1387L95.5208 1.81182H104.421L113.937 29.3733L143.921 1.81182H152.871L116.197 35.1387L128.409 69.3093H119.509L109.638 40.951L78.759 69.3093H69.809ZM131.454 69.3093L133.733 63.1689C135.509 63.3251 137.049 63.2626 138.353 62.9814C139.669 62.6689 140.891 61.9814 142.019 60.919C143.18 59.8565 144.433 58.2784 145.777 56.1848C147.132 54.0598 148.726 51.2943 150.557 47.8882C152.56 44.2008 154.456 40.5291 156.247 36.873C158.071 33.2169 159.846 29.5139 161.572 25.764C163.342 21.9829 165.081 18.1081 166.788 14.1395C168.495 10.1709 170.237 6.06166 172.015 1.81182H217.465L192.404 69.3093H185.054L207.661 8.42095H176.661C175.233 11.6396 173.776 14.9363 172.289 18.3112C170.836 21.6861 169.287 25.1391 167.643 28.6702C166.032 32.2013 164.297 35.8418 162.438 39.5916C160.624 43.3102 158.647 47.1539 156.506 51.1225C154.859 54.1223 153.193 56.9035 151.508 59.4659C149.857 62.0283 148.056 64.1845 146.107 65.9344C144.19 67.6843 142.027 68.8874 139.616 69.5436C137.24 70.1999 134.519 70.1217 131.454 69.3093ZM201.375 69.3093L251.237 1.81182H260.987L260.725 69.3093H253.075L253.16 5.65543H256.06L209.025 69.3093H201.375ZM218.499 52.9505L220.901 46.482H258.101L255.699 52.9505H218.499ZM263.754 69.3093L308.62 34.3887L291.566 1.81182H300.816L316.953 33.3575L328.666 1.81182H336.016L324.303 33.3575L363.866 1.81182H373.116L331.87 34.3887L350.804 69.3093H341.404L323.363 35.8887L310.954 69.3093H303.604L316.013 35.8887L273.204 69.3093H263.754ZM351.29 80.5588L357.921 62.7001C360.721 62.7001 363.214 62.0439 365.402 60.7315C367.601 59.3878 369.562 57.6066 371.286 55.3879C373.01 53.1692 374.615 50.685 376.103 47.9351C377.602 45.1539 379.047 42.3415 380.436 39.4979C382.446 35.3418 384.303 31.3263 386.009 27.4515C387.747 23.5766 389.488 19.5611 391.231 15.4051C393.008 11.249 394.963 6.70226 397.096 1.76495L441.479 1.81182L418.871 62.7001H424.021L417.39 80.5588H410.09L414.267 69.3093H362.817L358.64 80.5588H351.29ZM371.971 62.7001H411.521L431.675 8.42095L401.492 8.37407C399.877 12.1864 398.307 15.8738 396.785 19.4362C395.262 22.9985 393.694 26.5921 392.082 30.217C390.469 33.8419 388.715 37.623 386.82 41.5603C385.119 45.1539 383.52 48.2944 382.022 50.9818C380.524 53.6692 378.971 55.966 377.363 57.8722C375.789 59.7784 373.991 61.3877 371.971 62.7001ZM432.547 69.3093L457.609 1.81182H502.609L500.155 8.42095H462.505L453.838 31.7638H485.488L483.034 38.3729H451.384L442.351 62.7001H480.001L477.547 69.3093H432.547ZM489.579 69.3093L514.64 1.81182H521.99L510.695 32.2325H550.495L561.79 1.81182H569.09L544.029 69.3093H536.729L548.041 38.8417H508.241L496.929 69.3093H489.579ZM612.486 69.3093H605.086L625.64 13.952L565.436 69.3093H558.036L583.097 1.81182H590.497L569.961 57.1222L630.147 1.81182H637.547L612.486 69.3093ZM675.543 69.3093H668.243L677.763 43.6696H653.813L651.471 43.1071C646.498 42.1384 643.274 39.7791 641.799 36.0293C640.325 32.2794 640.534 27.8577 642.425 22.7642C643.736 19.233 645.614 16.0144 648.06 13.1083C650.506 10.2021 653.383 7.79597 656.69 5.88979C660.043 3.95236 663.685 2.71804 667.615 2.18681C668.607 2.03056 669.541 1.93682 670.42 1.90557C671.309 1.84307 672.104 1.81182 672.804 1.81182H700.604L675.543 69.3093ZM631.943 69.3093H623.493L650.231 39.3104L656.341 41.8416L631.943 69.3093ZM680.199 37.1074L690.85 8.42095H670.55C669.984 8.42095 669.272 8.4522 668.416 8.51469C667.604 8.54594 666.786 8.63969 665.961 8.79593C663.309 9.29591 660.922 10.249 658.8 11.6552C656.711 13.0614 654.918 14.7488 653.42 16.7175C651.934 18.6549 650.802 20.6705 650.025 22.7642C649.247 24.8578 648.882 26.8734 648.93 28.8108C648.977 30.7482 649.523 32.42 650.567 33.8262C651.645 35.2324 653.325 36.1855 655.606 36.6855C656.314 36.8417 657.057 36.9511 657.834 37.0136C658.644 37.0761 659.333 37.1074 659.899 37.1074H680.199Z" fill="white"/>
</svg>
