<svg width="1614" height="1355" viewBox="0 0 1614 1355" fill="none" xmlns="http://www.w3.org/2000/svg">
<g opacity="0.7" filter="url(#filter0_f_4300_4406)">
<path fill-rule="evenodd" clip-rule="evenodd" d="M201.657 743.76C182.485 584.073 333.306 452.568 466.754 362.607C577.468 287.972 715.939 325.891 848.276 307.857C1022.12 284.166 1218.99 125.971 1350.33 242.198C1480.58 357.462 1376.43 573.599 1340.85 743.76C1314.84 868.203 1274.59 990.614 1176.84 1072.01C1086.7 1147.06 965.498 1159.26 848.276 1153.9C737.644 1148.84 641.969 1102.58 548.473 1043.27C414.361 958.208 220.575 901.335 201.657 743.76Z" fill="url(#paint0_linear_4300_4406)"/>
</g>
<defs>
<filter id="filter0_f_4300_4406" x="0" y="0" width="1614" height="1355" filterUnits="userSpaceOnUse" color-interpolation-filters="sRGB">
<feFlood flood-opacity="0" result="BackgroundImageFix"/>
<feBlend mode="normal" in="SourceGraphic" in2="BackgroundImageFix" result="shape"/>
<feGaussianBlur stdDeviation="100" result="effect1_foregroundBlur_4300_4406"/>
</filter>
<linearGradient id="paint0_linear_4300_4406" x1="200" y1="1155" x2="471.469" y2="-18.1105" gradientUnits="userSpaceOnUse">
<stop stop-color="#44FC8E"/>
<stop offset="1" stop-color="#4916DD"/>
</linearGradient>
</defs>
</svg>
