<svg width="280" height="201" viewBox="0 0 280 201" fill="none" xmlns="http://www.w3.org/2000/svg">
<mask id="path-1-inside-1_3279_4602" fill="white">
<path fill-rule="evenodd" clip-rule="evenodd" d="M257 0H0V180L23.8636 201H280V20.1L257 0Z"/>
</mask>
<path d="M257 0L257.658 -0.752982L257.375 -1H257V0ZM0 0V-1H-1V0H0ZM0 180H-1V180.452L-0.660628 180.751L0 180ZM23.8636 201L23.203 201.751L23.4863 202H23.8636V201ZM280 201V202H281V201H280ZM280 20.1H281V19.6459L280.658 19.347L280 20.1ZM257 -1H0V1H257V-1ZM-1 0V180H1V0H-1ZM-0.660628 180.751L23.203 201.751L24.5243 200.249L0.660628 179.249L-0.660628 180.751ZM23.8636 202H280V200H23.8636V202ZM281 201V20.1H279V201H281ZM280.658 19.347L257.658 -0.752982L256.342 0.752982L279.342 20.853L280.658 19.347Z" fill="white" mask="url(#path-1-inside-1_3279_4602)"/>
</svg>
