<svg width="1670" height="814" viewBox="0 0 1670 814" fill="none" xmlns="http://www.w3.org/2000/svg">
<mask id="path-1-inside-1_871_2033" fill="white">
<path fill-rule="evenodd" clip-rule="evenodd" d="M0 0H1456L1670 214V814H175L0 639V0Z"/>
</mask>
<path d="M1456 0L1457.41 -1.41421L1456.83 -2H1456V0ZM0 0V-2H-2V0H0ZM1670 214H1672V213.172L1671.41 212.586L1670 214ZM1670 814V816H1672V814H1670ZM175 814L173.586 815.414L174.172 816H175V814ZM0 639H-2V639.828L-1.41421 640.414L0 639ZM1456 -2H0V2H1456V-2ZM1671.41 212.586L1457.41 -1.41421L1454.59 1.41421L1668.59 215.414L1671.41 212.586ZM1672 814V214H1668V814H1672ZM175 816H1670V812H175V816ZM-1.41421 640.414L173.586 815.414L176.414 812.586L1.41421 637.586L-1.41421 640.414ZM-2 0V639H2V0H-2Z" fill="white" mask="url(#path-1-inside-1_871_2033)"/>
</svg>
