<svg width="280" height="440" viewBox="0 0 280 440" fill="none" xmlns="http://www.w3.org/2000/svg">
<mask id="path-1-inside-1_3072_4182" fill="white">
<path fill-rule="evenodd" clip-rule="evenodd" d="M0 0H219L247.806 28.8056L280 61V440H59L31.1389 412.139L1.90735e-06 381L0 440V0Z"/>
</mask>
<path d="M219 0L219.707 -0.707107L219.414 -1H219V0ZM0 0V-1H-1V0H0ZM247.806 28.8056L248.513 28.0984L248.513 28.0984L247.806 28.8056ZM280 61H281V60.5858L280.707 60.2929L280 61ZM280 440V441H281V440H280ZM59 440L58.2929 440.707L58.5858 441H59V440ZM31.1389 412.139L31.846 411.432L31.846 411.432L31.1389 412.139ZM1.90735e-06 381L0.707109 380.293L-0.999998 378.586L-0.999998 381L1.90735e-06 381ZM219 -1H0V1H219V-1ZM248.513 28.0984L219.707 -0.707107L218.293 0.707107L247.098 29.5127L248.513 28.0984ZM280.707 60.2929L248.513 28.0984L247.098 29.5127L279.293 61.7071L280.707 60.2929ZM281 440V61H279V440H281ZM59 441H280V439H59V441ZM30.4318 412.846L58.2929 440.707L59.7071 439.293L31.846 411.432L30.4318 412.846ZM-0.707105 381.707L30.4318 412.846L31.846 411.432L0.707109 380.293L-0.707105 381.707ZM1 440L1 381L-0.999998 381L-1 440L1 440ZM-1 0V440H1V0H-1Z" fill="white" mask="url(#path-1-inside-1_3072_4182)"/>
</svg>
