<svg width="919" height="556" viewBox="0 0 919 556" fill="none" xmlns="http://www.w3.org/2000/svg">
<circle cx="234" cy="96" r="1" fill="white"/>
<circle cx="149" cy="64" r="2" fill="white"/>
<circle cx="355" cy="137" r="2" fill="white"/>
<g filter="url(#filter0_f_3028_4580)">
<circle cx="782" cy="223" r="2" fill="white"/>
</g>
<circle cx="615" cy="11" r="2" fill="white"/>
<circle cx="746" cy="555" r="1" fill="white"/>
<g filter="url(#filter1_f_3028_4580)">
<circle cx="257" cy="182" r="1" fill="white"/>
</g>
<circle cx="455" cy="94" r="1" fill="white"/>
<g filter="url(#filter2_f_3028_4580)">
<circle cx="339" cy="43" r="1" fill="white"/>
</g>
<circle cx="572" cy="94" r="1" fill="white"/>
<circle cx="731" cy="330" r="1" fill="white"/>
<circle cx="686" cy="194" r="1" fill="white"/>
<circle cx="918" cy="31" r="1" fill="white"/>
<circle cx="733" cy="69" r="1" fill="white"/>
<g filter="url(#filter3_f_3028_4580)">
<circle cx="259" cy="541" r="1" fill="white"/>
</g>
<circle cx="1" cy="1" r="1" fill="white"/>
<circle cx="230" cy="331" r="1" fill="white"/>
<defs>
<filter id="filter0_f_3028_4580" x="772" y="213" width="20" height="20" filterUnits="userSpaceOnUse" color-interpolation-filters="sRGB">
<feFlood flood-opacity="0" result="BackgroundImageFix"/>
<feBlend mode="normal" in="SourceGraphic" in2="BackgroundImageFix" result="shape"/>
<feGaussianBlur stdDeviation="4" result="effect1_foregroundBlur_3028_4580"/>
</filter>
<filter id="filter1_f_3028_4580" x="250" y="175" width="14" height="14" filterUnits="userSpaceOnUse" color-interpolation-filters="sRGB">
<feFlood flood-opacity="0" result="BackgroundImageFix"/>
<feBlend mode="normal" in="SourceGraphic" in2="BackgroundImageFix" result="shape"/>
<feGaussianBlur stdDeviation="3" result="effect1_foregroundBlur_3028_4580"/>
</filter>
<filter id="filter2_f_3028_4580" x="333" y="37" width="12" height="12" filterUnits="userSpaceOnUse" color-interpolation-filters="sRGB">
<feFlood flood-opacity="0" result="BackgroundImageFix"/>
<feBlend mode="normal" in="SourceGraphic" in2="BackgroundImageFix" result="shape"/>
<feGaussianBlur stdDeviation="2.5" result="effect1_foregroundBlur_3028_4580"/>
</filter>
<filter id="filter3_f_3028_4580" x="250" y="532" width="18" height="18" filterUnits="userSpaceOnUse" color-interpolation-filters="sRGB">
<feFlood flood-opacity="0" result="BackgroundImageFix"/>
<feBlend mode="normal" in="SourceGraphic" in2="BackgroundImageFix" result="shape"/>
<feGaussianBlur stdDeviation="4" result="effect1_foregroundBlur_3028_4580"/>
</filter>
</defs>
</svg>
