<svg width="1668" height="814" viewBox="0 0 1668 814" fill="none" xmlns="http://www.w3.org/2000/svg">
<path d="M519 641L1149 641" stroke="#D9D9D9" stroke-opacity="0.1" stroke-linecap="round"/>
<path d="M519 174L519 641" stroke="#D9D9D9" stroke-opacity="0.1" stroke-linecap="round"/>
<path d="M389 109L389 704" stroke="#D9D9D9" stroke-opacity="0.1" stroke-linecap="round"/>
<path d="M259 44L259 768" stroke="#D9D9D9" stroke-opacity="0.1" stroke-linecap="round"/>
<path d="M129 1L129 764" stroke="#D9D9D9" stroke-opacity="0.1" stroke-linecap="round"/>
<path d="M1279 109L1279 704.5" stroke="#D9D9D9" stroke-opacity="0.1" stroke-linecap="round"/>
<path d="M1409 44L1409 768.5" stroke="#D9D9D9" stroke-opacity="0.1" stroke-linecap="round"/>
<path d="M1539 87L1539 811" stroke="#D9D9D9" stroke-opacity="0.1" stroke-linecap="round"/>
<path d="M1149 174L1149 641" stroke="#D9D9D9" stroke-opacity="0.1" stroke-linecap="round"/>
<path d="M518.5 641L174 810.5" stroke="#D9D9D9" stroke-opacity="0.1"/>
<path d="M1149 641L1493.5 810.5" stroke="#D9D9D9" stroke-opacity="0.1"/>
<path d="M389 705H1279" stroke="#D9D9D9" stroke-opacity="0.1"/>
<path d="M259 768H1409" stroke="#D9D9D9" stroke-opacity="0.1" stroke-linecap="round"/>
<path d="M518.5 517L1 636.5" stroke="#D9D9D9" stroke-opacity="0.1"/>
<path d="M1150 517L1667.5 636.5" stroke="#D9D9D9" stroke-opacity="0.1"/>
<path d="M834 641V811" stroke="#D9D9D9" stroke-opacity="0.1"/>
<path d="M758.5 641L646 812" stroke="#D9D9D9" stroke-opacity="0.1"/>
<path d="M629 641L452 809" stroke="#D9D9D9" stroke-opacity="0.1"/>
<path d="M909 642L1021.5 813" stroke="#D9D9D9" stroke-opacity="0.1"/>
<path d="M1038.5 642L1215.5 810" stroke="#D9D9D9" stroke-opacity="0.1"/>
<path d="M519 174L174 1" stroke="#D9D9D9" stroke-opacity="0.1"/>
<path d="M1149 174L1467.5 14" stroke="#D9D9D9" stroke-opacity="0.1"/>
<path d="M519.5 307.5L2 188" stroke="#D9D9D9" stroke-opacity="0.1"/>
<path d="M1149 307.5L1646 192.5" stroke="#D9D9D9" stroke-opacity="0.1"/>
</svg>
