<svg width="282" height="380" viewBox="0 0 282 380" fill="none" xmlns="http://www.w3.org/2000/svg">
<path d="M62 238H220" stroke="#D9D9D9" stroke-opacity="0.1" stroke-width="0.5" stroke-linecap="square"/>
<path d="M26 261H257" stroke="#D9D9D9" stroke-opacity="0.1" stroke-width="0.5" stroke-linecap="square"/>
<path d="M2 301L280 301" stroke="#D9D9D9" stroke-opacity="0.1" stroke-width="0.5" stroke-linecap="square"/>
<path d="M2 139L62 139" stroke="#D9D9D9" stroke-opacity="0.1" stroke-width="0.5" stroke-linecap="square"/>
<path d="M220 139L280 139" stroke="#D9D9D9" stroke-opacity="0.1" stroke-width="0.5" stroke-linecap="square"/>
<path d="M32 351L280 351" stroke="#D9D9D9" stroke-opacity="0.1" stroke-width="0.5" stroke-linecap="square"/>
<path d="M62 238L62 39" stroke="#D9D9D9" stroke-opacity="0.1" stroke-width="0.5" stroke-linecap="round"/>
<path d="M141 379L141 238" stroke="#D9D9D9" stroke-opacity="0.1" stroke-width="0.5" stroke-linecap="round"/>
<path d="M26 261L26 17" stroke="#D9D9D9" stroke-opacity="0.1" stroke-width="0.5" stroke-linecap="round"/>
<path d="M280 1L220 39" stroke="#D9D9D9" stroke-opacity="0.1" stroke-width="0.5" stroke-linecap="round"/>
<path d="M2 1L62 39" stroke="#D9D9D9" stroke-opacity="0.1" stroke-width="0.5" stroke-linecap="round"/>
<path d="M280 276L220 238" stroke="#D9D9D9" stroke-opacity="0.1" stroke-width="0.5" stroke-linecap="round"/>
<path d="M2 276L62 238" stroke="#D9D9D9" stroke-opacity="0.1" stroke-width="0.5" stroke-linecap="round"/>
<path d="M220 238V39" stroke="#D9D9D9" stroke-opacity="0.1" stroke-width="0.5" stroke-linecap="round"/>
<path d="M257 261L257 16" stroke="#D9D9D9" stroke-opacity="0.1" stroke-width="0.5" stroke-linecap="round"/>
<path d="M99 238L38 357" stroke="#D9D9D9" stroke-opacity="0.1" stroke-width="0.5"/>
<path d="M184 238L257 379" stroke="#D9D9D9" stroke-opacity="0.1" stroke-width="0.5"/>
<path d="M62 90L1 71" stroke="#D9D9D9" stroke-opacity="0.1" stroke-width="0.5"/>
<path d="M220 90L281 71" stroke="#D9D9D9" stroke-opacity="0.1" stroke-width="0.5"/>
<path d="M62 186L1 205" stroke="#D9D9D9" stroke-opacity="0.1" stroke-width="0.5"/>
<path d="M220 186L281 205" stroke="#D9D9D9" stroke-opacity="0.1" stroke-width="0.5"/>
</svg>
