<svg width="1125" height="92" viewBox="0 0 1125 92" fill="none" xmlns="http://www.w3.org/2000/svg">
<path d="M73.2702 91.8879L82.3143 82.8304V45.944L73.2702 36.7552H18.3503V18.3776H64.0951V27.5664H82.3143V9.32006L73.2702 0H9.04409L0 9.32006V48.7006L9.04409 55.264H64.0951V73.5103H18.3503V64.4528H0V82.8304L9.04409 91.8879H73.2702Z" fill="white" fill-opacity="0.4"/>
<path d="M173.219 91.8879V73.5103H113.712V55.264H168.632V36.8864H113.712V18.3776H173.219V0H95.3613V91.8879H173.219Z" fill="white" fill-opacity="0.4"/>
<path d="M203.313 46.0752V18.3776H249.058V46.0752H203.313ZM267.277 91.8879V73.5103L258.233 64.4528L267.277 55.264V9.32006L258.233 0H184.963V91.8879H203.313V64.4528H230.707L239.882 73.5103L249.058 82.8304V91.8879H267.277Z" fill="white" fill-opacity="0.4"/>
<path d="M298.674 91.8879V0H280.324V91.8879H298.674Z" fill="white" fill-opacity="0.4"/>
<path d="M330.163 73.5103V18.3776H375.907V73.5103H330.163ZM385.082 91.8879L394.127 82.8304V9.32006L385.082 0H320.856L311.812 9.32006V82.8304L320.856 91.8879H385.082Z" fill="white" fill-opacity="0.4"/>
<path d="M407.174 0V82.8304L416.218 91.8879H480.444L489.488 82.8304V0H471.269V73.5103H425.524V0H407.174Z" fill="white" fill-opacity="0.4"/>
<path d="M575.805 91.8879L584.849 82.8304V45.944L575.805 36.7552H520.885V18.3776H566.63V27.5664H584.849V9.32006L575.805 0H511.579L502.535 9.32006V48.7006L511.579 55.264H566.63V73.5103H520.885V64.4528H502.535V82.8304L511.579 91.8879H575.805Z" fill="white" fill-opacity="0.4"/>
<path d="M685.687 91.8879L694.731 82.8304V39.2493H653.443V57.6269H676.512V73.5103H630.767V18.3776H676.512V27.5664H694.731V9.32006L685.687 0H621.461L612.417 9.32006V82.8304L621.461 91.8879H685.687Z" fill="white" fill-opacity="0.4"/>
<path d="M724.818 46.0752V36.8864L743.037 18.3776H770.562V46.0752H724.818ZM724.818 91.8879V64.4528H770.562V91.8879H788.782V0H733.862L706.467 27.6976V91.8879H724.818Z" fill="white" fill-opacity="0.4"/>
<path d="M820.21 91.8879V29.9292L844.72 65.2404H860.056L884.043 29.9292V91.8879H902.393V0H884.698L852.192 44.5L820.21 0H801.859V91.8879H820.21Z" fill="white" fill-opacity="0.4"/>
<path d="M933.875 91.8879V0H915.525V91.8879H933.875Z" fill="white" fill-opacity="0.4"/>
<path d="M1029.33 91.8879V0H1011.11V61.1711L965.364 0H947.013V91.8879H965.364V30.5856L1011.11 91.8879H1029.33Z" fill="white" fill-opacity="0.4"/>
<path d="M1115.64 91.8879L1124.69 82.8304V39.2493H1083.4V57.6269H1106.47V73.5103H1060.72V18.3776H1106.47V27.5664H1124.69V9.32006L1115.64 0H1051.42L1042.37 9.32006V82.8304L1051.42 91.8879H1115.64Z" fill="white" fill-opacity="0.4"/>
</svg>
