<svg width="280" height="103" viewBox="0 0 280 103" fill="none" xmlns="http://www.w3.org/2000/svg">
<path d="M206.609 56.1802L209.085 53.0341L206.667 49.957H207.471L209.475 52.5328L211.468 49.957H212.273L209.855 53.0341L212.33 56.1802H211.514L209.475 53.5354L207.425 56.1802H206.609Z" fill="#1B1B1B"/>
<path d="M203.396 56.3541C202.837 56.3541 202.364 56.2081 201.978 55.9162C201.591 55.6242 201.296 55.2305 201.093 54.7349C200.89 54.2394 200.789 53.6804 200.789 53.0581C200.789 52.4319 200.89 51.873 201.093 51.3813C201.296 50.8857 201.597 50.4958 201.995 50.2116C202.393 49.9273 202.881 49.7852 203.46 49.7852C204.022 49.7852 204.503 49.9292 204.901 50.2173C205.299 50.5054 205.602 50.8973 205.809 51.3928C206.019 51.8884 206.125 52.4435 206.125 53.0581C206.125 53.6804 206.017 54.2413 205.803 54.7407C205.592 55.2362 205.284 55.63 204.878 55.9219C204.476 56.2101 203.982 56.3541 203.396 56.3541ZM200.68 58.9471V49.958H201.283V54.7522H201.34V58.9471H200.68ZM203.356 55.7203C203.812 55.7203 204.191 55.6031 204.493 55.3688C204.8 55.1344 205.029 54.8175 205.183 54.418C205.34 54.0146 205.418 53.5613 205.418 53.0581C205.418 52.5587 205.342 52.1112 205.188 51.7155C205.039 51.316 204.811 51.001 204.505 50.7705C204.202 50.5362 203.816 50.419 203.345 50.419C202.889 50.419 202.508 50.5323 202.202 50.759C201.895 50.9818 201.666 51.2929 201.513 51.6925C201.359 52.092 201.283 52.5472 201.283 53.0581C201.283 53.5652 201.357 54.0204 201.507 54.4238C201.66 54.8233 201.89 55.1402 202.196 55.3745C202.506 55.605 202.893 55.7203 203.356 55.7203Z" fill="#1B1B1B"/>
<path d="M194.21 56.3533C193.777 56.3533 193.377 56.2649 193.009 56.0882C192.646 55.9115 192.336 55.6676 192.079 55.3564C191.826 55.0414 191.646 54.6842 191.539 54.2847L192.171 54.1118C192.255 54.4345 192.401 54.7149 192.607 54.9531C192.814 55.1874 193.057 55.3699 193.337 55.5005C193.616 55.6273 193.909 55.6906 194.216 55.6906C194.618 55.6906 194.978 55.5946 195.295 55.4025C195.613 55.2066 195.864 54.9492 196.048 54.6304C196.235 54.3077 196.329 53.9562 196.329 53.5759C196.329 53.1764 196.232 52.8172 196.036 52.4984C195.841 52.1795 195.583 51.926 195.261 51.7378C194.943 51.5495 194.595 51.4554 194.216 51.4554C193.806 51.4554 193.446 51.5514 193.136 51.7435C192.829 51.9317 192.582 52.1776 192.395 52.4811L191.763 52.1699L192.016 47.8828H196.404V48.5282H192.263L192.653 48.1652L192.412 52.0604L192.217 51.7838C192.458 51.4881 192.757 51.2537 193.113 51.0809C193.469 50.908 193.85 50.8216 194.256 50.8216C194.761 50.8216 195.221 50.9445 195.634 51.1903C196.048 51.4362 196.377 51.7685 196.622 52.1872C196.871 52.6021 196.995 53.065 196.995 53.5759C196.995 54.0791 196.869 54.542 196.616 54.9646C196.364 55.3833 196.025 55.7195 195.6 55.973C195.179 56.2265 194.715 56.3533 194.21 56.3533Z" fill="#1B1B1B"/>
<path d="M188.922 56.1804V48.6377L187.359 49.5769V48.8163L188.922 47.8828H189.588V56.1804H188.922Z" fill="#1B1B1B"/>
<path d="M59.2336 50.4263H51.737C51.6451 50.4263 51.6389 50.3925 51.7217 50.3494L63.0846 44.4988C63.1674 44.4557 63.1613 44.4219 63.0693 44.4219H58.3843C58.2862 44.4219 58.1452 44.4557 58.0624 44.4988L49.2075 49.0759C49.1217 49.119 49.0542 49.2236 49.0542 49.322V44.5911C49.0542 44.4988 48.9837 44.4219 48.8856 44.4219H46.8405C46.7485 44.4219 46.6719 44.4988 46.6719 44.5911V58.6178C46.6719 58.7101 46.7485 58.787 46.8405 58.787H48.8856C48.9837 58.787 49.0542 58.7101 49.0542 58.6178V52.6687C49.0542 52.761 49.1309 52.8379 49.229 52.8379L59.4084 52.8225C60.4601 52.8225 60.9844 53.4131 60.9844 54.5943V58.6178C60.9844 58.7101 61.0549 58.787 61.153 58.787H63.2195C63.3115 58.787 63.3882 58.7101 63.3882 58.6178V53.9761C63.3851 51.6167 61.9992 50.4263 59.2336 50.4263Z" fill="#171117"/>
<path d="M67.8071 52.8256C67.7151 52.8256 67.6385 52.9025 67.6385 52.9948V58.6209C67.6385 58.7132 67.5618 58.7901 67.4698 58.7901H65.4248C65.3266 58.7901 65.25 58.7132 65.25 58.6209V50.5986C65.25 50.5063 65.3266 50.4294 65.4248 50.4294H81.7946C81.8927 50.4294 81.9632 50.5063 81.9632 50.5986V52.6595C81.9632 52.7518 81.8927 52.8287 81.7946 52.8287H67.8071V52.8256ZM65.4278 46.8212C65.3297 46.8212 65.2531 46.7443 65.2531 46.652V44.5911C65.2531 44.4988 65.3297 44.4219 65.4278 44.4219H81.7977C81.8958 44.4219 81.9663 44.4988 81.9663 44.5911V46.652C81.9663 46.7443 81.8958 46.8212 81.7977 46.8212H65.4278Z" fill="#171117"/>
<path d="M81.6538 58.832C81.5557 58.832 81.5127 58.7612 81.5557 58.6782L87.461 46.8446C87.8596 46.0418 88.1968 45.4881 88.4636 45.1774C88.8192 44.7621 89.2822 44.5161 89.8494 44.4453C90.4167 44.5161 90.8796 44.756 91.2353 45.1559C91.361 45.2974 91.5021 45.5065 91.6707 45.7957C91.8332 46.0756 92.1551 46.6877 92.1551 46.6877C92.1981 46.7708 92.2686 46.9061 92.3084 46.9892L98.1217 58.6751C98.1647 58.7581 98.1156 58.8289 98.0236 58.8289H95.9785C95.8866 58.8289 95.7762 58.7581 95.7333 58.6751L90.4443 48.0351C90.2204 47.5767 90.0242 47.3522 89.8709 47.3522C89.7023 47.3522 89.3681 47.8874 89.3681 47.8874C89.319 47.9705 89.2424 48.1058 89.1994 48.1827L83.9227 58.6751C83.8798 58.7581 83.7694 58.8289 83.6774 58.8289H81.6538V58.832Z" fill="#171117"/>
<path d="M104.03 52.8256H104.063C104.113 52.8256 104.232 52.8256 104.324 52.8256L112.596 52.8102C112.606 52.8102 112.615 52.8102 112.624 52.8072V52.8102C115.39 52.8102 116.785 51.5952 116.785 49.2297V48.0147C116.785 45.6185 115.399 44.4219 112.63 44.4219H100.216C100.124 44.4219 100.047 44.4988 100.047 44.5911V46.6243C100.047 46.7228 100.124 46.7997 100.216 46.7997H112.799C113.85 46.7997 114.375 47.9962 114.375 48.593C114.375 49.1897 113.884 50.3648 112.832 50.3863C112.802 50.3863 112.756 50.3894 112.713 50.3955C112.698 50.3894 112.679 50.3863 112.664 50.3863C112.664 50.3863 104.201 50.4294 104.18 50.4294C101.427 50.4355 100.047 51.6321 100.047 53.9791V58.6209C100.047 58.7132 100.124 58.7901 100.216 58.7901H116.616C116.708 58.7901 116.785 58.7132 116.785 58.6209V56.5815C116.785 56.4892 116.708 56.4123 116.616 56.4123H102.619C102.527 56.4123 102.451 56.3354 102.451 56.2431V54.5974C102.454 53.4162 102.978 52.8256 104.03 52.8256Z" fill="#171117"/>
<path fill-rule="evenodd" clip-rule="evenodd" d="M129.471 79.963C129.471 80.0956 129.364 80.2031 129.233 80.2031C129.101 80.2031 128.994 80.0956 128.994 79.963V59.9973L126.581 65.6474C126.528 65.7693 126.388 65.8257 126.266 65.7735C126.145 65.7212 126.088 65.5801 126.141 65.4582L128.869 59.0712H118.7C118.568 59.0712 118.461 58.9634 118.461 58.8305C118.461 58.6976 118.568 58.5898 118.7 58.5898H129.208C129.216 58.589 129.224 58.5887 129.232 58.5887C129.24 58.5887 129.248 58.589 129.256 58.5898H139.764C139.896 58.5898 140.003 58.6976 140.003 58.8305C140.003 58.9634 139.896 59.0712 139.764 59.0712H129.596L132.324 65.4582C132.376 65.5801 132.32 65.7212 132.199 65.7735C132.077 65.8257 131.936 65.7693 131.884 65.6474L129.471 59.9987V79.963ZM118.7 44.1836C118.568 44.1836 118.461 44.2913 118.461 44.4243C118.461 44.5572 118.568 44.6649 118.7 44.6649H139.764C139.896 44.6649 140.003 44.5572 140.003 44.4243C140.003 44.2913 139.896 44.1836 139.764 44.1836H129.594L132.324 37.7918C132.376 37.6699 132.32 37.5288 132.199 37.4765C132.077 37.4243 131.936 37.4807 131.884 37.6026L129.469 43.2558V23.2909C129.469 23.1583 129.363 23.0508 129.231 23.0508C129.099 23.0508 128.992 23.1583 128.992 23.2909V43.2481L126.581 37.6026C126.528 37.4807 126.388 37.4243 126.266 37.4765C126.145 37.5288 126.088 37.6699 126.141 37.7918L128.871 44.1836H118.7Z" fill="#7C7C7C"/>
</svg>
