<svg width="780" height="145" viewBox="0 0 780 145" fill="none" xmlns="http://www.w3.org/2000/svg">
<rect width="780" height="145" fill="#1D1B26"/>
<path d="M36.9151 28.0591H26.8205C26.6967 28.0591 26.6884 28.0137 26.7999 27.9559L42.1007 20.1032C42.2122 20.0454 42.2039 20 42.0801 20H35.7715C35.6394 20 35.4494 20.0454 35.338 20.1032L23.4144 26.2467C23.2988 26.3045 23.208 26.4448 23.208 26.5769V20.2271C23.208 20.1032 23.113 20 22.9809 20H20.2271C20.1032 20 20 20.1032 20 20.2271V39.0538C20 39.1776 20.1032 39.2808 20.2271 39.2808H22.9809C23.113 39.2808 23.208 39.1776 23.208 39.0538V31.0689C23.208 31.1928 23.3112 31.296 23.4433 31.296L37.1504 31.2754C38.5666 31.2754 39.2726 32.0681 39.2726 33.6535V39.0538C39.2726 39.1776 39.3675 39.2808 39.4996 39.2808H42.2824C42.4062 39.2808 42.5094 39.1776 42.5094 39.0538V32.8236C42.5053 29.6569 40.6392 28.0591 36.9151 28.0591Z" fill="white"/>
<path d="M48.4667 31.2795C48.3429 31.2795 48.2397 31.3827 48.2397 31.5066V39.0579C48.2397 39.1817 48.1364 39.285 48.0126 39.285H45.2588C45.1267 39.285 45.0234 39.1817 45.0234 39.0579V28.2903C45.0234 28.1665 45.1267 28.0633 45.2588 28.0633H67.3017C67.4338 28.0633 67.5287 28.1665 67.5287 28.2903V31.0565C67.5287 31.1804 67.4338 31.2836 67.3017 31.2836H48.4667V31.2795ZM45.2629 23.2203C45.1308 23.2203 45.0276 23.1171 45.0276 22.9933V20.2271C45.0276 20.1032 45.1308 20 45.2629 20H67.3058C67.4379 20 67.5329 20.1032 67.5329 20.2271V22.9933C67.5329 23.1171 67.4379 23.2203 67.3058 23.2203H45.2629Z" fill="white"/>
<path d="M67.1076 39.341C66.9755 39.341 66.9177 39.246 66.9755 39.1345L74.9273 23.2516C75.464 22.174 75.9182 21.4309 76.2774 21.0139C76.7563 20.4565 77.3797 20.1262 78.1435 20.0312C78.9073 20.1262 79.5307 20.4482 80.0097 20.985C80.1789 21.1749 80.3689 21.4556 80.5959 21.8437C80.8148 22.2194 81.2483 23.041 81.2483 23.041C81.3061 23.1525 81.401 23.3342 81.4547 23.4457L89.2826 39.1304C89.3404 39.2419 89.2744 39.3369 89.1505 39.3369H86.3967C86.2728 39.3369 86.1242 39.2419 86.0664 39.1304L78.9445 24.8494C78.6431 24.2342 78.3788 23.9328 78.1724 23.9328C77.9453 23.9328 77.4953 24.6512 77.4953 24.6512C77.4292 24.7627 77.326 24.9444 77.2682 25.0476L70.1628 39.1304C70.105 39.2419 69.9564 39.3369 69.8325 39.3369H67.1076V39.341Z" fill="white"/>
<path d="M97.2381 31.2795H97.2835C97.3496 31.2795 97.5106 31.2795 97.6345 31.2795L108.774 31.2588C108.786 31.2588 108.798 31.2588 108.811 31.2547V31.2588C112.535 31.2588 114.413 29.628 114.413 26.4531V24.8223C114.413 21.606 112.547 20 108.819 20H92.1021C91.9782 20 91.875 20.1032 91.875 20.2271V22.9561C91.875 23.0882 91.9782 23.1915 92.1021 23.1915H109.046C110.462 23.1915 111.168 24.7975 111.168 25.5985C111.168 26.3994 110.508 27.9766 109.092 28.0055C109.05 28.0055 108.988 28.0096 108.93 28.0179C108.91 28.0096 108.885 28.0055 108.864 28.0055C108.864 28.0055 97.4693 28.0633 97.4404 28.0633C93.7329 28.0715 91.875 29.6776 91.875 32.8277V39.0579C91.875 39.1817 91.9782 39.285 92.1021 39.285H114.186C114.31 39.285 114.413 39.1817 114.413 39.0579V36.3206C114.413 36.1967 114.31 36.0935 114.186 36.0935H95.3389C95.2151 36.0935 95.1119 35.9903 95.1119 35.8664V33.6576C95.116 32.0722 95.822 31.2795 97.2381 31.2795Z" fill="white"/>
</svg>
