<svg width="203" height="75" viewBox="0 0 203 75" fill="none" xmlns="http://www.w3.org/2000/svg">
<rect width="203" height="75" fill="#1D1B26"/>
<path d="M17.9094 13.5068H13.0121C12.952 13.5068 12.948 13.4849 13.002 13.4571L20.4251 9.67472C20.4792 9.64687 20.4752 9.625 20.4151 9.625H17.3545C17.2904 9.625 17.1983 9.64687 17.1442 9.67472L11.3596 12.6338C11.3035 12.6616 11.2594 12.7292 11.2594 12.7929V9.73437C11.2594 9.67471 11.2134 9.625 11.1493 9.625H9.81329C9.7532 9.625 9.70312 9.67471 9.70312 9.73437V18.8025C9.70312 18.8622 9.7532 18.9119 9.81329 18.9119H11.1493C11.2134 18.9119 11.2594 18.8622 11.2594 18.8025V14.9565C11.2594 15.0162 11.3095 15.0659 11.3736 15.0659L18.0235 15.0559C18.7105 15.0559 19.0531 15.4377 19.0531 16.2014V18.8025C19.0531 18.8622 19.0991 18.9119 19.1632 18.9119H20.5132C20.5733 18.9119 20.6234 18.8622 20.6234 18.8025V15.8017C20.6214 14.2764 19.7161 13.5068 17.9094 13.5068Z" fill="white"/>
<path d="M23.5142 15.0579C23.4541 15.0579 23.4041 15.1076 23.4041 15.1673V18.8045C23.4041 18.8641 23.354 18.9139 23.2939 18.9139H21.9579C21.8938 18.9139 21.8438 18.8641 21.8438 18.8045V13.6182C21.8438 13.5585 21.8938 13.5088 21.9579 13.5088H32.6519C32.716 13.5088 32.762 13.5585 32.762 13.6182V14.9505C32.762 15.0102 32.716 15.0599 32.6519 15.0599H23.5142V15.0579ZM21.9599 11.1761C21.8958 11.1761 21.8458 11.1264 21.8458 11.0668V9.73437C21.8458 9.67471 21.8958 9.625 21.9599 9.625H32.6539C32.718 9.625 32.764 9.67471 32.764 9.73437V11.0668C32.764 11.1264 32.718 11.1761 32.6539 11.1761H21.9599Z" fill="white"/>
<path d="M32.5593 18.9414C32.4952 18.9414 32.4672 18.8957 32.4952 18.842L36.353 11.1918C36.6134 10.6727 36.8337 10.3148 37.008 10.1139C37.2403 9.84545 37.5427 9.68636 37.9133 9.64062C38.2839 9.68636 38.5863 9.84148 38.8187 10.1C38.9008 10.1915 38.9929 10.3267 39.1031 10.5136C39.2092 10.6946 39.4195 11.0903 39.4195 11.0903C39.4476 11.144 39.4937 11.2315 39.5197 11.2852L43.3174 18.84C43.3454 18.8937 43.3133 18.9394 43.2533 18.9394H41.9173C41.8572 18.9394 41.7851 18.8937 41.757 18.84L38.3019 11.9613C38.1557 11.665 38.0275 11.5199 37.9273 11.5199C37.8172 11.5199 37.5988 11.8659 37.5988 11.8659C37.5668 11.9196 37.5167 12.0071 37.4887 12.0568L34.0415 18.84C34.0135 18.8937 33.9414 18.9394 33.8813 18.9394H32.5593V18.9414Z" fill="white"/>
<path d="M47.18 15.0579H47.202C47.2341 15.0579 47.3122 15.0579 47.3723 15.0579L52.7763 15.048C52.7824 15.048 52.7884 15.048 52.7944 15.046V15.048C54.6011 15.048 55.5124 14.2625 55.5124 12.7332V11.9477C55.5124 10.3986 54.6071 9.625 52.7984 9.625H44.6883C44.6282 9.625 44.5781 9.67471 44.5781 9.73437V11.0489C44.5781 11.1125 44.6282 11.1622 44.6883 11.1622H52.9085C53.5956 11.1622 53.9381 11.9358 53.9381 12.3216C53.9381 12.7074 53.6176 13.467 52.9306 13.4809C52.9105 13.4809 52.8805 13.4829 52.8525 13.4869C52.8424 13.4829 52.8304 13.4809 52.8204 13.4809C52.8204 13.4809 47.2922 13.5088 47.2782 13.5088C45.4795 13.5128 44.5781 14.2863 44.5781 15.8037V18.8045C44.5781 18.8641 44.6282 18.9139 44.6883 18.9139H55.4023C55.4623 18.9139 55.5124 18.8641 55.5124 18.8045V17.486C55.5124 17.4264 55.4623 17.3767 55.4023 17.3767H46.2586C46.1985 17.3767 46.1485 17.3269 46.1485 17.2673V16.2034C46.1505 15.4397 46.493 15.0579 47.18 15.0579Z" fill="white"/>
</svg>
