<svg width="68" height="137" viewBox="0 0 68 137" fill="none" xmlns="http://www.w3.org/2000/svg">
<rect width="68.0005" height="137" fill="#1D1B26"/>
<path d="M14.3877 11.9685H11.4941C11.4586 11.9685 11.4563 11.9553 11.4882 11.9386L15.8741 9.66658C15.9061 9.64986 15.9037 9.63672 15.8682 9.63672H14.0599C14.022 9.63672 13.9676 9.64986 13.9356 9.66658L10.5178 11.4441C10.4846 11.4608 10.4586 11.5014 10.4586 11.5396V9.70242C10.4586 9.66658 10.4314 9.63672 10.3935 9.63672H9.60415C9.56865 9.63672 9.53906 9.66658 9.53906 9.70242V15.1496C9.53906 15.1854 9.56865 15.2153 9.60415 15.2153H10.3935C10.4314 15.2153 10.4586 15.1854 10.4586 15.1496V12.8393C10.4586 12.8752 10.4882 12.905 10.5261 12.905L14.4552 12.899C14.8611 12.899 15.0635 13.1284 15.0635 13.5871V15.1496C15.0635 15.1854 15.0907 15.2153 15.1285 15.2153H15.9262C15.9617 15.2153 15.9913 15.1854 15.9913 15.1496V13.347C15.9901 12.4308 15.4552 11.9685 14.3877 11.9685Z" fill="white"/>
<path d="M17.6979 12.9002C17.6624 12.9002 17.6329 12.9301 17.6329 12.9659V15.1508C17.6329 15.1866 17.6033 15.2165 17.5678 15.2165H16.7784C16.7405 15.2165 16.7109 15.1866 16.7109 15.1508V12.0354C16.7109 11.9995 16.7405 11.9697 16.7784 11.9697H23.0969C23.1348 11.9697 23.162 11.9995 23.162 12.0354V12.8357C23.162 12.8716 23.1348 12.9014 23.0969 12.9014H17.6979V12.9002ZM16.7796 10.5685C16.7417 10.5685 16.7121 10.5386 16.7121 10.5028V9.70242C16.7121 9.66658 16.7417 9.63672 16.7796 9.63672H23.0981C23.1359 9.63672 23.1632 9.66658 23.1632 9.70242V10.5028C23.1632 10.5386 23.1359 10.5685 23.0981 10.5685H16.7796Z" fill="white"/>
<path d="M23.0443 15.2315C23.0064 15.2315 22.9898 15.204 23.0064 15.1717L25.2858 10.5763C25.4396 10.2645 25.5698 10.0495 25.6727 9.92884C25.81 9.76757 25.9887 9.67201 26.2077 9.64453C26.4266 9.67201 26.6053 9.76518 26.7426 9.92047C26.7911 9.97542 26.8456 10.0567 26.9106 10.1689C26.9734 10.2776 27.0976 10.5154 27.0976 10.5154C27.1142 10.5476 27.1414 10.6002 27.1568 10.6324L29.4007 15.1705C29.4172 15.2028 29.3983 15.2303 29.3628 15.2303H28.5734C28.5379 15.2303 28.4953 15.2028 28.4787 15.1705L26.4373 11.0386C26.3509 10.8606 26.2751 10.7734 26.216 10.7734C26.1509 10.7734 26.0219 10.9812 26.0219 10.9812C26.0029 11.0135 25.9733 11.0661 25.9568 11.0959L23.92 15.1705C23.9035 15.2028 23.8609 15.2303 23.8254 15.2303H23.0443V15.2315Z" fill="white"/>
<path d="M31.6779 12.9002H31.691C31.7099 12.9002 31.7561 12.9002 31.7916 12.9002L34.9845 12.8943C34.9881 12.8943 34.9916 12.8943 34.9952 12.8931V12.8943C36.0627 12.8943 36.6011 12.4224 36.6011 11.5038V11.032C36.6011 10.1014 36.0662 9.63672 34.9976 9.63672H30.2057C30.1702 9.63672 30.1406 9.66658 30.1406 9.70242V10.492C30.1406 10.5302 30.1702 10.5601 30.2057 10.5601H35.0626C35.4686 10.5601 35.6709 11.0248 35.6709 11.2565C35.6709 11.4883 35.4816 11.9446 35.0757 11.953C35.0638 11.953 35.0461 11.9542 35.0295 11.9565C35.0236 11.9542 35.0165 11.953 35.0106 11.953C35.0106 11.953 31.7442 11.9697 31.7359 11.9697C30.6732 11.9721 30.1406 12.4368 30.1406 13.3482V15.1508C30.1406 15.1866 30.1702 15.2165 30.2057 15.2165H36.5361C36.5716 15.2165 36.6011 15.1866 36.6011 15.1508V14.3588C36.6011 14.323 36.5716 14.2931 36.5361 14.2931H31.1335C31.098 14.2931 31.0685 14.2632 31.0685 14.2274V13.5883C31.0696 13.1296 31.272 12.9002 31.6779 12.9002Z" fill="white"/>
</svg>
