<svg width="163" height="20" viewBox="0 0 163 20" fill="none" xmlns="http://www.w3.org/2000/svg">
<rect width="163" height="19.9922" fill="#1D1B26"/>
<path d="M10.781 8.20934H7.82988C7.79367 8.20934 7.79126 8.19605 7.82385 8.17914L12.2969 5.88176C12.3295 5.86485 12.3271 5.85156 12.2909 5.85156H10.4466C10.408 5.85156 10.3525 5.86485 10.3199 5.88176L6.83412 7.67908C6.80032 7.69599 6.77377 7.73706 6.77377 7.77571V5.91799C6.77377 5.88176 6.74601 5.85156 6.70738 5.85156H5.90232C5.86611 5.85156 5.83594 5.88176 5.83594 5.91799V11.4259C5.83594 11.4621 5.86611 11.4923 5.90232 11.4923H6.70738C6.74601 11.4923 6.77377 11.4621 6.77377 11.4259V9.08988C6.77377 9.12611 6.80394 9.15631 6.84257 9.15631L10.8498 9.15027C11.2638 9.15027 11.4702 9.38218 11.4702 9.84601V11.4259C11.4702 11.4621 11.4979 11.4923 11.5365 11.4923H12.3501C12.3863 11.4923 12.4164 11.4621 12.4164 11.4259V9.60322C12.4152 8.67678 11.8697 8.20934 10.781 8.20934Z" fill="white"/>
<path d="M14.1629 9.15148C14.1267 9.15148 14.0965 9.18168 14.0965 9.21791V11.4271C14.0965 11.4634 14.0663 11.4936 14.0301 11.4936H13.225C13.1864 11.4936 13.1562 11.4634 13.1562 11.4271V8.27698C13.1562 8.24074 13.1864 8.21054 13.225 8.21054H19.6692C19.7078 8.21054 19.7355 8.24074 19.7355 8.27698V9.08625C19.7355 9.12249 19.7078 9.15269 19.6692 9.15269H14.1629V9.15148ZM13.2263 6.7937C13.1876 6.7937 13.1575 6.76351 13.1575 6.72727V5.91799C13.1575 5.88176 13.1876 5.85156 13.2263 5.85156H19.6704C19.709 5.85156 19.7368 5.88176 19.7368 5.91799V6.72727C19.7368 6.76351 19.709 6.7937 19.6704 6.7937H13.2263Z" fill="white"/>
<path d="M19.6077 11.5086C19.569 11.5086 19.5521 11.4808 19.569 11.4482L21.8937 6.80152C22.0506 6.48626 22.1834 6.26885 22.2884 6.14685C22.4284 5.98379 22.6106 5.88716 22.8339 5.85938C23.0572 5.88716 23.2395 5.98137 23.3795 6.13839C23.429 6.19396 23.4845 6.27609 23.5509 6.38963C23.6149 6.49955 23.7416 6.73992 23.7416 6.73992C23.7585 6.77253 23.7863 6.82568 23.8019 6.85829L26.0904 11.447C26.1073 11.4796 26.088 11.5074 26.0518 11.5074H25.2467C25.2105 11.5074 25.1671 11.4796 25.1502 11.447L23.0681 7.26897C22.98 7.08899 22.9027 7.00082 22.8424 7.00082C22.776 7.00082 22.6444 7.21099 22.6444 7.21099C22.6251 7.2436 22.595 7.29675 22.5781 7.32695L20.5008 11.447C20.4839 11.4796 20.4405 11.5074 20.4043 11.5074H19.6077V11.5086Z" fill="white"/>
<path d="M28.4194 9.15148H28.4327C28.452 9.15148 28.4991 9.15148 28.5353 9.15148L31.7918 9.14544C31.7954 9.14544 31.799 9.14544 31.8026 9.14423V9.14544C32.8913 9.14544 33.4405 8.66833 33.4405 7.73947V7.26236C33.4405 6.32143 32.895 5.85156 31.805 5.85156H26.9179C26.8817 5.85156 26.8516 5.88176 26.8516 5.91799V6.7164C26.8516 6.75505 26.8817 6.78525 26.9179 6.78525H31.8714C32.2854 6.78525 32.4918 7.25511 32.4918 7.48944C32.4918 7.72377 32.2987 8.18518 31.8847 8.19363C31.8726 8.19363 31.8545 8.19484 31.8376 8.19726C31.8316 8.19484 31.8244 8.19363 31.8183 8.19363C31.8183 8.19363 28.487 8.21054 28.4786 8.21054C27.3947 8.21296 26.8516 8.68282 26.8516 9.60443V11.4271C26.8516 11.4634 26.8817 11.4936 26.9179 11.4936H33.3741C33.4103 11.4936 33.4405 11.4634 33.4405 11.4271V10.6263C33.4405 10.5901 33.4103 10.5599 33.3741 10.5599H27.8642C27.828 10.5599 27.7978 10.5297 27.7978 10.4934V9.84722C27.799 9.38339 28.0054 9.15148 28.4194 9.15148Z" fill="white"/>
</svg>
