<svg width="82" height="60" viewBox="0 0 82 60" fill="none" xmlns="http://www.w3.org/2000/svg">
<rect width="82" height="60" fill="#1D1B26"/>
<path d="M14.7184 12.0158H11.758C11.7217 12.0158 11.7193 12.0026 11.752 11.9858L16.2391 9.70575C16.2718 9.68897 16.2694 9.67578 16.2331 9.67578H14.383C14.3442 9.67578 14.2885 9.68897 14.2559 9.70575L10.7591 11.4895C10.7252 11.5063 10.6986 11.547 10.6986 11.5854V9.74171C10.6986 9.70575 10.6707 9.67578 10.632 9.67578H9.8244C9.78808 9.67578 9.75781 9.70575 9.75781 9.74171V15.2081C9.75781 15.244 9.78808 15.274 9.8244 15.274H10.632C10.6707 15.274 10.6986 15.244 10.6986 15.2081V12.8897C10.6986 12.9256 10.7289 12.9556 10.7676 12.9556L14.7874 12.9496C15.2027 12.9496 15.4097 13.1798 15.4097 13.6401V15.2081C15.4097 15.244 15.4376 15.274 15.4763 15.274H16.2924C16.3287 15.274 16.359 15.244 16.359 15.2081V13.3991C16.3578 12.4797 15.8105 12.0158 14.7184 12.0158Z" fill="white"/>
<path d="M18.1035 12.9508C18.0672 12.9508 18.0369 12.9808 18.0369 13.0167V15.2093C18.0369 15.2452 18.0067 15.2752 17.9704 15.2752H17.1628C17.124 15.2752 17.0938 15.2452 17.0938 15.2093V12.0829C17.0938 12.0469 17.124 12.017 17.1628 12.017H23.6271C23.6659 12.017 23.6937 12.0469 23.6937 12.0829V12.8861C23.6937 12.922 23.6659 12.952 23.6271 12.952H18.1035V12.9508ZM17.164 10.6108C17.1252 10.6108 17.095 10.5808 17.095 10.5449V9.74171C17.095 9.70575 17.1252 9.67578 17.164 9.67578H23.6283C23.6671 9.67578 23.6949 9.70575 23.6949 9.74171V10.5449C23.6949 10.5808 23.6671 10.6108 23.6283 10.6108H17.164Z" fill="white"/>
<path d="M23.5766 15.2902C23.5378 15.2902 23.5209 15.2626 23.5378 15.2303L25.8698 10.6186C26.0272 10.3058 26.1604 10.09 26.2657 9.9689C26.4061 9.80707 26.589 9.71117 26.813 9.68359C27.037 9.71117 27.2198 9.80467 27.3602 9.96051C27.4099 10.0156 27.4656 10.0972 27.5322 10.2098C27.5963 10.3189 27.7235 10.5575 27.7235 10.5575C27.7404 10.5899 27.7683 10.6426 27.784 10.675L30.0796 15.2291C30.0966 15.2614 30.0772 15.289 30.0409 15.289H29.2333C29.197 15.289 29.1534 15.2614 29.1365 15.2291L27.0479 11.0825C26.9595 10.9039 26.882 10.8164 26.8214 10.8164C26.7548 10.8164 26.6229 11.025 26.6229 11.025C26.6035 11.0574 26.5732 11.1101 26.5563 11.1401L24.4725 15.2291C24.4556 15.2614 24.412 15.289 24.3757 15.289H23.5766V15.2902Z" fill="white"/>
<path d="M32.4087 12.9508H32.4221C32.4414 12.9508 32.4887 12.9508 32.525 12.9508L35.7917 12.9448C35.7953 12.9448 35.7989 12.9448 35.8026 12.9436V12.9448C36.8947 12.9448 37.4456 12.4713 37.4456 11.5494V11.0759C37.4456 10.1421 36.8983 9.67578 35.805 9.67578H30.9025C30.8662 9.67578 30.8359 9.70575 30.8359 9.74171V10.5341C30.8359 10.5725 30.8662 10.6024 30.9025 10.6024H35.8716C36.2869 10.6024 36.4939 11.0687 36.4939 11.3013C36.4939 11.5339 36.3002 11.9918 35.8849 12.0002C35.8728 12.0002 35.8546 12.0014 35.8377 12.0038C35.8316 12.0014 35.8243 12.0002 35.8183 12.0002C35.8183 12.0002 32.4765 12.017 32.4681 12.017C31.3808 12.0194 30.8359 12.4857 30.8359 13.4003V15.2093C30.8359 15.2452 30.8662 15.2752 30.9025 15.2752H37.379C37.4153 15.2752 37.4456 15.2452 37.4456 15.2093V14.4145C37.4456 14.3785 37.4153 14.3485 37.379 14.3485H31.8518C31.8155 14.3485 31.7852 14.3186 31.7852 14.2826V13.6413C31.7864 13.181 31.9934 12.9508 32.4087 12.9508Z" fill="white"/>
</svg>
