<svg width="1129" height="1006" viewBox="0 0 1129 1006" fill="none" xmlns="http://www.w3.org/2000/svg">
<path fill-rule="evenodd" clip-rule="evenodd" d="M-13.0348 312.204C-13.6012 312.715 -14.1663 313.224 -14.7303 313.733C-30.8405 328.256 -45.9811 341.905 -59.7529 354.254C-75.1612 368.071 -88.5273 379.963 -98.5172 388.616C-103.46 392.897 -107.983 396.741 -111.694 399.741C-113.499 401.2 -115.634 402.885 -117.805 404.458C-118.875 405.234 -120.451 406.345 -122.321 407.518L-122.353 407.538C-123.553 408.292 -127.828 410.975 -133.641 413.189C-164.607 424.985 -199.273 409.444 -211.069 378.478C-221.39 351.384 -210.784 321.457 -187.228 306.496C-187.199 306.472 -187.17 306.449 -187.14 306.424C-185.025 304.715 -181.713 301.922 -177.087 297.914C-167.939 289.99 -155.236 278.695 -139.866 264.913C-126.954 253.334 -111.88 239.747 -95.6829 225.147C-74.3247 205.895 -51.0134 184.882 -28.1304 164.394C12.6458 127.885 54.4613 90.8783 88.0808 62.5113C104.81 48.3957 120.155 35.8714 132.633 26.4699C138.802 21.8213 145.067 17.3306 150.907 13.6437C151.011 13.5782 151.124 13.5068 151.245 13.4298C154.817 11.167 166.025 4.0663 179.567 1.31796C188.735 -0.542598 205.985 -1.7499 223.564 8.84066C241.599 19.7068 248.745 36.174 251.328 46.3389C255.367 62.2279 251.947 75.9747 251.177 79.072C251.15 79.1795 251.126 79.2741 251.106 79.3555C248.757 88.9582 244.461 98.9012 241.106 106.224C233.602 122.603 221.793 144.877 207.903 169.949C189.659 202.881 166.394 243.19 141.311 286.168C178.453 246.614 213.985 208.84 244.042 177.459C267.479 152.989 288.144 131.822 303.974 116.446C311.798 108.848 319.151 101.968 325.424 96.6291C328.486 94.0233 332.187 91.0134 336.112 88.287C336.166 88.2495 336.239 88.1972 336.332 88.1312C338.264 86.7605 348.525 79.4809 362.412 76.7473C376.178 74.0375 398.577 75.1062 416.793 92.8361C431.688 107.334 434.342 124.338 435.006 130.352C436.363 142.649 433.713 153.139 432.952 156.148L432.905 156.337C430.686 165.147 426.884 174.993 423.336 183.564C415.735 201.927 403.846 227.262 389.597 256.377C360.883 315.05 320.264 393.763 278.938 473.152C273.505 483.589 268.06 494.037 262.627 504.456C289.703 477.151 317.667 448.875 345.817 420.4C351.052 415.105 356.293 409.803 361.536 404.5C442.739 322.353 524.306 239.839 588.648 176.214C622.846 142.396 652.612 113.484 675.066 92.6503C686.208 82.3121 696.177 73.3774 704.286 66.6698C708.266 63.378 712.613 59.9419 716.906 56.9731C719.038 55.4986 721.913 53.6112 725.252 51.7911C727.754 50.4266 734.393 46.9052 743.318 44.975C757.248 41.9626 782.434 42.4275 801.626 63.5918C816.399 79.8841 817.405 98.2121 817.578 103.356C817.984 115.426 814.791 125.837 813.748 129.239L813.708 129.367C810.702 139.176 805.703 150.892 800.489 162.292C789.559 186.192 772.548 219.681 752.03 258.705C713.369 332.235 660.218 429.256 606.383 527.525C602.809 534.048 599.233 540.576 595.658 547.103C579.423 576.742 563.208 606.362 547.367 635.394C551.777 630.745 556.222 626.062 560.702 621.348C709.182 465.104 892.583 277.719 1032.51 170.495C1058.81 150.339 1096.47 155.322 1116.63 181.624C1136.78 207.926 1131.8 245.588 1105.5 265.744C974.359 366.235 797.383 546.49 647.689 704.012C613.921 739.545 581.373 774.098 551.262 806.065C515.648 843.874 483.442 878.064 456.655 905.981C431.841 931.84 410.486 953.575 394.336 968.787C386.455 976.211 378.517 983.318 371.372 988.757C368.02 991.309 362.862 995.03 356.734 998.177C353.706 999.733 348.464 1002.19 341.718 1003.85C335.776 1005.32 322.141 1007.83 306.196 1002.26C283.508 994.323 272.466 976.369 268.201 963.681C264.481 952.617 264.73 943.053 264.99 938.729C265.545 929.498 267.883 921.317 269.278 916.796C272.466 906.464 277.547 894.21 283.106 881.81C294.563 856.252 312.013 821.397 332.905 781.248C374.865 700.611 432.934 594.387 490.413 489.453C493.918 483.053 497.422 476.658 500.919 470.274C515.83 443.055 530.636 416.028 545.062 389.636C513.086 421.884 479.907 455.448 446.678 489.063C441.504 494.297 436.328 499.533 431.156 504.765C344.826 592.091 259.325 678.475 195.896 740.653C164.323 771.603 137.475 797.291 118.487 814.226C109.494 822.246 100.228 830.151 92.4187 835.573C90.2954 837.047 87.4497 838.923 84.1543 840.735C81.6651 842.104 75.1725 845.572 66.4547 847.545C61.2701 848.719 30.2611 855.016 6.94655 828.349C-13.2084 805.296 -7.52679 779.022 -6.70911 775.24L-6.6722 775.069C-4.6333 765.537 -0.0155029 755.094 2.36302 749.714L2.36609 749.707C5.73199 742.095 10.1544 732.737 15.2908 722.193C25.6068 701.019 39.6881 673.257 56.0222 641.521C77.7227 599.359 103.819 549.371 130.973 497.358C140.643 478.835 150.447 460.055 160.235 441.28C102.814 502.275 45.7426 562.359 2.25172 605.654C-19.8764 627.682 -39.7858 646.671 -54.9005 659.314C-61.6529 664.963 -70.977 672.385 -80.6509 677.484L-80.869 677.599C-84.1285 679.324 -97.4791 686.388 -115.012 685.745C-126.205 685.335 -142.301 681.566 -155.92 668.253C-169.048 655.42 -173.001 640.397 -174.09 631.117C-175.566 618.549 -172.919 608.047 -172.008 604.5C-170.675 599.317 -168.941 594.417 -167.368 590.352C-164.182 582.123 -159.876 572.787 -155.158 563.2C-145.607 543.792 -132.176 518.947 -116.655 491.226C-87.8834 439.843 -50.2953 375.688 -13.0348 312.204ZM698.977 94.2019C698.945 94.306 698.907 94.4246 698.863 94.5581C699.122 93.5242 699.245 93.327 698.977 94.2019ZM298.24 893.602C298.242 893.598 298.315 893.545 298.453 893.45C298.308 893.558 298.238 893.605 298.24 893.602ZM383.873 952.409C383.798 952.722 383.748 952.886 383.744 952.884C383.741 952.882 383.778 952.729 383.873 952.409ZM215.355 114.872C216.178 114.364 216.555 114.171 216.537 114.202C216.52 114.233 216.109 114.487 215.355 114.872Z" fill="#91FF6A"/>
<path fill-rule="evenodd" clip-rule="evenodd" d="M283.514 474.985C321.039 432.967 356.648 394.341 381.032 368.135C381.784 367.326 383.05 367.281 383.858 368.033C384.667 368.785 384.713 370.051 383.96 370.86C356.619 400.244 315.184 445.222 272.774 493.075C250.911 529.671 229.547 564.054 209.958 594.334C186.652 630.358 165.84 660.601 149.674 681.862C141.596 692.487 134.647 700.91 129.106 706.699C126.34 709.589 123.88 711.87 121.773 713.446C120.718 714.234 119.711 714.876 118.765 715.33C117.837 715.775 116.846 716.097 115.855 716.105C112.324 716.132 109.423 715.03 107.877 712.317C106.441 709.797 106.526 706.435 107.386 702.787C109.125 695.407 114.497 685.001 122.427 672.504C138.353 647.403 165.168 612.996 196.202 575.732C219.191 548.129 244.528 518.919 269.532 490.703C299.6 440.36 330.608 385.835 359.23 332.06C359.749 331.085 360.96 330.715 361.935 331.234C362.91 331.753 363.28 332.964 362.761 333.939C337.445 381.504 310.264 429.654 283.514 474.985ZM258.122 509.681C237.914 532.689 217.828 556.016 199.276 578.292C168.253 615.542 141.582 649.78 125.805 674.647C117.883 687.132 112.849 697.041 111.279 703.704C110.484 707.078 110.688 709.171 111.353 710.337C111.907 711.31 113.087 712.126 115.824 712.105C115.998 712.103 116.384 712.035 117.037 711.723C117.672 711.418 118.45 710.935 119.378 710.242C121.233 708.855 123.52 706.751 126.217 703.933C131.603 698.305 138.446 690.021 146.49 679.441C162.569 658.294 183.319 628.146 206.599 592.162C222.798 567.123 240.213 539.272 258.122 509.681Z" fill="white"/>
<path fill-rule="evenodd" clip-rule="evenodd" d="M166.639 252.27C177.768 239.798 187.777 228.581 195.58 219.512C196.301 218.675 197.564 218.58 198.401 219.3C199.238 220.021 199.333 221.284 198.612 222.121C190.724 231.289 180.662 242.565 169.499 255.074C162.049 263.423 154.108 272.321 145.996 281.509C125.885 313.371 109.326 341.45 96.0359 364.147C94.7321 366.374 93.4594 368.549 92.2175 370.672C82.281 387.656 74.3164 401.27 68.2207 410.672C64.8005 415.947 61.9035 420 59.5289 422.594C58.3526 423.879 57.199 424.925 56.0793 425.559C54.9726 426.186 53.4747 426.628 52.0205 425.848C49.7279 424.617 48.1355 422.786 47.2567 420.463C46.3965 418.189 46.2611 415.559 46.6337 412.726C47.3746 407.092 50.1983 400.131 54.4374 392.312C62.9436 376.624 77.5623 356.751 94.5071 335.769C109.547 317.146 126.509 297.542 142.784 279.104C158.213 254.667 175.73 228.009 195.46 199.85C196.093 198.945 197.34 198.726 198.245 199.36C199.15 199.993 199.369 201.24 198.735 202.145C184.635 222.27 171.667 241.627 159.784 259.954C162.109 257.347 164.396 254.783 166.639 252.27ZM129.619 300.217C118.62 312.906 107.696 325.804 97.619 338.282C80.6959 359.237 66.2747 378.873 57.9538 394.219C53.7794 401.918 51.2427 408.356 50.5995 413.247C50.2801 415.677 50.4467 417.591 50.998 419.048C51.5122 420.407 52.3956 421.468 53.7639 422.241C53.8332 422.218 53.9449 422.171 54.1087 422.078C54.6827 421.753 55.5001 421.071 56.5784 419.893C58.713 417.561 61.459 413.748 64.8644 408.496C70.9063 399.177 78.8189 385.653 88.7732 368.638C90.0118 366.521 91.282 364.35 92.5841 362.126C102.906 344.498 115.207 323.611 129.619 300.217ZM53.6731 422.263C53.6735 422.262 53.6826 422.26 53.6991 422.26C53.6809 422.264 53.6727 422.264 53.6731 422.263Z" fill="white"/>
<path fill-rule="evenodd" clip-rule="evenodd" d="M134.635 477.246C123.47 489.685 113.429 500.873 105.599 509.92C104.876 510.755 103.613 510.846 102.778 510.123C101.943 509.4 101.852 508.137 102.575 507.302C110.49 498.157 120.585 486.91 131.783 474.433C139.258 466.106 147.224 457.231 155.362 448.067C175.566 416.263 192.206 388.232 205.562 365.573C206.872 363.35 208.151 361.179 209.399 359.059C219.385 342.104 227.389 328.513 233.511 319.129C236.947 313.863 239.856 309.819 242.238 307.232C243.418 305.95 244.574 304.907 245.696 304.277C246.804 303.654 248.303 303.215 249.755 304C252.044 305.238 253.631 307.073 254.504 309.398C255.357 311.675 255.485 314.306 255.104 317.138C254.347 322.769 251.503 329.722 247.241 337.528C238.69 353.192 224.014 373.023 207.008 393.955C191.915 412.535 174.896 432.089 158.568 450.481C143.068 474.873 125.474 501.48 105.663 529.582C105.027 530.485 103.779 530.701 102.876 530.064C101.973 529.428 101.757 528.18 102.394 527.277C116.552 507.194 129.576 487.874 141.512 469.581C139.18 472.182 136.885 474.739 134.635 477.246ZM171.794 429.406C182.83 416.748 193.791 403.882 203.904 391.433C220.887 370.527 235.365 350.934 243.731 335.611C247.927 327.924 250.483 321.494 251.14 316.605C251.466 314.176 251.305 312.262 250.758 310.803C250.248 309.442 249.368 308.379 248.002 307.601C247.932 307.624 247.82 307.671 247.656 307.763C247.081 308.087 246.262 308.766 245.18 309.941C243.039 312.267 240.282 316.072 236.861 321.314C230.793 330.616 222.841 344.117 212.837 361.103C211.593 363.217 210.316 365.384 209.008 367.604C198.635 385.202 186.273 406.054 171.794 429.406ZM248.092 307.58C248.092 307.581 248.083 307.583 248.066 307.583C248.085 307.579 248.093 307.579 248.092 307.58Z" fill="white"/>
<path fill-rule="evenodd" clip-rule="evenodd" d="M529.944 410.412C517.998 423.863 507.836 435.305 500.859 443.366C500.137 444.202 498.874 444.293 498.038 443.57C497.203 442.847 497.112 441.584 497.835 440.749C504.865 432.627 515.068 421.137 527.047 407.65C532.799 401.173 538.96 394.235 545.376 386.989C560.348 361.601 571.697 339.897 581.427 321.29C582.969 318.341 584.47 315.47 585.939 312.674C604.58 277.189 618.122 253.469 642.985 237.523C649.026 233.648 653.979 230.807 657.935 228.921C661.82 227.068 664.981 226.016 667.351 225.98C668.569 225.961 669.806 226.207 670.802 226.987C671.836 227.798 672.312 228.948 672.445 230.118C672.69 232.276 671.834 235.035 670.485 238.017C667.715 244.144 662.105 252.785 654.628 263.031C647.125 273.313 637.655 285.327 627.078 298.232C603.377 327.151 574.018 360.667 548.624 389.354C535.79 411.099 520.302 435.541 500.923 463.029C500.287 463.932 499.039 464.148 498.136 463.511C497.234 462.875 497.018 461.627 497.654 460.724C511.627 440.904 523.568 422.677 533.947 405.905C532.592 407.43 531.257 408.933 529.944 410.412ZM558.711 371.888C580.691 346.927 604.282 319.737 623.984 295.697C634.538 282.82 643.956 270.87 651.397 260.674C658.864 250.441 664.255 242.088 666.841 236.369C668.171 233.428 668.582 231.551 668.47 230.569C668.447 230.36 668.404 230.248 668.379 230.197C668.357 230.154 668.343 230.143 668.335 230.136C668.314 230.12 668.101 229.969 667.412 229.979C665.965 230.001 663.473 230.711 659.657 232.531C655.912 234.317 651.115 237.06 645.144 240.89C621.3 256.183 608.184 278.929 589.48 314.534C588.012 317.329 586.51 320.2 584.968 323.151C577.489 337.454 569.038 353.615 558.711 371.888Z" fill="white"/>
<path fill-rule="evenodd" clip-rule="evenodd" d="M569.744 606.092C583.83 589.989 596.207 575.842 605.123 565.25C605.835 564.405 607.096 564.297 607.941 565.008C608.786 565.72 608.895 566.981 608.183 567.826C599.143 578.566 586.717 592.768 572.606 608.896C566.87 615.452 560.856 622.327 554.677 629.416C542.111 649.289 530.147 668.573 518.962 686.603C509.007 702.649 499.669 717.701 491.073 731.288C475.492 755.914 462.306 775.793 452.317 787.977C447.364 794.02 443.017 798.4 439.418 800.434C437.619 801.451 435.68 802.07 433.807 801.638C431.822 801.179 430.495 799.69 429.669 797.8C428.771 795.745 428.739 793.26 429.211 790.608C429.688 787.927 430.718 784.863 432.186 781.495C435.123 774.758 439.935 766.533 446.094 757.282C458.421 738.765 476.328 715.863 495.987 692.05C513.911 670.34 533.382 647.767 551.46 627.02C568.298 600.396 586.221 572.712 604.79 545.591C605.414 544.679 606.659 544.446 607.57 545.07C608.482 545.694 608.715 546.939 608.091 547.85C594.66 567.466 581.574 587.369 568.99 606.953C569.242 606.665 569.493 606.378 569.744 606.092ZM537.537 649.168C524.649 664.1 511.513 679.527 499.072 694.596C479.432 718.385 461.632 741.159 449.423 759.499C443.314 768.676 438.651 776.674 435.853 783.094C434.453 786.305 433.551 789.052 433.149 791.309C432.743 793.594 432.886 795.172 433.334 796.198C433.855 797.388 434.373 797.663 434.706 797.74C435.152 797.843 436.006 797.768 437.45 796.952C440.337 795.32 444.277 791.475 449.224 785.442C459.033 773.475 472.095 753.802 487.692 729.15C496.256 715.614 505.573 700.596 515.514 684.572C522.557 673.219 529.914 661.362 537.537 649.168Z" fill="white"/>
</svg>
