<svg width="911" height="158" viewBox="0 0 911 158" fill="none" xmlns="http://www.w3.org/2000/svg">
<mask id="path-1-outside-1_2638_4472" maskUnits="userSpaceOnUse" x="0" y="0" width="911" height="158" fill="black">
<rect fill="white" width="911" height="158"/>
<path d="M72 154C62.9333 154 54.3 152.4 46.1 149.2C37.9 145.933 30.6333 141.133 24.3 134.8C18.0333 128.467 13.0667 120.633 9.4 111.3C5.8 101.967 4 91.2 4 79C4 63.0667 7.03333 49.5333 13.1 38.4C19.2333 27.2 27.4333 18.6667 37.7 12.8C48.0333 6.93333 59.4667 4 72 4C90.5333 4 105.1 8.3 115.7 16.9C126.3 25.5 133.4 37.6667 137 53.4L109.2 57.4C106.6 49 102.333 42.3 96.4 37.3C90.5333 32.2333 83 29.6667 73.8 29.6C64.6667 29.4667 57.0667 31.4333 51 35.5C44.9333 39.5667 40.3667 45.3333 37.3 52.8C34.3 60.2667 32.8 69 32.8 79C32.8 89 34.3 97.6667 37.3 105C40.3667 112.333 44.9333 118.033 51 122.1C57.0667 126.167 64.6667 128.267 73.8 128.4C80 128.533 85.6 127.467 90.6 125.2C95.6667 122.933 99.9333 119.367 103.4 114.5C106.867 109.633 109.333 103.4 110.8 95.8H88V74.8H139.8C139.933 75.6667 140.033 77.2 140.1 79.4C140.167 81.6 140.2 82.8667 140.2 83.2C140.2 97 137.4 109.233 131.8 119.9C126.2 130.567 118.3 138.933 108.1 145C97.9 151 85.8667 154 72 154Z"/>
<path d="M160.242 151V7H254.242V32.4H187.442V63.2H242.242V88.6H187.442V125.6H254.242V151H160.242Z"/>
<path d="M278.211 151V7H366.211V34.2H305.411V65.4H354.211V92.6H305.411V151H278.211Z"/>
<path d="M446.066 154C431.666 154 419.232 150.867 408.766 144.6C398.366 138.333 390.332 129.567 384.666 118.3C379.066 107.033 376.266 93.9333 376.266 79C376.266 64.0667 379.066 50.9667 384.666 39.7C390.332 28.4333 398.366 19.6667 408.766 13.4C419.232 7.13333 431.666 4 446.066 4C460.466 4 472.866 7.13333 483.266 13.4C493.732 19.6667 501.766 28.4333 507.366 39.7C513.032 50.9667 515.866 64.0667 515.866 79C515.866 93.9333 513.032 107.033 507.366 118.3C501.766 129.567 493.732 138.333 483.266 144.6C472.866 150.867 460.466 154 446.066 154ZM446.066 128.4C455.199 128.533 462.799 126.567 468.866 122.5C474.932 118.433 479.466 112.667 482.466 105.2C485.532 97.7333 487.066 89 487.066 79C487.066 69 485.532 60.3333 482.466 53C479.466 45.6667 474.932 39.9667 468.866 35.9C462.799 31.8333 455.199 29.7333 446.066 29.6C436.932 29.4667 429.332 31.4333 423.266 35.5C417.199 39.5667 412.632 45.3333 409.566 52.8C406.566 60.2667 405.066 69 405.066 79C405.066 89 406.566 97.6667 409.566 105C412.632 112.333 417.199 118.033 423.266 122.1C429.332 126.167 436.932 128.267 446.066 128.4Z"/>
<path d="M535.828 151V7H596.628C598.028 7 599.895 7.06667 602.228 7.2C604.628 7.26667 606.761 7.46667 608.628 7.8C617.228 9.13333 624.261 11.9667 629.728 16.3C635.261 20.6333 639.328 26.1 641.928 32.7C644.528 39.2333 645.828 46.5333 645.828 54.6C645.828 66.6667 642.828 77 636.828 85.6C630.828 94.1333 621.428 99.4 608.628 101.4L596.628 102.2H563.028V151H535.828ZM617.028 151L588.628 92.4L616.628 87L647.828 151H617.028ZM563.028 76.8H595.428C596.828 76.8 598.361 76.7333 600.028 76.6C601.695 76.4667 603.228 76.2 604.628 75.8C608.295 74.8 611.128 73.1333 613.128 70.8C615.128 68.4 616.495 65.7667 617.228 62.9C618.028 59.9667 618.428 57.2 618.428 54.6C618.428 52 618.028 49.2667 617.228 46.4C616.495 43.4667 615.128 40.8333 613.128 38.5C611.128 36.1 608.295 34.4 604.628 33.4C603.228 33 601.695 32.7333 600.028 32.6C598.361 32.4667 596.828 32.4 595.428 32.4H563.028V76.8Z"/>
<path d="M725.558 154C711.158 154 698.724 150.867 688.258 144.6C677.858 138.333 669.825 129.567 664.158 118.3C658.558 107.033 655.758 93.9333 655.758 79C655.758 64.0667 658.558 50.9667 664.158 39.7C669.825 28.4333 677.858 19.6667 688.258 13.4C698.724 7.13333 711.158 4 725.558 4C742.091 4 755.958 8.1 767.158 16.3C778.425 24.5 786.358 35.6 790.958 49.6L763.558 57.2C760.891 48.4667 756.391 41.7 750.058 36.9C743.724 32.0333 735.558 29.6 725.558 29.6C716.424 29.6 708.791 31.6333 702.658 35.7C696.591 39.7667 692.024 45.5 688.958 52.9C685.891 60.3 684.358 69 684.358 79C684.358 89 685.891 97.7 688.958 105.1C692.024 112.5 696.591 118.233 702.658 122.3C708.791 126.367 716.424 128.4 725.558 128.4C735.558 128.4 743.724 125.967 750.058 121.1C756.391 116.233 760.891 109.467 763.558 100.8L790.958 108.4C786.358 122.4 778.425 133.5 767.158 141.7C755.958 149.9 742.091 154 725.558 154Z"/>
<path d="M812.977 151V7H906.977V32.4H840.177V63.2H894.977V88.6H840.177V125.6H906.977V151H812.977Z"/>
</mask>
<path d="M72 154C62.9333 154 54.3 152.4 46.1 149.2C37.9 145.933 30.6333 141.133 24.3 134.8C18.0333 128.467 13.0667 120.633 9.4 111.3C5.8 101.967 4 91.2 4 79C4 63.0667 7.03333 49.5333 13.1 38.4C19.2333 27.2 27.4333 18.6667 37.7 12.8C48.0333 6.93333 59.4667 4 72 4C90.5333 4 105.1 8.3 115.7 16.9C126.3 25.5 133.4 37.6667 137 53.4L109.2 57.4C106.6 49 102.333 42.3 96.4 37.3C90.5333 32.2333 83 29.6667 73.8 29.6C64.6667 29.4667 57.0667 31.4333 51 35.5C44.9333 39.5667 40.3667 45.3333 37.3 52.8C34.3 60.2667 32.8 69 32.8 79C32.8 89 34.3 97.6667 37.3 105C40.3667 112.333 44.9333 118.033 51 122.1C57.0667 126.167 64.6667 128.267 73.8 128.4C80 128.533 85.6 127.467 90.6 125.2C95.6667 122.933 99.9333 119.367 103.4 114.5C106.867 109.633 109.333 103.4 110.8 95.8H88V74.8H139.8C139.933 75.6667 140.033 77.2 140.1 79.4C140.167 81.6 140.2 82.8667 140.2 83.2C140.2 97 137.4 109.233 131.8 119.9C126.2 130.567 118.3 138.933 108.1 145C97.9 151 85.8667 154 72 154Z" stroke="white" stroke-width="8" stroke-linejoin="round" mask="url(#path-1-outside-1_2638_4472)"/>
<path d="M160.242 151V7H254.242V32.4H187.442V63.2H242.242V88.6H187.442V125.6H254.242V151H160.242Z" stroke="white" stroke-width="8" stroke-linejoin="round" mask="url(#path-1-outside-1_2638_4472)"/>
<path d="M278.211 151V7H366.211V34.2H305.411V65.4H354.211V92.6H305.411V151H278.211Z" stroke="white" stroke-width="8" stroke-linejoin="round" mask="url(#path-1-outside-1_2638_4472)"/>
<path d="M446.066 154C431.666 154 419.232 150.867 408.766 144.6C398.366 138.333 390.332 129.567 384.666 118.3C379.066 107.033 376.266 93.9333 376.266 79C376.266 64.0667 379.066 50.9667 384.666 39.7C390.332 28.4333 398.366 19.6667 408.766 13.4C419.232 7.13333 431.666 4 446.066 4C460.466 4 472.866 7.13333 483.266 13.4C493.732 19.6667 501.766 28.4333 507.366 39.7C513.032 50.9667 515.866 64.0667 515.866 79C515.866 93.9333 513.032 107.033 507.366 118.3C501.766 129.567 493.732 138.333 483.266 144.6C472.866 150.867 460.466 154 446.066 154ZM446.066 128.4C455.199 128.533 462.799 126.567 468.866 122.5C474.932 118.433 479.466 112.667 482.466 105.2C485.532 97.7333 487.066 89 487.066 79C487.066 69 485.532 60.3333 482.466 53C479.466 45.6667 474.932 39.9667 468.866 35.9C462.799 31.8333 455.199 29.7333 446.066 29.6C436.932 29.4667 429.332 31.4333 423.266 35.5C417.199 39.5667 412.632 45.3333 409.566 52.8C406.566 60.2667 405.066 69 405.066 79C405.066 89 406.566 97.6667 409.566 105C412.632 112.333 417.199 118.033 423.266 122.1C429.332 126.167 436.932 128.267 446.066 128.4Z" stroke="white" stroke-width="8" stroke-linejoin="round" mask="url(#path-1-outside-1_2638_4472)"/>
<path d="M535.828 151V7H596.628C598.028 7 599.895 7.06667 602.228 7.2C604.628 7.26667 606.761 7.46667 608.628 7.8C617.228 9.13333 624.261 11.9667 629.728 16.3C635.261 20.6333 639.328 26.1 641.928 32.7C644.528 39.2333 645.828 46.5333 645.828 54.6C645.828 66.6667 642.828 77 636.828 85.6C630.828 94.1333 621.428 99.4 608.628 101.4L596.628 102.2H563.028V151H535.828ZM617.028 151L588.628 92.4L616.628 87L647.828 151H617.028ZM563.028 76.8H595.428C596.828 76.8 598.361 76.7333 600.028 76.6C601.695 76.4667 603.228 76.2 604.628 75.8C608.295 74.8 611.128 73.1333 613.128 70.8C615.128 68.4 616.495 65.7667 617.228 62.9C618.028 59.9667 618.428 57.2 618.428 54.6C618.428 52 618.028 49.2667 617.228 46.4C616.495 43.4667 615.128 40.8333 613.128 38.5C611.128 36.1 608.295 34.4 604.628 33.4C603.228 33 601.695 32.7333 600.028 32.6C598.361 32.4667 596.828 32.4 595.428 32.4H563.028V76.8Z" stroke="white" stroke-width="8" stroke-linejoin="round" mask="url(#path-1-outside-1_2638_4472)"/>
<path d="M725.558 154C711.158 154 698.724 150.867 688.258 144.6C677.858 138.333 669.825 129.567 664.158 118.3C658.558 107.033 655.758 93.9333 655.758 79C655.758 64.0667 658.558 50.9667 664.158 39.7C669.825 28.4333 677.858 19.6667 688.258 13.4C698.724 7.13333 711.158 4 725.558 4C742.091 4 755.958 8.1 767.158 16.3C778.425 24.5 786.358 35.6 790.958 49.6L763.558 57.2C760.891 48.4667 756.391 41.7 750.058 36.9C743.724 32.0333 735.558 29.6 725.558 29.6C716.424 29.6 708.791 31.6333 702.658 35.7C696.591 39.7667 692.024 45.5 688.958 52.9C685.891 60.3 684.358 69 684.358 79C684.358 89 685.891 97.7 688.958 105.1C692.024 112.5 696.591 118.233 702.658 122.3C708.791 126.367 716.424 128.4 725.558 128.4C735.558 128.4 743.724 125.967 750.058 121.1C756.391 116.233 760.891 109.467 763.558 100.8L790.958 108.4C786.358 122.4 778.425 133.5 767.158 141.7C755.958 149.9 742.091 154 725.558 154Z" stroke="white" stroke-width="8" stroke-linejoin="round" mask="url(#path-1-outside-1_2638_4472)"/>
<path d="M812.977 151V7H906.977V32.4H840.177V63.2H894.977V88.6H840.177V125.6H906.977V151H812.977Z" stroke="white" stroke-width="8" stroke-linejoin="round" mask="url(#path-1-outside-1_2638_4472)"/>
</svg>
