<svg width="1375" height="711" viewBox="0 0 1375 711" fill="none" xmlns="http://www.w3.org/2000/svg">
<path d="M61 233.169C309.734 143.117 678.826 40.8909 724.623 63.0703C781.87 90.7945 120.973 399.302 113.732 466.304C108.757 512.331 1013.68 80.001 1180.3 83.0815C1346.93 86.1619 510.884 482.461 428.132 629.399C364.456 742.465 1050.96 378.253 1255.6 308.389C1390.84 262.22 1267.86 419.277 1157.42 497.322" stroke="#91FF6A" stroke-width="120" stroke-linecap="round"/>
<path d="M848 258C853 254 1136.09 103.999 1149 120.5C1161.91 137.001 953.5 206 812 266" stroke="#0A0A0A" stroke-width="4" stroke-linecap="round"/>
<path d="M763 135.5C759.5 135.5 223.499 453 201.999 435.5C180.499 418 748.5 154.5 803 131.5" stroke="#0A0A0A" stroke-width="4" stroke-linecap="round"/>
</svg>
