<svg width="1920" height="873" viewBox="0 0 1920 873" fill="none" xmlns="http://www.w3.org/2000/svg">
<path d="M450.531 698V175H1469.47V698H450.531Z" stroke="#5B5B5B" stroke-linecap="round"/>
<path d="M125.871 872L515.465 698" stroke="#5B5B5B" stroke-linecap="round"/>
<path d="M1 1L450.531 175" stroke="#5B5B5B" stroke-linecap="round"/>
<path d="M450.531 698L1 872" stroke="#5B5B5B" stroke-linecap="round"/>
<path d="M1919 872L1469.47 698" stroke="#5B5B5B" stroke-linecap="round"/>
<path d="M1919 1L1469 175" stroke="#5B5B5B" stroke-linecap="round"/>
<path d="M1 872L1919 872" stroke="#5B5B5B" stroke-linecap="round"/>
<path d="M1 1H1919" stroke="#5B5B5B" stroke-linecap="round"/>
<path d="M959 1V872" stroke="#5B5B5B" stroke-linecap="round"/>
<path d="M1 437H1919" stroke="#5B5B5B" stroke-linecap="round"/>
<path d="M124.871 872L515.464 698" stroke="#5B5B5B" stroke-linecap="round"/>
<path d="M1404.54 698L1794.13 872" stroke="#5B5B5B" stroke-linecap="round"/>
<path d="M449.531 872L710.259 698" stroke="#5B5B5B" stroke-linecap="round"/>
<path d="M1209.74 698L1469.47 872" stroke="#5B5B5B" stroke-linecap="round"/>
<path d="M515.461 175V698" stroke="#5B5B5B" stroke-linecap="round"/>
<path d="M710.258 175V698" stroke="#5B5B5B" stroke-linecap="round"/>
<path d="M1209.74 175V698" stroke="#5B5B5B" stroke-linecap="round"/>
<path d="M1404.54 175V698" stroke="#5B5B5B" stroke-linecap="round"/>
<path d="M385.598 723H1534.4" stroke="#5B5B5B" stroke-linecap="round"/>
<path d="M1619.31 756H300.684" stroke="#5B5B5B" stroke-linecap="round"/>
<path d="M170.82 806H1749.17" stroke="#5B5B5B" stroke-linecap="round"/>
<path d="M385.598 150H1534.4" stroke="#5B5B5B" stroke-linecap="round"/>
<path d="M1619.31 117H300.684" stroke="#5B5B5B" stroke-linecap="round"/>
<path d="M170.82 67H1749.17" stroke="#5B5B5B" stroke-linecap="round"/>
<path d="M385.598 150V723" stroke="#5B5B5B" stroke-linecap="round"/>
<path d="M300.688 756V117" stroke="#5B5B5B" stroke-linecap="round"/>
<path d="M170.824 67V806" stroke="#5B5B5B" stroke-linecap="round"/>
<path d="M1 1V872" stroke="#5B5B5B" stroke-linecap="round"/>
<path d="M1534.4 150V723" stroke="#5B5B5B" stroke-linecap="round"/>
<path d="M1619.32 756V117" stroke="#5B5B5B" stroke-linecap="round"/>
<path d="M1749.18 67V806" stroke="#5B5B5B" stroke-linecap="round"/>
<path d="M1919 1V872.001" stroke="#5B5B5B" stroke-linecap="round"/>
<path d="M125.867 1L515.461 175" stroke="#5B5B5B" stroke-linecap="round"/>
<path d="M450.527 1L710.256 175" stroke="#5B5B5B" stroke-linecap="round"/>
<path d="M1209.74 175L1469.47 0.999993" stroke="#5B5B5B" stroke-linecap="round"/>
<path d="M1404.54 175L1794.13 1" stroke="#5B5B5B" stroke-linecap="round"/>
<path d="M450.531 306H1469.47" stroke="#5B5B5B" stroke-linecap="round"/>
<path d="M450.531 568H1469.47" stroke="#5B5B5B" stroke-linecap="round"/>
<path d="M450.531 306L1 215" stroke="#5B5B5B" stroke-linecap="round"/>
<path d="M450.531 568L1 659" stroke="#5B5B5B" stroke-linecap="round"/>
<path d="M1469.47 306L1919 215" stroke="#5B5B5B" stroke-linecap="round"/>
<path d="M1469.47 568L1919 659" stroke="#5B5B5B" stroke-linecap="round"/>
</svg>
