<svg width="768" height="350" viewBox="0 0 768 350" fill="none" xmlns="http://www.w3.org/2000/svg">
<path d="M157.594 278.892V71.0508H610.411V278.892H157.594Z" stroke="#3B3B3B" stroke-linecap="round"/>
<path d="M83.7891 348.836L216.443 278.889" stroke="#3B3B3B" stroke-linecap="round"/>
<path d="M1 1L158 71" stroke="#3B3B3B" stroke-linecap="round"/>
<path d="M157.594 278.891L1.0026 348.837" stroke="#3B3B3B" stroke-linecap="round"/>
<path d="M767 348.836L610.409 278.889" stroke="#3B3B3B" stroke-linecap="round"/>
<path d="M767 1.10156L610.409 71.048" stroke="#3B3B3B" stroke-linecap="round"/>
<path d="M1 349H767" stroke="#3B3B3B" stroke-linecap="round"/>
<path d="M1 1L767 1" stroke="#3B3B3B" stroke-linecap="round"/>
<path d="M384 1V349" stroke="#3B3B3B" stroke-linecap="round"/>
<path d="M1.39844 175.199H767" stroke="#3B3B3B" stroke-linecap="round"/>
<path d="M551.562 278.789L684.216 348.736" stroke="#3B3B3B" stroke-linecap="round"/>
<path d="M216.438 348.84L317.174 278.893" stroke="#3B3B3B" stroke-linecap="round"/>
<path d="M450.828 278.891L551.565 348.837" stroke="#3B3B3B" stroke-linecap="round"/>
<path d="M216.438 71.0508V278.892" stroke="#3B3B3B" stroke-linecap="round"/>
<path d="M317.172 71.0508V278.892" stroke="#3B3B3B" stroke-linecap="round"/>
<path d="M450.828 71.0508V278.892" stroke="#3B3B3B" stroke-linecap="round"/>
<path d="M551.562 71.0508V278.892" stroke="#3B3B3B" stroke-linecap="round"/>
<path d="M668.266 304.871L99.75 304.871" stroke="#3B3B3B" stroke-linecap="round"/>
<path d="M40.9062 330.852L727.115 330.852" stroke="#3B3B3B" stroke-linecap="round"/>
<path d="M668.266 45.0703H99.75" stroke="#3B3B3B" stroke-linecap="round"/>
<path d="M40.9062 19.0898H727.115" stroke="#3B3B3B" stroke-linecap="round"/>
<path d="M99.75 304.871V45.0703" stroke="#3B3B3B" stroke-linecap="round"/>
<path d="M41 19V330.761" stroke="#3B3B3B" stroke-linecap="round"/>
<path d="M1 1L1.00002 349" stroke="#3B3B3B" stroke-linecap="round"/>
<path d="M668.258 304.871L668.258 45.0703" stroke="#3B3B3B" stroke-linecap="round"/>
<path d="M727.102 19.0898L727.102 330.851" stroke="#3B3B3B" stroke-linecap="round"/>
<path d="M767.008 1L767.008 349" stroke="#3B3B3B" stroke-linecap="round"/>
<path d="M83.7891 1.10547L216.443 71.0519" stroke="#3B3B3B" stroke-linecap="round"/>
<path d="M200.484 1.10547L317.18 71.0519" stroke="#3B3B3B" stroke-linecap="round"/>
<path d="M450.836 71.0508L551.573 1.10434" stroke="#3B3B3B" stroke-linecap="round"/>
<path d="M551.57 70.9453L684.224 0.998872" stroke="#3B3B3B" stroke-linecap="round"/>
<path d="M157.594 122.895H610.411" stroke="#3B3B3B" stroke-linecap="round"/>
<path d="M157.594 227.508H610.411" stroke="#3B3B3B" stroke-linecap="round"/>
<path d="M157.59 122.893L1.39844 86.5586" stroke="#3B3B3B" stroke-linecap="round"/>
<path d="M157.59 227.502L1.39844 263.836" stroke="#3B3B3B" stroke-linecap="round"/>
<path d="M610.412 122.893L766.602 86.5586" stroke="#3B3B3B" stroke-linecap="round"/>
<path d="M610.412 227.502L766.602 263.836" stroke="#3B3B3B" stroke-linecap="round"/>
</svg>
