<svg width="3044" height="366" viewBox="0 0 3044 366" fill="none" xmlns="http://www.w3.org/2000/svg">
<rect x="10.7422" width="3040" height="154" transform="rotate(4 10.7422 0)" fill="#4916DD"/>
<path d="M2836.06 238.683L2856.72 240.127L2813.4 308.272L2792.74 306.827L2836.06 238.683Z" fill="white"/>
<path d="M2886.7 242.226L2907.36 243.67L2864.04 311.815L2843.38 310.37L2886.7 242.226Z" fill="white"/>
<path d="M2937.36 245.769L2958.01 247.213L2914.7 315.358L2894.04 313.913L2937.36 245.769Z" fill="white"/>
<path d="M1832.95 167.519L1853.61 168.963L1810.29 237.108L1789.63 235.663L1832.95 167.519Z" fill="white"/>
<path d="M1883.59 171.062L1904.25 172.506L1860.93 240.65L1840.27 239.206L1883.59 171.062Z" fill="white"/>
<path d="M1934.25 174.605L1954.91 176.049L1911.59 244.193L1890.93 242.749L1934.25 174.605Z" fill="white"/>
<path d="M18.0122 96.7425L20.9419 54.8448L55.7557 57.2792L52.826 99.1769L18.0122 96.7425ZM58.8321 113.631L66.1964 107.229L70.1027 51.3656L63.715 43.8016L14.8361 40.3836L7.45785 46.9851L3.55149 102.849L9.95313 110.213L58.8321 113.631Z" fill="white"/>
<path d="M88.6122 115.714L89.5888 101.748L104.424 88.8511L111.407 89.3393L124.403 104.182L123.426 118.148L137.292 119.118L138.75 98.2684L125.861 83.3329L140.703 70.3366L142.175 49.288L128.309 48.3184L127.325 62.3841L112.383 75.3734L105.401 74.8852L92.5116 59.9497L93.4952 45.884L79.5298 44.9075L78.0579 65.9561L91.0467 80.8985L76.1047 93.8879L74.6468 114.737L88.6122 115.714Z" fill="white"/>
<path d="M159.238 120.652L162.168 78.7545L177.01 65.7581L197.958 67.223L194.052 123.087L207.918 124.056L212.801 54.2267L171.004 51.304L148.691 70.795L145.273 119.676L159.238 120.652Z" fill="white"/>
<path d="M233.273 90.8439L233.761 83.861L248.61 70.7649L269.558 72.2297L268.086 93.2783L233.273 90.8439ZM230.838 125.659L232.296 104.81L267.11 107.244L265.652 128.093L279.518 129.063L284.401 59.2334L242.604 56.3107L220.284 75.9015L216.873 124.682L230.838 125.659Z" fill="white"/>
<path d="M302.438 130.666L303.415 116.7L318.25 103.803L325.233 104.291L323.287 132.124L337.252 133.1L339.198 105.268L346.181 105.756L359.177 120.599L358.2 134.565L372.066 135.535L373.524 114.685L360.635 99.7499L375.477 86.7536L376.949 65.705L363.083 64.7354L362.099 78.8011L347.157 91.7904L340.175 91.3022L342.135 63.2706L328.169 62.2941L326.209 90.3256L319.227 89.8373L306.338 74.9018L307.321 60.8362L293.356 59.8596L291.884 80.9082L304.873 95.8507L289.931 108.84L288.473 129.689L302.438 130.666Z" fill="white"/>
<path d="M398.875 123.375L400.828 95.4432L415.77 82.4539L429.736 83.4305L426.806 125.328L398.875 123.375ZM390.039 150.826L391.016 136.86L432.812 139.782L431.836 153.748L445.801 154.725L447.754 126.793L440.672 126.298L444.578 70.4341L409.764 67.9997L387.351 87.4837L384.91 122.398L378.027 121.917L376.074 149.849L390.039 150.826Z" fill="white"/>
<path d="M512.965 145.387L513.942 131.421L468.654 128.254L469.624 114.388L511.42 117.311L512.397 103.345L470.6 100.422L471.584 86.3567L516.872 89.5236L517.848 75.5577L458.595 71.4143L453.712 141.244L512.965 145.387Z" fill="white"/>
<path d="M535.868 146.989L537.814 119.157L572.628 121.591L570.682 149.423L584.547 150.393L589.43 80.5632L575.565 79.5936L573.604 107.625L538.791 105.191L540.751 77.1592L526.785 76.1826L521.902 146.012L535.868 146.989Z" fill="white"/>
<path d="M608.442 152.064L646.513 107.912L643.256 154.498L657.121 155.468L662.004 85.6381L648.139 84.6685L610.074 128.721L613.325 82.2341L599.36 81.2575L594.477 151.087L608.442 152.064Z" fill="white"/>
<path d="M726.304 160.305L727.281 146.339L681.993 143.173L682.962 129.306L724.759 132.229L725.736 118.263L683.939 115.34L684.923 101.275L730.21 104.442L731.187 90.4758L671.934 86.3324L667.051 156.162L726.304 160.305Z" fill="white"/>
<path d="M1021.56 166.918L1024.49 125.021L1059.3 127.455L1056.37 169.353L1021.56 166.918ZM1062.38 183.807L1069.74 177.405L1073.65 121.541L1067.26 113.977L1018.38 110.559L1011 117.161L1007.1 173.024L1013.5 180.389L1062.38 183.807Z" fill="white"/>
<path d="M1092.16 185.889L1093.14 171.923L1107.97 159.027L1114.95 159.515L1127.95 174.358L1126.97 188.324L1140.84 189.293L1142.3 168.444L1129.41 153.509L1144.25 140.512L1145.72 119.464L1131.86 118.494L1130.87 132.56L1115.93 145.549L1108.95 145.061L1096.06 130.125L1097.04 116.06L1083.08 115.083L1081.6 136.132L1094.59 151.074L1079.65 164.064L1078.19 184.913L1092.16 185.889Z" fill="white"/>
<path d="M1162.78 190.828L1165.71 148.93L1180.56 135.934L1201.51 137.399L1197.6 193.262L1211.46 194.232L1216.35 124.402L1174.55 121.48L1152.24 140.971L1148.82 189.851L1162.78 190.828Z" fill="white"/>
<path d="M1236.82 161.02L1237.31 154.037L1252.16 140.941L1273.11 142.406L1271.63 163.454L1236.82 161.02ZM1234.39 195.835L1235.84 174.986L1270.66 177.42L1269.2 198.269L1283.06 199.239L1287.95 129.409L1246.15 126.487L1223.83 146.077L1220.42 194.858L1234.39 195.835Z" fill="white"/>
<path d="M1305.99 200.841L1306.96 186.876L1321.8 173.979L1328.78 174.467L1326.83 202.299L1340.8 203.276L1342.75 175.444L1349.73 175.932L1362.72 190.775L1361.75 204.741L1375.61 205.71L1377.07 184.861L1364.18 169.926L1379.02 156.929L1380.5 135.881L1366.63 134.911L1365.65 148.977L1350.7 161.966L1343.72 161.478L1345.68 133.446L1331.72 132.47L1329.76 160.501L1322.77 160.013L1309.88 145.078L1310.87 131.012L1296.9 130.035L1295.43 151.084L1308.42 166.026L1293.48 179.016L1292.02 199.865L1305.99 200.841Z" fill="white"/>
<path d="M1402.42 193.551L1404.38 165.619L1419.32 152.63L1433.28 153.606L1430.35 195.504L1402.42 193.551ZM1393.59 221.001L1394.56 207.035L1436.36 209.958L1435.38 223.924L1449.35 224.901L1451.3 196.969L1444.22 196.473L1448.12 140.61L1413.31 138.175L1390.9 157.66L1388.46 192.574L1381.57 192.093L1379.62 220.025L1393.59 221.001Z" fill="white"/>
<path d="M1516.51 215.563L1517.49 201.597L1472.2 198.43L1473.17 184.564L1514.97 187.487L1515.94 173.521L1474.15 170.598L1475.13 156.533L1520.42 159.699L1521.4 145.733L1462.14 141.59L1457.26 211.42L1516.51 215.563Z" fill="white"/>
<path d="M1539.41 217.164L1541.36 189.332L1576.17 191.767L1574.23 219.599L1588.09 220.568L1592.98 150.739L1579.11 149.769L1577.15 177.801L1542.34 175.367L1544.3 147.335L1530.33 146.358L1525.45 216.188L1539.41 217.164Z" fill="white"/>
<path d="M1611.99 222.239L1650.06 178.088L1646.8 224.674L1660.67 225.643L1665.55 155.814L1651.69 154.844L1613.62 198.896L1616.87 152.41L1602.91 151.433L1598.02 221.263L1611.99 222.239Z" fill="white"/>
<path d="M1729.85 230.481L1730.83 216.515L1685.54 213.348L1686.51 199.482L1728.31 202.405L1729.28 188.439L1687.49 185.516L1688.47 171.451L1733.76 174.617L1734.73 160.652L1675.48 156.508L1670.6 226.338L1729.85 230.481Z" fill="white"/>
<path d="M2025.11 237.094L2028.04 195.196L2062.85 197.631L2059.92 239.528L2025.11 237.094ZM2065.93 253.983L2073.29 247.581L2077.2 191.717L2070.81 184.153L2021.93 180.735L2014.55 187.337L2010.65 243.2L2017.05 250.565L2065.93 253.983Z" fill="white"/>
<path d="M2095.71 256.065L2096.68 242.099L2111.52 229.203L2118.5 229.691L2131.5 244.534L2130.52 258.499L2144.39 259.469L2145.84 238.62L2132.95 223.685L2147.8 210.688L2149.27 189.64L2135.4 188.67L2134.42 202.736L2119.48 215.725L2112.49 215.237L2099.61 200.301L2100.59 186.236L2086.62 185.259L2085.15 206.308L2098.14 221.25L2083.2 234.239L2081.74 255.089L2095.71 256.065Z" fill="white"/>
<path d="M2166.33 261.004L2169.26 219.106L2184.1 206.11L2205.05 207.575L2201.15 263.438L2215.01 264.408L2219.89 194.578L2178.1 191.656L2155.78 211.147L2152.37 260.027L2166.33 261.004Z" fill="white"/>
<path d="M2240.37 231.195L2240.85 224.213L2255.7 211.116L2276.65 212.581L2275.18 233.63L2240.37 231.195ZM2237.93 266.01L2239.39 245.161L2274.2 247.596L2272.75 268.445L2286.61 269.414L2291.49 199.585L2249.7 196.662L2227.38 216.253L2223.97 265.034L2237.93 266.01Z" fill="white"/>
<path d="M2309.53 271.017L2310.51 257.051L2325.34 244.155L2332.33 244.643L2330.38 272.475L2344.35 273.452L2346.29 245.62L2353.27 246.108L2366.27 260.951L2365.29 274.916L2379.16 275.886L2380.62 255.037L2367.73 240.102L2382.57 227.105L2384.04 206.057L2370.18 205.087L2369.19 219.153L2354.25 232.142L2347.27 231.654L2349.23 203.622L2335.26 202.646L2333.3 230.677L2326.32 230.189L2313.43 215.253L2314.41 201.188L2300.45 200.211L2298.98 221.26L2311.97 236.202L2297.02 249.192L2295.57 270.041L2309.53 271.017Z" fill="white"/>
<path d="M2405.97 263.727L2407.92 235.795L2422.86 222.805L2436.83 223.782L2433.9 265.68L2405.97 263.727ZM2397.13 291.177L2398.11 277.211L2439.91 280.134L2438.93 294.1L2452.89 295.076L2454.85 267.145L2447.77 266.649L2451.67 210.786L2416.86 208.351L2394.45 227.835L2392 262.75L2385.12 262.269L2383.17 290.201L2397.13 291.177Z" fill="white"/>
<path d="M2520.06 285.739L2521.04 271.773L2475.75 268.606L2476.72 254.74L2518.51 257.663L2519.49 243.697L2477.69 240.774L2478.68 226.708L2523.97 229.875L2524.94 215.909L2465.69 211.766L2460.81 281.595L2520.06 285.739Z" fill="white"/>
<path d="M2542.96 287.34L2544.91 259.508L2579.72 261.943L2577.78 289.775L2591.64 290.744L2596.52 220.915L2582.66 219.945L2580.7 247.977L2545.88 245.542L2547.84 217.511L2533.88 216.534L2529 286.364L2542.96 287.34Z" fill="white"/>
<path d="M2615.54 292.415L2653.61 248.263L2650.35 294.85L2664.22 295.819L2669.1 225.99L2655.23 225.02L2617.17 269.072L2620.42 222.586L2606.45 221.609L2601.57 291.439L2615.54 292.415Z" fill="white"/>
<path d="M2733.4 300.657L2734.37 286.691L2689.09 283.524L2690.06 269.658L2731.85 272.581L2732.83 258.615L2691.03 255.692L2692.02 241.626L2737.3 244.793L2738.28 230.827L2679.03 226.684L2674.14 296.513L2733.4 300.657Z" fill="white"/>
<path d="M829.404 97.3468L850.062 98.7913L806.744 166.936L786.086 165.491L829.404 97.3468Z" fill="white"/>
<path d="M880.044 100.89L900.702 102.334L857.385 170.479L836.727 169.034L880.044 100.89Z" fill="white"/>
<path d="M930.701 104.433L951.358 105.877L908.041 174.022L887.383 172.577L930.701 104.433Z" fill="white"/>
</svg>
