<svg width="2282" height="262" viewBox="0 0 2282 262" fill="none" xmlns="http://www.w3.org/2000/svg">
<rect x="7.1875" width="2280" height="103" transform="rotate(4 7.1875 0)" fill="#4916DD"/>
<path d="M1364.26 123.457L1379.66 124.533L1347.37 175.344L1331.97 174.267L1364.26 123.457Z" fill="white"/>
<path d="M1402 126.097L1417.4 127.174L1385.11 177.985L1369.71 176.908L1402 126.097Z" fill="white"/>
<path d="M1439.76 128.738L1455.16 129.815L1422.87 180.625L1407.47 179.549L1439.76 128.738Z" fill="white"/>
<path d="M11.8783 70.6251L14.0756 39.2018L40.0059 41.015L37.8086 72.4383L11.8783 70.6251ZM42.277 83.2764L47.7646 78.4725L50.6944 36.5748L45.9393 30.9043L9.53287 28.3585L4.0348 33.312L1.10503 75.2097L5.87065 80.7306L42.277 83.2764Z" fill="white"/>
<path d="M64.4581 84.8274L65.1906 74.353L76.2453 64.6756L81.4462 65.0393L91.1208 76.1662L90.3884 86.6407L100.716 87.3628L101.809 71.726L92.2143 60.5294L103.274 50.7772L104.378 34.9907L94.0506 34.2685L93.3129 44.8178L82.1787 54.5648L76.9778 54.2012L67.3827 43.0046L68.1203 32.4553L57.7185 31.728L56.6146 47.5144L66.284 58.7162L55.1497 68.4633L54.0563 84.1001L64.4581 84.8274Z" fill="white"/>
<path d="M117.062 88.5059L119.26 57.0826L130.32 47.3304L145.922 48.4214L142.993 90.3191L153.32 91.0413L156.982 38.6692L125.851 36.4922L109.224 51.118L106.66 87.7785L117.062 88.5059Z" fill="white"/>
<path d="M172.218 66.1238L172.584 60.8866L183.649 51.0595L199.252 52.1506L198.148 67.937L172.218 66.1238ZM170.392 92.235L171.485 76.5982L197.416 78.4114L196.322 94.0483L206.65 94.7704L210.312 42.3983L179.181 40.2214L162.548 54.922L159.99 91.5077L170.392 92.235Z" fill="white"/>
<path d="M223.722 95.9642L224.454 85.4898L235.509 75.8124L240.71 76.176L239.25 97.0501L249.652 97.7774L251.112 76.9034L256.312 77.2671L265.987 88.3941L265.255 98.8685L275.582 99.5907L276.676 83.9538L267.08 72.7572L278.14 63.005L279.244 47.2185L268.917 46.4964L268.179 57.0456L257.045 66.7927L251.844 66.429L253.314 45.4053L242.912 44.678L241.442 65.7016L236.241 65.3379L226.646 54.1413L227.384 43.5921L216.982 42.8647L215.878 58.6512L225.547 69.853L214.413 79.6L213.32 95.2369L223.722 95.9642Z" fill="white"/>
<path d="M295.556 90.4617L297.021 69.5129L308.155 59.7658L318.557 60.4932L316.359 91.9164L295.556 90.4617ZM288.964 111.052L289.697 100.578L320.828 102.755L320.095 113.229L330.497 113.956L331.962 93.0075L326.687 92.6386L329.617 50.7409L303.686 48.9277L286.985 63.5483L285.154 89.7343L280.027 89.3758L278.562 110.325L288.964 111.052Z" fill="white"/>
<path d="M380.528 106.929L381.26 96.4548L347.529 94.096L348.256 83.6964L379.387 85.8733L380.12 75.3989L348.988 73.222L349.726 62.6728L383.458 65.0315L384.19 54.5571L340.057 51.471L336.395 103.843L380.528 106.929Z" fill="white"/>
<path d="M397.586 108.122L399.046 87.248L424.976 89.0612L423.517 109.935L433.844 110.657L437.506 58.2853L427.179 57.5631L425.709 78.5868L399.779 76.7736L401.249 55.7499L390.847 55.0226L387.185 107.395L397.586 108.122Z" fill="white"/>
<path d="M451.642 111.902L480.015 78.7755L477.572 113.715L487.9 114.437L491.562 62.0652L481.234 61.3431L452.866 94.3947L455.304 59.5298L444.902 58.8025L441.24 111.175L451.642 111.902Z" fill="white"/>
<path d="M539.429 118.041L540.161 107.566L506.429 105.207L507.157 94.8078L538.288 96.9847L539.02 86.5103L507.889 84.3334L508.627 73.7842L542.358 76.1429L543.091 65.6685L498.957 62.5824L495.295 114.954L539.429 118.041Z" fill="white"/>
<path d="M759.077 122.876L761.275 91.4531L787.253 93.2697L785.056 124.693L759.077 122.876ZM789.534 135.532L795.031 130.729L797.961 88.8308L793.196 83.1596L756.722 80.6092L751.214 85.562L748.285 127.46L753.06 132.981L789.534 135.532Z" fill="white"/>
<path d="M811.756 137.086L812.488 126.611L823.562 116.935L828.773 117.3L838.467 128.428L837.734 138.902L848.081 139.626L849.174 123.989L839.56 112.791L850.639 103.04L851.743 87.2537L841.396 86.5302L840.659 97.0794L829.505 106.825L824.295 106.461L814.68 95.2628L815.418 84.7136L804.997 83.9849L803.893 99.7713L813.582 110.974L802.428 120.72L801.335 136.357L811.756 137.086Z" fill="white"/>
<path d="M864.457 140.771L866.655 109.348L877.734 99.5968L893.365 100.69L890.436 142.588L900.782 143.311L904.444 90.9389L873.256 88.758L856.6 103.382L854.036 140.042L864.457 140.771Z" fill="white"/>
<path d="M919.712 118.396L920.078 113.159L931.162 103.333L946.794 104.426L945.69 120.212L919.712 118.396ZM917.886 144.507L918.979 128.87L944.957 130.687L943.864 146.324L954.211 147.047L957.873 94.675L926.684 92.4941L910.023 107.193L907.465 143.778L917.886 144.507Z" fill="white"/>
<path d="M971.314 148.243L972.047 137.769L983.121 128.093L988.331 128.457L986.871 149.331L997.293 150.06L998.752 129.186L1003.96 129.55L1013.66 140.678L1012.92 151.153L1023.27 151.876L1024.36 136.239L1014.75 125.042L1025.83 115.291L1026.93 99.5041L1016.59 98.7806L1015.85 109.33L1004.7 119.076L999.485 118.711L1000.95 97.6876L990.534 96.9588L989.063 117.983L983.853 117.618L974.239 106.42L974.976 95.871L964.555 95.1423L963.451 110.929L973.14 122.132L961.987 131.878L960.893 147.514L971.314 148.243Z" fill="white"/>
<path d="M1043.28 142.75L1044.74 121.801L1055.9 112.055L1066.32 112.784L1064.12 144.207L1043.28 142.75ZM1036.68 163.339L1037.41 152.865L1068.6 155.046L1067.87 165.52L1078.29 166.249L1079.75 145.3L1074.47 144.931L1077.4 103.033L1051.42 101.216L1034.69 115.835L1032.86 142.021L1027.72 141.662L1026.26 162.611L1036.68 163.339Z" fill="white"/>
<path d="M1128.41 159.228L1129.14 148.754L1095.35 146.391L1096.08 135.991L1127.27 138.172L1128 127.698L1096.81 125.517L1097.55 114.968L1131.34 117.331L1132.07 106.856L1087.86 103.764L1084.2 156.137L1128.41 159.228Z" fill="white"/>
<path d="M1145.5 160.423L1146.96 139.549L1172.94 141.366L1171.48 162.24L1181.83 162.964L1185.49 110.591L1175.14 109.868L1173.67 130.892L1147.69 129.075L1149.16 108.051L1138.74 107.323L1135.08 159.695L1145.5 160.423Z" fill="white"/>
<path d="M1199.66 164.21L1228.08 131.087L1225.63 166.027L1235.98 166.75L1239.64 114.378L1229.3 113.655L1200.88 146.703L1203.32 111.838L1192.9 111.11L1189.24 163.482L1199.66 164.21Z" fill="white"/>
<path d="M1287.61 170.36L1288.34 159.886L1254.54 157.523L1255.27 147.123L1286.46 149.304L1287.19 138.83L1256 136.649L1256.74 126.1L1290.54 128.463L1291.27 117.988L1247.05 114.896L1243.39 167.269L1287.61 170.36Z" fill="white"/>
<path d="M1507.24 175.193L1509.44 143.77L1535.42 145.586L1533.22 177.009L1507.24 175.193ZM1537.7 187.848L1543.19 183.045L1546.12 141.147L1541.36 135.476L1504.89 132.926L1499.38 137.878L1496.45 179.776L1501.22 185.298L1537.7 187.848Z" fill="white"/>
<path d="M1559.92 189.402L1560.65 178.928L1571.73 169.252L1576.94 169.616L1586.63 180.744L1585.9 191.219L1596.24 191.942L1597.34 176.305L1587.72 165.107L1598.8 155.357L1599.91 139.57L1589.56 138.847L1588.82 149.396L1577.67 159.142L1572.46 158.777L1562.84 147.579L1563.58 137.03L1553.16 136.301L1552.06 152.088L1561.75 163.291L1550.59 173.037L1549.5 188.673L1559.92 189.402Z" fill="white"/>
<path d="M1612.62 193.087L1614.82 161.664L1625.9 151.913L1641.53 153.006L1638.6 194.904L1648.95 195.627L1652.61 143.255L1621.42 141.074L1604.76 155.698L1602.2 192.359L1612.62 193.087Z" fill="white"/>
<path d="M1667.88 170.712L1668.24 165.475L1679.33 155.649L1694.96 156.742L1693.85 172.529L1667.88 170.712ZM1666.05 196.823L1667.14 181.187L1693.12 183.003L1692.03 198.64L1702.37 199.364L1706.04 146.991L1674.85 144.81L1658.19 159.509L1655.63 196.095L1666.05 196.823Z" fill="white"/>
<path d="M1719.48 200.559L1720.21 190.085L1731.28 180.409L1736.5 180.773L1735.04 201.647L1745.46 202.376L1746.92 181.502L1752.13 181.866L1761.82 192.995L1761.09 203.469L1771.43 204.193L1772.53 188.556L1762.91 177.358L1773.99 167.607L1775.1 151.821L1764.75 151.097L1764.01 161.646L1752.86 171.392L1747.65 171.028L1749.12 150.004L1738.7 149.275L1737.23 170.299L1732.02 169.935L1722.4 158.737L1723.14 148.187L1712.72 147.459L1711.62 163.245L1721.3 174.448L1710.15 184.194L1709.06 199.831L1719.48 200.559Z" fill="white"/>
<path d="M1791.44 195.066L1792.91 174.117L1804.06 164.372L1814.48 165.1L1812.29 196.524L1791.44 195.066ZM1784.84 215.656L1785.58 205.181L1816.76 207.362L1816.03 217.837L1826.45 218.566L1827.92 197.617L1822.63 197.247L1825.56 155.349L1799.58 153.533L1782.85 168.151L1781.02 194.337L1775.89 193.978L1774.42 214.927L1784.84 215.656Z" fill="white"/>
<path d="M1876.58 211.545L1877.31 201.07L1843.51 198.707L1844.24 188.308L1875.43 190.489L1876.16 180.014L1844.97 177.833L1845.71 167.284L1879.5 169.647L1880.24 159.173L1836.02 156.081L1832.36 208.453L1876.58 211.545Z" fill="white"/>
<path d="M1893.67 212.74L1895.12 191.866L1921.1 193.682L1919.64 214.556L1929.99 215.28L1933.65 162.908L1923.31 162.184L1921.84 183.208L1895.86 181.391L1897.33 160.368L1886.91 159.639L1883.24 212.011L1893.67 212.74Z" fill="white"/>
<path d="M1947.82 216.527L1976.24 183.404L1973.8 218.343L1984.15 219.067L1987.81 166.695L1977.46 165.971L1949.04 199.019L1951.48 164.155L1941.06 163.426L1937.4 215.798L1947.82 216.527Z" fill="white"/>
<path d="M2035.77 222.677L2036.5 212.202L2002.71 209.839L2003.44 199.44L2034.62 201.621L2035.36 191.146L2004.17 188.965L2004.91 178.416L2038.7 180.779L2039.43 170.305L1995.22 167.213L1991.55 219.585L2035.77 222.677Z" fill="white"/>
<path d="M616.252 71.1519L631.649 72.2286L599.361 123.039L583.963 121.963L616.252 71.1519Z" fill="white"/>
<path d="M653.994 73.7926L669.391 74.8693L637.103 125.68L621.706 124.603L653.994 73.7926Z" fill="white"/>
<path d="M691.752 76.4332L707.149 77.5099L674.861 128.321L659.463 127.244L691.752 76.4332Z" fill="white"/>
<path d="M2108.29 175L2123.69 176.076L2091.4 226.887L2076 225.81L2108.29 175Z" fill="white"/>
<path d="M2146.03 177.64L2161.43 178.717L2129.14 229.528L2113.74 228.451L2146.03 177.64Z" fill="white"/>
<path d="M2183.79 180.281L2199.19 181.358L2166.9 232.168L2151.5 231.091L2183.79 180.281Z" fill="white"/>
</svg>
