<svg width="1561" height="176" viewBox="0 0 1561 176" fill="none" xmlns="http://www.w3.org/2000/svg">
<rect width="1558.99" height="67.1035" transform="matrix(0.997557 0.0698642 -0.0696489 0.997572 5.44531 0)" fill="#4916DD"/>
<path d="M710.435 70.6108L718.435 71.1711L701.659 97.6114L693.659 97.0511L710.435 70.6108Z" fill="white"/>
<path d="M730.045 71.9819L738.045 72.5422L721.269 98.9825L713.269 98.4222L730.045 71.9819Z" fill="white"/>
<path d="M749.662 73.3569L757.662 73.9172L740.886 100.358L732.886 99.7972L749.662 73.3569Z" fill="white"/>
<path d="M1099.78 97.0483L1107.78 97.6086L1091 124.049L1083 123.489L1099.78 97.0483Z" fill="white"/>
<path d="M1119.39 98.4194L1127.39 98.9797L1110.61 125.42L1102.61 124.86L1119.39 98.4194Z" fill="white"/>
<path d="M1139.01 99.7944L1147.01 100.355L1130.23 126.795L1122.23 126.235L1139.01 99.7944Z" fill="white"/>
<path d="M1488.78 126.044L1496.78 126.605L1480 153.045L1472 152.485L1488.78 126.044Z" fill="white"/>
<path d="M1508.39 127.416L1516.39 127.976L1499.61 154.416L1491.61 153.856L1508.39 127.416Z" fill="white"/>
<path d="M1528.01 128.791L1536.01 129.351L1519.23 155.791L1511.23 155.231L1528.01 128.791Z" fill="white"/>
<path d="M7.85939 43.0312L9.01037 26.5459L22.4959 27.4903L21.3449 43.9757L7.85939 43.0312ZM23.6661 49.6602L26.5213 47.1386L28.056 25.1582L25.5844 22.1846L6.65056 20.8586L3.7898 23.4587L2.25516 45.4392L4.73226 48.3342L23.6661 49.6602Z" fill="white"/>
<path d="M35.2017 50.4681L35.5854 44.973L41.3373 39.8933L44.0422 40.0827L49.0709 45.9175L48.6872 51.4126L54.0583 51.7887L54.631 43.5853L49.6436 37.714L55.3983 32.5951L55.9766 24.3132L50.6055 23.937L50.2191 29.4714L44.4258 34.5876L41.721 34.3982L36.7336 28.5269L37.12 22.9925L31.7104 22.6137L31.1321 30.8956L36.1581 36.7696L30.3648 41.8858L29.7921 50.0893L35.2017 50.4681Z" fill="white"/>
<path d="M62.5594 52.3841L63.7104 35.8988L69.4651 30.7798L77.5796 31.3481L76.0449 53.3286L81.416 53.7048L83.3343 26.2292L67.1439 25.0953L58.4926 32.7724L57.1498 52.0053L62.5594 52.3841Z" fill="white"/>
<path d="M91.2509 40.628L91.4427 37.8805L97.2002 32.7223L105.315 33.2906L104.736 41.5725L91.2509 40.628ZM90.2945 54.3266L90.8673 46.1231L104.353 47.0676L103.78 55.271L109.151 55.6472L111.069 28.1716L94.879 27.0377L86.2249 34.754L84.8848 53.9477L90.2945 54.3266Z" fill="white"/>
<path d="M118.03 56.269L118.413 50.7739L124.165 45.6942L126.87 45.8836L126.105 56.8346L131.515 57.2135L132.28 46.2625L134.984 46.4519L140.013 52.2866L139.63 57.7818L145.001 58.1579L145.573 49.9545L140.586 44.0832L146.341 38.9643L146.919 30.6823L141.548 30.3062L141.161 35.8405L135.368 40.9568L132.663 40.7674L133.433 29.7379L128.024 29.359L127.254 40.3885L124.549 40.1991L119.561 34.3278L119.948 28.7934L114.538 28.4145L113.96 36.6965L118.986 42.5705L113.193 47.6867L112.62 55.8901L118.03 56.269Z" fill="white"/>
<path d="M155.391 53.3636L156.158 42.3734L161.952 37.2571L167.361 37.636L166.21 54.1214L155.391 53.3636ZM151.957 64.1671L152.341 58.672L168.531 59.8059L168.148 65.301L173.557 65.6799L174.325 54.6897L171.581 54.4975L173.116 32.5171L159.63 31.5726L150.94 39.247L149.981 52.9848L147.315 52.798L146.548 63.7883L151.957 64.1671Z" fill="white"/>
<path d="M199.58 61.9804L199.963 56.4853L182.42 55.2566L182.801 49.8008L198.992 50.9347L199.375 45.4396L183.185 44.3057L183.571 38.7713L201.114 39.9999L201.498 34.5048L178.545 32.8973L176.627 60.3729L199.58 61.9804Z" fill="white"/>
<path d="M208.451 62.6017L209.216 51.6507L222.701 52.5952L221.937 63.5462L227.308 63.9223L229.226 36.4467L223.855 36.0706L223.085 47.1001L209.599 46.1556L210.369 35.1261L204.96 34.7473L203.041 62.2228L208.451 62.6017Z" fill="white"/>
<path d="M236.564 64.5706L251.329 47.1849L250.049 65.515L255.42 65.8912L257.338 38.4156L251.967 38.0394L237.205 55.3859L238.482 37.095L233.072 36.7161L231.154 64.1917L236.564 64.5706Z" fill="white"/>
<path d="M282.219 67.768L282.602 62.2729L265.06 61.0443L265.441 55.5884L281.631 56.7223L282.015 51.2272L265.824 50.0933L266.211 44.559L283.753 45.7876L284.137 40.2925L261.185 38.685L259.266 66.1606L282.219 67.768Z" fill="white"/>
<path d="M396.172 70.2304L397.323 53.7451L410.808 54.6895L409.657 71.1749L396.172 70.2304ZM411.979 76.8594L414.834 74.3379L416.368 52.3574L413.897 49.3839L394.963 48.0578L392.102 50.6579L390.568 72.6384L393.045 75.5334L411.979 76.8594Z" fill="white"/>
<path d="M423.514 77.6673L423.898 72.1722L429.65 67.0925L432.355 67.282L437.383 73.1167L437 78.6118L442.371 78.988L442.944 70.7845L437.956 64.9133L443.711 59.7943L444.289 51.5124L438.918 51.1362L438.532 56.6706L432.738 61.7868L430.033 61.5974L425.046 55.7261L425.433 50.1918L420.023 49.8129L419.445 58.0948L424.471 63.9688L418.677 69.0851L418.105 77.2885L423.514 77.6673Z" fill="white"/>
<path d="M450.872 79.5833L452.023 63.098L457.778 57.979L465.892 58.5473L464.357 80.5278L469.728 80.904L471.647 53.4284L455.456 52.2945L446.805 59.9716L445.462 79.2045L450.872 79.5833Z" fill="white"/>
<path d="M479.563 67.8272L479.755 65.0797L485.513 59.9215L493.627 60.4898L493.049 68.7717L479.563 67.8272ZM478.607 81.5258L479.18 73.3224L492.665 74.2668L492.093 82.4702L497.464 82.8464L499.382 55.3708L483.191 54.2369L474.537 61.9533L473.197 81.1469L478.607 81.5258Z" fill="white"/>
<path d="M506.342 83.4682L506.726 77.9731L512.478 72.8934L515.182 73.0828L514.418 84.0338L519.828 84.4127L520.592 73.4617L523.297 73.6511L528.326 79.4859L527.942 84.981L533.313 85.3571L533.886 77.1537L528.898 71.2824L534.653 66.1635L535.231 57.8816L529.86 57.5054L529.474 63.0398L523.681 68.156L520.976 67.9666L521.746 56.9371L516.336 56.5582L515.566 67.5877L512.861 67.3983L507.874 61.527L508.26 55.9926L502.851 55.6138L502.272 63.8957L507.298 69.7697L501.505 74.8859L500.932 83.0893L506.342 83.4682Z" fill="white"/>
<path d="M543.703 80.5628L544.471 69.5726L550.264 64.4564L555.674 64.8352L554.523 81.3206L543.703 80.5628ZM540.27 91.3663L540.654 85.8712L556.844 87.0051L556.46 92.5002L561.87 92.8791L562.637 81.8889L559.894 81.6967L561.428 59.7163L547.943 58.7718L539.253 66.4462L538.294 80.184L535.628 79.9972L534.86 90.9875L540.27 91.3663Z" fill="white"/>
<path d="M587.892 89.1796L588.276 83.6845L570.733 82.4559L571.114 77L587.304 78.1339L587.688 72.6388L571.498 71.5049L571.884 65.9705L589.427 67.1991L589.81 61.704L566.858 60.0965L564.94 87.5721L587.892 89.1796Z" fill="white"/>
<path d="M596.764 89.8009L597.528 78.8499L611.014 79.7944L610.249 90.7454L615.62 91.1215L617.538 63.646L612.167 63.2698L611.397 74.2993L597.912 73.3548L598.682 62.3253L593.272 61.9465L591.354 89.4221L596.764 89.8009Z" fill="white"/>
<path d="M624.876 91.7698L639.641 74.3841L638.362 92.7142L643.733 93.0904L645.651 65.6148L640.28 65.2387L625.517 82.5851L626.794 64.2942L621.385 63.9153L619.466 91.3909L624.876 91.7698Z" fill="white"/>
<path d="M670.531 94.9673L670.915 89.4721L653.372 88.2435L653.753 82.7877L669.943 83.9216L670.327 78.4264L654.137 77.2925L654.523 71.7582L672.066 72.9868L672.45 67.4917L649.497 65.8842L647.579 93.3598L670.531 94.9673Z" fill="white"/>
<path d="M784.505 97.4266L785.656 80.9413L799.174 81.888L798.023 98.3734L784.505 97.4266ZM800.351 104.058L803.212 101.537L804.747 79.5568L802.269 76.5828L783.29 75.2536L780.423 77.8532L778.888 99.8337L781.371 102.729L800.351 104.058Z" fill="white"/>
<path d="M811.914 104.868L812.298 99.3731L818.062 94.2943L820.774 94.4842L825.816 100.32L825.432 105.815L830.816 106.192L831.388 97.9886L826.388 92.1164L832.156 86.9984L832.734 78.7164L827.35 78.3394L826.964 83.8737L821.157 88.9891L818.446 88.7992L813.446 82.927L813.832 77.3926L808.41 77.0129L807.831 85.2948L812.87 91.1697L807.064 96.285L806.491 104.488L811.914 104.868Z" fill="white"/>
<path d="M839.337 106.789L840.488 90.3035L846.256 85.1854L854.39 85.7551L852.855 107.736L858.239 108.113L860.157 80.637L843.928 79.5004L835.258 87.1761L833.915 106.409L839.337 106.789Z" fill="white"/>
<path d="M868.095 95.0374L868.287 92.2898L874.057 87.1325L882.191 87.7022L881.613 95.9841L868.095 95.0374ZM867.139 108.736L867.712 100.532L881.229 101.479L880.657 109.683L886.041 110.06L887.959 82.5841L871.73 81.4475L863.056 89.1625L861.716 108.356L867.139 108.736Z" fill="white"/>
<path d="M894.94 110.683L895.324 105.188L901.089 100.109L903.8 100.299L903.036 111.25L908.458 111.63L909.223 100.679L911.934 100.869L916.976 106.704L916.592 112.199L921.976 112.576L922.549 104.373L917.549 98.5009L923.316 93.3828L923.894 85.1009L918.511 84.7238L918.124 90.2582L912.318 95.3735L909.607 95.1836L910.377 84.1541L904.954 83.7744L904.184 94.8039L901.473 94.614L896.472 88.7418L896.859 83.2074L891.436 82.8276L890.858 91.1096L895.897 96.9845L890.091 102.1L889.518 110.303L894.94 110.683Z" fill="white"/>
<path d="M932.39 107.784L933.158 96.7936L938.964 91.6783L944.387 92.058L943.236 108.543L932.39 107.784ZM928.951 118.587L929.334 113.092L945.563 114.228L945.18 119.724L950.602 120.103L951.37 109.113L948.62 108.92L950.154 86.94L936.636 85.9933L927.927 93.6663L926.968 107.404L924.295 107.217L923.528 118.207L928.951 118.587Z" fill="white"/>
<path d="M976.686 116.408L977.07 110.913L959.485 109.681L959.866 104.226L976.095 105.362L976.479 99.867L960.249 98.7304L960.636 93.1961L978.221 94.4276L978.604 88.9325L955.597 87.3212L953.679 114.797L976.686 116.408Z" fill="white"/>
<path d="M985.579 117.031L986.343 106.08L999.861 107.027L999.097 117.978L1004.48 118.355L1006.4 90.8791L1001.02 90.502L1000.24 101.532L986.727 100.585L987.497 89.5553L982.075 89.1755L980.156 116.651L985.579 117.031Z" fill="white"/>
<path d="M1013.76 119.004L1028.56 101.621L1027.28 119.951L1032.66 120.328L1034.58 92.8527L1029.19 92.4756L1014.4 109.82L1015.68 91.5289L1010.25 91.1491L1008.34 118.625L1013.76 119.004Z" fill="white"/>
<path d="M1059.52 122.21L1059.91 116.715L1042.32 115.483L1042.7 110.027L1058.93 111.164L1059.32 105.669L1043.09 104.532L1043.47 98.9976L1061.06 100.229L1061.44 94.734L1038.43 93.1227L1036.52 120.598L1059.52 122.21Z" fill="white"/>
<path d="M1174.11 126.446L1175.26 109.961L1188.78 110.908L1187.62 127.393L1174.11 126.446ZM1189.95 133.078L1192.81 130.557L1194.35 108.576L1191.87 105.602L1172.89 104.273L1170.02 106.873L1168.49 128.853L1170.97 131.749L1189.95 133.078Z" fill="white"/>
<path d="M1201.52 133.888L1201.9 128.393L1207.66 123.314L1210.38 123.504L1215.42 129.339L1215.03 134.834L1220.42 135.212L1220.99 127.008L1215.99 121.136L1221.76 116.018L1222.34 107.736L1216.95 107.359L1216.57 112.893L1210.76 118.009L1208.05 117.819L1203.05 111.947L1203.43 106.412L1198.01 106.032L1197.43 114.314L1202.47 120.189L1196.67 125.305L1196.09 133.508L1201.52 133.888Z" fill="white"/>
<path d="M1228.94 135.808L1230.09 119.323L1235.86 114.205L1243.99 114.775L1242.46 136.755L1247.84 137.132L1249.76 109.657L1233.53 108.52L1224.86 116.196L1223.52 135.429L1228.94 135.808Z" fill="white"/>
<path d="M1257.7 124.057L1257.89 121.309L1263.66 116.152L1271.79 116.722L1271.21 125.004L1257.7 124.057ZM1256.74 137.755L1257.31 129.552L1270.83 130.499L1270.26 138.702L1275.64 139.079L1277.56 111.604L1261.33 110.467L1252.66 118.182L1251.32 137.376L1256.74 137.755Z" fill="white"/>
<path d="M1284.54 139.703L1284.93 134.207L1290.69 129.129L1293.4 129.319L1292.64 140.269L1298.06 140.649L1298.82 129.698L1301.54 129.888L1306.58 135.724L1306.19 141.219L1311.58 141.596L1312.15 133.393L1307.15 127.52L1312.92 122.402L1313.5 114.12L1308.11 113.743L1307.73 119.278L1301.92 124.393L1299.21 124.203L1299.98 113.174L1294.56 112.794L1293.79 123.823L1291.07 123.633L1286.07 117.761L1286.46 112.227L1281.04 111.847L1280.46 120.129L1285.5 126.004L1279.69 131.119L1279.12 139.323L1284.54 139.703Z" fill="white"/>
<path d="M1321.99 136.803L1322.76 125.813L1328.57 120.698L1333.99 121.078L1332.84 137.563L1321.99 136.803ZM1318.55 147.606L1318.94 142.111L1335.16 143.248L1334.78 148.743L1340.2 149.123L1340.97 138.133L1338.22 137.94L1339.76 115.96L1326.24 115.013L1317.53 122.686L1316.57 136.424L1313.9 136.236L1313.13 147.227L1318.55 147.606Z" fill="white"/>
<path d="M1366.29 145.428L1366.67 139.932L1349.09 138.701L1349.47 133.245L1365.7 134.382L1366.08 128.887L1349.85 127.75L1350.24 122.216L1367.82 123.447L1368.21 117.952L1345.2 116.341L1343.28 143.816L1366.29 145.428Z" fill="white"/>
<path d="M1375.18 146.05L1375.95 135.099L1389.46 136.046L1388.7 146.997L1394.08 147.374L1396 119.899L1390.62 119.522L1389.85 130.551L1376.33 129.604L1377.1 118.575L1371.68 118.195L1369.76 145.671L1375.18 146.05Z" fill="white"/>
<path d="M1403.36 148.024L1418.16 130.641L1416.88 148.971L1422.26 149.348L1424.18 121.872L1418.8 121.495L1404 138.839L1405.28 120.548L1399.86 120.169L1397.94 147.644L1403.36 148.024Z" fill="white"/>
<path d="M1449.12 151.229L1449.51 145.734L1431.92 144.502L1432.3 139.047L1448.53 140.183L1448.92 134.688L1432.69 133.551L1433.07 128.017L1450.66 129.249L1451.04 123.754L1428.04 122.142L1426.12 149.618L1449.12 151.229Z" fill="white"/>
<path d="M321.795 43.3921L329.795 43.9524L313.019 70.3927L305.019 69.8324L321.795 43.3921Z" fill="white"/>
<path d="M341.404 44.7632L349.404 45.3235L332.628 71.7638L324.628 71.2035L341.404 44.7632Z" fill="white"/>
<path d="M361.021 46.1382L369.021 46.6985L352.245 73.1388L344.245 72.5785L361.021 46.1382Z" fill="white"/>
</svg>
