<svg width="846" height="111" viewBox="0 0 846 111" fill="none" xmlns="http://www.w3.org/2000/svg">
<rect width="843.976" height="52" transform="matrix(0.997564 0.0697565 -0.0695412 0.997579 3.61719 0)" fill="#4916DD"/>
<path d="M516.159 52.2117L521.97 52.618L509.787 71.818L503.976 71.4116L516.159 52.2117Z" fill="white"/>
<path d="M530.401 53.2078L536.212 53.6141L524.029 72.814L518.218 72.4077L530.401 53.2078Z" fill="white"/>
<path d="M544.651 54.2039L550.462 54.6102L538.279 73.8101L532.468 73.4038L544.651 54.2039Z" fill="white"/>
<path d="M799.183 73.7546L804.994 74.161L792.811 93.3609L787 92.9546L799.183 73.7546Z" fill="white"/>
<path d="M813.425 74.7507L819.236 75.1571L807.053 94.357L801.242 93.9507L813.425 74.7507Z" fill="white"/>
<path d="M827.675 75.7468L833.486 76.1532L821.303 95.3531L815.492 94.9468L827.675 75.7468Z" fill="white"/>
<path d="M5.81689 32.2315L6.65135 20.261L16.447 20.946L15.6126 32.9165L5.81689 32.2315ZM17.2992 37.044L19.3729 35.2129L20.4855 19.2522L18.6899 17.0932L4.93668 16.1315L2.85894 18.0197L1.74632 33.9803L3.54591 36.0823L17.2992 37.044Z" fill="white"/>
<path d="M25.6785 37.63L25.9567 33.6398L30.1343 29.951L32.099 30.0883L35.7524 34.3248L35.4742 38.3149L39.3756 38.5877L39.7909 32.631L36.1676 28.368L40.3472 24.6507L40.7664 18.637L36.865 18.3642L36.5848 22.3828L32.3772 26.0982L30.4124 25.9608L26.7891 21.6978L27.0693 17.6792L23.1398 17.4044L22.7206 23.4181L26.3719 27.6831L22.1643 31.3984L21.749 37.3552L25.6785 37.63Z" fill="white"/>
<path d="M45.5508 39.0196L46.3852 27.0491L50.5648 23.3318L56.4591 23.7439L55.3465 39.7045L59.2479 39.9773L60.6387 20.0266L48.8782 19.2042L42.5948 24.7792L41.6213 38.7448L45.5508 39.0196Z" fill="white"/>
<path d="M66.3905 30.4814L66.5296 28.4864L70.7112 24.7405L76.6054 25.1527L76.1862 31.1664L66.3905 30.4814ZM65.6971 40.4283L66.1124 34.4716L75.9081 35.1566L75.4928 41.1133L79.3942 41.3861L80.785 21.4354L69.0246 20.613L62.7392 26.2165L61.7676 40.1535L65.6971 40.4283Z" fill="white"/>
<path d="M85.8435 41.8371L86.1216 37.8469L90.2992 34.1581L92.264 34.2955L91.7097 42.2473L95.6392 42.5221L96.1935 34.5703L98.1582 34.7077L101.812 38.9441L101.533 42.9342L105.435 43.2071L105.85 37.2503L102.227 32.9874L106.406 29.27L106.826 23.2563L102.924 22.9835L102.644 27.0021L98.4364 30.7175L96.4717 30.5801L97.0299 22.5713L93.1004 22.2965L92.5421 30.3053L90.5774 30.1679L86.9541 25.905L87.2343 21.8863L83.3048 21.6115L82.8855 27.6253L86.5369 31.8902L82.3292 35.6056L81.914 41.5623L85.8435 41.8371Z" fill="white"/>
<path d="M112.982 39.7252L113.538 31.7449L117.746 28.0295L121.675 28.3043L120.841 40.2747L112.982 39.7252ZM110.489 47.5701L110.767 43.5799L122.527 44.4023L122.249 48.3924L126.179 48.6672L126.735 40.6869L124.742 40.5475L125.855 24.5869L116.059 23.902L109.748 29.475L109.052 39.4504L107.116 39.315L106.559 47.2953L110.489 47.5701Z" fill="white"/>
<path d="M145.08 45.9793L145.358 41.9892L132.616 41.0981L132.892 37.1365L144.652 37.9588L144.93 33.9687L133.17 33.1463L133.45 29.1277L146.193 30.0187L146.471 26.0286L129.799 24.8627L128.408 44.8135L145.08 45.9793Z" fill="white"/>
<path d="M151.524 46.43L152.079 38.4781L161.874 39.1631L161.32 47.1149L165.222 47.3878L166.612 27.437L162.711 27.1642L162.153 35.173L152.357 34.488L152.915 26.4792L148.986 26.2044L147.595 46.1552L151.524 46.43Z" fill="white"/>
<path d="M171.945 47.8579L182.668 35.2329L181.741 48.5429L185.642 48.8157L187.033 28.8649L183.131 28.5921L172.41 41.1886L173.336 27.9071L169.406 27.6323L168.015 47.5831L171.945 47.8579Z" fill="white"/>
<path d="M205.108 50.1769L205.386 46.1867L192.644 45.2957L192.92 41.334L204.68 42.1564L204.958 38.1662L193.198 37.3439L193.478 33.3252L206.221 34.2163L206.499 30.2261L189.827 29.0603L188.436 49.0111L205.108 50.1769Z" fill="white"/>
<path d="M287.887 51.9541L288.722 39.9837L298.517 40.6687L297.683 52.6391L287.887 51.9541ZM299.369 56.7667L301.443 54.9355L302.556 38.9749L300.76 36.8159L287.007 35.8542L284.929 37.7423L283.817 53.7029L285.616 55.8049L299.369 56.7667Z" fill="white"/>
<path d="M307.749 57.3526L308.027 53.3625L312.205 49.6736L314.169 49.811L317.823 54.0474L317.545 58.0376L321.446 58.3104L321.861 52.3537L318.238 48.0907L322.417 44.3734L322.837 38.3596L318.935 38.0868L318.655 42.1055L314.447 45.8208L312.483 45.6835L308.859 41.4205L309.14 37.4018L305.21 37.1271L304.791 43.1408L308.442 47.4057L304.235 51.1211L303.819 57.0778L307.749 57.3526Z" fill="white"/>
<path d="M327.621 58.7422L328.456 46.7717L332.635 43.0544L338.529 43.4666L337.417 59.4272L341.318 59.7L342.709 39.7492L330.949 38.9269L324.665 44.5019L323.692 58.4674L327.621 58.7422Z" fill="white"/>
<path d="M348.461 50.2041L348.6 48.209L352.781 44.4632L358.676 44.8753L358.257 50.8891L348.461 50.2041ZM347.767 60.151L348.183 54.1943L357.978 54.8792L357.563 60.836L361.465 61.1088L362.855 41.158L351.095 40.3356L344.809 45.9392L343.838 59.8762L347.767 60.151Z" fill="white"/>
<path d="M367.914 61.5598L368.192 57.5696L372.37 53.8808L374.334 54.0181L373.78 61.97L377.709 62.2447L378.264 54.2929L380.229 54.4303L383.882 58.6667L383.604 62.6569L387.505 62.9297L387.92 56.973L384.297 52.71L388.477 48.9927L388.896 42.9789L384.995 42.7061L384.714 46.7248L380.507 50.4402L378.542 50.3028L379.1 42.294L375.171 42.0192L374.612 50.028L372.648 49.8906L369.024 45.6276L369.305 41.609L365.375 41.3342L364.956 47.3479L368.607 51.6129L364.4 55.3282L363.984 61.285L367.914 61.5598Z" fill="white"/>
<path d="M395.052 59.4478L395.608 51.4675L399.816 47.7522L403.745 48.0269L402.911 59.9974L395.052 59.4478ZM392.559 67.2927L392.837 63.3026L404.598 64.1249L404.319 68.1151L408.249 68.3899L408.805 60.4096L406.812 60.2702L407.925 44.3096L398.129 43.6246L391.818 49.1977L391.123 59.1731L389.186 59.0376L388.63 67.0179L392.559 67.2927Z" fill="white"/>
<path d="M427.151 65.702L427.429 61.7118L414.686 60.8208L414.962 56.8591L426.723 57.6815L427.001 53.6913L415.24 52.869L415.52 48.8503L428.263 49.7414L428.541 45.7512L411.869 44.5854L410.478 64.5361L427.151 65.702Z" fill="white"/>
<path d="M433.595 66.1526L434.149 58.2008L443.945 58.8858L443.39 66.8376L447.292 67.1104L448.683 47.1596L444.781 46.8868L444.223 54.8956L434.427 54.2107L434.986 46.2018L431.056 45.9271L429.665 65.8778L433.595 66.1526Z" fill="white"/>
<path d="M454.015 67.5805L464.739 54.9555L463.811 68.2655L467.712 68.5383L469.103 48.5876L465.202 48.3148L454.48 60.9113L455.406 47.6298L451.477 47.355L450.086 67.3058L454.015 67.5805Z" fill="white"/>
<path d="M487.179 69.8996L487.457 65.9094L474.714 65.0183L474.99 61.0567L486.75 61.879L487.029 57.8889L475.268 57.0665L475.548 53.0479L488.291 53.9389L488.569 49.9488L471.897 48.7829L470.506 68.7337L487.179 69.8996Z" fill="white"/>
<path d="M569.959 71.6814L570.794 59.7109L580.613 60.3975L579.778 72.368L569.959 71.6814ZM581.47 76.4959L583.548 74.665L584.661 58.7044L582.86 56.5451L569.074 55.5811L566.992 57.4689L565.879 73.4295L567.683 75.5318L581.47 76.4959Z" fill="white"/>
<path d="M589.869 77.0832L590.147 73.0931L594.334 69.4049L596.304 69.5426L599.966 73.7797L599.688 77.7698L603.599 78.0433L604.014 72.0866L600.382 67.8229L604.571 64.1063L604.99 58.0925L601.079 57.8191L600.799 61.8377L596.582 65.5524L594.612 65.4147L590.98 61.1511L591.26 57.1324L587.321 56.857L586.902 62.8707L590.562 67.1363L586.345 70.851L585.93 76.8078L589.869 77.0832Z" fill="white"/>
<path d="M609.789 78.4761L610.623 66.5057L614.812 62.789L620.721 63.2022L619.608 79.1628L623.519 79.4362L624.91 59.4855L613.121 58.6611L606.824 64.2352L605.85 78.2007L609.789 78.4761Z" fill="white"/>
<path d="M630.677 69.9414L630.816 67.9463L635.007 64.2011L640.915 64.6143L640.496 70.628L630.677 69.9414ZM629.984 79.8883L630.399 73.9316L640.218 74.6182L639.803 80.5749L643.714 80.8484L645.104 60.8976L633.316 60.0733L627.016 65.6758L626.045 79.6129L629.984 79.8883Z" fill="white"/>
<path d="M650.178 81.3004L650.456 77.3103L654.643 73.6221L656.613 73.7598L656.059 81.7116L659.997 81.9871L660.552 74.0353L662.521 74.173L666.184 78.4101L665.906 82.4002L669.817 82.6737L670.232 76.717L666.599 72.4533L670.788 68.7366L671.207 62.7229L667.297 62.4494L667.016 66.4681L662.799 70.1828L660.83 70.0451L661.388 62.0363L657.449 61.7609L656.891 69.7697L654.922 69.6319L651.289 65.3683L651.569 61.3497L647.63 61.0742L647.211 67.088L650.872 71.3536L646.655 75.0683L646.239 81.025L650.178 81.3004Z" fill="white"/>
<path d="M677.381 79.193L677.937 71.2127L682.154 67.498L686.093 67.7734L685.259 79.7439L677.381 79.193ZM674.883 87.0376L675.161 83.0474L686.95 83.8718L686.672 87.8619L690.611 88.1374L691.167 80.1571L689.17 80.0174L690.282 64.0568L680.463 63.3701L674.137 68.9422L673.442 78.9176L671.501 78.7818L670.944 86.7621L674.883 87.0376Z" fill="white"/>
<path d="M709.557 85.4526L709.835 81.4625L697.062 80.5693L697.338 76.6076L709.127 77.4319L709.405 73.4418L697.616 72.6174L697.896 68.5988L710.67 69.492L710.948 65.5018L694.236 64.3332L692.845 84.284L709.557 85.4526Z" fill="white"/>
<path d="M716.017 85.9043L716.571 77.9525L726.39 78.6391L725.836 86.5909L729.747 86.8644L731.138 66.9136L727.227 66.6402L726.668 74.649L716.849 73.9624L717.408 65.9535L713.469 65.6781L712.078 85.6289L716.017 85.9043Z" fill="white"/>
<path d="M736.486 87.3357L747.233 74.7123L746.305 88.0223L750.216 88.2958L751.607 68.345L747.696 68.0715L736.951 80.6664L737.877 67.3849L733.938 67.1095L732.547 87.0602L736.486 87.3357Z" fill="white"/>
<path d="M769.729 89.6602L770.007 85.6701L757.234 84.7769L757.51 80.8152L769.299 81.6396L769.577 77.6494L757.788 76.8251L758.068 72.8064L770.842 73.6996L771.12 69.7095L754.407 68.5408L753.017 88.4916L769.729 89.6602Z" fill="white"/>
<path d="M233.862 32.4734L239.673 32.8797L227.49 52.0797L221.679 51.6733L233.862 32.4734Z" fill="white"/>
<path d="M248.104 33.4656L253.916 33.8719L241.733 53.0719L235.921 52.6655L248.104 33.4656Z" fill="white"/>
<path d="M262.354 34.4617L268.166 34.868L255.983 54.068L250.171 53.6616L262.354 34.4617Z" fill="white"/>
</svg>
