<svg width="1952" height="202" viewBox="0 0 1952 202" fill="none" xmlns="http://www.w3.org/2000/svg">
<path d="M199 115.1V129H240.9V143H254.9V129H261.8V115.1H254.9V73H240.9L199 115.1ZM240.9 115.1H216.5L240.9 90.9V115.1ZM282.844 119.9V87H308.744L282.844 119.9ZM317.744 129H292.344L317.744 96.4V129ZM324.744 143L331.644 136.1V80.1L324.744 73H275.744L268.844 80.1V136.1L275.744 143H324.744ZM394.637 143V129L408.537 115.1H415.537L429.537 129V143H443.437V122.1L429.537 108.1L443.437 94.1V73H429.537V87.1L415.537 101.1H408.537L394.637 87.1V73H380.637V94.1L394.637 108.1L380.637 122.1V143H394.637Z" fill="white"/>
<path d="M488.839 142.866L526.413 73.5H545.799L508.226 142.866H488.839Z" stroke="white"/>
<path d="M539.168 142.866L576.741 73.5H596.127L558.554 142.866H539.168Z" stroke="white"/>
<path d="M589.464 142.866L627.038 73.5H646.424L608.851 142.866H589.464Z" stroke="white"/>
<path d="M0.839474 142.866L38.4127 73.5H57.7988L20.2256 142.866H0.839474Z" stroke="white"/>
<path d="M51.1676 142.866L88.7408 73.5H108.127L70.5537 142.866H51.1676Z" stroke="white"/>
<path d="M101.464 142.866L139.038 73.5H158.424L120.851 142.866H101.464Z" stroke="white"/>
<path d="M687 115.1V129H728.9V143H742.9V129H749.8V115.1H742.9V73H728.9L687 115.1ZM728.9 115.1H704.5L728.9 90.9V115.1ZM770.844 119.9V87H796.744L770.844 119.9ZM805.744 129H780.344L805.744 96.4V129ZM812.744 143L819.644 136.1V80.1L812.744 73H763.744L756.844 80.1V136.1L763.744 143H812.744ZM882.637 143V129L896.537 115.1H903.537L917.537 129V143H931.437V122.1L917.537 108.1L931.437 94.1V73H917.537V87.1L903.537 101.1H896.537L882.637 87.1V73H868.637V94.1L882.637 108.1L868.637 122.1V143H882.637Z" fill="white"/>
<path d="M976.839 142.866L1014.41 73.5H1033.8L996.226 142.866H976.839Z" stroke="white"/>
<path d="M1027.17 142.866L1064.74 73.5H1084.13L1046.55 142.866H1027.17Z" stroke="white"/>
<path d="M1077.46 142.866L1115.04 73.5H1134.42L1096.85 142.866H1077.46Z" stroke="white"/>
<path d="M1175 115.1V129H1216.9V143H1230.9V129H1237.8V115.1H1230.9V73H1216.9L1175 115.1ZM1216.9 115.1H1192.5L1216.9 90.9V115.1ZM1258.84 119.9V87H1284.74L1258.84 119.9ZM1293.74 129H1268.34L1293.74 96.4V129ZM1300.74 143L1307.64 136.1V80.1L1300.74 73H1251.74L1244.84 80.1V136.1L1251.74 143H1300.74ZM1370.64 143V129L1384.54 115.1H1391.54L1405.54 129V143H1419.44V122.1L1405.54 108.1L1419.44 94.1V73H1405.54V87.1L1391.54 101.1H1384.54L1370.64 87.1V73H1356.64V94.1L1370.64 108.1L1356.64 122.1V143H1370.64Z" fill="white"/>
<path d="M1464.84 142.866L1502.41 73.5H1521.8L1484.23 142.866H1464.84Z" stroke="white"/>
<path d="M1515.17 142.866L1552.74 73.5H1572.13L1534.55 142.866H1515.17Z" stroke="white"/>
<path d="M1565.46 142.866L1603.04 73.5H1622.42L1584.85 142.866H1565.46Z" stroke="white"/>
<path d="M1663 115.1V129H1704.9V143H1718.9V129H1725.8V115.1H1718.9V73H1704.9L1663 115.1ZM1704.9 115.1H1680.5L1704.9 90.9V115.1ZM1746.84 119.9V87H1772.74L1746.84 119.9ZM1781.74 129H1756.34L1781.74 96.4V129ZM1788.74 143L1795.64 136.1V80.1L1788.74 73H1739.74L1732.84 80.1V136.1L1739.74 143H1788.74ZM1858.64 143V129L1872.54 115.1H1879.54L1893.54 129V143H1907.44V122.1L1893.54 108.1L1907.44 94.1V73H1893.54V87.1L1879.54 101.1H1872.54L1858.64 87.1V73H1844.64V94.1L1858.64 108.1L1844.64 122.1V143H1858.64Z" fill="white"/>
</svg>
