<svg width="1170" height="90" viewBox="0 0 1170 90" fill="none" xmlns="http://www.w3.org/2000/svg">
<path d="M118.586 54.26V62.6H143.726V71H152.126V62.6H156.266V54.26H152.126V29H143.726L118.586 54.26ZM143.726 54.26H129.086L143.726 39.74V54.26ZM168.892 57.14V37.4H184.432L168.892 57.14ZM189.832 62.6H174.592L189.832 43.04V62.6ZM194.032 71L198.172 66.86V33.26L194.032 29H164.632L160.492 33.26V66.86L164.632 71H194.032ZM235.968 71V62.6L244.308 54.26H248.508L256.908 62.6V71H265.248V58.46L256.908 50.06L265.248 41.66V29H256.908V37.46L248.508 45.86H244.308L235.968 37.46V29H227.568V41.66L235.968 50.06L227.568 58.46V71H235.968Z" fill="white"/>
<path d="M411.172 54.26V62.6H436.312V71H444.712V62.6H448.852V54.26H444.712V29H436.312L411.172 54.26ZM436.312 54.26H421.672L436.312 39.74V54.26ZM461.478 57.14V37.4H477.018L461.478 57.14ZM482.418 62.6H467.178L482.418 43.04V62.6ZM486.618 71L490.758 66.86V33.26L486.618 29H457.218L453.078 33.26V66.86L457.218 71H486.618ZM528.554 71V62.6L536.894 54.26H541.094L549.494 62.6V71H557.834V58.46L549.494 50.06L557.834 41.66V29H549.494V37.46L541.094 45.86H536.894L528.554 37.46V29H520.154V41.66L528.554 50.06L520.154 58.46V71H528.554Z" fill="white"/>
<path d="M703.75 54.26V62.6H728.89V71H737.29V62.6H741.43V54.26H737.29V29H728.89L703.75 54.26ZM728.89 54.26H714.25L728.89 39.74V54.26ZM754.056 57.14V37.4H769.596L754.056 57.14ZM774.996 62.6H759.756L774.996 43.04V62.6ZM779.196 71L783.336 66.86V33.26L779.196 29H749.796L745.656 33.26V66.86L749.796 71H779.196ZM821.132 71V62.6L829.472 54.26H833.672L842.072 62.6V71H850.412V58.46L842.072 50.06L850.412 41.66V29H842.072V37.46L833.672 45.86H829.472L821.132 37.46V29H812.732V41.66L821.132 50.06L812.732 58.46V71H821.132Z" fill="white"/>
<path d="M996.344 54.26V62.6H1021.48V71H1029.88V62.6H1034.02V54.26H1029.88V29H1021.48L996.344 54.26ZM1021.48 54.26H1006.84L1021.48 39.74V54.26ZM1046.65 57.14V37.4H1062.19L1046.65 57.14ZM1067.59 62.6H1052.35L1067.59 43.04V62.6ZM1071.79 71L1075.93 66.86V33.26L1071.79 29H1042.39L1038.25 33.26V66.86L1042.39 71H1071.79ZM1113.73 71V62.6L1122.07 54.26H1126.27L1134.67 62.6V71H1143.01V58.46L1134.67 50.06L1143.01 41.66V29H1134.67V37.46L1126.27 45.86H1122.07L1113.73 37.46V29H1105.33V41.66L1113.73 50.06L1105.33 58.46V71H1113.73Z" fill="white"/>
<path d="M292.965 70.775L315.357 29.4368H327.032L304.64 70.775H292.965Z" stroke="white" stroke-width="0.451791"/>
<path d="M322.848 70.775L345.24 29.4368H356.914L334.523 70.775H322.848Z" stroke="white" stroke-width="0.451791"/>
<path d="M352.723 70.775L375.115 29.4368H386.789L364.398 70.775H352.723Z" stroke="white" stroke-width="0.451791"/>
<path d="M0.379265 70.775L22.7708 29.4368H34.4457L12.0542 70.775H0.379265Z" stroke="white" stroke-width="0.451791"/>
<path d="M30.2699 70.775L52.6614 29.4368H64.3363L41.9448 70.775H30.2699Z" stroke="white" stroke-width="0.451791"/>
<path d="M60.1449 70.775L82.5364 29.4368H94.2113L71.8198 70.775H60.1449Z" stroke="white" stroke-width="0.451791"/>
<path d="M585.551 70.775L607.943 29.4368H619.618L597.226 70.775H585.551Z" stroke="white" stroke-width="0.451791"/>
<path d="M615.442 70.775L637.833 29.4368H649.508L627.117 70.775H615.442Z" stroke="white" stroke-width="0.451791"/>
<path d="M645.309 70.775L667.7 29.4368H679.375L656.984 70.775H645.309Z" stroke="white" stroke-width="0.451791"/>
<path d="M878.129 70.775L900.521 29.4368H912.196L889.804 70.775H878.129Z" stroke="white" stroke-width="0.451791"/>
<path d="M908.02 70.775L930.411 29.4368H942.086L919.695 70.775H908.02Z" stroke="white" stroke-width="0.451791"/>
<path d="M937.895 70.775L960.286 29.4368H971.961L949.57 70.775H937.895Z" stroke="white" stroke-width="0.451791"/>
</svg>
