<svg width="760" height="62" viewBox="0 0 760 62" fill="none" xmlns="http://www.w3.org/2000/svg">
<path d="M77.4844 40.84V46.4H94.2444V52H99.8444V46.4H102.604V40.84H99.8444V24H94.2444L77.4844 40.84ZM94.2444 40.84H84.4844L94.2444 31.16V40.84ZM111.022 42.76V29.6H121.382L111.022 42.76ZM124.982 46.4H114.822L124.982 33.36V46.4ZM127.782 52L130.542 49.24V26.84L127.782 24H108.182L105.422 26.84V49.24L108.182 52H127.782ZM155.739 52V46.4L161.299 40.84H164.099L169.699 46.4V52H175.259V43.64L169.699 38.04L175.259 32.44V24H169.699V29.64L164.099 35.24H161.299L155.739 29.64V24H150.139V32.44L155.739 38.04L150.139 43.64V52H155.739Z" fill="white"/>
<path d="M267.484 40.84V46.4H284.244V52H289.844V46.4H292.604V40.84H289.844V24H284.244L267.484 40.84ZM284.244 40.84H274.484L284.244 31.16V40.84ZM301.022 42.76V29.6H311.382L301.022 42.76ZM314.982 46.4H304.822L314.982 33.36V46.4ZM317.782 52L320.542 49.24V26.84L317.782 24H298.182L295.422 26.84V49.24L298.182 52H317.782ZM345.739 52V46.4L351.299 40.84H354.099L359.699 46.4V52H365.259V43.64L359.699 38.04L365.259 32.44V24H359.699V29.64L354.099 35.24H351.299L345.739 29.64V24H340.139V32.44L345.739 38.04L340.139 43.64V52H345.739Z" fill="white"/>
<path d="M457.484 40.84V46.4H474.244V52H479.844V46.4H482.604V40.84H479.844V24H474.244L457.484 40.84ZM474.244 40.84H464.484L474.244 31.16V40.84ZM491.022 42.76V29.6H501.382L491.022 42.76ZM504.982 46.4H494.822L504.982 33.36V46.4ZM507.782 52L510.542 49.24V26.84L507.782 24H488.182L485.422 26.84V49.24L488.182 52H507.782ZM535.739 52V46.4L541.299 40.84H544.099L549.699 46.4V52H555.259V43.64L549.699 38.04L555.259 32.44V24H549.699V29.64L544.099 35.24H541.299L535.739 29.64V24H530.139V32.44L535.739 38.04L530.139 43.64V52H535.739Z" fill="white"/>
<path d="M647.484 40.84V46.4H664.244V52H669.844V46.4H672.604V40.84H669.844V24H664.244L647.484 40.84ZM664.244 40.84H654.484L664.244 31.16V40.84ZM681.022 42.76V29.6H691.382L681.022 42.76ZM694.982 46.4H684.822L694.982 33.36V46.4ZM697.782 52L700.542 49.24V26.84L697.782 24H678.182L675.422 26.84V49.24L678.182 52H697.782ZM725.739 52V46.4L731.299 40.84H734.099L739.699 46.4V52H745.259V43.64L739.699 38.04L745.259 32.44V24H739.699V29.64L734.099 35.24H731.299L725.739 29.64V24H720.139V32.44L725.739 38.04L720.139 43.64V52H725.739Z" fill="white"/>
<path d="M189.864 51.7742L205.327 23.2259H213.272L197.808 51.7742H189.864Z" stroke="white" stroke-width="0.451791"/>
<path d="M210.606 51.7742L226.069 23.2259H234.014L218.55 51.7742H210.606Z" stroke="white" stroke-width="0.451791"/>
<path d="M231.332 51.7742L246.796 23.2259H254.741L239.277 51.7742H231.332Z" stroke="white" stroke-width="0.451791"/>
<path d="M0.379267 51.7742L15.8429 23.2259H23.7875L8.32381 51.7742H0.379267Z" stroke="white" stroke-width="0.451791"/>
<path d="M21.1215 51.7742L36.5851 23.2259H44.5297L29.066 51.7742H21.1215Z" stroke="white" stroke-width="0.451791"/>
<path d="M41.848 51.7742L57.3117 23.2259H65.2562L49.7926 51.7742H41.848Z" stroke="white" stroke-width="0.451791"/>
<path d="M379.864 51.7742L395.327 23.2259H403.272L387.808 51.7742H379.864Z" stroke="white" stroke-width="0.451791"/>
<path d="M400.606 51.7742L416.069 23.2259H424.014L408.55 51.7742H400.606Z" stroke="white" stroke-width="0.451791"/>
<path d="M421.332 51.7742L436.796 23.2259H444.741L429.277 51.7742H421.332Z" stroke="white" stroke-width="0.451791"/>
<path d="M569.864 51.7742L585.327 23.2259H593.272L577.808 51.7742H569.864Z" stroke="white" stroke-width="0.451791"/>
<path d="M590.606 51.7742L606.069 23.2259H614.014L598.55 51.7742H590.606Z" stroke="white" stroke-width="0.451791"/>
<path d="M611.332 51.7742L626.796 23.2259H634.741L619.277 51.7742H611.332Z" stroke="white" stroke-width="0.451791"/>
</svg>
