<svg width="1540" height="99" viewBox="0 0 1540 99" fill="none" xmlns="http://www.w3.org/2000/svg">
<path d="M151.391 63.68V74.8H184.911V86H196.111V74.8H201.631V63.68H196.111V30H184.911L151.391 63.68ZM184.911 63.68H165.391L184.911 44.32V63.68ZM218.466 67.52V41.2H239.186L218.466 67.52ZM246.386 74.8H226.066L246.386 48.72V74.8ZM251.986 86L257.506 80.48V35.68L251.986 30H212.786L207.266 35.68V80.48L212.786 86H251.986ZM307.9 86V74.8L319.02 63.68H324.62L335.82 74.8V86H346.94V69.28L335.82 58.08L346.94 46.88V30H335.82V41.28L324.62 52.48H319.02L307.9 41.28V30H296.7V46.88L307.9 58.08L296.7 69.28V86H307.9Z" fill="white"/>
<path d="M533.773 63.68V74.8H567.293V86H578.493V74.8H584.013V63.68H578.493V30H567.293L533.773 63.68ZM567.293 63.68H547.773L567.293 44.32V63.68ZM600.848 67.52V41.2H621.568L600.848 67.52ZM628.768 74.8H608.448L628.768 48.72V74.8ZM634.368 86L639.888 80.48V35.68L634.368 30H595.168L589.648 35.68V80.48L595.168 86H634.368ZM690.283 86V74.8L701.403 63.68H707.003L718.203 74.8V86H729.323V69.28L718.203 58.08L729.323 46.88V30H718.203V41.28L707.003 52.48H701.403L690.283 41.28V30H679.083V46.88L690.283 58.08L679.083 69.28V86H690.283Z" fill="white"/>
<path d="M916.156 63.68V74.8H949.676V86H960.876V74.8H966.396V63.68H960.876V30H949.676L916.156 63.68ZM949.676 63.68H930.156L949.676 44.32V63.68ZM983.231 67.52V41.2H1003.95L983.231 67.52ZM1011.15 74.8H990.831L1011.15 48.72V74.8ZM1016.75 86L1022.27 80.48V35.68L1016.75 30H977.551L972.031 35.68V80.48L977.551 86H1016.75ZM1072.67 86V74.8L1083.79 63.68H1089.39L1100.59 74.8V86H1111.71V69.28L1100.59 58.08L1111.71 46.88V30H1100.59V41.28L1089.39 52.48H1083.79L1072.67 41.28V30H1061.47V46.88L1072.67 58.08L1061.47 69.28V86H1072.67Z" fill="white"/>
<path d="M1298.55 63.68V74.8H1332.07V86H1343.27V74.8H1348.79V63.68H1343.27V30H1332.07L1298.55 63.68ZM1332.07 63.68H1312.55L1332.07 44.32V63.68ZM1365.62 67.52V41.2H1386.34L1365.62 67.52ZM1393.54 74.8H1373.22L1393.54 48.72V74.8ZM1399.14 86L1404.66 80.48V35.68L1399.14 30H1359.94L1354.42 35.68V80.48L1359.94 86H1399.14ZM1455.06 86V74.8L1466.18 63.68H1471.78L1482.98 74.8V86H1494.1V69.28L1482.98 58.08L1494.1 46.88V30H1482.98V41.28L1471.78 52.48H1466.18L1455.06 41.28V30H1443.86V46.88L1455.06 58.08L1443.86 69.28V86H1455.06Z" fill="white"/>
<path d="M383.02 80.3722L411.185 28.3748H425.717L397.552 80.3722H383.02Z" stroke="white" stroke-width="0.74961"/>
<path d="M420.746 80.3722L448.912 28.3748H463.444L435.278 80.3722H420.746Z" stroke="white" stroke-width="0.74961"/>
<path d="M458.45 80.3722L486.615 28.3748H501.147L472.982 80.3722H458.45Z" stroke="white" stroke-width="0.74961"/>
<path d="M0.629277 80.3722L28.7945 28.3748H43.3266L15.1613 80.3722H0.629277Z" stroke="white" stroke-width="0.74961"/>
<path d="M38.3558 80.3722L66.5211 28.3748H81.0531L52.8879 80.3722H38.3558Z" stroke="white" stroke-width="0.74961"/>
<path d="M76.059 80.3722L104.224 28.3748H118.756L90.591 80.3722H76.059Z" stroke="white" stroke-width="0.74961"/>
<path d="M765.403 80.3722L793.568 28.3748H808.1L779.935 80.3722H765.403Z" stroke="white" stroke-width="0.74961"/>
<path d="M803.129 80.3722L831.295 28.3748H845.827L817.661 80.3722H803.129Z" stroke="white" stroke-width="0.74961"/>
<path d="M840.832 80.3722L868.998 28.3748H883.53L855.364 80.3722H840.832Z" stroke="white" stroke-width="0.74961"/>
<path d="M1147.79 80.3722L1175.95 28.3748H1190.48L1162.32 80.3722H1147.79Z" stroke="white" stroke-width="0.74961"/>
<path d="M1185.51 80.3722L1213.68 28.3748H1228.21L1200.04 80.3722H1185.51Z" stroke="white" stroke-width="0.74961"/>
<path d="M1223.22 80.3722L1251.38 28.3748H1265.91L1237.75 80.3722H1223.22Z" stroke="white" stroke-width="0.74961"/>
</svg>
