<svg width="175" height="594" viewBox="0 0 175 594" fill="none" xmlns="http://www.w3.org/2000/svg">
<path fill-rule="evenodd" clip-rule="evenodd" d="M142.236 0.00486072C142.79 0.00218003 143.241 0.450675 143.241 1.00485V42.4726C143.241 43.0249 142.793 43.4726 142.241 43.4726H48.535C48.265 43.4726 48.0064 43.3633 47.8182 43.1698L30.7519 25.6209C30.5703 25.4342 30.4688 25.1841 30.4688 24.9237V1.54069C30.4688 0.990293 30.9135 0.543363 31.4639 0.540701L142.236 0.00486072ZM36.3143 5.34627C35.7639 5.34894 35.3192 5.79587 35.3192 6.34626V22.969C35.3192 23.2294 35.4207 23.4795 35.6023 23.6662L49.8733 38.3408C50.0616 38.5344 50.3202 38.6436 50.5902 38.6436H137.39C137.943 38.6436 138.39 38.1959 138.39 37.6436V5.85735C138.39 5.30317 137.94 4.85468 137.386 4.85736L36.3143 5.34627Z" fill="white"/>
<rect x="57.1484" y="15.7031" width="64.2679" height="6.90915" rx="3.45458" fill="white"/>
<path d="M0 86.8085V61.8252H7.44296C7.73212 61.8252 8.20055 61.831 8.84827 61.8425C9.50755 61.8541 10.1321 61.9061 10.722 61.9987C12.5958 62.2531 14.1514 62.9587 15.389 64.1153C16.6266 65.2604 17.552 66.7177 18.165 68.4874C18.778 70.2455 19.0845 72.1886 19.0845 74.3168C19.0845 76.4566 18.778 78.4113 18.165 80.181C17.552 81.9391 16.6266 83.3907 15.389 84.5357C14.1514 85.6808 12.5958 86.3806 10.722 86.635C10.1321 86.716 9.50177 86.768 8.83092 86.7912C8.17164 86.8027 7.70898 86.8085 7.44296 86.8085H0ZM2.0993 84.848H7.44296C7.96344 84.848 8.50128 84.8365 9.05647 84.8133C9.61165 84.7786 10.0859 84.7266 10.4791 84.6572C12.029 84.3796 13.2782 83.7666 14.2266 82.8181C15.1751 81.8581 15.8633 80.6494 16.2912 79.1921C16.7307 77.7231 16.9505 76.0981 16.9505 74.3168C16.9505 72.5241 16.7307 70.899 16.2912 69.4416C15.8517 67.9727 15.1577 66.764 14.2093 65.8156C13.2608 64.8556 12.0175 64.2425 10.4791 63.9765C10.0859 63.9071 9.60008 63.8609 9.02176 63.8377C8.45501 63.803 7.92874 63.7857 7.44296 63.7857H2.0993V84.848Z" fill="white"/>
<path d="M23.2877 64.2888V61.7384H25.2829V64.2888H23.2877ZM23.2877 86.8085V68.071H25.2829V86.8085H23.2877Z" fill="white"/>
<path d="M37.4197 87.2943C35.2568 87.2943 33.4698 86.8374 32.0587 85.9237C30.6592 85.01 29.7917 83.7376 29.4563 82.1068L31.5035 81.7598C31.7927 82.8702 32.4751 83.755 33.5508 84.4143C34.6264 85.0736 35.945 85.4032 37.5065 85.4032C39.0564 85.4032 40.2882 85.0736 41.2019 84.4143C42.1157 83.755 42.5725 82.8528 42.5725 81.7078C42.5725 81.0832 42.428 80.5743 42.1388 80.181C41.8612 79.7762 41.306 79.406 40.4732 79.0706C39.6405 78.7352 38.4029 78.3419 36.7604 77.8909C35.0255 77.4282 33.6664 76.9655 32.6833 76.5029C31.7117 76.0402 31.0235 75.514 30.6187 74.9241C30.2254 74.3342 30.0288 73.6113 30.0288 72.7554C30.0288 71.726 30.3238 70.8238 30.9136 70.0489C31.5035 69.2623 32.3247 68.6493 33.3773 68.2098C34.4414 67.7703 35.6674 67.5505 37.0554 67.5505C38.4433 67.5505 39.6925 67.7819 40.8029 68.2445C41.9133 68.6956 42.8097 69.3317 43.4921 70.153C44.1745 70.9626 44.5677 71.9053 44.6718 72.9809L42.6246 73.3626C42.428 72.1597 41.8207 71.2113 40.8029 70.5173C39.785 69.8117 38.5127 69.4532 36.986 69.4416C35.5402 69.4185 34.3604 69.7077 33.4467 70.3091C32.5329 70.899 32.0761 71.6797 32.0761 72.6513C32.0761 73.2065 32.2322 73.6807 32.5445 74.074C32.8684 74.4556 33.4351 74.8084 34.2448 75.1323C35.0544 75.4561 36.1995 75.8031 37.68 76.1732C39.4843 76.6359 40.8896 77.1101 41.8959 77.5959C42.9137 78.0817 43.6309 78.6542 44.0472 79.3135C44.4636 79.9612 44.6718 80.7651 44.6718 81.7251C44.6718 83.4601 44.0241 84.8249 42.7287 85.8196C41.4448 86.8027 39.6752 87.2943 37.4197 87.2943Z" fill="white"/>
<path d="M56.7309 87.329C55.0422 87.329 53.6137 86.8895 52.4455 86.0104C51.2773 85.1314 50.3867 83.9458 49.7737 82.4538C49.1607 80.9617 48.8542 79.2788 48.8542 77.4051C48.8542 75.5198 49.1607 73.8368 49.7737 72.3563C50.3867 70.8643 51.2947 69.6903 52.4976 68.8344C53.7005 67.9785 55.1752 67.5505 56.9217 67.5505C58.622 67.5505 60.0735 67.9843 61.2764 68.8517C62.4793 69.7192 63.3931 70.899 64.0177 72.391C64.6538 73.8831 64.9719 75.5544 64.9719 77.4051C64.9719 79.2788 64.648 80.9675 64.0003 82.4711C63.3642 83.9632 62.4331 85.1487 61.207 86.0278C59.9926 86.8953 58.5005 87.329 56.7309 87.329ZM48.5245 95.1363V68.071H50.3462V82.5058H50.5197V95.1363H48.5245ZM56.6094 85.4206C57.9858 85.4206 59.1309 85.0678 60.0446 84.3622C60.9699 83.6567 61.6639 82.7025 62.1266 81.4996C62.6008 80.2851 62.8379 78.9203 62.8379 77.4051C62.8379 75.9014 62.6066 74.554 62.1439 73.3626C61.6928 72.1597 61.0046 71.2113 60.0793 70.5173C59.1656 69.8117 57.9974 69.459 56.5747 69.459C55.1983 69.459 54.0475 69.8002 53.1221 70.4826C52.1968 71.1534 51.5029 72.0903 51.0402 73.2932C50.5775 74.4961 50.3462 75.8667 50.3462 77.4051C50.3462 78.9318 50.5718 80.3024 51.0229 81.5169C51.4855 82.7198 52.1795 83.674 53.1048 84.3796C54.0417 85.0736 55.2099 85.4206 56.6094 85.4206Z" fill="white"/>
<path d="M69.1352 86.8085V61.3047H71.1304V86.8085H69.1352Z" fill="white"/>
<path d="M81.7578 87.329C80.312 87.329 79.1091 87.0745 78.1491 86.5656C77.2007 86.0567 76.4894 85.3859 76.0151 84.5531C75.5409 83.7087 75.3038 82.795 75.3038 81.8118C75.3038 80.7477 75.5236 79.8571 75.9631 79.14C76.4142 78.4229 77.0098 77.8446 77.7501 77.4051C78.5019 76.9655 79.3289 76.6359 80.2311 76.4161C81.2605 76.1848 82.3709 75.9882 83.5622 75.8263C84.7535 75.6528 85.887 75.5024 86.9627 75.3752C88.0499 75.2479 88.9348 75.1381 89.6172 75.0455L88.8885 75.4793C88.9348 73.4552 88.5531 71.9515 87.7434 70.9684C86.9454 69.9737 85.5343 69.4763 83.5101 69.4763C82.0875 69.4763 80.9135 69.8002 79.9882 70.4479C79.0744 71.084 78.4325 72.073 78.0624 73.4147L76.0151 72.8421C76.4431 71.1419 77.3048 69.8349 78.6002 68.9211C79.8957 68.0074 81.5554 67.5505 83.5795 67.5505C85.3029 67.5505 86.7487 67.8859 87.9169 68.5568C89.0967 69.2276 89.9179 70.1703 90.3806 71.3848C90.5772 71.8821 90.7102 72.4662 90.7796 73.1371C90.849 73.7964 90.8837 74.4614 90.8837 75.1323V86.8085H89.062V81.8813L89.7386 82.0547C89.1719 83.7434 88.183 85.0447 86.7719 85.9584C85.3608 86.8721 83.6894 87.329 81.7578 87.329ZM81.8619 85.49C83.1342 85.49 84.2504 85.2644 85.2104 84.8133C86.1704 84.3507 86.9454 83.7087 87.5352 82.8875C88.1367 82.0547 88.5184 81.0774 88.6803 79.9555C88.796 79.3309 88.8596 78.6542 88.8712 77.9256C88.8827 77.1969 88.8885 76.659 88.8885 76.312L89.756 76.8672C89.0042 76.9598 88.102 77.0581 87.0495 77.1622C86.0085 77.2663 84.9444 77.3935 83.8571 77.5439C82.7699 77.6942 81.7868 77.8851 80.9077 78.1164C80.3641 78.2668 79.8147 78.4865 79.2595 78.7757C78.7159 79.0533 78.259 79.4407 77.8889 79.9381C77.5303 80.4355 77.3511 81.0658 77.3511 81.8292C77.3511 82.396 77.4899 82.9627 77.7674 83.5295C78.0566 84.0962 78.5308 84.5646 79.1901 84.9348C79.8494 85.3049 80.74 85.49 81.8619 85.49Z" fill="white"/>
<path d="M97.0794 95.1363L100.723 85.3338L100.757 88.2485L92.5512 68.071H94.6852L101.729 85.5941H100.619L107.021 68.071H109.12L99.1613 95.1363H97.0794Z" fill="white"/>
<path d="M112.264 86.8085V61.8252H121.685C121.927 61.8252 122.188 61.8367 122.465 61.8599C122.754 61.8714 123.055 61.9061 123.367 61.964C124.617 62.1606 125.687 62.6117 126.577 63.3172C127.479 64.0112 128.168 64.8903 128.642 65.9544C129.116 67.0069 129.353 68.1693 129.353 69.4416C129.353 70.7255 129.116 71.8995 128.642 72.9636C128.168 74.0161 127.479 74.8952 126.577 75.6007C125.687 76.2947 124.617 76.74 123.367 76.9366C123.055 76.9829 122.754 77.0176 122.465 77.0407C122.188 77.0639 121.927 77.0754 121.685 77.0754H114.259V86.8085H112.264ZM114.259 75.1149H121.65C121.858 75.1149 122.095 75.1034 122.361 75.0802C122.639 75.0571 122.916 75.0224 123.194 74.9761C124.096 74.7911 124.848 74.4267 125.449 73.8831C126.051 73.3279 126.502 72.6629 126.803 71.8879C127.103 71.113 127.254 70.2975 127.254 69.4416C127.254 68.5857 127.103 67.7761 126.803 67.0127C126.502 66.2377 126.051 65.5785 125.449 65.0348C124.848 64.4797 124.096 64.1095 123.194 63.9245C122.916 63.8666 122.639 63.8262 122.361 63.803C122.095 63.7799 121.858 63.7683 121.65 63.7683H114.259V75.1149Z" fill="white"/>
<path d="M140.451 87.329C138.588 87.329 137.01 86.9068 135.714 86.0625C134.419 85.2181 133.43 84.0499 132.747 82.5579C132.065 81.0658 131.724 79.3482 131.724 77.4051C131.724 75.4504 132.071 73.7327 132.765 72.2523C133.459 70.7602 134.453 69.6036 135.749 68.7823C137.056 67.9611 138.623 67.5505 140.451 67.5505C142.313 67.5505 143.892 67.9727 145.187 68.817C146.494 69.6498 147.483 70.8065 148.154 72.287C148.836 73.7674 149.177 75.4735 149.177 77.4051C149.177 79.3829 148.836 81.1179 148.154 82.6099C147.471 84.0904 146.477 85.2471 145.17 86.0798C143.863 86.9126 142.29 87.329 140.451 87.329ZM140.451 85.3859C142.66 85.3859 144.308 84.6456 145.395 83.1651C146.494 81.6846 147.043 79.7646 147.043 77.4051C147.043 74.9993 146.494 73.0792 145.395 71.645C144.296 70.2108 142.648 69.4937 140.451 69.4937C138.958 69.4937 137.727 69.8349 136.755 70.5173C135.784 71.1881 135.055 72.1192 134.569 73.3106C134.095 74.4903 133.858 75.8552 133.858 77.4051C133.858 79.8109 134.413 81.7425 135.523 83.1998C136.645 84.6572 138.288 85.3859 140.451 85.3859Z" fill="white"/>
<path d="M152.995 86.8085V68.071H154.816V72.5645L154.365 71.9747C154.573 71.4426 154.834 70.951 155.146 70.4999C155.47 70.0373 155.799 69.6614 156.135 69.3722C156.632 68.9096 157.216 68.5626 157.887 68.3313C158.558 68.0884 159.235 67.9496 159.917 67.9149C160.599 67.8686 161.218 67.9206 161.773 68.071V69.9621C161.033 69.7886 160.247 69.7539 159.414 69.858C158.581 69.9621 157.8 70.3207 157.072 70.9337C156.436 71.4889 155.973 72.1366 155.684 72.8768C155.395 73.6055 155.209 74.3747 155.129 75.1843C155.048 75.9824 155.007 76.7631 155.007 77.5265V86.8085H152.995Z" fill="white"/>
<path d="M174.999 86.8085C174.004 87.0283 173.021 87.1092 172.05 87.0514C171.078 87.0051 170.211 86.7912 169.447 86.4095C168.696 86.0162 168.129 85.4148 167.747 84.6051C167.435 83.9458 167.261 83.2808 167.227 82.6099C167.192 81.9391 167.175 81.1699 167.175 80.3024V62.8661H169.187V80.2677C169.187 81.0543 169.193 81.7078 169.204 82.2282C169.228 82.7372 169.349 83.2056 169.569 83.6336C169.985 84.4316 170.644 84.9174 171.547 85.0909C172.449 85.2528 173.6 85.2239 174.999 85.0042V86.8085ZM162.976 69.8927V68.071H174.999V69.8927H162.976Z" fill="white"/>
<path fill-rule="evenodd" clip-rule="evenodd" d="M142.236 163.093C142.79 163.09 143.241 163.539 143.241 164.093V205.56C143.241 206.113 142.793 206.56 142.241 206.56H48.535C48.265 206.56 48.0064 206.451 47.8182 206.258L30.7519 188.709C30.5703 188.522 30.4688 188.272 30.4688 188.012V164.629C30.4688 164.078 30.9135 163.631 31.4639 163.629L142.236 163.093ZM36.3143 168.434C35.7639 168.437 35.3192 168.884 35.3192 169.434V186.057C35.3192 186.317 35.4207 186.567 35.6023 186.754L49.8733 201.429C50.0616 201.622 50.3202 201.731 50.5902 201.731H137.39C137.943 201.731 138.39 201.284 138.39 200.731V168.945C138.39 168.391 137.94 167.943 137.386 167.945L36.3143 168.434Z" fill="white"/>
<rect x="57.1484" y="178.791" width="64.2679" height="6.90915" rx="3.45458" fill="white"/>
<path d="M0 249.894V224.911H7.44296C7.73212 224.911 8.20055 224.917 8.84827 224.928C9.50755 224.94 10.1321 224.992 10.722 225.085C12.5958 225.339 14.1514 226.045 15.389 227.201C16.6266 228.346 17.552 229.804 18.165 231.573C18.778 233.331 19.0845 235.275 19.0845 237.403C19.0845 239.543 18.778 241.497 18.165 243.267C17.552 245.025 16.6266 246.477 15.389 247.622C14.1514 248.767 12.5958 249.467 10.722 249.721C10.1321 249.802 9.50177 249.854 8.83092 249.877C8.17164 249.889 7.70898 249.894 7.44296 249.894H0ZM2.0993 247.934H7.44296C7.96344 247.934 8.50128 247.922 9.05647 247.899C9.61165 247.865 10.0859 247.813 10.4791 247.743C12.029 247.466 13.2782 246.853 14.2266 245.904C15.1751 244.944 15.8633 243.735 16.2912 242.278C16.7307 240.809 16.9505 239.184 16.9505 237.403C16.9505 235.61 16.7307 233.985 16.2912 232.528C15.8517 231.059 15.1577 229.85 14.2093 228.902C13.2608 227.941 12.0175 227.328 10.4791 227.062C10.0859 226.993 9.60008 226.947 9.02176 226.924C8.45501 226.889 7.92874 226.872 7.44296 226.872H2.0993V247.934Z" fill="white"/>
<path d="M23.2877 227.375V224.824H25.2829V227.375H23.2877ZM23.2877 249.894V231.157H25.2829V249.894H23.2877Z" fill="white"/>
<path d="M37.4197 250.38C35.2568 250.38 33.4698 249.923 32.0587 249.01C30.6592 248.096 29.7917 246.824 29.4563 245.193L31.5035 244.846C31.7927 245.956 32.4751 246.841 33.5508 247.5C34.6264 248.16 35.945 248.489 37.5065 248.489C39.0564 248.489 40.2882 248.16 41.2019 247.5C42.1157 246.841 42.5725 245.939 42.5725 244.794C42.5725 244.169 42.428 243.66 42.1388 243.267C41.8612 242.862 41.306 242.492 40.4732 242.157C39.6405 241.821 38.4029 241.428 36.7604 240.977C35.0255 240.514 33.6664 240.051 32.6833 239.589C31.7117 239.126 31.0235 238.6 30.6187 238.01C30.2254 237.42 30.0288 236.697 30.0288 235.841C30.0288 234.812 30.3238 233.91 30.9136 233.135C31.5035 232.348 32.3247 231.735 33.3773 231.296C34.4414 230.856 35.6674 230.636 37.0554 230.636C38.4433 230.636 39.6925 230.868 40.8029 231.33C41.9133 231.782 42.8097 232.418 43.4921 233.239C44.1745 234.049 44.5677 234.991 44.6718 236.067L42.6246 236.449C42.428 235.246 41.8207 234.297 40.8029 233.603C39.785 232.898 38.5127 232.539 36.986 232.528C35.5402 232.504 34.3604 232.794 33.4467 233.395C32.5329 233.985 32.0761 234.766 32.0761 235.737C32.0761 236.292 32.2322 236.767 32.5445 237.16C32.8684 237.542 33.4351 237.894 34.2448 238.218C35.0544 238.542 36.1995 238.889 37.68 239.259C39.4843 239.722 40.8896 240.196 41.8959 240.682C42.9137 241.168 43.6309 241.74 44.0472 242.399C44.4636 243.047 44.6718 243.851 44.6718 244.811C44.6718 246.546 44.0241 247.911 42.7287 248.906C41.4448 249.889 39.6752 250.38 37.4197 250.38Z" fill="white"/>
<path d="M56.7309 250.415C55.0422 250.415 53.6137 249.975 52.4455 249.096C51.2773 248.217 50.3867 247.032 49.7737 245.54C49.1607 244.048 48.8542 242.365 48.8542 240.491C48.8542 238.606 49.1607 236.923 49.7737 235.442C50.3867 233.95 51.2947 232.776 52.4976 231.92C53.7005 231.064 55.1752 230.636 56.9217 230.636C58.622 230.636 60.0735 231.07 61.2764 231.938C62.4793 232.805 63.3931 233.985 64.0177 235.477C64.6538 236.969 64.9719 238.64 64.9719 240.491C64.9719 242.365 64.648 244.053 64.0003 245.557C63.3642 247.049 62.4331 248.235 61.207 249.114C59.9926 249.981 58.5005 250.415 56.7309 250.415ZM48.5245 258.222V231.157H50.3462V245.592H50.5197V258.222H48.5245ZM56.6094 248.506C57.9858 248.506 59.1309 248.154 60.0446 247.448C60.9699 246.743 61.6639 245.788 62.1266 244.585C62.6008 243.371 62.8379 242.006 62.8379 240.491C62.8379 238.987 62.6066 237.64 62.1439 236.449C61.6928 235.246 61.0046 234.297 60.0793 233.603C59.1656 232.898 57.9974 232.545 56.5747 232.545C55.1983 232.545 54.0475 232.886 53.1221 233.569C52.1968 234.239 51.5029 235.176 51.0402 236.379C50.5775 237.582 50.3462 238.953 50.3462 240.491C50.3462 242.018 50.5718 243.388 51.0229 244.603C51.4855 245.806 52.1795 246.76 53.1048 247.466C54.0417 248.16 55.2099 248.506 56.6094 248.506Z" fill="white"/>
<path d="M69.1352 249.894V224.391H71.1304V249.894H69.1352Z" fill="white"/>
<path d="M81.7578 250.415C80.312 250.415 79.1091 250.16 78.1491 249.652C77.2007 249.143 76.4894 248.472 76.0151 247.639C75.5409 246.795 75.3038 245.881 75.3038 244.898C75.3038 243.834 75.5236 242.943 75.9631 242.226C76.4142 241.509 77.0098 240.931 77.7501 240.491C78.5019 240.051 79.3289 239.722 80.2311 239.502C81.2605 239.271 82.3709 239.074 83.5622 238.912C84.7535 238.739 85.887 238.588 86.9627 238.461C88.0499 238.334 88.9348 238.224 89.6172 238.131L88.8885 238.565C88.9348 236.541 88.5531 235.037 87.7434 234.054C86.9454 233.06 85.5343 232.562 83.5101 232.562C82.0875 232.562 80.9135 232.886 79.9882 233.534C79.0744 234.17 78.4325 235.159 78.0624 236.501L76.0151 235.928C76.4431 234.228 77.3048 232.921 78.6002 232.007C79.8957 231.093 81.5554 230.636 83.5795 230.636C85.3029 230.636 86.7487 230.972 87.9169 231.643C89.0967 232.314 89.9179 233.256 90.3806 234.471C90.5772 234.968 90.7102 235.552 90.7796 236.223C90.849 236.882 90.8837 237.547 90.8837 238.218V249.894H89.062V244.967L89.7386 245.141C89.1719 246.829 88.183 248.131 86.7719 249.044C85.3608 249.958 83.6894 250.415 81.7578 250.415ZM81.8619 248.576C83.1342 248.576 84.2504 248.35 85.2104 247.899C86.1704 247.437 86.9454 246.795 87.5352 245.973C88.1367 245.141 88.5184 244.163 88.6803 243.041C88.796 242.417 88.8596 241.74 88.8712 241.011C88.8827 240.283 88.8885 239.745 88.8885 239.398L89.756 239.953C89.0042 240.046 88.102 240.144 87.0495 240.248C86.0085 240.352 84.9444 240.479 83.8571 240.63C82.7699 240.78 81.7868 240.971 80.9077 241.202C80.3641 241.353 79.8147 241.572 79.2595 241.862C78.7159 242.139 78.259 242.527 77.8889 243.024C77.5303 243.521 77.3511 244.152 77.3511 244.915C77.3511 245.482 77.4899 246.049 77.7674 246.615C78.0566 247.182 78.5308 247.651 79.1901 248.021C79.8494 248.391 80.74 248.576 81.8619 248.576Z" fill="white"/>
<path d="M97.0794 258.222L100.723 248.42L100.757 251.334L92.5512 231.157H94.6852L101.729 248.68H100.619L107.021 231.157H109.12L99.1613 258.222H97.0794Z" fill="white"/>
<path d="M112.264 249.894V224.911H121.685C121.927 224.911 122.188 224.923 122.465 224.946C122.754 224.957 123.055 224.992 123.367 225.05C124.617 225.247 125.687 225.698 126.577 226.403C127.479 227.097 128.168 227.976 128.642 229.04C129.116 230.093 129.353 231.255 129.353 232.528C129.353 233.811 129.116 234.985 128.642 236.05C128.168 237.102 127.479 237.981 126.577 238.687C125.687 239.381 124.617 239.826 123.367 240.023C123.055 240.069 122.754 240.104 122.465 240.127C122.188 240.15 121.927 240.161 121.685 240.161H114.259V249.894H112.264ZM114.259 238.201H121.65C121.858 238.201 122.095 238.189 122.361 238.166C122.639 238.143 122.916 238.108 123.194 238.062C124.096 237.877 124.848 237.513 125.449 236.969C126.051 236.414 126.502 235.749 126.803 234.974C127.103 234.199 127.254 233.383 127.254 232.528C127.254 231.672 127.103 230.862 126.803 230.099C126.502 229.324 126.051 228.664 125.449 228.121C124.848 227.566 124.096 227.195 123.194 227.01C122.916 226.953 122.639 226.912 122.361 226.889C122.095 226.866 121.858 226.854 121.65 226.854H114.259V238.201Z" fill="white"/>
<path d="M140.451 250.415C138.588 250.415 137.01 249.993 135.714 249.148C134.419 248.304 133.43 247.136 132.747 245.644C132.065 244.152 131.724 242.434 131.724 240.491C131.724 238.536 132.071 236.819 132.765 235.338C133.459 233.846 134.453 232.689 135.749 231.868C137.056 231.047 138.623 230.636 140.451 230.636C142.313 230.636 143.892 231.059 145.187 231.903C146.494 232.736 147.483 233.892 148.154 235.373C148.836 236.853 149.177 238.559 149.177 240.491C149.177 242.469 148.836 244.204 148.154 245.696C147.471 247.176 146.477 248.333 145.17 249.166C143.863 249.999 142.29 250.415 140.451 250.415ZM140.451 248.472C142.66 248.472 144.308 247.732 145.395 246.251C146.494 244.771 147.043 242.851 147.043 240.491C147.043 238.085 146.494 236.165 145.395 234.731C144.296 233.297 142.648 232.58 140.451 232.58C138.958 232.58 137.727 232.921 136.755 233.603C135.784 234.274 135.055 235.205 134.569 236.397C134.095 237.576 133.858 238.941 133.858 240.491C133.858 242.897 134.413 244.828 135.523 246.286C136.645 247.743 138.288 248.472 140.451 248.472Z" fill="white"/>
<path d="M152.995 249.894V231.157H154.816V235.65L154.365 235.061C154.573 234.529 154.834 234.037 155.146 233.586C155.47 233.123 155.799 232.747 156.135 232.458C156.632 231.996 157.216 231.649 157.887 231.417C158.558 231.174 159.235 231.035 159.917 231.001C160.599 230.955 161.218 231.007 161.773 231.157V233.048C161.033 232.875 160.247 232.84 159.414 232.944C158.581 233.048 157.8 233.407 157.072 234.02C156.436 234.575 155.973 235.223 155.684 235.963C155.395 236.691 155.209 237.461 155.129 238.27C155.048 239.068 155.007 239.849 155.007 240.612V249.894H152.995Z" fill="white"/>
<path d="M174.999 249.894C174.004 250.114 173.021 250.195 172.05 250.137C171.078 250.091 170.211 249.877 169.447 249.495C168.696 249.102 168.129 248.501 167.747 247.691C167.435 247.032 167.261 246.367 167.227 245.696C167.192 245.025 167.175 244.256 167.175 243.388V225.952H169.187V243.354C169.187 244.14 169.193 244.794 169.204 245.314C169.228 245.823 169.349 246.292 169.569 246.719C169.985 247.518 170.644 248.003 171.547 248.177C172.449 248.339 173.6 248.31 174.999 248.09V249.894ZM162.976 232.979V231.157H174.999V232.979H162.976Z" fill="white"/>
<path fill-rule="evenodd" clip-rule="evenodd" d="M142.236 334.853C142.79 334.85 143.241 335.298 143.241 335.853V377.32C143.241 377.873 142.793 378.32 142.241 378.32H48.535C48.265 378.32 48.0064 378.211 47.8182 378.017L30.7519 360.469C30.5703 360.282 30.4688 360.032 30.4688 359.771V336.388C30.4688 335.838 30.9135 335.391 31.4639 335.388L142.236 334.853ZM36.3143 340.194C35.7639 340.197 35.3192 340.644 35.3192 341.194V357.817C35.3192 358.077 35.4207 358.327 35.6023 358.514L49.8733 373.188C50.0616 373.382 50.3202 373.491 50.5902 373.491H137.39C137.943 373.491 138.39 373.044 138.39 372.491V340.705C138.39 340.151 137.94 339.702 137.386 339.705L36.3143 340.194Z" fill="white"/>
<rect x="57.1484" y="350.551" width="64.2679" height="6.90915" rx="3.45458" fill="white"/>
<path d="M0 421.654V396.671H7.44296C7.73212 396.671 8.20055 396.677 8.84827 396.688C9.50755 396.7 10.1321 396.752 10.722 396.844C12.5958 397.099 14.1514 397.804 15.389 398.961C16.6266 400.106 17.552 401.563 18.165 403.333C18.778 405.091 19.0845 407.034 19.0845 409.163C19.0845 411.302 18.778 413.257 18.165 415.027C17.552 416.785 16.6266 418.236 15.389 419.381C14.1514 420.527 12.5958 421.226 10.722 421.481C10.1321 421.562 9.50177 421.614 8.83092 421.637C8.17164 421.648 7.70898 421.654 7.44296 421.654H0ZM2.0993 419.694H7.44296C7.96344 419.694 8.50128 419.682 9.05647 419.659C9.61165 419.624 10.0859 419.572 10.4791 419.503C12.029 419.225 13.2782 418.612 14.2266 417.664C15.1751 416.704 15.8633 415.495 16.2912 414.038C16.7307 412.569 16.9505 410.944 16.9505 409.163C16.9505 407.37 16.7307 405.745 16.2912 404.287C15.8517 402.818 15.1577 401.61 14.2093 400.661C13.2608 399.701 12.0175 399.088 10.4791 398.822C10.0859 398.753 9.60008 398.707 9.02176 398.683C8.45501 398.649 7.92874 398.631 7.44296 398.631H2.0993V419.694Z" fill="white"/>
<path d="M23.2877 399.135V396.584H25.2829V399.135H23.2877ZM23.2877 421.654V402.917H25.2829V421.654H23.2877Z" fill="white"/>
<path d="M37.4197 422.14C35.2568 422.14 33.4698 421.683 32.0587 420.769C30.6592 419.856 29.7917 418.583 29.4563 416.952L31.5035 416.606C31.7927 417.716 32.4751 418.601 33.5508 419.26C34.6264 419.919 35.945 420.249 37.5065 420.249C39.0564 420.249 40.2882 419.919 41.2019 419.26C42.1157 418.601 42.5725 417.699 42.5725 416.553C42.5725 415.929 42.428 415.42 42.1388 415.027C41.8612 414.622 41.306 414.252 40.4732 413.916C39.6405 413.581 38.4029 413.188 36.7604 412.737C35.0255 412.274 33.6664 411.811 32.6833 411.349C31.7117 410.886 31.0235 410.36 30.6187 409.77C30.2254 409.18 30.0288 408.457 30.0288 407.601C30.0288 406.572 30.3238 405.67 30.9136 404.895C31.5035 404.108 32.3247 403.495 33.3773 403.056C34.4414 402.616 35.6674 402.396 37.0554 402.396C38.4433 402.396 39.6925 402.628 40.8029 403.09C41.9133 403.541 42.8097 404.177 43.4921 404.999C44.1745 405.808 44.5677 406.751 44.6718 407.827L42.6246 408.208C42.428 407.005 41.8207 406.057 40.8029 405.363C39.785 404.657 38.5127 404.299 36.986 404.287C35.5402 404.264 34.3604 404.553 33.4467 405.155C32.5329 405.745 32.0761 406.525 32.0761 407.497C32.0761 408.052 32.2322 408.526 32.5445 408.92C32.8684 409.301 33.4351 409.654 34.2448 409.978C35.0544 410.302 36.1995 410.649 37.68 411.019C39.4843 411.482 40.8896 411.956 41.8959 412.442C42.9137 412.927 43.6309 413.5 44.0472 414.159C44.4636 414.807 44.6718 415.611 44.6718 416.571C44.6718 418.306 44.0241 419.671 42.7287 420.665C41.4448 421.648 39.6752 422.14 37.4197 422.14Z" fill="white"/>
<path d="M56.7309 422.175C55.0422 422.175 53.6137 421.735 52.4455 420.856C51.2773 419.977 50.3867 418.792 49.7737 417.299C49.1607 415.807 48.8542 414.125 48.8542 412.251C48.8542 410.365 49.1607 408.683 49.7737 407.202C50.3867 405.71 51.2947 404.536 52.4976 403.68C53.7005 402.824 55.1752 402.396 56.9217 402.396C58.622 402.396 60.0735 402.83 61.2764 403.697C62.4793 404.565 63.3931 405.745 64.0177 407.237C64.6538 408.729 64.9719 410.4 64.9719 412.251C64.9719 414.125 64.648 415.813 64.0003 417.317C63.3642 418.809 62.4331 419.994 61.207 420.873C59.9926 421.741 58.5005 422.175 56.7309 422.175ZM48.5245 429.982V402.917H50.3462V417.352H50.5197V429.982H48.5245ZM56.6094 420.266C57.9858 420.266 59.1309 419.913 60.0446 419.208C60.9699 418.502 61.6639 417.548 62.1266 416.345C62.6008 415.131 62.8379 413.766 62.8379 412.251C62.8379 410.747 62.6066 409.4 62.1439 408.208C61.6928 407.005 61.0046 406.057 60.0793 405.363C59.1656 404.657 57.9974 404.305 56.5747 404.305C55.1983 404.305 54.0475 404.646 53.1221 405.328C52.1968 405.999 51.5029 406.936 51.0402 408.139C50.5775 409.342 50.3462 410.712 50.3462 412.251C50.3462 413.778 50.5718 415.148 51.0229 416.363C51.4855 417.566 52.1795 418.52 53.1048 419.225C54.0417 419.919 55.2099 420.266 56.6094 420.266Z" fill="white"/>
<path d="M69.1352 421.654V396.15H71.1304V421.654H69.1352Z" fill="white"/>
<path d="M81.7578 422.175C80.312 422.175 79.1091 421.92 78.1491 421.411C77.2007 420.902 76.4894 420.232 76.0151 419.399C75.5409 418.554 75.3038 417.641 75.3038 416.658C75.3038 415.593 75.5236 414.703 75.9631 413.986C76.4142 413.269 77.0098 412.69 77.7501 412.251C78.5019 411.811 79.3289 411.482 80.2311 411.262C81.2605 411.031 82.3709 410.834 83.5622 410.672C84.7535 410.498 85.887 410.348 86.9627 410.221C88.0499 410.094 88.9348 409.984 89.6172 409.891L88.8885 410.325C88.9348 408.301 88.5531 406.797 87.7434 405.814C86.9454 404.819 85.5343 404.322 83.5101 404.322C82.0875 404.322 80.9135 404.646 79.9882 405.294C79.0744 405.93 78.4325 406.919 78.0624 408.26L76.0151 407.688C76.4431 405.988 77.3048 404.681 78.6002 403.767C79.8957 402.853 81.5554 402.396 83.5795 402.396C85.3029 402.396 86.7487 402.732 87.9169 403.403C89.0967 404.073 89.9179 405.016 90.3806 406.23C90.5772 406.728 90.7102 407.312 90.7796 407.983C90.849 408.642 90.8837 409.307 90.8837 409.978V421.654H89.062V416.727L89.7386 416.9C89.1719 418.589 88.183 419.89 86.7719 420.804C85.3608 421.718 83.6894 422.175 81.7578 422.175ZM81.8619 420.336C83.1342 420.336 84.2504 420.11 85.2104 419.659C86.1704 419.196 86.9454 418.554 87.5352 417.733C88.1367 416.9 88.5184 415.923 88.6803 414.801C88.796 414.177 88.8596 413.5 88.8712 412.771C88.8827 412.043 88.8885 411.505 88.8885 411.158L89.756 411.713C89.0042 411.805 88.102 411.904 87.0495 412.008C86.0085 412.112 84.9444 412.239 83.8571 412.39C82.7699 412.54 81.7868 412.731 80.9077 412.962C80.3641 413.112 79.8147 413.332 79.2595 413.621C78.7159 413.899 78.259 414.286 77.8889 414.784C77.5303 415.281 77.3511 415.912 77.3511 416.675C77.3511 417.242 77.4899 417.808 77.7674 418.375C78.0566 418.942 78.5308 419.41 79.1901 419.78C79.8494 420.151 80.74 420.336 81.8619 420.336Z" fill="white"/>
<path d="M97.0794 429.982L100.723 420.18L100.757 423.094L92.5512 402.917H94.6852L101.729 420.44H100.619L107.021 402.917H109.12L99.1613 429.982H97.0794Z" fill="white"/>
<path d="M112.264 421.654V396.671H121.685C121.927 396.671 122.188 396.682 122.465 396.706C122.754 396.717 123.055 396.752 123.367 396.81C124.617 397.006 125.687 397.457 126.577 398.163C127.479 398.857 128.168 399.736 128.642 400.8C129.116 401.853 129.353 403.015 129.353 404.287C129.353 405.571 129.116 406.745 128.642 407.809C128.168 408.862 127.479 409.741 126.577 410.446C125.687 411.14 124.617 411.586 123.367 411.782C123.055 411.829 122.754 411.863 122.465 411.886C122.188 411.91 121.927 411.921 121.685 411.921H114.259V421.654H112.264ZM114.259 409.961H121.65C121.858 409.961 122.095 409.949 122.361 409.926C122.639 409.903 122.916 409.868 123.194 409.822C124.096 409.637 124.848 409.272 125.449 408.729C126.051 408.174 126.502 407.509 126.803 406.734C127.103 405.959 127.254 405.143 127.254 404.287C127.254 403.431 127.103 402.622 126.803 401.858C126.502 401.083 126.051 400.424 125.449 399.881C124.848 399.325 124.096 398.955 123.194 398.77C122.916 398.712 122.639 398.672 122.361 398.649C122.095 398.626 121.858 398.614 121.65 398.614H114.259V409.961Z" fill="white"/>
<path d="M140.451 422.175C138.588 422.175 137.01 421.753 135.714 420.908C134.419 420.064 133.43 418.896 132.747 417.404C132.065 415.912 131.724 414.194 131.724 412.251C131.724 410.296 132.071 408.578 132.765 407.098C133.459 405.606 134.453 404.449 135.749 403.628C137.056 402.807 138.623 402.396 140.451 402.396C142.313 402.396 143.892 402.818 145.187 403.663C146.494 404.496 147.483 405.652 148.154 407.133C148.836 408.613 149.177 410.319 149.177 412.251C149.177 414.229 148.836 415.964 148.154 417.456C147.471 418.936 146.477 420.093 145.17 420.926C143.863 421.758 142.29 422.175 140.451 422.175ZM140.451 420.232C142.66 420.232 144.308 419.491 145.395 418.011C146.494 416.53 147.043 414.61 147.043 412.251C147.043 409.845 146.494 407.925 145.395 406.491C144.296 405.056 142.648 404.339 140.451 404.339C138.958 404.339 137.727 404.681 136.755 405.363C135.784 406.034 135.055 406.965 134.569 408.156C134.095 409.336 133.858 410.701 133.858 412.251C133.858 414.657 134.413 416.588 135.523 418.046C136.645 419.503 138.288 420.232 140.451 420.232Z" fill="white"/>
<path d="M152.995 421.654V402.917H154.816V407.41L154.365 406.82C154.573 406.288 154.834 405.797 155.146 405.346C155.47 404.883 155.799 404.507 156.135 404.218C156.632 403.755 157.216 403.408 157.887 403.177C158.558 402.934 159.235 402.795 159.917 402.761C160.599 402.714 161.218 402.766 161.773 402.917V404.808C161.033 404.634 160.247 404.6 159.414 404.704C158.581 404.808 157.8 405.166 157.072 405.779C156.436 406.335 155.973 406.982 155.684 407.723C155.395 408.451 155.209 409.22 155.129 410.03C155.048 410.828 155.007 411.609 155.007 412.372V421.654H152.995Z" fill="white"/>
<path d="M174.999 421.654C174.004 421.874 173.021 421.955 172.05 421.897C171.078 421.851 170.211 421.637 169.447 421.255C168.696 420.862 168.129 420.26 167.747 419.451C167.435 418.792 167.261 418.126 167.227 417.456C167.192 416.785 167.175 416.016 167.175 415.148V397.712H169.187V415.113C169.187 415.9 169.193 416.553 169.204 417.074C169.228 417.583 169.349 418.051 169.569 418.479C169.985 419.277 170.644 419.763 171.547 419.937C172.449 420.099 173.6 420.07 174.999 419.85V421.654ZM162.976 404.738V402.917H174.999V404.738H162.976Z" fill="white"/>
<rect x="54.1172" y="522.201" width="66.2656" height="4.79802" rx="2.39901" fill="white"/>
<path fill-rule="evenodd" clip-rule="evenodd" d="M31.2266 507.607C31.2266 507.055 31.6743 506.607 32.2266 506.607H142.276C142.828 506.607 143.276 507.055 143.276 507.607V537.204C143.276 537.756 142.828 538.204 142.276 538.204H129.917C129.612 538.204 129.325 538.343 129.135 538.581L120.494 549.413C120.305 549.651 120.017 549.79 119.713 549.79H54.7897C54.4854 549.79 54.1977 549.651 54.0079 549.413L45.3673 538.581C45.1775 538.343 44.8898 538.204 44.5855 538.204H32.2266C31.6743 538.204 31.2266 537.756 31.2266 537.204V507.607ZM36.8471 510.82C36.2949 510.82 35.8471 511.268 35.8471 511.82V532.991C35.8471 533.544 36.2949 533.991 36.8471 533.991H46.9384C47.2427 533.991 47.5304 534.13 47.7202 534.368L56.3608 545.2C56.5506 545.438 56.8383 545.577 57.1426 545.577H117.36C117.664 545.577 117.952 545.438 118.141 545.2L126.782 534.368C126.972 534.13 127.26 533.991 127.564 533.991H137.655C138.207 533.991 138.655 533.544 138.655 532.991V511.82C138.655 511.268 138.207 510.82 137.655 510.82H36.8471Z" fill="white"/>
<path d="M47.75 593.13V568.146H49.7452V579.667H64.2147V568.146H66.2273V593.13H64.2147V581.61H49.7452V593.13H47.75Z" fill="white"/>
<path d="M71.0973 593.13V568.146H78.5403C78.8295 568.146 79.2979 568.152 79.9456 568.164C80.6049 568.175 81.2295 568.227 81.8194 568.32C83.6931 568.574 85.2488 569.28 86.4864 570.437C87.724 571.582 88.6493 573.039 89.2623 574.809C89.8753 576.567 90.1818 578.51 90.1818 580.638C90.1818 582.778 89.8753 584.733 89.2623 586.502C88.6493 588.26 87.724 589.712 86.4864 590.857C85.2488 592.002 83.6931 592.702 81.8194 592.956C81.2295 593.037 80.5991 593.089 79.9283 593.112C79.269 593.124 78.8063 593.13 78.5403 593.13H71.0973ZM73.1966 591.169H78.5403C79.0608 591.169 79.5986 591.158 80.1538 591.135C80.709 591.1 81.1832 591.048 81.5765 590.978C83.1264 590.701 84.3755 590.088 85.324 589.139C86.2724 588.179 86.9606 586.971 87.3886 585.513C87.8281 584.044 88.0478 582.419 88.0478 580.638C88.0478 578.845 87.8281 577.22 87.3886 575.763C86.949 574.294 86.2551 573.085 85.3066 572.137C84.3582 571.177 83.1148 570.564 81.5765 570.298C81.1832 570.228 80.6974 570.182 80.1191 570.159C79.5524 570.124 79.0261 570.107 78.5403 570.107H73.1966V591.169Z" fill="white"/>
<path d="M94.038 593.13V568.146H95.8944L106.131 590.25L116.263 568.146H118.189V593.095H116.228V572.744L106.929 593.13H105.298L95.9812 572.744V593.13H94.038Z" fill="white"/>
<path d="M123.391 593.13V568.146H125.387V593.13H123.391Z" fill="white"/>
</svg>
