<svg width="829" height="840" viewBox="0 0 829 840" fill="none" xmlns="http://www.w3.org/2000/svg">
<path d="M100.236 403.888C232.375 282.272 496.023 48.0371 493.506 84.022C490.36 129.003 0.60697 541.83 2.70441 552.826C4.80186 563.821 524.967 102.015 572.16 76.0257C619.352 50.0366 28.923 594.808 2.70441 641.788C-23.5142 688.769 690.665 9.05422 726.322 2.05716C761.979 -4.93991 89.7487 632.792 94.9921 642.788C100.236 652.784 693.811 89.0194 726.322 76.0257C758.833 63.032 146.38 707.761 167.354 702.764C188.328 697.766 686.471 160.991 715.836 143.998C745.2 127.005 105.479 854.7 174.695 837.707C243.911 820.714 671.789 215.968 693.812 203.973C715.836 191.978 262.788 773.734 308.931 772.734C355.075 771.735 780.856 148.996 791.343 143.998C801.831 139 466.24 662.78 463.094 682.772C459.947 702.764 803.928 171.986 815.464 166.988C827 161.99 542.797 658.782 557.479 670.777C569.224 680.373 742.053 363.573 827 203.973" stroke="#91FF6A" stroke-width="4" stroke-linecap="round" stroke-linejoin="round"/>
</svg>
