<svg width="130" height="124" viewBox="0 0 130 124" fill="none" xmlns="http://www.w3.org/2000/svg">
<path d="M22.4256 32.4778C32.9696 32.4778 42.3404 25.7869 45.6122 15.8653C51.7085 -2.62176 78.2915 -2.62176 84.3878 15.8653C87.6596 25.7869 97.0304 32.4778 107.574 32.4778C127.381 32.4778 135.471 57.362 119.566 68.7476C111.018 74.8669 107.427 85.7302 110.7 95.6573C116.76 114.035 95.3779 129.557 79.3204 118.062C70.7794 111.948 59.2206 111.948 50.6796 118.062C34.6221 129.557 13.2395 114.035 19.2998 95.6573C22.5734 85.7302 18.9815 74.8669 10.4336 68.7476C-5.471 57.362 2.61871 32.4778 22.4256 32.4778Z" stroke="#91FF6A" stroke-width="4"/>
</svg>
